G04 #@! TF.GenerationSoftware,KiCad,Pcbnew,8.0.6*
G04 #@! TF.CreationDate,2024-11-10T21:08:27-05:00*
G04 #@! TF.ProjectId,t41_2_low_power_amplifier,7434315f-325f-46c6-9f77-5f706f776572,rev?*
G04 #@! TF.SameCoordinates,Original*
G04 #@! TF.FileFunction,Legend,Bot*
G04 #@! TF.FilePolarity,Positive*
%FSLAX46Y46*%
G04 Gerber Fmt 4.6, Leading zero omitted, Abs format (unit mm)*
G04 Created by KiCad (PCBNEW 8.0.6) date 2024-11-10 21:08:27*
%MOMM*%
%LPD*%
G01*
G04 APERTURE LIST*
G04 Aperture macros list*
%AMRoundRect*
0 Rectangle with rounded corners*
0 $1 Rounding radius*
0 $2 $3 $4 $5 $6 $7 $8 $9 X,Y pos of 4 corners*
0 Add a 4 corners polygon primitive as box body*
4,1,4,$2,$3,$4,$5,$6,$7,$8,$9,$2,$3,0*
0 Add four circle primitives for the rounded corners*
1,1,$1+$1,$2,$3*
1,1,$1+$1,$4,$5*
1,1,$1+$1,$6,$7*
1,1,$1+$1,$8,$9*
0 Add four rect primitives between the rounded corners*
20,1,$1+$1,$2,$3,$4,$5,0*
20,1,$1+$1,$4,$5,$6,$7,0*
20,1,$1+$1,$6,$7,$8,$9,0*
20,1,$1+$1,$8,$9,$2,$3,0*%
G04 Aperture macros list end*
%ADD10C,0.150000*%
%ADD11C,0.120000*%
%ADD12C,1.440000*%
%ADD13C,2.000000*%
%ADD14C,7.500000*%
%ADD15C,2.600000*%
%ADD16C,2.500000*%
%ADD17R,2.400000X2.400000*%
%ADD18C,2.400000*%
%ADD19C,2.100000*%
%ADD20RoundRect,0.250000X0.325000X0.650000X-0.325000X0.650000X-0.325000X-0.650000X0.325000X-0.650000X0*%
%ADD21RoundRect,0.250000X-0.325000X-0.650000X0.325000X-0.650000X0.325000X0.650000X-0.325000X0.650000X0*%
%ADD22RoundRect,0.250000X0.312500X0.625000X-0.312500X0.625000X-0.312500X-0.625000X0.312500X-0.625000X0*%
G04 APERTURE END LIST*
D10*
X152866666Y-77059580D02*
X152914285Y-77107200D01*
X152914285Y-77107200D02*
X153057142Y-77154819D01*
X153057142Y-77154819D02*
X153152380Y-77154819D01*
X153152380Y-77154819D02*
X153295237Y-77107200D01*
X153295237Y-77107200D02*
X153390475Y-77011961D01*
X153390475Y-77011961D02*
X153438094Y-76916723D01*
X153438094Y-76916723D02*
X153485713Y-76726247D01*
X153485713Y-76726247D02*
X153485713Y-76583390D01*
X153485713Y-76583390D02*
X153438094Y-76392914D01*
X153438094Y-76392914D02*
X153390475Y-76297676D01*
X153390475Y-76297676D02*
X153295237Y-76202438D01*
X153295237Y-76202438D02*
X153152380Y-76154819D01*
X153152380Y-76154819D02*
X153057142Y-76154819D01*
X153057142Y-76154819D02*
X152914285Y-76202438D01*
X152914285Y-76202438D02*
X152866666Y-76250057D01*
X152009523Y-76154819D02*
X152199999Y-76154819D01*
X152199999Y-76154819D02*
X152295237Y-76202438D01*
X152295237Y-76202438D02*
X152342856Y-76250057D01*
X152342856Y-76250057D02*
X152438094Y-76392914D01*
X152438094Y-76392914D02*
X152485713Y-76583390D01*
X152485713Y-76583390D02*
X152485713Y-76964342D01*
X152485713Y-76964342D02*
X152438094Y-77059580D01*
X152438094Y-77059580D02*
X152390475Y-77107200D01*
X152390475Y-77107200D02*
X152295237Y-77154819D01*
X152295237Y-77154819D02*
X152104761Y-77154819D01*
X152104761Y-77154819D02*
X152009523Y-77107200D01*
X152009523Y-77107200D02*
X151961904Y-77059580D01*
X151961904Y-77059580D02*
X151914285Y-76964342D01*
X151914285Y-76964342D02*
X151914285Y-76726247D01*
X151914285Y-76726247D02*
X151961904Y-76631009D01*
X151961904Y-76631009D02*
X152009523Y-76583390D01*
X152009523Y-76583390D02*
X152104761Y-76535771D01*
X152104761Y-76535771D02*
X152295237Y-76535771D01*
X152295237Y-76535771D02*
X152390475Y-76583390D01*
X152390475Y-76583390D02*
X152438094Y-76631009D01*
X152438094Y-76631009D02*
X152485713Y-76726247D01*
X150942856Y-76154819D02*
X150847618Y-76154819D01*
X150847618Y-76154819D02*
X150752380Y-76202438D01*
X150752380Y-76202438D02*
X150704761Y-76250057D01*
X150704761Y-76250057D02*
X150657142Y-76345295D01*
X150657142Y-76345295D02*
X150609523Y-76535771D01*
X150609523Y-76535771D02*
X150609523Y-76773866D01*
X150609523Y-76773866D02*
X150657142Y-76964342D01*
X150657142Y-76964342D02*
X150704761Y-77059580D01*
X150704761Y-77059580D02*
X150752380Y-77107200D01*
X150752380Y-77107200D02*
X150847618Y-77154819D01*
X150847618Y-77154819D02*
X150942856Y-77154819D01*
X150942856Y-77154819D02*
X151038094Y-77107200D01*
X151038094Y-77107200D02*
X151085713Y-77059580D01*
X151085713Y-77059580D02*
X151133332Y-76964342D01*
X151133332Y-76964342D02*
X151180951Y-76773866D01*
X151180951Y-76773866D02*
X151180951Y-76535771D01*
X151180951Y-76535771D02*
X151133332Y-76345295D01*
X151133332Y-76345295D02*
X151085713Y-76250057D01*
X151085713Y-76250057D02*
X151038094Y-76202438D01*
X151038094Y-76202438D02*
X150942856Y-76154819D01*
X150180951Y-77059580D02*
X150133332Y-77107200D01*
X150133332Y-77107200D02*
X150180951Y-77154819D01*
X150180951Y-77154819D02*
X150228570Y-77107200D01*
X150228570Y-77107200D02*
X150180951Y-77059580D01*
X150180951Y-77059580D02*
X150180951Y-77154819D01*
X149180952Y-77154819D02*
X149752380Y-77154819D01*
X149466666Y-77154819D02*
X149466666Y-76154819D01*
X149466666Y-76154819D02*
X149561904Y-76297676D01*
X149561904Y-76297676D02*
X149657142Y-76392914D01*
X149657142Y-76392914D02*
X149752380Y-76440533D01*
X148323809Y-76488152D02*
X148323809Y-77154819D01*
X148752380Y-76488152D02*
X148752380Y-77011961D01*
X148752380Y-77011961D02*
X148704761Y-77107200D01*
X148704761Y-77107200D02*
X148609523Y-77154819D01*
X148609523Y-77154819D02*
X148466666Y-77154819D01*
X148466666Y-77154819D02*
X148371428Y-77107200D01*
X148371428Y-77107200D02*
X148323809Y-77059580D01*
X147514285Y-76631009D02*
X147847618Y-76631009D01*
X147847618Y-77154819D02*
X147847618Y-76154819D01*
X147847618Y-76154819D02*
X147371428Y-76154819D01*
X171966666Y-74059580D02*
X172014285Y-74107200D01*
X172014285Y-74107200D02*
X172157142Y-74154819D01*
X172157142Y-74154819D02*
X172252380Y-74154819D01*
X172252380Y-74154819D02*
X172395237Y-74107200D01*
X172395237Y-74107200D02*
X172490475Y-74011961D01*
X172490475Y-74011961D02*
X172538094Y-73916723D01*
X172538094Y-73916723D02*
X172585713Y-73726247D01*
X172585713Y-73726247D02*
X172585713Y-73583390D01*
X172585713Y-73583390D02*
X172538094Y-73392914D01*
X172538094Y-73392914D02*
X172490475Y-73297676D01*
X172490475Y-73297676D02*
X172395237Y-73202438D01*
X172395237Y-73202438D02*
X172252380Y-73154819D01*
X172252380Y-73154819D02*
X172157142Y-73154819D01*
X172157142Y-73154819D02*
X172014285Y-73202438D01*
X172014285Y-73202438D02*
X171966666Y-73250057D01*
X171014285Y-74154819D02*
X171585713Y-74154819D01*
X171299999Y-74154819D02*
X171299999Y-73154819D01*
X171299999Y-73154819D02*
X171395237Y-73297676D01*
X171395237Y-73297676D02*
X171490475Y-73392914D01*
X171490475Y-73392914D02*
X171585713Y-73440533D01*
X174642856Y-74854819D02*
X174547618Y-74854819D01*
X174547618Y-74854819D02*
X174452380Y-74902438D01*
X174452380Y-74902438D02*
X174404761Y-74950057D01*
X174404761Y-74950057D02*
X174357142Y-75045295D01*
X174357142Y-75045295D02*
X174309523Y-75235771D01*
X174309523Y-75235771D02*
X174309523Y-75473866D01*
X174309523Y-75473866D02*
X174357142Y-75664342D01*
X174357142Y-75664342D02*
X174404761Y-75759580D01*
X174404761Y-75759580D02*
X174452380Y-75807200D01*
X174452380Y-75807200D02*
X174547618Y-75854819D01*
X174547618Y-75854819D02*
X174642856Y-75854819D01*
X174642856Y-75854819D02*
X174738094Y-75807200D01*
X174738094Y-75807200D02*
X174785713Y-75759580D01*
X174785713Y-75759580D02*
X174833332Y-75664342D01*
X174833332Y-75664342D02*
X174880951Y-75473866D01*
X174880951Y-75473866D02*
X174880951Y-75235771D01*
X174880951Y-75235771D02*
X174833332Y-75045295D01*
X174833332Y-75045295D02*
X174785713Y-74950057D01*
X174785713Y-74950057D02*
X174738094Y-74902438D01*
X174738094Y-74902438D02*
X174642856Y-74854819D01*
X173880951Y-75759580D02*
X173833332Y-75807200D01*
X173833332Y-75807200D02*
X173880951Y-75854819D01*
X173880951Y-75854819D02*
X173928570Y-75807200D01*
X173928570Y-75807200D02*
X173880951Y-75759580D01*
X173880951Y-75759580D02*
X173880951Y-75854819D01*
X172880952Y-75854819D02*
X173452380Y-75854819D01*
X173166666Y-75854819D02*
X173166666Y-74854819D01*
X173166666Y-74854819D02*
X173261904Y-74997676D01*
X173261904Y-74997676D02*
X173357142Y-75092914D01*
X173357142Y-75092914D02*
X173452380Y-75140533D01*
X172023809Y-75188152D02*
X172023809Y-75854819D01*
X172452380Y-75188152D02*
X172452380Y-75711961D01*
X172452380Y-75711961D02*
X172404761Y-75807200D01*
X172404761Y-75807200D02*
X172309523Y-75854819D01*
X172309523Y-75854819D02*
X172166666Y-75854819D01*
X172166666Y-75854819D02*
X172071428Y-75807200D01*
X172071428Y-75807200D02*
X172023809Y-75759580D01*
X171214285Y-75331009D02*
X171547618Y-75331009D01*
X171547618Y-75854819D02*
X171547618Y-74854819D01*
X171547618Y-74854819D02*
X171071428Y-74854819D01*
X160266666Y-75559580D02*
X160314285Y-75607200D01*
X160314285Y-75607200D02*
X160457142Y-75654819D01*
X160457142Y-75654819D02*
X160552380Y-75654819D01*
X160552380Y-75654819D02*
X160695237Y-75607200D01*
X160695237Y-75607200D02*
X160790475Y-75511961D01*
X160790475Y-75511961D02*
X160838094Y-75416723D01*
X160838094Y-75416723D02*
X160885713Y-75226247D01*
X160885713Y-75226247D02*
X160885713Y-75083390D01*
X160885713Y-75083390D02*
X160838094Y-74892914D01*
X160838094Y-74892914D02*
X160790475Y-74797676D01*
X160790475Y-74797676D02*
X160695237Y-74702438D01*
X160695237Y-74702438D02*
X160552380Y-74654819D01*
X160552380Y-74654819D02*
X160457142Y-74654819D01*
X160457142Y-74654819D02*
X160314285Y-74702438D01*
X160314285Y-74702438D02*
X160266666Y-74750057D01*
X159885713Y-74750057D02*
X159838094Y-74702438D01*
X159838094Y-74702438D02*
X159742856Y-74654819D01*
X159742856Y-74654819D02*
X159504761Y-74654819D01*
X159504761Y-74654819D02*
X159409523Y-74702438D01*
X159409523Y-74702438D02*
X159361904Y-74750057D01*
X159361904Y-74750057D02*
X159314285Y-74845295D01*
X159314285Y-74845295D02*
X159314285Y-74940533D01*
X159314285Y-74940533D02*
X159361904Y-75083390D01*
X159361904Y-75083390D02*
X159933332Y-75654819D01*
X159933332Y-75654819D02*
X159314285Y-75654819D01*
X158442856Y-74654819D02*
X158347618Y-74654819D01*
X158347618Y-74654819D02*
X158252380Y-74702438D01*
X158252380Y-74702438D02*
X158204761Y-74750057D01*
X158204761Y-74750057D02*
X158157142Y-74845295D01*
X158157142Y-74845295D02*
X158109523Y-75035771D01*
X158109523Y-75035771D02*
X158109523Y-75273866D01*
X158109523Y-75273866D02*
X158157142Y-75464342D01*
X158157142Y-75464342D02*
X158204761Y-75559580D01*
X158204761Y-75559580D02*
X158252380Y-75607200D01*
X158252380Y-75607200D02*
X158347618Y-75654819D01*
X158347618Y-75654819D02*
X158442856Y-75654819D01*
X158442856Y-75654819D02*
X158538094Y-75607200D01*
X158538094Y-75607200D02*
X158585713Y-75559580D01*
X158585713Y-75559580D02*
X158633332Y-75464342D01*
X158633332Y-75464342D02*
X158680951Y-75273866D01*
X158680951Y-75273866D02*
X158680951Y-75035771D01*
X158680951Y-75035771D02*
X158633332Y-74845295D01*
X158633332Y-74845295D02*
X158585713Y-74750057D01*
X158585713Y-74750057D02*
X158538094Y-74702438D01*
X158538094Y-74702438D02*
X158442856Y-74654819D01*
X157680951Y-75559580D02*
X157633332Y-75607200D01*
X157633332Y-75607200D02*
X157680951Y-75654819D01*
X157680951Y-75654819D02*
X157728570Y-75607200D01*
X157728570Y-75607200D02*
X157680951Y-75559580D01*
X157680951Y-75559580D02*
X157680951Y-75654819D01*
X156680952Y-75654819D02*
X157252380Y-75654819D01*
X156966666Y-75654819D02*
X156966666Y-74654819D01*
X156966666Y-74654819D02*
X157061904Y-74797676D01*
X157061904Y-74797676D02*
X157157142Y-74892914D01*
X157157142Y-74892914D02*
X157252380Y-74940533D01*
X155823809Y-74988152D02*
X155823809Y-75654819D01*
X156252380Y-74988152D02*
X156252380Y-75511961D01*
X156252380Y-75511961D02*
X156204761Y-75607200D01*
X156204761Y-75607200D02*
X156109523Y-75654819D01*
X156109523Y-75654819D02*
X155966666Y-75654819D01*
X155966666Y-75654819D02*
X155871428Y-75607200D01*
X155871428Y-75607200D02*
X155823809Y-75559580D01*
X155014285Y-75131009D02*
X155347618Y-75131009D01*
X155347618Y-75654819D02*
X155347618Y-74654819D01*
X155347618Y-74654819D02*
X154871428Y-74654819D01*
X160166666Y-83859580D02*
X160214285Y-83907200D01*
X160214285Y-83907200D02*
X160357142Y-83954819D01*
X160357142Y-83954819D02*
X160452380Y-83954819D01*
X160452380Y-83954819D02*
X160595237Y-83907200D01*
X160595237Y-83907200D02*
X160690475Y-83811961D01*
X160690475Y-83811961D02*
X160738094Y-83716723D01*
X160738094Y-83716723D02*
X160785713Y-83526247D01*
X160785713Y-83526247D02*
X160785713Y-83383390D01*
X160785713Y-83383390D02*
X160738094Y-83192914D01*
X160738094Y-83192914D02*
X160690475Y-83097676D01*
X160690475Y-83097676D02*
X160595237Y-83002438D01*
X160595237Y-83002438D02*
X160452380Y-82954819D01*
X160452380Y-82954819D02*
X160357142Y-82954819D01*
X160357142Y-82954819D02*
X160214285Y-83002438D01*
X160214285Y-83002438D02*
X160166666Y-83050057D01*
X159833332Y-82954819D02*
X159214285Y-82954819D01*
X159214285Y-82954819D02*
X159547618Y-83335771D01*
X159547618Y-83335771D02*
X159404761Y-83335771D01*
X159404761Y-83335771D02*
X159309523Y-83383390D01*
X159309523Y-83383390D02*
X159261904Y-83431009D01*
X159261904Y-83431009D02*
X159214285Y-83526247D01*
X159214285Y-83526247D02*
X159214285Y-83764342D01*
X159214285Y-83764342D02*
X159261904Y-83859580D01*
X159261904Y-83859580D02*
X159309523Y-83907200D01*
X159309523Y-83907200D02*
X159404761Y-83954819D01*
X159404761Y-83954819D02*
X159690475Y-83954819D01*
X159690475Y-83954819D02*
X159785713Y-83907200D01*
X159785713Y-83907200D02*
X159833332Y-83859580D01*
X158242856Y-82954819D02*
X158147618Y-82954819D01*
X158147618Y-82954819D02*
X158052380Y-83002438D01*
X158052380Y-83002438D02*
X158004761Y-83050057D01*
X158004761Y-83050057D02*
X157957142Y-83145295D01*
X157957142Y-83145295D02*
X157909523Y-83335771D01*
X157909523Y-83335771D02*
X157909523Y-83573866D01*
X157909523Y-83573866D02*
X157957142Y-83764342D01*
X157957142Y-83764342D02*
X158004761Y-83859580D01*
X158004761Y-83859580D02*
X158052380Y-83907200D01*
X158052380Y-83907200D02*
X158147618Y-83954819D01*
X158147618Y-83954819D02*
X158242856Y-83954819D01*
X158242856Y-83954819D02*
X158338094Y-83907200D01*
X158338094Y-83907200D02*
X158385713Y-83859580D01*
X158385713Y-83859580D02*
X158433332Y-83764342D01*
X158433332Y-83764342D02*
X158480951Y-83573866D01*
X158480951Y-83573866D02*
X158480951Y-83335771D01*
X158480951Y-83335771D02*
X158433332Y-83145295D01*
X158433332Y-83145295D02*
X158385713Y-83050057D01*
X158385713Y-83050057D02*
X158338094Y-83002438D01*
X158338094Y-83002438D02*
X158242856Y-82954819D01*
X157480951Y-83859580D02*
X157433332Y-83907200D01*
X157433332Y-83907200D02*
X157480951Y-83954819D01*
X157480951Y-83954819D02*
X157528570Y-83907200D01*
X157528570Y-83907200D02*
X157480951Y-83859580D01*
X157480951Y-83859580D02*
X157480951Y-83954819D01*
X156480952Y-83954819D02*
X157052380Y-83954819D01*
X156766666Y-83954819D02*
X156766666Y-82954819D01*
X156766666Y-82954819D02*
X156861904Y-83097676D01*
X156861904Y-83097676D02*
X156957142Y-83192914D01*
X156957142Y-83192914D02*
X157052380Y-83240533D01*
X155623809Y-83288152D02*
X155623809Y-83954819D01*
X156052380Y-83288152D02*
X156052380Y-83811961D01*
X156052380Y-83811961D02*
X156004761Y-83907200D01*
X156004761Y-83907200D02*
X155909523Y-83954819D01*
X155909523Y-83954819D02*
X155766666Y-83954819D01*
X155766666Y-83954819D02*
X155671428Y-83907200D01*
X155671428Y-83907200D02*
X155623809Y-83859580D01*
X154814285Y-83431009D02*
X155147618Y-83431009D01*
X155147618Y-83954819D02*
X155147618Y-82954819D01*
X155147618Y-82954819D02*
X154671428Y-82954819D01*
X151866666Y-68659580D02*
X151914285Y-68707200D01*
X151914285Y-68707200D02*
X152057142Y-68754819D01*
X152057142Y-68754819D02*
X152152380Y-68754819D01*
X152152380Y-68754819D02*
X152295237Y-68707200D01*
X152295237Y-68707200D02*
X152390475Y-68611961D01*
X152390475Y-68611961D02*
X152438094Y-68516723D01*
X152438094Y-68516723D02*
X152485713Y-68326247D01*
X152485713Y-68326247D02*
X152485713Y-68183390D01*
X152485713Y-68183390D02*
X152438094Y-67992914D01*
X152438094Y-67992914D02*
X152390475Y-67897676D01*
X152390475Y-67897676D02*
X152295237Y-67802438D01*
X152295237Y-67802438D02*
X152152380Y-67754819D01*
X152152380Y-67754819D02*
X152057142Y-67754819D01*
X152057142Y-67754819D02*
X151914285Y-67802438D01*
X151914285Y-67802438D02*
X151866666Y-67850057D01*
X150961904Y-67754819D02*
X151438094Y-67754819D01*
X151438094Y-67754819D02*
X151485713Y-68231009D01*
X151485713Y-68231009D02*
X151438094Y-68183390D01*
X151438094Y-68183390D02*
X151342856Y-68135771D01*
X151342856Y-68135771D02*
X151104761Y-68135771D01*
X151104761Y-68135771D02*
X151009523Y-68183390D01*
X151009523Y-68183390D02*
X150961904Y-68231009D01*
X150961904Y-68231009D02*
X150914285Y-68326247D01*
X150914285Y-68326247D02*
X150914285Y-68564342D01*
X150914285Y-68564342D02*
X150961904Y-68659580D01*
X150961904Y-68659580D02*
X151009523Y-68707200D01*
X151009523Y-68707200D02*
X151104761Y-68754819D01*
X151104761Y-68754819D02*
X151342856Y-68754819D01*
X151342856Y-68754819D02*
X151438094Y-68707200D01*
X151438094Y-68707200D02*
X151485713Y-68659580D01*
X150142856Y-67754819D02*
X150047618Y-67754819D01*
X150047618Y-67754819D02*
X149952380Y-67802438D01*
X149952380Y-67802438D02*
X149904761Y-67850057D01*
X149904761Y-67850057D02*
X149857142Y-67945295D01*
X149857142Y-67945295D02*
X149809523Y-68135771D01*
X149809523Y-68135771D02*
X149809523Y-68373866D01*
X149809523Y-68373866D02*
X149857142Y-68564342D01*
X149857142Y-68564342D02*
X149904761Y-68659580D01*
X149904761Y-68659580D02*
X149952380Y-68707200D01*
X149952380Y-68707200D02*
X150047618Y-68754819D01*
X150047618Y-68754819D02*
X150142856Y-68754819D01*
X150142856Y-68754819D02*
X150238094Y-68707200D01*
X150238094Y-68707200D02*
X150285713Y-68659580D01*
X150285713Y-68659580D02*
X150333332Y-68564342D01*
X150333332Y-68564342D02*
X150380951Y-68373866D01*
X150380951Y-68373866D02*
X150380951Y-68135771D01*
X150380951Y-68135771D02*
X150333332Y-67945295D01*
X150333332Y-67945295D02*
X150285713Y-67850057D01*
X150285713Y-67850057D02*
X150238094Y-67802438D01*
X150238094Y-67802438D02*
X150142856Y-67754819D01*
X149380951Y-68659580D02*
X149333332Y-68707200D01*
X149333332Y-68707200D02*
X149380951Y-68754819D01*
X149380951Y-68754819D02*
X149428570Y-68707200D01*
X149428570Y-68707200D02*
X149380951Y-68659580D01*
X149380951Y-68659580D02*
X149380951Y-68754819D01*
X148380952Y-68754819D02*
X148952380Y-68754819D01*
X148666666Y-68754819D02*
X148666666Y-67754819D01*
X148666666Y-67754819D02*
X148761904Y-67897676D01*
X148761904Y-67897676D02*
X148857142Y-67992914D01*
X148857142Y-67992914D02*
X148952380Y-68040533D01*
X147523809Y-68088152D02*
X147523809Y-68754819D01*
X147952380Y-68088152D02*
X147952380Y-68611961D01*
X147952380Y-68611961D02*
X147904761Y-68707200D01*
X147904761Y-68707200D02*
X147809523Y-68754819D01*
X147809523Y-68754819D02*
X147666666Y-68754819D01*
X147666666Y-68754819D02*
X147571428Y-68707200D01*
X147571428Y-68707200D02*
X147523809Y-68659580D01*
X146714285Y-68231009D02*
X147047618Y-68231009D01*
X147047618Y-68754819D02*
X147047618Y-67754819D01*
X147047618Y-67754819D02*
X146571428Y-67754819D01*
X157566666Y-68954819D02*
X157899999Y-68478628D01*
X158138094Y-68954819D02*
X158138094Y-67954819D01*
X158138094Y-67954819D02*
X157757142Y-67954819D01*
X157757142Y-67954819D02*
X157661904Y-68002438D01*
X157661904Y-68002438D02*
X157614285Y-68050057D01*
X157614285Y-68050057D02*
X157566666Y-68145295D01*
X157566666Y-68145295D02*
X157566666Y-68288152D01*
X157566666Y-68288152D02*
X157614285Y-68383390D01*
X157614285Y-68383390D02*
X157661904Y-68431009D01*
X157661904Y-68431009D02*
X157757142Y-68478628D01*
X157757142Y-68478628D02*
X158138094Y-68478628D01*
X157090475Y-68954819D02*
X156899999Y-68954819D01*
X156899999Y-68954819D02*
X156804761Y-68907200D01*
X156804761Y-68907200D02*
X156757142Y-68859580D01*
X156757142Y-68859580D02*
X156661904Y-68716723D01*
X156661904Y-68716723D02*
X156614285Y-68526247D01*
X156614285Y-68526247D02*
X156614285Y-68145295D01*
X156614285Y-68145295D02*
X156661904Y-68050057D01*
X156661904Y-68050057D02*
X156709523Y-68002438D01*
X156709523Y-68002438D02*
X156804761Y-67954819D01*
X156804761Y-67954819D02*
X156995237Y-67954819D01*
X156995237Y-67954819D02*
X157090475Y-68002438D01*
X157090475Y-68002438D02*
X157138094Y-68050057D01*
X157138094Y-68050057D02*
X157185713Y-68145295D01*
X157185713Y-68145295D02*
X157185713Y-68383390D01*
X157185713Y-68383390D02*
X157138094Y-68478628D01*
X157138094Y-68478628D02*
X157090475Y-68526247D01*
X157090475Y-68526247D02*
X156995237Y-68573866D01*
X156995237Y-68573866D02*
X156804761Y-68573866D01*
X156804761Y-68573866D02*
X156709523Y-68526247D01*
X156709523Y-68526247D02*
X156661904Y-68478628D01*
X156661904Y-68478628D02*
X156614285Y-68383390D01*
X155461904Y-67954819D02*
X155938094Y-67954819D01*
X155938094Y-67954819D02*
X155985713Y-68431009D01*
X155985713Y-68431009D02*
X155938094Y-68383390D01*
X155938094Y-68383390D02*
X155842856Y-68335771D01*
X155842856Y-68335771D02*
X155604761Y-68335771D01*
X155604761Y-68335771D02*
X155509523Y-68383390D01*
X155509523Y-68383390D02*
X155461904Y-68431009D01*
X155461904Y-68431009D02*
X155414285Y-68526247D01*
X155414285Y-68526247D02*
X155414285Y-68764342D01*
X155414285Y-68764342D02*
X155461904Y-68859580D01*
X155461904Y-68859580D02*
X155509523Y-68907200D01*
X155509523Y-68907200D02*
X155604761Y-68954819D01*
X155604761Y-68954819D02*
X155842856Y-68954819D01*
X155842856Y-68954819D02*
X155938094Y-68907200D01*
X155938094Y-68907200D02*
X155985713Y-68859580D01*
X158266666Y-77254819D02*
X158599999Y-76778628D01*
X158838094Y-77254819D02*
X158838094Y-76254819D01*
X158838094Y-76254819D02*
X158457142Y-76254819D01*
X158457142Y-76254819D02*
X158361904Y-76302438D01*
X158361904Y-76302438D02*
X158314285Y-76350057D01*
X158314285Y-76350057D02*
X158266666Y-76445295D01*
X158266666Y-76445295D02*
X158266666Y-76588152D01*
X158266666Y-76588152D02*
X158314285Y-76683390D01*
X158314285Y-76683390D02*
X158361904Y-76731009D01*
X158361904Y-76731009D02*
X158457142Y-76778628D01*
X158457142Y-76778628D02*
X158838094Y-76778628D01*
X157885713Y-76350057D02*
X157838094Y-76302438D01*
X157838094Y-76302438D02*
X157742856Y-76254819D01*
X157742856Y-76254819D02*
X157504761Y-76254819D01*
X157504761Y-76254819D02*
X157409523Y-76302438D01*
X157409523Y-76302438D02*
X157361904Y-76350057D01*
X157361904Y-76350057D02*
X157314285Y-76445295D01*
X157314285Y-76445295D02*
X157314285Y-76540533D01*
X157314285Y-76540533D02*
X157361904Y-76683390D01*
X157361904Y-76683390D02*
X157933332Y-77254819D01*
X157933332Y-77254819D02*
X157314285Y-77254819D01*
X156161904Y-76254819D02*
X156638094Y-76254819D01*
X156638094Y-76254819D02*
X156685713Y-76731009D01*
X156685713Y-76731009D02*
X156638094Y-76683390D01*
X156638094Y-76683390D02*
X156542856Y-76635771D01*
X156542856Y-76635771D02*
X156304761Y-76635771D01*
X156304761Y-76635771D02*
X156209523Y-76683390D01*
X156209523Y-76683390D02*
X156161904Y-76731009D01*
X156161904Y-76731009D02*
X156114285Y-76826247D01*
X156114285Y-76826247D02*
X156114285Y-77064342D01*
X156114285Y-77064342D02*
X156161904Y-77159580D01*
X156161904Y-77159580D02*
X156209523Y-77207200D01*
X156209523Y-77207200D02*
X156304761Y-77254819D01*
X156304761Y-77254819D02*
X156542856Y-77254819D01*
X156542856Y-77254819D02*
X156638094Y-77207200D01*
X156638094Y-77207200D02*
X156685713Y-77159580D01*
D11*
X149351248Y-77690000D02*
X150773752Y-77690000D01*
X149351248Y-79510000D02*
X150773752Y-79510000D01*
X169011252Y-73590000D02*
X167588748Y-73590000D01*
X169011252Y-75410000D02*
X167588748Y-75410000D01*
X159286252Y-72290000D02*
X157863748Y-72290000D01*
X159286252Y-74110000D02*
X157863748Y-74110000D01*
X159173752Y-80540000D02*
X157751248Y-80540000D01*
X159173752Y-82360000D02*
X157751248Y-82360000D01*
X149363748Y-69390000D02*
X150786252Y-69390000D01*
X149363748Y-71210000D02*
X150786252Y-71210000D01*
X155985436Y-69390000D02*
X157439564Y-69390000D01*
X155985436Y-71210000D02*
X157439564Y-71210000D01*
X156010436Y-77690000D02*
X157464564Y-77690000D01*
X156010436Y-79510000D02*
X157464564Y-79510000D01*
%LPC*%
D12*
X149400000Y-60400000D03*
X151940000Y-60400000D03*
X154480000Y-60400000D03*
D13*
X130100000Y-71500000D03*
X130100000Y-77500000D03*
X146100000Y-77500000D03*
X146100000Y-74500000D03*
X146100000Y-71500000D03*
D14*
X195000000Y-55000000D03*
D12*
X149260000Y-89100000D03*
X151800000Y-89100000D03*
X154340000Y-89100000D03*
D14*
X105000000Y-55000000D03*
X195000000Y-121000000D03*
D15*
X184520000Y-69000000D03*
X184520000Y-74080000D03*
X189600000Y-69000000D03*
X189600000Y-74080000D03*
D16*
X187160000Y-71465000D03*
D17*
X108050000Y-104150000D03*
D18*
X108050000Y-109150000D03*
D15*
X103370000Y-66870000D03*
X103370000Y-71950000D03*
X108450000Y-66870000D03*
X108450000Y-71950000D03*
D16*
X106010000Y-69335000D03*
D19*
X106950000Y-93900000D03*
X106950000Y-96400000D03*
D14*
X105000000Y-121000000D03*
D13*
X180600000Y-77500000D03*
X180600000Y-71500000D03*
X164600000Y-71500000D03*
X164600000Y-74500000D03*
X164600000Y-77500000D03*
D20*
X151537500Y-78600000D03*
X148587500Y-78600000D03*
D21*
X166825000Y-74500000D03*
X169775000Y-74500000D03*
X157100000Y-73200000D03*
X160050000Y-73200000D03*
X156987500Y-81450000D03*
X159937500Y-81450000D03*
D20*
X151550000Y-70300000D03*
X148600000Y-70300000D03*
D22*
X158175000Y-70300000D03*
X155250000Y-70300000D03*
X158200000Y-78600000D03*
X155275000Y-78600000D03*
%LPD*%
M02*
