G04 #@! TF.GenerationSoftware,KiCad,Pcbnew,8.0.6*
G04 #@! TF.CreationDate,2024-12-01T18:53:23-05:00*
G04 #@! TF.ProjectId,t41_2_low_power_amplifier,7434315f-325f-46c6-9f77-5f706f776572,rev?*
G04 #@! TF.SameCoordinates,Original*
G04 #@! TF.FileFunction,Copper,L1,Top*
G04 #@! TF.FilePolarity,Positive*
%FSLAX46Y46*%
G04 Gerber Fmt 4.6, Leading zero omitted, Abs format (unit mm)*
G04 Created by KiCad (PCBNEW 8.0.6) date 2024-12-01 18:53:23*
%MOMM*%
%LPD*%
G01*
G04 APERTURE LIST*
G04 Aperture macros list*
%AMRoundRect*
0 Rectangle with rounded corners*
0 $1 Rounding radius*
0 $2 $3 $4 $5 $6 $7 $8 $9 X,Y pos of 4 corners*
0 Add a 4 corners polygon primitive as box body*
4,1,4,$2,$3,$4,$5,$6,$7,$8,$9,$2,$3,0*
0 Add four circle primitives for the rounded corners*
1,1,$1+$1,$2,$3*
1,1,$1+$1,$4,$5*
1,1,$1+$1,$6,$7*
1,1,$1+$1,$8,$9*
0 Add four rect primitives between the rounded corners*
20,1,$1+$1,$2,$3,$4,$5,0*
20,1,$1+$1,$4,$5,$6,$7,0*
20,1,$1+$1,$6,$7,$8,$9,0*
20,1,$1+$1,$8,$9,$2,$3,0*%
G04 Aperture macros list end*
G04 #@! TA.AperFunction,ComponentPad*
%ADD10C,7.500000*%
G04 #@! TD*
G04 #@! TA.AperFunction,SMDPad,CuDef*
%ADD11RoundRect,0.250000X-0.625000X0.312500X-0.625000X-0.312500X0.625000X-0.312500X0.625000X0.312500X0*%
G04 #@! TD*
G04 #@! TA.AperFunction,SMDPad,CuDef*
%ADD12RoundRect,0.250000X-0.312500X-0.625000X0.312500X-0.625000X0.312500X0.625000X-0.312500X0.625000X0*%
G04 #@! TD*
G04 #@! TA.AperFunction,SMDPad,CuDef*
%ADD13RoundRect,0.150000X0.150000X-0.512500X0.150000X0.512500X-0.150000X0.512500X-0.150000X-0.512500X0*%
G04 #@! TD*
G04 #@! TA.AperFunction,SMDPad,CuDef*
%ADD14RoundRect,0.250000X0.325000X0.650000X-0.325000X0.650000X-0.325000X-0.650000X0.325000X-0.650000X0*%
G04 #@! TD*
G04 #@! TA.AperFunction,SMDPad,CuDef*
%ADD15RoundRect,0.250000X-0.550000X1.500000X-0.550000X-1.500000X0.550000X-1.500000X0.550000X1.500000X0*%
G04 #@! TD*
G04 #@! TA.AperFunction,SMDPad,CuDef*
%ADD16RoundRect,0.250000X0.700000X-0.275000X0.700000X0.275000X-0.700000X0.275000X-0.700000X-0.275000X0*%
G04 #@! TD*
G04 #@! TA.AperFunction,SMDPad,CuDef*
%ADD17RoundRect,0.250000X0.312500X0.625000X-0.312500X0.625000X-0.312500X-0.625000X0.312500X-0.625000X0*%
G04 #@! TD*
G04 #@! TA.AperFunction,SMDPad,CuDef*
%ADD18RoundRect,0.250000X-1.400000X-1.000000X1.400000X-1.000000X1.400000X1.000000X-1.400000X1.000000X0*%
G04 #@! TD*
G04 #@! TA.AperFunction,ComponentPad*
%ADD19C,2.000000*%
G04 #@! TD*
G04 #@! TA.AperFunction,SMDPad,CuDef*
%ADD20RoundRect,0.250000X0.625000X-0.312500X0.625000X0.312500X-0.625000X0.312500X-0.625000X-0.312500X0*%
G04 #@! TD*
G04 #@! TA.AperFunction,SMDPad,CuDef*
%ADD21RoundRect,0.250000X0.275000X0.700000X-0.275000X0.700000X-0.275000X-0.700000X0.275000X-0.700000X0*%
G04 #@! TD*
G04 #@! TA.AperFunction,SMDPad,CuDef*
%ADD22RoundRect,0.150000X-0.512500X-0.150000X0.512500X-0.150000X0.512500X0.150000X-0.512500X0.150000X0*%
G04 #@! TD*
G04 #@! TA.AperFunction,ComponentPad*
%ADD23C,1.440000*%
G04 #@! TD*
G04 #@! TA.AperFunction,SMDPad,CuDef*
%ADD24RoundRect,0.150000X0.512500X0.150000X-0.512500X0.150000X-0.512500X-0.150000X0.512500X-0.150000X0*%
G04 #@! TD*
G04 #@! TA.AperFunction,SMDPad,CuDef*
%ADD25RoundRect,0.250000X-0.650000X0.325000X-0.650000X-0.325000X0.650000X-0.325000X0.650000X0.325000X0*%
G04 #@! TD*
G04 #@! TA.AperFunction,ComponentPad*
%ADD26C,2.600000*%
G04 #@! TD*
G04 #@! TA.AperFunction,ComponentPad*
%ADD27C,2.500000*%
G04 #@! TD*
G04 #@! TA.AperFunction,SMDPad,CuDef*
%ADD28RoundRect,0.375000X-0.625000X-0.375000X0.625000X-0.375000X0.625000X0.375000X-0.625000X0.375000X0*%
G04 #@! TD*
G04 #@! TA.AperFunction,SMDPad,CuDef*
%ADD29RoundRect,0.500000X-0.500000X-1.400000X0.500000X-1.400000X0.500000X1.400000X-0.500000X1.400000X0*%
G04 #@! TD*
G04 #@! TA.AperFunction,SMDPad,CuDef*
%ADD30R,2.770000X1.470000*%
G04 #@! TD*
G04 #@! TA.AperFunction,ComponentPad*
%ADD31R,2.400000X2.400000*%
G04 #@! TD*
G04 #@! TA.AperFunction,ComponentPad*
%ADD32C,2.400000*%
G04 #@! TD*
G04 #@! TA.AperFunction,ComponentPad*
%ADD33C,2.100000*%
G04 #@! TD*
G04 #@! TA.AperFunction,ViaPad*
%ADD34C,1.000000*%
G04 #@! TD*
G04 #@! TA.AperFunction,Conductor*
%ADD35C,0.250000*%
G04 #@! TD*
G04 #@! TA.AperFunction,Conductor*
%ADD36C,0.500000*%
G04 #@! TD*
G04 #@! TA.AperFunction,Conductor*
%ADD37C,0.750000*%
G04 #@! TD*
G04 #@! TA.AperFunction,Conductor*
%ADD38C,1.000000*%
G04 #@! TD*
G04 #@! TA.AperFunction,Conductor*
%ADD39C,0.200000*%
G04 #@! TD*
G04 APERTURE END LIST*
D10*
X170750000Y-55000000D03*
D11*
X153500000Y-85437500D03*
X153500000Y-88362500D03*
D12*
X114200000Y-84575000D03*
X117125000Y-84575000D03*
D13*
X142650000Y-94200000D03*
X143600000Y-94200000D03*
X144550000Y-94200000D03*
X144550000Y-91925000D03*
X142650000Y-91925000D03*
D14*
X142650000Y-96850000D03*
X139700000Y-96850000D03*
D15*
X142640000Y-104236252D03*
X142640000Y-109636252D03*
D14*
X142625000Y-85200000D03*
X139675000Y-85200000D03*
D16*
X157200000Y-88475000D03*
X157200000Y-85325000D03*
D17*
X131812500Y-81000000D03*
X128887500Y-81000000D03*
D11*
X132500000Y-91537500D03*
X132500000Y-94462500D03*
D12*
X119787500Y-75550000D03*
X122712500Y-75550000D03*
D18*
X118640000Y-104236252D03*
X118640000Y-111036252D03*
D19*
X125700000Y-69100000D03*
X125700000Y-75100000D03*
X135700000Y-75100000D03*
X135700000Y-72100000D03*
X135700000Y-69100000D03*
D16*
X123200000Y-93100000D03*
X123200000Y-89950000D03*
D12*
X138575000Y-65500000D03*
X141500000Y-65500000D03*
D20*
X117800000Y-71925000D03*
X117800000Y-69000000D03*
D17*
X115262500Y-96400000D03*
X112337500Y-96400000D03*
D12*
X138562500Y-73800000D03*
X141487500Y-73800000D03*
D14*
X125700000Y-78450000D03*
X122750000Y-78450000D03*
D21*
X142650000Y-88400000D03*
X139500000Y-88400000D03*
D22*
X120575000Y-66250000D03*
X120575000Y-68150000D03*
X122850000Y-67200000D03*
D14*
X117875000Y-66250000D03*
X114925000Y-66250000D03*
D12*
X115250000Y-63050000D03*
X118175000Y-63050000D03*
D23*
X129700000Y-85650000D03*
X132240000Y-85650000D03*
X134780000Y-85650000D03*
D20*
X114900000Y-74875000D03*
X114900000Y-71950000D03*
D24*
X125525000Y-85450000D03*
X125525000Y-83550000D03*
X123250000Y-84500000D03*
D25*
X106950000Y-86425000D03*
X106950000Y-89375000D03*
D10*
X105000000Y-55000000D03*
X170700000Y-121000000D03*
D17*
X115262500Y-99250000D03*
X112337500Y-99250000D03*
D22*
X153525000Y-95650000D03*
X153525000Y-97550000D03*
X155800000Y-96600000D03*
D17*
X155800000Y-100450000D03*
X152875000Y-100450000D03*
D26*
X167160000Y-66870000D03*
X167160000Y-71950000D03*
X172240000Y-66870000D03*
X172240000Y-71950000D03*
D27*
X169800000Y-69335000D03*
D12*
X138575000Y-78800000D03*
X141500000Y-78800000D03*
D28*
X144237500Y-74000000D03*
X144237500Y-76300000D03*
X144237500Y-78600000D03*
D29*
X150537500Y-76300000D03*
D30*
X124910000Y-104236252D03*
X128490000Y-104236252D03*
D31*
X108050000Y-104150000D03*
D32*
X108050000Y-109150000D03*
D26*
X103370000Y-66870000D03*
X103370000Y-71950000D03*
X108450000Y-66870000D03*
X108450000Y-71950000D03*
D27*
X106010000Y-69335000D03*
D12*
X120525000Y-63450000D03*
X123450000Y-63450000D03*
D33*
X106950000Y-93900000D03*
X106950000Y-96400000D03*
D12*
X113197500Y-92400000D03*
X116122500Y-92400000D03*
D13*
X114775000Y-81700000D03*
X116675000Y-81700000D03*
X115725000Y-79425000D03*
D28*
X144250000Y-65700000D03*
X144250000Y-68000000D03*
X144250000Y-70300000D03*
D29*
X150550000Y-68000000D03*
D17*
X150625000Y-95600000D03*
X147700000Y-95600000D03*
D20*
X111950000Y-74862500D03*
X111950000Y-71937500D03*
D13*
X113210000Y-89637500D03*
X115110000Y-89637500D03*
X114160000Y-87362500D03*
D10*
X105000000Y-121000000D03*
D25*
X134000000Y-104225000D03*
X134000000Y-107175000D03*
D12*
X111975000Y-69300000D03*
X114900000Y-69300000D03*
D25*
X119700000Y-86750000D03*
X119700000Y-89700000D03*
D13*
X156250000Y-93125000D03*
X158150000Y-93125000D03*
X157200000Y-90850000D03*
D12*
X138575000Y-70500000D03*
X141500000Y-70500000D03*
D13*
X120850000Y-72475000D03*
X122750000Y-72475000D03*
X121800000Y-70200000D03*
D19*
X163300000Y-75200000D03*
X163300000Y-69200000D03*
X153300000Y-69200000D03*
X153300000Y-72200000D03*
X153300000Y-75200000D03*
D34*
X124100000Y-70500000D03*
X124100000Y-76900000D03*
X155600000Y-89800000D03*
X118100000Y-81300000D03*
X117700000Y-86500000D03*
X114900000Y-76700000D03*
X146450000Y-65650000D03*
X155400000Y-76200000D03*
X128000000Y-90250000D03*
X126700000Y-101850000D03*
X113350000Y-63050000D03*
X150500000Y-65000000D03*
X125300000Y-92800000D03*
X144300000Y-63650000D03*
X127200000Y-80700000D03*
X151650000Y-97550000D03*
X145500000Y-102400000D03*
X141200000Y-91800000D03*
X129900000Y-101800000D03*
X142850000Y-72150000D03*
X133800000Y-74100000D03*
X137050000Y-70600000D03*
X128100000Y-72100000D03*
X155400000Y-70100000D03*
X125200000Y-62800000D03*
X138600000Y-63350000D03*
X120350000Y-97750000D03*
X122650000Y-82000000D03*
X111550000Y-92650000D03*
X150550000Y-73300000D03*
X120850000Y-78450000D03*
X133850000Y-70100000D03*
X160400000Y-72200000D03*
X111950000Y-76700000D03*
X132200000Y-78200000D03*
X155600000Y-83800000D03*
X158800000Y-83800000D03*
X119400000Y-73400000D03*
X154800000Y-94200000D03*
X116000000Y-102450000D03*
X144600000Y-96100000D03*
X137050000Y-73600000D03*
X151250000Y-80600000D03*
X146550000Y-73950000D03*
X147000000Y-106000000D03*
X159800000Y-94600000D03*
X158050000Y-103950000D03*
X117950000Y-75550000D03*
X131600000Y-83000000D03*
X146100000Y-93900000D03*
X140900000Y-94600000D03*
X106900000Y-84600000D03*
X118600000Y-113700000D03*
X152700000Y-77300000D03*
X124600000Y-67300000D03*
X158700000Y-74300000D03*
X138600000Y-81000000D03*
X144200000Y-80550000D03*
X140600000Y-111200000D03*
X152700000Y-67050000D03*
X130200000Y-70000000D03*
X119350000Y-70450000D03*
X131850000Y-107200000D03*
X158700000Y-70100000D03*
X147350000Y-80900000D03*
X136700000Y-65500000D03*
X116500000Y-90400000D03*
X116450000Y-64700000D03*
X148600000Y-73950000D03*
X140500000Y-102300000D03*
X148550000Y-65650000D03*
X116850000Y-73650000D03*
X136700000Y-78800000D03*
X129300000Y-74050000D03*
X150550000Y-70900000D03*
X150537500Y-79150000D03*
X142300000Y-68000000D03*
X142287500Y-76300000D03*
D35*
X120800000Y-92400000D02*
X121700000Y-91500000D01*
X121700000Y-91500000D02*
X137300000Y-91500000D01*
X117600000Y-92400000D02*
X120800000Y-92400000D01*
D36*
X157200000Y-88475000D02*
X153612500Y-88475000D01*
X153612500Y-88475000D02*
X153500000Y-88362500D01*
X157200000Y-85325000D02*
X153612500Y-85325000D01*
D37*
X153612500Y-85325000D02*
X153500000Y-85437500D01*
D36*
X130725000Y-73975000D02*
X130725000Y-78700000D01*
X132600000Y-72100000D02*
X130725000Y-73975000D01*
X131812500Y-79787500D02*
X130725000Y-78700000D01*
X131812500Y-81000000D02*
X131812500Y-79787500D01*
X135700000Y-72100000D02*
X132600000Y-72100000D01*
X150550000Y-68000000D02*
X150550000Y-70900000D01*
D38*
X151750000Y-69200000D02*
X150550000Y-68000000D01*
X153500000Y-69200000D02*
X151750000Y-69200000D01*
D37*
X157200000Y-88475000D02*
X157200000Y-90850000D01*
D38*
X151637500Y-75200000D02*
X150537500Y-76300000D01*
D36*
X150537500Y-76300000D02*
X150537500Y-79150000D01*
D38*
X153500000Y-75200000D02*
X151637500Y-75200000D01*
D37*
X144250000Y-68000000D02*
X142300000Y-68000000D01*
X135700000Y-69100000D02*
X136800000Y-68000000D01*
X136800000Y-68000000D02*
X142300000Y-68000000D01*
X135700000Y-75100000D02*
X136900000Y-76300000D01*
X136900000Y-76300000D02*
X142287500Y-76300000D01*
X144237500Y-76300000D02*
X142287500Y-76300000D01*
D35*
X138900000Y-93100000D02*
X144100000Y-93100000D01*
D39*
X144100000Y-93100000D02*
X144106250Y-93093750D01*
D35*
X114622500Y-93900000D02*
X106950000Y-93900000D01*
X116035000Y-92487500D02*
X116122500Y-92400000D01*
D36*
X106950000Y-93900000D02*
X106950000Y-89375000D01*
D35*
X116122500Y-92400000D02*
X114622500Y-93900000D01*
X116122500Y-92400000D02*
X117600000Y-92400000D01*
X137300000Y-91500000D02*
X138900000Y-93100000D01*
X144106250Y-93093750D02*
X144550000Y-93537501D01*
X144550000Y-93537501D02*
X144550000Y-94200000D01*
X144550000Y-94200000D02*
X145950000Y-95600000D01*
X145950000Y-95600000D02*
X147700000Y-95600000D01*
D38*
X158150000Y-93125000D02*
X158150000Y-101486252D01*
D36*
X152875000Y-100450000D02*
X152875000Y-104211252D01*
X123200000Y-96400000D02*
X128500000Y-101700000D01*
X115262500Y-96400000D02*
X123200000Y-96400000D01*
D38*
X155400000Y-104236252D02*
X152900000Y-104236252D01*
D35*
X128500000Y-101900000D02*
X128490000Y-101910000D01*
D36*
X128490000Y-101910000D02*
X128490000Y-104236252D01*
D37*
X142650000Y-96850000D02*
X142650000Y-104226252D01*
D38*
X134690000Y-104236252D02*
X142640000Y-104236252D01*
D36*
X123200000Y-96400000D02*
X123200000Y-93100000D01*
D38*
X128490000Y-104236252D02*
X134690000Y-104236252D01*
D36*
X142650000Y-96850000D02*
X142650000Y-94200000D01*
X152875000Y-104211252D02*
X152900000Y-104236252D01*
D38*
X158150000Y-101486252D02*
X155400000Y-104236252D01*
X152900000Y-104236252D02*
X142640000Y-104236252D01*
D35*
X142650000Y-104226252D02*
X142640000Y-104236252D01*
X128500000Y-101700000D02*
X128500000Y-101900000D01*
D36*
X122850000Y-67200000D02*
X122850000Y-69150000D01*
X122900000Y-69100000D02*
X122850000Y-69150000D01*
X125700000Y-69100000D02*
X122900000Y-69100000D01*
X122850000Y-67200000D02*
X122850000Y-64100000D01*
X122850000Y-64100000D02*
X123500000Y-63450000D01*
X122850000Y-69150000D02*
X121800000Y-70200000D01*
X106950000Y-96400000D02*
X112337500Y-96400000D01*
X112337500Y-99250000D02*
X112337500Y-96400000D01*
D37*
X144237500Y-78600000D02*
X141487500Y-78600000D01*
D36*
X123250000Y-84500000D02*
X118175000Y-79425000D01*
X118175000Y-79425000D02*
X115725000Y-79425000D01*
D35*
X115750000Y-79400000D02*
X115725000Y-79425000D01*
X115715000Y-79415000D02*
X115725000Y-79425000D01*
D38*
X118590000Y-104186252D02*
X118640000Y-104236252D01*
X118640000Y-104236252D02*
X108136252Y-104236252D01*
X118640000Y-104236252D02*
X124910000Y-104236252D01*
X108136252Y-104236252D02*
X108050000Y-104150000D01*
D36*
X125525000Y-83550000D02*
X126337500Y-83550000D01*
X126337500Y-83550000D02*
X128887500Y-81000000D01*
D37*
X153500000Y-72200000D02*
X157200000Y-75900000D01*
X157200000Y-75900000D02*
X157200000Y-85325000D01*
D38*
X111940000Y-69335000D02*
X111975000Y-69300000D01*
D36*
X111950000Y-69325000D02*
X111975000Y-69300000D01*
D38*
X106010000Y-69335000D02*
X111940000Y-69335000D01*
D36*
X111950000Y-71937500D02*
X111950000Y-69325000D01*
X126300000Y-85450000D02*
X125525000Y-85450000D01*
X127800000Y-83950000D02*
X126300000Y-85450000D01*
X132240000Y-85650000D02*
X130540000Y-83950000D01*
X130540000Y-83950000D02*
X127800000Y-83950000D01*
D38*
X169800000Y-69335000D02*
X163435000Y-69335000D01*
X163435000Y-69335000D02*
X163300000Y-69200000D01*
D37*
X144250000Y-70300000D02*
X141500000Y-70300000D01*
D35*
X114200000Y-83300000D02*
X114775000Y-82725000D01*
D36*
X114160000Y-87362500D02*
X114160000Y-84615000D01*
D35*
X114775000Y-81700000D02*
X114775000Y-82725000D01*
X114200000Y-84575000D02*
X114200000Y-83300000D01*
D36*
X114160000Y-84615000D02*
X114200000Y-84575000D01*
D35*
X114162500Y-84612500D02*
X114200000Y-84575000D01*
X113197500Y-89650000D02*
X113210000Y-89637500D01*
X113197500Y-92400000D02*
X113197500Y-89650000D01*
D36*
X120575000Y-66250000D02*
X117875000Y-66250000D01*
X120575000Y-63450000D02*
X118575000Y-63450000D01*
X118575000Y-63450000D02*
X118175000Y-63050000D01*
X120575000Y-66250000D02*
X120575000Y-63450000D01*
X114900000Y-69300000D02*
X114900000Y-66275000D01*
X114900000Y-71950000D02*
X114900000Y-69300000D01*
X114900000Y-66275000D02*
X114925000Y-66250000D01*
X120850000Y-70050000D02*
X120575000Y-69775000D01*
X119950000Y-68150000D02*
X119100000Y-69000000D01*
X120575000Y-68150000D02*
X119950000Y-68150000D01*
X119100000Y-69000000D02*
X117800000Y-69000000D01*
X120575000Y-69775000D02*
X120575000Y-68150000D01*
X120850000Y-72475000D02*
X120850000Y-70050000D01*
X122750000Y-75347936D02*
X122712500Y-75385436D01*
X122750000Y-72475000D02*
X122750000Y-75347936D01*
D37*
X144237500Y-74000000D02*
X141487500Y-74000000D01*
X144250000Y-65700000D02*
X141500000Y-65700000D01*
D35*
X150625000Y-95600000D02*
X153475000Y-95600000D01*
X153475000Y-95600000D02*
X153525000Y-95650000D01*
X155800000Y-95150000D02*
X155800000Y-96600000D01*
X156250000Y-94700000D02*
X155800000Y-95150000D01*
X156250000Y-93125000D02*
X156250000Y-94700000D01*
D36*
X155800000Y-100450000D02*
X155800000Y-96600000D01*
X117125000Y-83525000D02*
X116675000Y-83075000D01*
D35*
X117150000Y-84600000D02*
X117125000Y-84575000D01*
X121350000Y-86750000D02*
X123200000Y-88600000D01*
X119700000Y-85050000D02*
X119700000Y-86750000D01*
D36*
X116675000Y-83075000D02*
X116675000Y-81700000D01*
D35*
X123200000Y-88600000D02*
X123200000Y-89950000D01*
X117125000Y-84575000D02*
X119225000Y-84575000D01*
D36*
X117125000Y-84575000D02*
X117125000Y-83525000D01*
D35*
X119225000Y-84575000D02*
X119700000Y-85050000D01*
X119700000Y-86750000D02*
X121350000Y-86750000D01*
D36*
X142650000Y-85225000D02*
X142625000Y-85200000D01*
X142650000Y-91925000D02*
X142650000Y-89100000D01*
X142650000Y-88400000D02*
X142650000Y-85225000D01*
D37*
X132450000Y-88400000D02*
X139500000Y-88400000D01*
X129700000Y-85650000D02*
X132450000Y-88400000D01*
D38*
X125700000Y-75100000D02*
X125700000Y-78450000D01*
G04 #@! TA.AperFunction,Conductor*
G36*
X131160981Y-92145185D02*
G01*
X131199479Y-92184401D01*
X131282288Y-92318656D01*
X131406344Y-92442712D01*
X131508409Y-92505666D01*
X131531096Y-92519659D01*
X131577821Y-92571607D01*
X131590000Y-92625198D01*
X131590000Y-93375388D01*
X131570315Y-93442427D01*
X131531097Y-93480926D01*
X131406659Y-93557680D01*
X131406655Y-93557683D01*
X131282684Y-93681654D01*
X131190643Y-93830875D01*
X131190641Y-93830880D01*
X131135494Y-93997302D01*
X131135493Y-93997309D01*
X131125000Y-94100013D01*
X131125000Y-94212500D01*
X133874999Y-94212500D01*
X133874999Y-94100028D01*
X133874998Y-94100013D01*
X133864505Y-93997302D01*
X133809358Y-93830880D01*
X133809356Y-93830875D01*
X133717315Y-93681654D01*
X133593344Y-93557683D01*
X133593340Y-93557680D01*
X133468903Y-93480926D01*
X133422178Y-93428978D01*
X133410000Y-93375388D01*
X133410000Y-92625198D01*
X133429685Y-92558159D01*
X133468904Y-92519659D01*
X133491587Y-92505668D01*
X133593656Y-92442712D01*
X133717712Y-92318656D01*
X133800519Y-92184402D01*
X133852467Y-92137679D01*
X133906058Y-92125500D01*
X136989548Y-92125500D01*
X137056587Y-92145185D01*
X137077229Y-92161819D01*
X138501263Y-93585855D01*
X138501267Y-93585858D01*
X138603710Y-93654309D01*
X138603711Y-93654309D01*
X138603715Y-93654312D01*
X138670396Y-93681931D01*
X138670398Y-93681933D01*
X138700330Y-93694331D01*
X138717548Y-93701463D01*
X138726251Y-93703194D01*
X138815965Y-93721039D01*
X138838393Y-93725501D01*
X138838394Y-93725501D01*
X138967721Y-93725501D01*
X138967741Y-93725500D01*
X141725500Y-93725500D01*
X141792539Y-93745185D01*
X141838294Y-93797989D01*
X141849500Y-93849500D01*
X141849500Y-94778193D01*
X141852401Y-94815067D01*
X141852402Y-94815073D01*
X141894576Y-94960233D01*
X141899500Y-94994828D01*
X141899500Y-95513132D01*
X141879815Y-95580171D01*
X141860616Y-95601346D01*
X141861451Y-95602181D01*
X141732288Y-95731343D01*
X141732287Y-95731344D01*
X141639921Y-95881096D01*
X141587973Y-95927821D01*
X141534382Y-95940000D01*
X140815032Y-95940000D01*
X140747993Y-95920315D01*
X140709494Y-95881097D01*
X140617319Y-95731659D01*
X140617316Y-95731655D01*
X140493345Y-95607684D01*
X140344124Y-95515643D01*
X140344119Y-95515641D01*
X140177697Y-95460494D01*
X140177690Y-95460493D01*
X140074986Y-95450000D01*
X139950000Y-95450000D01*
X139950000Y-98249999D01*
X140074972Y-98249999D01*
X140074986Y-98249998D01*
X140177697Y-98239505D01*
X140344119Y-98184358D01*
X140344124Y-98184356D01*
X140493345Y-98092315D01*
X140617316Y-97968344D01*
X140617319Y-97968340D01*
X140709494Y-97818903D01*
X140761441Y-97772178D01*
X140815032Y-97760000D01*
X141534382Y-97760000D01*
X141601421Y-97779685D01*
X141639921Y-97818904D01*
X141732287Y-97968655D01*
X141738181Y-97974549D01*
X141771666Y-98035872D01*
X141774500Y-98062230D01*
X141774500Y-101979866D01*
X141754815Y-102046905D01*
X141715598Y-102085404D01*
X141695600Y-102097739D01*
X141621342Y-102143541D01*
X141497289Y-102267594D01*
X141405187Y-102416915D01*
X141405185Y-102416920D01*
X141382377Y-102485752D01*
X141350001Y-102583455D01*
X141350001Y-102583456D01*
X141350000Y-102583456D01*
X141339500Y-102686235D01*
X141339500Y-103111752D01*
X141319815Y-103178791D01*
X141267011Y-103224546D01*
X141215500Y-103235752D01*
X135037843Y-103235752D01*
X134975906Y-103218187D01*
X134975882Y-103218240D01*
X134975553Y-103218087D01*
X134972747Y-103217291D01*
X134969340Y-103215189D01*
X134969335Y-103215187D01*
X134969334Y-103215186D01*
X134802797Y-103160001D01*
X134802795Y-103160000D01*
X134700010Y-103149500D01*
X133299998Y-103149500D01*
X133299981Y-103149501D01*
X133197203Y-103160000D01*
X133197200Y-103160001D01*
X133030668Y-103215185D01*
X133030659Y-103215189D01*
X133027253Y-103217291D01*
X133024446Y-103218087D01*
X133024118Y-103218240D01*
X133024093Y-103218187D01*
X132962157Y-103235752D01*
X130363521Y-103235752D01*
X130296482Y-103216067D01*
X130264254Y-103186062D01*
X130232550Y-103143710D01*
X130232547Y-103143707D01*
X130232546Y-103143706D01*
X130206695Y-103124354D01*
X130117335Y-103057458D01*
X130117328Y-103057454D01*
X129982482Y-103007160D01*
X129982483Y-103007160D01*
X129922883Y-103000753D01*
X129922881Y-103000752D01*
X129922873Y-103000752D01*
X129922865Y-103000752D01*
X129364500Y-103000752D01*
X129297461Y-102981067D01*
X129251706Y-102928263D01*
X129240500Y-102876752D01*
X129240500Y-101836401D01*
X129242883Y-101812208D01*
X129250500Y-101773918D01*
X129250500Y-101626080D01*
X129221659Y-101481093D01*
X129221658Y-101481092D01*
X129221658Y-101481088D01*
X129165084Y-101344506D01*
X129082952Y-101221584D01*
X129082947Y-101221579D01*
X129082947Y-101221578D01*
X125411355Y-97549986D01*
X138625001Y-97549986D01*
X138635494Y-97652697D01*
X138690641Y-97819119D01*
X138690643Y-97819124D01*
X138782684Y-97968345D01*
X138906654Y-98092315D01*
X139055875Y-98184356D01*
X139055880Y-98184358D01*
X139222302Y-98239505D01*
X139222309Y-98239506D01*
X139325019Y-98249999D01*
X139449999Y-98249999D01*
X139450000Y-98249998D01*
X139450000Y-97100000D01*
X138625001Y-97100000D01*
X138625001Y-97549986D01*
X125411355Y-97549986D01*
X124011382Y-96150013D01*
X138625000Y-96150013D01*
X138625000Y-96600000D01*
X139450000Y-96600000D01*
X139450000Y-95450000D01*
X139325027Y-95450000D01*
X139325012Y-95450001D01*
X139222302Y-95460494D01*
X139055880Y-95515641D01*
X139055875Y-95515643D01*
X138906654Y-95607684D01*
X138782684Y-95731654D01*
X138690643Y-95880875D01*
X138690641Y-95880880D01*
X138635494Y-96047302D01*
X138635493Y-96047309D01*
X138625000Y-96150013D01*
X124011382Y-96150013D01*
X123986819Y-96125450D01*
X123953334Y-96064127D01*
X123950500Y-96037769D01*
X123950500Y-94824986D01*
X131125001Y-94824986D01*
X131135494Y-94927697D01*
X131190641Y-95094119D01*
X131190643Y-95094124D01*
X131282684Y-95243345D01*
X131406654Y-95367315D01*
X131555875Y-95459356D01*
X131555880Y-95459358D01*
X131722302Y-95514505D01*
X131722309Y-95514506D01*
X131825019Y-95524999D01*
X132249999Y-95524999D01*
X132750000Y-95524999D01*
X133174972Y-95524999D01*
X133174986Y-95524998D01*
X133277697Y-95514505D01*
X133444119Y-95459358D01*
X133444124Y-95459356D01*
X133593345Y-95367315D01*
X133717315Y-95243345D01*
X133809356Y-95094124D01*
X133809358Y-95094119D01*
X133864505Y-94927697D01*
X133864506Y-94927690D01*
X133874999Y-94824986D01*
X133875000Y-94824973D01*
X133875000Y-94712500D01*
X132750000Y-94712500D01*
X132750000Y-95524999D01*
X132249999Y-95524999D01*
X132250000Y-95524998D01*
X132250000Y-94712500D01*
X131125001Y-94712500D01*
X131125001Y-94824986D01*
X123950500Y-94824986D01*
X123950500Y-94237162D01*
X123970185Y-94170123D01*
X124022989Y-94124368D01*
X124048552Y-94115907D01*
X124052788Y-94114999D01*
X124052797Y-94114999D01*
X124219334Y-94059814D01*
X124368656Y-93967712D01*
X124492712Y-93843656D01*
X124584814Y-93694334D01*
X124639999Y-93527797D01*
X124650500Y-93425009D01*
X124650499Y-92774992D01*
X124639999Y-92672203D01*
X124584814Y-92505666D01*
X124492712Y-92356344D01*
X124473549Y-92337181D01*
X124440064Y-92275858D01*
X124445048Y-92206166D01*
X124486920Y-92150233D01*
X124552384Y-92125816D01*
X124561230Y-92125500D01*
X131093942Y-92125500D01*
X131160981Y-92145185D01*
G37*
G04 #@! TD.AperFunction*
G04 #@! TA.AperFunction,Conductor*
G36*
X115974144Y-80607685D02*
G01*
X116019899Y-80660489D01*
X116029843Y-80729647D01*
X116009328Y-80777996D01*
X116010890Y-80778920D01*
X115923255Y-80927103D01*
X115923254Y-80927106D01*
X115877402Y-81084926D01*
X115877401Y-81084932D01*
X115874500Y-81121798D01*
X115874500Y-82278201D01*
X115877401Y-82315067D01*
X115877402Y-82315073D01*
X115919576Y-82460233D01*
X115924500Y-82494828D01*
X115924500Y-83148918D01*
X115924500Y-83148920D01*
X115924499Y-83148920D01*
X115953340Y-83293907D01*
X115953343Y-83293917D01*
X116000067Y-83406718D01*
X116009916Y-83430495D01*
X116040376Y-83476082D01*
X116040375Y-83476082D01*
X116092045Y-83553413D01*
X116092332Y-83553762D01*
X116092424Y-83553980D01*
X116095432Y-83558481D01*
X116094578Y-83559051D01*
X116119640Y-83618074D01*
X116114179Y-83671423D01*
X116072501Y-83797200D01*
X116072500Y-83797204D01*
X116062000Y-83899983D01*
X116062000Y-85250001D01*
X116062001Y-85250018D01*
X116072500Y-85352796D01*
X116072501Y-85352799D01*
X116100515Y-85437337D01*
X116127686Y-85519334D01*
X116219788Y-85668656D01*
X116343844Y-85792712D01*
X116493166Y-85884814D01*
X116659703Y-85939999D01*
X116762491Y-85950500D01*
X117487508Y-85950499D01*
X117487516Y-85950498D01*
X117487519Y-85950498D01*
X117543802Y-85944748D01*
X117590297Y-85939999D01*
X117756834Y-85884814D01*
X117906156Y-85792712D01*
X118030212Y-85668656D01*
X118122314Y-85519334D01*
X118177499Y-85352797D01*
X118181677Y-85311896D01*
X118208073Y-85247207D01*
X118265253Y-85207055D01*
X118305035Y-85200500D01*
X118914548Y-85200500D01*
X118981587Y-85220185D01*
X119002229Y-85236819D01*
X119038181Y-85272771D01*
X119071666Y-85334094D01*
X119074500Y-85360452D01*
X119074500Y-85554911D01*
X119054815Y-85621950D01*
X119002011Y-85667705D01*
X118963102Y-85678269D01*
X118897202Y-85685001D01*
X118897200Y-85685001D01*
X118730668Y-85740185D01*
X118730663Y-85740187D01*
X118581342Y-85832289D01*
X118457289Y-85956342D01*
X118365187Y-86105663D01*
X118365185Y-86105668D01*
X118346404Y-86162347D01*
X118310001Y-86272203D01*
X118310001Y-86272204D01*
X118310000Y-86272204D01*
X118299500Y-86374983D01*
X118299500Y-87125001D01*
X118299501Y-87125019D01*
X118310000Y-87227796D01*
X118310001Y-87227799D01*
X118365185Y-87394331D01*
X118365187Y-87394336D01*
X118399212Y-87449500D01*
X118457288Y-87543656D01*
X118581344Y-87667712D01*
X118684505Y-87731342D01*
X118731096Y-87760079D01*
X118777821Y-87812027D01*
X118790000Y-87865618D01*
X118790000Y-88584968D01*
X118770315Y-88652007D01*
X118731097Y-88690506D01*
X118581659Y-88782680D01*
X118581655Y-88782683D01*
X118457684Y-88906654D01*
X118365643Y-89055875D01*
X118365641Y-89055880D01*
X118310494Y-89222302D01*
X118310493Y-89222309D01*
X118300000Y-89325013D01*
X118300000Y-89450000D01*
X121099999Y-89450000D01*
X121099999Y-89325028D01*
X121099998Y-89325013D01*
X121089505Y-89222302D01*
X121034358Y-89055880D01*
X121034356Y-89055875D01*
X120942315Y-88906654D01*
X120818344Y-88782683D01*
X120818340Y-88782680D01*
X120668903Y-88690506D01*
X120622178Y-88638559D01*
X120610000Y-88584968D01*
X120610000Y-87865618D01*
X120629685Y-87798579D01*
X120668904Y-87760079D01*
X120715491Y-87731344D01*
X120818656Y-87667712D01*
X120942712Y-87543656D01*
X120981073Y-87481462D01*
X121033016Y-87434741D01*
X121101978Y-87423517D01*
X121166061Y-87451359D01*
X121174290Y-87458880D01*
X122437788Y-88722378D01*
X122471273Y-88783701D01*
X122466289Y-88853393D01*
X122424417Y-88909326D01*
X122362709Y-88933417D01*
X122347202Y-88935001D01*
X122347200Y-88935001D01*
X122180668Y-88990185D01*
X122180663Y-88990187D01*
X122031342Y-89082289D01*
X121907289Y-89206342D01*
X121815187Y-89355663D01*
X121815186Y-89355666D01*
X121760001Y-89522203D01*
X121760001Y-89522204D01*
X121760000Y-89522204D01*
X121749500Y-89624983D01*
X121749500Y-90275001D01*
X121749501Y-90275019D01*
X121760000Y-90377796D01*
X121760001Y-90377799D01*
X121815185Y-90544331D01*
X121815189Y-90544340D01*
X121902198Y-90685404D01*
X121920638Y-90752796D01*
X121899715Y-90819459D01*
X121846073Y-90864229D01*
X121796659Y-90874500D01*
X121638389Y-90874500D01*
X121577971Y-90886518D01*
X121534743Y-90895116D01*
X121517546Y-90898537D01*
X121403716Y-90945687D01*
X121403707Y-90945692D01*
X121301268Y-91014140D01*
X121257705Y-91057703D01*
X121214142Y-91101267D01*
X121214139Y-91101270D01*
X120887209Y-91428201D01*
X120577229Y-91738181D01*
X120515906Y-91771666D01*
X120489548Y-91774500D01*
X117302535Y-91774500D01*
X117235496Y-91754815D01*
X117189741Y-91702011D01*
X117179177Y-91663102D01*
X117178663Y-91658071D01*
X117174999Y-91622203D01*
X117119814Y-91455666D01*
X117027712Y-91306344D01*
X116903656Y-91182288D01*
X116783763Y-91108338D01*
X116754336Y-91090187D01*
X116754331Y-91090185D01*
X116736001Y-91084111D01*
X116587797Y-91035001D01*
X116587795Y-91035000D01*
X116485010Y-91024500D01*
X115759998Y-91024500D01*
X115759980Y-91024501D01*
X115657203Y-91035000D01*
X115657200Y-91035001D01*
X115490668Y-91090185D01*
X115490663Y-91090187D01*
X115341342Y-91182289D01*
X115217289Y-91306342D01*
X115125187Y-91455663D01*
X115125186Y-91455666D01*
X115070001Y-91622203D01*
X115070001Y-91622204D01*
X115070000Y-91622204D01*
X115059500Y-91724983D01*
X115059500Y-92527046D01*
X115039815Y-92594085D01*
X115023181Y-92614727D01*
X114472180Y-93165728D01*
X114410857Y-93199213D01*
X114341165Y-93194229D01*
X114285232Y-93152357D01*
X114260815Y-93086893D01*
X114260499Y-93078047D01*
X114260499Y-93075018D01*
X114260500Y-93075009D01*
X114260499Y-91724992D01*
X114258151Y-91702011D01*
X114249999Y-91622203D01*
X114249998Y-91622200D01*
X114197931Y-91465073D01*
X114194814Y-91455666D01*
X114102712Y-91306344D01*
X113978656Y-91182288D01*
X113881902Y-91122610D01*
X113835179Y-91070663D01*
X113823000Y-91017072D01*
X113823000Y-90658308D01*
X113842685Y-90591269D01*
X113859321Y-90570625D01*
X113878081Y-90551865D01*
X113961744Y-90410398D01*
X114001076Y-90275019D01*
X114007597Y-90252573D01*
X114007598Y-90252567D01*
X114010499Y-90215701D01*
X114010500Y-90215694D01*
X114010500Y-90215649D01*
X114310000Y-90215649D01*
X114312899Y-90252489D01*
X114312900Y-90252495D01*
X114358716Y-90410193D01*
X114358717Y-90410196D01*
X114442314Y-90551552D01*
X114442321Y-90551561D01*
X114558438Y-90667678D01*
X114558447Y-90667685D01*
X114699801Y-90751281D01*
X114857514Y-90797100D01*
X114857511Y-90797100D01*
X114859998Y-90797295D01*
X114860000Y-90797295D01*
X115360000Y-90797295D01*
X115360001Y-90797295D01*
X115362486Y-90797100D01*
X115520198Y-90751281D01*
X115661552Y-90667685D01*
X115661561Y-90667678D01*
X115777678Y-90551561D01*
X115777685Y-90551552D01*
X115861282Y-90410196D01*
X115861283Y-90410193D01*
X115907099Y-90252495D01*
X115907100Y-90252489D01*
X115909999Y-90215649D01*
X115910000Y-90215634D01*
X115910000Y-90074986D01*
X118300001Y-90074986D01*
X118310494Y-90177697D01*
X118365641Y-90344119D01*
X118365643Y-90344124D01*
X118457684Y-90493345D01*
X118581654Y-90617315D01*
X118730875Y-90709356D01*
X118730880Y-90709358D01*
X118897302Y-90764505D01*
X118897309Y-90764506D01*
X119000019Y-90774999D01*
X119449999Y-90774999D01*
X119950000Y-90774999D01*
X120399972Y-90774999D01*
X120399986Y-90774998D01*
X120502697Y-90764505D01*
X120669119Y-90709358D01*
X120669124Y-90709356D01*
X120818345Y-90617315D01*
X120942315Y-90493345D01*
X121034356Y-90344124D01*
X121034358Y-90344119D01*
X121089505Y-90177697D01*
X121089506Y-90177690D01*
X121099999Y-90074986D01*
X121100000Y-90074973D01*
X121100000Y-89950000D01*
X119950000Y-89950000D01*
X119950000Y-90774999D01*
X119449999Y-90774999D01*
X119450000Y-90774998D01*
X119450000Y-89950000D01*
X118300001Y-89950000D01*
X118300001Y-90074986D01*
X115910000Y-90074986D01*
X115910000Y-89887500D01*
X115360000Y-89887500D01*
X115360000Y-90797295D01*
X114860000Y-90797295D01*
X114860000Y-89887500D01*
X114310000Y-89887500D01*
X114310000Y-90215649D01*
X114010500Y-90215649D01*
X114010500Y-89059306D01*
X114007598Y-89022431D01*
X114001076Y-88999983D01*
X113961745Y-88864606D01*
X113961744Y-88864603D01*
X113961744Y-88864602D01*
X113878081Y-88723135D01*
X113874110Y-88716420D01*
X113875928Y-88715344D01*
X113854381Y-88660468D01*
X113868059Y-88591950D01*
X113916609Y-88541704D01*
X113977895Y-88525500D01*
X114342742Y-88525500D01*
X114409781Y-88545185D01*
X114455536Y-88597989D01*
X114465480Y-88667147D01*
X114444814Y-88715857D01*
X114446288Y-88716729D01*
X114358717Y-88864803D01*
X114358716Y-88864806D01*
X114312900Y-89022504D01*
X114312899Y-89022510D01*
X114310000Y-89059350D01*
X114310000Y-89387500D01*
X114860000Y-89387500D01*
X115360000Y-89387500D01*
X115910000Y-89387500D01*
X115910000Y-89059365D01*
X115909999Y-89059350D01*
X115907100Y-89022510D01*
X115907099Y-89022504D01*
X115861283Y-88864806D01*
X115861282Y-88864803D01*
X115777685Y-88723447D01*
X115777678Y-88723438D01*
X115661561Y-88607321D01*
X115661552Y-88607314D01*
X115520196Y-88523717D01*
X115520193Y-88523716D01*
X115362494Y-88477900D01*
X115362497Y-88477900D01*
X115360000Y-88477703D01*
X115360000Y-89387500D01*
X114860000Y-89387500D01*
X114860000Y-88477702D01*
X114833765Y-88453461D01*
X114797887Y-88393507D01*
X114800118Y-88323673D01*
X114824533Y-88283988D01*
X114823298Y-88283031D01*
X114828075Y-88276870D01*
X114828081Y-88276865D01*
X114911744Y-88135398D01*
X114957598Y-87977569D01*
X114960500Y-87940694D01*
X114960500Y-86784306D01*
X114957598Y-86747431D01*
X114957597Y-86747426D01*
X114915424Y-86602265D01*
X114910500Y-86567670D01*
X114910500Y-85905499D01*
X114930185Y-85838460D01*
X114969405Y-85799959D01*
X114981156Y-85792712D01*
X115105212Y-85668656D01*
X115197314Y-85519334D01*
X115252499Y-85352797D01*
X115263000Y-85250009D01*
X115262999Y-83899992D01*
X115260651Y-83877011D01*
X115252499Y-83797203D01*
X115252498Y-83797200D01*
X115242058Y-83765694D01*
X115197314Y-83630666D01*
X115105212Y-83481344D01*
X115091909Y-83468041D01*
X115058424Y-83406718D01*
X115063408Y-83337026D01*
X115091906Y-83292683D01*
X115173729Y-83210860D01*
X115173733Y-83210858D01*
X115260858Y-83123733D01*
X115329311Y-83021286D01*
X115329312Y-83021285D01*
X115329313Y-83021282D01*
X115329315Y-83021279D01*
X115329315Y-83021277D01*
X115336590Y-83003713D01*
X115376463Y-82907451D01*
X115380946Y-82884916D01*
X115388481Y-82847029D01*
X115400500Y-82786607D01*
X115400500Y-82708308D01*
X115420185Y-82641269D01*
X115436817Y-82620628D01*
X115443081Y-82614365D01*
X115526744Y-82472898D01*
X115572598Y-82315069D01*
X115575500Y-82278194D01*
X115575500Y-81121806D01*
X115572598Y-81084931D01*
X115526744Y-80927102D01*
X115443081Y-80785635D01*
X115439110Y-80778920D01*
X115440928Y-80777844D01*
X115419381Y-80722968D01*
X115433059Y-80654450D01*
X115481609Y-80604204D01*
X115542895Y-80588000D01*
X115907105Y-80588000D01*
X115974144Y-80607685D01*
G37*
G04 #@! TD.AperFunction*
G04 #@! TA.AperFunction,Conductor*
G36*
X175192539Y-50520185D02*
G01*
X175238294Y-50572989D01*
X175249500Y-50624500D01*
X175249500Y-54927373D01*
X175229815Y-54994412D01*
X175221757Y-55001393D01*
X175246005Y-55043392D01*
X175249500Y-55072626D01*
X175249500Y-125625500D01*
X175229815Y-125692539D01*
X175177011Y-125738294D01*
X175125500Y-125749500D01*
X100624500Y-125749500D01*
X100557461Y-125729815D01*
X100511706Y-125677011D01*
X100500500Y-125625500D01*
X100500500Y-121072626D01*
X100520185Y-121005587D01*
X100523400Y-121002801D01*
X100721054Y-121002801D01*
X100743477Y-121037691D01*
X100748360Y-121066726D01*
X100764447Y-121404450D01*
X100822071Y-121805231D01*
X100917531Y-122198722D01*
X100917534Y-122198733D01*
X101049956Y-122581340D01*
X101049966Y-122581365D01*
X101218168Y-122949675D01*
X101420621Y-123300335D01*
X101420627Y-123300343D01*
X101655485Y-123630154D01*
X101822985Y-123823460D01*
X103313098Y-122333347D01*
X103380076Y-122420635D01*
X103579365Y-122619924D01*
X103666650Y-122686900D01*
X102174928Y-124178622D01*
X102213676Y-124215568D01*
X102213695Y-124215585D01*
X102531968Y-124465877D01*
X102872594Y-124684782D01*
X103232485Y-124870319D01*
X103608383Y-125020806D01*
X103608395Y-125020810D01*
X103996882Y-125134880D01*
X103996899Y-125134884D01*
X104394460Y-125211508D01*
X104394472Y-125211510D01*
X104797554Y-125250000D01*
X105202446Y-125250000D01*
X105605527Y-125211510D01*
X105605539Y-125211508D01*
X106003100Y-125134884D01*
X106003117Y-125134880D01*
X106391604Y-125020810D01*
X106391616Y-125020806D01*
X106767507Y-124870322D01*
X106767511Y-124870320D01*
X107127406Y-124684782D01*
X107468031Y-124465877D01*
X107786314Y-124215578D01*
X107825069Y-124178622D01*
X106333348Y-122686901D01*
X106420635Y-122619924D01*
X106619924Y-122420635D01*
X106686901Y-122333348D01*
X108177012Y-123823459D01*
X108344512Y-123630156D01*
X108344523Y-123630143D01*
X108579372Y-123300343D01*
X108579378Y-123300335D01*
X108781831Y-122949675D01*
X108950033Y-122581365D01*
X108950043Y-122581340D01*
X109082465Y-122198733D01*
X109082468Y-122198722D01*
X109177928Y-121805231D01*
X109235552Y-121404450D01*
X109254818Y-121000000D01*
X166445181Y-121000000D01*
X166464447Y-121404450D01*
X166522071Y-121805231D01*
X166617531Y-122198722D01*
X166617534Y-122198733D01*
X166749956Y-122581340D01*
X166749966Y-122581365D01*
X166918168Y-122949675D01*
X167120621Y-123300335D01*
X167120627Y-123300343D01*
X167355485Y-123630154D01*
X167522985Y-123823460D01*
X169013098Y-122333347D01*
X169080076Y-122420635D01*
X169279365Y-122619924D01*
X169366650Y-122686900D01*
X167874928Y-124178622D01*
X167913676Y-124215568D01*
X167913695Y-124215585D01*
X168231968Y-124465877D01*
X168572594Y-124684782D01*
X168932485Y-124870319D01*
X169308383Y-125020806D01*
X169308395Y-125020810D01*
X169696882Y-125134880D01*
X169696899Y-125134884D01*
X170094460Y-125211508D01*
X170094472Y-125211510D01*
X170497554Y-125250000D01*
X170902446Y-125250000D01*
X171305527Y-125211510D01*
X171305539Y-125211508D01*
X171703100Y-125134884D01*
X171703117Y-125134880D01*
X172091604Y-125020810D01*
X172091616Y-125020806D01*
X172467507Y-124870322D01*
X172467511Y-124870320D01*
X172827406Y-124684782D01*
X173168031Y-124465877D01*
X173486314Y-124215578D01*
X173525069Y-124178622D01*
X172033348Y-122686901D01*
X172120635Y-122619924D01*
X172319924Y-122420635D01*
X172386901Y-122333348D01*
X173877012Y-123823459D01*
X174044512Y-123630156D01*
X174044523Y-123630143D01*
X174279372Y-123300343D01*
X174279378Y-123300335D01*
X174481831Y-122949675D01*
X174650033Y-122581365D01*
X174650043Y-122581340D01*
X174782465Y-122198733D01*
X174782468Y-122198722D01*
X174877928Y-121805231D01*
X174935552Y-121404450D01*
X174954818Y-121000000D01*
X174935552Y-120595549D01*
X174877928Y-120194768D01*
X174782468Y-119801277D01*
X174782465Y-119801266D01*
X174650043Y-119418659D01*
X174650033Y-119418634D01*
X174481831Y-119050324D01*
X174279378Y-118699664D01*
X174279372Y-118699656D01*
X174044523Y-118369856D01*
X174044512Y-118369843D01*
X173877013Y-118176538D01*
X172386900Y-119666650D01*
X172319924Y-119579365D01*
X172120635Y-119380076D01*
X172033348Y-119313098D01*
X173525070Y-117821376D01*
X173486323Y-117784431D01*
X173486304Y-117784414D01*
X173168031Y-117534122D01*
X172827406Y-117315217D01*
X172467511Y-117129679D01*
X172467507Y-117129677D01*
X172091616Y-116979193D01*
X172091604Y-116979189D01*
X171703117Y-116865119D01*
X171703100Y-116865115D01*
X171305539Y-116788491D01*
X171305527Y-116788489D01*
X170902446Y-116750000D01*
X170497554Y-116750000D01*
X170094472Y-116788489D01*
X170094460Y-116788491D01*
X169696899Y-116865115D01*
X169696882Y-116865119D01*
X169308395Y-116979189D01*
X169308383Y-116979193D01*
X168932485Y-117129680D01*
X168572594Y-117315217D01*
X168231968Y-117534122D01*
X167913685Y-117784421D01*
X167913673Y-117784432D01*
X167874929Y-117821375D01*
X167874929Y-117821376D01*
X169366651Y-119313098D01*
X169279365Y-119380076D01*
X169080076Y-119579365D01*
X169013098Y-119666651D01*
X167522986Y-118176539D01*
X167355485Y-118369845D01*
X167120627Y-118699656D01*
X167120621Y-118699664D01*
X166918168Y-119050324D01*
X166749966Y-119418634D01*
X166749956Y-119418659D01*
X166617534Y-119801266D01*
X166617531Y-119801277D01*
X166522071Y-120194768D01*
X166464447Y-120595549D01*
X166445181Y-121000000D01*
X109254818Y-121000000D01*
X109235552Y-120595549D01*
X109177928Y-120194768D01*
X109082468Y-119801277D01*
X109082465Y-119801266D01*
X108950043Y-119418659D01*
X108950033Y-119418634D01*
X108781831Y-119050324D01*
X108579378Y-118699664D01*
X108579372Y-118699656D01*
X108344523Y-118369856D01*
X108344512Y-118369843D01*
X108177013Y-118176538D01*
X106686900Y-119666650D01*
X106619924Y-119579365D01*
X106420635Y-119380076D01*
X106333348Y-119313098D01*
X107825070Y-117821376D01*
X107786323Y-117784431D01*
X107786304Y-117784414D01*
X107468031Y-117534122D01*
X107127406Y-117315217D01*
X106767511Y-117129679D01*
X106767507Y-117129677D01*
X106391616Y-116979193D01*
X106391604Y-116979189D01*
X106003117Y-116865119D01*
X106003100Y-116865115D01*
X105605539Y-116788491D01*
X105605527Y-116788489D01*
X105202446Y-116750000D01*
X104797554Y-116750000D01*
X104394472Y-116788489D01*
X104394460Y-116788491D01*
X103996899Y-116865115D01*
X103996882Y-116865119D01*
X103608395Y-116979189D01*
X103608383Y-116979193D01*
X103232485Y-117129680D01*
X102872594Y-117315217D01*
X102531968Y-117534122D01*
X102213685Y-117784421D01*
X102213673Y-117784432D01*
X102174929Y-117821375D01*
X102174929Y-117821376D01*
X103666651Y-119313098D01*
X103579365Y-119380076D01*
X103380076Y-119579365D01*
X103313098Y-119666651D01*
X101822986Y-118176539D01*
X101655485Y-118369845D01*
X101420627Y-118699656D01*
X101420621Y-118699664D01*
X101218168Y-119050324D01*
X101049966Y-119418634D01*
X101049956Y-119418659D01*
X100917534Y-119801266D01*
X100917531Y-119801277D01*
X100822071Y-120194768D01*
X100764447Y-120595549D01*
X100748360Y-120933273D01*
X100725507Y-120999300D01*
X100721054Y-121002801D01*
X100523400Y-121002801D01*
X100528242Y-120998605D01*
X100503995Y-120956607D01*
X100500500Y-120927373D01*
X100500500Y-112086238D01*
X116490001Y-112086238D01*
X116500494Y-112188949D01*
X116555641Y-112355371D01*
X116555643Y-112355376D01*
X116647684Y-112504597D01*
X116771654Y-112628567D01*
X116920875Y-112720608D01*
X116920880Y-112720610D01*
X117087302Y-112775757D01*
X117087309Y-112775758D01*
X117190019Y-112786251D01*
X118389999Y-112786251D01*
X118890000Y-112786251D01*
X120089972Y-112786251D01*
X120089986Y-112786250D01*
X120192697Y-112775757D01*
X120359119Y-112720610D01*
X120359124Y-112720608D01*
X120508345Y-112628567D01*
X120632315Y-112504597D01*
X120724356Y-112355376D01*
X120724358Y-112355371D01*
X120779505Y-112188949D01*
X120779506Y-112188942D01*
X120789999Y-112086238D01*
X120790000Y-112086225D01*
X120790000Y-111286252D01*
X118890000Y-111286252D01*
X118890000Y-112786251D01*
X118389999Y-112786251D01*
X118390000Y-112786250D01*
X118390000Y-111286252D01*
X116490001Y-111286252D01*
X116490001Y-112086238D01*
X100500500Y-112086238D01*
X100500500Y-111186238D01*
X141340001Y-111186238D01*
X141350494Y-111288949D01*
X141405641Y-111455371D01*
X141405643Y-111455376D01*
X141497684Y-111604597D01*
X141621654Y-111728567D01*
X141770875Y-111820608D01*
X141770880Y-111820610D01*
X141937302Y-111875757D01*
X141937309Y-111875758D01*
X142040019Y-111886251D01*
X142389999Y-111886251D01*
X142890000Y-111886251D01*
X143239972Y-111886251D01*
X143239986Y-111886250D01*
X143342697Y-111875757D01*
X143509119Y-111820610D01*
X143509124Y-111820608D01*
X143658345Y-111728567D01*
X143782315Y-111604597D01*
X143874356Y-111455376D01*
X143874358Y-111455371D01*
X143929505Y-111288949D01*
X143929506Y-111288942D01*
X143939999Y-111186238D01*
X143940000Y-111186225D01*
X143940000Y-109886252D01*
X142890000Y-109886252D01*
X142890000Y-111886251D01*
X142389999Y-111886251D01*
X142390000Y-111886250D01*
X142390000Y-109886252D01*
X141340001Y-109886252D01*
X141340001Y-111186238D01*
X100500500Y-111186238D01*
X100500500Y-109149995D01*
X106345233Y-109149995D01*
X106345233Y-109150004D01*
X106364273Y-109404079D01*
X106420968Y-109652477D01*
X106420973Y-109652494D01*
X106514058Y-109889671D01*
X106514057Y-109889671D01*
X106641454Y-110110327D01*
X106641461Y-110110338D01*
X106683452Y-110162991D01*
X106683453Y-110162992D01*
X107485387Y-109361058D01*
X107490889Y-109381591D01*
X107569881Y-109518408D01*
X107681592Y-109630119D01*
X107818409Y-109709111D01*
X107838940Y-109714612D01*
X107036813Y-110516738D01*
X107197616Y-110626371D01*
X107197624Y-110626376D01*
X107427176Y-110736921D01*
X107427174Y-110736921D01*
X107670652Y-110812024D01*
X107670658Y-110812026D01*
X107922595Y-110849999D01*
X107922604Y-110850000D01*
X108177396Y-110850000D01*
X108177404Y-110849999D01*
X108429341Y-110812026D01*
X108429347Y-110812024D01*
X108672824Y-110736921D01*
X108902376Y-110626376D01*
X108902377Y-110626375D01*
X109063185Y-110516738D01*
X108261060Y-109714612D01*
X108281591Y-109709111D01*
X108418408Y-109630119D01*
X108530119Y-109518408D01*
X108609111Y-109381591D01*
X108614612Y-109361059D01*
X109416544Y-110162992D01*
X109416546Y-110162991D01*
X109458544Y-110110330D01*
X109530173Y-109986265D01*
X116490000Y-109986265D01*
X116490000Y-110786252D01*
X118390000Y-110786252D01*
X118890000Y-110786252D01*
X120789999Y-110786252D01*
X120789999Y-109986280D01*
X120789998Y-109986265D01*
X120779505Y-109883554D01*
X120724358Y-109717132D01*
X120724356Y-109717127D01*
X120632315Y-109567906D01*
X120508345Y-109443936D01*
X120359124Y-109351895D01*
X120359119Y-109351893D01*
X120192697Y-109296746D01*
X120192690Y-109296745D01*
X120089986Y-109286252D01*
X118890000Y-109286252D01*
X118890000Y-110786252D01*
X118390000Y-110786252D01*
X118390000Y-109286252D01*
X117190028Y-109286252D01*
X117190012Y-109286253D01*
X117087302Y-109296746D01*
X116920880Y-109351893D01*
X116920875Y-109351895D01*
X116771654Y-109443936D01*
X116647684Y-109567906D01*
X116555643Y-109717127D01*
X116555641Y-109717132D01*
X116500494Y-109883554D01*
X116500493Y-109883561D01*
X116490000Y-109986265D01*
X109530173Y-109986265D01*
X109585941Y-109889671D01*
X109679026Y-109652494D01*
X109679031Y-109652477D01*
X109735726Y-109404079D01*
X109754767Y-109150004D01*
X109754767Y-109149995D01*
X109735726Y-108895920D01*
X109679031Y-108647522D01*
X109679026Y-108647505D01*
X109585941Y-108410328D01*
X109585942Y-108410328D01*
X109458545Y-108189672D01*
X109416545Y-108137006D01*
X108614612Y-108938939D01*
X108609111Y-108918409D01*
X108530119Y-108781592D01*
X108418408Y-108669881D01*
X108281591Y-108590889D01*
X108261059Y-108585387D01*
X109063185Y-107783260D01*
X108902384Y-107673628D01*
X108902376Y-107673623D01*
X108672823Y-107563078D01*
X108672825Y-107563078D01*
X108429347Y-107487975D01*
X108429341Y-107487973D01*
X108177404Y-107450000D01*
X107922595Y-107450000D01*
X107670658Y-107487973D01*
X107670652Y-107487975D01*
X107427175Y-107563078D01*
X107197622Y-107673625D01*
X107197609Y-107673632D01*
X107036813Y-107783259D01*
X107838941Y-108585387D01*
X107818409Y-108590889D01*
X107681592Y-108669881D01*
X107569881Y-108781592D01*
X107490889Y-108918409D01*
X107485387Y-108938940D01*
X106683452Y-108137006D01*
X106641457Y-108189667D01*
X106514058Y-108410328D01*
X106420973Y-108647505D01*
X106420968Y-108647522D01*
X106364273Y-108895920D01*
X106345233Y-109149995D01*
X100500500Y-109149995D01*
X100500500Y-93900000D01*
X105394706Y-93900000D01*
X105413853Y-94143297D01*
X105413853Y-94143300D01*
X105413854Y-94143302D01*
X105451170Y-94298733D01*
X105470830Y-94380619D01*
X105564222Y-94606089D01*
X105691737Y-94814173D01*
X105691738Y-94814176D01*
X105724386Y-94852402D01*
X105850241Y-94999759D01*
X105891503Y-95035000D01*
X105915751Y-95055710D01*
X105953944Y-95114217D01*
X105954442Y-95184085D01*
X105917088Y-95243131D01*
X105915751Y-95244290D01*
X105850241Y-95300241D01*
X105691738Y-95485823D01*
X105691737Y-95485826D01*
X105564222Y-95693910D01*
X105470830Y-95919380D01*
X105470828Y-95919387D01*
X105470828Y-95919388D01*
X105468803Y-95927821D01*
X105413853Y-96156702D01*
X105394706Y-96400000D01*
X105413853Y-96643297D01*
X105413853Y-96643300D01*
X105413854Y-96643302D01*
X105464095Y-96852569D01*
X105470830Y-96880619D01*
X105564222Y-97106089D01*
X105691737Y-97314173D01*
X105691738Y-97314176D01*
X105691741Y-97314179D01*
X105850241Y-97499759D01*
X105993897Y-97622453D01*
X106035823Y-97658261D01*
X106035826Y-97658262D01*
X106243910Y-97785777D01*
X106469381Y-97879169D01*
X106469378Y-97879169D01*
X106469384Y-97879170D01*
X106469388Y-97879172D01*
X106706698Y-97936146D01*
X106950000Y-97955294D01*
X107193302Y-97936146D01*
X107430612Y-97879172D01*
X107656089Y-97785777D01*
X107864179Y-97658259D01*
X108049759Y-97499759D01*
X108208259Y-97314179D01*
X108272278Y-97209710D01*
X108324089Y-97162835D01*
X108378005Y-97150500D01*
X111186415Y-97150500D01*
X111253454Y-97170185D01*
X111299209Y-97222989D01*
X111304118Y-97235489D01*
X111325495Y-97300000D01*
X111340185Y-97344331D01*
X111340187Y-97344336D01*
X111432289Y-97493657D01*
X111550681Y-97612049D01*
X111584166Y-97673372D01*
X111587000Y-97699730D01*
X111587000Y-97950270D01*
X111567315Y-98017309D01*
X111550681Y-98037951D01*
X111432289Y-98156342D01*
X111340187Y-98305663D01*
X111340185Y-98305668D01*
X111328809Y-98340000D01*
X111285001Y-98472203D01*
X111285001Y-98472204D01*
X111285000Y-98472204D01*
X111274500Y-98574983D01*
X111274500Y-99925001D01*
X111274501Y-99925018D01*
X111285000Y-100027796D01*
X111285001Y-100027799D01*
X111335332Y-100179685D01*
X111340186Y-100194334D01*
X111432288Y-100343656D01*
X111556344Y-100467712D01*
X111705666Y-100559814D01*
X111872203Y-100614999D01*
X111974991Y-100625500D01*
X112700008Y-100625499D01*
X112700016Y-100625498D01*
X112700019Y-100625498D01*
X112756302Y-100619748D01*
X112802797Y-100614999D01*
X112969334Y-100559814D01*
X113118656Y-100467712D01*
X113242712Y-100343656D01*
X113319659Y-100218903D01*
X113371607Y-100172179D01*
X113425198Y-100160000D01*
X114175389Y-100160000D01*
X114242428Y-100179685D01*
X114280928Y-100218903D01*
X114357684Y-100343345D01*
X114481654Y-100467315D01*
X114630875Y-100559356D01*
X114630880Y-100559358D01*
X114797302Y-100614505D01*
X114797309Y-100614506D01*
X114900019Y-100624999D01*
X115012499Y-100624999D01*
X115512500Y-100624999D01*
X115624972Y-100624999D01*
X115624986Y-100624998D01*
X115727697Y-100614505D01*
X115894119Y-100559358D01*
X115894124Y-100559356D01*
X116043345Y-100467315D01*
X116167315Y-100343345D01*
X116259356Y-100194124D01*
X116259358Y-100194119D01*
X116314505Y-100027697D01*
X116314506Y-100027690D01*
X116324999Y-99924986D01*
X116325000Y-99924973D01*
X116325000Y-99500000D01*
X115512500Y-99500000D01*
X115512500Y-100624999D01*
X115012499Y-100624999D01*
X115012500Y-100624998D01*
X115012500Y-99124000D01*
X115032185Y-99056961D01*
X115084989Y-99011206D01*
X115136500Y-99000000D01*
X116324999Y-99000000D01*
X116324999Y-98575028D01*
X116324998Y-98575013D01*
X116314505Y-98472302D01*
X116259358Y-98305880D01*
X116259356Y-98305875D01*
X116167315Y-98156654D01*
X116043345Y-98032684D01*
X115894115Y-97940638D01*
X115887715Y-97937654D01*
X115835275Y-97891482D01*
X115816123Y-97824289D01*
X115836338Y-97757408D01*
X115888014Y-97713342D01*
X115887791Y-97712864D01*
X115894326Y-97709816D01*
X115894334Y-97709814D01*
X116043656Y-97617712D01*
X116167712Y-97493656D01*
X116259814Y-97344334D01*
X116295879Y-97235494D01*
X116335652Y-97178051D01*
X116400167Y-97151228D01*
X116413585Y-97150500D01*
X122837770Y-97150500D01*
X122904809Y-97170185D01*
X122925451Y-97186819D01*
X127703181Y-101964549D01*
X127736666Y-102025872D01*
X127739500Y-102052230D01*
X127739500Y-102876752D01*
X127719815Y-102943791D01*
X127667011Y-102989546D01*
X127615500Y-103000752D01*
X127057129Y-103000752D01*
X127057123Y-103000753D01*
X126997516Y-103007160D01*
X126862671Y-103057454D01*
X126862669Y-103057455D01*
X126774311Y-103123601D01*
X126708847Y-103148018D01*
X126640574Y-103133167D01*
X126625689Y-103123601D01*
X126537330Y-103057455D01*
X126537328Y-103057454D01*
X126402482Y-103007160D01*
X126402483Y-103007160D01*
X126342883Y-103000753D01*
X126342881Y-103000752D01*
X126342873Y-103000752D01*
X126342864Y-103000752D01*
X123477129Y-103000752D01*
X123477123Y-103000753D01*
X123417516Y-103007160D01*
X123282671Y-103057454D01*
X123282664Y-103057458D01*
X123167457Y-103143703D01*
X123167449Y-103143710D01*
X123135746Y-103186062D01*
X123079813Y-103227934D01*
X123036479Y-103235752D01*
X120907535Y-103235752D01*
X120840496Y-103216067D01*
X120794741Y-103163263D01*
X120784177Y-103124354D01*
X120783663Y-103119323D01*
X120779999Y-103083455D01*
X120724814Y-102916918D01*
X120632712Y-102767596D01*
X120508656Y-102643540D01*
X120359334Y-102551438D01*
X120192797Y-102496253D01*
X120192795Y-102496252D01*
X120090010Y-102485752D01*
X117189998Y-102485752D01*
X117189981Y-102485753D01*
X117087203Y-102496252D01*
X117087200Y-102496253D01*
X116920668Y-102551437D01*
X116920663Y-102551439D01*
X116771342Y-102643541D01*
X116647289Y-102767594D01*
X116555187Y-102916915D01*
X116555185Y-102916920D01*
X116546281Y-102943791D01*
X116500002Y-103083454D01*
X116500001Y-103083456D01*
X116500000Y-103083457D01*
X116495823Y-103124354D01*
X116469427Y-103189045D01*
X116412247Y-103229197D01*
X116372465Y-103235752D01*
X109874499Y-103235752D01*
X109807460Y-103216067D01*
X109761705Y-103163263D01*
X109750499Y-103111752D01*
X109750499Y-102902129D01*
X109750498Y-102902123D01*
X109750497Y-102902116D01*
X109744091Y-102842517D01*
X109716147Y-102767596D01*
X109693797Y-102707671D01*
X109693793Y-102707664D01*
X109607547Y-102592455D01*
X109607544Y-102592452D01*
X109492335Y-102506206D01*
X109492328Y-102506202D01*
X109357482Y-102455908D01*
X109357483Y-102455908D01*
X109297883Y-102449501D01*
X109297881Y-102449500D01*
X109297873Y-102449500D01*
X109297864Y-102449500D01*
X106802129Y-102449500D01*
X106802123Y-102449501D01*
X106742516Y-102455908D01*
X106607671Y-102506202D01*
X106607664Y-102506206D01*
X106492455Y-102592452D01*
X106492452Y-102592455D01*
X106406206Y-102707664D01*
X106406202Y-102707671D01*
X106355908Y-102842517D01*
X106352228Y-102876752D01*
X106349501Y-102902123D01*
X106349500Y-102902135D01*
X106349500Y-105397870D01*
X106349501Y-105397876D01*
X106355908Y-105457483D01*
X106406202Y-105592328D01*
X106406206Y-105592335D01*
X106492452Y-105707544D01*
X106492455Y-105707547D01*
X106607664Y-105793793D01*
X106607671Y-105793797D01*
X106742517Y-105844091D01*
X106742516Y-105844091D01*
X106749444Y-105844835D01*
X106802127Y-105850500D01*
X109297872Y-105850499D01*
X109357483Y-105844091D01*
X109492331Y-105793796D01*
X109607546Y-105707546D01*
X109693796Y-105592331D01*
X109744091Y-105457483D01*
X109750500Y-105397873D01*
X109750500Y-105360752D01*
X109770185Y-105293713D01*
X109822989Y-105247958D01*
X109874500Y-105236752D01*
X116372465Y-105236752D01*
X116439504Y-105256437D01*
X116485259Y-105309241D01*
X116495823Y-105348150D01*
X116500001Y-105389049D01*
X116500001Y-105389051D01*
X116555185Y-105555583D01*
X116555187Y-105555588D01*
X116647289Y-105704909D01*
X116716951Y-105774571D01*
X116750436Y-105835894D01*
X116745452Y-105905586D01*
X116703580Y-105961519D01*
X116638116Y-105985936D01*
X116629270Y-105986252D01*
X115590000Y-105986252D01*
X115590000Y-108624574D01*
X121690000Y-108624574D01*
X121690000Y-107549986D01*
X132600001Y-107549986D01*
X132610494Y-107652697D01*
X132665641Y-107819119D01*
X132665643Y-107819124D01*
X132757684Y-107968345D01*
X132881654Y-108092315D01*
X133030875Y-108184356D01*
X133030880Y-108184358D01*
X133197302Y-108239505D01*
X133197309Y-108239506D01*
X133300019Y-108249999D01*
X133749999Y-108249999D01*
X134250000Y-108249999D01*
X134699972Y-108249999D01*
X134699986Y-108249998D01*
X134802697Y-108239505D01*
X134969119Y-108184358D01*
X134969124Y-108184356D01*
X135118345Y-108092315D01*
X135242315Y-107968345D01*
X135334356Y-107819124D01*
X135334358Y-107819119D01*
X135389505Y-107652697D01*
X135389506Y-107652690D01*
X135399999Y-107549986D01*
X135400000Y-107549973D01*
X135400000Y-107425000D01*
X134250000Y-107425000D01*
X134250000Y-108249999D01*
X133749999Y-108249999D01*
X133750000Y-108249998D01*
X133750000Y-107425000D01*
X132600001Y-107425000D01*
X132600001Y-107549986D01*
X121690000Y-107549986D01*
X121690000Y-105986252D01*
X120650730Y-105986252D01*
X120583691Y-105966567D01*
X120537936Y-105913763D01*
X120527992Y-105844605D01*
X120557017Y-105781049D01*
X120563049Y-105774571D01*
X120632712Y-105704908D01*
X120724814Y-105555586D01*
X120779999Y-105389049D01*
X120784177Y-105348148D01*
X120810573Y-105283459D01*
X120867753Y-105243307D01*
X120907535Y-105236752D01*
X123036479Y-105236752D01*
X123103518Y-105256437D01*
X123135746Y-105286442D01*
X123167449Y-105328793D01*
X123167452Y-105328796D01*
X123167454Y-105328798D01*
X123167457Y-105328800D01*
X123282664Y-105415045D01*
X123282671Y-105415049D01*
X123417517Y-105465343D01*
X123417516Y-105465343D01*
X123424444Y-105466087D01*
X123477127Y-105471752D01*
X126342872Y-105471751D01*
X126402483Y-105465343D01*
X126537331Y-105415048D01*
X126625689Y-105348902D01*
X126691153Y-105324486D01*
X126759426Y-105339337D01*
X126774311Y-105348903D01*
X126862669Y-105415048D01*
X126862671Y-105415049D01*
X126997517Y-105465343D01*
X126997516Y-105465343D01*
X127004444Y-105466087D01*
X127057127Y-105471752D01*
X129922872Y-105471751D01*
X129982483Y-105465343D01*
X130117331Y-105415048D01*
X130232546Y-105328798D01*
X130247187Y-105309241D01*
X130264254Y-105286442D01*
X130320187Y-105244570D01*
X130363521Y-105236752D01*
X132966000Y-105236752D01*
X133033039Y-105256437D01*
X133078794Y-105309241D01*
X133090000Y-105360752D01*
X133090000Y-106059968D01*
X133070315Y-106127007D01*
X133031097Y-106165506D01*
X132881659Y-106257680D01*
X132881655Y-106257683D01*
X132757684Y-106381654D01*
X132665643Y-106530875D01*
X132665641Y-106530880D01*
X132610494Y-106697302D01*
X132610493Y-106697309D01*
X132600000Y-106800013D01*
X132600000Y-106925000D01*
X135399999Y-106925000D01*
X135399999Y-106800028D01*
X135399998Y-106800013D01*
X135389505Y-106697302D01*
X135334358Y-106530880D01*
X135334356Y-106530875D01*
X135242315Y-106381654D01*
X135118344Y-106257683D01*
X135118340Y-106257680D01*
X134968903Y-106165506D01*
X134922178Y-106113559D01*
X134910000Y-106059968D01*
X134910000Y-105360752D01*
X134929685Y-105293713D01*
X134982489Y-105247958D01*
X135034000Y-105236752D01*
X141215501Y-105236752D01*
X141282540Y-105256437D01*
X141328295Y-105309241D01*
X141339501Y-105360752D01*
X141339501Y-105786270D01*
X141350000Y-105889048D01*
X141350001Y-105889051D01*
X141405185Y-106055583D01*
X141405187Y-106055588D01*
X141497289Y-106204909D01*
X141516951Y-106224571D01*
X141550436Y-106285894D01*
X141545452Y-106355586D01*
X141503580Y-106411519D01*
X141438116Y-106435936D01*
X141429270Y-106436252D01*
X139390000Y-106436252D01*
X139390000Y-107686252D01*
X141277291Y-107686252D01*
X141344330Y-107705937D01*
X141390085Y-107758741D01*
X141400029Y-107827899D01*
X141394997Y-107849256D01*
X141350494Y-107983554D01*
X141350493Y-107983561D01*
X141340000Y-108086265D01*
X141340000Y-109386252D01*
X143939999Y-109386252D01*
X143939999Y-108086280D01*
X143939998Y-108086265D01*
X143929505Y-107983554D01*
X143885003Y-107849256D01*
X143882601Y-107779428D01*
X143918333Y-107719386D01*
X143980853Y-107688193D01*
X144002709Y-107686252D01*
X145890000Y-107686252D01*
X145890000Y-106436252D01*
X143850730Y-106436252D01*
X143783691Y-106416567D01*
X143737936Y-106363763D01*
X143727992Y-106294605D01*
X143757017Y-106231049D01*
X143763049Y-106224571D01*
X143782712Y-106204908D01*
X143874814Y-106055586D01*
X143929999Y-105889049D01*
X143940500Y-105786261D01*
X143940500Y-105360752D01*
X143960185Y-105293713D01*
X144012989Y-105247958D01*
X144064500Y-105236752D01*
X155498543Y-105236752D01*
X155576192Y-105221306D01*
X155615018Y-105213583D01*
X155691836Y-105198303D01*
X155745165Y-105176213D01*
X155873914Y-105122884D01*
X156037782Y-105013391D01*
X156177139Y-104874034D01*
X156177139Y-104874032D01*
X156187347Y-104863825D01*
X156187348Y-104863822D01*
X158927139Y-102124034D01*
X159012519Y-101996253D01*
X159036632Y-101960166D01*
X159088029Y-101836082D01*
X159092412Y-101825501D01*
X159092412Y-101825500D01*
X159097918Y-101812208D01*
X159112051Y-101778088D01*
X159150500Y-101584792D01*
X159150500Y-101387712D01*
X159150500Y-93026459D01*
X159150500Y-93026456D01*
X159112052Y-92833170D01*
X159112051Y-92833169D01*
X159112051Y-92833165D01*
X159087955Y-92774991D01*
X159036633Y-92651088D01*
X159035208Y-92648956D01*
X158962293Y-92539829D01*
X158946322Y-92505542D01*
X158901744Y-92352102D01*
X158818081Y-92210635D01*
X158818079Y-92210633D01*
X158818076Y-92210629D01*
X158701870Y-92094423D01*
X158701862Y-92094417D01*
X158560396Y-92010755D01*
X158560393Y-92010754D01*
X158402573Y-91964902D01*
X158402567Y-91964901D01*
X158365701Y-91962000D01*
X158365694Y-91962000D01*
X157967895Y-91962000D01*
X157900856Y-91942315D01*
X157855101Y-91889511D01*
X157845157Y-91820353D01*
X157865671Y-91772003D01*
X157864110Y-91771080D01*
X157891366Y-91724992D01*
X157951744Y-91622898D01*
X157997598Y-91465069D01*
X158000500Y-91428194D01*
X158000500Y-91229878D01*
X158009939Y-91182425D01*
X158041855Y-91105374D01*
X158075500Y-90936229D01*
X158075500Y-89572016D01*
X158095185Y-89504977D01*
X158147989Y-89459222D01*
X158160488Y-89454313D01*
X158219334Y-89434814D01*
X158368656Y-89342712D01*
X158492712Y-89218656D01*
X158584814Y-89069334D01*
X158639999Y-88902797D01*
X158650500Y-88800009D01*
X158650499Y-88149992D01*
X158639999Y-88047203D01*
X158584814Y-87880666D01*
X158492712Y-87731344D01*
X158368656Y-87607288D01*
X158265493Y-87543657D01*
X158219336Y-87515187D01*
X158219331Y-87515185D01*
X158164298Y-87496949D01*
X158052797Y-87460001D01*
X158052795Y-87460000D01*
X157950010Y-87449500D01*
X156449998Y-87449500D01*
X156449981Y-87449501D01*
X156347203Y-87460000D01*
X156347200Y-87460001D01*
X156180668Y-87515185D01*
X156180663Y-87515187D01*
X156031342Y-87607289D01*
X155950451Y-87688181D01*
X155889128Y-87721666D01*
X155862770Y-87724500D01*
X154875218Y-87724500D01*
X154808179Y-87704815D01*
X154769679Y-87665597D01*
X154717712Y-87581344D01*
X154593656Y-87457288D01*
X154491586Y-87394331D01*
X154444336Y-87365187D01*
X154444331Y-87365185D01*
X154442862Y-87364698D01*
X154277797Y-87310001D01*
X154277795Y-87310000D01*
X154175010Y-87299500D01*
X152824998Y-87299500D01*
X152824981Y-87299501D01*
X152722203Y-87310000D01*
X152722200Y-87310001D01*
X152555668Y-87365185D01*
X152555663Y-87365187D01*
X152406342Y-87457289D01*
X152282289Y-87581342D01*
X152190187Y-87730663D01*
X152190186Y-87730666D01*
X152135001Y-87897203D01*
X152135001Y-87897204D01*
X152135000Y-87897204D01*
X152124500Y-87999983D01*
X152124500Y-88725001D01*
X152124501Y-88725019D01*
X152135000Y-88827796D01*
X152135001Y-88827799D01*
X152190185Y-88994331D01*
X152190187Y-88994336D01*
X152207513Y-89022426D01*
X152282288Y-89143656D01*
X152406344Y-89267712D01*
X152555666Y-89359814D01*
X152722203Y-89414999D01*
X152824991Y-89425500D01*
X154175008Y-89425499D01*
X154277797Y-89414999D01*
X154444334Y-89359814D01*
X154593656Y-89267712D01*
X154599549Y-89261819D01*
X154660872Y-89228334D01*
X154687230Y-89225500D01*
X155862770Y-89225500D01*
X155929809Y-89245185D01*
X155950451Y-89261819D01*
X156031344Y-89342712D01*
X156165564Y-89425499D01*
X156180668Y-89434815D01*
X156201110Y-89441588D01*
X156239502Y-89454310D01*
X156296947Y-89494081D01*
X156323772Y-89558596D01*
X156324500Y-89572016D01*
X156324500Y-90936233D01*
X156358143Y-91105366D01*
X156358145Y-91105374D01*
X156390004Y-91182289D01*
X156390061Y-91182425D01*
X156399500Y-91229878D01*
X156399500Y-91428201D01*
X156402401Y-91465067D01*
X156402402Y-91465073D01*
X156448254Y-91622893D01*
X156448255Y-91622896D01*
X156448256Y-91622898D01*
X156487702Y-91689599D01*
X156535890Y-91771080D01*
X156534071Y-91772155D01*
X156555619Y-91827032D01*
X156541941Y-91895550D01*
X156493391Y-91945796D01*
X156432105Y-91962000D01*
X156034298Y-91962000D01*
X155997432Y-91964901D01*
X155997426Y-91964902D01*
X155839606Y-92010754D01*
X155839603Y-92010755D01*
X155698137Y-92094417D01*
X155698129Y-92094423D01*
X155581923Y-92210629D01*
X155581917Y-92210637D01*
X155498255Y-92352103D01*
X155498254Y-92352106D01*
X155452402Y-92509926D01*
X155452401Y-92509932D01*
X155449500Y-92546798D01*
X155449500Y-93703194D01*
X155452401Y-93740067D01*
X155452402Y-93740073D01*
X155498254Y-93897893D01*
X155498255Y-93897896D01*
X155578590Y-94033737D01*
X155581919Y-94039365D01*
X155588179Y-94045625D01*
X155621665Y-94106945D01*
X155624500Y-94133308D01*
X155624500Y-94389547D01*
X155604815Y-94456586D01*
X155588181Y-94477228D01*
X155463366Y-94602043D01*
X155401270Y-94664139D01*
X155401267Y-94664142D01*
X155357703Y-94707705D01*
X155314140Y-94751268D01*
X155296150Y-94778193D01*
X155245686Y-94853716D01*
X155245685Y-94853718D01*
X155217889Y-94920826D01*
X155217889Y-94920828D01*
X155198537Y-94967548D01*
X155198536Y-94967552D01*
X155198536Y-94967553D01*
X155198535Y-94967556D01*
X155174500Y-95088389D01*
X155174500Y-95712330D01*
X155154815Y-95779369D01*
X155102011Y-95825124D01*
X155085096Y-95831406D01*
X155027105Y-95848254D01*
X155027103Y-95848255D01*
X154878920Y-95935890D01*
X154877845Y-95934073D01*
X154822948Y-95955620D01*
X154754432Y-95941931D01*
X154704194Y-95893373D01*
X154688000Y-95832104D01*
X154688000Y-95434313D01*
X154687999Y-95434298D01*
X154686015Y-95409090D01*
X154685098Y-95397431D01*
X154683930Y-95393412D01*
X154639245Y-95239606D01*
X154639244Y-95239603D01*
X154639244Y-95239602D01*
X154555581Y-95098135D01*
X154555579Y-95098133D01*
X154555576Y-95098129D01*
X154439370Y-94981923D01*
X154439362Y-94981917D01*
X154361181Y-94935681D01*
X154297898Y-94898256D01*
X154297897Y-94898255D01*
X154297896Y-94898255D01*
X154297893Y-94898254D01*
X154140073Y-94852402D01*
X154140067Y-94852401D01*
X154103201Y-94849500D01*
X154103194Y-94849500D01*
X152946806Y-94849500D01*
X152946798Y-94849500D01*
X152909932Y-94852401D01*
X152909926Y-94852402D01*
X152752106Y-94898254D01*
X152752103Y-94898255D01*
X152652379Y-94957232D01*
X152589258Y-94974500D01*
X151805035Y-94974500D01*
X151737996Y-94954815D01*
X151692241Y-94902011D01*
X151681677Y-94863102D01*
X151680287Y-94849500D01*
X151677499Y-94822203D01*
X151622314Y-94655666D01*
X151530212Y-94506344D01*
X151406156Y-94382288D01*
X151256834Y-94290186D01*
X151090297Y-94235001D01*
X151090295Y-94235000D01*
X150987510Y-94224500D01*
X150262498Y-94224500D01*
X150262480Y-94224501D01*
X150159703Y-94235000D01*
X150159700Y-94235001D01*
X149993168Y-94290185D01*
X149993163Y-94290187D01*
X149843842Y-94382289D01*
X149719789Y-94506342D01*
X149627687Y-94655663D01*
X149627686Y-94655666D01*
X149572501Y-94822203D01*
X149572501Y-94822204D01*
X149572500Y-94822204D01*
X149562000Y-94924983D01*
X149562000Y-96275001D01*
X149562001Y-96275018D01*
X149572500Y-96377796D01*
X149572501Y-96377799D01*
X149596592Y-96450499D01*
X149627686Y-96544334D01*
X149719788Y-96693656D01*
X149843844Y-96817712D01*
X149993166Y-96909814D01*
X150159703Y-96964999D01*
X150262491Y-96975500D01*
X150987508Y-96975499D01*
X150987516Y-96975498D01*
X150987519Y-96975498D01*
X151043802Y-96969748D01*
X151090297Y-96964999D01*
X151256834Y-96909814D01*
X151406156Y-96817712D01*
X151530212Y-96693656D01*
X151622314Y-96544334D01*
X151677499Y-96377797D01*
X151681677Y-96336896D01*
X151708073Y-96272207D01*
X151765253Y-96232055D01*
X151805035Y-96225500D01*
X152466692Y-96225500D01*
X152533731Y-96245185D01*
X152554368Y-96261814D01*
X152610635Y-96318081D01*
X152752102Y-96401744D01*
X152793724Y-96413836D01*
X152909926Y-96447597D01*
X152909929Y-96447597D01*
X152909931Y-96447598D01*
X152946806Y-96450500D01*
X152946814Y-96450500D01*
X154103186Y-96450500D01*
X154103194Y-96450500D01*
X154140069Y-96447598D01*
X154140071Y-96447597D01*
X154140073Y-96447597D01*
X154242306Y-96417895D01*
X154297898Y-96401744D01*
X154422548Y-96328026D01*
X154446080Y-96314110D01*
X154447155Y-96315928D01*
X154502032Y-96294381D01*
X154570550Y-96308059D01*
X154620796Y-96356609D01*
X154637000Y-96417895D01*
X154637000Y-96782742D01*
X154617315Y-96849781D01*
X154564511Y-96895536D01*
X154495353Y-96905480D01*
X154446642Y-96884814D01*
X154445771Y-96886288D01*
X154297696Y-96798717D01*
X154297693Y-96798716D01*
X154139995Y-96752900D01*
X154139989Y-96752899D01*
X154103149Y-96750000D01*
X153775000Y-96750000D01*
X153775000Y-97300000D01*
X154684794Y-97300000D01*
X154709057Y-97273752D01*
X154769018Y-97237885D01*
X154838852Y-97240129D01*
X154878512Y-97264530D01*
X154879469Y-97263298D01*
X154885632Y-97268078D01*
X154885635Y-97268081D01*
X154885638Y-97268083D01*
X154885641Y-97268085D01*
X154988620Y-97328986D01*
X155036304Y-97380054D01*
X155049500Y-97435718D01*
X155049500Y-99150270D01*
X155029815Y-99217309D01*
X155013181Y-99237951D01*
X154894788Y-99356343D01*
X154894787Y-99356344D01*
X154824009Y-99471096D01*
X154772061Y-99517821D01*
X154718470Y-99530000D01*
X153956530Y-99530000D01*
X153889491Y-99510315D01*
X153850991Y-99471096D01*
X153780212Y-99356344D01*
X153656157Y-99232289D01*
X153656156Y-99232288D01*
X153506834Y-99140186D01*
X153340297Y-99085001D01*
X153340295Y-99085000D01*
X153237510Y-99074500D01*
X152512498Y-99074500D01*
X152512480Y-99074501D01*
X152409703Y-99085000D01*
X152409700Y-99085001D01*
X152243168Y-99140185D01*
X152243163Y-99140187D01*
X152093842Y-99232289D01*
X151969789Y-99356342D01*
X151877687Y-99505663D01*
X151877686Y-99505666D01*
X151822501Y-99672203D01*
X151822501Y-99672204D01*
X151822500Y-99672204D01*
X151812000Y-99774983D01*
X151812000Y-101125001D01*
X151812001Y-101125018D01*
X151822500Y-101227796D01*
X151822501Y-101227799D01*
X151862995Y-101350000D01*
X151877686Y-101394334D01*
X151969787Y-101543655D01*
X151969789Y-101543657D01*
X152088181Y-101662049D01*
X152121666Y-101723372D01*
X152124500Y-101749730D01*
X152124500Y-103111752D01*
X152104815Y-103178791D01*
X152052011Y-103224546D01*
X152000500Y-103235752D01*
X144064499Y-103235752D01*
X143997460Y-103216067D01*
X143951705Y-103163263D01*
X143940499Y-103111752D01*
X143940499Y-102686250D01*
X143940498Y-102686233D01*
X143929999Y-102583455D01*
X143929998Y-102583452D01*
X143919390Y-102551439D01*
X143874814Y-102416918D01*
X143782712Y-102267596D01*
X143658656Y-102143540D01*
X143658655Y-102143539D01*
X143584402Y-102097739D01*
X143537678Y-102045791D01*
X143525500Y-101992201D01*
X143525500Y-98062230D01*
X143545185Y-97995191D01*
X143561819Y-97974549D01*
X143567712Y-97968656D01*
X143659814Y-97819334D01*
X143666220Y-97800001D01*
X152365204Y-97800001D01*
X152365399Y-97802486D01*
X152411218Y-97960198D01*
X152494814Y-98101552D01*
X152494821Y-98101561D01*
X152610938Y-98217678D01*
X152610947Y-98217685D01*
X152752303Y-98301282D01*
X152752306Y-98301283D01*
X152910004Y-98347099D01*
X152910010Y-98347100D01*
X152946850Y-98349999D01*
X152946866Y-98350000D01*
X153275000Y-98350000D01*
X153775000Y-98350000D01*
X154103134Y-98350000D01*
X154103149Y-98349999D01*
X154139989Y-98347100D01*
X154139995Y-98347099D01*
X154297693Y-98301283D01*
X154297696Y-98301282D01*
X154439052Y-98217685D01*
X154439061Y-98217678D01*
X154555178Y-98101561D01*
X154555185Y-98101552D01*
X154638781Y-97960198D01*
X154684600Y-97802486D01*
X154684795Y-97800001D01*
X154684795Y-97800000D01*
X153775000Y-97800000D01*
X153775000Y-98350000D01*
X153275000Y-98350000D01*
X153275000Y-97800000D01*
X152365205Y-97800000D01*
X152365204Y-97800001D01*
X143666220Y-97800001D01*
X143714999Y-97652797D01*
X143725500Y-97550009D01*
X143725500Y-97299998D01*
X152365204Y-97299998D01*
X152365205Y-97300000D01*
X153275000Y-97300000D01*
X153275000Y-96750000D01*
X152946850Y-96750000D01*
X152910010Y-96752899D01*
X152910004Y-96752900D01*
X152752306Y-96798716D01*
X152752303Y-96798717D01*
X152610947Y-96882314D01*
X152610938Y-96882321D01*
X152494821Y-96998438D01*
X152494814Y-96998447D01*
X152411218Y-97139801D01*
X152365399Y-97297513D01*
X152365204Y-97299998D01*
X143725500Y-97299998D01*
X143725499Y-96149992D01*
X143714999Y-96047203D01*
X143659814Y-95880666D01*
X143567712Y-95731344D01*
X143443656Y-95607288D01*
X143438549Y-95602181D01*
X143440435Y-95600294D01*
X143407212Y-95553375D01*
X143400500Y-95513132D01*
X143400500Y-94994828D01*
X143405424Y-94960233D01*
X143447597Y-94815073D01*
X143447598Y-94815067D01*
X143447669Y-94814173D01*
X143450500Y-94778194D01*
X143450500Y-94074000D01*
X143470185Y-94006961D01*
X143522989Y-93961206D01*
X143574500Y-93950000D01*
X143625500Y-93950000D01*
X143692539Y-93969685D01*
X143738294Y-94022489D01*
X143749500Y-94074000D01*
X143749500Y-94778193D01*
X143752401Y-94815067D01*
X143752402Y-94815073D01*
X143798254Y-94972893D01*
X143798255Y-94972896D01*
X143798256Y-94972898D01*
X143832732Y-95031194D01*
X143850000Y-95094314D01*
X143850000Y-95359795D01*
X143850001Y-95359795D01*
X143852486Y-95359600D01*
X144010197Y-95313781D01*
X144011382Y-95313081D01*
X144012436Y-95312813D01*
X144017357Y-95310684D01*
X144017700Y-95311477D01*
X144079105Y-95295895D01*
X144132289Y-95311508D01*
X144132446Y-95311147D01*
X144135371Y-95312413D01*
X144137624Y-95313074D01*
X144139602Y-95314244D01*
X144139604Y-95314244D01*
X144139605Y-95314245D01*
X144297426Y-95360097D01*
X144297429Y-95360097D01*
X144297431Y-95360098D01*
X144334306Y-95363000D01*
X144334314Y-95363000D01*
X144765686Y-95363000D01*
X144765694Y-95363000D01*
X144766838Y-95362910D01*
X144767017Y-95362947D01*
X144768132Y-95362904D01*
X144768142Y-95363184D01*
X144835216Y-95377269D01*
X144864256Y-95398846D01*
X145461016Y-95995606D01*
X145461045Y-95995637D01*
X145551264Y-96085856D01*
X145551267Y-96085858D01*
X145602490Y-96120084D01*
X145653714Y-96154312D01*
X145653715Y-96154312D01*
X145653716Y-96154313D01*
X145659484Y-96156702D01*
X145734207Y-96187652D01*
X145767548Y-96201463D01*
X145827971Y-96213481D01*
X145888393Y-96225500D01*
X145888394Y-96225500D01*
X146519965Y-96225500D01*
X146587004Y-96245185D01*
X146632759Y-96297989D01*
X146643323Y-96336898D01*
X146647501Y-96377797D01*
X146647501Y-96377799D01*
X146671592Y-96450499D01*
X146702686Y-96544334D01*
X146794788Y-96693656D01*
X146918844Y-96817712D01*
X147068166Y-96909814D01*
X147234703Y-96964999D01*
X147337491Y-96975500D01*
X148062508Y-96975499D01*
X148062516Y-96975498D01*
X148062519Y-96975498D01*
X148118802Y-96969748D01*
X148165297Y-96964999D01*
X148331834Y-96909814D01*
X148481156Y-96817712D01*
X148605212Y-96693656D01*
X148697314Y-96544334D01*
X148752499Y-96377797D01*
X148763000Y-96275009D01*
X148762999Y-94924992D01*
X148762573Y-94920826D01*
X148752499Y-94822203D01*
X148752498Y-94822200D01*
X148737916Y-94778194D01*
X148697314Y-94655666D01*
X148605212Y-94506344D01*
X148481156Y-94382288D01*
X148331834Y-94290186D01*
X148165297Y-94235001D01*
X148165295Y-94235000D01*
X148062510Y-94224500D01*
X147337498Y-94224500D01*
X147337480Y-94224501D01*
X147234703Y-94235000D01*
X147234700Y-94235001D01*
X147068168Y-94290185D01*
X147068163Y-94290187D01*
X146918842Y-94382289D01*
X146794789Y-94506342D01*
X146702687Y-94655663D01*
X146702686Y-94655666D01*
X146647502Y-94822202D01*
X146647501Y-94822204D01*
X146647500Y-94822205D01*
X146643323Y-94863102D01*
X146616927Y-94927793D01*
X146559747Y-94967945D01*
X146519965Y-94974500D01*
X146260452Y-94974500D01*
X146193413Y-94954815D01*
X146172771Y-94938181D01*
X145386819Y-94152229D01*
X145353334Y-94090906D01*
X145350500Y-94064548D01*
X145350500Y-93621813D01*
X145350499Y-93621798D01*
X145350177Y-93617712D01*
X145347598Y-93584931D01*
X145330999Y-93527799D01*
X145301745Y-93427106D01*
X145301744Y-93427103D01*
X145301744Y-93427102D01*
X145218081Y-93285635D01*
X145218079Y-93285633D01*
X145218076Y-93285629D01*
X145101870Y-93169423D01*
X145101867Y-93169421D01*
X145101865Y-93169419D01*
X145101549Y-93169232D01*
X145101353Y-93169022D01*
X145095702Y-93164639D01*
X145096409Y-93163727D01*
X145053866Y-93118164D01*
X145041362Y-93049423D01*
X145068006Y-92984833D01*
X145095921Y-92960644D01*
X145095702Y-92960361D01*
X145100911Y-92956320D01*
X145101550Y-92955767D01*
X145101865Y-92955581D01*
X145218081Y-92839365D01*
X145301744Y-92697898D01*
X145345643Y-92546798D01*
X145347597Y-92540073D01*
X145347598Y-92540067D01*
X145350500Y-92503194D01*
X145350500Y-91346806D01*
X145347598Y-91309931D01*
X145346555Y-91306342D01*
X145301745Y-91152106D01*
X145301744Y-91152103D01*
X145301744Y-91152102D01*
X145218081Y-91010635D01*
X145218079Y-91010633D01*
X145218076Y-91010629D01*
X145101870Y-90894423D01*
X145101862Y-90894417D01*
X144972160Y-90817712D01*
X144960398Y-90810756D01*
X144960397Y-90810755D01*
X144960396Y-90810755D01*
X144960393Y-90810754D01*
X144802573Y-90764902D01*
X144802567Y-90764901D01*
X144765701Y-90762000D01*
X144765694Y-90762000D01*
X144334306Y-90762000D01*
X144334298Y-90762000D01*
X144297432Y-90764901D01*
X144297426Y-90764902D01*
X144139606Y-90810754D01*
X144139603Y-90810755D01*
X143998137Y-90894417D01*
X143998129Y-90894423D01*
X143881923Y-91010629D01*
X143881917Y-91010637D01*
X143798255Y-91152103D01*
X143798254Y-91152106D01*
X143752402Y-91309926D01*
X143752401Y-91309932D01*
X143749500Y-91346798D01*
X143749500Y-92350500D01*
X143729815Y-92417539D01*
X143677011Y-92463294D01*
X143625500Y-92474500D01*
X143574500Y-92474500D01*
X143507461Y-92454815D01*
X143461706Y-92402011D01*
X143450500Y-92350500D01*
X143450500Y-91346813D01*
X143450499Y-91346798D01*
X143447598Y-91309932D01*
X143447597Y-91309926D01*
X143405424Y-91164765D01*
X143400500Y-91130170D01*
X143400500Y-89737230D01*
X143420185Y-89670191D01*
X143436819Y-89649549D01*
X143461388Y-89624980D01*
X143517712Y-89568656D01*
X143609814Y-89419334D01*
X143664999Y-89252797D01*
X143675500Y-89150009D01*
X143675499Y-87649992D01*
X143664999Y-87547203D01*
X143609814Y-87380666D01*
X143517712Y-87231344D01*
X143436819Y-87150451D01*
X143403334Y-87089128D01*
X143400500Y-87062770D01*
X143400500Y-86512230D01*
X143420185Y-86445191D01*
X143436819Y-86424549D01*
X143486385Y-86374983D01*
X143542712Y-86318656D01*
X143634814Y-86169334D01*
X143689999Y-86002797D01*
X143700500Y-85900009D01*
X143700499Y-84499992D01*
X143700417Y-84499194D01*
X143689999Y-84397203D01*
X143689998Y-84397200D01*
X143679390Y-84365187D01*
X143634814Y-84230666D01*
X143542712Y-84081344D01*
X143418656Y-83957288D01*
X143325746Y-83899981D01*
X143269336Y-83865187D01*
X143269331Y-83865185D01*
X143238118Y-83854842D01*
X143102797Y-83810001D01*
X143102795Y-83810000D01*
X143000010Y-83799500D01*
X142249998Y-83799500D01*
X142249980Y-83799501D01*
X142147203Y-83810000D01*
X142147200Y-83810001D01*
X141980668Y-83865185D01*
X141980663Y-83865187D01*
X141831342Y-83957289D01*
X141707287Y-84081344D01*
X141648739Y-84176267D01*
X141622949Y-84218081D01*
X141614921Y-84231096D01*
X141562973Y-84277821D01*
X141509382Y-84290000D01*
X140790032Y-84290000D01*
X140722993Y-84270315D01*
X140684494Y-84231097D01*
X140592319Y-84081659D01*
X140592316Y-84081655D01*
X140468345Y-83957684D01*
X140319124Y-83865643D01*
X140319119Y-83865641D01*
X140152697Y-83810494D01*
X140152690Y-83810493D01*
X140049986Y-83800000D01*
X139925000Y-83800000D01*
X139925000Y-86599999D01*
X140049972Y-86599999D01*
X140049986Y-86599998D01*
X140152697Y-86589505D01*
X140319119Y-86534358D01*
X140319124Y-86534356D01*
X140468345Y-86442315D01*
X140592316Y-86318344D01*
X140592319Y-86318340D01*
X140684494Y-86168903D01*
X140736441Y-86122178D01*
X140790032Y-86110000D01*
X141509382Y-86110000D01*
X141576421Y-86129685D01*
X141614921Y-86168904D01*
X141615185Y-86169333D01*
X141615186Y-86169334D01*
X141648925Y-86224034D01*
X141707095Y-86318344D01*
X141707288Y-86318656D01*
X141831344Y-86442712D01*
X141840591Y-86448416D01*
X141887318Y-86500360D01*
X141899500Y-86553957D01*
X141899500Y-87062770D01*
X141879815Y-87129809D01*
X141863181Y-87150451D01*
X141782289Y-87231342D01*
X141690187Y-87380663D01*
X141690185Y-87380668D01*
X141672350Y-87434492D01*
X141635001Y-87547203D01*
X141635001Y-87547204D01*
X141635000Y-87547204D01*
X141624500Y-87649983D01*
X141624500Y-89150001D01*
X141624501Y-89150018D01*
X141635000Y-89252796D01*
X141635001Y-89252799D01*
X141690185Y-89419331D01*
X141690187Y-89419336D01*
X141693989Y-89425500D01*
X141753636Y-89522204D01*
X141782289Y-89568657D01*
X141863181Y-89649549D01*
X141896666Y-89710872D01*
X141899500Y-89737230D01*
X141899500Y-91130170D01*
X141894576Y-91164765D01*
X141852402Y-91309926D01*
X141852401Y-91309932D01*
X141849500Y-91346798D01*
X141849500Y-92350500D01*
X141829815Y-92417539D01*
X141777011Y-92463294D01*
X141725500Y-92474500D01*
X139210453Y-92474500D01*
X139143414Y-92454815D01*
X139122772Y-92438181D01*
X137792928Y-91108338D01*
X137792925Y-91108334D01*
X137792925Y-91108335D01*
X137785858Y-91101268D01*
X137785858Y-91101267D01*
X137698733Y-91014142D01*
X137698732Y-91014141D01*
X137698731Y-91014140D01*
X137640900Y-90975499D01*
X137640899Y-90975498D01*
X137596290Y-90945690D01*
X137596286Y-90945688D01*
X137573454Y-90936231D01*
X137509677Y-90909814D01*
X137509675Y-90909812D01*
X137482455Y-90898538D01*
X137482453Y-90898537D01*
X137482452Y-90898537D01*
X137422029Y-90886518D01*
X137361610Y-90874500D01*
X137361607Y-90874500D01*
X137361606Y-90874500D01*
X133859798Y-90874500D01*
X133792759Y-90854815D01*
X133754259Y-90815597D01*
X133751273Y-90810756D01*
X133717712Y-90756344D01*
X133593656Y-90632288D01*
X133471755Y-90557099D01*
X133444336Y-90540187D01*
X133444331Y-90540185D01*
X133424009Y-90533451D01*
X133277797Y-90485001D01*
X133277795Y-90485000D01*
X133175010Y-90474500D01*
X131824998Y-90474500D01*
X131824981Y-90474501D01*
X131722203Y-90485000D01*
X131722200Y-90485001D01*
X131555668Y-90540185D01*
X131555663Y-90540187D01*
X131406342Y-90632289D01*
X131282289Y-90756342D01*
X131282288Y-90756344D01*
X131248728Y-90810755D01*
X131245741Y-90815597D01*
X131193793Y-90862321D01*
X131140202Y-90874500D01*
X124603341Y-90874500D01*
X124536302Y-90854815D01*
X124490547Y-90802011D01*
X124480603Y-90732853D01*
X124497802Y-90685404D01*
X124561615Y-90581946D01*
X124584814Y-90544334D01*
X124639999Y-90377797D01*
X124650500Y-90275009D01*
X124650499Y-89624992D01*
X124645087Y-89572016D01*
X124639999Y-89522203D01*
X124639998Y-89522200D01*
X124611041Y-89434814D01*
X124584814Y-89355666D01*
X124492712Y-89206344D01*
X124368656Y-89082288D01*
X124235213Y-88999980D01*
X124219336Y-88990187D01*
X124219331Y-88990185D01*
X124217862Y-88989698D01*
X124052797Y-88935001D01*
X124052795Y-88935000D01*
X123950016Y-88924500D01*
X123950009Y-88924500D01*
X123949500Y-88924500D01*
X123949394Y-88924468D01*
X123946861Y-88924340D01*
X123946869Y-88924179D01*
X123946868Y-88924179D01*
X123946870Y-88924155D01*
X123946891Y-88923734D01*
X123882461Y-88904815D01*
X123836706Y-88852011D01*
X123825500Y-88800500D01*
X123825500Y-88538393D01*
X123825499Y-88538389D01*
X123822489Y-88523255D01*
X123801463Y-88417548D01*
X123779774Y-88365186D01*
X123754312Y-88303714D01*
X123720084Y-88252490D01*
X123685858Y-88201267D01*
X123685856Y-88201264D01*
X123595637Y-88111045D01*
X123595606Y-88111016D01*
X121840198Y-86355608D01*
X121840178Y-86355586D01*
X121748733Y-86264141D01*
X121688709Y-86224035D01*
X121655349Y-86201744D01*
X121646285Y-86195687D01*
X121606039Y-86179017D01*
X121565792Y-86162347D01*
X121532452Y-86148537D01*
X121532448Y-86148536D01*
X121532444Y-86148535D01*
X121431294Y-86128415D01*
X121431293Y-86128415D01*
X121411611Y-86124500D01*
X121411607Y-86124500D01*
X121411606Y-86124500D01*
X121115638Y-86124500D01*
X121048599Y-86104815D01*
X121010099Y-86065597D01*
X120942712Y-85956344D01*
X120818656Y-85832288D01*
X120669334Y-85740186D01*
X120502797Y-85685001D01*
X120502794Y-85685000D01*
X120436897Y-85678268D01*
X120372205Y-85651871D01*
X120332054Y-85594690D01*
X120325500Y-85554910D01*
X120325500Y-84988394D01*
X120322156Y-84971586D01*
X120322155Y-84971581D01*
X120301463Y-84867548D01*
X120254311Y-84753714D01*
X120185857Y-84651266D01*
X120185855Y-84651263D01*
X120185854Y-84651262D01*
X119717928Y-84183338D01*
X119717925Y-84183334D01*
X119717925Y-84183335D01*
X119710858Y-84176268D01*
X119710858Y-84176267D01*
X119623733Y-84089142D01*
X119623732Y-84089141D01*
X119623731Y-84089140D01*
X119572509Y-84054915D01*
X119521287Y-84020689D01*
X119521286Y-84020688D01*
X119521283Y-84020686D01*
X119521280Y-84020685D01*
X119440792Y-83987347D01*
X119407452Y-83973537D01*
X119407453Y-83973537D01*
X119394314Y-83970923D01*
X119341396Y-83960398D01*
X119314001Y-83954949D01*
X119286608Y-83949500D01*
X119286607Y-83949500D01*
X119286606Y-83949500D01*
X118305035Y-83949500D01*
X118237996Y-83929815D01*
X118192241Y-83877011D01*
X118181677Y-83838102D01*
X118181045Y-83831919D01*
X118177499Y-83797203D01*
X118122314Y-83630666D01*
X118030212Y-83481344D01*
X117906156Y-83357288D01*
X117906155Y-83357287D01*
X117888849Y-83346613D01*
X117842124Y-83294665D01*
X117839384Y-83288526D01*
X117790087Y-83169511D01*
X117790080Y-83169498D01*
X117707952Y-83046585D01*
X117659496Y-82998129D01*
X117603416Y-82942049D01*
X117461817Y-82800449D01*
X117428334Y-82739128D01*
X117425500Y-82712770D01*
X117425500Y-82494828D01*
X117430424Y-82460233D01*
X117472597Y-82315073D01*
X117472598Y-82315067D01*
X117475500Y-82278194D01*
X117475500Y-81121806D01*
X117472598Y-81084931D01*
X117426744Y-80927102D01*
X117343081Y-80785635D01*
X117343079Y-80785633D01*
X117343076Y-80785629D01*
X117226870Y-80669423D01*
X117226862Y-80669417D01*
X117085396Y-80585755D01*
X117085393Y-80585754D01*
X116927573Y-80539902D01*
X116927567Y-80539901D01*
X116890701Y-80537000D01*
X116890694Y-80537000D01*
X116492895Y-80537000D01*
X116425856Y-80517315D01*
X116380101Y-80464511D01*
X116370157Y-80395353D01*
X116390671Y-80347004D01*
X116389110Y-80346081D01*
X116453986Y-80236380D01*
X116505054Y-80188696D01*
X116560718Y-80175500D01*
X117812770Y-80175500D01*
X117879809Y-80195185D01*
X117900451Y-80211819D01*
X122050681Y-84362049D01*
X122084166Y-84423372D01*
X122087000Y-84449730D01*
X122087000Y-84715701D01*
X122089901Y-84752567D01*
X122089902Y-84752573D01*
X122135754Y-84910393D01*
X122135755Y-84910396D01*
X122135756Y-84910398D01*
X122171939Y-84971581D01*
X122219417Y-85051862D01*
X122219423Y-85051870D01*
X122335629Y-85168076D01*
X122335633Y-85168079D01*
X122335635Y-85168081D01*
X122477102Y-85251744D01*
X122518724Y-85263836D01*
X122634926Y-85297597D01*
X122634929Y-85297597D01*
X122634931Y-85297598D01*
X122671806Y-85300500D01*
X122671814Y-85300500D01*
X123828186Y-85300500D01*
X123828194Y-85300500D01*
X123865069Y-85297598D01*
X123865071Y-85297597D01*
X123865073Y-85297597D01*
X123906691Y-85285505D01*
X124022898Y-85251744D01*
X124147548Y-85178026D01*
X124171080Y-85164110D01*
X124172155Y-85165928D01*
X124227032Y-85144381D01*
X124295550Y-85158059D01*
X124345796Y-85206609D01*
X124362000Y-85267895D01*
X124362000Y-85665701D01*
X124364901Y-85702567D01*
X124364902Y-85702573D01*
X124410754Y-85860393D01*
X124410755Y-85860396D01*
X124494417Y-86001862D01*
X124494423Y-86001870D01*
X124610629Y-86118076D01*
X124610633Y-86118079D01*
X124610635Y-86118081D01*
X124752102Y-86201744D01*
X124764769Y-86205424D01*
X124909926Y-86247597D01*
X124909929Y-86247597D01*
X124909931Y-86247598D01*
X124946806Y-86250500D01*
X124946814Y-86250500D01*
X126103186Y-86250500D01*
X126103194Y-86250500D01*
X126140069Y-86247598D01*
X126140071Y-86247597D01*
X126140073Y-86247597D01*
X126285233Y-86205424D01*
X126319828Y-86200500D01*
X126373920Y-86200500D01*
X126471462Y-86181096D01*
X126518913Y-86171658D01*
X126655495Y-86115084D01*
X126730893Y-86064705D01*
X126778416Y-86032952D01*
X128074548Y-84736818D01*
X128135871Y-84703334D01*
X128162229Y-84700500D01*
X128636690Y-84700500D01*
X128703729Y-84720185D01*
X128749484Y-84772989D01*
X128759428Y-84842147D01*
X128738265Y-84895623D01*
X128638977Y-85037421D01*
X128548725Y-85230968D01*
X128548721Y-85230977D01*
X128493452Y-85437247D01*
X128493450Y-85437258D01*
X128474838Y-85649998D01*
X128474838Y-85650001D01*
X128493450Y-85862741D01*
X128493452Y-85862752D01*
X128548721Y-86069022D01*
X128548723Y-86069026D01*
X128548724Y-86069030D01*
X128591171Y-86160058D01*
X128638977Y-86262578D01*
X128761472Y-86437521D01*
X128912478Y-86588527D01*
X128928862Y-86599999D01*
X129087419Y-86711021D01*
X129087421Y-86711022D01*
X129087420Y-86711022D01*
X129151936Y-86741106D01*
X129280970Y-86801276D01*
X129487253Y-86856549D01*
X129640813Y-86869983D01*
X129705881Y-86895435D01*
X129717686Y-86905830D01*
X131891897Y-89080042D01*
X131891901Y-89080045D01*
X132035288Y-89175854D01*
X132035301Y-89175861D01*
X132161983Y-89228334D01*
X132194626Y-89241855D01*
X132363766Y-89275499D01*
X132363769Y-89275500D01*
X132363771Y-89275500D01*
X132536229Y-89275500D01*
X138402983Y-89275500D01*
X138470022Y-89295185D01*
X138515777Y-89347989D01*
X138520686Y-89360489D01*
X138538750Y-89414999D01*
X138540186Y-89419333D01*
X138540187Y-89419336D01*
X138543989Y-89425500D01*
X138632288Y-89568656D01*
X138756344Y-89692712D01*
X138905666Y-89784814D01*
X139072203Y-89839999D01*
X139174991Y-89850500D01*
X139825008Y-89850499D01*
X139825016Y-89850498D01*
X139825019Y-89850498D01*
X139881302Y-89844748D01*
X139927797Y-89839999D01*
X140094334Y-89784814D01*
X140243656Y-89692712D01*
X140367712Y-89568656D01*
X140459814Y-89419334D01*
X140514999Y-89252797D01*
X140525500Y-89150009D01*
X140525499Y-87649992D01*
X140514999Y-87547203D01*
X140459814Y-87380666D01*
X140367712Y-87231344D01*
X140243656Y-87107288D01*
X140094334Y-87015186D01*
X139927797Y-86960001D01*
X139927795Y-86960000D01*
X139825010Y-86949500D01*
X139174998Y-86949500D01*
X139174980Y-86949501D01*
X139072203Y-86960000D01*
X139072200Y-86960001D01*
X138905668Y-87015185D01*
X138905663Y-87015187D01*
X138756342Y-87107289D01*
X138632289Y-87231342D01*
X138540187Y-87380663D01*
X138540186Y-87380666D01*
X138522268Y-87434741D01*
X138520689Y-87439505D01*
X138480916Y-87496949D01*
X138416400Y-87523772D01*
X138402983Y-87524500D01*
X132864006Y-87524500D01*
X132796967Y-87504815D01*
X132776325Y-87488181D01*
X132357508Y-87069364D01*
X132324023Y-87008041D01*
X132329007Y-86938349D01*
X132370879Y-86882416D01*
X132434383Y-86858155D01*
X132452747Y-86856549D01*
X132659030Y-86801276D01*
X132852581Y-86711021D01*
X133027519Y-86588529D01*
X133178529Y-86437519D01*
X133301021Y-86262581D01*
X133391276Y-86069030D01*
X133391280Y-86069013D01*
X133393130Y-86063936D01*
X133394981Y-86064609D01*
X133426847Y-86012328D01*
X133489694Y-85981797D01*
X133559069Y-85990091D01*
X133612948Y-86034575D01*
X133626430Y-86064095D01*
X133627342Y-86063764D01*
X133629197Y-86068859D01*
X133719413Y-86262329D01*
X133758415Y-86318030D01*
X134380000Y-85696445D01*
X134380000Y-85702661D01*
X134407259Y-85804394D01*
X134459920Y-85895606D01*
X134534394Y-85970080D01*
X134625606Y-86022741D01*
X134727339Y-86050000D01*
X134733553Y-86050000D01*
X134111968Y-86671584D01*
X134167663Y-86710582D01*
X134167669Y-86710586D01*
X134361140Y-86800802D01*
X134361146Y-86800805D01*
X134567337Y-86856054D01*
X134567345Y-86856055D01*
X134779998Y-86874660D01*
X134780002Y-86874660D01*
X134992654Y-86856055D01*
X134992662Y-86856054D01*
X135198853Y-86800805D01*
X135198864Y-86800801D01*
X135392325Y-86710589D01*
X135448030Y-86671583D01*
X134826448Y-86050000D01*
X134832661Y-86050000D01*
X134934394Y-86022741D01*
X135025606Y-85970080D01*
X135100080Y-85895606D01*
X135152741Y-85804394D01*
X135180000Y-85702661D01*
X135180000Y-85696446D01*
X135801583Y-86318029D01*
X135840589Y-86262325D01*
X135930801Y-86068864D01*
X135930805Y-86068853D01*
X135976053Y-85899986D01*
X138600001Y-85899986D01*
X138610494Y-86002697D01*
X138665641Y-86169119D01*
X138665643Y-86169124D01*
X138757684Y-86318345D01*
X138881654Y-86442315D01*
X139030875Y-86534356D01*
X139030880Y-86534358D01*
X139197302Y-86589505D01*
X139197309Y-86589506D01*
X139300019Y-86599999D01*
X139424999Y-86599999D01*
X139425000Y-86599998D01*
X139425000Y-85450000D01*
X138600001Y-85450000D01*
X138600001Y-85899986D01*
X135976053Y-85899986D01*
X135986054Y-85862662D01*
X135986055Y-85862654D01*
X136004660Y-85650002D01*
X136004660Y-85649997D01*
X135986055Y-85437345D01*
X135986054Y-85437337D01*
X135930805Y-85231146D01*
X135930802Y-85231140D01*
X135840586Y-85037669D01*
X135840582Y-85037663D01*
X135801584Y-84981968D01*
X135180000Y-85603552D01*
X135180000Y-85597339D01*
X135152741Y-85495606D01*
X135100080Y-85404394D01*
X135025606Y-85329920D01*
X134934394Y-85277259D01*
X134832661Y-85250000D01*
X134826447Y-85250000D01*
X135448030Y-84628415D01*
X135392329Y-84589413D01*
X135200609Y-84500013D01*
X138600000Y-84500013D01*
X138600000Y-84950000D01*
X139425000Y-84950000D01*
X139425000Y-83800000D01*
X139300027Y-83800000D01*
X139300012Y-83800001D01*
X139197302Y-83810494D01*
X139030880Y-83865641D01*
X139030875Y-83865643D01*
X138881654Y-83957684D01*
X138757684Y-84081654D01*
X138665643Y-84230875D01*
X138665641Y-84230880D01*
X138610494Y-84397302D01*
X138610493Y-84397309D01*
X138600000Y-84500013D01*
X135200609Y-84500013D01*
X135198859Y-84499197D01*
X135198853Y-84499194D01*
X134992662Y-84443945D01*
X134992654Y-84443944D01*
X134780002Y-84425340D01*
X134779998Y-84425340D01*
X134567345Y-84443944D01*
X134567337Y-84443945D01*
X134361146Y-84499194D01*
X134361140Y-84499197D01*
X134167671Y-84589412D01*
X134167669Y-84589413D01*
X134111969Y-84628415D01*
X134111968Y-84628415D01*
X134733554Y-85250000D01*
X134727339Y-85250000D01*
X134625606Y-85277259D01*
X134534394Y-85329920D01*
X134459920Y-85404394D01*
X134407259Y-85495606D01*
X134380000Y-85597339D01*
X134380000Y-85603553D01*
X133758415Y-84981968D01*
X133758415Y-84981969D01*
X133719413Y-85037669D01*
X133719412Y-85037671D01*
X133629197Y-85231140D01*
X133627342Y-85236236D01*
X133625445Y-85235545D01*
X133593656Y-85287684D01*
X133530805Y-85318205D01*
X133461431Y-85309901D01*
X133407559Y-85265408D01*
X133394012Y-85235742D01*
X133393130Y-85236064D01*
X133391279Y-85230983D01*
X133391276Y-85230970D01*
X133301021Y-85037419D01*
X133178529Y-84862481D01*
X133178527Y-84862478D01*
X133027521Y-84711472D01*
X132852578Y-84588977D01*
X132852579Y-84588977D01*
X132723547Y-84528809D01*
X132659030Y-84498724D01*
X132659026Y-84498723D01*
X132659022Y-84498721D01*
X132452752Y-84443452D01*
X132452748Y-84443451D01*
X132452747Y-84443451D01*
X132452746Y-84443450D01*
X132452741Y-84443450D01*
X132240002Y-84424838D01*
X132239997Y-84424838D01*
X132146983Y-84432975D01*
X132078484Y-84419208D01*
X132048496Y-84397128D01*
X131018421Y-83367052D01*
X131018414Y-83367046D01*
X130944729Y-83317812D01*
X130944729Y-83317813D01*
X130895491Y-83284913D01*
X130758917Y-83228343D01*
X130758907Y-83228340D01*
X130613920Y-83199500D01*
X130613918Y-83199500D01*
X128048729Y-83199500D01*
X127981690Y-83179815D01*
X127935935Y-83127011D01*
X127925991Y-83057853D01*
X127955016Y-82994297D01*
X127961048Y-82987819D01*
X128285474Y-82663393D01*
X128537048Y-82411817D01*
X128598371Y-82378333D01*
X128624729Y-82375499D01*
X129250002Y-82375499D01*
X129250008Y-82375499D01*
X129352797Y-82364999D01*
X129519334Y-82309814D01*
X129668656Y-82217712D01*
X129792712Y-82093656D01*
X129884814Y-81944334D01*
X129939999Y-81777797D01*
X129950500Y-81675009D01*
X129950499Y-80324992D01*
X129939999Y-80222203D01*
X129884814Y-80055666D01*
X129792712Y-79906344D01*
X129668656Y-79782288D01*
X129549078Y-79708532D01*
X129519336Y-79690187D01*
X129519331Y-79690185D01*
X129517862Y-79689698D01*
X129352797Y-79635001D01*
X129352795Y-79635000D01*
X129250010Y-79624500D01*
X128524998Y-79624500D01*
X128524980Y-79624501D01*
X128422203Y-79635000D01*
X128422200Y-79635001D01*
X128255668Y-79690185D01*
X128255663Y-79690187D01*
X128106342Y-79782289D01*
X127982289Y-79906342D01*
X127890187Y-80055663D01*
X127890186Y-80055666D01*
X127835001Y-80222203D01*
X127835001Y-80222204D01*
X127835000Y-80222204D01*
X127824500Y-80324983D01*
X127824500Y-80950270D01*
X127804815Y-81017309D01*
X127788181Y-81037951D01*
X126112951Y-82713181D01*
X126051628Y-82746666D01*
X126025270Y-82749500D01*
X124946798Y-82749500D01*
X124909932Y-82752401D01*
X124909926Y-82752402D01*
X124752106Y-82798254D01*
X124752103Y-82798255D01*
X124610637Y-82881917D01*
X124610629Y-82881923D01*
X124494423Y-82998129D01*
X124494417Y-82998137D01*
X124410755Y-83139603D01*
X124410754Y-83139606D01*
X124364902Y-83297426D01*
X124364901Y-83297432D01*
X124362000Y-83334298D01*
X124362000Y-83732104D01*
X124342315Y-83799143D01*
X124289511Y-83844898D01*
X124220353Y-83854842D01*
X124172002Y-83834330D01*
X124171080Y-83835890D01*
X124022896Y-83748255D01*
X124022893Y-83748254D01*
X123865073Y-83702402D01*
X123865067Y-83702401D01*
X123828201Y-83699500D01*
X123828194Y-83699500D01*
X123562230Y-83699500D01*
X123495191Y-83679815D01*
X123474549Y-83663181D01*
X118961355Y-79149986D01*
X121675001Y-79149986D01*
X121685494Y-79252697D01*
X121740641Y-79419119D01*
X121740643Y-79419124D01*
X121832684Y-79568345D01*
X121956654Y-79692315D01*
X122105875Y-79784356D01*
X122105880Y-79784358D01*
X122272302Y-79839505D01*
X122272309Y-79839506D01*
X122375019Y-79849999D01*
X122499999Y-79849999D01*
X122500000Y-79849998D01*
X122500000Y-78700000D01*
X121675001Y-78700000D01*
X121675001Y-79149986D01*
X118961355Y-79149986D01*
X118653421Y-78842052D01*
X118653418Y-78842049D01*
X118574771Y-78789500D01*
X118530495Y-78759916D01*
X118530492Y-78759914D01*
X118530491Y-78759914D01*
X118393917Y-78703343D01*
X118393907Y-78703340D01*
X118248920Y-78674500D01*
X118248918Y-78674500D01*
X116560718Y-78674500D01*
X116493679Y-78654815D01*
X116453986Y-78613620D01*
X116393085Y-78510641D01*
X116393076Y-78510629D01*
X116276870Y-78394423D01*
X116276862Y-78394417D01*
X116135396Y-78310755D01*
X116135393Y-78310754D01*
X115977573Y-78264902D01*
X115977567Y-78264901D01*
X115940701Y-78262000D01*
X115940694Y-78262000D01*
X115509306Y-78262000D01*
X115509298Y-78262000D01*
X115472432Y-78264901D01*
X115472426Y-78264902D01*
X115314606Y-78310754D01*
X115314603Y-78310755D01*
X115173137Y-78394417D01*
X115173129Y-78394423D01*
X115056923Y-78510629D01*
X115056917Y-78510637D01*
X114973255Y-78652103D01*
X114973254Y-78652106D01*
X114927402Y-78809926D01*
X114927401Y-78809932D01*
X114924500Y-78846798D01*
X114924500Y-80003201D01*
X114927401Y-80040067D01*
X114927402Y-80040073D01*
X114973254Y-80197893D01*
X114973255Y-80197896D01*
X114973256Y-80197898D01*
X114996014Y-80236380D01*
X115060890Y-80346080D01*
X115059071Y-80347155D01*
X115080619Y-80402032D01*
X115066941Y-80470550D01*
X115018391Y-80520796D01*
X114957105Y-80537000D01*
X114559298Y-80537000D01*
X114522432Y-80539901D01*
X114522426Y-80539902D01*
X114364606Y-80585754D01*
X114364603Y-80585755D01*
X114223137Y-80669417D01*
X114223129Y-80669423D01*
X114106923Y-80785629D01*
X114106917Y-80785637D01*
X114023255Y-80927103D01*
X114023254Y-80927106D01*
X113977402Y-81084926D01*
X113977401Y-81084932D01*
X113974500Y-81121798D01*
X113974500Y-82278201D01*
X113977401Y-82315067D01*
X113977402Y-82315073D01*
X114023253Y-82472890D01*
X114023255Y-82472894D01*
X114023255Y-82472896D01*
X114025806Y-82478789D01*
X114034367Y-82548132D01*
X114004080Y-82611096D01*
X113999687Y-82615721D01*
X113801270Y-82814139D01*
X113714144Y-82901264D01*
X113714138Y-82901272D01*
X113645690Y-83003708D01*
X113645688Y-83003713D01*
X113598540Y-83117538D01*
X113598535Y-83117554D01*
X113580152Y-83209971D01*
X113580153Y-83209972D01*
X113579857Y-83211462D01*
X113547487Y-83273381D01*
X113523331Y-83292839D01*
X113418847Y-83357285D01*
X113418843Y-83357288D01*
X113294789Y-83481342D01*
X113202687Y-83630663D01*
X113202685Y-83630668D01*
X113179877Y-83699500D01*
X113147501Y-83797203D01*
X113147501Y-83797204D01*
X113147500Y-83797204D01*
X113137000Y-83899983D01*
X113137000Y-85250001D01*
X113137001Y-85250018D01*
X113147500Y-85352796D01*
X113147501Y-85352799D01*
X113175515Y-85437337D01*
X113202686Y-85519334D01*
X113294201Y-85667705D01*
X113294789Y-85668657D01*
X113373181Y-85747049D01*
X113406666Y-85808372D01*
X113409500Y-85834730D01*
X113409500Y-86567670D01*
X113404576Y-86602265D01*
X113362402Y-86747426D01*
X113362401Y-86747432D01*
X113359500Y-86784298D01*
X113359500Y-87940701D01*
X113362401Y-87977567D01*
X113362402Y-87977573D01*
X113408254Y-88135393D01*
X113408255Y-88135396D01*
X113408256Y-88135398D01*
X113447209Y-88201264D01*
X113495890Y-88283580D01*
X113494071Y-88284655D01*
X113515619Y-88339532D01*
X113501941Y-88408050D01*
X113453391Y-88458296D01*
X113392105Y-88474500D01*
X112994298Y-88474500D01*
X112957432Y-88477401D01*
X112957426Y-88477402D01*
X112799606Y-88523254D01*
X112799603Y-88523255D01*
X112658137Y-88606917D01*
X112658129Y-88606923D01*
X112541923Y-88723129D01*
X112541917Y-88723137D01*
X112458255Y-88864603D01*
X112458254Y-88864606D01*
X112412402Y-89022426D01*
X112412401Y-89022432D01*
X112409500Y-89059298D01*
X112409500Y-90215701D01*
X112412401Y-90252567D01*
X112412402Y-90252573D01*
X112458254Y-90410393D01*
X112458255Y-90410396D01*
X112541917Y-90551863D01*
X112545979Y-90557099D01*
X112571514Y-90622136D01*
X112572000Y-90633100D01*
X112572000Y-91017072D01*
X112552315Y-91084111D01*
X112513098Y-91122609D01*
X112468695Y-91149998D01*
X112416342Y-91182289D01*
X112292289Y-91306342D01*
X112200187Y-91455663D01*
X112200186Y-91455666D01*
X112145001Y-91622203D01*
X112145001Y-91622204D01*
X112145000Y-91622204D01*
X112134500Y-91724983D01*
X112134500Y-93075001D01*
X112134501Y-93075019D01*
X112140925Y-93137899D01*
X112128155Y-93206592D01*
X112080274Y-93257476D01*
X112017567Y-93274500D01*
X108452013Y-93274500D01*
X108384974Y-93254815D01*
X108339219Y-93202011D01*
X108337454Y-93197957D01*
X108335779Y-93193915D01*
X108335777Y-93193911D01*
X108262909Y-93075001D01*
X108208261Y-92985825D01*
X108208261Y-92985823D01*
X108144610Y-92911298D01*
X108049759Y-92800241D01*
X107927063Y-92695449D01*
X107864176Y-92641738D01*
X107864173Y-92641737D01*
X107759710Y-92577721D01*
X107712835Y-92525909D01*
X107700500Y-92471994D01*
X107700500Y-90546869D01*
X107720185Y-90479830D01*
X107772989Y-90434075D01*
X107785486Y-90429166D01*
X107919334Y-90384814D01*
X108068656Y-90292712D01*
X108192712Y-90168656D01*
X108284814Y-90019334D01*
X108339999Y-89852797D01*
X108350500Y-89750009D01*
X108350499Y-88999992D01*
X108349497Y-88990187D01*
X108339999Y-88897203D01*
X108339998Y-88897200D01*
X108329196Y-88864602D01*
X108284814Y-88730666D01*
X108192712Y-88581344D01*
X108068656Y-88457288D01*
X107919334Y-88365186D01*
X107918903Y-88364920D01*
X107872179Y-88312972D01*
X107860000Y-88259381D01*
X107860000Y-87540031D01*
X107879685Y-87472992D01*
X107918903Y-87434492D01*
X108068345Y-87342315D01*
X108192315Y-87218345D01*
X108284356Y-87069124D01*
X108284358Y-87069119D01*
X108339505Y-86902697D01*
X108339506Y-86902690D01*
X108349999Y-86799986D01*
X108350000Y-86799973D01*
X108350000Y-86675000D01*
X105550001Y-86675000D01*
X105550001Y-86799986D01*
X105560494Y-86902697D01*
X105615641Y-87069119D01*
X105615643Y-87069124D01*
X105707684Y-87218345D01*
X105831654Y-87342315D01*
X105981097Y-87434492D01*
X106027821Y-87486440D01*
X106040000Y-87540031D01*
X106040000Y-88259381D01*
X106020315Y-88326420D01*
X105981097Y-88364920D01*
X105831342Y-88457289D01*
X105707289Y-88581342D01*
X105615187Y-88730663D01*
X105615186Y-88730666D01*
X105560001Y-88897203D01*
X105560001Y-88897204D01*
X105560000Y-88897204D01*
X105549500Y-88999983D01*
X105549500Y-89750001D01*
X105549501Y-89750019D01*
X105560000Y-89852796D01*
X105560001Y-89852799D01*
X105571500Y-89887500D01*
X105615186Y-90019334D01*
X105707288Y-90168656D01*
X105831344Y-90292712D01*
X105980666Y-90384814D01*
X106114505Y-90429164D01*
X106171949Y-90468936D01*
X106198772Y-90533451D01*
X106199500Y-90546869D01*
X106199500Y-92471994D01*
X106179815Y-92539033D01*
X106140290Y-92577721D01*
X106035826Y-92641737D01*
X106035823Y-92641738D01*
X105850241Y-92800241D01*
X105691738Y-92985823D01*
X105691737Y-92985826D01*
X105564222Y-93193910D01*
X105470830Y-93419380D01*
X105470828Y-93419387D01*
X105470828Y-93419388D01*
X105437626Y-93557683D01*
X105413853Y-93656702D01*
X105394706Y-93900000D01*
X100500500Y-93900000D01*
X100500500Y-86050013D01*
X105550000Y-86050013D01*
X105550000Y-86175000D01*
X106700000Y-86175000D01*
X107200000Y-86175000D01*
X108349999Y-86175000D01*
X108349999Y-86050028D01*
X108349998Y-86050013D01*
X108339505Y-85947302D01*
X108284358Y-85780880D01*
X108284356Y-85780875D01*
X108192315Y-85631654D01*
X108068345Y-85507684D01*
X107919124Y-85415643D01*
X107919119Y-85415641D01*
X107752697Y-85360494D01*
X107752690Y-85360493D01*
X107649986Y-85350000D01*
X107200000Y-85350000D01*
X107200000Y-86175000D01*
X106700000Y-86175000D01*
X106700000Y-85350000D01*
X106250028Y-85350000D01*
X106250012Y-85350001D01*
X106147302Y-85360494D01*
X105980880Y-85415641D01*
X105980875Y-85415643D01*
X105831654Y-85507684D01*
X105707684Y-85631654D01*
X105615643Y-85780875D01*
X105615641Y-85780880D01*
X105560494Y-85947302D01*
X105560493Y-85947309D01*
X105550000Y-86050013D01*
X100500500Y-86050013D01*
X100500500Y-76224986D01*
X118725001Y-76224986D01*
X118735494Y-76327697D01*
X118790641Y-76494119D01*
X118790643Y-76494124D01*
X118882684Y-76643345D01*
X119006654Y-76767315D01*
X119155875Y-76859356D01*
X119155880Y-76859358D01*
X119322302Y-76914505D01*
X119322309Y-76914506D01*
X119425019Y-76924999D01*
X119537499Y-76924999D01*
X119537500Y-76924998D01*
X119537500Y-75800000D01*
X118725001Y-75800000D01*
X118725001Y-76224986D01*
X100500500Y-76224986D01*
X100500500Y-75224986D01*
X110575001Y-75224986D01*
X110585494Y-75327697D01*
X110640641Y-75494119D01*
X110640643Y-75494124D01*
X110732684Y-75643345D01*
X110856654Y-75767315D01*
X111005875Y-75859356D01*
X111005880Y-75859358D01*
X111172302Y-75914505D01*
X111172309Y-75914506D01*
X111275019Y-75924999D01*
X111699999Y-75924999D01*
X111700000Y-75924998D01*
X111700000Y-75112500D01*
X110575001Y-75112500D01*
X110575001Y-75224986D01*
X100500500Y-75224986D01*
X100500500Y-66869995D01*
X101564953Y-66869995D01*
X101564953Y-66870004D01*
X101585113Y-67139026D01*
X101585113Y-67139028D01*
X101645142Y-67402033D01*
X101645148Y-67402052D01*
X101743709Y-67653181D01*
X101743708Y-67653181D01*
X101878602Y-67886822D01*
X101932294Y-67954151D01*
X101932295Y-67954151D01*
X102654153Y-67232293D01*
X102661049Y-67248942D01*
X102748599Y-67379970D01*
X102860030Y-67491401D01*
X102991058Y-67578951D01*
X103007705Y-67585846D01*
X102284848Y-68308702D01*
X102467483Y-68433220D01*
X102467485Y-68433221D01*
X102710539Y-68550269D01*
X102710537Y-68550269D01*
X102968337Y-68629790D01*
X102968343Y-68629792D01*
X103235101Y-68669999D01*
X103235110Y-68670000D01*
X103504890Y-68670000D01*
X103504898Y-68669999D01*
X103771656Y-68629792D01*
X103771662Y-68629790D01*
X104029458Y-68550270D01*
X104247927Y-68445061D01*
X104316869Y-68433709D01*
X104381003Y-68461431D01*
X104419969Y-68519426D01*
X104421394Y-68589281D01*
X104417158Y-68602081D01*
X104332583Y-68817578D01*
X104332578Y-68817590D01*
X104332576Y-68817597D01*
X104274197Y-69073374D01*
X104274196Y-69073379D01*
X104254592Y-69334995D01*
X104254592Y-69335004D01*
X104274196Y-69596620D01*
X104274197Y-69596625D01*
X104274197Y-69596629D01*
X104274198Y-69596630D01*
X104282233Y-69631834D01*
X104332142Y-69850500D01*
X104332580Y-69852416D01*
X104332582Y-69852421D01*
X104428432Y-70096643D01*
X104534256Y-70279937D01*
X104550729Y-70347837D01*
X104527876Y-70413864D01*
X104472955Y-70457055D01*
X104403402Y-70463696D01*
X104357017Y-70444390D01*
X104272526Y-70386784D01*
X104272516Y-70386778D01*
X104029460Y-70269730D01*
X104029462Y-70269730D01*
X103771662Y-70190209D01*
X103771656Y-70190207D01*
X103504898Y-70150000D01*
X103235101Y-70150000D01*
X102968343Y-70190207D01*
X102968337Y-70190209D01*
X102710538Y-70269730D01*
X102467485Y-70386778D01*
X102467476Y-70386783D01*
X102284848Y-70511296D01*
X103007705Y-71234153D01*
X102991058Y-71241049D01*
X102860030Y-71328599D01*
X102748599Y-71440030D01*
X102661049Y-71571058D01*
X102654153Y-71587706D01*
X101932295Y-70865848D01*
X101878600Y-70933180D01*
X101743709Y-71166818D01*
X101645148Y-71417947D01*
X101645142Y-71417966D01*
X101585113Y-71680971D01*
X101585113Y-71680973D01*
X101564953Y-71949995D01*
X101564953Y-71950004D01*
X101585113Y-72219026D01*
X101585113Y-72219028D01*
X101645142Y-72482033D01*
X101645148Y-72482052D01*
X101743709Y-72733181D01*
X101743708Y-72733181D01*
X101878602Y-72966822D01*
X101932294Y-73034151D01*
X102654152Y-72312293D01*
X102661049Y-72328942D01*
X102748599Y-72459970D01*
X102860030Y-72571401D01*
X102991058Y-72658951D01*
X103007705Y-72665846D01*
X102284848Y-73388702D01*
X102467483Y-73513220D01*
X102467485Y-73513221D01*
X102710539Y-73630269D01*
X102710537Y-73630269D01*
X102968337Y-73709790D01*
X102968343Y-73709792D01*
X103235101Y-73749999D01*
X103235110Y-73750000D01*
X103504890Y-73750000D01*
X103504898Y-73749999D01*
X103771656Y-73709792D01*
X103771662Y-73709790D01*
X104029461Y-73630269D01*
X104272521Y-73513218D01*
X104455150Y-73388702D01*
X103732294Y-72665846D01*
X103748942Y-72658951D01*
X103879970Y-72571401D01*
X103991401Y-72459970D01*
X104078951Y-72328942D01*
X104085846Y-72312294D01*
X104807703Y-73034151D01*
X104807704Y-73034150D01*
X104861393Y-72966828D01*
X104861400Y-72966817D01*
X104996290Y-72733181D01*
X105094851Y-72482052D01*
X105094857Y-72482033D01*
X105154886Y-72219028D01*
X105154886Y-72219026D01*
X105175047Y-71950004D01*
X105175047Y-71949995D01*
X105154886Y-71680973D01*
X105154886Y-71680971D01*
X105094857Y-71417966D01*
X105094851Y-71417947D01*
X104996290Y-71166818D01*
X104996291Y-71166818D01*
X104882961Y-70970527D01*
X104866488Y-70902627D01*
X104889340Y-70836600D01*
X104944261Y-70793410D01*
X105013815Y-70786768D01*
X105060197Y-70806071D01*
X105132296Y-70855228D01*
X105132301Y-70855230D01*
X105132302Y-70855231D01*
X105132303Y-70855232D01*
X105223621Y-70899208D01*
X105368673Y-70969061D01*
X105368674Y-70969061D01*
X105368677Y-70969063D01*
X105619385Y-71046396D01*
X105878818Y-71085500D01*
X106141182Y-71085500D01*
X106400615Y-71046396D01*
X106651323Y-70969063D01*
X106686056Y-70952336D01*
X106754994Y-70940985D01*
X106819128Y-70968706D01*
X106858094Y-71026701D01*
X106859520Y-71096556D01*
X106847243Y-71126056D01*
X106823708Y-71166820D01*
X106725148Y-71417947D01*
X106725142Y-71417966D01*
X106665113Y-71680971D01*
X106665113Y-71680973D01*
X106644953Y-71949995D01*
X106644953Y-71950004D01*
X106665113Y-72219026D01*
X106665113Y-72219028D01*
X106725142Y-72482033D01*
X106725148Y-72482052D01*
X106823709Y-72733181D01*
X106823708Y-72733181D01*
X106958602Y-72966822D01*
X107012294Y-73034151D01*
X107734152Y-72312293D01*
X107741049Y-72328942D01*
X107828599Y-72459970D01*
X107940030Y-72571401D01*
X108071058Y-72658951D01*
X108087705Y-72665846D01*
X107364848Y-73388702D01*
X107547483Y-73513220D01*
X107547485Y-73513221D01*
X107790539Y-73630269D01*
X107790537Y-73630269D01*
X108048337Y-73709790D01*
X108048343Y-73709792D01*
X108315101Y-73749999D01*
X108315110Y-73750000D01*
X108584890Y-73750000D01*
X108584898Y-73749999D01*
X108851656Y-73709792D01*
X108851662Y-73709790D01*
X109109461Y-73630269D01*
X109352521Y-73513218D01*
X109535150Y-73388702D01*
X108812294Y-72665846D01*
X108828942Y-72658951D01*
X108959970Y-72571401D01*
X109071401Y-72459970D01*
X109158951Y-72328942D01*
X109165846Y-72312294D01*
X109887703Y-73034151D01*
X109887704Y-73034150D01*
X109941393Y-72966828D01*
X109941400Y-72966817D01*
X110076290Y-72733181D01*
X110174851Y-72482052D01*
X110174857Y-72482033D01*
X110234886Y-72219028D01*
X110234886Y-72219026D01*
X110255047Y-71950004D01*
X110255047Y-71949995D01*
X110234886Y-71680973D01*
X110234886Y-71680971D01*
X110174857Y-71417966D01*
X110174851Y-71417947D01*
X110076290Y-71166818D01*
X110076291Y-71166818D01*
X109941397Y-70933177D01*
X109887704Y-70865847D01*
X109165846Y-71587705D01*
X109158951Y-71571058D01*
X109071401Y-71440030D01*
X108959970Y-71328599D01*
X108828942Y-71241049D01*
X108812293Y-71234153D01*
X109535150Y-70511296D01*
X109531379Y-70471077D01*
X109544718Y-70402493D01*
X109593020Y-70352008D01*
X109654837Y-70335500D01*
X110964710Y-70335500D01*
X111031749Y-70355185D01*
X111064544Y-70388592D01*
X111065307Y-70387989D01*
X111069788Y-70393656D01*
X111163181Y-70487049D01*
X111196666Y-70548372D01*
X111199500Y-70574730D01*
X111199500Y-70786414D01*
X111179815Y-70853453D01*
X111127011Y-70899208D01*
X111114505Y-70904120D01*
X111005666Y-70940186D01*
X111005663Y-70940187D01*
X110856342Y-71032289D01*
X110732289Y-71156342D01*
X110640187Y-71305663D01*
X110640185Y-71305668D01*
X110616103Y-71378343D01*
X110585001Y-71472203D01*
X110585001Y-71472204D01*
X110585000Y-71472204D01*
X110574500Y-71574983D01*
X110574500Y-72300001D01*
X110574501Y-72300019D01*
X110585000Y-72402796D01*
X110585001Y-72402799D01*
X110640185Y-72569331D01*
X110640187Y-72569336D01*
X110675069Y-72625888D01*
X110732288Y-72718656D01*
X110856344Y-72842712D01*
X110921611Y-72882969D01*
X110981096Y-72919659D01*
X111027821Y-72971607D01*
X111040000Y-73025198D01*
X111040000Y-73775388D01*
X111020315Y-73842427D01*
X110981097Y-73880926D01*
X110856659Y-73957680D01*
X110856655Y-73957683D01*
X110732684Y-74081654D01*
X110640643Y-74230875D01*
X110640641Y-74230880D01*
X110585494Y-74397302D01*
X110585493Y-74397309D01*
X110575000Y-74500013D01*
X110575000Y-74612500D01*
X112076000Y-74612500D01*
X112143039Y-74632185D01*
X112188794Y-74684989D01*
X112200000Y-74736500D01*
X112200000Y-75924999D01*
X112624972Y-75924999D01*
X112624986Y-75924998D01*
X112727697Y-75914505D01*
X112894119Y-75859358D01*
X112894124Y-75859356D01*
X113043345Y-75767315D01*
X113167315Y-75643345D01*
X113259356Y-75494124D01*
X113259359Y-75494117D01*
X113305222Y-75355711D01*
X113344994Y-75298266D01*
X113409510Y-75271442D01*
X113478286Y-75283757D01*
X113529486Y-75331299D01*
X113540634Y-75355709D01*
X113590642Y-75506621D01*
X113590643Y-75506624D01*
X113682684Y-75655845D01*
X113806654Y-75779815D01*
X113955875Y-75871856D01*
X113955880Y-75871858D01*
X114122302Y-75927005D01*
X114122309Y-75927006D01*
X114225019Y-75937499D01*
X114649999Y-75937499D01*
X115150000Y-75937499D01*
X115574972Y-75937499D01*
X115574986Y-75937498D01*
X115677697Y-75927005D01*
X115844119Y-75871858D01*
X115844124Y-75871856D01*
X115993345Y-75779815D01*
X116117315Y-75655845D01*
X116209356Y-75506624D01*
X116209358Y-75506619D01*
X116264505Y-75340197D01*
X116264506Y-75340190D01*
X116274999Y-75237486D01*
X116275000Y-75237473D01*
X116275000Y-75125000D01*
X115150000Y-75125000D01*
X115150000Y-75937499D01*
X114649999Y-75937499D01*
X114650000Y-75937498D01*
X114650000Y-74875013D01*
X118725000Y-74875013D01*
X118725000Y-75300000D01*
X119537500Y-75300000D01*
X119537500Y-74175000D01*
X119425027Y-74175000D01*
X119425012Y-74175001D01*
X119322302Y-74185494D01*
X119155880Y-74240641D01*
X119155875Y-74240643D01*
X119006654Y-74332684D01*
X118882684Y-74456654D01*
X118790643Y-74605875D01*
X118790641Y-74605880D01*
X118735494Y-74772302D01*
X118735493Y-74772309D01*
X118725000Y-74875013D01*
X114650000Y-74875013D01*
X114650000Y-74749000D01*
X114669685Y-74681961D01*
X114722489Y-74636206D01*
X114774000Y-74625000D01*
X116274999Y-74625000D01*
X116274999Y-74512528D01*
X116274998Y-74512513D01*
X116264505Y-74409802D01*
X116209358Y-74243380D01*
X116209356Y-74243375D01*
X116117315Y-74094154D01*
X115993344Y-73970183D01*
X115993340Y-73970180D01*
X115868903Y-73893426D01*
X115822178Y-73841478D01*
X115810000Y-73787888D01*
X115810000Y-73037698D01*
X115829685Y-72970659D01*
X115868904Y-72932159D01*
X115894118Y-72916607D01*
X115993656Y-72855212D01*
X116117712Y-72731156D01*
X116209814Y-72581834D01*
X116236700Y-72500697D01*
X116276471Y-72443253D01*
X116340987Y-72416430D01*
X116409763Y-72428745D01*
X116460963Y-72476288D01*
X116472111Y-72500698D01*
X116490641Y-72556619D01*
X116490643Y-72556624D01*
X116582684Y-72705845D01*
X116706654Y-72829815D01*
X116855875Y-72921856D01*
X116855880Y-72921858D01*
X117022302Y-72977005D01*
X117022309Y-72977006D01*
X117125019Y-72987499D01*
X117549999Y-72987499D01*
X118050000Y-72987499D01*
X118474972Y-72987499D01*
X118474986Y-72987498D01*
X118577697Y-72977005D01*
X118744119Y-72921858D01*
X118744124Y-72921856D01*
X118893345Y-72829815D01*
X119017315Y-72705845D01*
X119109356Y-72556624D01*
X119109358Y-72556619D01*
X119164505Y-72390197D01*
X119164506Y-72390190D01*
X119174999Y-72287486D01*
X119175000Y-72287473D01*
X119175000Y-72175000D01*
X118050000Y-72175000D01*
X118050000Y-72987499D01*
X117549999Y-72987499D01*
X117550000Y-72987498D01*
X117550000Y-71799000D01*
X117569685Y-71731961D01*
X117622489Y-71686206D01*
X117674000Y-71675000D01*
X119174999Y-71675000D01*
X119174999Y-71562528D01*
X119174998Y-71562513D01*
X119164505Y-71459802D01*
X119109358Y-71293380D01*
X119109356Y-71293375D01*
X119017315Y-71144154D01*
X118893344Y-71020183D01*
X118893340Y-71020180D01*
X118768903Y-70943426D01*
X118722178Y-70891478D01*
X118710000Y-70837888D01*
X118710000Y-70087698D01*
X118729685Y-70020659D01*
X118768904Y-69982159D01*
X118780496Y-69975009D01*
X118893656Y-69905212D01*
X119012049Y-69786819D01*
X119073372Y-69753334D01*
X119099730Y-69750500D01*
X119173920Y-69750500D01*
X119271462Y-69731096D01*
X119318913Y-69721658D01*
X119455495Y-69665084D01*
X119512739Y-69626835D01*
X119512739Y-69626834D01*
X119512741Y-69626834D01*
X119569542Y-69588881D01*
X119578416Y-69582952D01*
X119612818Y-69548550D01*
X119674140Y-69515064D01*
X119743832Y-69520048D01*
X119799766Y-69561918D01*
X119824184Y-69627382D01*
X119824500Y-69636230D01*
X119824500Y-69848918D01*
X119824500Y-69848920D01*
X119824499Y-69848920D01*
X119853340Y-69993907D01*
X119853343Y-69993917D01*
X119909912Y-70130488D01*
X119909916Y-70130495D01*
X119930999Y-70162048D01*
X119931000Y-70162051D01*
X119992046Y-70253414D01*
X119992047Y-70253415D01*
X119992048Y-70253416D01*
X120063182Y-70324550D01*
X120096666Y-70385871D01*
X120099500Y-70412230D01*
X120099500Y-71680170D01*
X120094576Y-71714765D01*
X120052402Y-71859926D01*
X120052401Y-71859932D01*
X120049500Y-71896798D01*
X120049500Y-73053201D01*
X120052401Y-73090067D01*
X120052402Y-73090073D01*
X120098254Y-73247893D01*
X120098255Y-73247896D01*
X120181917Y-73389362D01*
X120181923Y-73389370D01*
X120298129Y-73505576D01*
X120298133Y-73505579D01*
X120298135Y-73505581D01*
X120298137Y-73505582D01*
X120439600Y-73589243D01*
X120446764Y-73592343D01*
X120445544Y-73595160D01*
X120492388Y-73625053D01*
X120521617Y-73688515D01*
X120522936Y-73706556D01*
X120522936Y-74103322D01*
X120503251Y-74170361D01*
X120450447Y-74216116D01*
X120381289Y-74226060D01*
X120359933Y-74221028D01*
X120252700Y-74185495D01*
X120252690Y-74185493D01*
X120149986Y-74175000D01*
X120037500Y-74175000D01*
X120037500Y-76924999D01*
X120149972Y-76924999D01*
X120149986Y-76924998D01*
X120252697Y-76914505D01*
X120419119Y-76859358D01*
X120419124Y-76859356D01*
X120568345Y-76767315D01*
X120692315Y-76643345D01*
X120769072Y-76518903D01*
X120821020Y-76472179D01*
X120874611Y-76460000D01*
X121624802Y-76460000D01*
X121691841Y-76479685D01*
X121730340Y-76518903D01*
X121807288Y-76643656D01*
X121931344Y-76767712D01*
X122080666Y-76859814D01*
X122124078Y-76874199D01*
X122181523Y-76913972D01*
X122208346Y-76978488D01*
X122196031Y-77047264D01*
X122148488Y-77098463D01*
X122124080Y-77109610D01*
X122105884Y-77115639D01*
X122105875Y-77115643D01*
X121956654Y-77207684D01*
X121832684Y-77331654D01*
X121740643Y-77480875D01*
X121740641Y-77480880D01*
X121685494Y-77647302D01*
X121685493Y-77647309D01*
X121675000Y-77750013D01*
X121675000Y-78200000D01*
X122876000Y-78200000D01*
X122943039Y-78219685D01*
X122988794Y-78272489D01*
X123000000Y-78324000D01*
X123000000Y-79849999D01*
X123124972Y-79849999D01*
X123124986Y-79849998D01*
X123227697Y-79839505D01*
X123394119Y-79784358D01*
X123394124Y-79784356D01*
X123543345Y-79692315D01*
X123667316Y-79568344D01*
X123667319Y-79568340D01*
X123759494Y-79418903D01*
X123811441Y-79372178D01*
X123865032Y-79360000D01*
X124584382Y-79360000D01*
X124651421Y-79379685D01*
X124689921Y-79418904D01*
X124690185Y-79419333D01*
X124690186Y-79419334D01*
X124698005Y-79432011D01*
X124782248Y-79568592D01*
X124782288Y-79568656D01*
X124906344Y-79692712D01*
X125055666Y-79784814D01*
X125222203Y-79839999D01*
X125324991Y-79850500D01*
X126075008Y-79850499D01*
X126075016Y-79850498D01*
X126075019Y-79850498D01*
X126131302Y-79844748D01*
X126177797Y-79839999D01*
X126344334Y-79784814D01*
X126493656Y-79692712D01*
X126617712Y-79568656D01*
X126709814Y-79419334D01*
X126764999Y-79252797D01*
X126775500Y-79150009D01*
X126775500Y-78773920D01*
X129974499Y-78773920D01*
X130003340Y-78918907D01*
X130003343Y-78918917D01*
X130059912Y-79055488D01*
X130059920Y-79055502D01*
X130085568Y-79093886D01*
X130085569Y-79093889D01*
X130142046Y-79178414D01*
X130142052Y-79178421D01*
X130823724Y-79860092D01*
X130857209Y-79921415D01*
X130852225Y-79991106D01*
X130841583Y-80012867D01*
X130815187Y-80055663D01*
X130815186Y-80055665D01*
X130815186Y-80055666D01*
X130760001Y-80222203D01*
X130760001Y-80222204D01*
X130760000Y-80222204D01*
X130749500Y-80324983D01*
X130749500Y-81675001D01*
X130749501Y-81675018D01*
X130760000Y-81777796D01*
X130760001Y-81777799D01*
X130815185Y-81944331D01*
X130815186Y-81944334D01*
X130907288Y-82093656D01*
X131031344Y-82217712D01*
X131180666Y-82309814D01*
X131347203Y-82364999D01*
X131449991Y-82375500D01*
X132175008Y-82375499D01*
X132175016Y-82375498D01*
X132175019Y-82375498D01*
X132231302Y-82369748D01*
X132277797Y-82364999D01*
X132444334Y-82309814D01*
X132593656Y-82217712D01*
X132717712Y-82093656D01*
X132809814Y-81944334D01*
X132864999Y-81777797D01*
X132875500Y-81675009D01*
X132875499Y-80324992D01*
X132864999Y-80222203D01*
X132809814Y-80055666D01*
X132717712Y-79906344D01*
X132598530Y-79787162D01*
X132565045Y-79725839D01*
X132563551Y-79716349D01*
X132534159Y-79568592D01*
X132534158Y-79568591D01*
X132534158Y-79568587D01*
X132534056Y-79568340D01*
X132495388Y-79474986D01*
X137512501Y-79474986D01*
X137522994Y-79577697D01*
X137578141Y-79744119D01*
X137578143Y-79744124D01*
X137670184Y-79893345D01*
X137794154Y-80017315D01*
X137943375Y-80109356D01*
X137943380Y-80109358D01*
X138109802Y-80164505D01*
X138109809Y-80164506D01*
X138212519Y-80174999D01*
X138324999Y-80174999D01*
X138325000Y-80174998D01*
X138325000Y-79050000D01*
X137512501Y-79050000D01*
X137512501Y-79474986D01*
X132495388Y-79474986D01*
X132477587Y-79432011D01*
X132477580Y-79431998D01*
X132395452Y-79309085D01*
X132365060Y-79278693D01*
X132290916Y-79204549D01*
X131928415Y-78842048D01*
X131511819Y-78425451D01*
X131478334Y-78364128D01*
X131475500Y-78337770D01*
X131475500Y-78125013D01*
X137512500Y-78125013D01*
X137512500Y-78550000D01*
X138325000Y-78550000D01*
X138325000Y-77425000D01*
X138212527Y-77425000D01*
X138212512Y-77425001D01*
X138109802Y-77435494D01*
X137943380Y-77490641D01*
X137943375Y-77490643D01*
X137794154Y-77582684D01*
X137670184Y-77706654D01*
X137578143Y-77855875D01*
X137578141Y-77855880D01*
X137522994Y-78022302D01*
X137522993Y-78022309D01*
X137512500Y-78125013D01*
X131475500Y-78125013D01*
X131475500Y-74337229D01*
X131495185Y-74270190D01*
X131511819Y-74249548D01*
X132874548Y-72886819D01*
X132935871Y-72853334D01*
X132962229Y-72850500D01*
X134330864Y-72850500D01*
X134397903Y-72870185D01*
X134434672Y-72906677D01*
X134511836Y-73024785D01*
X134680256Y-73207738D01*
X134876491Y-73360474D01*
X134876493Y-73360475D01*
X135057355Y-73458353D01*
X135095190Y-73478828D01*
X135105682Y-73482430D01*
X135106524Y-73482719D01*
X135163539Y-73523106D01*
X135189668Y-73587906D01*
X135176615Y-73656546D01*
X135128526Y-73707233D01*
X135106524Y-73717281D01*
X135095191Y-73721171D01*
X135095188Y-73721172D01*
X134876493Y-73839524D01*
X134680257Y-73992261D01*
X134511833Y-74175217D01*
X134375826Y-74383393D01*
X134275936Y-74611118D01*
X134214892Y-74852175D01*
X134214890Y-74852187D01*
X134194357Y-75099994D01*
X134194357Y-75100005D01*
X134214890Y-75347812D01*
X134214892Y-75347824D01*
X134275936Y-75588881D01*
X134375826Y-75816606D01*
X134511833Y-76024782D01*
X134511836Y-76024785D01*
X134680256Y-76207738D01*
X134876491Y-76360474D01*
X134876493Y-76360475D01*
X135060500Y-76460055D01*
X135095190Y-76478828D01*
X135330386Y-76559571D01*
X135575665Y-76600500D01*
X135824332Y-76600500D01*
X135824335Y-76600500D01*
X135879662Y-76591267D01*
X135949024Y-76599648D01*
X135987751Y-76625895D01*
X136219955Y-76858099D01*
X136285975Y-76924119D01*
X136341902Y-76980046D01*
X136485288Y-77075854D01*
X136485301Y-77075861D01*
X136644621Y-77141853D01*
X136644626Y-77141855D01*
X136813766Y-77175499D01*
X136813769Y-77175500D01*
X136813771Y-77175500D01*
X141771970Y-77175500D01*
X141830444Y-77190153D01*
X141832314Y-77191153D01*
X141882149Y-77240125D01*
X141897597Y-77308266D01*
X141873752Y-77373941D01*
X141818186Y-77416299D01*
X141773840Y-77424500D01*
X141137498Y-77424500D01*
X141137480Y-77424501D01*
X141034703Y-77435000D01*
X141034700Y-77435001D01*
X140868168Y-77490185D01*
X140868163Y-77490187D01*
X140718842Y-77582289D01*
X140647451Y-77653681D01*
X140586128Y-77687166D01*
X140559770Y-77690000D01*
X139514523Y-77690000D01*
X139447484Y-77670315D01*
X139426842Y-77653681D01*
X139355845Y-77582684D01*
X139206624Y-77490643D01*
X139206619Y-77490641D01*
X139040197Y-77435494D01*
X139040190Y-77435493D01*
X138937486Y-77425000D01*
X138825000Y-77425000D01*
X138825000Y-80174999D01*
X138937472Y-80174999D01*
X138937486Y-80174998D01*
X139040197Y-80164505D01*
X139206619Y-80109358D01*
X139206624Y-80109356D01*
X139355845Y-80017315D01*
X139479815Y-79893345D01*
X139571856Y-79744124D01*
X139571858Y-79744119D01*
X139621273Y-79594996D01*
X139661046Y-79537551D01*
X139725561Y-79510728D01*
X139738979Y-79510000D01*
X140335495Y-79510000D01*
X140402534Y-79529685D01*
X140448289Y-79582489D01*
X140453195Y-79594982D01*
X140502686Y-79744334D01*
X140594788Y-79893656D01*
X140718844Y-80017712D01*
X140868166Y-80109814D01*
X141034703Y-80164999D01*
X141137491Y-80175500D01*
X141862508Y-80175499D01*
X141862516Y-80175498D01*
X141862519Y-80175498D01*
X141918802Y-80169748D01*
X141965297Y-80164999D01*
X142131834Y-80109814D01*
X142281156Y-80017712D01*
X142405212Y-79893656D01*
X142497314Y-79744334D01*
X142552499Y-79577797D01*
X142552499Y-79577793D01*
X142553412Y-79573533D01*
X142586699Y-79512102D01*
X142647914Y-79478419D01*
X142674663Y-79475500D01*
X142832113Y-79475500D01*
X142899152Y-79495185D01*
X142928758Y-79521811D01*
X142989778Y-79597722D01*
X143137357Y-79716349D01*
X143138204Y-79717030D01*
X143138207Y-79717032D01*
X143308802Y-79801639D01*
X143308803Y-79801639D01*
X143308807Y-79801641D01*
X143493611Y-79847600D01*
X143536377Y-79850500D01*
X144938622Y-79850499D01*
X144981389Y-79847600D01*
X145166193Y-79801641D01*
X145336796Y-79717030D01*
X145485222Y-79597722D01*
X145604530Y-79449296D01*
X145689141Y-79278693D01*
X145735100Y-79093889D01*
X145738000Y-79051123D01*
X145737999Y-78148878D01*
X145735100Y-78106111D01*
X145689141Y-77921307D01*
X145608167Y-77758037D01*
X145604532Y-77750707D01*
X145604530Y-77750704D01*
X145485222Y-77602278D01*
X145485221Y-77602277D01*
X145416014Y-77546647D01*
X145376095Y-77489304D01*
X145373515Y-77419482D01*
X145409094Y-77359349D01*
X145416014Y-77353353D01*
X145443007Y-77331655D01*
X145485222Y-77297722D01*
X145604530Y-77149296D01*
X145689141Y-76978693D01*
X145735100Y-76793889D01*
X145738000Y-76751123D01*
X145737999Y-75848878D01*
X145735100Y-75806111D01*
X145689141Y-75621307D01*
X145632264Y-75506624D01*
X145604532Y-75450707D01*
X145604530Y-75450704D01*
X145485222Y-75302278D01*
X145485221Y-75302277D01*
X145416014Y-75246647D01*
X145376095Y-75189304D01*
X145373515Y-75119482D01*
X145409094Y-75059349D01*
X145416014Y-75053353D01*
X145425409Y-75045800D01*
X145485222Y-74997722D01*
X145604530Y-74849296D01*
X145608165Y-74841966D01*
X149037000Y-74841966D01*
X149037000Y-77758028D01*
X149037001Y-77758034D01*
X149047613Y-77877415D01*
X149103589Y-78073045D01*
X149103590Y-78073048D01*
X149103591Y-78073049D01*
X149197802Y-78253407D01*
X149232477Y-78295933D01*
X149326390Y-78411109D01*
X149448443Y-78510629D01*
X149484093Y-78539698D01*
X149564791Y-78581851D01*
X149615096Y-78630335D01*
X149631204Y-78698323D01*
X149616738Y-78750208D01*
X149608687Y-78765270D01*
X149551475Y-78953870D01*
X149532159Y-79150000D01*
X149551475Y-79346129D01*
X149551476Y-79346132D01*
X149573616Y-79419119D01*
X149608688Y-79534733D01*
X149701586Y-79708532D01*
X149701590Y-79708539D01*
X149826616Y-79860883D01*
X149978960Y-79985909D01*
X149978967Y-79985913D01*
X150152766Y-80078811D01*
X150152769Y-80078811D01*
X150152773Y-80078814D01*
X150341368Y-80136024D01*
X150537500Y-80155341D01*
X150733632Y-80136024D01*
X150922227Y-80078814D01*
X150965540Y-80055663D01*
X151096032Y-79985913D01*
X151096038Y-79985910D01*
X151248383Y-79860883D01*
X151373410Y-79708538D01*
X151448213Y-79568592D01*
X151466311Y-79534733D01*
X151466311Y-79534732D01*
X151466314Y-79534727D01*
X151523524Y-79346132D01*
X151542841Y-79150000D01*
X151523524Y-78953868D01*
X151466314Y-78765273D01*
X151458263Y-78750210D01*
X151444022Y-78681807D01*
X151469023Y-78616564D01*
X151510207Y-78581851D01*
X151590907Y-78539698D01*
X151748609Y-78411109D01*
X151877198Y-78253407D01*
X151971409Y-78073049D01*
X152027386Y-77877418D01*
X152038000Y-77758037D01*
X152037999Y-76362360D01*
X152057684Y-76295322D01*
X152110487Y-76249567D01*
X152179646Y-76239623D01*
X152243202Y-76268648D01*
X152253223Y-76278372D01*
X152280256Y-76307738D01*
X152476491Y-76460474D01*
X152584458Y-76518903D01*
X152694332Y-76578364D01*
X152695190Y-76578828D01*
X152884027Y-76643656D01*
X152928964Y-76659083D01*
X152930386Y-76659571D01*
X153175665Y-76700500D01*
X153424335Y-76700500D01*
X153669614Y-76659571D01*
X153904810Y-76578828D01*
X154123509Y-76460474D01*
X154319744Y-76307738D01*
X154488164Y-76124785D01*
X154624173Y-75916607D01*
X154724063Y-75688881D01*
X154785108Y-75447821D01*
X154785116Y-75447729D01*
X154805643Y-75200005D01*
X154805643Y-75199994D01*
X154792359Y-75039681D01*
X154806440Y-74971245D01*
X154855285Y-74921286D01*
X154923386Y-74905665D01*
X154989122Y-74929342D01*
X155003616Y-74941760D01*
X156288181Y-76226325D01*
X156321666Y-76287648D01*
X156324500Y-76314006D01*
X156324500Y-84227983D01*
X156304815Y-84295022D01*
X156252011Y-84340777D01*
X156239510Y-84345686D01*
X156190133Y-84362049D01*
X156180666Y-84365186D01*
X156180663Y-84365187D01*
X156031342Y-84457289D01*
X155950451Y-84538181D01*
X155889128Y-84571666D01*
X155862770Y-84574500D01*
X154687230Y-84574500D01*
X154620191Y-84554815D01*
X154599549Y-84538181D01*
X154593657Y-84532289D01*
X154593656Y-84532288D01*
X154472061Y-84457288D01*
X154444336Y-84440187D01*
X154444331Y-84440185D01*
X154437782Y-84438015D01*
X154277797Y-84385001D01*
X154277795Y-84385000D01*
X154175010Y-84374500D01*
X152824998Y-84374500D01*
X152824981Y-84374501D01*
X152722203Y-84385000D01*
X152722200Y-84385001D01*
X152555668Y-84440185D01*
X152555663Y-84440187D01*
X152406342Y-84532289D01*
X152282289Y-84656342D01*
X152190187Y-84805663D01*
X152190186Y-84805666D01*
X152135001Y-84972203D01*
X152135001Y-84972204D01*
X152135000Y-84972204D01*
X152124500Y-85074983D01*
X152124500Y-85800001D01*
X152124501Y-85800019D01*
X152135000Y-85902796D01*
X152135001Y-85902799D01*
X152178130Y-86032952D01*
X152190186Y-86069334D01*
X152282288Y-86218656D01*
X152406344Y-86342712D01*
X152555666Y-86434814D01*
X152722203Y-86489999D01*
X152824991Y-86500500D01*
X154175008Y-86500499D01*
X154277797Y-86489999D01*
X154444334Y-86434814D01*
X154593656Y-86342712D01*
X154717712Y-86218656D01*
X154769680Y-86134402D01*
X154821627Y-86087679D01*
X154875218Y-86075500D01*
X155862770Y-86075500D01*
X155929809Y-86095185D01*
X155950451Y-86111819D01*
X156031344Y-86192712D01*
X156180666Y-86284814D01*
X156347203Y-86339999D01*
X156449991Y-86350500D01*
X157950008Y-86350499D01*
X158052797Y-86339999D01*
X158219334Y-86284814D01*
X158368656Y-86192712D01*
X158492712Y-86068656D01*
X158584814Y-85919334D01*
X158639999Y-85752797D01*
X158650500Y-85650009D01*
X158650499Y-84999992D01*
X158647660Y-84972204D01*
X158639999Y-84897203D01*
X158639998Y-84897200D01*
X158609667Y-84805668D01*
X158584814Y-84730666D01*
X158492712Y-84581344D01*
X158368656Y-84457288D01*
X158271121Y-84397128D01*
X158219336Y-84365187D01*
X158219335Y-84365186D01*
X158219334Y-84365186D01*
X158160493Y-84345688D01*
X158103051Y-84305916D01*
X158076228Y-84241400D01*
X158075500Y-84227983D01*
X158075500Y-75813768D01*
X158075499Y-75813766D01*
X158066259Y-75767315D01*
X158041855Y-75644626D01*
X158032194Y-75621303D01*
X157975861Y-75485301D01*
X157975854Y-75485288D01*
X157880046Y-75341902D01*
X157821901Y-75283757D01*
X157758099Y-75219955D01*
X157738138Y-75199994D01*
X161794859Y-75199994D01*
X161794859Y-75200005D01*
X161815385Y-75447729D01*
X161815387Y-75447738D01*
X161876412Y-75688717D01*
X161976266Y-75916364D01*
X162076564Y-76069882D01*
X162817037Y-75329409D01*
X162834075Y-75392993D01*
X162899901Y-75507007D01*
X162992993Y-75600099D01*
X163107007Y-75665925D01*
X163170590Y-75682962D01*
X162429942Y-76423609D01*
X162476768Y-76460055D01*
X162476770Y-76460056D01*
X162695385Y-76578364D01*
X162695396Y-76578369D01*
X162930506Y-76659083D01*
X163175707Y-76700000D01*
X163424293Y-76700000D01*
X163669493Y-76659083D01*
X163904603Y-76578369D01*
X163904614Y-76578364D01*
X164123228Y-76460057D01*
X164123231Y-76460055D01*
X164170056Y-76423609D01*
X163429409Y-75682962D01*
X163492993Y-75665925D01*
X163607007Y-75600099D01*
X163700099Y-75507007D01*
X163765925Y-75392993D01*
X163782962Y-75329410D01*
X164523434Y-76069882D01*
X164623731Y-75916369D01*
X164723587Y-75688717D01*
X164784612Y-75447738D01*
X164784614Y-75447729D01*
X164805141Y-75200005D01*
X164805141Y-75199994D01*
X164784614Y-74952270D01*
X164784612Y-74952261D01*
X164723587Y-74711282D01*
X164623731Y-74483630D01*
X164523434Y-74330116D01*
X163782962Y-75070589D01*
X163765925Y-75007007D01*
X163700099Y-74892993D01*
X163607007Y-74799901D01*
X163492993Y-74734075D01*
X163429410Y-74717037D01*
X164170057Y-73976390D01*
X164170056Y-73976389D01*
X164123229Y-73939943D01*
X163904614Y-73821635D01*
X163904603Y-73821630D01*
X163669493Y-73740916D01*
X163424293Y-73700000D01*
X163175707Y-73700000D01*
X162930506Y-73740916D01*
X162695396Y-73821630D01*
X162695390Y-73821632D01*
X162476761Y-73939949D01*
X162429942Y-73976388D01*
X162429942Y-73976390D01*
X163170590Y-74717037D01*
X163107007Y-74734075D01*
X162992993Y-74799901D01*
X162899901Y-74892993D01*
X162834075Y-75007007D01*
X162817037Y-75070589D01*
X162076564Y-74330116D01*
X161976267Y-74483632D01*
X161876412Y-74711282D01*
X161815387Y-74952261D01*
X161815385Y-74952270D01*
X161794859Y-75199994D01*
X157738138Y-75199994D01*
X154841119Y-72302975D01*
X154807634Y-72241652D01*
X154805224Y-72205050D01*
X154805643Y-72200000D01*
X154785108Y-71952179D01*
X154761746Y-71859926D01*
X154724063Y-71711118D01*
X154624173Y-71483393D01*
X154488166Y-71275217D01*
X154453492Y-71237551D01*
X154319744Y-71092262D01*
X154123509Y-70939526D01*
X154123507Y-70939525D01*
X154123506Y-70939524D01*
X153904811Y-70821172D01*
X153904802Y-70821169D01*
X153893477Y-70817281D01*
X153836462Y-70776896D01*
X153810331Y-70712096D01*
X153823382Y-70643456D01*
X153871471Y-70592768D01*
X153893477Y-70582719D01*
X153897235Y-70581428D01*
X153904810Y-70578828D01*
X154123509Y-70460474D01*
X154319744Y-70307738D01*
X154488164Y-70124785D01*
X154624173Y-69916607D01*
X154724063Y-69688881D01*
X154785108Y-69447821D01*
X154785109Y-69447812D01*
X154805643Y-69200005D01*
X154805643Y-69199994D01*
X161794357Y-69199994D01*
X161794357Y-69200005D01*
X161814890Y-69447812D01*
X161814892Y-69447824D01*
X161875936Y-69688881D01*
X161975826Y-69916606D01*
X162111833Y-70124782D01*
X162111836Y-70124785D01*
X162280256Y-70307738D01*
X162476491Y-70460474D01*
X162476493Y-70460475D01*
X162687617Y-70574730D01*
X162695190Y-70578828D01*
X162930386Y-70659571D01*
X163175665Y-70700500D01*
X163424335Y-70700500D01*
X163669614Y-70659571D01*
X163904810Y-70578828D01*
X164123509Y-70460474D01*
X164209355Y-70393657D01*
X164250482Y-70361647D01*
X164315476Y-70336004D01*
X164326644Y-70335500D01*
X165955162Y-70335500D01*
X166022201Y-70355185D01*
X166067956Y-70407989D01*
X166078620Y-70471077D01*
X166074848Y-70511296D01*
X166797705Y-71234153D01*
X166781058Y-71241049D01*
X166650030Y-71328599D01*
X166538599Y-71440030D01*
X166451049Y-71571058D01*
X166444153Y-71587706D01*
X165722295Y-70865848D01*
X165668600Y-70933180D01*
X165533709Y-71166818D01*
X165435148Y-71417947D01*
X165435142Y-71417966D01*
X165375113Y-71680971D01*
X165375113Y-71680973D01*
X165354953Y-71949995D01*
X165354953Y-71950004D01*
X165375113Y-72219026D01*
X165375113Y-72219028D01*
X165435142Y-72482033D01*
X165435148Y-72482052D01*
X165533709Y-72733181D01*
X165533708Y-72733181D01*
X165668602Y-72966822D01*
X165722294Y-73034151D01*
X165722295Y-73034151D01*
X166444153Y-72312293D01*
X166451049Y-72328942D01*
X166538599Y-72459970D01*
X166650030Y-72571401D01*
X166781058Y-72658951D01*
X166797705Y-72665846D01*
X166074848Y-73388702D01*
X166257483Y-73513220D01*
X166257485Y-73513221D01*
X166500539Y-73630269D01*
X166500537Y-73630269D01*
X166758337Y-73709790D01*
X166758343Y-73709792D01*
X167025101Y-73749999D01*
X167025110Y-73750000D01*
X167294890Y-73750000D01*
X167294898Y-73749999D01*
X167561656Y-73709792D01*
X167561662Y-73709790D01*
X167819461Y-73630269D01*
X168062521Y-73513218D01*
X168245150Y-73388702D01*
X167522294Y-72665846D01*
X167538942Y-72658951D01*
X167669970Y-72571401D01*
X167781401Y-72459970D01*
X167868951Y-72328942D01*
X167875846Y-72312294D01*
X168597703Y-73034151D01*
X168597704Y-73034150D01*
X168651393Y-72966828D01*
X168651400Y-72966817D01*
X168786290Y-72733181D01*
X168884851Y-72482052D01*
X168884857Y-72482033D01*
X168944886Y-72219028D01*
X168944886Y-72219026D01*
X168965047Y-71950004D01*
X168965047Y-71949995D01*
X168944886Y-71680973D01*
X168944886Y-71680971D01*
X168884857Y-71417966D01*
X168884851Y-71417947D01*
X168786290Y-71166818D01*
X168786291Y-71166818D01*
X168672961Y-70970527D01*
X168656488Y-70902627D01*
X168679340Y-70836600D01*
X168734261Y-70793410D01*
X168803815Y-70786768D01*
X168850197Y-70806071D01*
X168922296Y-70855228D01*
X168922301Y-70855230D01*
X168922302Y-70855231D01*
X168922303Y-70855232D01*
X169013621Y-70899208D01*
X169158673Y-70969061D01*
X169158674Y-70969061D01*
X169158677Y-70969063D01*
X169409385Y-71046396D01*
X169668818Y-71085500D01*
X169931182Y-71085500D01*
X170190615Y-71046396D01*
X170441323Y-70969063D01*
X170476056Y-70952336D01*
X170544994Y-70940985D01*
X170609128Y-70968706D01*
X170648094Y-71026701D01*
X170649520Y-71096556D01*
X170637243Y-71126056D01*
X170613708Y-71166820D01*
X170515148Y-71417947D01*
X170515142Y-71417966D01*
X170455113Y-71680971D01*
X170455113Y-71680973D01*
X170434953Y-71949995D01*
X170434953Y-71950004D01*
X170455113Y-72219026D01*
X170455113Y-72219028D01*
X170515142Y-72482033D01*
X170515148Y-72482052D01*
X170613709Y-72733181D01*
X170613708Y-72733181D01*
X170748602Y-72966822D01*
X170802294Y-73034151D01*
X171524152Y-72312293D01*
X171531049Y-72328942D01*
X171618599Y-72459970D01*
X171730030Y-72571401D01*
X171861058Y-72658951D01*
X171877705Y-72665846D01*
X171154848Y-73388702D01*
X171337483Y-73513220D01*
X171337485Y-73513221D01*
X171580539Y-73630269D01*
X171580537Y-73630269D01*
X171838337Y-73709790D01*
X171838343Y-73709792D01*
X172105101Y-73749999D01*
X172105110Y-73750000D01*
X172374890Y-73750000D01*
X172374898Y-73749999D01*
X172641656Y-73709792D01*
X172641662Y-73709790D01*
X172899461Y-73630269D01*
X173142521Y-73513218D01*
X173325150Y-73388702D01*
X172602294Y-72665846D01*
X172618942Y-72658951D01*
X172749970Y-72571401D01*
X172861401Y-72459970D01*
X172948951Y-72328942D01*
X172955846Y-72312294D01*
X173677703Y-73034151D01*
X173677704Y-73034150D01*
X173731393Y-72966828D01*
X173731400Y-72966817D01*
X173866290Y-72733181D01*
X173964851Y-72482052D01*
X173964857Y-72482033D01*
X174024886Y-72219028D01*
X174024886Y-72219026D01*
X174045047Y-71950004D01*
X174045047Y-71949995D01*
X174024886Y-71680973D01*
X174024886Y-71680971D01*
X173964857Y-71417966D01*
X173964851Y-71417947D01*
X173866290Y-71166818D01*
X173866291Y-71166818D01*
X173731397Y-70933177D01*
X173677704Y-70865847D01*
X172955846Y-71587705D01*
X172948951Y-71571058D01*
X172861401Y-71440030D01*
X172749970Y-71328599D01*
X172618942Y-71241049D01*
X172602293Y-71234153D01*
X173325150Y-70511296D01*
X173142517Y-70386779D01*
X173142516Y-70386778D01*
X172899460Y-70269730D01*
X172899462Y-70269730D01*
X172641662Y-70190209D01*
X172641656Y-70190207D01*
X172374898Y-70150000D01*
X172105101Y-70150000D01*
X171838343Y-70190207D01*
X171838337Y-70190209D01*
X171580544Y-70269728D01*
X171528711Y-70294690D01*
X171459769Y-70306041D01*
X171395635Y-70278318D01*
X171356670Y-70220323D01*
X171355245Y-70150468D01*
X171367522Y-70120970D01*
X171381568Y-70096643D01*
X171477420Y-69852416D01*
X171477858Y-69850500D01*
X171492392Y-69786819D01*
X171535802Y-69596630D01*
X171536827Y-69582952D01*
X171555408Y-69335004D01*
X171555408Y-69334995D01*
X171535803Y-69073379D01*
X171535802Y-69073374D01*
X171535802Y-69073370D01*
X171477420Y-68817584D01*
X171437923Y-68716949D01*
X171431755Y-68647353D01*
X171464193Y-68585470D01*
X171524938Y-68550947D01*
X171589902Y-68553157D01*
X171838337Y-68629790D01*
X171838343Y-68629792D01*
X172105101Y-68669999D01*
X172105110Y-68670000D01*
X172374890Y-68670000D01*
X172374898Y-68669999D01*
X172641656Y-68629792D01*
X172641662Y-68629790D01*
X172899461Y-68550269D01*
X173142521Y-68433218D01*
X173325150Y-68308702D01*
X172602294Y-67585846D01*
X172618942Y-67578951D01*
X172749970Y-67491401D01*
X172861401Y-67379970D01*
X172948951Y-67248942D01*
X172955846Y-67232294D01*
X173677703Y-67954151D01*
X173677704Y-67954150D01*
X173731393Y-67886828D01*
X173731400Y-67886817D01*
X173866290Y-67653181D01*
X173964851Y-67402052D01*
X173964857Y-67402033D01*
X174024886Y-67139028D01*
X174024886Y-67139026D01*
X174045047Y-66870004D01*
X174045047Y-66869995D01*
X174024886Y-66600973D01*
X174024886Y-66600971D01*
X173964857Y-66337966D01*
X173964851Y-66337947D01*
X173866290Y-66086818D01*
X173866291Y-66086818D01*
X173731397Y-65853177D01*
X173677704Y-65785847D01*
X172955846Y-66507705D01*
X172948951Y-66491058D01*
X172861401Y-66360030D01*
X172749970Y-66248599D01*
X172618942Y-66161049D01*
X172602294Y-66154153D01*
X173325150Y-65431296D01*
X173142517Y-65306779D01*
X173142516Y-65306778D01*
X172899460Y-65189730D01*
X172899462Y-65189730D01*
X172641662Y-65110209D01*
X172641656Y-65110207D01*
X172374898Y-65070000D01*
X172105101Y-65070000D01*
X171838343Y-65110207D01*
X171838337Y-65110209D01*
X171580538Y-65189730D01*
X171337485Y-65306778D01*
X171337476Y-65306783D01*
X171154848Y-65431296D01*
X171877705Y-66154153D01*
X171861058Y-66161049D01*
X171730030Y-66248599D01*
X171618599Y-66360030D01*
X171531049Y-66491058D01*
X171524153Y-66507706D01*
X170802295Y-65785848D01*
X170748600Y-65853180D01*
X170613709Y-66086818D01*
X170515148Y-66337947D01*
X170515142Y-66337966D01*
X170455113Y-66600971D01*
X170455113Y-66600973D01*
X170434953Y-66869995D01*
X170434953Y-66870004D01*
X170455113Y-67139026D01*
X170455113Y-67139028D01*
X170515142Y-67402033D01*
X170515148Y-67402052D01*
X170564706Y-67528324D01*
X170570875Y-67597921D01*
X170538437Y-67659804D01*
X170477692Y-67694327D01*
X170412729Y-67692117D01*
X170307973Y-67659804D01*
X170190623Y-67623606D01*
X170190619Y-67623605D01*
X170190615Y-67623604D01*
X170060268Y-67603957D01*
X169931187Y-67584500D01*
X169931182Y-67584500D01*
X169668818Y-67584500D01*
X169668812Y-67584500D01*
X169515642Y-67607588D01*
X169409385Y-67623604D01*
X169409382Y-67623605D01*
X169409376Y-67623606D01*
X169158673Y-67700938D01*
X168961052Y-67796107D01*
X168892111Y-67807459D01*
X168827976Y-67779736D01*
X168789011Y-67721741D01*
X168787586Y-67651886D01*
X168791823Y-67639085D01*
X168884851Y-67402052D01*
X168884857Y-67402033D01*
X168944886Y-67139028D01*
X168944886Y-67139026D01*
X168965047Y-66870004D01*
X168965047Y-66869995D01*
X168944886Y-66600973D01*
X168944886Y-66600971D01*
X168884857Y-66337966D01*
X168884851Y-66337947D01*
X168786290Y-66086818D01*
X168786291Y-66086818D01*
X168651397Y-65853177D01*
X168597704Y-65785847D01*
X167875846Y-66507705D01*
X167868951Y-66491058D01*
X167781401Y-66360030D01*
X167669970Y-66248599D01*
X167538942Y-66161049D01*
X167522294Y-66154153D01*
X168245150Y-65431296D01*
X168062517Y-65306779D01*
X168062516Y-65306778D01*
X167819460Y-65189730D01*
X167819462Y-65189730D01*
X167561662Y-65110209D01*
X167561656Y-65110207D01*
X167294898Y-65070000D01*
X167025101Y-65070000D01*
X166758343Y-65110207D01*
X166758337Y-65110209D01*
X166500538Y-65189730D01*
X166257485Y-65306778D01*
X166257476Y-65306783D01*
X166074848Y-65431296D01*
X166797705Y-66154153D01*
X166781058Y-66161049D01*
X166650030Y-66248599D01*
X166538599Y-66360030D01*
X166451049Y-66491058D01*
X166444153Y-66507706D01*
X165722295Y-65785848D01*
X165668600Y-65853180D01*
X165533709Y-66086818D01*
X165435148Y-66337947D01*
X165435142Y-66337966D01*
X165375113Y-66600971D01*
X165375113Y-66600973D01*
X165354953Y-66869995D01*
X165354953Y-66870004D01*
X165375113Y-67139026D01*
X165375113Y-67139028D01*
X165435142Y-67402033D01*
X165435148Y-67402052D01*
X165533709Y-67653181D01*
X165533708Y-67653181D01*
X165668602Y-67886822D01*
X165722294Y-67954151D01*
X165722295Y-67954151D01*
X166444153Y-67232293D01*
X166451049Y-67248942D01*
X166538599Y-67379970D01*
X166650030Y-67491401D01*
X166781058Y-67578951D01*
X166797705Y-67585846D01*
X166085370Y-68298181D01*
X166024047Y-68331666D01*
X165997689Y-68334500D01*
X164594002Y-68334500D01*
X164526963Y-68314815D01*
X164490196Y-68278325D01*
X164488166Y-68275218D01*
X164488162Y-68275213D01*
X164442398Y-68225500D01*
X164319744Y-68092262D01*
X164123509Y-67939526D01*
X164123507Y-67939525D01*
X164123506Y-67939524D01*
X163904811Y-67821172D01*
X163904802Y-67821169D01*
X163669616Y-67740429D01*
X163424335Y-67699500D01*
X163175665Y-67699500D01*
X162930383Y-67740429D01*
X162695197Y-67821169D01*
X162695188Y-67821172D01*
X162476493Y-67939524D01*
X162280257Y-68092261D01*
X162111833Y-68275217D01*
X161975826Y-68483393D01*
X161875936Y-68711118D01*
X161814892Y-68952175D01*
X161814890Y-68952187D01*
X161794357Y-69199994D01*
X154805643Y-69199994D01*
X154785109Y-68952187D01*
X154785107Y-68952175D01*
X154724063Y-68711118D01*
X154624173Y-68483393D01*
X154488166Y-68275217D01*
X154396109Y-68175217D01*
X154319744Y-68092262D01*
X154123509Y-67939526D01*
X154123507Y-67939525D01*
X154123506Y-67939524D01*
X153904811Y-67821172D01*
X153904802Y-67821169D01*
X153669616Y-67740429D01*
X153424335Y-67699500D01*
X153175665Y-67699500D01*
X152930383Y-67740429D01*
X152695197Y-67821169D01*
X152695188Y-67821172D01*
X152476493Y-67939524D01*
X152280256Y-68092261D01*
X152265728Y-68108044D01*
X152205841Y-68144034D01*
X152136003Y-68141933D01*
X152078387Y-68102408D01*
X152051286Y-68038009D01*
X152050499Y-68024060D01*
X152050499Y-66541971D01*
X152050499Y-66541964D01*
X152039886Y-66422582D01*
X151983909Y-66226951D01*
X151889698Y-66046593D01*
X151837684Y-65982803D01*
X151761109Y-65888890D01*
X151603409Y-65760304D01*
X151603410Y-65760304D01*
X151603407Y-65760302D01*
X151423049Y-65666091D01*
X151423048Y-65666090D01*
X151423045Y-65666089D01*
X151305829Y-65632550D01*
X151227418Y-65610114D01*
X151227415Y-65610113D01*
X151227413Y-65610113D01*
X151161102Y-65604217D01*
X151108037Y-65599500D01*
X151108032Y-65599500D01*
X149991971Y-65599500D01*
X149991965Y-65599500D01*
X149991964Y-65599501D01*
X149980316Y-65600536D01*
X149872584Y-65610113D01*
X149676954Y-65666089D01*
X149615617Y-65698129D01*
X149496593Y-65760302D01*
X149496591Y-65760303D01*
X149496590Y-65760304D01*
X149338890Y-65888890D01*
X149210304Y-66046590D01*
X149210302Y-66046593D01*
X149163196Y-66136772D01*
X149116089Y-66226954D01*
X149060114Y-66422583D01*
X149060113Y-66422586D01*
X149057831Y-66448256D01*
X149050202Y-66534073D01*
X149049500Y-66541966D01*
X149049500Y-69458028D01*
X149049500Y-69458033D01*
X149049501Y-69458036D01*
X149050147Y-69465299D01*
X149060113Y-69577415D01*
X149116089Y-69773045D01*
X149116090Y-69773048D01*
X149116091Y-69773049D01*
X149210302Y-69953407D01*
X149210304Y-69953409D01*
X149338890Y-70111109D01*
X149401366Y-70162051D01*
X149496593Y-70239698D01*
X149598183Y-70292764D01*
X149648489Y-70341250D01*
X149664596Y-70409238D01*
X149650129Y-70461123D01*
X149621186Y-70515273D01*
X149610033Y-70552040D01*
X149563975Y-70703870D01*
X149544659Y-70900000D01*
X149563975Y-71096129D01*
X149563976Y-71096132D01*
X149619053Y-71277697D01*
X149621188Y-71284733D01*
X149714086Y-71458532D01*
X149714090Y-71458539D01*
X149839116Y-71610883D01*
X149991460Y-71735909D01*
X149991467Y-71735913D01*
X150165266Y-71828811D01*
X150165269Y-71828811D01*
X150165273Y-71828814D01*
X150353868Y-71886024D01*
X150550000Y-71905341D01*
X150746132Y-71886024D01*
X150934727Y-71828814D01*
X150970274Y-71809814D01*
X151108532Y-71735913D01*
X151108538Y-71735910D01*
X151260883Y-71610883D01*
X151385910Y-71458538D01*
X151455364Y-71328599D01*
X151478811Y-71284733D01*
X151478811Y-71284732D01*
X151478814Y-71284727D01*
X151536024Y-71096132D01*
X151555341Y-70900000D01*
X151536024Y-70703868D01*
X151478814Y-70515273D01*
X151449870Y-70461124D01*
X151435629Y-70392722D01*
X151460629Y-70327478D01*
X151501815Y-70292764D01*
X151603407Y-70239698D01*
X151617266Y-70228397D01*
X151681661Y-70201289D01*
X151695626Y-70200500D01*
X151848540Y-70200500D01*
X152127145Y-70200500D01*
X152194184Y-70220185D01*
X152218374Y-70240517D01*
X152280252Y-70307734D01*
X152280256Y-70307738D01*
X152476491Y-70460474D01*
X152476493Y-70460475D01*
X152687617Y-70574730D01*
X152695190Y-70578828D01*
X152705682Y-70582430D01*
X152706524Y-70582719D01*
X152763539Y-70623106D01*
X152789668Y-70687906D01*
X152776615Y-70756546D01*
X152728526Y-70807233D01*
X152706524Y-70817281D01*
X152695191Y-70821171D01*
X152695188Y-70821172D01*
X152476493Y-70939524D01*
X152280257Y-71092261D01*
X152111833Y-71275217D01*
X151975826Y-71483393D01*
X151875936Y-71711118D01*
X151814892Y-71952175D01*
X151814890Y-71952187D01*
X151794357Y-72199994D01*
X151794357Y-72200005D01*
X151814890Y-72447812D01*
X151814892Y-72447824D01*
X151875936Y-72688881D01*
X151975826Y-72916606D01*
X152111833Y-73124782D01*
X152111836Y-73124785D01*
X152280256Y-73307738D01*
X152476491Y-73460474D01*
X152573953Y-73513218D01*
X152679372Y-73570268D01*
X152695190Y-73578828D01*
X152705682Y-73582430D01*
X152706524Y-73582719D01*
X152763539Y-73623106D01*
X152789668Y-73687906D01*
X152776615Y-73756546D01*
X152728526Y-73807233D01*
X152706524Y-73817281D01*
X152695191Y-73821171D01*
X152695188Y-73821172D01*
X152476493Y-73939524D01*
X152280255Y-74092262D01*
X152280252Y-74092265D01*
X152218374Y-74159483D01*
X152158487Y-74195474D01*
X152127145Y-74199500D01*
X151805766Y-74199500D01*
X151738727Y-74179815D01*
X151727411Y-74171606D01*
X151590907Y-74060302D01*
X151410549Y-73966091D01*
X151410548Y-73966090D01*
X151410545Y-73966089D01*
X151293329Y-73932550D01*
X151214918Y-73910114D01*
X151214915Y-73910113D01*
X151214913Y-73910113D01*
X151148602Y-73904217D01*
X151095537Y-73899500D01*
X151095532Y-73899500D01*
X149979471Y-73899500D01*
X149979465Y-73899500D01*
X149979464Y-73899501D01*
X149967816Y-73900536D01*
X149860084Y-73910113D01*
X149664454Y-73966089D01*
X149614351Y-73992261D01*
X149484093Y-74060302D01*
X149484091Y-74060303D01*
X149484090Y-74060304D01*
X149326390Y-74188890D01*
X149197804Y-74346590D01*
X149197802Y-74346593D01*
X149150696Y-74436772D01*
X149103589Y-74526954D01*
X149072329Y-74636206D01*
X149050848Y-74711282D01*
X149047614Y-74722583D01*
X149047613Y-74722586D01*
X149037000Y-74841966D01*
X145608165Y-74841966D01*
X145689141Y-74678693D01*
X145735100Y-74493889D01*
X145738000Y-74451123D01*
X145737999Y-73548878D01*
X145735100Y-73506111D01*
X145689141Y-73321307D01*
X145652731Y-73247893D01*
X145604532Y-73150707D01*
X145604530Y-73150704D01*
X145485222Y-73002278D01*
X145485221Y-73002277D01*
X145336795Y-72882969D01*
X145336792Y-72882967D01*
X145166197Y-72798360D01*
X144981392Y-72752400D01*
X144960006Y-72750950D01*
X144938623Y-72749500D01*
X144938620Y-72749500D01*
X143536377Y-72749500D01*
X143536374Y-72749501D01*
X143493613Y-72752399D01*
X143493612Y-72752399D01*
X143308803Y-72798360D01*
X143138207Y-72882967D01*
X143138204Y-72882969D01*
X142989780Y-73002276D01*
X142989778Y-73002278D01*
X142928760Y-73078188D01*
X142871416Y-73118106D01*
X142832113Y-73124500D01*
X142662163Y-73124500D01*
X142595124Y-73104815D01*
X142549369Y-73052011D01*
X142540911Y-73026459D01*
X142540000Y-73022207D01*
X142534300Y-73005005D01*
X142484814Y-72855666D01*
X142392712Y-72706344D01*
X142268656Y-72582288D01*
X142175888Y-72525069D01*
X142119336Y-72490187D01*
X142119331Y-72490185D01*
X142094730Y-72482033D01*
X141952797Y-72435001D01*
X141952795Y-72435000D01*
X141850010Y-72424500D01*
X141124998Y-72424500D01*
X141124980Y-72424501D01*
X141022203Y-72435000D01*
X141022200Y-72435001D01*
X140855668Y-72490185D01*
X140855663Y-72490187D01*
X140706342Y-72582289D01*
X140582289Y-72706342D01*
X140490187Y-72855663D01*
X140490185Y-72855668D01*
X140490115Y-72855880D01*
X140440700Y-73005005D01*
X140400929Y-73062449D01*
X140336413Y-73089272D01*
X140322995Y-73090000D01*
X139726480Y-73090000D01*
X139659441Y-73070315D01*
X139613686Y-73017511D01*
X139608774Y-73005005D01*
X139559357Y-72855878D01*
X139559356Y-72855875D01*
X139467315Y-72706654D01*
X139343345Y-72582684D01*
X139194124Y-72490643D01*
X139194119Y-72490641D01*
X139027697Y-72435494D01*
X139027690Y-72435493D01*
X138924986Y-72425000D01*
X138812500Y-72425000D01*
X138812500Y-75174999D01*
X138924972Y-75174999D01*
X138924986Y-75174998D01*
X139027697Y-75164505D01*
X139194119Y-75109358D01*
X139194124Y-75109356D01*
X139343345Y-75017315D01*
X139414342Y-74946319D01*
X139475665Y-74912834D01*
X139502023Y-74910000D01*
X140547270Y-74910000D01*
X140614309Y-74929685D01*
X140634951Y-74946319D01*
X140706344Y-75017712D01*
X140855666Y-75109814D01*
X141022203Y-75164999D01*
X141124991Y-75175500D01*
X141773842Y-75175499D01*
X141840881Y-75195183D01*
X141886636Y-75247987D01*
X141896580Y-75317146D01*
X141867555Y-75380702D01*
X141832313Y-75408847D01*
X141830439Y-75409849D01*
X141771970Y-75424500D01*
X137314006Y-75424500D01*
X137246967Y-75404815D01*
X137226325Y-75388181D01*
X137225814Y-75387670D01*
X137192329Y-75326347D01*
X137189919Y-75289751D01*
X137202811Y-75134174D01*
X137205643Y-75100004D01*
X137205643Y-75099994D01*
X137185109Y-74852187D01*
X137185107Y-74852175D01*
X137124063Y-74611118D01*
X137064350Y-74474986D01*
X137500001Y-74474986D01*
X137510494Y-74577697D01*
X137565641Y-74744119D01*
X137565643Y-74744124D01*
X137657684Y-74893345D01*
X137781654Y-75017315D01*
X137930875Y-75109356D01*
X137930880Y-75109358D01*
X138097302Y-75164505D01*
X138097309Y-75164506D01*
X138200019Y-75174999D01*
X138312499Y-75174999D01*
X138312500Y-75174998D01*
X138312500Y-74050000D01*
X137500001Y-74050000D01*
X137500001Y-74474986D01*
X137064350Y-74474986D01*
X137024173Y-74383393D01*
X136888166Y-74175217D01*
X136802035Y-74081654D01*
X136719744Y-73992262D01*
X136523509Y-73839526D01*
X136523507Y-73839525D01*
X136523506Y-73839524D01*
X136304811Y-73721172D01*
X136304802Y-73721169D01*
X136293477Y-73717281D01*
X136236462Y-73676896D01*
X136210331Y-73612096D01*
X136223382Y-73543456D01*
X136271471Y-73492768D01*
X136293477Y-73482719D01*
X136297235Y-73481428D01*
X136304810Y-73478828D01*
X136523509Y-73360474D01*
X136719744Y-73207738D01*
X136795898Y-73125013D01*
X137500000Y-73125013D01*
X137500000Y-73550000D01*
X138312500Y-73550000D01*
X138312500Y-72425000D01*
X138200027Y-72425000D01*
X138200012Y-72425001D01*
X138097302Y-72435494D01*
X137930880Y-72490641D01*
X137930875Y-72490643D01*
X137781654Y-72582684D01*
X137657684Y-72706654D01*
X137565643Y-72855875D01*
X137565641Y-72855880D01*
X137510494Y-73022302D01*
X137510493Y-73022309D01*
X137500000Y-73125013D01*
X136795898Y-73125013D01*
X136888164Y-73024785D01*
X137024173Y-72816607D01*
X137124063Y-72588881D01*
X137185108Y-72347821D01*
X137185109Y-72347812D01*
X137205643Y-72100005D01*
X137205643Y-72099994D01*
X137185109Y-71852187D01*
X137185107Y-71852175D01*
X137124063Y-71611118D01*
X137024173Y-71383393D01*
X136888166Y-71175217D01*
X136887953Y-71174986D01*
X137512501Y-71174986D01*
X137522994Y-71277697D01*
X137578141Y-71444119D01*
X137578143Y-71444124D01*
X137670184Y-71593345D01*
X137794154Y-71717315D01*
X137943375Y-71809356D01*
X137943380Y-71809358D01*
X138109802Y-71864505D01*
X138109809Y-71864506D01*
X138212519Y-71874999D01*
X138324999Y-71874999D01*
X138325000Y-71874998D01*
X138325000Y-70750000D01*
X137512501Y-70750000D01*
X137512501Y-71174986D01*
X136887953Y-71174986D01*
X136838329Y-71121080D01*
X136719744Y-70992262D01*
X136523509Y-70839526D01*
X136523507Y-70839525D01*
X136523506Y-70839524D01*
X136304811Y-70721172D01*
X136304802Y-70721169D01*
X136293477Y-70717281D01*
X136236462Y-70676896D01*
X136210331Y-70612096D01*
X136223382Y-70543456D01*
X136271471Y-70492768D01*
X136293477Y-70482719D01*
X136297235Y-70481428D01*
X136304810Y-70478828D01*
X136523509Y-70360474D01*
X136719744Y-70207738D01*
X136888164Y-70024785D01*
X137018681Y-69825013D01*
X137512500Y-69825013D01*
X137512500Y-70250000D01*
X138325000Y-70250000D01*
X138325000Y-69125000D01*
X138212527Y-69125000D01*
X138212512Y-69125001D01*
X138109802Y-69135494D01*
X137943380Y-69190641D01*
X137943375Y-69190643D01*
X137794154Y-69282684D01*
X137670184Y-69406654D01*
X137578143Y-69555875D01*
X137578141Y-69555880D01*
X137522994Y-69722302D01*
X137522993Y-69722309D01*
X137512500Y-69825013D01*
X137018681Y-69825013D01*
X137024173Y-69816607D01*
X137124063Y-69588881D01*
X137185108Y-69347821D01*
X137186170Y-69335004D01*
X137205643Y-69100005D01*
X137205643Y-69099994D01*
X137198164Y-69009740D01*
X137212245Y-68941304D01*
X137261090Y-68891345D01*
X137321740Y-68875500D01*
X141784470Y-68875500D01*
X141842944Y-68890153D01*
X141844814Y-68891153D01*
X141894649Y-68940125D01*
X141910097Y-69008266D01*
X141886252Y-69073941D01*
X141830686Y-69116299D01*
X141786340Y-69124500D01*
X141137498Y-69124500D01*
X141137480Y-69124501D01*
X141034703Y-69135000D01*
X141034700Y-69135001D01*
X140868168Y-69190185D01*
X140868163Y-69190187D01*
X140718842Y-69282289D01*
X140647451Y-69353681D01*
X140586128Y-69387166D01*
X140559770Y-69390000D01*
X139514523Y-69390000D01*
X139447484Y-69370315D01*
X139426842Y-69353681D01*
X139355845Y-69282684D01*
X139206624Y-69190643D01*
X139206619Y-69190641D01*
X139040197Y-69135494D01*
X139040190Y-69135493D01*
X138937486Y-69125000D01*
X138825000Y-69125000D01*
X138825000Y-71874999D01*
X138937472Y-71874999D01*
X138937486Y-71874998D01*
X139040197Y-71864505D01*
X139206619Y-71809358D01*
X139206624Y-71809356D01*
X139355845Y-71717315D01*
X139479815Y-71593345D01*
X139571856Y-71444124D01*
X139571858Y-71444119D01*
X139621273Y-71294996D01*
X139661046Y-71237551D01*
X139725561Y-71210728D01*
X139738979Y-71210000D01*
X140335495Y-71210000D01*
X140402534Y-71229685D01*
X140448289Y-71282489D01*
X140453195Y-71294982D01*
X140494610Y-71419961D01*
X140502685Y-71444331D01*
X140502687Y-71444336D01*
X140511466Y-71458569D01*
X140594788Y-71593656D01*
X140718844Y-71717712D01*
X140868166Y-71809814D01*
X141034703Y-71864999D01*
X141137491Y-71875500D01*
X141862508Y-71875499D01*
X141862516Y-71875498D01*
X141862519Y-71875498D01*
X141918802Y-71869748D01*
X141965297Y-71864999D01*
X142131834Y-71809814D01*
X142281156Y-71717712D01*
X142405212Y-71593656D01*
X142497314Y-71444334D01*
X142552499Y-71277797D01*
X142552499Y-71277793D01*
X142553412Y-71273533D01*
X142586699Y-71212102D01*
X142647914Y-71178419D01*
X142674663Y-71175500D01*
X142844613Y-71175500D01*
X142911652Y-71195185D01*
X142941258Y-71221811D01*
X143002278Y-71297722D01*
X143102574Y-71378342D01*
X143150704Y-71417030D01*
X143150707Y-71417032D01*
X143321302Y-71501639D01*
X143321303Y-71501639D01*
X143321307Y-71501641D01*
X143506111Y-71547600D01*
X143548877Y-71550500D01*
X144951122Y-71550499D01*
X144993889Y-71547600D01*
X145178693Y-71501641D01*
X145349296Y-71417030D01*
X145497722Y-71297722D01*
X145617030Y-71149296D01*
X145701641Y-70978693D01*
X145747600Y-70793889D01*
X145750500Y-70751123D01*
X145750499Y-69848878D01*
X145747600Y-69806111D01*
X145701641Y-69621307D01*
X145665557Y-69548550D01*
X145617032Y-69450707D01*
X145617030Y-69450704D01*
X145497722Y-69302278D01*
X145497721Y-69302277D01*
X145428514Y-69246647D01*
X145388595Y-69189304D01*
X145386015Y-69119482D01*
X145421594Y-69059349D01*
X145428514Y-69053353D01*
X145448231Y-69037504D01*
X145497722Y-68997722D01*
X145617030Y-68849296D01*
X145701641Y-68678693D01*
X145747600Y-68493889D01*
X145750500Y-68451123D01*
X145750499Y-67548878D01*
X145747600Y-67506111D01*
X145701641Y-67321307D01*
X145699046Y-67316075D01*
X145617032Y-67150707D01*
X145617030Y-67150704D01*
X145497722Y-67002278D01*
X145497721Y-67002277D01*
X145428514Y-66946647D01*
X145388595Y-66889304D01*
X145386015Y-66819482D01*
X145421594Y-66759349D01*
X145428514Y-66753353D01*
X145437909Y-66745800D01*
X145497722Y-66697722D01*
X145617030Y-66549296D01*
X145701641Y-66378693D01*
X145747600Y-66193889D01*
X145750500Y-66151123D01*
X145750499Y-65248878D01*
X145747600Y-65206111D01*
X145701641Y-65021307D01*
X145649010Y-64915185D01*
X145617032Y-64850707D01*
X145617030Y-64850704D01*
X145497722Y-64702278D01*
X145497721Y-64702277D01*
X145349295Y-64582969D01*
X145349292Y-64582967D01*
X145178697Y-64498360D01*
X144993892Y-64452400D01*
X144972506Y-64450950D01*
X144951123Y-64449500D01*
X144951120Y-64449500D01*
X143548877Y-64449500D01*
X143548874Y-64449501D01*
X143506113Y-64452399D01*
X143506112Y-64452399D01*
X143321303Y-64498360D01*
X143150707Y-64582967D01*
X143150704Y-64582969D01*
X143002280Y-64702276D01*
X143002278Y-64702278D01*
X142941260Y-64778188D01*
X142883916Y-64818106D01*
X142844613Y-64824500D01*
X142674663Y-64824500D01*
X142607624Y-64804815D01*
X142561869Y-64752011D01*
X142553411Y-64726459D01*
X142552500Y-64722207D01*
X142546800Y-64705005D01*
X142497314Y-64555666D01*
X142405212Y-64406344D01*
X142281156Y-64282288D01*
X142180470Y-64220185D01*
X142131836Y-64190187D01*
X142131831Y-64190185D01*
X142130362Y-64189698D01*
X141965297Y-64135001D01*
X141965295Y-64135000D01*
X141862510Y-64124500D01*
X141137498Y-64124500D01*
X141137480Y-64124501D01*
X141034703Y-64135000D01*
X141034700Y-64135001D01*
X140868168Y-64190185D01*
X140868163Y-64190187D01*
X140718842Y-64282289D01*
X140594789Y-64406342D01*
X140502687Y-64555663D01*
X140502685Y-64555668D01*
X140502615Y-64555880D01*
X140453200Y-64705005D01*
X140413429Y-64762449D01*
X140348913Y-64789272D01*
X140335495Y-64790000D01*
X139738980Y-64790000D01*
X139671941Y-64770315D01*
X139626186Y-64717511D01*
X139621274Y-64705005D01*
X139571857Y-64555878D01*
X139571856Y-64555875D01*
X139479815Y-64406654D01*
X139355845Y-64282684D01*
X139206624Y-64190643D01*
X139206619Y-64190641D01*
X139040197Y-64135494D01*
X139040190Y-64135493D01*
X138937486Y-64125000D01*
X138825000Y-64125000D01*
X138825000Y-66874999D01*
X138937472Y-66874999D01*
X138937486Y-66874998D01*
X139040197Y-66864505D01*
X139206619Y-66809358D01*
X139206624Y-66809356D01*
X139355845Y-66717315D01*
X139426842Y-66646319D01*
X139488165Y-66612834D01*
X139514523Y-66610000D01*
X140559770Y-66610000D01*
X140626809Y-66629685D01*
X140647451Y-66646319D01*
X140718844Y-66717712D01*
X140868166Y-66809814D01*
X141034703Y-66864999D01*
X141137491Y-66875500D01*
X141786342Y-66875499D01*
X141853381Y-66895183D01*
X141899136Y-66947987D01*
X141909080Y-67017146D01*
X141880055Y-67080702D01*
X141844813Y-67108847D01*
X141842939Y-67109849D01*
X141784470Y-67124500D01*
X136713768Y-67124500D01*
X136544633Y-67158143D01*
X136544621Y-67158146D01*
X136385301Y-67224138D01*
X136385288Y-67224145D01*
X136241901Y-67319954D01*
X136241897Y-67319957D01*
X135987751Y-67574103D01*
X135926428Y-67607588D01*
X135879663Y-67608731D01*
X135824337Y-67599500D01*
X135824335Y-67599500D01*
X135575665Y-67599500D01*
X135330383Y-67640429D01*
X135095197Y-67721169D01*
X135095188Y-67721172D01*
X134876493Y-67839524D01*
X134680257Y-67992261D01*
X134511833Y-68175217D01*
X134375826Y-68383393D01*
X134275936Y-68611118D01*
X134214892Y-68852175D01*
X134214890Y-68852187D01*
X134194357Y-69099994D01*
X134194357Y-69100005D01*
X134214890Y-69347812D01*
X134214892Y-69347824D01*
X134275936Y-69588881D01*
X134375826Y-69816606D01*
X134511833Y-70024782D01*
X134544245Y-70059991D01*
X134680256Y-70207738D01*
X134876491Y-70360474D01*
X134876493Y-70360475D01*
X135067228Y-70463696D01*
X135095190Y-70478828D01*
X135105682Y-70482430D01*
X135106524Y-70482719D01*
X135163539Y-70523106D01*
X135189668Y-70587906D01*
X135176615Y-70656546D01*
X135128526Y-70707233D01*
X135106524Y-70717281D01*
X135095191Y-70721171D01*
X135095188Y-70721172D01*
X134876493Y-70839524D01*
X134710062Y-70969063D01*
X134680256Y-70992262D01*
X134511836Y-71175215D01*
X134441751Y-71282489D01*
X134434673Y-71293322D01*
X134381526Y-71338678D01*
X134330864Y-71349500D01*
X132526080Y-71349500D01*
X132381092Y-71378340D01*
X132381082Y-71378343D01*
X132244511Y-71434912D01*
X132244498Y-71434919D01*
X132121584Y-71517048D01*
X132121580Y-71517051D01*
X130142050Y-73496580D01*
X130142044Y-73496588D01*
X130092812Y-73570268D01*
X130092813Y-73570269D01*
X130059921Y-73619496D01*
X130059914Y-73619508D01*
X130003342Y-73756086D01*
X130003340Y-73756092D01*
X129974500Y-73901079D01*
X129974500Y-73901082D01*
X129974500Y-78773918D01*
X129974500Y-78773920D01*
X129974499Y-78773920D01*
X126775500Y-78773920D01*
X126775499Y-77749992D01*
X126764999Y-77647203D01*
X126709814Y-77480666D01*
X126709813Y-77480664D01*
X126707542Y-77473811D01*
X126709364Y-77473207D01*
X126700500Y-77433202D01*
X126700500Y-76277027D01*
X126720185Y-76209988D01*
X126733265Y-76193049D01*
X126888164Y-76024785D01*
X127024173Y-75816607D01*
X127124063Y-75588881D01*
X127185108Y-75347821D01*
X127185174Y-75347029D01*
X127205643Y-75100005D01*
X127205643Y-75099994D01*
X127185109Y-74852187D01*
X127185107Y-74852175D01*
X127124063Y-74611118D01*
X127024173Y-74383393D01*
X126888166Y-74175217D01*
X126802035Y-74081654D01*
X126719744Y-73992262D01*
X126523509Y-73839526D01*
X126523507Y-73839525D01*
X126523506Y-73839524D01*
X126304811Y-73721172D01*
X126304802Y-73721169D01*
X126069616Y-73640429D01*
X125824335Y-73599500D01*
X125575665Y-73599500D01*
X125330383Y-73640429D01*
X125095197Y-73721169D01*
X125095188Y-73721172D01*
X124876493Y-73839524D01*
X124680257Y-73992261D01*
X124511833Y-74175217D01*
X124375826Y-74383393D01*
X124275936Y-74611118D01*
X124214892Y-74852175D01*
X124214890Y-74852187D01*
X124194357Y-75099994D01*
X124194357Y-75100005D01*
X124214890Y-75347812D01*
X124214892Y-75347824D01*
X124275936Y-75588881D01*
X124375826Y-75816606D01*
X124511833Y-76024782D01*
X124511836Y-76024785D01*
X124666730Y-76193045D01*
X124697652Y-76255698D01*
X124699500Y-76277027D01*
X124699500Y-77416000D01*
X124679815Y-77483039D01*
X124627011Y-77528794D01*
X124575500Y-77540000D01*
X123865032Y-77540000D01*
X123797993Y-77520315D01*
X123759494Y-77481097D01*
X123667319Y-77331659D01*
X123667316Y-77331655D01*
X123543345Y-77207684D01*
X123394124Y-77115643D01*
X123394121Y-77115642D01*
X123338419Y-77097184D01*
X123280974Y-77057411D01*
X123254152Y-76992894D01*
X123266467Y-76924119D01*
X123314011Y-76872919D01*
X123338418Y-76861774D01*
X123344334Y-76859814D01*
X123493656Y-76767712D01*
X123617712Y-76643656D01*
X123709814Y-76494334D01*
X123764999Y-76327797D01*
X123775500Y-76225009D01*
X123775499Y-74874992D01*
X123773169Y-74852187D01*
X123764999Y-74772203D01*
X123764998Y-74772200D01*
X123757310Y-74749000D01*
X123709814Y-74605666D01*
X123617712Y-74456344D01*
X123536819Y-74375451D01*
X123503334Y-74314128D01*
X123500500Y-74287770D01*
X123500500Y-73269828D01*
X123505424Y-73235233D01*
X123547597Y-73090073D01*
X123547598Y-73090067D01*
X123548533Y-73078188D01*
X123550500Y-73053194D01*
X123550500Y-71896806D01*
X123547598Y-71859931D01*
X123545348Y-71852187D01*
X123506279Y-71717712D01*
X123501744Y-71702102D01*
X123418081Y-71560635D01*
X123418079Y-71560633D01*
X123418076Y-71560629D01*
X123301870Y-71444423D01*
X123301862Y-71444417D01*
X123160396Y-71360755D01*
X123160393Y-71360754D01*
X123002573Y-71314902D01*
X123002567Y-71314901D01*
X122965701Y-71312000D01*
X122965694Y-71312000D01*
X122567895Y-71312000D01*
X122500856Y-71292315D01*
X122455101Y-71239511D01*
X122445157Y-71170353D01*
X122465671Y-71122003D01*
X122464110Y-71121080D01*
X122485152Y-71085499D01*
X122551744Y-70972898D01*
X122595826Y-70821169D01*
X122597597Y-70815073D01*
X122597598Y-70815067D01*
X122597813Y-70812331D01*
X122600500Y-70778194D01*
X122600500Y-70512229D01*
X122620185Y-70445190D01*
X122636819Y-70424548D01*
X123174548Y-69886819D01*
X123235871Y-69853334D01*
X123262229Y-69850500D01*
X124330864Y-69850500D01*
X124397903Y-69870185D01*
X124434672Y-69906677D01*
X124511836Y-70024785D01*
X124680256Y-70207738D01*
X124876491Y-70360474D01*
X124876493Y-70360475D01*
X125067228Y-70463696D01*
X125095190Y-70478828D01*
X125330386Y-70559571D01*
X125575665Y-70600500D01*
X125824335Y-70600500D01*
X126069614Y-70559571D01*
X126304810Y-70478828D01*
X126523509Y-70360474D01*
X126719744Y-70207738D01*
X126888164Y-70024785D01*
X127024173Y-69816607D01*
X127124063Y-69588881D01*
X127185108Y-69347821D01*
X127186170Y-69335004D01*
X127205643Y-69100005D01*
X127205643Y-69099994D01*
X127185109Y-68852187D01*
X127185107Y-68852175D01*
X127124063Y-68611118D01*
X127024173Y-68383393D01*
X126888166Y-68175217D01*
X126837226Y-68119882D01*
X126719744Y-67992262D01*
X126523509Y-67839526D01*
X126523507Y-67839525D01*
X126523506Y-67839524D01*
X126304811Y-67721172D01*
X126304802Y-67721169D01*
X126069616Y-67640429D01*
X125824335Y-67599500D01*
X125575665Y-67599500D01*
X125330383Y-67640429D01*
X125095197Y-67721169D01*
X125095188Y-67721172D01*
X124876493Y-67839524D01*
X124682923Y-67990186D01*
X124680256Y-67992262D01*
X124511836Y-68175215D01*
X124446502Y-68275217D01*
X124434673Y-68293322D01*
X124381526Y-68338678D01*
X124330864Y-68349500D01*
X123724500Y-68349500D01*
X123657461Y-68329815D01*
X123611706Y-68277011D01*
X123600500Y-68225500D01*
X123600500Y-68035718D01*
X123620185Y-67968679D01*
X123661380Y-67928986D01*
X123732665Y-67886828D01*
X123764365Y-67868081D01*
X123880581Y-67751865D01*
X123964244Y-67610398D01*
X124000701Y-67484915D01*
X124010097Y-67452573D01*
X124010098Y-67452567D01*
X124013000Y-67415694D01*
X124013000Y-66984306D01*
X124010098Y-66947431D01*
X124009870Y-66946647D01*
X123964245Y-66789606D01*
X123964244Y-66789603D01*
X123964244Y-66789602D01*
X123880581Y-66648135D01*
X123880579Y-66648133D01*
X123880576Y-66648129D01*
X123764370Y-66531923D01*
X123764361Y-66531916D01*
X123661379Y-66471013D01*
X123613695Y-66419944D01*
X123600500Y-66364281D01*
X123600500Y-66174986D01*
X137512501Y-66174986D01*
X137522994Y-66277697D01*
X137578141Y-66444119D01*
X137578143Y-66444124D01*
X137670184Y-66593345D01*
X137794154Y-66717315D01*
X137943375Y-66809356D01*
X137943380Y-66809358D01*
X138109802Y-66864505D01*
X138109809Y-66864506D01*
X138212519Y-66874999D01*
X138324999Y-66874999D01*
X138325000Y-66874998D01*
X138325000Y-65750000D01*
X137512501Y-65750000D01*
X137512501Y-66174986D01*
X123600500Y-66174986D01*
X123600500Y-64949499D01*
X123620185Y-64882460D01*
X123672989Y-64836705D01*
X123724500Y-64825499D01*
X123812502Y-64825499D01*
X123812508Y-64825499D01*
X123817266Y-64825013D01*
X137512500Y-64825013D01*
X137512500Y-65250000D01*
X138325000Y-65250000D01*
X138325000Y-64125000D01*
X138212527Y-64125000D01*
X138212512Y-64125001D01*
X138109802Y-64135494D01*
X137943380Y-64190641D01*
X137943375Y-64190643D01*
X137794154Y-64282684D01*
X137670184Y-64406654D01*
X137578143Y-64555875D01*
X137578141Y-64555880D01*
X137522994Y-64722302D01*
X137522993Y-64722309D01*
X137512500Y-64825013D01*
X123817266Y-64825013D01*
X123915297Y-64814999D01*
X124081834Y-64759814D01*
X124231156Y-64667712D01*
X124355212Y-64543656D01*
X124447314Y-64394334D01*
X124502499Y-64227797D01*
X124513000Y-64125009D01*
X124512999Y-62774992D01*
X124502499Y-62672203D01*
X124447314Y-62505666D01*
X124355212Y-62356344D01*
X124231156Y-62232288D01*
X124081834Y-62140186D01*
X123915297Y-62085001D01*
X123915295Y-62085000D01*
X123812510Y-62074500D01*
X123087498Y-62074500D01*
X123087480Y-62074501D01*
X122984703Y-62085000D01*
X122984700Y-62085001D01*
X122818168Y-62140185D01*
X122818163Y-62140187D01*
X122668842Y-62232289D01*
X122544787Y-62356344D01*
X122467841Y-62481096D01*
X122415893Y-62527821D01*
X122362302Y-62540000D01*
X121612698Y-62540000D01*
X121545659Y-62520315D01*
X121507159Y-62481096D01*
X121430212Y-62356344D01*
X121306157Y-62232289D01*
X121306156Y-62232288D01*
X121156834Y-62140186D01*
X120990297Y-62085001D01*
X120990295Y-62085000D01*
X120887510Y-62074500D01*
X120162498Y-62074500D01*
X120162480Y-62074501D01*
X120059703Y-62085000D01*
X120059700Y-62085001D01*
X119893168Y-62140185D01*
X119893163Y-62140187D01*
X119743842Y-62232289D01*
X119619789Y-62356342D01*
X119527687Y-62505663D01*
X119527685Y-62505668D01*
X119491621Y-62614504D01*
X119451848Y-62671949D01*
X119387333Y-62698772D01*
X119373915Y-62699500D01*
X119361999Y-62699500D01*
X119294960Y-62679815D01*
X119249205Y-62627011D01*
X119237999Y-62575500D01*
X119237999Y-62374998D01*
X119237998Y-62374981D01*
X119227499Y-62272203D01*
X119227498Y-62272200D01*
X119183753Y-62140187D01*
X119172314Y-62105666D01*
X119080212Y-61956344D01*
X118956156Y-61832288D01*
X118806834Y-61740186D01*
X118640297Y-61685001D01*
X118640295Y-61685000D01*
X118537510Y-61674500D01*
X117812498Y-61674500D01*
X117812480Y-61674501D01*
X117709703Y-61685000D01*
X117709700Y-61685001D01*
X117543168Y-61740185D01*
X117543163Y-61740187D01*
X117393842Y-61832289D01*
X117269787Y-61956344D01*
X117192841Y-62081096D01*
X117140893Y-62127821D01*
X117087302Y-62140000D01*
X116337111Y-62140000D01*
X116270072Y-62120315D01*
X116231572Y-62081097D01*
X116154815Y-61956654D01*
X116030845Y-61832684D01*
X115881624Y-61740643D01*
X115881619Y-61740641D01*
X115715197Y-61685494D01*
X115715190Y-61685493D01*
X115612486Y-61675000D01*
X115500000Y-61675000D01*
X115500000Y-64424999D01*
X115612472Y-64424999D01*
X115612486Y-64424998D01*
X115715197Y-64414505D01*
X115881619Y-64359358D01*
X115881624Y-64359356D01*
X116030845Y-64267315D01*
X116154815Y-64143345D01*
X116231572Y-64018903D01*
X116283520Y-63972179D01*
X116337111Y-63960000D01*
X117087302Y-63960000D01*
X117154341Y-63979685D01*
X117192840Y-64018903D01*
X117197268Y-64026082D01*
X117264753Y-64135494D01*
X117269788Y-64143656D01*
X117393844Y-64267712D01*
X117543166Y-64359814D01*
X117709703Y-64414999D01*
X117812491Y-64425500D01*
X118537508Y-64425499D01*
X118537516Y-64425498D01*
X118537519Y-64425498D01*
X118593802Y-64419748D01*
X118640297Y-64414999D01*
X118806834Y-64359814D01*
X118956156Y-64267712D01*
X118987049Y-64236819D01*
X119048372Y-64203334D01*
X119074730Y-64200500D01*
X119373915Y-64200500D01*
X119440954Y-64220185D01*
X119486709Y-64272989D01*
X119491618Y-64285489D01*
X119516096Y-64359358D01*
X119527685Y-64394331D01*
X119527687Y-64394336D01*
X119546600Y-64424999D01*
X119619788Y-64543656D01*
X119743844Y-64667712D01*
X119765594Y-64681127D01*
X119812320Y-64733073D01*
X119824500Y-64786667D01*
X119824500Y-65375500D01*
X119804815Y-65442539D01*
X119752011Y-65488294D01*
X119700500Y-65499500D01*
X119046870Y-65499500D01*
X118979831Y-65479815D01*
X118934076Y-65427011D01*
X118929164Y-65414505D01*
X118904475Y-65340000D01*
X118884814Y-65280666D01*
X118792712Y-65131344D01*
X118668656Y-65007288D01*
X118519334Y-64915186D01*
X118352797Y-64860001D01*
X118352795Y-64860000D01*
X118250010Y-64849500D01*
X117499998Y-64849500D01*
X117499980Y-64849501D01*
X117397203Y-64860000D01*
X117397200Y-64860001D01*
X117230668Y-64915185D01*
X117230663Y-64915187D01*
X117081342Y-65007289D01*
X116957287Y-65131344D01*
X116864921Y-65281096D01*
X116812973Y-65327821D01*
X116759382Y-65340000D01*
X116040618Y-65340000D01*
X115973579Y-65320315D01*
X115935079Y-65281096D01*
X115915206Y-65248877D01*
X115842712Y-65131344D01*
X115718656Y-65007288D01*
X115569334Y-64915186D01*
X115402797Y-64860001D01*
X115402795Y-64860000D01*
X115300010Y-64849500D01*
X114549998Y-64849500D01*
X114549980Y-64849501D01*
X114447203Y-64860000D01*
X114447200Y-64860001D01*
X114280668Y-64915185D01*
X114280663Y-64915187D01*
X114131342Y-65007289D01*
X114007289Y-65131342D01*
X113915187Y-65280663D01*
X113915185Y-65280668D01*
X113899560Y-65327821D01*
X113860001Y-65447203D01*
X113860001Y-65447204D01*
X113860000Y-65447204D01*
X113849500Y-65549983D01*
X113849500Y-66950001D01*
X113849501Y-66950018D01*
X113860000Y-67052796D01*
X113860001Y-67052799D01*
X113915185Y-67219331D01*
X113915187Y-67219336D01*
X113918153Y-67224145D01*
X114007287Y-67368655D01*
X114007289Y-67368657D01*
X114113181Y-67474549D01*
X114146666Y-67535872D01*
X114149500Y-67562230D01*
X114149500Y-68000270D01*
X114129815Y-68067309D01*
X114113181Y-68087951D01*
X113994788Y-68206343D01*
X113994787Y-68206344D01*
X113917841Y-68331096D01*
X113865893Y-68377821D01*
X113812302Y-68390000D01*
X113062698Y-68390000D01*
X112995659Y-68370315D01*
X112957159Y-68331096D01*
X112943346Y-68308702D01*
X112880212Y-68206344D01*
X112756156Y-68082288D01*
X112627105Y-68002689D01*
X112606836Y-67990187D01*
X112606831Y-67990185D01*
X112605362Y-67989698D01*
X112440297Y-67935001D01*
X112440295Y-67935000D01*
X112337510Y-67924500D01*
X111612498Y-67924500D01*
X111612480Y-67924501D01*
X111509703Y-67935000D01*
X111509700Y-67935001D01*
X111343168Y-67990185D01*
X111343163Y-67990187D01*
X111193842Y-68082289D01*
X111069789Y-68206342D01*
X111055304Y-68229825D01*
X111027307Y-68275218D01*
X111027073Y-68275597D01*
X110975125Y-68322321D01*
X110921534Y-68334500D01*
X109612309Y-68334500D01*
X109545270Y-68314815D01*
X109524628Y-68298181D01*
X108812293Y-67585846D01*
X108828942Y-67578951D01*
X108959970Y-67491401D01*
X109071401Y-67379970D01*
X109158951Y-67248942D01*
X109165846Y-67232294D01*
X109887703Y-67954151D01*
X109887704Y-67954150D01*
X109941393Y-67886828D01*
X109941400Y-67886817D01*
X110076290Y-67653181D01*
X110174851Y-67402052D01*
X110174857Y-67402033D01*
X110234886Y-67139028D01*
X110234886Y-67139026D01*
X110255047Y-66870004D01*
X110255047Y-66869995D01*
X110234886Y-66600973D01*
X110234886Y-66600971D01*
X110174857Y-66337966D01*
X110174851Y-66337947D01*
X110076290Y-66086818D01*
X110076291Y-66086818D01*
X109941397Y-65853177D01*
X109887704Y-65785847D01*
X109165846Y-66507705D01*
X109158951Y-66491058D01*
X109071401Y-66360030D01*
X108959970Y-66248599D01*
X108828942Y-66161049D01*
X108812294Y-66154153D01*
X109535150Y-65431296D01*
X109352517Y-65306779D01*
X109352516Y-65306778D01*
X109109460Y-65189730D01*
X109109462Y-65189730D01*
X108851662Y-65110209D01*
X108851656Y-65110207D01*
X108584898Y-65070000D01*
X108315101Y-65070000D01*
X108048343Y-65110207D01*
X108048337Y-65110209D01*
X107790538Y-65189730D01*
X107547485Y-65306778D01*
X107547476Y-65306783D01*
X107364848Y-65431296D01*
X108087705Y-66154153D01*
X108071058Y-66161049D01*
X107940030Y-66248599D01*
X107828599Y-66360030D01*
X107741049Y-66491058D01*
X107734153Y-66507706D01*
X107012295Y-65785848D01*
X106958600Y-65853180D01*
X106823709Y-66086818D01*
X106725148Y-66337947D01*
X106725142Y-66337966D01*
X106665113Y-66600971D01*
X106665113Y-66600973D01*
X106644953Y-66869995D01*
X106644953Y-66870004D01*
X106665113Y-67139026D01*
X106665113Y-67139028D01*
X106725142Y-67402033D01*
X106725148Y-67402052D01*
X106774706Y-67528324D01*
X106780875Y-67597921D01*
X106748437Y-67659804D01*
X106687692Y-67694327D01*
X106622729Y-67692117D01*
X106517973Y-67659804D01*
X106400623Y-67623606D01*
X106400619Y-67623605D01*
X106400615Y-67623604D01*
X106270268Y-67603957D01*
X106141187Y-67584500D01*
X106141182Y-67584500D01*
X105878818Y-67584500D01*
X105878812Y-67584500D01*
X105725642Y-67607588D01*
X105619385Y-67623604D01*
X105619382Y-67623605D01*
X105619376Y-67623606D01*
X105368673Y-67700938D01*
X105171052Y-67796107D01*
X105102111Y-67807459D01*
X105037976Y-67779736D01*
X104999011Y-67721741D01*
X104997586Y-67651886D01*
X105001823Y-67639085D01*
X105094851Y-67402052D01*
X105094857Y-67402033D01*
X105154886Y-67139028D01*
X105154886Y-67139026D01*
X105175047Y-66870004D01*
X105175047Y-66869995D01*
X105154886Y-66600973D01*
X105154886Y-66600971D01*
X105094857Y-66337966D01*
X105094851Y-66337947D01*
X104996290Y-66086818D01*
X104996291Y-66086818D01*
X104861397Y-65853177D01*
X104807704Y-65785847D01*
X104085846Y-66507705D01*
X104078951Y-66491058D01*
X103991401Y-66360030D01*
X103879970Y-66248599D01*
X103748942Y-66161049D01*
X103732294Y-66154153D01*
X104455150Y-65431296D01*
X104272517Y-65306779D01*
X104272516Y-65306778D01*
X104029460Y-65189730D01*
X104029462Y-65189730D01*
X103771662Y-65110209D01*
X103771656Y-65110207D01*
X103504898Y-65070000D01*
X103235101Y-65070000D01*
X102968343Y-65110207D01*
X102968337Y-65110209D01*
X102710538Y-65189730D01*
X102467485Y-65306778D01*
X102467476Y-65306783D01*
X102284848Y-65431296D01*
X103007705Y-66154153D01*
X102991058Y-66161049D01*
X102860030Y-66248599D01*
X102748599Y-66360030D01*
X102661049Y-66491058D01*
X102654153Y-66507706D01*
X101932295Y-65785848D01*
X101878600Y-65853180D01*
X101743709Y-66086818D01*
X101645148Y-66337947D01*
X101645142Y-66337966D01*
X101585113Y-66600971D01*
X101585113Y-66600973D01*
X101564953Y-66869995D01*
X100500500Y-66869995D01*
X100500500Y-63724986D01*
X114187501Y-63724986D01*
X114197994Y-63827697D01*
X114253141Y-63994119D01*
X114253143Y-63994124D01*
X114345184Y-64143345D01*
X114469154Y-64267315D01*
X114618375Y-64359356D01*
X114618380Y-64359358D01*
X114784802Y-64414505D01*
X114784809Y-64414506D01*
X114887519Y-64424999D01*
X114999999Y-64424999D01*
X115000000Y-64424998D01*
X115000000Y-63300000D01*
X114187501Y-63300000D01*
X114187501Y-63724986D01*
X100500500Y-63724986D01*
X100500500Y-62375013D01*
X114187500Y-62375013D01*
X114187500Y-62800000D01*
X115000000Y-62800000D01*
X115000000Y-61675000D01*
X114887527Y-61675000D01*
X114887512Y-61675001D01*
X114784802Y-61685494D01*
X114618380Y-61740641D01*
X114618375Y-61740643D01*
X114469154Y-61832684D01*
X114345184Y-61956654D01*
X114253143Y-62105875D01*
X114253141Y-62105880D01*
X114197994Y-62272302D01*
X114197993Y-62272309D01*
X114187500Y-62375013D01*
X100500500Y-62375013D01*
X100500500Y-55072626D01*
X100520185Y-55005587D01*
X100523400Y-55002801D01*
X100721054Y-55002801D01*
X100743477Y-55037691D01*
X100748360Y-55066726D01*
X100764447Y-55404450D01*
X100822071Y-55805231D01*
X100917531Y-56198722D01*
X100917534Y-56198733D01*
X101049956Y-56581340D01*
X101049966Y-56581365D01*
X101218168Y-56949675D01*
X101420621Y-57300335D01*
X101420627Y-57300343D01*
X101655485Y-57630154D01*
X101822985Y-57823460D01*
X103313098Y-56333347D01*
X103380076Y-56420635D01*
X103579365Y-56619924D01*
X103666650Y-56686900D01*
X102174928Y-58178622D01*
X102213676Y-58215568D01*
X102213695Y-58215585D01*
X102531968Y-58465877D01*
X102872594Y-58684782D01*
X103232485Y-58870319D01*
X103608383Y-59020806D01*
X103608395Y-59020810D01*
X103996882Y-59134880D01*
X103996899Y-59134884D01*
X104394460Y-59211508D01*
X104394472Y-59211510D01*
X104797554Y-59250000D01*
X105202446Y-59250000D01*
X105605527Y-59211510D01*
X105605539Y-59211508D01*
X106003100Y-59134884D01*
X106003117Y-59134880D01*
X106391604Y-59020810D01*
X106391616Y-59020806D01*
X106767507Y-58870322D01*
X106767511Y-58870320D01*
X107127406Y-58684782D01*
X107468031Y-58465877D01*
X107786314Y-58215578D01*
X107825069Y-58178622D01*
X106333348Y-56686901D01*
X106420635Y-56619924D01*
X106619924Y-56420635D01*
X106686901Y-56333348D01*
X108177012Y-57823459D01*
X108344512Y-57630156D01*
X108344523Y-57630143D01*
X108579372Y-57300343D01*
X108579378Y-57300335D01*
X108781831Y-56949675D01*
X108950033Y-56581365D01*
X108950043Y-56581340D01*
X109082465Y-56198733D01*
X109082468Y-56198722D01*
X109177928Y-55805231D01*
X109235552Y-55404450D01*
X109254818Y-55000000D01*
X166495181Y-55000000D01*
X166514447Y-55404450D01*
X166572071Y-55805231D01*
X166667531Y-56198722D01*
X166667534Y-56198733D01*
X166799956Y-56581340D01*
X166799966Y-56581365D01*
X166968168Y-56949675D01*
X167170621Y-57300335D01*
X167170627Y-57300343D01*
X167405485Y-57630154D01*
X167572985Y-57823460D01*
X169063098Y-56333347D01*
X169130076Y-56420635D01*
X169329365Y-56619924D01*
X169416650Y-56686900D01*
X167924928Y-58178622D01*
X167963676Y-58215568D01*
X167963695Y-58215585D01*
X168281968Y-58465877D01*
X168622594Y-58684782D01*
X168982485Y-58870319D01*
X169358383Y-59020806D01*
X169358395Y-59020810D01*
X169746882Y-59134880D01*
X169746899Y-59134884D01*
X170144460Y-59211508D01*
X170144472Y-59211510D01*
X170547554Y-59250000D01*
X170952446Y-59250000D01*
X171355527Y-59211510D01*
X171355539Y-59211508D01*
X171753100Y-59134884D01*
X171753117Y-59134880D01*
X172141604Y-59020810D01*
X172141616Y-59020806D01*
X172517507Y-58870322D01*
X172517511Y-58870320D01*
X172877406Y-58684782D01*
X173218031Y-58465877D01*
X173536314Y-58215578D01*
X173575069Y-58178622D01*
X172083348Y-56686901D01*
X172170635Y-56619924D01*
X172369924Y-56420635D01*
X172436901Y-56333348D01*
X173927012Y-57823459D01*
X174094512Y-57630156D01*
X174094523Y-57630143D01*
X174329372Y-57300343D01*
X174329378Y-57300335D01*
X174531831Y-56949675D01*
X174700033Y-56581365D01*
X174700043Y-56581340D01*
X174832465Y-56198733D01*
X174832468Y-56198722D01*
X174927928Y-55805231D01*
X174985552Y-55404450D01*
X175001640Y-55066726D01*
X175024493Y-55000699D01*
X175028945Y-54997197D01*
X175006523Y-54962308D01*
X175001640Y-54933273D01*
X174985552Y-54595549D01*
X174927928Y-54194768D01*
X174832468Y-53801277D01*
X174832465Y-53801266D01*
X174700043Y-53418659D01*
X174700033Y-53418634D01*
X174531831Y-53050324D01*
X174329378Y-52699664D01*
X174329372Y-52699656D01*
X174094523Y-52369856D01*
X174094512Y-52369843D01*
X173927013Y-52176538D01*
X172436900Y-53666650D01*
X172369924Y-53579365D01*
X172170635Y-53380076D01*
X172083348Y-53313098D01*
X173575070Y-51821376D01*
X173536323Y-51784431D01*
X173536304Y-51784414D01*
X173218031Y-51534122D01*
X172877406Y-51315217D01*
X172517511Y-51129679D01*
X172517507Y-51129677D01*
X172141616Y-50979193D01*
X172141604Y-50979189D01*
X171753117Y-50865119D01*
X171753100Y-50865115D01*
X171355539Y-50788491D01*
X171355527Y-50788489D01*
X170952446Y-50750000D01*
X170547554Y-50750000D01*
X170144472Y-50788489D01*
X170144460Y-50788491D01*
X169746899Y-50865115D01*
X169746882Y-50865119D01*
X169358395Y-50979189D01*
X169358383Y-50979193D01*
X168982485Y-51129680D01*
X168622594Y-51315217D01*
X168281968Y-51534122D01*
X167963685Y-51784421D01*
X167963673Y-51784432D01*
X167924929Y-51821375D01*
X167924929Y-51821376D01*
X169416651Y-53313098D01*
X169329365Y-53380076D01*
X169130076Y-53579365D01*
X169063098Y-53666651D01*
X167572986Y-52176539D01*
X167405485Y-52369845D01*
X167170627Y-52699656D01*
X167170621Y-52699664D01*
X166968168Y-53050324D01*
X166799966Y-53418634D01*
X166799956Y-53418659D01*
X166667534Y-53801266D01*
X166667531Y-53801277D01*
X166572071Y-54194768D01*
X166514447Y-54595549D01*
X166495181Y-55000000D01*
X109254818Y-55000000D01*
X109235552Y-54595549D01*
X109177928Y-54194768D01*
X109082468Y-53801277D01*
X109082465Y-53801266D01*
X108950043Y-53418659D01*
X108950033Y-53418634D01*
X108781831Y-53050324D01*
X108579378Y-52699664D01*
X108579372Y-52699656D01*
X108344523Y-52369856D01*
X108344512Y-52369843D01*
X108177013Y-52176538D01*
X106686900Y-53666650D01*
X106619924Y-53579365D01*
X106420635Y-53380076D01*
X106333348Y-53313098D01*
X107825070Y-51821376D01*
X107786323Y-51784431D01*
X107786304Y-51784414D01*
X107468031Y-51534122D01*
X107127406Y-51315217D01*
X106767511Y-51129679D01*
X106767507Y-51129677D01*
X106391616Y-50979193D01*
X106391604Y-50979189D01*
X106003117Y-50865119D01*
X106003100Y-50865115D01*
X105605539Y-50788491D01*
X105605527Y-50788489D01*
X105202446Y-50750000D01*
X104797554Y-50750000D01*
X104394472Y-50788489D01*
X104394460Y-50788491D01*
X103996899Y-50865115D01*
X103996882Y-50865119D01*
X103608395Y-50979189D01*
X103608383Y-50979193D01*
X103232485Y-51129680D01*
X102872594Y-51315217D01*
X102531968Y-51534122D01*
X102213685Y-51784421D01*
X102213673Y-51784432D01*
X102174929Y-51821375D01*
X102174929Y-51821376D01*
X103666651Y-53313098D01*
X103579365Y-53380076D01*
X103380076Y-53579365D01*
X103313098Y-53666651D01*
X101822986Y-52176539D01*
X101655485Y-52369845D01*
X101420627Y-52699656D01*
X101420621Y-52699664D01*
X101218168Y-53050324D01*
X101049966Y-53418634D01*
X101049956Y-53418659D01*
X100917534Y-53801266D01*
X100917531Y-53801277D01*
X100822071Y-54194768D01*
X100764447Y-54595549D01*
X100748360Y-54933273D01*
X100725507Y-54999300D01*
X100721054Y-55002801D01*
X100523400Y-55002801D01*
X100528242Y-54998605D01*
X100503995Y-54956607D01*
X100500500Y-54927373D01*
X100500500Y-50624500D01*
X100520185Y-50557461D01*
X100572989Y-50511706D01*
X100624500Y-50500500D01*
X175125500Y-50500500D01*
X175192539Y-50520185D01*
G37*
G04 #@! TD.AperFunction*
M02*
