M48
; DRILL file {KiCad 9.0.1} date 2025-04-20T19:02:34-0400
; FORMAT={-:-/ absolute / metric / decimal}
; #@! TF.CreationDate,2025-04-20T19:02:34-04:00
; #@! TF.GenerationSoftware,Kicad,Pcbnew,9.0.1
; #@! TF.FileFunction,Plated,1,2,PTH
FMAT,2
METRIC
; #@! TA.AperFunction,Plated,PTH,ViaDrill
T1C0.500
; #@! TA.AperFunction,Plated,PTH,ComponentDrill
T2C0.800
; #@! TA.AperFunction,Plated,PTH,ComponentDrill
T3C1.000
; #@! TA.AperFunction,Plated,PTH,ComponentDrill
T4C1.100
; #@! TA.AperFunction,Plated,PTH,ComponentDrill
T5C1.200
; #@! TA.AperFunction,Plated,PTH,ComponentDrill
T6C1.500
; #@! TA.AperFunction,Plated,PTH,ComponentDrill
T7C1.600
; #@! TA.AperFunction,Plated,PTH,ComponentDrill
T8C4.300
%
G90
G05
T1
X106.975Y-75.275
X111.95Y-76.7
X113.35Y-63.05
X114.9Y-76.7
X115.5Y-83.9
X115.5Y-86.3
X116.45Y-64.7
X116.85Y-73.65
X117.95Y-75.55
X118.075Y-92.4
X118.6Y-104.25
X119.35Y-70.45
X119.4Y-73.4
X119.55Y-61.575
X120.85Y-78.45
X123.225Y-70.7
X124.1Y-76.9
X124.6Y-67.3
X125.2Y-62.8
X125.45Y-83.35
X125.5Y-72.1
X125.5Y-86.45
X125.85Y-90.5
X127.6Y-70.0
X127.6Y-74.25
X130.0Y-78.85
X130.3Y-96.5
X130.8Y-74.275
X130.85Y-70.1
X131.4Y-92.6
X132.35Y-81.95
X133.7Y-65.5
X133.85Y-78.775
X134.075Y-70.6
X134.2Y-73.6
X135.6Y-63.35
X137.05Y-72.15
X138.1Y-103.35
X138.6Y-81.0
X139.287Y-76.3
X139.3Y-68.0
X139.8Y-72.15
X141.2Y-80.55
X141.3Y-63.65
X142.25Y-99.6
X143.05Y-92.65
X143.325Y-74.4
X143.45Y-65.65
X144.35Y-80.9
X144.475Y-72.45
X145.55Y-65.65
X145.575Y-74.2
X147.225Y-73.325
X147.5Y-65.0
X147.537Y-79.15
X147.55Y-70.9
X148.25Y-80.6
X148.3Y-95.55
X148.35Y-72.25
X148.7Y-86.65
X148.95Y-73.65
X149.05Y-70.7
X149.325Y-65.5
X149.325Y-78.7
X149.625Y-67.3
X149.625Y-77.125
X151.45Y-89.125
X152.0Y-67.725
X152.0Y-76.7
X152.0Y-83.9
X152.35Y-70.225
X153.6Y-94.1
X154.2Y-73.725
X155.0Y-83.9
X155.3Y-89.975
X155.625Y-70.175
X157.4Y-72.2
X160.2Y-92.975
T2
X128.7Y-83.65
X128.7Y-86.19
X128.7Y-88.73
T3
X125.7Y-69.1
X125.7Y-75.1
X132.7Y-69.1
X132.7Y-75.1
X150.5Y-69.2
X150.5Y-75.2
X157.5Y-69.2
X157.5Y-75.2
T4
X106.95Y-84.45
X106.95Y-86.95
T5
X109.0Y-94.7
X109.0Y-99.7
X132.7Y-72.1
X150.5Y-72.2
T6
X106.01Y-69.335
X164.56Y-66.465
T7
X103.37Y-66.87
X103.37Y-71.95
X108.45Y-66.87
X108.45Y-71.95
X161.92Y-64.0
X161.92Y-69.08
X167.0Y-64.0
X167.0Y-69.08
T8
X105.0Y-55.0
X105.0Y-111.0
X165.0Y-55.0
X165.0Y-111.0
M30
