G04 #@! TF.GenerationSoftware,KiCad,Pcbnew,8.0.6*
G04 #@! TF.CreationDate,2024-12-01T18:53:23-05:00*
G04 #@! TF.ProjectId,t41_2_low_power_amplifier,7434315f-325f-46c6-9f77-5f706f776572,rev?*
G04 #@! TF.SameCoordinates,Original*
G04 #@! TF.FileFunction,Legend,Bot*
G04 #@! TF.FilePolarity,Positive*
%FSLAX46Y46*%
G04 Gerber Fmt 4.6, Leading zero omitted, Abs format (unit mm)*
G04 Created by KiCad (PCBNEW 8.0.6) date 2024-12-01 18:53:23*
%MOMM*%
%LPD*%
G01*
G04 APERTURE LIST*
G04 Aperture macros list*
%AMRoundRect*
0 Rectangle with rounded corners*
0 $1 Rounding radius*
0 $2 $3 $4 $5 $6 $7 $8 $9 X,Y pos of 4 corners*
0 Add a 4 corners polygon primitive as box body*
4,1,4,$2,$3,$4,$5,$6,$7,$8,$9,$2,$3,0*
0 Add four circle primitives for the rounded corners*
1,1,$1+$1,$2,$3*
1,1,$1+$1,$4,$5*
1,1,$1+$1,$6,$7*
1,1,$1+$1,$8,$9*
0 Add four rect primitives between the rounded corners*
20,1,$1+$1,$2,$3,$4,$5,0*
20,1,$1+$1,$4,$5,$6,$7,0*
20,1,$1+$1,$6,$7,$8,$9,0*
20,1,$1+$1,$8,$9,$2,$3,0*%
G04 Aperture macros list end*
%ADD10C,0.150000*%
%ADD11C,0.120000*%
%ADD12C,7.500000*%
%ADD13C,2.000000*%
%ADD14C,1.440000*%
%ADD15C,2.600000*%
%ADD16C,2.500000*%
%ADD17R,2.400000X2.400000*%
%ADD18C,2.400000*%
%ADD19C,2.100000*%
%ADD20RoundRect,0.250000X0.325000X0.650000X-0.325000X0.650000X-0.325000X-0.650000X0.325000X-0.650000X0*%
%ADD21RoundRect,0.250000X-0.325000X-0.650000X0.325000X-0.650000X0.325000X0.650000X-0.325000X0.650000X0*%
%ADD22RoundRect,0.150000X0.512500X0.150000X-0.512500X0.150000X-0.512500X-0.150000X0.512500X-0.150000X0*%
%ADD23RoundRect,0.250000X0.625000X-0.312500X0.625000X0.312500X-0.625000X0.312500X-0.625000X-0.312500X0*%
%ADD24RoundRect,0.250000X0.312500X0.625000X-0.312500X0.625000X-0.312500X-0.625000X0.312500X-0.625000X0*%
G04 APERTURE END LIST*
D10*
X131841666Y-70609580D02*
X131889285Y-70657200D01*
X131889285Y-70657200D02*
X132032142Y-70704819D01*
X132032142Y-70704819D02*
X132127380Y-70704819D01*
X132127380Y-70704819D02*
X132270237Y-70657200D01*
X132270237Y-70657200D02*
X132365475Y-70561961D01*
X132365475Y-70561961D02*
X132413094Y-70466723D01*
X132413094Y-70466723D02*
X132460713Y-70276247D01*
X132460713Y-70276247D02*
X132460713Y-70133390D01*
X132460713Y-70133390D02*
X132413094Y-69942914D01*
X132413094Y-69942914D02*
X132365475Y-69847676D01*
X132365475Y-69847676D02*
X132270237Y-69752438D01*
X132270237Y-69752438D02*
X132127380Y-69704819D01*
X132127380Y-69704819D02*
X132032142Y-69704819D01*
X132032142Y-69704819D02*
X131889285Y-69752438D01*
X131889285Y-69752438D02*
X131841666Y-69800057D01*
X130984523Y-70038152D02*
X130984523Y-70704819D01*
X131222618Y-69657200D02*
X131460713Y-70371485D01*
X131460713Y-70371485D02*
X130841666Y-70371485D01*
X160866666Y-71759580D02*
X160914285Y-71807200D01*
X160914285Y-71807200D02*
X161057142Y-71854819D01*
X161057142Y-71854819D02*
X161152380Y-71854819D01*
X161152380Y-71854819D02*
X161295237Y-71807200D01*
X161295237Y-71807200D02*
X161390475Y-71711961D01*
X161390475Y-71711961D02*
X161438094Y-71616723D01*
X161438094Y-71616723D02*
X161485713Y-71426247D01*
X161485713Y-71426247D02*
X161485713Y-71283390D01*
X161485713Y-71283390D02*
X161438094Y-71092914D01*
X161438094Y-71092914D02*
X161390475Y-70997676D01*
X161390475Y-70997676D02*
X161295237Y-70902438D01*
X161295237Y-70902438D02*
X161152380Y-70854819D01*
X161152380Y-70854819D02*
X161057142Y-70854819D01*
X161057142Y-70854819D02*
X160914285Y-70902438D01*
X160914285Y-70902438D02*
X160866666Y-70950057D01*
X159914285Y-71854819D02*
X160485713Y-71854819D01*
X160199999Y-71854819D02*
X160199999Y-70854819D01*
X160199999Y-70854819D02*
X160295237Y-70997676D01*
X160295237Y-70997676D02*
X160390475Y-71092914D01*
X160390475Y-71092914D02*
X160485713Y-71140533D01*
X163542856Y-72554819D02*
X163447618Y-72554819D01*
X163447618Y-72554819D02*
X163352380Y-72602438D01*
X163352380Y-72602438D02*
X163304761Y-72650057D01*
X163304761Y-72650057D02*
X163257142Y-72745295D01*
X163257142Y-72745295D02*
X163209523Y-72935771D01*
X163209523Y-72935771D02*
X163209523Y-73173866D01*
X163209523Y-73173866D02*
X163257142Y-73364342D01*
X163257142Y-73364342D02*
X163304761Y-73459580D01*
X163304761Y-73459580D02*
X163352380Y-73507200D01*
X163352380Y-73507200D02*
X163447618Y-73554819D01*
X163447618Y-73554819D02*
X163542856Y-73554819D01*
X163542856Y-73554819D02*
X163638094Y-73507200D01*
X163638094Y-73507200D02*
X163685713Y-73459580D01*
X163685713Y-73459580D02*
X163733332Y-73364342D01*
X163733332Y-73364342D02*
X163780951Y-73173866D01*
X163780951Y-73173866D02*
X163780951Y-72935771D01*
X163780951Y-72935771D02*
X163733332Y-72745295D01*
X163733332Y-72745295D02*
X163685713Y-72650057D01*
X163685713Y-72650057D02*
X163638094Y-72602438D01*
X163638094Y-72602438D02*
X163542856Y-72554819D01*
X162780951Y-73459580D02*
X162733332Y-73507200D01*
X162733332Y-73507200D02*
X162780951Y-73554819D01*
X162780951Y-73554819D02*
X162828570Y-73507200D01*
X162828570Y-73507200D02*
X162780951Y-73459580D01*
X162780951Y-73459580D02*
X162780951Y-73554819D01*
X161780952Y-73554819D02*
X162352380Y-73554819D01*
X162066666Y-73554819D02*
X162066666Y-72554819D01*
X162066666Y-72554819D02*
X162161904Y-72697676D01*
X162161904Y-72697676D02*
X162257142Y-72792914D01*
X162257142Y-72792914D02*
X162352380Y-72840533D01*
X160923809Y-72888152D02*
X160923809Y-73554819D01*
X161352380Y-72888152D02*
X161352380Y-73411961D01*
X161352380Y-73411961D02*
X161304761Y-73507200D01*
X161304761Y-73507200D02*
X161209523Y-73554819D01*
X161209523Y-73554819D02*
X161066666Y-73554819D01*
X161066666Y-73554819D02*
X160971428Y-73507200D01*
X160971428Y-73507200D02*
X160923809Y-73459580D01*
X160114285Y-73031009D02*
X160447618Y-73031009D01*
X160447618Y-73554819D02*
X160447618Y-72554819D01*
X160447618Y-72554819D02*
X159971428Y-72554819D01*
X140071428Y-70200057D02*
X140166666Y-70152438D01*
X140166666Y-70152438D02*
X140261904Y-70057200D01*
X140261904Y-70057200D02*
X140404761Y-69914342D01*
X140404761Y-69914342D02*
X140499999Y-69866723D01*
X140499999Y-69866723D02*
X140595237Y-69866723D01*
X140547618Y-70104819D02*
X140642856Y-70057200D01*
X140642856Y-70057200D02*
X140738094Y-69961961D01*
X140738094Y-69961961D02*
X140785713Y-69771485D01*
X140785713Y-69771485D02*
X140785713Y-69438152D01*
X140785713Y-69438152D02*
X140738094Y-69247676D01*
X140738094Y-69247676D02*
X140642856Y-69152438D01*
X140642856Y-69152438D02*
X140547618Y-69104819D01*
X140547618Y-69104819D02*
X140357142Y-69104819D01*
X140357142Y-69104819D02*
X140261904Y-69152438D01*
X140261904Y-69152438D02*
X140166666Y-69247676D01*
X140166666Y-69247676D02*
X140119047Y-69438152D01*
X140119047Y-69438152D02*
X140119047Y-69771485D01*
X140119047Y-69771485D02*
X140166666Y-69961961D01*
X140166666Y-69961961D02*
X140261904Y-70057200D01*
X140261904Y-70057200D02*
X140357142Y-70104819D01*
X140357142Y-70104819D02*
X140547618Y-70104819D01*
X139166666Y-70104819D02*
X139738094Y-70104819D01*
X139452380Y-70104819D02*
X139452380Y-69104819D01*
X139452380Y-69104819D02*
X139547618Y-69247676D01*
X139547618Y-69247676D02*
X139642856Y-69342914D01*
X139642856Y-69342914D02*
X139738094Y-69390533D01*
X138547618Y-69104819D02*
X138452380Y-69104819D01*
X138452380Y-69104819D02*
X138357142Y-69152438D01*
X138357142Y-69152438D02*
X138309523Y-69200057D01*
X138309523Y-69200057D02*
X138261904Y-69295295D01*
X138261904Y-69295295D02*
X138214285Y-69485771D01*
X138214285Y-69485771D02*
X138214285Y-69723866D01*
X138214285Y-69723866D02*
X138261904Y-69914342D01*
X138261904Y-69914342D02*
X138309523Y-70009580D01*
X138309523Y-70009580D02*
X138357142Y-70057200D01*
X138357142Y-70057200D02*
X138452380Y-70104819D01*
X138452380Y-70104819D02*
X138547618Y-70104819D01*
X138547618Y-70104819D02*
X138642856Y-70057200D01*
X138642856Y-70057200D02*
X138690475Y-70009580D01*
X138690475Y-70009580D02*
X138738094Y-69914342D01*
X138738094Y-69914342D02*
X138785713Y-69723866D01*
X138785713Y-69723866D02*
X138785713Y-69485771D01*
X138785713Y-69485771D02*
X138738094Y-69295295D01*
X138738094Y-69295295D02*
X138690475Y-69200057D01*
X138690475Y-69200057D02*
X138642856Y-69152438D01*
X138642856Y-69152438D02*
X138547618Y-69104819D01*
X149166666Y-73259580D02*
X149214285Y-73307200D01*
X149214285Y-73307200D02*
X149357142Y-73354819D01*
X149357142Y-73354819D02*
X149452380Y-73354819D01*
X149452380Y-73354819D02*
X149595237Y-73307200D01*
X149595237Y-73307200D02*
X149690475Y-73211961D01*
X149690475Y-73211961D02*
X149738094Y-73116723D01*
X149738094Y-73116723D02*
X149785713Y-72926247D01*
X149785713Y-72926247D02*
X149785713Y-72783390D01*
X149785713Y-72783390D02*
X149738094Y-72592914D01*
X149738094Y-72592914D02*
X149690475Y-72497676D01*
X149690475Y-72497676D02*
X149595237Y-72402438D01*
X149595237Y-72402438D02*
X149452380Y-72354819D01*
X149452380Y-72354819D02*
X149357142Y-72354819D01*
X149357142Y-72354819D02*
X149214285Y-72402438D01*
X149214285Y-72402438D02*
X149166666Y-72450057D01*
X148785713Y-72450057D02*
X148738094Y-72402438D01*
X148738094Y-72402438D02*
X148642856Y-72354819D01*
X148642856Y-72354819D02*
X148404761Y-72354819D01*
X148404761Y-72354819D02*
X148309523Y-72402438D01*
X148309523Y-72402438D02*
X148261904Y-72450057D01*
X148261904Y-72450057D02*
X148214285Y-72545295D01*
X148214285Y-72545295D02*
X148214285Y-72640533D01*
X148214285Y-72640533D02*
X148261904Y-72783390D01*
X148261904Y-72783390D02*
X148833332Y-73354819D01*
X148833332Y-73354819D02*
X148214285Y-73354819D01*
X147342856Y-72354819D02*
X147247618Y-72354819D01*
X147247618Y-72354819D02*
X147152380Y-72402438D01*
X147152380Y-72402438D02*
X147104761Y-72450057D01*
X147104761Y-72450057D02*
X147057142Y-72545295D01*
X147057142Y-72545295D02*
X147009523Y-72735771D01*
X147009523Y-72735771D02*
X147009523Y-72973866D01*
X147009523Y-72973866D02*
X147057142Y-73164342D01*
X147057142Y-73164342D02*
X147104761Y-73259580D01*
X147104761Y-73259580D02*
X147152380Y-73307200D01*
X147152380Y-73307200D02*
X147247618Y-73354819D01*
X147247618Y-73354819D02*
X147342856Y-73354819D01*
X147342856Y-73354819D02*
X147438094Y-73307200D01*
X147438094Y-73307200D02*
X147485713Y-73259580D01*
X147485713Y-73259580D02*
X147533332Y-73164342D01*
X147533332Y-73164342D02*
X147580951Y-72973866D01*
X147580951Y-72973866D02*
X147580951Y-72735771D01*
X147580951Y-72735771D02*
X147533332Y-72545295D01*
X147533332Y-72545295D02*
X147485713Y-72450057D01*
X147485713Y-72450057D02*
X147438094Y-72402438D01*
X147438094Y-72402438D02*
X147342856Y-72354819D01*
X146580951Y-73259580D02*
X146533332Y-73307200D01*
X146533332Y-73307200D02*
X146580951Y-73354819D01*
X146580951Y-73354819D02*
X146628570Y-73307200D01*
X146628570Y-73307200D02*
X146580951Y-73259580D01*
X146580951Y-73259580D02*
X146580951Y-73354819D01*
X145580952Y-73354819D02*
X146152380Y-73354819D01*
X145866666Y-73354819D02*
X145866666Y-72354819D01*
X145866666Y-72354819D02*
X145961904Y-72497676D01*
X145961904Y-72497676D02*
X146057142Y-72592914D01*
X146057142Y-72592914D02*
X146152380Y-72640533D01*
X144723809Y-72688152D02*
X144723809Y-73354819D01*
X145152380Y-72688152D02*
X145152380Y-73211961D01*
X145152380Y-73211961D02*
X145104761Y-73307200D01*
X145104761Y-73307200D02*
X145009523Y-73354819D01*
X145009523Y-73354819D02*
X144866666Y-73354819D01*
X144866666Y-73354819D02*
X144771428Y-73307200D01*
X144771428Y-73307200D02*
X144723809Y-73259580D01*
X143914285Y-72831009D02*
X144247618Y-72831009D01*
X144247618Y-73354819D02*
X144247618Y-72354819D01*
X144247618Y-72354819D02*
X143771428Y-72354819D01*
X141366666Y-81254819D02*
X141699999Y-80778628D01*
X141938094Y-81254819D02*
X141938094Y-80254819D01*
X141938094Y-80254819D02*
X141557142Y-80254819D01*
X141557142Y-80254819D02*
X141461904Y-80302438D01*
X141461904Y-80302438D02*
X141414285Y-80350057D01*
X141414285Y-80350057D02*
X141366666Y-80445295D01*
X141366666Y-80445295D02*
X141366666Y-80588152D01*
X141366666Y-80588152D02*
X141414285Y-80683390D01*
X141414285Y-80683390D02*
X141461904Y-80731009D01*
X141461904Y-80731009D02*
X141557142Y-80778628D01*
X141557142Y-80778628D02*
X141938094Y-80778628D01*
X140461904Y-80254819D02*
X140938094Y-80254819D01*
X140938094Y-80254819D02*
X140985713Y-80731009D01*
X140985713Y-80731009D02*
X140938094Y-80683390D01*
X140938094Y-80683390D02*
X140842856Y-80635771D01*
X140842856Y-80635771D02*
X140604761Y-80635771D01*
X140604761Y-80635771D02*
X140509523Y-80683390D01*
X140509523Y-80683390D02*
X140461904Y-80731009D01*
X140461904Y-80731009D02*
X140414285Y-80826247D01*
X140414285Y-80826247D02*
X140414285Y-81064342D01*
X140414285Y-81064342D02*
X140461904Y-81159580D01*
X140461904Y-81159580D02*
X140509523Y-81207200D01*
X140509523Y-81207200D02*
X140604761Y-81254819D01*
X140604761Y-81254819D02*
X140842856Y-81254819D01*
X140842856Y-81254819D02*
X140938094Y-81207200D01*
X140938094Y-81207200D02*
X140985713Y-81159580D01*
X138838095Y-80254819D02*
X139314285Y-80254819D01*
X139314285Y-80254819D02*
X139361904Y-80731009D01*
X139361904Y-80731009D02*
X139314285Y-80683390D01*
X139314285Y-80683390D02*
X139219047Y-80635771D01*
X139219047Y-80635771D02*
X138980952Y-80635771D01*
X138980952Y-80635771D02*
X138885714Y-80683390D01*
X138885714Y-80683390D02*
X138838095Y-80731009D01*
X138838095Y-80731009D02*
X138790476Y-80826247D01*
X138790476Y-80826247D02*
X138790476Y-81064342D01*
X138790476Y-81064342D02*
X138838095Y-81159580D01*
X138838095Y-81159580D02*
X138885714Y-81207200D01*
X138885714Y-81207200D02*
X138980952Y-81254819D01*
X138980952Y-81254819D02*
X139219047Y-81254819D01*
X139219047Y-81254819D02*
X139314285Y-81207200D01*
X139314285Y-81207200D02*
X139361904Y-81159580D01*
X137838095Y-81254819D02*
X138409523Y-81254819D01*
X138123809Y-81254819D02*
X138123809Y-80254819D01*
X138123809Y-80254819D02*
X138219047Y-80397676D01*
X138219047Y-80397676D02*
X138314285Y-80492914D01*
X138314285Y-80492914D02*
X138409523Y-80540533D01*
X149066666Y-81559580D02*
X149114285Y-81607200D01*
X149114285Y-81607200D02*
X149257142Y-81654819D01*
X149257142Y-81654819D02*
X149352380Y-81654819D01*
X149352380Y-81654819D02*
X149495237Y-81607200D01*
X149495237Y-81607200D02*
X149590475Y-81511961D01*
X149590475Y-81511961D02*
X149638094Y-81416723D01*
X149638094Y-81416723D02*
X149685713Y-81226247D01*
X149685713Y-81226247D02*
X149685713Y-81083390D01*
X149685713Y-81083390D02*
X149638094Y-80892914D01*
X149638094Y-80892914D02*
X149590475Y-80797676D01*
X149590475Y-80797676D02*
X149495237Y-80702438D01*
X149495237Y-80702438D02*
X149352380Y-80654819D01*
X149352380Y-80654819D02*
X149257142Y-80654819D01*
X149257142Y-80654819D02*
X149114285Y-80702438D01*
X149114285Y-80702438D02*
X149066666Y-80750057D01*
X148733332Y-80654819D02*
X148114285Y-80654819D01*
X148114285Y-80654819D02*
X148447618Y-81035771D01*
X148447618Y-81035771D02*
X148304761Y-81035771D01*
X148304761Y-81035771D02*
X148209523Y-81083390D01*
X148209523Y-81083390D02*
X148161904Y-81131009D01*
X148161904Y-81131009D02*
X148114285Y-81226247D01*
X148114285Y-81226247D02*
X148114285Y-81464342D01*
X148114285Y-81464342D02*
X148161904Y-81559580D01*
X148161904Y-81559580D02*
X148209523Y-81607200D01*
X148209523Y-81607200D02*
X148304761Y-81654819D01*
X148304761Y-81654819D02*
X148590475Y-81654819D01*
X148590475Y-81654819D02*
X148685713Y-81607200D01*
X148685713Y-81607200D02*
X148733332Y-81559580D01*
X147142856Y-80654819D02*
X147047618Y-80654819D01*
X147047618Y-80654819D02*
X146952380Y-80702438D01*
X146952380Y-80702438D02*
X146904761Y-80750057D01*
X146904761Y-80750057D02*
X146857142Y-80845295D01*
X146857142Y-80845295D02*
X146809523Y-81035771D01*
X146809523Y-81035771D02*
X146809523Y-81273866D01*
X146809523Y-81273866D02*
X146857142Y-81464342D01*
X146857142Y-81464342D02*
X146904761Y-81559580D01*
X146904761Y-81559580D02*
X146952380Y-81607200D01*
X146952380Y-81607200D02*
X147047618Y-81654819D01*
X147047618Y-81654819D02*
X147142856Y-81654819D01*
X147142856Y-81654819D02*
X147238094Y-81607200D01*
X147238094Y-81607200D02*
X147285713Y-81559580D01*
X147285713Y-81559580D02*
X147333332Y-81464342D01*
X147333332Y-81464342D02*
X147380951Y-81273866D01*
X147380951Y-81273866D02*
X147380951Y-81035771D01*
X147380951Y-81035771D02*
X147333332Y-80845295D01*
X147333332Y-80845295D02*
X147285713Y-80750057D01*
X147285713Y-80750057D02*
X147238094Y-80702438D01*
X147238094Y-80702438D02*
X147142856Y-80654819D01*
X146380951Y-81559580D02*
X146333332Y-81607200D01*
X146333332Y-81607200D02*
X146380951Y-81654819D01*
X146380951Y-81654819D02*
X146428570Y-81607200D01*
X146428570Y-81607200D02*
X146380951Y-81559580D01*
X146380951Y-81559580D02*
X146380951Y-81654819D01*
X145380952Y-81654819D02*
X145952380Y-81654819D01*
X145666666Y-81654819D02*
X145666666Y-80654819D01*
X145666666Y-80654819D02*
X145761904Y-80797676D01*
X145761904Y-80797676D02*
X145857142Y-80892914D01*
X145857142Y-80892914D02*
X145952380Y-80940533D01*
X144523809Y-80988152D02*
X144523809Y-81654819D01*
X144952380Y-80988152D02*
X144952380Y-81511961D01*
X144952380Y-81511961D02*
X144904761Y-81607200D01*
X144904761Y-81607200D02*
X144809523Y-81654819D01*
X144809523Y-81654819D02*
X144666666Y-81654819D01*
X144666666Y-81654819D02*
X144571428Y-81607200D01*
X144571428Y-81607200D02*
X144523809Y-81559580D01*
X143714285Y-81131009D02*
X144047618Y-81131009D01*
X144047618Y-81654819D02*
X144047618Y-80654819D01*
X144047618Y-80654819D02*
X143571428Y-80654819D01*
X147566666Y-66654819D02*
X147899999Y-66178628D01*
X148138094Y-66654819D02*
X148138094Y-65654819D01*
X148138094Y-65654819D02*
X147757142Y-65654819D01*
X147757142Y-65654819D02*
X147661904Y-65702438D01*
X147661904Y-65702438D02*
X147614285Y-65750057D01*
X147614285Y-65750057D02*
X147566666Y-65845295D01*
X147566666Y-65845295D02*
X147566666Y-65988152D01*
X147566666Y-65988152D02*
X147614285Y-66083390D01*
X147614285Y-66083390D02*
X147661904Y-66131009D01*
X147661904Y-66131009D02*
X147757142Y-66178628D01*
X147757142Y-66178628D02*
X148138094Y-66178628D01*
X147090475Y-66654819D02*
X146899999Y-66654819D01*
X146899999Y-66654819D02*
X146804761Y-66607200D01*
X146804761Y-66607200D02*
X146757142Y-66559580D01*
X146757142Y-66559580D02*
X146661904Y-66416723D01*
X146661904Y-66416723D02*
X146614285Y-66226247D01*
X146614285Y-66226247D02*
X146614285Y-65845295D01*
X146614285Y-65845295D02*
X146661904Y-65750057D01*
X146661904Y-65750057D02*
X146709523Y-65702438D01*
X146709523Y-65702438D02*
X146804761Y-65654819D01*
X146804761Y-65654819D02*
X146995237Y-65654819D01*
X146995237Y-65654819D02*
X147090475Y-65702438D01*
X147090475Y-65702438D02*
X147138094Y-65750057D01*
X147138094Y-65750057D02*
X147185713Y-65845295D01*
X147185713Y-65845295D02*
X147185713Y-66083390D01*
X147185713Y-66083390D02*
X147138094Y-66178628D01*
X147138094Y-66178628D02*
X147090475Y-66226247D01*
X147090475Y-66226247D02*
X146995237Y-66273866D01*
X146995237Y-66273866D02*
X146804761Y-66273866D01*
X146804761Y-66273866D02*
X146709523Y-66226247D01*
X146709523Y-66226247D02*
X146661904Y-66178628D01*
X146661904Y-66178628D02*
X146614285Y-66083390D01*
X145011904Y-65654819D02*
X145202380Y-65654819D01*
X145202380Y-65654819D02*
X145297618Y-65702438D01*
X145297618Y-65702438D02*
X145345237Y-65750057D01*
X145345237Y-65750057D02*
X145440475Y-65892914D01*
X145440475Y-65892914D02*
X145488094Y-66083390D01*
X145488094Y-66083390D02*
X145488094Y-66464342D01*
X145488094Y-66464342D02*
X145440475Y-66559580D01*
X145440475Y-66559580D02*
X145392856Y-66607200D01*
X145392856Y-66607200D02*
X145297618Y-66654819D01*
X145297618Y-66654819D02*
X145107142Y-66654819D01*
X145107142Y-66654819D02*
X145011904Y-66607200D01*
X145011904Y-66607200D02*
X144964285Y-66559580D01*
X144964285Y-66559580D02*
X144916666Y-66464342D01*
X144916666Y-66464342D02*
X144916666Y-66226247D01*
X144916666Y-66226247D02*
X144964285Y-66131009D01*
X144964285Y-66131009D02*
X145011904Y-66083390D01*
X145011904Y-66083390D02*
X145107142Y-66035771D01*
X145107142Y-66035771D02*
X145297618Y-66035771D01*
X145297618Y-66035771D02*
X145392856Y-66083390D01*
X145392856Y-66083390D02*
X145440475Y-66131009D01*
X145440475Y-66131009D02*
X145488094Y-66226247D01*
X144345237Y-66083390D02*
X144440475Y-66035771D01*
X144440475Y-66035771D02*
X144488094Y-65988152D01*
X144488094Y-65988152D02*
X144535713Y-65892914D01*
X144535713Y-65892914D02*
X144535713Y-65845295D01*
X144535713Y-65845295D02*
X144488094Y-65750057D01*
X144488094Y-65750057D02*
X144440475Y-65702438D01*
X144440475Y-65702438D02*
X144345237Y-65654819D01*
X144345237Y-65654819D02*
X144154761Y-65654819D01*
X144154761Y-65654819D02*
X144059523Y-65702438D01*
X144059523Y-65702438D02*
X144011904Y-65750057D01*
X144011904Y-65750057D02*
X143964285Y-65845295D01*
X143964285Y-65845295D02*
X143964285Y-65892914D01*
X143964285Y-65892914D02*
X144011904Y-65988152D01*
X144011904Y-65988152D02*
X144059523Y-66035771D01*
X144059523Y-66035771D02*
X144154761Y-66083390D01*
X144154761Y-66083390D02*
X144345237Y-66083390D01*
X144345237Y-66083390D02*
X144440475Y-66131009D01*
X144440475Y-66131009D02*
X144488094Y-66178628D01*
X144488094Y-66178628D02*
X144535713Y-66273866D01*
X144535713Y-66273866D02*
X144535713Y-66464342D01*
X144535713Y-66464342D02*
X144488094Y-66559580D01*
X144488094Y-66559580D02*
X144440475Y-66607200D01*
X144440475Y-66607200D02*
X144345237Y-66654819D01*
X144345237Y-66654819D02*
X144154761Y-66654819D01*
X144154761Y-66654819D02*
X144059523Y-66607200D01*
X144059523Y-66607200D02*
X144011904Y-66559580D01*
X144011904Y-66559580D02*
X143964285Y-66464342D01*
X143964285Y-66464342D02*
X143964285Y-66273866D01*
X143964285Y-66273866D02*
X144011904Y-66178628D01*
X144011904Y-66178628D02*
X144059523Y-66131009D01*
X144059523Y-66131009D02*
X144154761Y-66083390D01*
X143345237Y-65654819D02*
X143249999Y-65654819D01*
X143249999Y-65654819D02*
X143154761Y-65702438D01*
X143154761Y-65702438D02*
X143107142Y-65750057D01*
X143107142Y-65750057D02*
X143059523Y-65845295D01*
X143059523Y-65845295D02*
X143011904Y-66035771D01*
X143011904Y-66035771D02*
X143011904Y-66273866D01*
X143011904Y-66273866D02*
X143059523Y-66464342D01*
X143059523Y-66464342D02*
X143107142Y-66559580D01*
X143107142Y-66559580D02*
X143154761Y-66607200D01*
X143154761Y-66607200D02*
X143249999Y-66654819D01*
X143249999Y-66654819D02*
X143345237Y-66654819D01*
X143345237Y-66654819D02*
X143440475Y-66607200D01*
X143440475Y-66607200D02*
X143488094Y-66559580D01*
X143488094Y-66559580D02*
X143535713Y-66464342D01*
X143535713Y-66464342D02*
X143583332Y-66273866D01*
X143583332Y-66273866D02*
X143583332Y-66035771D01*
X143583332Y-66035771D02*
X143535713Y-65845295D01*
X143535713Y-65845295D02*
X143488094Y-65750057D01*
X143488094Y-65750057D02*
X143440475Y-65702438D01*
X143440475Y-65702438D02*
X143345237Y-65654819D01*
X147466666Y-74954819D02*
X147799999Y-74478628D01*
X148038094Y-74954819D02*
X148038094Y-73954819D01*
X148038094Y-73954819D02*
X147657142Y-73954819D01*
X147657142Y-73954819D02*
X147561904Y-74002438D01*
X147561904Y-74002438D02*
X147514285Y-74050057D01*
X147514285Y-74050057D02*
X147466666Y-74145295D01*
X147466666Y-74145295D02*
X147466666Y-74288152D01*
X147466666Y-74288152D02*
X147514285Y-74383390D01*
X147514285Y-74383390D02*
X147561904Y-74431009D01*
X147561904Y-74431009D02*
X147657142Y-74478628D01*
X147657142Y-74478628D02*
X148038094Y-74478628D01*
X147085713Y-74050057D02*
X147038094Y-74002438D01*
X147038094Y-74002438D02*
X146942856Y-73954819D01*
X146942856Y-73954819D02*
X146704761Y-73954819D01*
X146704761Y-73954819D02*
X146609523Y-74002438D01*
X146609523Y-74002438D02*
X146561904Y-74050057D01*
X146561904Y-74050057D02*
X146514285Y-74145295D01*
X146514285Y-74145295D02*
X146514285Y-74240533D01*
X146514285Y-74240533D02*
X146561904Y-74383390D01*
X146561904Y-74383390D02*
X147133332Y-74954819D01*
X147133332Y-74954819D02*
X146514285Y-74954819D01*
X145211904Y-73954819D02*
X145402380Y-73954819D01*
X145402380Y-73954819D02*
X145497618Y-74002438D01*
X145497618Y-74002438D02*
X145545237Y-74050057D01*
X145545237Y-74050057D02*
X145640475Y-74192914D01*
X145640475Y-74192914D02*
X145688094Y-74383390D01*
X145688094Y-74383390D02*
X145688094Y-74764342D01*
X145688094Y-74764342D02*
X145640475Y-74859580D01*
X145640475Y-74859580D02*
X145592856Y-74907200D01*
X145592856Y-74907200D02*
X145497618Y-74954819D01*
X145497618Y-74954819D02*
X145307142Y-74954819D01*
X145307142Y-74954819D02*
X145211904Y-74907200D01*
X145211904Y-74907200D02*
X145164285Y-74859580D01*
X145164285Y-74859580D02*
X145116666Y-74764342D01*
X145116666Y-74764342D02*
X145116666Y-74526247D01*
X145116666Y-74526247D02*
X145164285Y-74431009D01*
X145164285Y-74431009D02*
X145211904Y-74383390D01*
X145211904Y-74383390D02*
X145307142Y-74335771D01*
X145307142Y-74335771D02*
X145497618Y-74335771D01*
X145497618Y-74335771D02*
X145592856Y-74383390D01*
X145592856Y-74383390D02*
X145640475Y-74431009D01*
X145640475Y-74431009D02*
X145688094Y-74526247D01*
X144545237Y-74383390D02*
X144640475Y-74335771D01*
X144640475Y-74335771D02*
X144688094Y-74288152D01*
X144688094Y-74288152D02*
X144735713Y-74192914D01*
X144735713Y-74192914D02*
X144735713Y-74145295D01*
X144735713Y-74145295D02*
X144688094Y-74050057D01*
X144688094Y-74050057D02*
X144640475Y-74002438D01*
X144640475Y-74002438D02*
X144545237Y-73954819D01*
X144545237Y-73954819D02*
X144354761Y-73954819D01*
X144354761Y-73954819D02*
X144259523Y-74002438D01*
X144259523Y-74002438D02*
X144211904Y-74050057D01*
X144211904Y-74050057D02*
X144164285Y-74145295D01*
X144164285Y-74145295D02*
X144164285Y-74192914D01*
X144164285Y-74192914D02*
X144211904Y-74288152D01*
X144211904Y-74288152D02*
X144259523Y-74335771D01*
X144259523Y-74335771D02*
X144354761Y-74383390D01*
X144354761Y-74383390D02*
X144545237Y-74383390D01*
X144545237Y-74383390D02*
X144640475Y-74431009D01*
X144640475Y-74431009D02*
X144688094Y-74478628D01*
X144688094Y-74478628D02*
X144735713Y-74573866D01*
X144735713Y-74573866D02*
X144735713Y-74764342D01*
X144735713Y-74764342D02*
X144688094Y-74859580D01*
X144688094Y-74859580D02*
X144640475Y-74907200D01*
X144640475Y-74907200D02*
X144545237Y-74954819D01*
X144545237Y-74954819D02*
X144354761Y-74954819D01*
X144354761Y-74954819D02*
X144259523Y-74907200D01*
X144259523Y-74907200D02*
X144211904Y-74859580D01*
X144211904Y-74859580D02*
X144164285Y-74764342D01*
X144164285Y-74764342D02*
X144164285Y-74573866D01*
X144164285Y-74573866D02*
X144211904Y-74478628D01*
X144211904Y-74478628D02*
X144259523Y-74431009D01*
X144259523Y-74431009D02*
X144354761Y-74383390D01*
X143545237Y-73954819D02*
X143449999Y-73954819D01*
X143449999Y-73954819D02*
X143354761Y-74002438D01*
X143354761Y-74002438D02*
X143307142Y-74050057D01*
X143307142Y-74050057D02*
X143259523Y-74145295D01*
X143259523Y-74145295D02*
X143211904Y-74335771D01*
X143211904Y-74335771D02*
X143211904Y-74573866D01*
X143211904Y-74573866D02*
X143259523Y-74764342D01*
X143259523Y-74764342D02*
X143307142Y-74859580D01*
X143307142Y-74859580D02*
X143354761Y-74907200D01*
X143354761Y-74907200D02*
X143449999Y-74954819D01*
X143449999Y-74954819D02*
X143545237Y-74954819D01*
X143545237Y-74954819D02*
X143640475Y-74907200D01*
X143640475Y-74907200D02*
X143688094Y-74859580D01*
X143688094Y-74859580D02*
X143735713Y-74764342D01*
X143735713Y-74764342D02*
X143783332Y-74573866D01*
X143783332Y-74573866D02*
X143783332Y-74335771D01*
X143783332Y-74335771D02*
X143735713Y-74145295D01*
X143735713Y-74145295D02*
X143688094Y-74050057D01*
X143688094Y-74050057D02*
X143640475Y-74002438D01*
X143640475Y-74002438D02*
X143545237Y-73954819D01*
D11*
X130963748Y-71190000D02*
X132386252Y-71190000D01*
X130963748Y-73010000D02*
X132386252Y-73010000D01*
X157911252Y-71290000D02*
X156488748Y-71290000D01*
X157911252Y-73110000D02*
X156488748Y-73110000D01*
X139362500Y-70540000D02*
X140162500Y-70540000D01*
X139362500Y-73660000D02*
X140162500Y-73660000D01*
X140962500Y-70540000D02*
X140162500Y-70540000D01*
X140962500Y-73660000D02*
X140162500Y-73660000D01*
X141462500Y-70590000D02*
X141222500Y-70260000D01*
X141702500Y-70260000D01*
X141462500Y-70590000D01*
G36*
X141462500Y-70590000D02*
G01*
X141222500Y-70260000D01*
X141702500Y-70260000D01*
X141462500Y-70590000D01*
G37*
X148186252Y-69990000D02*
X146763748Y-69990000D01*
X148186252Y-71810000D02*
X146763748Y-71810000D01*
X138590000Y-76260436D02*
X138590000Y-77714564D01*
X140410000Y-76260436D02*
X140410000Y-77714564D01*
X148073752Y-78240000D02*
X146651248Y-78240000D01*
X148073752Y-80060000D02*
X146651248Y-80060000D01*
X144885436Y-67090000D02*
X146339564Y-67090000D01*
X144885436Y-68910000D02*
X146339564Y-68910000D01*
X144910436Y-75390000D02*
X146364564Y-75390000D01*
X144910436Y-77210000D02*
X146364564Y-77210000D01*
%LPC*%
D12*
X170750000Y-55000000D03*
D13*
X125700000Y-69100000D03*
X125700000Y-75100000D03*
X135700000Y-75100000D03*
X135700000Y-72100000D03*
X135700000Y-69100000D03*
D14*
X129700000Y-85650000D03*
X132240000Y-85650000D03*
X134780000Y-85650000D03*
D12*
X105000000Y-55000000D03*
X170700000Y-121000000D03*
D15*
X167160000Y-66870000D03*
X167160000Y-71950000D03*
X172240000Y-66870000D03*
X172240000Y-71950000D03*
D16*
X169800000Y-69335000D03*
D17*
X108050000Y-104150000D03*
D18*
X108050000Y-109150000D03*
D15*
X103370000Y-66870000D03*
X103370000Y-71950000D03*
X108450000Y-66870000D03*
X108450000Y-71950000D03*
D16*
X106010000Y-69335000D03*
D19*
X106950000Y-93900000D03*
X106950000Y-96400000D03*
D12*
X105000000Y-121000000D03*
D13*
X163300000Y-75200000D03*
X163300000Y-69200000D03*
X153300000Y-69200000D03*
X153300000Y-72200000D03*
X153300000Y-75200000D03*
D20*
X133150000Y-72100000D03*
X130200000Y-72100000D03*
D21*
X155725000Y-72200000D03*
X158675000Y-72200000D03*
D22*
X141300000Y-71150000D03*
X141300000Y-73050000D03*
X139025000Y-72100000D03*
D21*
X146000000Y-70900000D03*
X148950000Y-70900000D03*
D23*
X139500000Y-78450000D03*
X139500000Y-75525000D03*
D21*
X145887500Y-79150000D03*
X148837500Y-79150000D03*
D24*
X147075000Y-68000000D03*
X144150000Y-68000000D03*
X147100000Y-76300000D03*
X144175000Y-76300000D03*
%LPD*%
M02*
