G04 #@! TF.GenerationSoftware,KiCad,Pcbnew,8.0.6*
G04 #@! TF.CreationDate,2024-12-01T18:53:23-05:00*
G04 #@! TF.ProjectId,t41_2_low_power_amplifier,7434315f-325f-46c6-9f77-5f706f776572,rev?*
G04 #@! TF.SameCoordinates,Original*
G04 #@! TF.FileFunction,Soldermask,Top*
G04 #@! TF.FilePolarity,Negative*
%FSLAX46Y46*%
G04 Gerber Fmt 4.6, Leading zero omitted, Abs format (unit mm)*
G04 Created by KiCad (PCBNEW 8.0.6) date 2024-12-01 18:53:23*
%MOMM*%
%LPD*%
G01*
G04 APERTURE LIST*
G04 Aperture macros list*
%AMRoundRect*
0 Rectangle with rounded corners*
0 $1 Rounding radius*
0 $2 $3 $4 $5 $6 $7 $8 $9 X,Y pos of 4 corners*
0 Add a 4 corners polygon primitive as box body*
4,1,4,$2,$3,$4,$5,$6,$7,$8,$9,$2,$3,0*
0 Add four circle primitives for the rounded corners*
1,1,$1+$1,$2,$3*
1,1,$1+$1,$4,$5*
1,1,$1+$1,$6,$7*
1,1,$1+$1,$8,$9*
0 Add four rect primitives between the rounded corners*
20,1,$1+$1,$2,$3,$4,$5,0*
20,1,$1+$1,$4,$5,$6,$7,0*
20,1,$1+$1,$6,$7,$8,$9,0*
20,1,$1+$1,$8,$9,$2,$3,0*%
G04 Aperture macros list end*
%ADD10C,7.500000*%
%ADD11RoundRect,0.250000X-0.625000X0.312500X-0.625000X-0.312500X0.625000X-0.312500X0.625000X0.312500X0*%
%ADD12RoundRect,0.250000X-0.312500X-0.625000X0.312500X-0.625000X0.312500X0.625000X-0.312500X0.625000X0*%
%ADD13RoundRect,0.150000X0.150000X-0.512500X0.150000X0.512500X-0.150000X0.512500X-0.150000X-0.512500X0*%
%ADD14RoundRect,0.250000X0.325000X0.650000X-0.325000X0.650000X-0.325000X-0.650000X0.325000X-0.650000X0*%
%ADD15RoundRect,0.250000X-0.550000X1.500000X-0.550000X-1.500000X0.550000X-1.500000X0.550000X1.500000X0*%
%ADD16RoundRect,0.250000X0.700000X-0.275000X0.700000X0.275000X-0.700000X0.275000X-0.700000X-0.275000X0*%
%ADD17RoundRect,0.250000X0.312500X0.625000X-0.312500X0.625000X-0.312500X-0.625000X0.312500X-0.625000X0*%
%ADD18RoundRect,0.250000X-1.400000X-1.000000X1.400000X-1.000000X1.400000X1.000000X-1.400000X1.000000X0*%
%ADD19C,2.000000*%
%ADD20RoundRect,0.250000X0.625000X-0.312500X0.625000X0.312500X-0.625000X0.312500X-0.625000X-0.312500X0*%
%ADD21RoundRect,0.250000X0.275000X0.700000X-0.275000X0.700000X-0.275000X-0.700000X0.275000X-0.700000X0*%
%ADD22RoundRect,0.150000X-0.512500X-0.150000X0.512500X-0.150000X0.512500X0.150000X-0.512500X0.150000X0*%
%ADD23C,1.440000*%
%ADD24RoundRect,0.150000X0.512500X0.150000X-0.512500X0.150000X-0.512500X-0.150000X0.512500X-0.150000X0*%
%ADD25RoundRect,0.250000X-0.650000X0.325000X-0.650000X-0.325000X0.650000X-0.325000X0.650000X0.325000X0*%
%ADD26C,2.600000*%
%ADD27C,2.500000*%
%ADD28RoundRect,0.375000X-0.625000X-0.375000X0.625000X-0.375000X0.625000X0.375000X-0.625000X0.375000X0*%
%ADD29RoundRect,0.500000X-0.500000X-1.400000X0.500000X-1.400000X0.500000X1.400000X-0.500000X1.400000X0*%
%ADD30RoundRect,0.102000X-1.385000X-0.735000X1.385000X-0.735000X1.385000X0.735000X-1.385000X0.735000X0*%
%ADD31R,2.400000X2.400000*%
%ADD32C,2.400000*%
%ADD33C,2.100000*%
G04 APERTURE END LIST*
D10*
X170750000Y-55000000D03*
D11*
X153500000Y-85437500D03*
X153500000Y-88362500D03*
D12*
X114200000Y-84575000D03*
X117125000Y-84575000D03*
D13*
X142650000Y-94200000D03*
X143600000Y-94200000D03*
X144550000Y-94200000D03*
X144550000Y-91925000D03*
X142650000Y-91925000D03*
D14*
X142650000Y-96850000D03*
X139700000Y-96850000D03*
D15*
X142640000Y-104236252D03*
X142640000Y-109636252D03*
D14*
X142625000Y-85200000D03*
X139675000Y-85200000D03*
D16*
X157200000Y-88475000D03*
X157200000Y-85325000D03*
D17*
X131812500Y-81000000D03*
X128887500Y-81000000D03*
D11*
X132500000Y-91537500D03*
X132500000Y-94462500D03*
D12*
X119787500Y-75550000D03*
X122712500Y-75550000D03*
D18*
X118640000Y-104236252D03*
X118640000Y-111036252D03*
D19*
X125700000Y-69100000D03*
X125700000Y-75100000D03*
X135700000Y-75100000D03*
X135700000Y-72100000D03*
X135700000Y-69100000D03*
D16*
X123200000Y-93100000D03*
X123200000Y-89950000D03*
D12*
X138575000Y-65500000D03*
X141500000Y-65500000D03*
D20*
X117800000Y-71925000D03*
X117800000Y-69000000D03*
D17*
X115262500Y-96400000D03*
X112337500Y-96400000D03*
D12*
X138562500Y-73800000D03*
X141487500Y-73800000D03*
D14*
X125700000Y-78450000D03*
X122750000Y-78450000D03*
D21*
X142650000Y-88400000D03*
X139500000Y-88400000D03*
D22*
X120575000Y-66250000D03*
X120575000Y-68150000D03*
X122850000Y-67200000D03*
D14*
X117875000Y-66250000D03*
X114925000Y-66250000D03*
D12*
X115250000Y-63050000D03*
X118175000Y-63050000D03*
D23*
X129700000Y-85650000D03*
X132240000Y-85650000D03*
X134780000Y-85650000D03*
D20*
X114900000Y-74875000D03*
X114900000Y-71950000D03*
D24*
X125525000Y-85450000D03*
X125525000Y-83550000D03*
X123250000Y-84500000D03*
D25*
X106950000Y-86425000D03*
X106950000Y-89375000D03*
D10*
X105000000Y-55000000D03*
X170700000Y-121000000D03*
D17*
X115262500Y-99250000D03*
X112337500Y-99250000D03*
D22*
X153525000Y-95650000D03*
X153525000Y-97550000D03*
X155800000Y-96600000D03*
D17*
X155800000Y-100450000D03*
X152875000Y-100450000D03*
D26*
X167160000Y-66870000D03*
X167160000Y-71950000D03*
X172240000Y-66870000D03*
X172240000Y-71950000D03*
D27*
X169800000Y-69335000D03*
D12*
X138575000Y-78800000D03*
X141500000Y-78800000D03*
D28*
X144237500Y-74000000D03*
X144237500Y-76300000D03*
X144237500Y-78600000D03*
D29*
X150537500Y-76300000D03*
D30*
X124910000Y-104236252D03*
X128490000Y-104236252D03*
D31*
X108050000Y-104150000D03*
D32*
X108050000Y-109150000D03*
D26*
X103370000Y-66870000D03*
X103370000Y-71950000D03*
X108450000Y-66870000D03*
X108450000Y-71950000D03*
D27*
X106010000Y-69335000D03*
D12*
X120525000Y-63450000D03*
X123450000Y-63450000D03*
D33*
X106950000Y-93900000D03*
X106950000Y-96400000D03*
D12*
X113197500Y-92400000D03*
X116122500Y-92400000D03*
D13*
X114775000Y-81700000D03*
X116675000Y-81700000D03*
X115725000Y-79425000D03*
D28*
X144250000Y-65700000D03*
X144250000Y-68000000D03*
X144250000Y-70300000D03*
D29*
X150550000Y-68000000D03*
D17*
X150625000Y-95600000D03*
X147700000Y-95600000D03*
D20*
X111950000Y-74862500D03*
X111950000Y-71937500D03*
D13*
X113210000Y-89637500D03*
X115110000Y-89637500D03*
X114160000Y-87362500D03*
D10*
X105000000Y-121000000D03*
D25*
X134000000Y-104225000D03*
X134000000Y-107175000D03*
D12*
X111975000Y-69300000D03*
X114900000Y-69300000D03*
D25*
X119700000Y-86750000D03*
X119700000Y-89700000D03*
D13*
X156250000Y-93125000D03*
X158150000Y-93125000D03*
X157200000Y-90850000D03*
D12*
X138575000Y-70500000D03*
X141500000Y-70500000D03*
D13*
X120850000Y-72475000D03*
X122750000Y-72475000D03*
X121800000Y-70200000D03*
D19*
X163300000Y-75200000D03*
X163300000Y-69200000D03*
X153300000Y-69200000D03*
X153300000Y-72200000D03*
X153300000Y-75200000D03*
M02*
