G04 #@! TF.GenerationSoftware,KiCad,Pcbnew,8.0.6*
G04 #@! TF.CreationDate,2024-11-10T21:08:27-05:00*
G04 #@! TF.ProjectId,t41_2_low_power_amplifier,7434315f-325f-46c6-9f77-5f706f776572,rev?*
G04 #@! TF.SameCoordinates,Original*
G04 #@! TF.FileFunction,Legend,Top*
G04 #@! TF.FilePolarity,Positive*
%FSLAX46Y46*%
G04 Gerber Fmt 4.6, Leading zero omitted, Abs format (unit mm)*
G04 Created by KiCad (PCBNEW 8.0.6) date 2024-11-10 21:08:27*
%MOMM*%
%LPD*%
G01*
G04 APERTURE LIST*
G04 Aperture macros list*
%AMRoundRect*
0 Rectangle with rounded corners*
0 $1 Rounding radius*
0 $2 $3 $4 $5 $6 $7 $8 $9 X,Y pos of 4 corners*
0 Add a 4 corners polygon primitive as box body*
4,1,4,$2,$3,$4,$5,$6,$7,$8,$9,$2,$3,0*
0 Add four circle primitives for the rounded corners*
1,1,$1+$1,$2,$3*
1,1,$1+$1,$4,$5*
1,1,$1+$1,$6,$7*
1,1,$1+$1,$8,$9*
0 Add four rect primitives between the rounded corners*
20,1,$1+$1,$2,$3,$4,$5,0*
20,1,$1+$1,$4,$5,$6,$7,0*
20,1,$1+$1,$6,$7,$8,$9,0*
20,1,$1+$1,$8,$9,$2,$3,0*%
G04 Aperture macros list end*
%ADD10C,0.200000*%
%ADD11C,0.150000*%
%ADD12C,0.120000*%
%ADD13C,0.100000*%
%ADD14C,0.127000*%
%ADD15RoundRect,0.150000X0.150000X-0.512500X0.150000X0.512500X-0.150000X0.512500X-0.150000X-0.512500X0*%
%ADD16RoundRect,0.250000X-0.312500X-0.625000X0.312500X-0.625000X0.312500X0.625000X-0.312500X0.625000X0*%
%ADD17RoundRect,0.250000X0.312500X0.625000X-0.312500X0.625000X-0.312500X-0.625000X0.312500X-0.625000X0*%
%ADD18RoundRect,0.150000X-0.512500X-0.150000X0.512500X-0.150000X0.512500X0.150000X-0.512500X0.150000X0*%
%ADD19RoundRect,0.250000X-0.625000X0.312500X-0.625000X-0.312500X0.625000X-0.312500X0.625000X0.312500X0*%
%ADD20RoundRect,0.250000X0.325000X0.650000X-0.325000X0.650000X-0.325000X-0.650000X0.325000X-0.650000X0*%
%ADD21RoundRect,0.250000X-0.550000X1.500000X-0.550000X-1.500000X0.550000X-1.500000X0.550000X1.500000X0*%
%ADD22C,1.440000*%
%ADD23RoundRect,0.250000X-1.400000X-1.000000X1.400000X-1.000000X1.400000X1.000000X-1.400000X1.000000X0*%
%ADD24C,2.000000*%
%ADD25RoundRect,0.250000X0.625000X-0.312500X0.625000X0.312500X-0.625000X0.312500X-0.625000X-0.312500X0*%
%ADD26RoundRect,0.250000X-0.375000X-1.075000X0.375000X-1.075000X0.375000X1.075000X-0.375000X1.075000X0*%
%ADD27C,7.500000*%
%ADD28RoundRect,0.250000X-0.650000X0.325000X-0.650000X-0.325000X0.650000X-0.325000X0.650000X0.325000X0*%
%ADD29C,2.600000*%
%ADD30C,2.500000*%
%ADD31RoundRect,0.375000X-0.625000X-0.375000X0.625000X-0.375000X0.625000X0.375000X-0.625000X0.375000X0*%
%ADD32RoundRect,0.500000X-0.500000X-1.400000X0.500000X-1.400000X0.500000X1.400000X-0.500000X1.400000X0*%
%ADD33RoundRect,0.102000X-1.385000X-0.735000X1.385000X-0.735000X1.385000X0.735000X-1.385000X0.735000X0*%
%ADD34R,2.400000X2.400000*%
%ADD35C,2.400000*%
%ADD36C,2.100000*%
%ADD37RoundRect,0.250000X0.700000X-0.275000X0.700000X0.275000X-0.700000X0.275000X-0.700000X-0.275000X0*%
G04 APERTURE END LIST*
D10*
X165488720Y-106906028D02*
X165488720Y-105406028D01*
X166345863Y-106906028D02*
X165703006Y-106048885D01*
X166345863Y-105406028D02*
X165488720Y-106263171D01*
X167488720Y-106120314D02*
X166988720Y-106120314D01*
X166988720Y-106906028D02*
X166988720Y-105406028D01*
X166988720Y-105406028D02*
X167703006Y-105406028D01*
X168988720Y-105406028D02*
X168274434Y-105406028D01*
X168274434Y-105406028D02*
X168203006Y-106120314D01*
X168203006Y-106120314D02*
X168274434Y-106048885D01*
X168274434Y-106048885D02*
X168417292Y-105977457D01*
X168417292Y-105977457D02*
X168774434Y-105977457D01*
X168774434Y-105977457D02*
X168917292Y-106048885D01*
X168917292Y-106048885D02*
X168988720Y-106120314D01*
X168988720Y-106120314D02*
X169060149Y-106263171D01*
X169060149Y-106263171D02*
X169060149Y-106620314D01*
X169060149Y-106620314D02*
X168988720Y-106763171D01*
X168988720Y-106763171D02*
X168917292Y-106834600D01*
X168917292Y-106834600D02*
X168774434Y-106906028D01*
X168774434Y-106906028D02*
X168417292Y-106906028D01*
X168417292Y-106906028D02*
X168274434Y-106834600D01*
X168274434Y-106834600D02*
X168203006Y-106763171D01*
X169703005Y-106906028D02*
X169703005Y-105406028D01*
X169703005Y-105406028D02*
X170560148Y-106906028D01*
X170560148Y-106906028D02*
X170560148Y-105406028D01*
X153474435Y-108106028D02*
X154331578Y-108106028D01*
X153903006Y-109606028D02*
X153903006Y-108106028D01*
X155474435Y-108606028D02*
X155474435Y-109606028D01*
X155117292Y-108034600D02*
X154760149Y-109106028D01*
X154760149Y-109106028D02*
X155688720Y-109106028D01*
X157045863Y-109606028D02*
X156188720Y-109606028D01*
X156617291Y-109606028D02*
X156617291Y-108106028D01*
X156617291Y-108106028D02*
X156474434Y-108320314D01*
X156474434Y-108320314D02*
X156331577Y-108463171D01*
X156331577Y-108463171D02*
X156188720Y-108534600D01*
X157688719Y-109034600D02*
X158831577Y-109034600D01*
X159474434Y-108248885D02*
X159545862Y-108177457D01*
X159545862Y-108177457D02*
X159688720Y-108106028D01*
X159688720Y-108106028D02*
X160045862Y-108106028D01*
X160045862Y-108106028D02*
X160188720Y-108177457D01*
X160188720Y-108177457D02*
X160260148Y-108248885D01*
X160260148Y-108248885D02*
X160331577Y-108391742D01*
X160331577Y-108391742D02*
X160331577Y-108534600D01*
X160331577Y-108534600D02*
X160260148Y-108748885D01*
X160260148Y-108748885D02*
X159403005Y-109606028D01*
X159403005Y-109606028D02*
X160331577Y-109606028D01*
X162831576Y-109606028D02*
X162117290Y-109606028D01*
X162117290Y-109606028D02*
X162117290Y-108106028D01*
X163617291Y-108106028D02*
X163903005Y-108106028D01*
X163903005Y-108106028D02*
X164045862Y-108177457D01*
X164045862Y-108177457D02*
X164188719Y-108320314D01*
X164188719Y-108320314D02*
X164260148Y-108606028D01*
X164260148Y-108606028D02*
X164260148Y-109106028D01*
X164260148Y-109106028D02*
X164188719Y-109391742D01*
X164188719Y-109391742D02*
X164045862Y-109534600D01*
X164045862Y-109534600D02*
X163903005Y-109606028D01*
X163903005Y-109606028D02*
X163617291Y-109606028D01*
X163617291Y-109606028D02*
X163474434Y-109534600D01*
X163474434Y-109534600D02*
X163331576Y-109391742D01*
X163331576Y-109391742D02*
X163260148Y-109106028D01*
X163260148Y-109106028D02*
X163260148Y-108606028D01*
X163260148Y-108606028D02*
X163331576Y-108320314D01*
X163331576Y-108320314D02*
X163474434Y-108177457D01*
X163474434Y-108177457D02*
X163617291Y-108106028D01*
X164760148Y-108106028D02*
X165117291Y-109606028D01*
X165117291Y-109606028D02*
X165403005Y-108534600D01*
X165403005Y-108534600D02*
X165688720Y-109606028D01*
X165688720Y-109606028D02*
X166045863Y-108106028D01*
X167760148Y-109606028D02*
X167760148Y-108106028D01*
X167760148Y-108106028D02*
X168331577Y-108106028D01*
X168331577Y-108106028D02*
X168474434Y-108177457D01*
X168474434Y-108177457D02*
X168545863Y-108248885D01*
X168545863Y-108248885D02*
X168617291Y-108391742D01*
X168617291Y-108391742D02*
X168617291Y-108606028D01*
X168617291Y-108606028D02*
X168545863Y-108748885D01*
X168545863Y-108748885D02*
X168474434Y-108820314D01*
X168474434Y-108820314D02*
X168331577Y-108891742D01*
X168331577Y-108891742D02*
X167760148Y-108891742D01*
X169545863Y-108106028D02*
X169831577Y-108106028D01*
X169831577Y-108106028D02*
X169974434Y-108177457D01*
X169974434Y-108177457D02*
X170117291Y-108320314D01*
X170117291Y-108320314D02*
X170188720Y-108606028D01*
X170188720Y-108606028D02*
X170188720Y-109106028D01*
X170188720Y-109106028D02*
X170117291Y-109391742D01*
X170117291Y-109391742D02*
X169974434Y-109534600D01*
X169974434Y-109534600D02*
X169831577Y-109606028D01*
X169831577Y-109606028D02*
X169545863Y-109606028D01*
X169545863Y-109606028D02*
X169403006Y-109534600D01*
X169403006Y-109534600D02*
X169260148Y-109391742D01*
X169260148Y-109391742D02*
X169188720Y-109106028D01*
X169188720Y-109106028D02*
X169188720Y-108606028D01*
X169188720Y-108606028D02*
X169260148Y-108320314D01*
X169260148Y-108320314D02*
X169403006Y-108177457D01*
X169403006Y-108177457D02*
X169545863Y-108106028D01*
X170688720Y-108106028D02*
X171045863Y-109606028D01*
X171045863Y-109606028D02*
X171331577Y-108534600D01*
X171331577Y-108534600D02*
X171617292Y-109606028D01*
X171617292Y-109606028D02*
X171974435Y-108106028D01*
X172545863Y-108820314D02*
X173045863Y-108820314D01*
X173260149Y-109606028D02*
X172545863Y-109606028D01*
X172545863Y-109606028D02*
X172545863Y-108106028D01*
X172545863Y-108106028D02*
X173260149Y-108106028D01*
X174760149Y-109606028D02*
X174260149Y-108891742D01*
X173903006Y-109606028D02*
X173903006Y-108106028D01*
X173903006Y-108106028D02*
X174474435Y-108106028D01*
X174474435Y-108106028D02*
X174617292Y-108177457D01*
X174617292Y-108177457D02*
X174688721Y-108248885D01*
X174688721Y-108248885D02*
X174760149Y-108391742D01*
X174760149Y-108391742D02*
X174760149Y-108606028D01*
X174760149Y-108606028D02*
X174688721Y-108748885D01*
X174688721Y-108748885D02*
X174617292Y-108820314D01*
X174617292Y-108820314D02*
X174474435Y-108891742D01*
X174474435Y-108891742D02*
X173903006Y-108891742D01*
X176474435Y-109177457D02*
X177188721Y-109177457D01*
X176331578Y-109606028D02*
X176831578Y-108106028D01*
X176831578Y-108106028D02*
X177331578Y-109606028D01*
X177831577Y-109606028D02*
X177831577Y-108106028D01*
X177831577Y-108106028D02*
X178331577Y-109177457D01*
X178331577Y-109177457D02*
X178831577Y-108106028D01*
X178831577Y-108106028D02*
X178831577Y-109606028D01*
X179545863Y-109606028D02*
X179545863Y-108106028D01*
X179545863Y-108106028D02*
X180117292Y-108106028D01*
X180117292Y-108106028D02*
X180260149Y-108177457D01*
X180260149Y-108177457D02*
X180331578Y-108248885D01*
X180331578Y-108248885D02*
X180403006Y-108391742D01*
X180403006Y-108391742D02*
X180403006Y-108606028D01*
X180403006Y-108606028D02*
X180331578Y-108748885D01*
X180331578Y-108748885D02*
X180260149Y-108820314D01*
X180260149Y-108820314D02*
X180117292Y-108891742D01*
X180117292Y-108891742D02*
X179545863Y-108891742D01*
X181760149Y-109606028D02*
X181045863Y-109606028D01*
X181045863Y-109606028D02*
X181045863Y-108106028D01*
X182260149Y-109606028D02*
X182260149Y-108106028D01*
X183474435Y-108820314D02*
X182974435Y-108820314D01*
X182974435Y-109606028D02*
X182974435Y-108106028D01*
X182974435Y-108106028D02*
X183688721Y-108106028D01*
X184260149Y-109606028D02*
X184260149Y-108106028D01*
X184974435Y-108820314D02*
X185474435Y-108820314D01*
X185688721Y-109606028D02*
X184974435Y-109606028D01*
X184974435Y-109606028D02*
X184974435Y-108106028D01*
X184974435Y-108106028D02*
X185688721Y-108106028D01*
X187188721Y-109606028D02*
X186688721Y-108891742D01*
X186331578Y-109606028D02*
X186331578Y-108106028D01*
X186331578Y-108106028D02*
X186903007Y-108106028D01*
X186903007Y-108106028D02*
X187045864Y-108177457D01*
X187045864Y-108177457D02*
X187117293Y-108248885D01*
X187117293Y-108248885D02*
X187188721Y-108391742D01*
X187188721Y-108391742D02*
X187188721Y-108606028D01*
X187188721Y-108606028D02*
X187117293Y-108748885D01*
X187117293Y-108748885D02*
X187045864Y-108820314D01*
X187045864Y-108820314D02*
X186903007Y-108891742D01*
X186903007Y-108891742D02*
X186331578Y-108891742D01*
D11*
X145738095Y-91829819D02*
X145738095Y-92639342D01*
X145738095Y-92639342D02*
X145785714Y-92734580D01*
X145785714Y-92734580D02*
X145833333Y-92782200D01*
X145833333Y-92782200D02*
X145928571Y-92829819D01*
X145928571Y-92829819D02*
X146119047Y-92829819D01*
X146119047Y-92829819D02*
X146214285Y-92782200D01*
X146214285Y-92782200D02*
X146261904Y-92734580D01*
X146261904Y-92734580D02*
X146309523Y-92639342D01*
X146309523Y-92639342D02*
X146309523Y-91829819D01*
X147309523Y-92829819D02*
X146738095Y-92829819D01*
X147023809Y-92829819D02*
X147023809Y-91829819D01*
X147023809Y-91829819D02*
X146928571Y-91972676D01*
X146928571Y-91972676D02*
X146833333Y-92067914D01*
X146833333Y-92067914D02*
X146738095Y-92115533D01*
X162857142Y-99154819D02*
X162523809Y-98678628D01*
X162285714Y-99154819D02*
X162285714Y-98154819D01*
X162285714Y-98154819D02*
X162666666Y-98154819D01*
X162666666Y-98154819D02*
X162761904Y-98202438D01*
X162761904Y-98202438D02*
X162809523Y-98250057D01*
X162809523Y-98250057D02*
X162857142Y-98345295D01*
X162857142Y-98345295D02*
X162857142Y-98488152D01*
X162857142Y-98488152D02*
X162809523Y-98583390D01*
X162809523Y-98583390D02*
X162761904Y-98631009D01*
X162761904Y-98631009D02*
X162666666Y-98678628D01*
X162666666Y-98678628D02*
X162285714Y-98678628D01*
X163238095Y-98250057D02*
X163285714Y-98202438D01*
X163285714Y-98202438D02*
X163380952Y-98154819D01*
X163380952Y-98154819D02*
X163619047Y-98154819D01*
X163619047Y-98154819D02*
X163714285Y-98202438D01*
X163714285Y-98202438D02*
X163761904Y-98250057D01*
X163761904Y-98250057D02*
X163809523Y-98345295D01*
X163809523Y-98345295D02*
X163809523Y-98440533D01*
X163809523Y-98440533D02*
X163761904Y-98583390D01*
X163761904Y-98583390D02*
X163190476Y-99154819D01*
X163190476Y-99154819D02*
X163809523Y-99154819D01*
X164142857Y-98154819D02*
X164809523Y-98154819D01*
X164809523Y-98154819D02*
X164380952Y-99154819D01*
X162804761Y-100554819D02*
X162233333Y-100554819D01*
X162519047Y-100554819D02*
X162519047Y-99554819D01*
X162519047Y-99554819D02*
X162423809Y-99697676D01*
X162423809Y-99697676D02*
X162328571Y-99792914D01*
X162328571Y-99792914D02*
X162233333Y-99840533D01*
X163423809Y-99554819D02*
X163519047Y-99554819D01*
X163519047Y-99554819D02*
X163614285Y-99602438D01*
X163614285Y-99602438D02*
X163661904Y-99650057D01*
X163661904Y-99650057D02*
X163709523Y-99745295D01*
X163709523Y-99745295D02*
X163757142Y-99935771D01*
X163757142Y-99935771D02*
X163757142Y-100173866D01*
X163757142Y-100173866D02*
X163709523Y-100364342D01*
X163709523Y-100364342D02*
X163661904Y-100459580D01*
X163661904Y-100459580D02*
X163614285Y-100507200D01*
X163614285Y-100507200D02*
X163519047Y-100554819D01*
X163519047Y-100554819D02*
X163423809Y-100554819D01*
X163423809Y-100554819D02*
X163328571Y-100507200D01*
X163328571Y-100507200D02*
X163280952Y-100459580D01*
X163280952Y-100459580D02*
X163233333Y-100364342D01*
X163233333Y-100364342D02*
X163185714Y-100173866D01*
X163185714Y-100173866D02*
X163185714Y-99935771D01*
X163185714Y-99935771D02*
X163233333Y-99745295D01*
X163233333Y-99745295D02*
X163280952Y-99650057D01*
X163280952Y-99650057D02*
X163328571Y-99602438D01*
X163328571Y-99602438D02*
X163423809Y-99554819D01*
X164185714Y-100554819D02*
X164185714Y-99554819D01*
X164280952Y-100173866D02*
X164566666Y-100554819D01*
X164566666Y-99888152D02*
X164185714Y-100269104D01*
X148519642Y-97874819D02*
X148186309Y-97398628D01*
X147948214Y-97874819D02*
X147948214Y-96874819D01*
X147948214Y-96874819D02*
X148329166Y-96874819D01*
X148329166Y-96874819D02*
X148424404Y-96922438D01*
X148424404Y-96922438D02*
X148472023Y-96970057D01*
X148472023Y-96970057D02*
X148519642Y-97065295D01*
X148519642Y-97065295D02*
X148519642Y-97208152D01*
X148519642Y-97208152D02*
X148472023Y-97303390D01*
X148472023Y-97303390D02*
X148424404Y-97351009D01*
X148424404Y-97351009D02*
X148329166Y-97398628D01*
X148329166Y-97398628D02*
X147948214Y-97398628D01*
X148900595Y-96970057D02*
X148948214Y-96922438D01*
X148948214Y-96922438D02*
X149043452Y-96874819D01*
X149043452Y-96874819D02*
X149281547Y-96874819D01*
X149281547Y-96874819D02*
X149376785Y-96922438D01*
X149376785Y-96922438D02*
X149424404Y-96970057D01*
X149424404Y-96970057D02*
X149472023Y-97065295D01*
X149472023Y-97065295D02*
X149472023Y-97160533D01*
X149472023Y-97160533D02*
X149424404Y-97303390D01*
X149424404Y-97303390D02*
X148852976Y-97874819D01*
X148852976Y-97874819D02*
X149472023Y-97874819D01*
X150329166Y-97208152D02*
X150329166Y-97874819D01*
X150091071Y-96827200D02*
X149852976Y-97541485D01*
X149852976Y-97541485D02*
X150472023Y-97541485D01*
X148567261Y-99154819D02*
X147995833Y-99154819D01*
X148281547Y-99154819D02*
X148281547Y-98154819D01*
X148281547Y-98154819D02*
X148186309Y-98297676D01*
X148186309Y-98297676D02*
X148091071Y-98392914D01*
X148091071Y-98392914D02*
X147995833Y-98440533D01*
X149186309Y-98154819D02*
X149281547Y-98154819D01*
X149281547Y-98154819D02*
X149376785Y-98202438D01*
X149376785Y-98202438D02*
X149424404Y-98250057D01*
X149424404Y-98250057D02*
X149472023Y-98345295D01*
X149472023Y-98345295D02*
X149519642Y-98535771D01*
X149519642Y-98535771D02*
X149519642Y-98773866D01*
X149519642Y-98773866D02*
X149472023Y-98964342D01*
X149472023Y-98964342D02*
X149424404Y-99059580D01*
X149424404Y-99059580D02*
X149376785Y-99107200D01*
X149376785Y-99107200D02*
X149281547Y-99154819D01*
X149281547Y-99154819D02*
X149186309Y-99154819D01*
X149186309Y-99154819D02*
X149091071Y-99107200D01*
X149091071Y-99107200D02*
X149043452Y-99059580D01*
X149043452Y-99059580D02*
X148995833Y-98964342D01*
X148995833Y-98964342D02*
X148948214Y-98773866D01*
X148948214Y-98773866D02*
X148948214Y-98535771D01*
X148948214Y-98535771D02*
X148995833Y-98345295D01*
X148995833Y-98345295D02*
X149043452Y-98250057D01*
X149043452Y-98250057D02*
X149091071Y-98202438D01*
X149091071Y-98202438D02*
X149186309Y-98154819D01*
X149948214Y-99154819D02*
X149948214Y-98154819D01*
X150043452Y-98773866D02*
X150329166Y-99154819D01*
X150329166Y-98488152D02*
X149948214Y-98869104D01*
X163104761Y-96050057D02*
X163009523Y-96002438D01*
X163009523Y-96002438D02*
X162914285Y-95907200D01*
X162914285Y-95907200D02*
X162771428Y-95764342D01*
X162771428Y-95764342D02*
X162676190Y-95716723D01*
X162676190Y-95716723D02*
X162580952Y-95716723D01*
X162628571Y-95954819D02*
X162533333Y-95907200D01*
X162533333Y-95907200D02*
X162438095Y-95811961D01*
X162438095Y-95811961D02*
X162390476Y-95621485D01*
X162390476Y-95621485D02*
X162390476Y-95288152D01*
X162390476Y-95288152D02*
X162438095Y-95097676D01*
X162438095Y-95097676D02*
X162533333Y-95002438D01*
X162533333Y-95002438D02*
X162628571Y-94954819D01*
X162628571Y-94954819D02*
X162819047Y-94954819D01*
X162819047Y-94954819D02*
X162914285Y-95002438D01*
X162914285Y-95002438D02*
X163009523Y-95097676D01*
X163009523Y-95097676D02*
X163057142Y-95288152D01*
X163057142Y-95288152D02*
X163057142Y-95621485D01*
X163057142Y-95621485D02*
X163009523Y-95811961D01*
X163009523Y-95811961D02*
X162914285Y-95907200D01*
X162914285Y-95907200D02*
X162819047Y-95954819D01*
X162819047Y-95954819D02*
X162628571Y-95954819D01*
X163390476Y-94954819D02*
X164009523Y-94954819D01*
X164009523Y-94954819D02*
X163676190Y-95335771D01*
X163676190Y-95335771D02*
X163819047Y-95335771D01*
X163819047Y-95335771D02*
X163914285Y-95383390D01*
X163914285Y-95383390D02*
X163961904Y-95431009D01*
X163961904Y-95431009D02*
X164009523Y-95526247D01*
X164009523Y-95526247D02*
X164009523Y-95764342D01*
X164009523Y-95764342D02*
X163961904Y-95859580D01*
X163961904Y-95859580D02*
X163914285Y-95907200D01*
X163914285Y-95907200D02*
X163819047Y-95954819D01*
X163819047Y-95954819D02*
X163533333Y-95954819D01*
X163533333Y-95954819D02*
X163438095Y-95907200D01*
X163438095Y-95907200D02*
X163390476Y-95859580D01*
X154567261Y-94750057D02*
X154472023Y-94702438D01*
X154472023Y-94702438D02*
X154376785Y-94607200D01*
X154376785Y-94607200D02*
X154233928Y-94464342D01*
X154233928Y-94464342D02*
X154138690Y-94416723D01*
X154138690Y-94416723D02*
X154043452Y-94416723D01*
X154091071Y-94654819D02*
X153995833Y-94607200D01*
X153995833Y-94607200D02*
X153900595Y-94511961D01*
X153900595Y-94511961D02*
X153852976Y-94321485D01*
X153852976Y-94321485D02*
X153852976Y-93988152D01*
X153852976Y-93988152D02*
X153900595Y-93797676D01*
X153900595Y-93797676D02*
X153995833Y-93702438D01*
X153995833Y-93702438D02*
X154091071Y-93654819D01*
X154091071Y-93654819D02*
X154281547Y-93654819D01*
X154281547Y-93654819D02*
X154376785Y-93702438D01*
X154376785Y-93702438D02*
X154472023Y-93797676D01*
X154472023Y-93797676D02*
X154519642Y-93988152D01*
X154519642Y-93988152D02*
X154519642Y-94321485D01*
X154519642Y-94321485D02*
X154472023Y-94511961D01*
X154472023Y-94511961D02*
X154376785Y-94607200D01*
X154376785Y-94607200D02*
X154281547Y-94654819D01*
X154281547Y-94654819D02*
X154091071Y-94654819D01*
X154900595Y-93750057D02*
X154948214Y-93702438D01*
X154948214Y-93702438D02*
X155043452Y-93654819D01*
X155043452Y-93654819D02*
X155281547Y-93654819D01*
X155281547Y-93654819D02*
X155376785Y-93702438D01*
X155376785Y-93702438D02*
X155424404Y-93750057D01*
X155424404Y-93750057D02*
X155472023Y-93845295D01*
X155472023Y-93845295D02*
X155472023Y-93940533D01*
X155472023Y-93940533D02*
X155424404Y-94083390D01*
X155424404Y-94083390D02*
X154852976Y-94654819D01*
X154852976Y-94654819D02*
X155472023Y-94654819D01*
X131857142Y-96554819D02*
X131523809Y-96078628D01*
X131285714Y-96554819D02*
X131285714Y-95554819D01*
X131285714Y-95554819D02*
X131666666Y-95554819D01*
X131666666Y-95554819D02*
X131761904Y-95602438D01*
X131761904Y-95602438D02*
X131809523Y-95650057D01*
X131809523Y-95650057D02*
X131857142Y-95745295D01*
X131857142Y-95745295D02*
X131857142Y-95888152D01*
X131857142Y-95888152D02*
X131809523Y-95983390D01*
X131809523Y-95983390D02*
X131761904Y-96031009D01*
X131761904Y-96031009D02*
X131666666Y-96078628D01*
X131666666Y-96078628D02*
X131285714Y-96078628D01*
X132809523Y-96554819D02*
X132238095Y-96554819D01*
X132523809Y-96554819D02*
X132523809Y-95554819D01*
X132523809Y-95554819D02*
X132428571Y-95697676D01*
X132428571Y-95697676D02*
X132333333Y-95792914D01*
X132333333Y-95792914D02*
X132238095Y-95840533D01*
X133666666Y-95888152D02*
X133666666Y-96554819D01*
X133428571Y-95507200D02*
X133190476Y-96221485D01*
X133190476Y-96221485D02*
X133809523Y-96221485D01*
X131904761Y-97854819D02*
X131333333Y-97854819D01*
X131619047Y-97854819D02*
X131619047Y-96854819D01*
X131619047Y-96854819D02*
X131523809Y-96997676D01*
X131523809Y-96997676D02*
X131428571Y-97092914D01*
X131428571Y-97092914D02*
X131333333Y-97140533D01*
X132523809Y-96854819D02*
X132619047Y-96854819D01*
X132619047Y-96854819D02*
X132714285Y-96902438D01*
X132714285Y-96902438D02*
X132761904Y-96950057D01*
X132761904Y-96950057D02*
X132809523Y-97045295D01*
X132809523Y-97045295D02*
X132857142Y-97235771D01*
X132857142Y-97235771D02*
X132857142Y-97473866D01*
X132857142Y-97473866D02*
X132809523Y-97664342D01*
X132809523Y-97664342D02*
X132761904Y-97759580D01*
X132761904Y-97759580D02*
X132714285Y-97807200D01*
X132714285Y-97807200D02*
X132619047Y-97854819D01*
X132619047Y-97854819D02*
X132523809Y-97854819D01*
X132523809Y-97854819D02*
X132428571Y-97807200D01*
X132428571Y-97807200D02*
X132380952Y-97759580D01*
X132380952Y-97759580D02*
X132333333Y-97664342D01*
X132333333Y-97664342D02*
X132285714Y-97473866D01*
X132285714Y-97473866D02*
X132285714Y-97235771D01*
X132285714Y-97235771D02*
X132333333Y-97045295D01*
X132333333Y-97045295D02*
X132380952Y-96950057D01*
X132380952Y-96950057D02*
X132428571Y-96902438D01*
X132428571Y-96902438D02*
X132523809Y-96854819D01*
X133285714Y-97854819D02*
X133285714Y-96854819D01*
X133380952Y-97473866D02*
X133666666Y-97854819D01*
X133666666Y-97188152D02*
X133285714Y-97569104D01*
X122057142Y-87229819D02*
X121723809Y-86753628D01*
X121485714Y-87229819D02*
X121485714Y-86229819D01*
X121485714Y-86229819D02*
X121866666Y-86229819D01*
X121866666Y-86229819D02*
X121961904Y-86277438D01*
X121961904Y-86277438D02*
X122009523Y-86325057D01*
X122009523Y-86325057D02*
X122057142Y-86420295D01*
X122057142Y-86420295D02*
X122057142Y-86563152D01*
X122057142Y-86563152D02*
X122009523Y-86658390D01*
X122009523Y-86658390D02*
X121961904Y-86706009D01*
X121961904Y-86706009D02*
X121866666Y-86753628D01*
X121866666Y-86753628D02*
X121485714Y-86753628D01*
X123009523Y-87229819D02*
X122438095Y-87229819D01*
X122723809Y-87229819D02*
X122723809Y-86229819D01*
X122723809Y-86229819D02*
X122628571Y-86372676D01*
X122628571Y-86372676D02*
X122533333Y-86467914D01*
X122533333Y-86467914D02*
X122438095Y-86515533D01*
X123485714Y-87229819D02*
X123676190Y-87229819D01*
X123676190Y-87229819D02*
X123771428Y-87182200D01*
X123771428Y-87182200D02*
X123819047Y-87134580D01*
X123819047Y-87134580D02*
X123914285Y-86991723D01*
X123914285Y-86991723D02*
X123961904Y-86801247D01*
X123961904Y-86801247D02*
X123961904Y-86420295D01*
X123961904Y-86420295D02*
X123914285Y-86325057D01*
X123914285Y-86325057D02*
X123866666Y-86277438D01*
X123866666Y-86277438D02*
X123771428Y-86229819D01*
X123771428Y-86229819D02*
X123580952Y-86229819D01*
X123580952Y-86229819D02*
X123485714Y-86277438D01*
X123485714Y-86277438D02*
X123438095Y-86325057D01*
X123438095Y-86325057D02*
X123390476Y-86420295D01*
X123390476Y-86420295D02*
X123390476Y-86658390D01*
X123390476Y-86658390D02*
X123438095Y-86753628D01*
X123438095Y-86753628D02*
X123485714Y-86801247D01*
X123485714Y-86801247D02*
X123580952Y-86848866D01*
X123580952Y-86848866D02*
X123771428Y-86848866D01*
X123771428Y-86848866D02*
X123866666Y-86801247D01*
X123866666Y-86801247D02*
X123914285Y-86753628D01*
X123914285Y-86753628D02*
X123961904Y-86658390D01*
X122054761Y-88629819D02*
X121483333Y-88629819D01*
X121769047Y-88629819D02*
X121769047Y-87629819D01*
X121769047Y-87629819D02*
X121673809Y-87772676D01*
X121673809Y-87772676D02*
X121578571Y-87867914D01*
X121578571Y-87867914D02*
X121483333Y-87915533D01*
X122673809Y-87629819D02*
X122769047Y-87629819D01*
X122769047Y-87629819D02*
X122864285Y-87677438D01*
X122864285Y-87677438D02*
X122911904Y-87725057D01*
X122911904Y-87725057D02*
X122959523Y-87820295D01*
X122959523Y-87820295D02*
X123007142Y-88010771D01*
X123007142Y-88010771D02*
X123007142Y-88248866D01*
X123007142Y-88248866D02*
X122959523Y-88439342D01*
X122959523Y-88439342D02*
X122911904Y-88534580D01*
X122911904Y-88534580D02*
X122864285Y-88582200D01*
X122864285Y-88582200D02*
X122769047Y-88629819D01*
X122769047Y-88629819D02*
X122673809Y-88629819D01*
X122673809Y-88629819D02*
X122578571Y-88582200D01*
X122578571Y-88582200D02*
X122530952Y-88534580D01*
X122530952Y-88534580D02*
X122483333Y-88439342D01*
X122483333Y-88439342D02*
X122435714Y-88248866D01*
X122435714Y-88248866D02*
X122435714Y-88010771D01*
X122435714Y-88010771D02*
X122483333Y-87820295D01*
X122483333Y-87820295D02*
X122530952Y-87725057D01*
X122530952Y-87725057D02*
X122578571Y-87677438D01*
X122578571Y-87677438D02*
X122673809Y-87629819D01*
X123435714Y-88629819D02*
X123435714Y-87629819D01*
X123530952Y-88248866D02*
X123816666Y-88629819D01*
X123816666Y-87963152D02*
X123435714Y-88344104D01*
X136457142Y-97259580D02*
X136409523Y-97307200D01*
X136409523Y-97307200D02*
X136266666Y-97354819D01*
X136266666Y-97354819D02*
X136171428Y-97354819D01*
X136171428Y-97354819D02*
X136028571Y-97307200D01*
X136028571Y-97307200D02*
X135933333Y-97211961D01*
X135933333Y-97211961D02*
X135885714Y-97116723D01*
X135885714Y-97116723D02*
X135838095Y-96926247D01*
X135838095Y-96926247D02*
X135838095Y-96783390D01*
X135838095Y-96783390D02*
X135885714Y-96592914D01*
X135885714Y-96592914D02*
X135933333Y-96497676D01*
X135933333Y-96497676D02*
X136028571Y-96402438D01*
X136028571Y-96402438D02*
X136171428Y-96354819D01*
X136171428Y-96354819D02*
X136266666Y-96354819D01*
X136266666Y-96354819D02*
X136409523Y-96402438D01*
X136409523Y-96402438D02*
X136457142Y-96450057D01*
X136838095Y-96450057D02*
X136885714Y-96402438D01*
X136885714Y-96402438D02*
X136980952Y-96354819D01*
X136980952Y-96354819D02*
X137219047Y-96354819D01*
X137219047Y-96354819D02*
X137314285Y-96402438D01*
X137314285Y-96402438D02*
X137361904Y-96450057D01*
X137361904Y-96450057D02*
X137409523Y-96545295D01*
X137409523Y-96545295D02*
X137409523Y-96640533D01*
X137409523Y-96640533D02*
X137361904Y-96783390D01*
X137361904Y-96783390D02*
X136790476Y-97354819D01*
X136790476Y-97354819D02*
X137409523Y-97354819D01*
X138028571Y-96354819D02*
X138123809Y-96354819D01*
X138123809Y-96354819D02*
X138219047Y-96402438D01*
X138219047Y-96402438D02*
X138266666Y-96450057D01*
X138266666Y-96450057D02*
X138314285Y-96545295D01*
X138314285Y-96545295D02*
X138361904Y-96735771D01*
X138361904Y-96735771D02*
X138361904Y-96973866D01*
X138361904Y-96973866D02*
X138314285Y-97164342D01*
X138314285Y-97164342D02*
X138266666Y-97259580D01*
X138266666Y-97259580D02*
X138219047Y-97307200D01*
X138219047Y-97307200D02*
X138123809Y-97354819D01*
X138123809Y-97354819D02*
X138028571Y-97354819D01*
X138028571Y-97354819D02*
X137933333Y-97307200D01*
X137933333Y-97307200D02*
X137885714Y-97259580D01*
X137885714Y-97259580D02*
X137838095Y-97164342D01*
X137838095Y-97164342D02*
X137790476Y-96973866D01*
X137790476Y-96973866D02*
X137790476Y-96735771D01*
X137790476Y-96735771D02*
X137838095Y-96545295D01*
X137838095Y-96545295D02*
X137885714Y-96450057D01*
X137885714Y-96450057D02*
X137933333Y-96402438D01*
X137933333Y-96402438D02*
X138028571Y-96354819D01*
X144347618Y-97354819D02*
X143776190Y-97354819D01*
X144061904Y-97354819D02*
X144061904Y-96354819D01*
X144061904Y-96354819D02*
X143966666Y-96497676D01*
X143966666Y-96497676D02*
X143871428Y-96592914D01*
X143871428Y-96592914D02*
X143776190Y-96640533D01*
X145204761Y-96688152D02*
X145204761Y-97354819D01*
X144776190Y-96688152D02*
X144776190Y-97211961D01*
X144776190Y-97211961D02*
X144823809Y-97307200D01*
X144823809Y-97307200D02*
X144919047Y-97354819D01*
X144919047Y-97354819D02*
X145061904Y-97354819D01*
X145061904Y-97354819D02*
X145157142Y-97307200D01*
X145157142Y-97307200D02*
X145204761Y-97259580D01*
X145538095Y-96688152D02*
X145919047Y-96688152D01*
X145680952Y-97354819D02*
X145680952Y-96497676D01*
X145680952Y-96497676D02*
X145728571Y-96402438D01*
X145728571Y-96402438D02*
X145823809Y-96354819D01*
X145823809Y-96354819D02*
X145919047Y-96354819D01*
X142473333Y-113145832D02*
X142425714Y-113193452D01*
X142425714Y-113193452D02*
X142282857Y-113241071D01*
X142282857Y-113241071D02*
X142187619Y-113241071D01*
X142187619Y-113241071D02*
X142044762Y-113193452D01*
X142044762Y-113193452D02*
X141949524Y-113098213D01*
X141949524Y-113098213D02*
X141901905Y-113002975D01*
X141901905Y-113002975D02*
X141854286Y-112812499D01*
X141854286Y-112812499D02*
X141854286Y-112669642D01*
X141854286Y-112669642D02*
X141901905Y-112479166D01*
X141901905Y-112479166D02*
X141949524Y-112383928D01*
X141949524Y-112383928D02*
X142044762Y-112288690D01*
X142044762Y-112288690D02*
X142187619Y-112241071D01*
X142187619Y-112241071D02*
X142282857Y-112241071D01*
X142282857Y-112241071D02*
X142425714Y-112288690D01*
X142425714Y-112288690D02*
X142473333Y-112336309D01*
X142949524Y-113241071D02*
X143140000Y-113241071D01*
X143140000Y-113241071D02*
X143235238Y-113193452D01*
X143235238Y-113193452D02*
X143282857Y-113145832D01*
X143282857Y-113145832D02*
X143378095Y-113002975D01*
X143378095Y-113002975D02*
X143425714Y-112812499D01*
X143425714Y-112812499D02*
X143425714Y-112431547D01*
X143425714Y-112431547D02*
X143378095Y-112336309D01*
X143378095Y-112336309D02*
X143330476Y-112288690D01*
X143330476Y-112288690D02*
X143235238Y-112241071D01*
X143235238Y-112241071D02*
X143044762Y-112241071D01*
X143044762Y-112241071D02*
X142949524Y-112288690D01*
X142949524Y-112288690D02*
X142901905Y-112336309D01*
X142901905Y-112336309D02*
X142854286Y-112431547D01*
X142854286Y-112431547D02*
X142854286Y-112669642D01*
X142854286Y-112669642D02*
X142901905Y-112764880D01*
X142901905Y-112764880D02*
X142949524Y-112812499D01*
X142949524Y-112812499D02*
X143044762Y-112860118D01*
X143044762Y-112860118D02*
X143235238Y-112860118D01*
X143235238Y-112860118D02*
X143330476Y-112812499D01*
X143330476Y-112812499D02*
X143378095Y-112764880D01*
X143378095Y-112764880D02*
X143425714Y-112669642D01*
X141473333Y-113874404D02*
X141473333Y-114541071D01*
X141235238Y-113493452D02*
X140997143Y-114207737D01*
X140997143Y-114207737D02*
X141616190Y-114207737D01*
X141901905Y-113541071D02*
X142568571Y-113541071D01*
X142568571Y-113541071D02*
X142140000Y-114541071D01*
X143378095Y-113874404D02*
X143378095Y-114541071D01*
X142949524Y-113874404D02*
X142949524Y-114398213D01*
X142949524Y-114398213D02*
X142997143Y-114493452D01*
X142997143Y-114493452D02*
X143092381Y-114541071D01*
X143092381Y-114541071D02*
X143235238Y-114541071D01*
X143235238Y-114541071D02*
X143330476Y-114493452D01*
X143330476Y-114493452D02*
X143378095Y-114445832D01*
X144187619Y-114017261D02*
X143854286Y-114017261D01*
X143854286Y-114541071D02*
X143854286Y-113541071D01*
X143854286Y-113541071D02*
X144330476Y-113541071D01*
X152057142Y-57354819D02*
X151723809Y-56878628D01*
X151485714Y-57354819D02*
X151485714Y-56354819D01*
X151485714Y-56354819D02*
X151866666Y-56354819D01*
X151866666Y-56354819D02*
X151961904Y-56402438D01*
X151961904Y-56402438D02*
X152009523Y-56450057D01*
X152009523Y-56450057D02*
X152057142Y-56545295D01*
X152057142Y-56545295D02*
X152057142Y-56688152D01*
X152057142Y-56688152D02*
X152009523Y-56783390D01*
X152009523Y-56783390D02*
X151961904Y-56831009D01*
X151961904Y-56831009D02*
X151866666Y-56878628D01*
X151866666Y-56878628D02*
X151485714Y-56878628D01*
X153009523Y-57354819D02*
X152438095Y-57354819D01*
X152723809Y-57354819D02*
X152723809Y-56354819D01*
X152723809Y-56354819D02*
X152628571Y-56497676D01*
X152628571Y-56497676D02*
X152533333Y-56592914D01*
X152533333Y-56592914D02*
X152438095Y-56640533D01*
X153961904Y-57354819D02*
X153390476Y-57354819D01*
X153676190Y-57354819D02*
X153676190Y-56354819D01*
X153676190Y-56354819D02*
X153580952Y-56497676D01*
X153580952Y-56497676D02*
X153485714Y-56592914D01*
X153485714Y-56592914D02*
X153390476Y-56640533D01*
X149409524Y-56450057D02*
X149457143Y-56402438D01*
X149457143Y-56402438D02*
X149552381Y-56354819D01*
X149552381Y-56354819D02*
X149790476Y-56354819D01*
X149790476Y-56354819D02*
X149885714Y-56402438D01*
X149885714Y-56402438D02*
X149933333Y-56450057D01*
X149933333Y-56450057D02*
X149980952Y-56545295D01*
X149980952Y-56545295D02*
X149980952Y-56640533D01*
X149980952Y-56640533D02*
X149933333Y-56783390D01*
X149933333Y-56783390D02*
X149361905Y-57354819D01*
X149361905Y-57354819D02*
X149980952Y-57354819D01*
X150409524Y-57354819D02*
X150409524Y-56354819D01*
X150504762Y-56973866D02*
X150790476Y-57354819D01*
X150790476Y-56688152D02*
X150409524Y-57069104D01*
X161833333Y-64654819D02*
X161500000Y-64178628D01*
X161261905Y-64654819D02*
X161261905Y-63654819D01*
X161261905Y-63654819D02*
X161642857Y-63654819D01*
X161642857Y-63654819D02*
X161738095Y-63702438D01*
X161738095Y-63702438D02*
X161785714Y-63750057D01*
X161785714Y-63750057D02*
X161833333Y-63845295D01*
X161833333Y-63845295D02*
X161833333Y-63988152D01*
X161833333Y-63988152D02*
X161785714Y-64083390D01*
X161785714Y-64083390D02*
X161738095Y-64131009D01*
X161738095Y-64131009D02*
X161642857Y-64178628D01*
X161642857Y-64178628D02*
X161261905Y-64178628D01*
X162404762Y-64083390D02*
X162309524Y-64035771D01*
X162309524Y-64035771D02*
X162261905Y-63988152D01*
X162261905Y-63988152D02*
X162214286Y-63892914D01*
X162214286Y-63892914D02*
X162214286Y-63845295D01*
X162214286Y-63845295D02*
X162261905Y-63750057D01*
X162261905Y-63750057D02*
X162309524Y-63702438D01*
X162309524Y-63702438D02*
X162404762Y-63654819D01*
X162404762Y-63654819D02*
X162595238Y-63654819D01*
X162595238Y-63654819D02*
X162690476Y-63702438D01*
X162690476Y-63702438D02*
X162738095Y-63750057D01*
X162738095Y-63750057D02*
X162785714Y-63845295D01*
X162785714Y-63845295D02*
X162785714Y-63892914D01*
X162785714Y-63892914D02*
X162738095Y-63988152D01*
X162738095Y-63988152D02*
X162690476Y-64035771D01*
X162690476Y-64035771D02*
X162595238Y-64083390D01*
X162595238Y-64083390D02*
X162404762Y-64083390D01*
X162404762Y-64083390D02*
X162309524Y-64131009D01*
X162309524Y-64131009D02*
X162261905Y-64178628D01*
X162261905Y-64178628D02*
X162214286Y-64273866D01*
X162214286Y-64273866D02*
X162214286Y-64464342D01*
X162214286Y-64464342D02*
X162261905Y-64559580D01*
X162261905Y-64559580D02*
X162309524Y-64607200D01*
X162309524Y-64607200D02*
X162404762Y-64654819D01*
X162404762Y-64654819D02*
X162595238Y-64654819D01*
X162595238Y-64654819D02*
X162690476Y-64607200D01*
X162690476Y-64607200D02*
X162738095Y-64559580D01*
X162738095Y-64559580D02*
X162785714Y-64464342D01*
X162785714Y-64464342D02*
X162785714Y-64273866D01*
X162785714Y-64273866D02*
X162738095Y-64178628D01*
X162738095Y-64178628D02*
X162690476Y-64131009D01*
X162690476Y-64131009D02*
X162595238Y-64083390D01*
X161857142Y-66054819D02*
X161285714Y-66054819D01*
X161571428Y-66054819D02*
X161571428Y-65054819D01*
X161571428Y-65054819D02*
X161476190Y-65197676D01*
X161476190Y-65197676D02*
X161380952Y-65292914D01*
X161380952Y-65292914D02*
X161285714Y-65340533D01*
X162476190Y-65054819D02*
X162571428Y-65054819D01*
X162571428Y-65054819D02*
X162666666Y-65102438D01*
X162666666Y-65102438D02*
X162714285Y-65150057D01*
X162714285Y-65150057D02*
X162761904Y-65245295D01*
X162761904Y-65245295D02*
X162809523Y-65435771D01*
X162809523Y-65435771D02*
X162809523Y-65673866D01*
X162809523Y-65673866D02*
X162761904Y-65864342D01*
X162761904Y-65864342D02*
X162714285Y-65959580D01*
X162714285Y-65959580D02*
X162666666Y-66007200D01*
X162666666Y-66007200D02*
X162571428Y-66054819D01*
X162571428Y-66054819D02*
X162476190Y-66054819D01*
X162476190Y-66054819D02*
X162380952Y-66007200D01*
X162380952Y-66007200D02*
X162333333Y-65959580D01*
X162333333Y-65959580D02*
X162285714Y-65864342D01*
X162285714Y-65864342D02*
X162238095Y-65673866D01*
X162238095Y-65673866D02*
X162238095Y-65435771D01*
X162238095Y-65435771D02*
X162285714Y-65245295D01*
X162285714Y-65245295D02*
X162333333Y-65150057D01*
X162333333Y-65150057D02*
X162380952Y-65102438D01*
X162380952Y-65102438D02*
X162476190Y-65054819D01*
X163428571Y-65054819D02*
X163523809Y-65054819D01*
X163523809Y-65054819D02*
X163619047Y-65102438D01*
X163619047Y-65102438D02*
X163666666Y-65150057D01*
X163666666Y-65150057D02*
X163714285Y-65245295D01*
X163714285Y-65245295D02*
X163761904Y-65435771D01*
X163761904Y-65435771D02*
X163761904Y-65673866D01*
X163761904Y-65673866D02*
X163714285Y-65864342D01*
X163714285Y-65864342D02*
X163666666Y-65959580D01*
X163666666Y-65959580D02*
X163619047Y-66007200D01*
X163619047Y-66007200D02*
X163523809Y-66054819D01*
X163523809Y-66054819D02*
X163428571Y-66054819D01*
X163428571Y-66054819D02*
X163333333Y-66007200D01*
X163333333Y-66007200D02*
X163285714Y-65959580D01*
X163285714Y-65959580D02*
X163238095Y-65864342D01*
X163238095Y-65864342D02*
X163190476Y-65673866D01*
X163190476Y-65673866D02*
X163190476Y-65435771D01*
X163190476Y-65435771D02*
X163238095Y-65245295D01*
X163238095Y-65245295D02*
X163285714Y-65150057D01*
X163285714Y-65150057D02*
X163333333Y-65102438D01*
X163333333Y-65102438D02*
X163428571Y-65054819D01*
X164380952Y-65054819D02*
X164476190Y-65054819D01*
X164476190Y-65054819D02*
X164571428Y-65102438D01*
X164571428Y-65102438D02*
X164619047Y-65150057D01*
X164619047Y-65150057D02*
X164666666Y-65245295D01*
X164666666Y-65245295D02*
X164714285Y-65435771D01*
X164714285Y-65435771D02*
X164714285Y-65673866D01*
X164714285Y-65673866D02*
X164666666Y-65864342D01*
X164666666Y-65864342D02*
X164619047Y-65959580D01*
X164619047Y-65959580D02*
X164571428Y-66007200D01*
X164571428Y-66007200D02*
X164476190Y-66054819D01*
X164476190Y-66054819D02*
X164380952Y-66054819D01*
X164380952Y-66054819D02*
X164285714Y-66007200D01*
X164285714Y-66007200D02*
X164238095Y-65959580D01*
X164238095Y-65959580D02*
X164190476Y-65864342D01*
X164190476Y-65864342D02*
X164142857Y-65673866D01*
X164142857Y-65673866D02*
X164142857Y-65435771D01*
X164142857Y-65435771D02*
X164190476Y-65245295D01*
X164190476Y-65245295D02*
X164238095Y-65150057D01*
X164238095Y-65150057D02*
X164285714Y-65102438D01*
X164285714Y-65102438D02*
X164380952Y-65054819D01*
X136357142Y-88159580D02*
X136309523Y-88207200D01*
X136309523Y-88207200D02*
X136166666Y-88254819D01*
X136166666Y-88254819D02*
X136071428Y-88254819D01*
X136071428Y-88254819D02*
X135928571Y-88207200D01*
X135928571Y-88207200D02*
X135833333Y-88111961D01*
X135833333Y-88111961D02*
X135785714Y-88016723D01*
X135785714Y-88016723D02*
X135738095Y-87826247D01*
X135738095Y-87826247D02*
X135738095Y-87683390D01*
X135738095Y-87683390D02*
X135785714Y-87492914D01*
X135785714Y-87492914D02*
X135833333Y-87397676D01*
X135833333Y-87397676D02*
X135928571Y-87302438D01*
X135928571Y-87302438D02*
X136071428Y-87254819D01*
X136071428Y-87254819D02*
X136166666Y-87254819D01*
X136166666Y-87254819D02*
X136309523Y-87302438D01*
X136309523Y-87302438D02*
X136357142Y-87350057D01*
X137309523Y-88254819D02*
X136738095Y-88254819D01*
X137023809Y-88254819D02*
X137023809Y-87254819D01*
X137023809Y-87254819D02*
X136928571Y-87397676D01*
X136928571Y-87397676D02*
X136833333Y-87492914D01*
X136833333Y-87492914D02*
X136738095Y-87540533D01*
X138166666Y-87588152D02*
X138166666Y-88254819D01*
X137928571Y-87207200D02*
X137690476Y-87921485D01*
X137690476Y-87921485D02*
X138309523Y-87921485D01*
X134757143Y-89054819D02*
X134852381Y-89054819D01*
X134852381Y-89054819D02*
X134947619Y-89102438D01*
X134947619Y-89102438D02*
X134995238Y-89150057D01*
X134995238Y-89150057D02*
X135042857Y-89245295D01*
X135042857Y-89245295D02*
X135090476Y-89435771D01*
X135090476Y-89435771D02*
X135090476Y-89673866D01*
X135090476Y-89673866D02*
X135042857Y-89864342D01*
X135042857Y-89864342D02*
X134995238Y-89959580D01*
X134995238Y-89959580D02*
X134947619Y-90007200D01*
X134947619Y-90007200D02*
X134852381Y-90054819D01*
X134852381Y-90054819D02*
X134757143Y-90054819D01*
X134757143Y-90054819D02*
X134661905Y-90007200D01*
X134661905Y-90007200D02*
X134614286Y-89959580D01*
X134614286Y-89959580D02*
X134566667Y-89864342D01*
X134566667Y-89864342D02*
X134519048Y-89673866D01*
X134519048Y-89673866D02*
X134519048Y-89435771D01*
X134519048Y-89435771D02*
X134566667Y-89245295D01*
X134566667Y-89245295D02*
X134614286Y-89150057D01*
X134614286Y-89150057D02*
X134661905Y-89102438D01*
X134661905Y-89102438D02*
X134757143Y-89054819D01*
X135519048Y-89959580D02*
X135566667Y-90007200D01*
X135566667Y-90007200D02*
X135519048Y-90054819D01*
X135519048Y-90054819D02*
X135471429Y-90007200D01*
X135471429Y-90007200D02*
X135519048Y-89959580D01*
X135519048Y-89959580D02*
X135519048Y-90054819D01*
X136519047Y-90054819D02*
X135947619Y-90054819D01*
X136233333Y-90054819D02*
X136233333Y-89054819D01*
X136233333Y-89054819D02*
X136138095Y-89197676D01*
X136138095Y-89197676D02*
X136042857Y-89292914D01*
X136042857Y-89292914D02*
X135947619Y-89340533D01*
X137376190Y-89388152D02*
X137376190Y-90054819D01*
X136947619Y-89388152D02*
X136947619Y-89911961D01*
X136947619Y-89911961D02*
X136995238Y-90007200D01*
X136995238Y-90007200D02*
X137090476Y-90054819D01*
X137090476Y-90054819D02*
X137233333Y-90054819D01*
X137233333Y-90054819D02*
X137328571Y-90007200D01*
X137328571Y-90007200D02*
X137376190Y-89959580D01*
X138185714Y-89531009D02*
X137852381Y-89531009D01*
X137852381Y-90054819D02*
X137852381Y-89054819D01*
X137852381Y-89054819D02*
X138328571Y-89054819D01*
X158633333Y-86854819D02*
X158300000Y-86378628D01*
X158061905Y-86854819D02*
X158061905Y-85854819D01*
X158061905Y-85854819D02*
X158442857Y-85854819D01*
X158442857Y-85854819D02*
X158538095Y-85902438D01*
X158538095Y-85902438D02*
X158585714Y-85950057D01*
X158585714Y-85950057D02*
X158633333Y-86045295D01*
X158633333Y-86045295D02*
X158633333Y-86188152D01*
X158633333Y-86188152D02*
X158585714Y-86283390D01*
X158585714Y-86283390D02*
X158538095Y-86331009D01*
X158538095Y-86331009D02*
X158442857Y-86378628D01*
X158442857Y-86378628D02*
X158061905Y-86378628D01*
X159490476Y-85854819D02*
X159300000Y-85854819D01*
X159300000Y-85854819D02*
X159204762Y-85902438D01*
X159204762Y-85902438D02*
X159157143Y-85950057D01*
X159157143Y-85950057D02*
X159061905Y-86092914D01*
X159061905Y-86092914D02*
X159014286Y-86283390D01*
X159014286Y-86283390D02*
X159014286Y-86664342D01*
X159014286Y-86664342D02*
X159061905Y-86759580D01*
X159061905Y-86759580D02*
X159109524Y-86807200D01*
X159109524Y-86807200D02*
X159204762Y-86854819D01*
X159204762Y-86854819D02*
X159395238Y-86854819D01*
X159395238Y-86854819D02*
X159490476Y-86807200D01*
X159490476Y-86807200D02*
X159538095Y-86759580D01*
X159538095Y-86759580D02*
X159585714Y-86664342D01*
X159585714Y-86664342D02*
X159585714Y-86426247D01*
X159585714Y-86426247D02*
X159538095Y-86331009D01*
X159538095Y-86331009D02*
X159490476Y-86283390D01*
X159490476Y-86283390D02*
X159395238Y-86235771D01*
X159395238Y-86235771D02*
X159204762Y-86235771D01*
X159204762Y-86235771D02*
X159109524Y-86283390D01*
X159109524Y-86283390D02*
X159061905Y-86331009D01*
X159061905Y-86331009D02*
X159014286Y-86426247D01*
X160857142Y-86854819D02*
X160285714Y-86854819D01*
X160571428Y-86854819D02*
X160571428Y-85854819D01*
X160571428Y-85854819D02*
X160476190Y-85997676D01*
X160476190Y-85997676D02*
X160380952Y-86092914D01*
X160380952Y-86092914D02*
X160285714Y-86140533D01*
X161476190Y-85854819D02*
X161571428Y-85854819D01*
X161571428Y-85854819D02*
X161666666Y-85902438D01*
X161666666Y-85902438D02*
X161714285Y-85950057D01*
X161714285Y-85950057D02*
X161761904Y-86045295D01*
X161761904Y-86045295D02*
X161809523Y-86235771D01*
X161809523Y-86235771D02*
X161809523Y-86473866D01*
X161809523Y-86473866D02*
X161761904Y-86664342D01*
X161761904Y-86664342D02*
X161714285Y-86759580D01*
X161714285Y-86759580D02*
X161666666Y-86807200D01*
X161666666Y-86807200D02*
X161571428Y-86854819D01*
X161571428Y-86854819D02*
X161476190Y-86854819D01*
X161476190Y-86854819D02*
X161380952Y-86807200D01*
X161380952Y-86807200D02*
X161333333Y-86759580D01*
X161333333Y-86759580D02*
X161285714Y-86664342D01*
X161285714Y-86664342D02*
X161238095Y-86473866D01*
X161238095Y-86473866D02*
X161238095Y-86235771D01*
X161238095Y-86235771D02*
X161285714Y-86045295D01*
X161285714Y-86045295D02*
X161333333Y-85950057D01*
X161333333Y-85950057D02*
X161380952Y-85902438D01*
X161380952Y-85902438D02*
X161476190Y-85854819D01*
X162428571Y-85854819D02*
X162523809Y-85854819D01*
X162523809Y-85854819D02*
X162619047Y-85902438D01*
X162619047Y-85902438D02*
X162666666Y-85950057D01*
X162666666Y-85950057D02*
X162714285Y-86045295D01*
X162714285Y-86045295D02*
X162761904Y-86235771D01*
X162761904Y-86235771D02*
X162761904Y-86473866D01*
X162761904Y-86473866D02*
X162714285Y-86664342D01*
X162714285Y-86664342D02*
X162666666Y-86759580D01*
X162666666Y-86759580D02*
X162619047Y-86807200D01*
X162619047Y-86807200D02*
X162523809Y-86854819D01*
X162523809Y-86854819D02*
X162428571Y-86854819D01*
X162428571Y-86854819D02*
X162333333Y-86807200D01*
X162333333Y-86807200D02*
X162285714Y-86759580D01*
X162285714Y-86759580D02*
X162238095Y-86664342D01*
X162238095Y-86664342D02*
X162190476Y-86473866D01*
X162190476Y-86473866D02*
X162190476Y-86235771D01*
X162190476Y-86235771D02*
X162238095Y-86045295D01*
X162238095Y-86045295D02*
X162285714Y-85950057D01*
X162285714Y-85950057D02*
X162333333Y-85902438D01*
X162333333Y-85902438D02*
X162428571Y-85854819D01*
X163380952Y-85854819D02*
X163476190Y-85854819D01*
X163476190Y-85854819D02*
X163571428Y-85902438D01*
X163571428Y-85902438D02*
X163619047Y-85950057D01*
X163619047Y-85950057D02*
X163666666Y-86045295D01*
X163666666Y-86045295D02*
X163714285Y-86235771D01*
X163714285Y-86235771D02*
X163714285Y-86473866D01*
X163714285Y-86473866D02*
X163666666Y-86664342D01*
X163666666Y-86664342D02*
X163619047Y-86759580D01*
X163619047Y-86759580D02*
X163571428Y-86807200D01*
X163571428Y-86807200D02*
X163476190Y-86854819D01*
X163476190Y-86854819D02*
X163380952Y-86854819D01*
X163380952Y-86854819D02*
X163285714Y-86807200D01*
X163285714Y-86807200D02*
X163238095Y-86759580D01*
X163238095Y-86759580D02*
X163190476Y-86664342D01*
X163190476Y-86664342D02*
X163142857Y-86473866D01*
X163142857Y-86473866D02*
X163142857Y-86235771D01*
X163142857Y-86235771D02*
X163190476Y-86045295D01*
X163190476Y-86045295D02*
X163238095Y-85950057D01*
X163238095Y-85950057D02*
X163285714Y-85902438D01*
X163285714Y-85902438D02*
X163380952Y-85854819D01*
X127607142Y-70604819D02*
X127273809Y-70128628D01*
X127035714Y-70604819D02*
X127035714Y-69604819D01*
X127035714Y-69604819D02*
X127416666Y-69604819D01*
X127416666Y-69604819D02*
X127511904Y-69652438D01*
X127511904Y-69652438D02*
X127559523Y-69700057D01*
X127559523Y-69700057D02*
X127607142Y-69795295D01*
X127607142Y-69795295D02*
X127607142Y-69938152D01*
X127607142Y-69938152D02*
X127559523Y-70033390D01*
X127559523Y-70033390D02*
X127511904Y-70081009D01*
X127511904Y-70081009D02*
X127416666Y-70128628D01*
X127416666Y-70128628D02*
X127035714Y-70128628D01*
X127988095Y-69700057D02*
X128035714Y-69652438D01*
X128035714Y-69652438D02*
X128130952Y-69604819D01*
X128130952Y-69604819D02*
X128369047Y-69604819D01*
X128369047Y-69604819D02*
X128464285Y-69652438D01*
X128464285Y-69652438D02*
X128511904Y-69700057D01*
X128511904Y-69700057D02*
X128559523Y-69795295D01*
X128559523Y-69795295D02*
X128559523Y-69890533D01*
X128559523Y-69890533D02*
X128511904Y-70033390D01*
X128511904Y-70033390D02*
X127940476Y-70604819D01*
X127940476Y-70604819D02*
X128559523Y-70604819D01*
X128892857Y-69604819D02*
X129511904Y-69604819D01*
X129511904Y-69604819D02*
X129178571Y-69985771D01*
X129178571Y-69985771D02*
X129321428Y-69985771D01*
X129321428Y-69985771D02*
X129416666Y-70033390D01*
X129416666Y-70033390D02*
X129464285Y-70081009D01*
X129464285Y-70081009D02*
X129511904Y-70176247D01*
X129511904Y-70176247D02*
X129511904Y-70414342D01*
X129511904Y-70414342D02*
X129464285Y-70509580D01*
X129464285Y-70509580D02*
X129416666Y-70557200D01*
X129416666Y-70557200D02*
X129321428Y-70604819D01*
X129321428Y-70604819D02*
X129035714Y-70604819D01*
X129035714Y-70604819D02*
X128940476Y-70557200D01*
X128940476Y-70557200D02*
X128892857Y-70509580D01*
X127609523Y-72054819D02*
X127038095Y-72054819D01*
X127323809Y-72054819D02*
X127323809Y-71054819D01*
X127323809Y-71054819D02*
X127228571Y-71197676D01*
X127228571Y-71197676D02*
X127133333Y-71292914D01*
X127133333Y-71292914D02*
X127038095Y-71340533D01*
X128228571Y-71054819D02*
X128323809Y-71054819D01*
X128323809Y-71054819D02*
X128419047Y-71102438D01*
X128419047Y-71102438D02*
X128466666Y-71150057D01*
X128466666Y-71150057D02*
X128514285Y-71245295D01*
X128514285Y-71245295D02*
X128561904Y-71435771D01*
X128561904Y-71435771D02*
X128561904Y-71673866D01*
X128561904Y-71673866D02*
X128514285Y-71864342D01*
X128514285Y-71864342D02*
X128466666Y-71959580D01*
X128466666Y-71959580D02*
X128419047Y-72007200D01*
X128419047Y-72007200D02*
X128323809Y-72054819D01*
X128323809Y-72054819D02*
X128228571Y-72054819D01*
X128228571Y-72054819D02*
X128133333Y-72007200D01*
X128133333Y-72007200D02*
X128085714Y-71959580D01*
X128085714Y-71959580D02*
X128038095Y-71864342D01*
X128038095Y-71864342D02*
X127990476Y-71673866D01*
X127990476Y-71673866D02*
X127990476Y-71435771D01*
X127990476Y-71435771D02*
X128038095Y-71245295D01*
X128038095Y-71245295D02*
X128085714Y-71150057D01*
X128085714Y-71150057D02*
X128133333Y-71102438D01*
X128133333Y-71102438D02*
X128228571Y-71054819D01*
X121757142Y-81854819D02*
X121423809Y-81378628D01*
X121185714Y-81854819D02*
X121185714Y-80854819D01*
X121185714Y-80854819D02*
X121566666Y-80854819D01*
X121566666Y-80854819D02*
X121661904Y-80902438D01*
X121661904Y-80902438D02*
X121709523Y-80950057D01*
X121709523Y-80950057D02*
X121757142Y-81045295D01*
X121757142Y-81045295D02*
X121757142Y-81188152D01*
X121757142Y-81188152D02*
X121709523Y-81283390D01*
X121709523Y-81283390D02*
X121661904Y-81331009D01*
X121661904Y-81331009D02*
X121566666Y-81378628D01*
X121566666Y-81378628D02*
X121185714Y-81378628D01*
X122138095Y-80950057D02*
X122185714Y-80902438D01*
X122185714Y-80902438D02*
X122280952Y-80854819D01*
X122280952Y-80854819D02*
X122519047Y-80854819D01*
X122519047Y-80854819D02*
X122614285Y-80902438D01*
X122614285Y-80902438D02*
X122661904Y-80950057D01*
X122661904Y-80950057D02*
X122709523Y-81045295D01*
X122709523Y-81045295D02*
X122709523Y-81140533D01*
X122709523Y-81140533D02*
X122661904Y-81283390D01*
X122661904Y-81283390D02*
X122090476Y-81854819D01*
X122090476Y-81854819D02*
X122709523Y-81854819D01*
X123090476Y-80950057D02*
X123138095Y-80902438D01*
X123138095Y-80902438D02*
X123233333Y-80854819D01*
X123233333Y-80854819D02*
X123471428Y-80854819D01*
X123471428Y-80854819D02*
X123566666Y-80902438D01*
X123566666Y-80902438D02*
X123614285Y-80950057D01*
X123614285Y-80950057D02*
X123661904Y-81045295D01*
X123661904Y-81045295D02*
X123661904Y-81140533D01*
X123661904Y-81140533D02*
X123614285Y-81283390D01*
X123614285Y-81283390D02*
X123042857Y-81854819D01*
X123042857Y-81854819D02*
X123661904Y-81854819D01*
X125257142Y-81854819D02*
X124685714Y-81854819D01*
X124971428Y-81854819D02*
X124971428Y-80854819D01*
X124971428Y-80854819D02*
X124876190Y-80997676D01*
X124876190Y-80997676D02*
X124780952Y-81092914D01*
X124780952Y-81092914D02*
X124685714Y-81140533D01*
X125876190Y-80854819D02*
X125971428Y-80854819D01*
X125971428Y-80854819D02*
X126066666Y-80902438D01*
X126066666Y-80902438D02*
X126114285Y-80950057D01*
X126114285Y-80950057D02*
X126161904Y-81045295D01*
X126161904Y-81045295D02*
X126209523Y-81235771D01*
X126209523Y-81235771D02*
X126209523Y-81473866D01*
X126209523Y-81473866D02*
X126161904Y-81664342D01*
X126161904Y-81664342D02*
X126114285Y-81759580D01*
X126114285Y-81759580D02*
X126066666Y-81807200D01*
X126066666Y-81807200D02*
X125971428Y-81854819D01*
X125971428Y-81854819D02*
X125876190Y-81854819D01*
X125876190Y-81854819D02*
X125780952Y-81807200D01*
X125780952Y-81807200D02*
X125733333Y-81759580D01*
X125733333Y-81759580D02*
X125685714Y-81664342D01*
X125685714Y-81664342D02*
X125638095Y-81473866D01*
X125638095Y-81473866D02*
X125638095Y-81235771D01*
X125638095Y-81235771D02*
X125685714Y-81045295D01*
X125685714Y-81045295D02*
X125733333Y-80950057D01*
X125733333Y-80950057D02*
X125780952Y-80902438D01*
X125780952Y-80902438D02*
X125876190Y-80854819D01*
X126828571Y-80854819D02*
X126923809Y-80854819D01*
X126923809Y-80854819D02*
X127019047Y-80902438D01*
X127019047Y-80902438D02*
X127066666Y-80950057D01*
X127066666Y-80950057D02*
X127114285Y-81045295D01*
X127114285Y-81045295D02*
X127161904Y-81235771D01*
X127161904Y-81235771D02*
X127161904Y-81473866D01*
X127161904Y-81473866D02*
X127114285Y-81664342D01*
X127114285Y-81664342D02*
X127066666Y-81759580D01*
X127066666Y-81759580D02*
X127019047Y-81807200D01*
X127019047Y-81807200D02*
X126923809Y-81854819D01*
X126923809Y-81854819D02*
X126828571Y-81854819D01*
X126828571Y-81854819D02*
X126733333Y-81807200D01*
X126733333Y-81807200D02*
X126685714Y-81759580D01*
X126685714Y-81759580D02*
X126638095Y-81664342D01*
X126638095Y-81664342D02*
X126590476Y-81473866D01*
X126590476Y-81473866D02*
X126590476Y-81235771D01*
X126590476Y-81235771D02*
X126638095Y-81045295D01*
X126638095Y-81045295D02*
X126685714Y-80950057D01*
X126685714Y-80950057D02*
X126733333Y-80902438D01*
X126733333Y-80902438D02*
X126828571Y-80854819D01*
X127780952Y-80854819D02*
X127876190Y-80854819D01*
X127876190Y-80854819D02*
X127971428Y-80902438D01*
X127971428Y-80902438D02*
X128019047Y-80950057D01*
X128019047Y-80950057D02*
X128066666Y-81045295D01*
X128066666Y-81045295D02*
X128114285Y-81235771D01*
X128114285Y-81235771D02*
X128114285Y-81473866D01*
X128114285Y-81473866D02*
X128066666Y-81664342D01*
X128066666Y-81664342D02*
X128019047Y-81759580D01*
X128019047Y-81759580D02*
X127971428Y-81807200D01*
X127971428Y-81807200D02*
X127876190Y-81854819D01*
X127876190Y-81854819D02*
X127780952Y-81854819D01*
X127780952Y-81854819D02*
X127685714Y-81807200D01*
X127685714Y-81807200D02*
X127638095Y-81759580D01*
X127638095Y-81759580D02*
X127590476Y-81664342D01*
X127590476Y-81664342D02*
X127542857Y-81473866D01*
X127542857Y-81473866D02*
X127542857Y-81235771D01*
X127542857Y-81235771D02*
X127590476Y-81045295D01*
X127590476Y-81045295D02*
X127638095Y-80950057D01*
X127638095Y-80950057D02*
X127685714Y-80902438D01*
X127685714Y-80902438D02*
X127780952Y-80854819D01*
X122301905Y-108041071D02*
X122301905Y-107041071D01*
X122301905Y-107041071D02*
X122540000Y-107041071D01*
X122540000Y-107041071D02*
X122682857Y-107088690D01*
X122682857Y-107088690D02*
X122778095Y-107183928D01*
X122778095Y-107183928D02*
X122825714Y-107279166D01*
X122825714Y-107279166D02*
X122873333Y-107469642D01*
X122873333Y-107469642D02*
X122873333Y-107612499D01*
X122873333Y-107612499D02*
X122825714Y-107802975D01*
X122825714Y-107802975D02*
X122778095Y-107898213D01*
X122778095Y-107898213D02*
X122682857Y-107993452D01*
X122682857Y-107993452D02*
X122540000Y-108041071D01*
X122540000Y-108041071D02*
X122301905Y-108041071D01*
X123825714Y-108041071D02*
X123254286Y-108041071D01*
X123540000Y-108041071D02*
X123540000Y-107041071D01*
X123540000Y-107041071D02*
X123444762Y-107183928D01*
X123444762Y-107183928D02*
X123349524Y-107279166D01*
X123349524Y-107279166D02*
X123254286Y-107326785D01*
X138138095Y-66104819D02*
X138709523Y-66104819D01*
X138423809Y-67104819D02*
X138423809Y-66104819D01*
X138947619Y-66104819D02*
X139566666Y-66104819D01*
X139566666Y-66104819D02*
X139233333Y-66485771D01*
X139233333Y-66485771D02*
X139376190Y-66485771D01*
X139376190Y-66485771D02*
X139471428Y-66533390D01*
X139471428Y-66533390D02*
X139519047Y-66581009D01*
X139519047Y-66581009D02*
X139566666Y-66676247D01*
X139566666Y-66676247D02*
X139566666Y-66914342D01*
X139566666Y-66914342D02*
X139519047Y-67009580D01*
X139519047Y-67009580D02*
X139471428Y-67057200D01*
X139471428Y-67057200D02*
X139376190Y-67104819D01*
X139376190Y-67104819D02*
X139090476Y-67104819D01*
X139090476Y-67104819D02*
X138995238Y-67057200D01*
X138995238Y-67057200D02*
X138947619Y-67009580D01*
X146557142Y-67654819D02*
X146223809Y-67178628D01*
X145985714Y-67654819D02*
X145985714Y-66654819D01*
X145985714Y-66654819D02*
X146366666Y-66654819D01*
X146366666Y-66654819D02*
X146461904Y-66702438D01*
X146461904Y-66702438D02*
X146509523Y-66750057D01*
X146509523Y-66750057D02*
X146557142Y-66845295D01*
X146557142Y-66845295D02*
X146557142Y-66988152D01*
X146557142Y-66988152D02*
X146509523Y-67083390D01*
X146509523Y-67083390D02*
X146461904Y-67131009D01*
X146461904Y-67131009D02*
X146366666Y-67178628D01*
X146366666Y-67178628D02*
X145985714Y-67178628D01*
X146938095Y-66750057D02*
X146985714Y-66702438D01*
X146985714Y-66702438D02*
X147080952Y-66654819D01*
X147080952Y-66654819D02*
X147319047Y-66654819D01*
X147319047Y-66654819D02*
X147414285Y-66702438D01*
X147414285Y-66702438D02*
X147461904Y-66750057D01*
X147461904Y-66750057D02*
X147509523Y-66845295D01*
X147509523Y-66845295D02*
X147509523Y-66940533D01*
X147509523Y-66940533D02*
X147461904Y-67083390D01*
X147461904Y-67083390D02*
X146890476Y-67654819D01*
X146890476Y-67654819D02*
X147509523Y-67654819D01*
X148414285Y-66654819D02*
X147938095Y-66654819D01*
X147938095Y-66654819D02*
X147890476Y-67131009D01*
X147890476Y-67131009D02*
X147938095Y-67083390D01*
X147938095Y-67083390D02*
X148033333Y-67035771D01*
X148033333Y-67035771D02*
X148271428Y-67035771D01*
X148271428Y-67035771D02*
X148366666Y-67083390D01*
X148366666Y-67083390D02*
X148414285Y-67131009D01*
X148414285Y-67131009D02*
X148461904Y-67226247D01*
X148461904Y-67226247D02*
X148461904Y-67464342D01*
X148461904Y-67464342D02*
X148414285Y-67559580D01*
X148414285Y-67559580D02*
X148366666Y-67607200D01*
X148366666Y-67607200D02*
X148271428Y-67654819D01*
X148271428Y-67654819D02*
X148033333Y-67654819D01*
X148033333Y-67654819D02*
X147938095Y-67607200D01*
X147938095Y-67607200D02*
X147890476Y-67559580D01*
X147009523Y-68854819D02*
X146438095Y-68854819D01*
X146723809Y-68854819D02*
X146723809Y-67854819D01*
X146723809Y-67854819D02*
X146628571Y-67997676D01*
X146628571Y-67997676D02*
X146533333Y-68092914D01*
X146533333Y-68092914D02*
X146438095Y-68140533D01*
X147628571Y-67854819D02*
X147723809Y-67854819D01*
X147723809Y-67854819D02*
X147819047Y-67902438D01*
X147819047Y-67902438D02*
X147866666Y-67950057D01*
X147866666Y-67950057D02*
X147914285Y-68045295D01*
X147914285Y-68045295D02*
X147961904Y-68235771D01*
X147961904Y-68235771D02*
X147961904Y-68473866D01*
X147961904Y-68473866D02*
X147914285Y-68664342D01*
X147914285Y-68664342D02*
X147866666Y-68759580D01*
X147866666Y-68759580D02*
X147819047Y-68807200D01*
X147819047Y-68807200D02*
X147723809Y-68854819D01*
X147723809Y-68854819D02*
X147628571Y-68854819D01*
X147628571Y-68854819D02*
X147533333Y-68807200D01*
X147533333Y-68807200D02*
X147485714Y-68759580D01*
X147485714Y-68759580D02*
X147438095Y-68664342D01*
X147438095Y-68664342D02*
X147390476Y-68473866D01*
X147390476Y-68473866D02*
X147390476Y-68235771D01*
X147390476Y-68235771D02*
X147438095Y-68045295D01*
X147438095Y-68045295D02*
X147485714Y-67950057D01*
X147485714Y-67950057D02*
X147533333Y-67902438D01*
X147533333Y-67902438D02*
X147628571Y-67854819D01*
X116857142Y-74154819D02*
X116523809Y-73678628D01*
X116285714Y-74154819D02*
X116285714Y-73154819D01*
X116285714Y-73154819D02*
X116666666Y-73154819D01*
X116666666Y-73154819D02*
X116761904Y-73202438D01*
X116761904Y-73202438D02*
X116809523Y-73250057D01*
X116809523Y-73250057D02*
X116857142Y-73345295D01*
X116857142Y-73345295D02*
X116857142Y-73488152D01*
X116857142Y-73488152D02*
X116809523Y-73583390D01*
X116809523Y-73583390D02*
X116761904Y-73631009D01*
X116761904Y-73631009D02*
X116666666Y-73678628D01*
X116666666Y-73678628D02*
X116285714Y-73678628D01*
X117238095Y-73250057D02*
X117285714Y-73202438D01*
X117285714Y-73202438D02*
X117380952Y-73154819D01*
X117380952Y-73154819D02*
X117619047Y-73154819D01*
X117619047Y-73154819D02*
X117714285Y-73202438D01*
X117714285Y-73202438D02*
X117761904Y-73250057D01*
X117761904Y-73250057D02*
X117809523Y-73345295D01*
X117809523Y-73345295D02*
X117809523Y-73440533D01*
X117809523Y-73440533D02*
X117761904Y-73583390D01*
X117761904Y-73583390D02*
X117190476Y-74154819D01*
X117190476Y-74154819D02*
X117809523Y-74154819D01*
X118761904Y-74154819D02*
X118190476Y-74154819D01*
X118476190Y-74154819D02*
X118476190Y-73154819D01*
X118476190Y-73154819D02*
X118380952Y-73297676D01*
X118380952Y-73297676D02*
X118285714Y-73392914D01*
X118285714Y-73392914D02*
X118190476Y-73440533D01*
X134097142Y-113045832D02*
X134049523Y-113093452D01*
X134049523Y-113093452D02*
X133906666Y-113141071D01*
X133906666Y-113141071D02*
X133811428Y-113141071D01*
X133811428Y-113141071D02*
X133668571Y-113093452D01*
X133668571Y-113093452D02*
X133573333Y-112998213D01*
X133573333Y-112998213D02*
X133525714Y-112902975D01*
X133525714Y-112902975D02*
X133478095Y-112712499D01*
X133478095Y-112712499D02*
X133478095Y-112569642D01*
X133478095Y-112569642D02*
X133525714Y-112379166D01*
X133525714Y-112379166D02*
X133573333Y-112283928D01*
X133573333Y-112283928D02*
X133668571Y-112188690D01*
X133668571Y-112188690D02*
X133811428Y-112141071D01*
X133811428Y-112141071D02*
X133906666Y-112141071D01*
X133906666Y-112141071D02*
X134049523Y-112188690D01*
X134049523Y-112188690D02*
X134097142Y-112236309D01*
X135049523Y-113141071D02*
X134478095Y-113141071D01*
X134763809Y-113141071D02*
X134763809Y-112141071D01*
X134763809Y-112141071D02*
X134668571Y-112283928D01*
X134668571Y-112283928D02*
X134573333Y-112379166D01*
X134573333Y-112379166D02*
X134478095Y-112426785D01*
X135668571Y-112141071D02*
X135763809Y-112141071D01*
X135763809Y-112141071D02*
X135859047Y-112188690D01*
X135859047Y-112188690D02*
X135906666Y-112236309D01*
X135906666Y-112236309D02*
X135954285Y-112331547D01*
X135954285Y-112331547D02*
X136001904Y-112522023D01*
X136001904Y-112522023D02*
X136001904Y-112760118D01*
X136001904Y-112760118D02*
X135954285Y-112950594D01*
X135954285Y-112950594D02*
X135906666Y-113045832D01*
X135906666Y-113045832D02*
X135859047Y-113093452D01*
X135859047Y-113093452D02*
X135763809Y-113141071D01*
X135763809Y-113141071D02*
X135668571Y-113141071D01*
X135668571Y-113141071D02*
X135573333Y-113093452D01*
X135573333Y-113093452D02*
X135525714Y-113045832D01*
X135525714Y-113045832D02*
X135478095Y-112950594D01*
X135478095Y-112950594D02*
X135430476Y-112760118D01*
X135430476Y-112760118D02*
X135430476Y-112522023D01*
X135430476Y-112522023D02*
X135478095Y-112331547D01*
X135478095Y-112331547D02*
X135525714Y-112236309D01*
X135525714Y-112236309D02*
X135573333Y-112188690D01*
X135573333Y-112188690D02*
X135668571Y-112141071D01*
X133473333Y-113774404D02*
X133473333Y-114441071D01*
X133235238Y-113393452D02*
X132997143Y-114107737D01*
X132997143Y-114107737D02*
X133616190Y-114107737D01*
X133901905Y-113441071D02*
X134568571Y-113441071D01*
X134568571Y-113441071D02*
X134140000Y-114441071D01*
X135378095Y-113774404D02*
X135378095Y-114441071D01*
X134949524Y-113774404D02*
X134949524Y-114298213D01*
X134949524Y-114298213D02*
X134997143Y-114393452D01*
X134997143Y-114393452D02*
X135092381Y-114441071D01*
X135092381Y-114441071D02*
X135235238Y-114441071D01*
X135235238Y-114441071D02*
X135330476Y-114393452D01*
X135330476Y-114393452D02*
X135378095Y-114345832D01*
X136187619Y-113917261D02*
X135854286Y-113917261D01*
X135854286Y-114441071D02*
X135854286Y-113441071D01*
X135854286Y-113441071D02*
X136330476Y-113441071D01*
X119533333Y-74254819D02*
X119057143Y-74254819D01*
X119057143Y-74254819D02*
X119057143Y-73254819D01*
X119771429Y-73254819D02*
X120390476Y-73254819D01*
X120390476Y-73254819D02*
X120057143Y-73635771D01*
X120057143Y-73635771D02*
X120200000Y-73635771D01*
X120200000Y-73635771D02*
X120295238Y-73683390D01*
X120295238Y-73683390D02*
X120342857Y-73731009D01*
X120342857Y-73731009D02*
X120390476Y-73826247D01*
X120390476Y-73826247D02*
X120390476Y-74064342D01*
X120390476Y-74064342D02*
X120342857Y-74159580D01*
X120342857Y-74159580D02*
X120295238Y-74207200D01*
X120295238Y-74207200D02*
X120200000Y-74254819D01*
X120200000Y-74254819D02*
X119914286Y-74254819D01*
X119914286Y-74254819D02*
X119819048Y-74207200D01*
X119819048Y-74207200D02*
X119771429Y-74159580D01*
X117057142Y-95654819D02*
X116723809Y-95178628D01*
X116485714Y-95654819D02*
X116485714Y-94654819D01*
X116485714Y-94654819D02*
X116866666Y-94654819D01*
X116866666Y-94654819D02*
X116961904Y-94702438D01*
X116961904Y-94702438D02*
X117009523Y-94750057D01*
X117009523Y-94750057D02*
X117057142Y-94845295D01*
X117057142Y-94845295D02*
X117057142Y-94988152D01*
X117057142Y-94988152D02*
X117009523Y-95083390D01*
X117009523Y-95083390D02*
X116961904Y-95131009D01*
X116961904Y-95131009D02*
X116866666Y-95178628D01*
X116866666Y-95178628D02*
X116485714Y-95178628D01*
X118009523Y-95654819D02*
X117438095Y-95654819D01*
X117723809Y-95654819D02*
X117723809Y-94654819D01*
X117723809Y-94654819D02*
X117628571Y-94797676D01*
X117628571Y-94797676D02*
X117533333Y-94892914D01*
X117533333Y-94892914D02*
X117438095Y-94940533D01*
X118390476Y-94750057D02*
X118438095Y-94702438D01*
X118438095Y-94702438D02*
X118533333Y-94654819D01*
X118533333Y-94654819D02*
X118771428Y-94654819D01*
X118771428Y-94654819D02*
X118866666Y-94702438D01*
X118866666Y-94702438D02*
X118914285Y-94750057D01*
X118914285Y-94750057D02*
X118961904Y-94845295D01*
X118961904Y-94845295D02*
X118961904Y-94940533D01*
X118961904Y-94940533D02*
X118914285Y-95083390D01*
X118914285Y-95083390D02*
X118342857Y-95654819D01*
X118342857Y-95654819D02*
X118961904Y-95654819D01*
X116485714Y-96150057D02*
X116533333Y-96102438D01*
X116533333Y-96102438D02*
X116628571Y-96054819D01*
X116628571Y-96054819D02*
X116866666Y-96054819D01*
X116866666Y-96054819D02*
X116961904Y-96102438D01*
X116961904Y-96102438D02*
X117009523Y-96150057D01*
X117009523Y-96150057D02*
X117057142Y-96245295D01*
X117057142Y-96245295D02*
X117057142Y-96340533D01*
X117057142Y-96340533D02*
X117009523Y-96483390D01*
X117009523Y-96483390D02*
X116438095Y-97054819D01*
X116438095Y-97054819D02*
X117057142Y-97054819D01*
X117390476Y-96054819D02*
X118057142Y-96054819D01*
X118057142Y-96054819D02*
X117628571Y-97054819D01*
X118628571Y-96054819D02*
X118723809Y-96054819D01*
X118723809Y-96054819D02*
X118819047Y-96102438D01*
X118819047Y-96102438D02*
X118866666Y-96150057D01*
X118866666Y-96150057D02*
X118914285Y-96245295D01*
X118914285Y-96245295D02*
X118961904Y-96435771D01*
X118961904Y-96435771D02*
X118961904Y-96673866D01*
X118961904Y-96673866D02*
X118914285Y-96864342D01*
X118914285Y-96864342D02*
X118866666Y-96959580D01*
X118866666Y-96959580D02*
X118819047Y-97007200D01*
X118819047Y-97007200D02*
X118723809Y-97054819D01*
X118723809Y-97054819D02*
X118628571Y-97054819D01*
X118628571Y-97054819D02*
X118533333Y-97007200D01*
X118533333Y-97007200D02*
X118485714Y-96959580D01*
X118485714Y-96959580D02*
X118438095Y-96864342D01*
X118438095Y-96864342D02*
X118390476Y-96673866D01*
X118390476Y-96673866D02*
X118390476Y-96435771D01*
X118390476Y-96435771D02*
X118438095Y-96245295D01*
X118438095Y-96245295D02*
X118485714Y-96150057D01*
X118485714Y-96150057D02*
X118533333Y-96102438D01*
X118533333Y-96102438D02*
X118628571Y-96054819D01*
X119580952Y-96054819D02*
X119676190Y-96054819D01*
X119676190Y-96054819D02*
X119771428Y-96102438D01*
X119771428Y-96102438D02*
X119819047Y-96150057D01*
X119819047Y-96150057D02*
X119866666Y-96245295D01*
X119866666Y-96245295D02*
X119914285Y-96435771D01*
X119914285Y-96435771D02*
X119914285Y-96673866D01*
X119914285Y-96673866D02*
X119866666Y-96864342D01*
X119866666Y-96864342D02*
X119819047Y-96959580D01*
X119819047Y-96959580D02*
X119771428Y-97007200D01*
X119771428Y-97007200D02*
X119676190Y-97054819D01*
X119676190Y-97054819D02*
X119580952Y-97054819D01*
X119580952Y-97054819D02*
X119485714Y-97007200D01*
X119485714Y-97007200D02*
X119438095Y-96959580D01*
X119438095Y-96959580D02*
X119390476Y-96864342D01*
X119390476Y-96864342D02*
X119342857Y-96673866D01*
X119342857Y-96673866D02*
X119342857Y-96435771D01*
X119342857Y-96435771D02*
X119390476Y-96245295D01*
X119390476Y-96245295D02*
X119438095Y-96150057D01*
X119438095Y-96150057D02*
X119485714Y-96102438D01*
X119485714Y-96102438D02*
X119580952Y-96054819D01*
X149257142Y-74934819D02*
X148923809Y-74458628D01*
X148685714Y-74934819D02*
X148685714Y-73934819D01*
X148685714Y-73934819D02*
X149066666Y-73934819D01*
X149066666Y-73934819D02*
X149161904Y-73982438D01*
X149161904Y-73982438D02*
X149209523Y-74030057D01*
X149209523Y-74030057D02*
X149257142Y-74125295D01*
X149257142Y-74125295D02*
X149257142Y-74268152D01*
X149257142Y-74268152D02*
X149209523Y-74363390D01*
X149209523Y-74363390D02*
X149161904Y-74411009D01*
X149161904Y-74411009D02*
X149066666Y-74458628D01*
X149066666Y-74458628D02*
X148685714Y-74458628D01*
X149638095Y-74030057D02*
X149685714Y-73982438D01*
X149685714Y-73982438D02*
X149780952Y-73934819D01*
X149780952Y-73934819D02*
X150019047Y-73934819D01*
X150019047Y-73934819D02*
X150114285Y-73982438D01*
X150114285Y-73982438D02*
X150161904Y-74030057D01*
X150161904Y-74030057D02*
X150209523Y-74125295D01*
X150209523Y-74125295D02*
X150209523Y-74220533D01*
X150209523Y-74220533D02*
X150161904Y-74363390D01*
X150161904Y-74363390D02*
X149590476Y-74934819D01*
X149590476Y-74934819D02*
X150209523Y-74934819D01*
X151066666Y-73934819D02*
X150876190Y-73934819D01*
X150876190Y-73934819D02*
X150780952Y-73982438D01*
X150780952Y-73982438D02*
X150733333Y-74030057D01*
X150733333Y-74030057D02*
X150638095Y-74172914D01*
X150638095Y-74172914D02*
X150590476Y-74363390D01*
X150590476Y-74363390D02*
X150590476Y-74744342D01*
X150590476Y-74744342D02*
X150638095Y-74839580D01*
X150638095Y-74839580D02*
X150685714Y-74887200D01*
X150685714Y-74887200D02*
X150780952Y-74934819D01*
X150780952Y-74934819D02*
X150971428Y-74934819D01*
X150971428Y-74934819D02*
X151066666Y-74887200D01*
X151066666Y-74887200D02*
X151114285Y-74839580D01*
X151114285Y-74839580D02*
X151161904Y-74744342D01*
X151161904Y-74744342D02*
X151161904Y-74506247D01*
X151161904Y-74506247D02*
X151114285Y-74411009D01*
X151114285Y-74411009D02*
X151066666Y-74363390D01*
X151066666Y-74363390D02*
X150971428Y-74315771D01*
X150971428Y-74315771D02*
X150780952Y-74315771D01*
X150780952Y-74315771D02*
X150685714Y-74363390D01*
X150685714Y-74363390D02*
X150638095Y-74411009D01*
X150638095Y-74411009D02*
X150590476Y-74506247D01*
X147709523Y-76454819D02*
X147138095Y-76454819D01*
X147423809Y-76454819D02*
X147423809Y-75454819D01*
X147423809Y-75454819D02*
X147328571Y-75597676D01*
X147328571Y-75597676D02*
X147233333Y-75692914D01*
X147233333Y-75692914D02*
X147138095Y-75740533D01*
X148328571Y-75454819D02*
X148423809Y-75454819D01*
X148423809Y-75454819D02*
X148519047Y-75502438D01*
X148519047Y-75502438D02*
X148566666Y-75550057D01*
X148566666Y-75550057D02*
X148614285Y-75645295D01*
X148614285Y-75645295D02*
X148661904Y-75835771D01*
X148661904Y-75835771D02*
X148661904Y-76073866D01*
X148661904Y-76073866D02*
X148614285Y-76264342D01*
X148614285Y-76264342D02*
X148566666Y-76359580D01*
X148566666Y-76359580D02*
X148519047Y-76407200D01*
X148519047Y-76407200D02*
X148423809Y-76454819D01*
X148423809Y-76454819D02*
X148328571Y-76454819D01*
X148328571Y-76454819D02*
X148233333Y-76407200D01*
X148233333Y-76407200D02*
X148185714Y-76359580D01*
X148185714Y-76359580D02*
X148138095Y-76264342D01*
X148138095Y-76264342D02*
X148090476Y-76073866D01*
X148090476Y-76073866D02*
X148090476Y-75835771D01*
X148090476Y-75835771D02*
X148138095Y-75645295D01*
X148138095Y-75645295D02*
X148185714Y-75550057D01*
X148185714Y-75550057D02*
X148233333Y-75502438D01*
X148233333Y-75502438D02*
X148328571Y-75454819D01*
X125282142Y-78359580D02*
X125234523Y-78407200D01*
X125234523Y-78407200D02*
X125091666Y-78454819D01*
X125091666Y-78454819D02*
X124996428Y-78454819D01*
X124996428Y-78454819D02*
X124853571Y-78407200D01*
X124853571Y-78407200D02*
X124758333Y-78311961D01*
X124758333Y-78311961D02*
X124710714Y-78216723D01*
X124710714Y-78216723D02*
X124663095Y-78026247D01*
X124663095Y-78026247D02*
X124663095Y-77883390D01*
X124663095Y-77883390D02*
X124710714Y-77692914D01*
X124710714Y-77692914D02*
X124758333Y-77597676D01*
X124758333Y-77597676D02*
X124853571Y-77502438D01*
X124853571Y-77502438D02*
X124996428Y-77454819D01*
X124996428Y-77454819D02*
X125091666Y-77454819D01*
X125091666Y-77454819D02*
X125234523Y-77502438D01*
X125234523Y-77502438D02*
X125282142Y-77550057D01*
X126234523Y-78454819D02*
X125663095Y-78454819D01*
X125948809Y-78454819D02*
X125948809Y-77454819D01*
X125948809Y-77454819D02*
X125853571Y-77597676D01*
X125853571Y-77597676D02*
X125758333Y-77692914D01*
X125758333Y-77692914D02*
X125663095Y-77740533D01*
X127139285Y-77454819D02*
X126663095Y-77454819D01*
X126663095Y-77454819D02*
X126615476Y-77931009D01*
X126615476Y-77931009D02*
X126663095Y-77883390D01*
X126663095Y-77883390D02*
X126758333Y-77835771D01*
X126758333Y-77835771D02*
X126996428Y-77835771D01*
X126996428Y-77835771D02*
X127091666Y-77883390D01*
X127091666Y-77883390D02*
X127139285Y-77931009D01*
X127139285Y-77931009D02*
X127186904Y-78026247D01*
X127186904Y-78026247D02*
X127186904Y-78264342D01*
X127186904Y-78264342D02*
X127139285Y-78359580D01*
X127139285Y-78359580D02*
X127091666Y-78407200D01*
X127091666Y-78407200D02*
X126996428Y-78454819D01*
X126996428Y-78454819D02*
X126758333Y-78454819D01*
X126758333Y-78454819D02*
X126663095Y-78407200D01*
X126663095Y-78407200D02*
X126615476Y-78359580D01*
X124282143Y-78854819D02*
X124377381Y-78854819D01*
X124377381Y-78854819D02*
X124472619Y-78902438D01*
X124472619Y-78902438D02*
X124520238Y-78950057D01*
X124520238Y-78950057D02*
X124567857Y-79045295D01*
X124567857Y-79045295D02*
X124615476Y-79235771D01*
X124615476Y-79235771D02*
X124615476Y-79473866D01*
X124615476Y-79473866D02*
X124567857Y-79664342D01*
X124567857Y-79664342D02*
X124520238Y-79759580D01*
X124520238Y-79759580D02*
X124472619Y-79807200D01*
X124472619Y-79807200D02*
X124377381Y-79854819D01*
X124377381Y-79854819D02*
X124282143Y-79854819D01*
X124282143Y-79854819D02*
X124186905Y-79807200D01*
X124186905Y-79807200D02*
X124139286Y-79759580D01*
X124139286Y-79759580D02*
X124091667Y-79664342D01*
X124091667Y-79664342D02*
X124044048Y-79473866D01*
X124044048Y-79473866D02*
X124044048Y-79235771D01*
X124044048Y-79235771D02*
X124091667Y-79045295D01*
X124091667Y-79045295D02*
X124139286Y-78950057D01*
X124139286Y-78950057D02*
X124186905Y-78902438D01*
X124186905Y-78902438D02*
X124282143Y-78854819D01*
X125044048Y-79759580D02*
X125091667Y-79807200D01*
X125091667Y-79807200D02*
X125044048Y-79854819D01*
X125044048Y-79854819D02*
X124996429Y-79807200D01*
X124996429Y-79807200D02*
X125044048Y-79759580D01*
X125044048Y-79759580D02*
X125044048Y-79854819D01*
X126044047Y-79854819D02*
X125472619Y-79854819D01*
X125758333Y-79854819D02*
X125758333Y-78854819D01*
X125758333Y-78854819D02*
X125663095Y-78997676D01*
X125663095Y-78997676D02*
X125567857Y-79092914D01*
X125567857Y-79092914D02*
X125472619Y-79140533D01*
X126901190Y-79188152D02*
X126901190Y-79854819D01*
X126472619Y-79188152D02*
X126472619Y-79711961D01*
X126472619Y-79711961D02*
X126520238Y-79807200D01*
X126520238Y-79807200D02*
X126615476Y-79854819D01*
X126615476Y-79854819D02*
X126758333Y-79854819D01*
X126758333Y-79854819D02*
X126853571Y-79807200D01*
X126853571Y-79807200D02*
X126901190Y-79759580D01*
X127710714Y-79331009D02*
X127377381Y-79331009D01*
X127377381Y-79854819D02*
X127377381Y-78854819D01*
X127377381Y-78854819D02*
X127853571Y-78854819D01*
X124904761Y-66450057D02*
X124809523Y-66402438D01*
X124809523Y-66402438D02*
X124714285Y-66307200D01*
X124714285Y-66307200D02*
X124571428Y-66164342D01*
X124571428Y-66164342D02*
X124476190Y-66116723D01*
X124476190Y-66116723D02*
X124380952Y-66116723D01*
X124428571Y-66354819D02*
X124333333Y-66307200D01*
X124333333Y-66307200D02*
X124238095Y-66211961D01*
X124238095Y-66211961D02*
X124190476Y-66021485D01*
X124190476Y-66021485D02*
X124190476Y-65688152D01*
X124190476Y-65688152D02*
X124238095Y-65497676D01*
X124238095Y-65497676D02*
X124333333Y-65402438D01*
X124333333Y-65402438D02*
X124428571Y-65354819D01*
X124428571Y-65354819D02*
X124619047Y-65354819D01*
X124619047Y-65354819D02*
X124714285Y-65402438D01*
X124714285Y-65402438D02*
X124809523Y-65497676D01*
X124809523Y-65497676D02*
X124857142Y-65688152D01*
X124857142Y-65688152D02*
X124857142Y-66021485D01*
X124857142Y-66021485D02*
X124809523Y-66211961D01*
X124809523Y-66211961D02*
X124714285Y-66307200D01*
X124714285Y-66307200D02*
X124619047Y-66354819D01*
X124619047Y-66354819D02*
X124428571Y-66354819D01*
X125190476Y-65354819D02*
X125857142Y-65354819D01*
X125857142Y-65354819D02*
X125428571Y-66354819D01*
X112157142Y-65259580D02*
X112109523Y-65307200D01*
X112109523Y-65307200D02*
X111966666Y-65354819D01*
X111966666Y-65354819D02*
X111871428Y-65354819D01*
X111871428Y-65354819D02*
X111728571Y-65307200D01*
X111728571Y-65307200D02*
X111633333Y-65211961D01*
X111633333Y-65211961D02*
X111585714Y-65116723D01*
X111585714Y-65116723D02*
X111538095Y-64926247D01*
X111538095Y-64926247D02*
X111538095Y-64783390D01*
X111538095Y-64783390D02*
X111585714Y-64592914D01*
X111585714Y-64592914D02*
X111633333Y-64497676D01*
X111633333Y-64497676D02*
X111728571Y-64402438D01*
X111728571Y-64402438D02*
X111871428Y-64354819D01*
X111871428Y-64354819D02*
X111966666Y-64354819D01*
X111966666Y-64354819D02*
X112109523Y-64402438D01*
X112109523Y-64402438D02*
X112157142Y-64450057D01*
X113109523Y-65354819D02*
X112538095Y-65354819D01*
X112823809Y-65354819D02*
X112823809Y-64354819D01*
X112823809Y-64354819D02*
X112728571Y-64497676D01*
X112728571Y-64497676D02*
X112633333Y-64592914D01*
X112633333Y-64592914D02*
X112538095Y-64640533D01*
X113585714Y-65354819D02*
X113776190Y-65354819D01*
X113776190Y-65354819D02*
X113871428Y-65307200D01*
X113871428Y-65307200D02*
X113919047Y-65259580D01*
X113919047Y-65259580D02*
X114014285Y-65116723D01*
X114014285Y-65116723D02*
X114061904Y-64926247D01*
X114061904Y-64926247D02*
X114061904Y-64545295D01*
X114061904Y-64545295D02*
X114014285Y-64450057D01*
X114014285Y-64450057D02*
X113966666Y-64402438D01*
X113966666Y-64402438D02*
X113871428Y-64354819D01*
X113871428Y-64354819D02*
X113680952Y-64354819D01*
X113680952Y-64354819D02*
X113585714Y-64402438D01*
X113585714Y-64402438D02*
X113538095Y-64450057D01*
X113538095Y-64450057D02*
X113490476Y-64545295D01*
X113490476Y-64545295D02*
X113490476Y-64783390D01*
X113490476Y-64783390D02*
X113538095Y-64878628D01*
X113538095Y-64878628D02*
X113585714Y-64926247D01*
X113585714Y-64926247D02*
X113680952Y-64973866D01*
X113680952Y-64973866D02*
X113871428Y-64973866D01*
X113871428Y-64973866D02*
X113966666Y-64926247D01*
X113966666Y-64926247D02*
X114014285Y-64878628D01*
X114014285Y-64878628D02*
X114061904Y-64783390D01*
X114533333Y-61604819D02*
X114200000Y-61128628D01*
X113961905Y-61604819D02*
X113961905Y-60604819D01*
X113961905Y-60604819D02*
X114342857Y-60604819D01*
X114342857Y-60604819D02*
X114438095Y-60652438D01*
X114438095Y-60652438D02*
X114485714Y-60700057D01*
X114485714Y-60700057D02*
X114533333Y-60795295D01*
X114533333Y-60795295D02*
X114533333Y-60938152D01*
X114533333Y-60938152D02*
X114485714Y-61033390D01*
X114485714Y-61033390D02*
X114438095Y-61081009D01*
X114438095Y-61081009D02*
X114342857Y-61128628D01*
X114342857Y-61128628D02*
X113961905Y-61128628D01*
X115390476Y-60938152D02*
X115390476Y-61604819D01*
X115152381Y-60557200D02*
X114914286Y-61271485D01*
X114914286Y-61271485D02*
X115533333Y-61271485D01*
X116611905Y-60700057D02*
X116659524Y-60652438D01*
X116659524Y-60652438D02*
X116754762Y-60604819D01*
X116754762Y-60604819D02*
X116992857Y-60604819D01*
X116992857Y-60604819D02*
X117088095Y-60652438D01*
X117088095Y-60652438D02*
X117135714Y-60700057D01*
X117135714Y-60700057D02*
X117183333Y-60795295D01*
X117183333Y-60795295D02*
X117183333Y-60890533D01*
X117183333Y-60890533D02*
X117135714Y-61033390D01*
X117135714Y-61033390D02*
X116564286Y-61604819D01*
X116564286Y-61604819D02*
X117183333Y-61604819D01*
X117516667Y-60604819D02*
X118183333Y-60604819D01*
X118183333Y-60604819D02*
X117754762Y-61604819D01*
X118754762Y-60604819D02*
X118850000Y-60604819D01*
X118850000Y-60604819D02*
X118945238Y-60652438D01*
X118945238Y-60652438D02*
X118992857Y-60700057D01*
X118992857Y-60700057D02*
X119040476Y-60795295D01*
X119040476Y-60795295D02*
X119088095Y-60985771D01*
X119088095Y-60985771D02*
X119088095Y-61223866D01*
X119088095Y-61223866D02*
X119040476Y-61414342D01*
X119040476Y-61414342D02*
X118992857Y-61509580D01*
X118992857Y-61509580D02*
X118945238Y-61557200D01*
X118945238Y-61557200D02*
X118850000Y-61604819D01*
X118850000Y-61604819D02*
X118754762Y-61604819D01*
X118754762Y-61604819D02*
X118659524Y-61557200D01*
X118659524Y-61557200D02*
X118611905Y-61509580D01*
X118611905Y-61509580D02*
X118564286Y-61414342D01*
X118564286Y-61414342D02*
X118516667Y-61223866D01*
X118516667Y-61223866D02*
X118516667Y-60985771D01*
X118516667Y-60985771D02*
X118564286Y-60795295D01*
X118564286Y-60795295D02*
X118611905Y-60700057D01*
X118611905Y-60700057D02*
X118659524Y-60652438D01*
X118659524Y-60652438D02*
X118754762Y-60604819D01*
X149757142Y-93154819D02*
X149423809Y-92678628D01*
X149185714Y-93154819D02*
X149185714Y-92154819D01*
X149185714Y-92154819D02*
X149566666Y-92154819D01*
X149566666Y-92154819D02*
X149661904Y-92202438D01*
X149661904Y-92202438D02*
X149709523Y-92250057D01*
X149709523Y-92250057D02*
X149757142Y-92345295D01*
X149757142Y-92345295D02*
X149757142Y-92488152D01*
X149757142Y-92488152D02*
X149709523Y-92583390D01*
X149709523Y-92583390D02*
X149661904Y-92631009D01*
X149661904Y-92631009D02*
X149566666Y-92678628D01*
X149566666Y-92678628D02*
X149185714Y-92678628D01*
X150709523Y-93154819D02*
X150138095Y-93154819D01*
X150423809Y-93154819D02*
X150423809Y-92154819D01*
X150423809Y-92154819D02*
X150328571Y-92297676D01*
X150328571Y-92297676D02*
X150233333Y-92392914D01*
X150233333Y-92392914D02*
X150138095Y-92440533D01*
X151042857Y-92154819D02*
X151709523Y-92154819D01*
X151709523Y-92154819D02*
X151280952Y-93154819D01*
X153009524Y-92250057D02*
X153057143Y-92202438D01*
X153057143Y-92202438D02*
X153152381Y-92154819D01*
X153152381Y-92154819D02*
X153390476Y-92154819D01*
X153390476Y-92154819D02*
X153485714Y-92202438D01*
X153485714Y-92202438D02*
X153533333Y-92250057D01*
X153533333Y-92250057D02*
X153580952Y-92345295D01*
X153580952Y-92345295D02*
X153580952Y-92440533D01*
X153580952Y-92440533D02*
X153533333Y-92583390D01*
X153533333Y-92583390D02*
X152961905Y-93154819D01*
X152961905Y-93154819D02*
X153580952Y-93154819D01*
X154009524Y-93154819D02*
X154009524Y-92154819D01*
X154104762Y-92773866D02*
X154390476Y-93154819D01*
X154390476Y-92488152D02*
X154009524Y-92869104D01*
X112857142Y-77254819D02*
X112523809Y-76778628D01*
X112285714Y-77254819D02*
X112285714Y-76254819D01*
X112285714Y-76254819D02*
X112666666Y-76254819D01*
X112666666Y-76254819D02*
X112761904Y-76302438D01*
X112761904Y-76302438D02*
X112809523Y-76350057D01*
X112809523Y-76350057D02*
X112857142Y-76445295D01*
X112857142Y-76445295D02*
X112857142Y-76588152D01*
X112857142Y-76588152D02*
X112809523Y-76683390D01*
X112809523Y-76683390D02*
X112761904Y-76731009D01*
X112761904Y-76731009D02*
X112666666Y-76778628D01*
X112666666Y-76778628D02*
X112285714Y-76778628D01*
X113809523Y-77254819D02*
X113238095Y-77254819D01*
X113523809Y-77254819D02*
X113523809Y-76254819D01*
X113523809Y-76254819D02*
X113428571Y-76397676D01*
X113428571Y-76397676D02*
X113333333Y-76492914D01*
X113333333Y-76492914D02*
X113238095Y-76540533D01*
X114714285Y-76254819D02*
X114238095Y-76254819D01*
X114238095Y-76254819D02*
X114190476Y-76731009D01*
X114190476Y-76731009D02*
X114238095Y-76683390D01*
X114238095Y-76683390D02*
X114333333Y-76635771D01*
X114333333Y-76635771D02*
X114571428Y-76635771D01*
X114571428Y-76635771D02*
X114666666Y-76683390D01*
X114666666Y-76683390D02*
X114714285Y-76731009D01*
X114714285Y-76731009D02*
X114761904Y-76826247D01*
X114761904Y-76826247D02*
X114761904Y-77064342D01*
X114761904Y-77064342D02*
X114714285Y-77159580D01*
X114714285Y-77159580D02*
X114666666Y-77207200D01*
X114666666Y-77207200D02*
X114571428Y-77254819D01*
X114571428Y-77254819D02*
X114333333Y-77254819D01*
X114333333Y-77254819D02*
X114238095Y-77207200D01*
X114238095Y-77207200D02*
X114190476Y-77159580D01*
X115461905Y-76350057D02*
X115509524Y-76302438D01*
X115509524Y-76302438D02*
X115604762Y-76254819D01*
X115604762Y-76254819D02*
X115842857Y-76254819D01*
X115842857Y-76254819D02*
X115938095Y-76302438D01*
X115938095Y-76302438D02*
X115985714Y-76350057D01*
X115985714Y-76350057D02*
X116033333Y-76445295D01*
X116033333Y-76445295D02*
X116033333Y-76540533D01*
X116033333Y-76540533D02*
X115985714Y-76683390D01*
X115985714Y-76683390D02*
X115414286Y-77254819D01*
X115414286Y-77254819D02*
X116033333Y-77254819D01*
X116366667Y-76254819D02*
X117033333Y-76254819D01*
X117033333Y-76254819D02*
X116604762Y-77254819D01*
X117604762Y-76254819D02*
X117700000Y-76254819D01*
X117700000Y-76254819D02*
X117795238Y-76302438D01*
X117795238Y-76302438D02*
X117842857Y-76350057D01*
X117842857Y-76350057D02*
X117890476Y-76445295D01*
X117890476Y-76445295D02*
X117938095Y-76635771D01*
X117938095Y-76635771D02*
X117938095Y-76873866D01*
X117938095Y-76873866D02*
X117890476Y-77064342D01*
X117890476Y-77064342D02*
X117842857Y-77159580D01*
X117842857Y-77159580D02*
X117795238Y-77207200D01*
X117795238Y-77207200D02*
X117700000Y-77254819D01*
X117700000Y-77254819D02*
X117604762Y-77254819D01*
X117604762Y-77254819D02*
X117509524Y-77207200D01*
X117509524Y-77207200D02*
X117461905Y-77159580D01*
X117461905Y-77159580D02*
X117414286Y-77064342D01*
X117414286Y-77064342D02*
X117366667Y-76873866D01*
X117366667Y-76873866D02*
X117366667Y-76635771D01*
X117366667Y-76635771D02*
X117414286Y-76445295D01*
X117414286Y-76445295D02*
X117461905Y-76350057D01*
X117461905Y-76350057D02*
X117509524Y-76302438D01*
X117509524Y-76302438D02*
X117604762Y-76254819D01*
X103507142Y-87834580D02*
X103459523Y-87882200D01*
X103459523Y-87882200D02*
X103316666Y-87929819D01*
X103316666Y-87929819D02*
X103221428Y-87929819D01*
X103221428Y-87929819D02*
X103078571Y-87882200D01*
X103078571Y-87882200D02*
X102983333Y-87786961D01*
X102983333Y-87786961D02*
X102935714Y-87691723D01*
X102935714Y-87691723D02*
X102888095Y-87501247D01*
X102888095Y-87501247D02*
X102888095Y-87358390D01*
X102888095Y-87358390D02*
X102935714Y-87167914D01*
X102935714Y-87167914D02*
X102983333Y-87072676D01*
X102983333Y-87072676D02*
X103078571Y-86977438D01*
X103078571Y-86977438D02*
X103221428Y-86929819D01*
X103221428Y-86929819D02*
X103316666Y-86929819D01*
X103316666Y-86929819D02*
X103459523Y-86977438D01*
X103459523Y-86977438D02*
X103507142Y-87025057D01*
X104459523Y-87929819D02*
X103888095Y-87929819D01*
X104173809Y-87929819D02*
X104173809Y-86929819D01*
X104173809Y-86929819D02*
X104078571Y-87072676D01*
X104078571Y-87072676D02*
X103983333Y-87167914D01*
X103983333Y-87167914D02*
X103888095Y-87215533D01*
X105411904Y-87929819D02*
X104840476Y-87929819D01*
X105126190Y-87929819D02*
X105126190Y-86929819D01*
X105126190Y-86929819D02*
X105030952Y-87072676D01*
X105030952Y-87072676D02*
X104935714Y-87167914D01*
X104935714Y-87167914D02*
X104840476Y-87215533D01*
X101807143Y-85529819D02*
X101902381Y-85529819D01*
X101902381Y-85529819D02*
X101997619Y-85577438D01*
X101997619Y-85577438D02*
X102045238Y-85625057D01*
X102045238Y-85625057D02*
X102092857Y-85720295D01*
X102092857Y-85720295D02*
X102140476Y-85910771D01*
X102140476Y-85910771D02*
X102140476Y-86148866D01*
X102140476Y-86148866D02*
X102092857Y-86339342D01*
X102092857Y-86339342D02*
X102045238Y-86434580D01*
X102045238Y-86434580D02*
X101997619Y-86482200D01*
X101997619Y-86482200D02*
X101902381Y-86529819D01*
X101902381Y-86529819D02*
X101807143Y-86529819D01*
X101807143Y-86529819D02*
X101711905Y-86482200D01*
X101711905Y-86482200D02*
X101664286Y-86434580D01*
X101664286Y-86434580D02*
X101616667Y-86339342D01*
X101616667Y-86339342D02*
X101569048Y-86148866D01*
X101569048Y-86148866D02*
X101569048Y-85910771D01*
X101569048Y-85910771D02*
X101616667Y-85720295D01*
X101616667Y-85720295D02*
X101664286Y-85625057D01*
X101664286Y-85625057D02*
X101711905Y-85577438D01*
X101711905Y-85577438D02*
X101807143Y-85529819D01*
X102569048Y-86434580D02*
X102616667Y-86482200D01*
X102616667Y-86482200D02*
X102569048Y-86529819D01*
X102569048Y-86529819D02*
X102521429Y-86482200D01*
X102521429Y-86482200D02*
X102569048Y-86434580D01*
X102569048Y-86434580D02*
X102569048Y-86529819D01*
X103569047Y-86529819D02*
X102997619Y-86529819D01*
X103283333Y-86529819D02*
X103283333Y-85529819D01*
X103283333Y-85529819D02*
X103188095Y-85672676D01*
X103188095Y-85672676D02*
X103092857Y-85767914D01*
X103092857Y-85767914D02*
X102997619Y-85815533D01*
X104426190Y-85863152D02*
X104426190Y-86529819D01*
X103997619Y-85863152D02*
X103997619Y-86386961D01*
X103997619Y-86386961D02*
X104045238Y-86482200D01*
X104045238Y-86482200D02*
X104140476Y-86529819D01*
X104140476Y-86529819D02*
X104283333Y-86529819D01*
X104283333Y-86529819D02*
X104378571Y-86482200D01*
X104378571Y-86482200D02*
X104426190Y-86434580D01*
X105235714Y-86006009D02*
X104902381Y-86006009D01*
X104902381Y-86529819D02*
X104902381Y-85529819D01*
X104902381Y-85529819D02*
X105378571Y-85529819D01*
X117069642Y-98554819D02*
X116736309Y-98078628D01*
X116498214Y-98554819D02*
X116498214Y-97554819D01*
X116498214Y-97554819D02*
X116879166Y-97554819D01*
X116879166Y-97554819D02*
X116974404Y-97602438D01*
X116974404Y-97602438D02*
X117022023Y-97650057D01*
X117022023Y-97650057D02*
X117069642Y-97745295D01*
X117069642Y-97745295D02*
X117069642Y-97888152D01*
X117069642Y-97888152D02*
X117022023Y-97983390D01*
X117022023Y-97983390D02*
X116974404Y-98031009D01*
X116974404Y-98031009D02*
X116879166Y-98078628D01*
X116879166Y-98078628D02*
X116498214Y-98078628D01*
X118022023Y-98554819D02*
X117450595Y-98554819D01*
X117736309Y-98554819D02*
X117736309Y-97554819D01*
X117736309Y-97554819D02*
X117641071Y-97697676D01*
X117641071Y-97697676D02*
X117545833Y-97792914D01*
X117545833Y-97792914D02*
X117450595Y-97840533D01*
X118641071Y-97554819D02*
X118736309Y-97554819D01*
X118736309Y-97554819D02*
X118831547Y-97602438D01*
X118831547Y-97602438D02*
X118879166Y-97650057D01*
X118879166Y-97650057D02*
X118926785Y-97745295D01*
X118926785Y-97745295D02*
X118974404Y-97935771D01*
X118974404Y-97935771D02*
X118974404Y-98173866D01*
X118974404Y-98173866D02*
X118926785Y-98364342D01*
X118926785Y-98364342D02*
X118879166Y-98459580D01*
X118879166Y-98459580D02*
X118831547Y-98507200D01*
X118831547Y-98507200D02*
X118736309Y-98554819D01*
X118736309Y-98554819D02*
X118641071Y-98554819D01*
X118641071Y-98554819D02*
X118545833Y-98507200D01*
X118545833Y-98507200D02*
X118498214Y-98459580D01*
X118498214Y-98459580D02*
X118450595Y-98364342D01*
X118450595Y-98364342D02*
X118402976Y-98173866D01*
X118402976Y-98173866D02*
X118402976Y-97935771D01*
X118402976Y-97935771D02*
X118450595Y-97745295D01*
X118450595Y-97745295D02*
X118498214Y-97650057D01*
X118498214Y-97650057D02*
X118545833Y-97602438D01*
X118545833Y-97602438D02*
X118641071Y-97554819D01*
X117119642Y-99904819D02*
X116548214Y-99904819D01*
X116833928Y-99904819D02*
X116833928Y-98904819D01*
X116833928Y-98904819D02*
X116738690Y-99047676D01*
X116738690Y-99047676D02*
X116643452Y-99142914D01*
X116643452Y-99142914D02*
X116548214Y-99190533D01*
X117738690Y-98904819D02*
X117833928Y-98904819D01*
X117833928Y-98904819D02*
X117929166Y-98952438D01*
X117929166Y-98952438D02*
X117976785Y-99000057D01*
X117976785Y-99000057D02*
X118024404Y-99095295D01*
X118024404Y-99095295D02*
X118072023Y-99285771D01*
X118072023Y-99285771D02*
X118072023Y-99523866D01*
X118072023Y-99523866D02*
X118024404Y-99714342D01*
X118024404Y-99714342D02*
X117976785Y-99809580D01*
X117976785Y-99809580D02*
X117929166Y-99857200D01*
X117929166Y-99857200D02*
X117833928Y-99904819D01*
X117833928Y-99904819D02*
X117738690Y-99904819D01*
X117738690Y-99904819D02*
X117643452Y-99857200D01*
X117643452Y-99857200D02*
X117595833Y-99809580D01*
X117595833Y-99809580D02*
X117548214Y-99714342D01*
X117548214Y-99714342D02*
X117500595Y-99523866D01*
X117500595Y-99523866D02*
X117500595Y-99285771D01*
X117500595Y-99285771D02*
X117548214Y-99095295D01*
X117548214Y-99095295D02*
X117595833Y-99000057D01*
X117595833Y-99000057D02*
X117643452Y-98952438D01*
X117643452Y-98952438D02*
X117738690Y-98904819D01*
X118691071Y-98904819D02*
X118786309Y-98904819D01*
X118786309Y-98904819D02*
X118881547Y-98952438D01*
X118881547Y-98952438D02*
X118929166Y-99000057D01*
X118929166Y-99000057D02*
X118976785Y-99095295D01*
X118976785Y-99095295D02*
X119024404Y-99285771D01*
X119024404Y-99285771D02*
X119024404Y-99523866D01*
X119024404Y-99523866D02*
X118976785Y-99714342D01*
X118976785Y-99714342D02*
X118929166Y-99809580D01*
X118929166Y-99809580D02*
X118881547Y-99857200D01*
X118881547Y-99857200D02*
X118786309Y-99904819D01*
X118786309Y-99904819D02*
X118691071Y-99904819D01*
X118691071Y-99904819D02*
X118595833Y-99857200D01*
X118595833Y-99857200D02*
X118548214Y-99809580D01*
X118548214Y-99809580D02*
X118500595Y-99714342D01*
X118500595Y-99714342D02*
X118452976Y-99523866D01*
X118452976Y-99523866D02*
X118452976Y-99285771D01*
X118452976Y-99285771D02*
X118500595Y-99095295D01*
X118500595Y-99095295D02*
X118548214Y-99000057D01*
X118548214Y-99000057D02*
X118595833Y-98952438D01*
X118595833Y-98952438D02*
X118691071Y-98904819D01*
X119643452Y-98904819D02*
X119738690Y-98904819D01*
X119738690Y-98904819D02*
X119833928Y-98952438D01*
X119833928Y-98952438D02*
X119881547Y-99000057D01*
X119881547Y-99000057D02*
X119929166Y-99095295D01*
X119929166Y-99095295D02*
X119976785Y-99285771D01*
X119976785Y-99285771D02*
X119976785Y-99523866D01*
X119976785Y-99523866D02*
X119929166Y-99714342D01*
X119929166Y-99714342D02*
X119881547Y-99809580D01*
X119881547Y-99809580D02*
X119833928Y-99857200D01*
X119833928Y-99857200D02*
X119738690Y-99904819D01*
X119738690Y-99904819D02*
X119643452Y-99904819D01*
X119643452Y-99904819D02*
X119548214Y-99857200D01*
X119548214Y-99857200D02*
X119500595Y-99809580D01*
X119500595Y-99809580D02*
X119452976Y-99714342D01*
X119452976Y-99714342D02*
X119405357Y-99523866D01*
X119405357Y-99523866D02*
X119405357Y-99285771D01*
X119405357Y-99285771D02*
X119452976Y-99095295D01*
X119452976Y-99095295D02*
X119500595Y-99000057D01*
X119500595Y-99000057D02*
X119548214Y-98952438D01*
X119548214Y-98952438D02*
X119643452Y-98904819D01*
X110357142Y-78959580D02*
X110309523Y-79007200D01*
X110309523Y-79007200D02*
X110166666Y-79054819D01*
X110166666Y-79054819D02*
X110071428Y-79054819D01*
X110071428Y-79054819D02*
X109928571Y-79007200D01*
X109928571Y-79007200D02*
X109833333Y-78911961D01*
X109833333Y-78911961D02*
X109785714Y-78816723D01*
X109785714Y-78816723D02*
X109738095Y-78626247D01*
X109738095Y-78626247D02*
X109738095Y-78483390D01*
X109738095Y-78483390D02*
X109785714Y-78292914D01*
X109785714Y-78292914D02*
X109833333Y-78197676D01*
X109833333Y-78197676D02*
X109928571Y-78102438D01*
X109928571Y-78102438D02*
X110071428Y-78054819D01*
X110071428Y-78054819D02*
X110166666Y-78054819D01*
X110166666Y-78054819D02*
X110309523Y-78102438D01*
X110309523Y-78102438D02*
X110357142Y-78150057D01*
X110738095Y-78150057D02*
X110785714Y-78102438D01*
X110785714Y-78102438D02*
X110880952Y-78054819D01*
X110880952Y-78054819D02*
X111119047Y-78054819D01*
X111119047Y-78054819D02*
X111214285Y-78102438D01*
X111214285Y-78102438D02*
X111261904Y-78150057D01*
X111261904Y-78150057D02*
X111309523Y-78245295D01*
X111309523Y-78245295D02*
X111309523Y-78340533D01*
X111309523Y-78340533D02*
X111261904Y-78483390D01*
X111261904Y-78483390D02*
X110690476Y-79054819D01*
X110690476Y-79054819D02*
X111309523Y-79054819D01*
X112261904Y-79054819D02*
X111690476Y-79054819D01*
X111976190Y-79054819D02*
X111976190Y-78054819D01*
X111976190Y-78054819D02*
X111880952Y-78197676D01*
X111880952Y-78197676D02*
X111785714Y-78292914D01*
X111785714Y-78292914D02*
X111690476Y-78340533D01*
X108757143Y-79454819D02*
X108852381Y-79454819D01*
X108852381Y-79454819D02*
X108947619Y-79502438D01*
X108947619Y-79502438D02*
X108995238Y-79550057D01*
X108995238Y-79550057D02*
X109042857Y-79645295D01*
X109042857Y-79645295D02*
X109090476Y-79835771D01*
X109090476Y-79835771D02*
X109090476Y-80073866D01*
X109090476Y-80073866D02*
X109042857Y-80264342D01*
X109042857Y-80264342D02*
X108995238Y-80359580D01*
X108995238Y-80359580D02*
X108947619Y-80407200D01*
X108947619Y-80407200D02*
X108852381Y-80454819D01*
X108852381Y-80454819D02*
X108757143Y-80454819D01*
X108757143Y-80454819D02*
X108661905Y-80407200D01*
X108661905Y-80407200D02*
X108614286Y-80359580D01*
X108614286Y-80359580D02*
X108566667Y-80264342D01*
X108566667Y-80264342D02*
X108519048Y-80073866D01*
X108519048Y-80073866D02*
X108519048Y-79835771D01*
X108519048Y-79835771D02*
X108566667Y-79645295D01*
X108566667Y-79645295D02*
X108614286Y-79550057D01*
X108614286Y-79550057D02*
X108661905Y-79502438D01*
X108661905Y-79502438D02*
X108757143Y-79454819D01*
X109519048Y-80359580D02*
X109566667Y-80407200D01*
X109566667Y-80407200D02*
X109519048Y-80454819D01*
X109519048Y-80454819D02*
X109471429Y-80407200D01*
X109471429Y-80407200D02*
X109519048Y-80359580D01*
X109519048Y-80359580D02*
X109519048Y-80454819D01*
X110519047Y-80454819D02*
X109947619Y-80454819D01*
X110233333Y-80454819D02*
X110233333Y-79454819D01*
X110233333Y-79454819D02*
X110138095Y-79597676D01*
X110138095Y-79597676D02*
X110042857Y-79692914D01*
X110042857Y-79692914D02*
X109947619Y-79740533D01*
X111376190Y-79788152D02*
X111376190Y-80454819D01*
X110947619Y-79788152D02*
X110947619Y-80311961D01*
X110947619Y-80311961D02*
X110995238Y-80407200D01*
X110995238Y-80407200D02*
X111090476Y-80454819D01*
X111090476Y-80454819D02*
X111233333Y-80454819D01*
X111233333Y-80454819D02*
X111328571Y-80407200D01*
X111328571Y-80407200D02*
X111376190Y-80359580D01*
X112185714Y-79931009D02*
X111852381Y-79931009D01*
X111852381Y-80454819D02*
X111852381Y-79454819D01*
X111852381Y-79454819D02*
X112328571Y-79454819D01*
X187101666Y-66194819D02*
X187101666Y-66909104D01*
X187101666Y-66909104D02*
X187054047Y-67051961D01*
X187054047Y-67051961D02*
X186958809Y-67147200D01*
X186958809Y-67147200D02*
X186815952Y-67194819D01*
X186815952Y-67194819D02*
X186720714Y-67194819D01*
X188101666Y-67194819D02*
X187530238Y-67194819D01*
X187815952Y-67194819D02*
X187815952Y-66194819D01*
X187815952Y-66194819D02*
X187720714Y-66337676D01*
X187720714Y-66337676D02*
X187625476Y-66432914D01*
X187625476Y-66432914D02*
X187530238Y-66480533D01*
X145633333Y-81354819D02*
X145300000Y-80878628D01*
X145061905Y-81354819D02*
X145061905Y-80354819D01*
X145061905Y-80354819D02*
X145442857Y-80354819D01*
X145442857Y-80354819D02*
X145538095Y-80402438D01*
X145538095Y-80402438D02*
X145585714Y-80450057D01*
X145585714Y-80450057D02*
X145633333Y-80545295D01*
X145633333Y-80545295D02*
X145633333Y-80688152D01*
X145633333Y-80688152D02*
X145585714Y-80783390D01*
X145585714Y-80783390D02*
X145538095Y-80831009D01*
X145538095Y-80831009D02*
X145442857Y-80878628D01*
X145442857Y-80878628D02*
X145061905Y-80878628D01*
X146585714Y-81354819D02*
X146014286Y-81354819D01*
X146300000Y-81354819D02*
X146300000Y-80354819D01*
X146300000Y-80354819D02*
X146204762Y-80497676D01*
X146204762Y-80497676D02*
X146109524Y-80592914D01*
X146109524Y-80592914D02*
X146014286Y-80640533D01*
X147709523Y-81354819D02*
X147138095Y-81354819D01*
X147423809Y-81354819D02*
X147423809Y-80354819D01*
X147423809Y-80354819D02*
X147328571Y-80497676D01*
X147328571Y-80497676D02*
X147233333Y-80592914D01*
X147233333Y-80592914D02*
X147138095Y-80640533D01*
X148328571Y-80354819D02*
X148423809Y-80354819D01*
X148423809Y-80354819D02*
X148519047Y-80402438D01*
X148519047Y-80402438D02*
X148566666Y-80450057D01*
X148566666Y-80450057D02*
X148614285Y-80545295D01*
X148614285Y-80545295D02*
X148661904Y-80735771D01*
X148661904Y-80735771D02*
X148661904Y-80973866D01*
X148661904Y-80973866D02*
X148614285Y-81164342D01*
X148614285Y-81164342D02*
X148566666Y-81259580D01*
X148566666Y-81259580D02*
X148519047Y-81307200D01*
X148519047Y-81307200D02*
X148423809Y-81354819D01*
X148423809Y-81354819D02*
X148328571Y-81354819D01*
X148328571Y-81354819D02*
X148233333Y-81307200D01*
X148233333Y-81307200D02*
X148185714Y-81259580D01*
X148185714Y-81259580D02*
X148138095Y-81164342D01*
X148138095Y-81164342D02*
X148090476Y-80973866D01*
X148090476Y-80973866D02*
X148090476Y-80735771D01*
X148090476Y-80735771D02*
X148138095Y-80545295D01*
X148138095Y-80545295D02*
X148185714Y-80450057D01*
X148185714Y-80450057D02*
X148233333Y-80402438D01*
X148233333Y-80402438D02*
X148328571Y-80354819D01*
X163904761Y-81550057D02*
X163809523Y-81502438D01*
X163809523Y-81502438D02*
X163714285Y-81407200D01*
X163714285Y-81407200D02*
X163571428Y-81264342D01*
X163571428Y-81264342D02*
X163476190Y-81216723D01*
X163476190Y-81216723D02*
X163380952Y-81216723D01*
X163428571Y-81454819D02*
X163333333Y-81407200D01*
X163333333Y-81407200D02*
X163238095Y-81311961D01*
X163238095Y-81311961D02*
X163190476Y-81121485D01*
X163190476Y-81121485D02*
X163190476Y-80788152D01*
X163190476Y-80788152D02*
X163238095Y-80597676D01*
X163238095Y-80597676D02*
X163333333Y-80502438D01*
X163333333Y-80502438D02*
X163428571Y-80454819D01*
X163428571Y-80454819D02*
X163619047Y-80454819D01*
X163619047Y-80454819D02*
X163714285Y-80502438D01*
X163714285Y-80502438D02*
X163809523Y-80597676D01*
X163809523Y-80597676D02*
X163857142Y-80788152D01*
X163857142Y-80788152D02*
X163857142Y-81121485D01*
X163857142Y-81121485D02*
X163809523Y-81311961D01*
X163809523Y-81311961D02*
X163714285Y-81407200D01*
X163714285Y-81407200D02*
X163619047Y-81454819D01*
X163619047Y-81454819D02*
X163428571Y-81454819D01*
X164809523Y-81454819D02*
X164238095Y-81454819D01*
X164523809Y-81454819D02*
X164523809Y-80454819D01*
X164523809Y-80454819D02*
X164428571Y-80597676D01*
X164428571Y-80597676D02*
X164333333Y-80692914D01*
X164333333Y-80692914D02*
X164238095Y-80740533D01*
X126049524Y-101717261D02*
X126382857Y-101717261D01*
X126525714Y-102241071D02*
X126049524Y-102241071D01*
X126049524Y-102241071D02*
X126049524Y-101241071D01*
X126049524Y-101241071D02*
X126525714Y-101241071D01*
X126906667Y-101336309D02*
X126954286Y-101288690D01*
X126954286Y-101288690D02*
X127049524Y-101241071D01*
X127049524Y-101241071D02*
X127287619Y-101241071D01*
X127287619Y-101241071D02*
X127382857Y-101288690D01*
X127382857Y-101288690D02*
X127430476Y-101336309D01*
X127430476Y-101336309D02*
X127478095Y-101431547D01*
X127478095Y-101431547D02*
X127478095Y-101526785D01*
X127478095Y-101526785D02*
X127430476Y-101669642D01*
X127430476Y-101669642D02*
X126859048Y-102241071D01*
X126859048Y-102241071D02*
X127478095Y-102241071D01*
X107666666Y-99704819D02*
X107666666Y-100419104D01*
X107666666Y-100419104D02*
X107619047Y-100561961D01*
X107619047Y-100561961D02*
X107523809Y-100657200D01*
X107523809Y-100657200D02*
X107380952Y-100704819D01*
X107380952Y-100704819D02*
X107285714Y-100704819D01*
X108619047Y-99704819D02*
X108142857Y-99704819D01*
X108142857Y-99704819D02*
X108095238Y-100181009D01*
X108095238Y-100181009D02*
X108142857Y-100133390D01*
X108142857Y-100133390D02*
X108238095Y-100085771D01*
X108238095Y-100085771D02*
X108476190Y-100085771D01*
X108476190Y-100085771D02*
X108571428Y-100133390D01*
X108571428Y-100133390D02*
X108619047Y-100181009D01*
X108619047Y-100181009D02*
X108666666Y-100276247D01*
X108666666Y-100276247D02*
X108666666Y-100514342D01*
X108666666Y-100514342D02*
X108619047Y-100609580D01*
X108619047Y-100609580D02*
X108571428Y-100657200D01*
X108571428Y-100657200D02*
X108476190Y-100704819D01*
X108476190Y-100704819D02*
X108238095Y-100704819D01*
X108238095Y-100704819D02*
X108142857Y-100657200D01*
X108142857Y-100657200D02*
X108095238Y-100609580D01*
X103366666Y-63804819D02*
X103366666Y-64519104D01*
X103366666Y-64519104D02*
X103319047Y-64661961D01*
X103319047Y-64661961D02*
X103223809Y-64757200D01*
X103223809Y-64757200D02*
X103080952Y-64804819D01*
X103080952Y-64804819D02*
X102985714Y-64804819D01*
X103795238Y-63900057D02*
X103842857Y-63852438D01*
X103842857Y-63852438D02*
X103938095Y-63804819D01*
X103938095Y-63804819D02*
X104176190Y-63804819D01*
X104176190Y-63804819D02*
X104271428Y-63852438D01*
X104271428Y-63852438D02*
X104319047Y-63900057D01*
X104319047Y-63900057D02*
X104366666Y-63995295D01*
X104366666Y-63995295D02*
X104366666Y-64090533D01*
X104366666Y-64090533D02*
X104319047Y-64233390D01*
X104319047Y-64233390D02*
X103747619Y-64804819D01*
X103747619Y-64804819D02*
X104366666Y-64804819D01*
X120533333Y-62054819D02*
X120200000Y-61578628D01*
X119961905Y-62054819D02*
X119961905Y-61054819D01*
X119961905Y-61054819D02*
X120342857Y-61054819D01*
X120342857Y-61054819D02*
X120438095Y-61102438D01*
X120438095Y-61102438D02*
X120485714Y-61150057D01*
X120485714Y-61150057D02*
X120533333Y-61245295D01*
X120533333Y-61245295D02*
X120533333Y-61388152D01*
X120533333Y-61388152D02*
X120485714Y-61483390D01*
X120485714Y-61483390D02*
X120438095Y-61531009D01*
X120438095Y-61531009D02*
X120342857Y-61578628D01*
X120342857Y-61578628D02*
X119961905Y-61578628D01*
X120866667Y-61054819D02*
X121485714Y-61054819D01*
X121485714Y-61054819D02*
X121152381Y-61435771D01*
X121152381Y-61435771D02*
X121295238Y-61435771D01*
X121295238Y-61435771D02*
X121390476Y-61483390D01*
X121390476Y-61483390D02*
X121438095Y-61531009D01*
X121438095Y-61531009D02*
X121485714Y-61626247D01*
X121485714Y-61626247D02*
X121485714Y-61864342D01*
X121485714Y-61864342D02*
X121438095Y-61959580D01*
X121438095Y-61959580D02*
X121390476Y-62007200D01*
X121390476Y-62007200D02*
X121295238Y-62054819D01*
X121295238Y-62054819D02*
X121009524Y-62054819D01*
X121009524Y-62054819D02*
X120914286Y-62007200D01*
X120914286Y-62007200D02*
X120866667Y-61959580D01*
X122957142Y-62054819D02*
X122385714Y-62054819D01*
X122671428Y-62054819D02*
X122671428Y-61054819D01*
X122671428Y-61054819D02*
X122576190Y-61197676D01*
X122576190Y-61197676D02*
X122480952Y-61292914D01*
X122480952Y-61292914D02*
X122385714Y-61340533D01*
X123861904Y-61054819D02*
X123385714Y-61054819D01*
X123385714Y-61054819D02*
X123338095Y-61531009D01*
X123338095Y-61531009D02*
X123385714Y-61483390D01*
X123385714Y-61483390D02*
X123480952Y-61435771D01*
X123480952Y-61435771D02*
X123719047Y-61435771D01*
X123719047Y-61435771D02*
X123814285Y-61483390D01*
X123814285Y-61483390D02*
X123861904Y-61531009D01*
X123861904Y-61531009D02*
X123909523Y-61626247D01*
X123909523Y-61626247D02*
X123909523Y-61864342D01*
X123909523Y-61864342D02*
X123861904Y-61959580D01*
X123861904Y-61959580D02*
X123814285Y-62007200D01*
X123814285Y-62007200D02*
X123719047Y-62054819D01*
X123719047Y-62054819D02*
X123480952Y-62054819D01*
X123480952Y-62054819D02*
X123385714Y-62007200D01*
X123385714Y-62007200D02*
X123338095Y-61959580D01*
X124528571Y-61054819D02*
X124623809Y-61054819D01*
X124623809Y-61054819D02*
X124719047Y-61102438D01*
X124719047Y-61102438D02*
X124766666Y-61150057D01*
X124766666Y-61150057D02*
X124814285Y-61245295D01*
X124814285Y-61245295D02*
X124861904Y-61435771D01*
X124861904Y-61435771D02*
X124861904Y-61673866D01*
X124861904Y-61673866D02*
X124814285Y-61864342D01*
X124814285Y-61864342D02*
X124766666Y-61959580D01*
X124766666Y-61959580D02*
X124719047Y-62007200D01*
X124719047Y-62007200D02*
X124623809Y-62054819D01*
X124623809Y-62054819D02*
X124528571Y-62054819D01*
X124528571Y-62054819D02*
X124433333Y-62007200D01*
X124433333Y-62007200D02*
X124385714Y-61959580D01*
X124385714Y-61959580D02*
X124338095Y-61864342D01*
X124338095Y-61864342D02*
X124290476Y-61673866D01*
X124290476Y-61673866D02*
X124290476Y-61435771D01*
X124290476Y-61435771D02*
X124338095Y-61245295D01*
X124338095Y-61245295D02*
X124385714Y-61150057D01*
X124385714Y-61150057D02*
X124433333Y-61102438D01*
X124433333Y-61102438D02*
X124528571Y-61054819D01*
X125480952Y-61054819D02*
X125576190Y-61054819D01*
X125576190Y-61054819D02*
X125671428Y-61102438D01*
X125671428Y-61102438D02*
X125719047Y-61150057D01*
X125719047Y-61150057D02*
X125766666Y-61245295D01*
X125766666Y-61245295D02*
X125814285Y-61435771D01*
X125814285Y-61435771D02*
X125814285Y-61673866D01*
X125814285Y-61673866D02*
X125766666Y-61864342D01*
X125766666Y-61864342D02*
X125719047Y-61959580D01*
X125719047Y-61959580D02*
X125671428Y-62007200D01*
X125671428Y-62007200D02*
X125576190Y-62054819D01*
X125576190Y-62054819D02*
X125480952Y-62054819D01*
X125480952Y-62054819D02*
X125385714Y-62007200D01*
X125385714Y-62007200D02*
X125338095Y-61959580D01*
X125338095Y-61959580D02*
X125290476Y-61864342D01*
X125290476Y-61864342D02*
X125242857Y-61673866D01*
X125242857Y-61673866D02*
X125242857Y-61435771D01*
X125242857Y-61435771D02*
X125290476Y-61245295D01*
X125290476Y-61245295D02*
X125338095Y-61150057D01*
X125338095Y-61150057D02*
X125385714Y-61102438D01*
X125385714Y-61102438D02*
X125480952Y-61054819D01*
X104366666Y-89704819D02*
X104366666Y-90419104D01*
X104366666Y-90419104D02*
X104319047Y-90561961D01*
X104319047Y-90561961D02*
X104223809Y-90657200D01*
X104223809Y-90657200D02*
X104080952Y-90704819D01*
X104080952Y-90704819D02*
X103985714Y-90704819D01*
X104747619Y-89704819D02*
X105366666Y-89704819D01*
X105366666Y-89704819D02*
X105033333Y-90085771D01*
X105033333Y-90085771D02*
X105176190Y-90085771D01*
X105176190Y-90085771D02*
X105271428Y-90133390D01*
X105271428Y-90133390D02*
X105319047Y-90181009D01*
X105319047Y-90181009D02*
X105366666Y-90276247D01*
X105366666Y-90276247D02*
X105366666Y-90514342D01*
X105366666Y-90514342D02*
X105319047Y-90609580D01*
X105319047Y-90609580D02*
X105271428Y-90657200D01*
X105271428Y-90657200D02*
X105176190Y-90704819D01*
X105176190Y-90704819D02*
X104890476Y-90704819D01*
X104890476Y-90704819D02*
X104795238Y-90657200D01*
X104795238Y-90657200D02*
X104747619Y-90609580D01*
X120509524Y-94731009D02*
X120842857Y-94731009D01*
X120985714Y-95254819D02*
X120509524Y-95254819D01*
X120509524Y-95254819D02*
X120509524Y-94254819D01*
X120509524Y-94254819D02*
X120985714Y-94254819D01*
X121890476Y-94254819D02*
X121414286Y-94254819D01*
X121414286Y-94254819D02*
X121366667Y-94731009D01*
X121366667Y-94731009D02*
X121414286Y-94683390D01*
X121414286Y-94683390D02*
X121509524Y-94635771D01*
X121509524Y-94635771D02*
X121747619Y-94635771D01*
X121747619Y-94635771D02*
X121842857Y-94683390D01*
X121842857Y-94683390D02*
X121890476Y-94731009D01*
X121890476Y-94731009D02*
X121938095Y-94826247D01*
X121938095Y-94826247D02*
X121938095Y-95064342D01*
X121938095Y-95064342D02*
X121890476Y-95159580D01*
X121890476Y-95159580D02*
X121842857Y-95207200D01*
X121842857Y-95207200D02*
X121747619Y-95254819D01*
X121747619Y-95254819D02*
X121509524Y-95254819D01*
X121509524Y-95254819D02*
X121414286Y-95207200D01*
X121414286Y-95207200D02*
X121366667Y-95159580D01*
X117757142Y-91854819D02*
X117423809Y-91378628D01*
X117185714Y-91854819D02*
X117185714Y-90854819D01*
X117185714Y-90854819D02*
X117566666Y-90854819D01*
X117566666Y-90854819D02*
X117661904Y-90902438D01*
X117661904Y-90902438D02*
X117709523Y-90950057D01*
X117709523Y-90950057D02*
X117757142Y-91045295D01*
X117757142Y-91045295D02*
X117757142Y-91188152D01*
X117757142Y-91188152D02*
X117709523Y-91283390D01*
X117709523Y-91283390D02*
X117661904Y-91331009D01*
X117661904Y-91331009D02*
X117566666Y-91378628D01*
X117566666Y-91378628D02*
X117185714Y-91378628D01*
X118138095Y-90950057D02*
X118185714Y-90902438D01*
X118185714Y-90902438D02*
X118280952Y-90854819D01*
X118280952Y-90854819D02*
X118519047Y-90854819D01*
X118519047Y-90854819D02*
X118614285Y-90902438D01*
X118614285Y-90902438D02*
X118661904Y-90950057D01*
X118661904Y-90950057D02*
X118709523Y-91045295D01*
X118709523Y-91045295D02*
X118709523Y-91140533D01*
X118709523Y-91140533D02*
X118661904Y-91283390D01*
X118661904Y-91283390D02*
X118090476Y-91854819D01*
X118090476Y-91854819D02*
X118709523Y-91854819D01*
X119328571Y-90854819D02*
X119423809Y-90854819D01*
X119423809Y-90854819D02*
X119519047Y-90902438D01*
X119519047Y-90902438D02*
X119566666Y-90950057D01*
X119566666Y-90950057D02*
X119614285Y-91045295D01*
X119614285Y-91045295D02*
X119661904Y-91235771D01*
X119661904Y-91235771D02*
X119661904Y-91473866D01*
X119661904Y-91473866D02*
X119614285Y-91664342D01*
X119614285Y-91664342D02*
X119566666Y-91759580D01*
X119566666Y-91759580D02*
X119519047Y-91807200D01*
X119519047Y-91807200D02*
X119423809Y-91854819D01*
X119423809Y-91854819D02*
X119328571Y-91854819D01*
X119328571Y-91854819D02*
X119233333Y-91807200D01*
X119233333Y-91807200D02*
X119185714Y-91759580D01*
X119185714Y-91759580D02*
X119138095Y-91664342D01*
X119138095Y-91664342D02*
X119090476Y-91473866D01*
X119090476Y-91473866D02*
X119090476Y-91235771D01*
X119090476Y-91235771D02*
X119138095Y-91045295D01*
X119138095Y-91045295D02*
X119185714Y-90950057D01*
X119185714Y-90950057D02*
X119233333Y-90902438D01*
X119233333Y-90902438D02*
X119328571Y-90854819D01*
X117704761Y-93254819D02*
X117133333Y-93254819D01*
X117419047Y-93254819D02*
X117419047Y-92254819D01*
X117419047Y-92254819D02*
X117323809Y-92397676D01*
X117323809Y-92397676D02*
X117228571Y-92492914D01*
X117228571Y-92492914D02*
X117133333Y-92540533D01*
X118323809Y-92254819D02*
X118419047Y-92254819D01*
X118419047Y-92254819D02*
X118514285Y-92302438D01*
X118514285Y-92302438D02*
X118561904Y-92350057D01*
X118561904Y-92350057D02*
X118609523Y-92445295D01*
X118609523Y-92445295D02*
X118657142Y-92635771D01*
X118657142Y-92635771D02*
X118657142Y-92873866D01*
X118657142Y-92873866D02*
X118609523Y-93064342D01*
X118609523Y-93064342D02*
X118561904Y-93159580D01*
X118561904Y-93159580D02*
X118514285Y-93207200D01*
X118514285Y-93207200D02*
X118419047Y-93254819D01*
X118419047Y-93254819D02*
X118323809Y-93254819D01*
X118323809Y-93254819D02*
X118228571Y-93207200D01*
X118228571Y-93207200D02*
X118180952Y-93159580D01*
X118180952Y-93159580D02*
X118133333Y-93064342D01*
X118133333Y-93064342D02*
X118085714Y-92873866D01*
X118085714Y-92873866D02*
X118085714Y-92635771D01*
X118085714Y-92635771D02*
X118133333Y-92445295D01*
X118133333Y-92445295D02*
X118180952Y-92350057D01*
X118180952Y-92350057D02*
X118228571Y-92302438D01*
X118228571Y-92302438D02*
X118323809Y-92254819D01*
X119085714Y-93254819D02*
X119085714Y-92254819D01*
X119180952Y-92873866D02*
X119466666Y-93254819D01*
X119466666Y-92588152D02*
X119085714Y-92969104D01*
X144882142Y-62609580D02*
X144834523Y-62657200D01*
X144834523Y-62657200D02*
X144691666Y-62704819D01*
X144691666Y-62704819D02*
X144596428Y-62704819D01*
X144596428Y-62704819D02*
X144453571Y-62657200D01*
X144453571Y-62657200D02*
X144358333Y-62561961D01*
X144358333Y-62561961D02*
X144310714Y-62466723D01*
X144310714Y-62466723D02*
X144263095Y-62276247D01*
X144263095Y-62276247D02*
X144263095Y-62133390D01*
X144263095Y-62133390D02*
X144310714Y-61942914D01*
X144310714Y-61942914D02*
X144358333Y-61847676D01*
X144358333Y-61847676D02*
X144453571Y-61752438D01*
X144453571Y-61752438D02*
X144596428Y-61704819D01*
X144596428Y-61704819D02*
X144691666Y-61704819D01*
X144691666Y-61704819D02*
X144834523Y-61752438D01*
X144834523Y-61752438D02*
X144882142Y-61800057D01*
X145834523Y-62704819D02*
X145263095Y-62704819D01*
X145548809Y-62704819D02*
X145548809Y-61704819D01*
X145548809Y-61704819D02*
X145453571Y-61847676D01*
X145453571Y-61847676D02*
X145358333Y-61942914D01*
X145358333Y-61942914D02*
X145263095Y-61990533D01*
X146405952Y-62133390D02*
X146310714Y-62085771D01*
X146310714Y-62085771D02*
X146263095Y-62038152D01*
X146263095Y-62038152D02*
X146215476Y-61942914D01*
X146215476Y-61942914D02*
X146215476Y-61895295D01*
X146215476Y-61895295D02*
X146263095Y-61800057D01*
X146263095Y-61800057D02*
X146310714Y-61752438D01*
X146310714Y-61752438D02*
X146405952Y-61704819D01*
X146405952Y-61704819D02*
X146596428Y-61704819D01*
X146596428Y-61704819D02*
X146691666Y-61752438D01*
X146691666Y-61752438D02*
X146739285Y-61800057D01*
X146739285Y-61800057D02*
X146786904Y-61895295D01*
X146786904Y-61895295D02*
X146786904Y-61942914D01*
X146786904Y-61942914D02*
X146739285Y-62038152D01*
X146739285Y-62038152D02*
X146691666Y-62085771D01*
X146691666Y-62085771D02*
X146596428Y-62133390D01*
X146596428Y-62133390D02*
X146405952Y-62133390D01*
X146405952Y-62133390D02*
X146310714Y-62181009D01*
X146310714Y-62181009D02*
X146263095Y-62228628D01*
X146263095Y-62228628D02*
X146215476Y-62323866D01*
X146215476Y-62323866D02*
X146215476Y-62514342D01*
X146215476Y-62514342D02*
X146263095Y-62609580D01*
X146263095Y-62609580D02*
X146310714Y-62657200D01*
X146310714Y-62657200D02*
X146405952Y-62704819D01*
X146405952Y-62704819D02*
X146596428Y-62704819D01*
X146596428Y-62704819D02*
X146691666Y-62657200D01*
X146691666Y-62657200D02*
X146739285Y-62609580D01*
X146739285Y-62609580D02*
X146786904Y-62514342D01*
X146786904Y-62514342D02*
X146786904Y-62323866D01*
X146786904Y-62323866D02*
X146739285Y-62228628D01*
X146739285Y-62228628D02*
X146691666Y-62181009D01*
X146691666Y-62181009D02*
X146596428Y-62133390D01*
X141479761Y-62704819D02*
X140908333Y-62704819D01*
X141194047Y-62704819D02*
X141194047Y-61704819D01*
X141194047Y-61704819D02*
X141098809Y-61847676D01*
X141098809Y-61847676D02*
X141003571Y-61942914D01*
X141003571Y-61942914D02*
X140908333Y-61990533D01*
X142336904Y-62038152D02*
X142336904Y-62704819D01*
X141908333Y-62038152D02*
X141908333Y-62561961D01*
X141908333Y-62561961D02*
X141955952Y-62657200D01*
X141955952Y-62657200D02*
X142051190Y-62704819D01*
X142051190Y-62704819D02*
X142194047Y-62704819D01*
X142194047Y-62704819D02*
X142289285Y-62657200D01*
X142289285Y-62657200D02*
X142336904Y-62609580D01*
X143146428Y-62181009D02*
X142813095Y-62181009D01*
X142813095Y-62704819D02*
X142813095Y-61704819D01*
X142813095Y-61704819D02*
X143289285Y-61704819D01*
X148933333Y-84054819D02*
X148600000Y-83578628D01*
X148361905Y-84054819D02*
X148361905Y-83054819D01*
X148361905Y-83054819D02*
X148742857Y-83054819D01*
X148742857Y-83054819D02*
X148838095Y-83102438D01*
X148838095Y-83102438D02*
X148885714Y-83150057D01*
X148885714Y-83150057D02*
X148933333Y-83245295D01*
X148933333Y-83245295D02*
X148933333Y-83388152D01*
X148933333Y-83388152D02*
X148885714Y-83483390D01*
X148885714Y-83483390D02*
X148838095Y-83531009D01*
X148838095Y-83531009D02*
X148742857Y-83578628D01*
X148742857Y-83578628D02*
X148361905Y-83578628D01*
X149838095Y-83054819D02*
X149361905Y-83054819D01*
X149361905Y-83054819D02*
X149314286Y-83531009D01*
X149314286Y-83531009D02*
X149361905Y-83483390D01*
X149361905Y-83483390D02*
X149457143Y-83435771D01*
X149457143Y-83435771D02*
X149695238Y-83435771D01*
X149695238Y-83435771D02*
X149790476Y-83483390D01*
X149790476Y-83483390D02*
X149838095Y-83531009D01*
X149838095Y-83531009D02*
X149885714Y-83626247D01*
X149885714Y-83626247D02*
X149885714Y-83864342D01*
X149885714Y-83864342D02*
X149838095Y-83959580D01*
X149838095Y-83959580D02*
X149790476Y-84007200D01*
X149790476Y-84007200D02*
X149695238Y-84054819D01*
X149695238Y-84054819D02*
X149457143Y-84054819D01*
X149457143Y-84054819D02*
X149361905Y-84007200D01*
X149361905Y-84007200D02*
X149314286Y-83959580D01*
X147861904Y-84688152D02*
X147861904Y-85354819D01*
X147623809Y-84307200D02*
X147385714Y-85021485D01*
X147385714Y-85021485D02*
X148004761Y-85021485D01*
X148576190Y-84354819D02*
X148671428Y-84354819D01*
X148671428Y-84354819D02*
X148766666Y-84402438D01*
X148766666Y-84402438D02*
X148814285Y-84450057D01*
X148814285Y-84450057D02*
X148861904Y-84545295D01*
X148861904Y-84545295D02*
X148909523Y-84735771D01*
X148909523Y-84735771D02*
X148909523Y-84973866D01*
X148909523Y-84973866D02*
X148861904Y-85164342D01*
X148861904Y-85164342D02*
X148814285Y-85259580D01*
X148814285Y-85259580D02*
X148766666Y-85307200D01*
X148766666Y-85307200D02*
X148671428Y-85354819D01*
X148671428Y-85354819D02*
X148576190Y-85354819D01*
X148576190Y-85354819D02*
X148480952Y-85307200D01*
X148480952Y-85307200D02*
X148433333Y-85259580D01*
X148433333Y-85259580D02*
X148385714Y-85164342D01*
X148385714Y-85164342D02*
X148338095Y-84973866D01*
X148338095Y-84973866D02*
X148338095Y-84735771D01*
X148338095Y-84735771D02*
X148385714Y-84545295D01*
X148385714Y-84545295D02*
X148433333Y-84450057D01*
X148433333Y-84450057D02*
X148480952Y-84402438D01*
X148480952Y-84402438D02*
X148576190Y-84354819D01*
X149528571Y-84354819D02*
X149623809Y-84354819D01*
X149623809Y-84354819D02*
X149719047Y-84402438D01*
X149719047Y-84402438D02*
X149766666Y-84450057D01*
X149766666Y-84450057D02*
X149814285Y-84545295D01*
X149814285Y-84545295D02*
X149861904Y-84735771D01*
X149861904Y-84735771D02*
X149861904Y-84973866D01*
X149861904Y-84973866D02*
X149814285Y-85164342D01*
X149814285Y-85164342D02*
X149766666Y-85259580D01*
X149766666Y-85259580D02*
X149719047Y-85307200D01*
X149719047Y-85307200D02*
X149623809Y-85354819D01*
X149623809Y-85354819D02*
X149528571Y-85354819D01*
X149528571Y-85354819D02*
X149433333Y-85307200D01*
X149433333Y-85307200D02*
X149385714Y-85259580D01*
X149385714Y-85259580D02*
X149338095Y-85164342D01*
X149338095Y-85164342D02*
X149290476Y-84973866D01*
X149290476Y-84973866D02*
X149290476Y-84735771D01*
X149290476Y-84735771D02*
X149338095Y-84545295D01*
X149338095Y-84545295D02*
X149385714Y-84450057D01*
X149385714Y-84450057D02*
X149433333Y-84402438D01*
X149433333Y-84402438D02*
X149528571Y-84354819D01*
X150480952Y-84354819D02*
X150576190Y-84354819D01*
X150576190Y-84354819D02*
X150671428Y-84402438D01*
X150671428Y-84402438D02*
X150719047Y-84450057D01*
X150719047Y-84450057D02*
X150766666Y-84545295D01*
X150766666Y-84545295D02*
X150814285Y-84735771D01*
X150814285Y-84735771D02*
X150814285Y-84973866D01*
X150814285Y-84973866D02*
X150766666Y-85164342D01*
X150766666Y-85164342D02*
X150719047Y-85259580D01*
X150719047Y-85259580D02*
X150671428Y-85307200D01*
X150671428Y-85307200D02*
X150576190Y-85354819D01*
X150576190Y-85354819D02*
X150480952Y-85354819D01*
X150480952Y-85354819D02*
X150385714Y-85307200D01*
X150385714Y-85307200D02*
X150338095Y-85259580D01*
X150338095Y-85259580D02*
X150290476Y-85164342D01*
X150290476Y-85164342D02*
X150242857Y-84973866D01*
X150242857Y-84973866D02*
X150242857Y-84735771D01*
X150242857Y-84735771D02*
X150290476Y-84545295D01*
X150290476Y-84545295D02*
X150338095Y-84450057D01*
X150338095Y-84450057D02*
X150385714Y-84402438D01*
X150385714Y-84402438D02*
X150480952Y-84354819D01*
X121604761Y-83850057D02*
X121509523Y-83802438D01*
X121509523Y-83802438D02*
X121414285Y-83707200D01*
X121414285Y-83707200D02*
X121271428Y-83564342D01*
X121271428Y-83564342D02*
X121176190Y-83516723D01*
X121176190Y-83516723D02*
X121080952Y-83516723D01*
X121128571Y-83754819D02*
X121033333Y-83707200D01*
X121033333Y-83707200D02*
X120938095Y-83611961D01*
X120938095Y-83611961D02*
X120890476Y-83421485D01*
X120890476Y-83421485D02*
X120890476Y-83088152D01*
X120890476Y-83088152D02*
X120938095Y-82897676D01*
X120938095Y-82897676D02*
X121033333Y-82802438D01*
X121033333Y-82802438D02*
X121128571Y-82754819D01*
X121128571Y-82754819D02*
X121319047Y-82754819D01*
X121319047Y-82754819D02*
X121414285Y-82802438D01*
X121414285Y-82802438D02*
X121509523Y-82897676D01*
X121509523Y-82897676D02*
X121557142Y-83088152D01*
X121557142Y-83088152D02*
X121557142Y-83421485D01*
X121557142Y-83421485D02*
X121509523Y-83611961D01*
X121509523Y-83611961D02*
X121414285Y-83707200D01*
X121414285Y-83707200D02*
X121319047Y-83754819D01*
X121319047Y-83754819D02*
X121128571Y-83754819D01*
X122461904Y-82754819D02*
X121985714Y-82754819D01*
X121985714Y-82754819D02*
X121938095Y-83231009D01*
X121938095Y-83231009D02*
X121985714Y-83183390D01*
X121985714Y-83183390D02*
X122080952Y-83135771D01*
X122080952Y-83135771D02*
X122319047Y-83135771D01*
X122319047Y-83135771D02*
X122414285Y-83183390D01*
X122414285Y-83183390D02*
X122461904Y-83231009D01*
X122461904Y-83231009D02*
X122509523Y-83326247D01*
X122509523Y-83326247D02*
X122509523Y-83564342D01*
X122509523Y-83564342D02*
X122461904Y-83659580D01*
X122461904Y-83659580D02*
X122414285Y-83707200D01*
X122414285Y-83707200D02*
X122319047Y-83754819D01*
X122319047Y-83754819D02*
X122080952Y-83754819D01*
X122080952Y-83754819D02*
X121985714Y-83707200D01*
X121985714Y-83707200D02*
X121938095Y-83659580D01*
X164104761Y-69550057D02*
X164009523Y-69502438D01*
X164009523Y-69502438D02*
X163914285Y-69407200D01*
X163914285Y-69407200D02*
X163771428Y-69264342D01*
X163771428Y-69264342D02*
X163676190Y-69216723D01*
X163676190Y-69216723D02*
X163580952Y-69216723D01*
X163628571Y-69454819D02*
X163533333Y-69407200D01*
X163533333Y-69407200D02*
X163438095Y-69311961D01*
X163438095Y-69311961D02*
X163390476Y-69121485D01*
X163390476Y-69121485D02*
X163390476Y-68788152D01*
X163390476Y-68788152D02*
X163438095Y-68597676D01*
X163438095Y-68597676D02*
X163533333Y-68502438D01*
X163533333Y-68502438D02*
X163628571Y-68454819D01*
X163628571Y-68454819D02*
X163819047Y-68454819D01*
X163819047Y-68454819D02*
X163914285Y-68502438D01*
X163914285Y-68502438D02*
X164009523Y-68597676D01*
X164009523Y-68597676D02*
X164057142Y-68788152D01*
X164057142Y-68788152D02*
X164057142Y-69121485D01*
X164057142Y-69121485D02*
X164009523Y-69311961D01*
X164009523Y-69311961D02*
X163914285Y-69407200D01*
X163914285Y-69407200D02*
X163819047Y-69454819D01*
X163819047Y-69454819D02*
X163628571Y-69454819D01*
X164914285Y-68788152D02*
X164914285Y-69454819D01*
X164676190Y-68407200D02*
X164438095Y-69121485D01*
X164438095Y-69121485D02*
X165057142Y-69121485D01*
X108257142Y-75404819D02*
X107923809Y-74928628D01*
X107685714Y-75404819D02*
X107685714Y-74404819D01*
X107685714Y-74404819D02*
X108066666Y-74404819D01*
X108066666Y-74404819D02*
X108161904Y-74452438D01*
X108161904Y-74452438D02*
X108209523Y-74500057D01*
X108209523Y-74500057D02*
X108257142Y-74595295D01*
X108257142Y-74595295D02*
X108257142Y-74738152D01*
X108257142Y-74738152D02*
X108209523Y-74833390D01*
X108209523Y-74833390D02*
X108161904Y-74881009D01*
X108161904Y-74881009D02*
X108066666Y-74928628D01*
X108066666Y-74928628D02*
X107685714Y-74928628D01*
X109209523Y-75404819D02*
X108638095Y-75404819D01*
X108923809Y-75404819D02*
X108923809Y-74404819D01*
X108923809Y-74404819D02*
X108828571Y-74547676D01*
X108828571Y-74547676D02*
X108733333Y-74642914D01*
X108733333Y-74642914D02*
X108638095Y-74690533D01*
X110066666Y-74404819D02*
X109876190Y-74404819D01*
X109876190Y-74404819D02*
X109780952Y-74452438D01*
X109780952Y-74452438D02*
X109733333Y-74500057D01*
X109733333Y-74500057D02*
X109638095Y-74642914D01*
X109638095Y-74642914D02*
X109590476Y-74833390D01*
X109590476Y-74833390D02*
X109590476Y-75214342D01*
X109590476Y-75214342D02*
X109638095Y-75309580D01*
X109638095Y-75309580D02*
X109685714Y-75357200D01*
X109685714Y-75357200D02*
X109780952Y-75404819D01*
X109780952Y-75404819D02*
X109971428Y-75404819D01*
X109971428Y-75404819D02*
X110066666Y-75357200D01*
X110066666Y-75357200D02*
X110114285Y-75309580D01*
X110114285Y-75309580D02*
X110161904Y-75214342D01*
X110161904Y-75214342D02*
X110161904Y-74976247D01*
X110161904Y-74976247D02*
X110114285Y-74881009D01*
X110114285Y-74881009D02*
X110066666Y-74833390D01*
X110066666Y-74833390D02*
X109971428Y-74785771D01*
X109971428Y-74785771D02*
X109780952Y-74785771D01*
X109780952Y-74785771D02*
X109685714Y-74833390D01*
X109685714Y-74833390D02*
X109638095Y-74881009D01*
X109638095Y-74881009D02*
X109590476Y-74976247D01*
X107711905Y-75950057D02*
X107759524Y-75902438D01*
X107759524Y-75902438D02*
X107854762Y-75854819D01*
X107854762Y-75854819D02*
X108092857Y-75854819D01*
X108092857Y-75854819D02*
X108188095Y-75902438D01*
X108188095Y-75902438D02*
X108235714Y-75950057D01*
X108235714Y-75950057D02*
X108283333Y-76045295D01*
X108283333Y-76045295D02*
X108283333Y-76140533D01*
X108283333Y-76140533D02*
X108235714Y-76283390D01*
X108235714Y-76283390D02*
X107664286Y-76854819D01*
X107664286Y-76854819D02*
X108283333Y-76854819D01*
X108616667Y-75854819D02*
X109283333Y-75854819D01*
X109283333Y-75854819D02*
X108854762Y-76854819D01*
X109854762Y-75854819D02*
X109950000Y-75854819D01*
X109950000Y-75854819D02*
X110045238Y-75902438D01*
X110045238Y-75902438D02*
X110092857Y-75950057D01*
X110092857Y-75950057D02*
X110140476Y-76045295D01*
X110140476Y-76045295D02*
X110188095Y-76235771D01*
X110188095Y-76235771D02*
X110188095Y-76473866D01*
X110188095Y-76473866D02*
X110140476Y-76664342D01*
X110140476Y-76664342D02*
X110092857Y-76759580D01*
X110092857Y-76759580D02*
X110045238Y-76807200D01*
X110045238Y-76807200D02*
X109950000Y-76854819D01*
X109950000Y-76854819D02*
X109854762Y-76854819D01*
X109854762Y-76854819D02*
X109759524Y-76807200D01*
X109759524Y-76807200D02*
X109711905Y-76759580D01*
X109711905Y-76759580D02*
X109664286Y-76664342D01*
X109664286Y-76664342D02*
X109616667Y-76473866D01*
X109616667Y-76473866D02*
X109616667Y-76235771D01*
X109616667Y-76235771D02*
X109664286Y-76045295D01*
X109664286Y-76045295D02*
X109711905Y-75950057D01*
X109711905Y-75950057D02*
X109759524Y-75902438D01*
X109759524Y-75902438D02*
X109854762Y-75854819D01*
X111114761Y-89050057D02*
X111019523Y-89002438D01*
X111019523Y-89002438D02*
X110924285Y-88907200D01*
X110924285Y-88907200D02*
X110781428Y-88764342D01*
X110781428Y-88764342D02*
X110686190Y-88716723D01*
X110686190Y-88716723D02*
X110590952Y-88716723D01*
X110638571Y-88954819D02*
X110543333Y-88907200D01*
X110543333Y-88907200D02*
X110448095Y-88811961D01*
X110448095Y-88811961D02*
X110400476Y-88621485D01*
X110400476Y-88621485D02*
X110400476Y-88288152D01*
X110400476Y-88288152D02*
X110448095Y-88097676D01*
X110448095Y-88097676D02*
X110543333Y-88002438D01*
X110543333Y-88002438D02*
X110638571Y-87954819D01*
X110638571Y-87954819D02*
X110829047Y-87954819D01*
X110829047Y-87954819D02*
X110924285Y-88002438D01*
X110924285Y-88002438D02*
X111019523Y-88097676D01*
X111019523Y-88097676D02*
X111067142Y-88288152D01*
X111067142Y-88288152D02*
X111067142Y-88621485D01*
X111067142Y-88621485D02*
X111019523Y-88811961D01*
X111019523Y-88811961D02*
X110924285Y-88907200D01*
X110924285Y-88907200D02*
X110829047Y-88954819D01*
X110829047Y-88954819D02*
X110638571Y-88954819D01*
X111924285Y-87954819D02*
X111733809Y-87954819D01*
X111733809Y-87954819D02*
X111638571Y-88002438D01*
X111638571Y-88002438D02*
X111590952Y-88050057D01*
X111590952Y-88050057D02*
X111495714Y-88192914D01*
X111495714Y-88192914D02*
X111448095Y-88383390D01*
X111448095Y-88383390D02*
X111448095Y-88764342D01*
X111448095Y-88764342D02*
X111495714Y-88859580D01*
X111495714Y-88859580D02*
X111543333Y-88907200D01*
X111543333Y-88907200D02*
X111638571Y-88954819D01*
X111638571Y-88954819D02*
X111829047Y-88954819D01*
X111829047Y-88954819D02*
X111924285Y-88907200D01*
X111924285Y-88907200D02*
X111971904Y-88859580D01*
X111971904Y-88859580D02*
X112019523Y-88764342D01*
X112019523Y-88764342D02*
X112019523Y-88526247D01*
X112019523Y-88526247D02*
X111971904Y-88431009D01*
X111971904Y-88431009D02*
X111924285Y-88383390D01*
X111924285Y-88383390D02*
X111829047Y-88335771D01*
X111829047Y-88335771D02*
X111638571Y-88335771D01*
X111638571Y-88335771D02*
X111543333Y-88383390D01*
X111543333Y-88383390D02*
X111495714Y-88431009D01*
X111495714Y-88431009D02*
X111448095Y-88526247D01*
X127897142Y-112745832D02*
X127849523Y-112793452D01*
X127849523Y-112793452D02*
X127706666Y-112841071D01*
X127706666Y-112841071D02*
X127611428Y-112841071D01*
X127611428Y-112841071D02*
X127468571Y-112793452D01*
X127468571Y-112793452D02*
X127373333Y-112698213D01*
X127373333Y-112698213D02*
X127325714Y-112602975D01*
X127325714Y-112602975D02*
X127278095Y-112412499D01*
X127278095Y-112412499D02*
X127278095Y-112269642D01*
X127278095Y-112269642D02*
X127325714Y-112079166D01*
X127325714Y-112079166D02*
X127373333Y-111983928D01*
X127373333Y-111983928D02*
X127468571Y-111888690D01*
X127468571Y-111888690D02*
X127611428Y-111841071D01*
X127611428Y-111841071D02*
X127706666Y-111841071D01*
X127706666Y-111841071D02*
X127849523Y-111888690D01*
X127849523Y-111888690D02*
X127897142Y-111936309D01*
X128849523Y-112841071D02*
X128278095Y-112841071D01*
X128563809Y-112841071D02*
X128563809Y-111841071D01*
X128563809Y-111841071D02*
X128468571Y-111983928D01*
X128468571Y-111983928D02*
X128373333Y-112079166D01*
X128373333Y-112079166D02*
X128278095Y-112126785D01*
X129230476Y-111936309D02*
X129278095Y-111888690D01*
X129278095Y-111888690D02*
X129373333Y-111841071D01*
X129373333Y-111841071D02*
X129611428Y-111841071D01*
X129611428Y-111841071D02*
X129706666Y-111888690D01*
X129706666Y-111888690D02*
X129754285Y-111936309D01*
X129754285Y-111936309D02*
X129801904Y-112031547D01*
X129801904Y-112031547D02*
X129801904Y-112126785D01*
X129801904Y-112126785D02*
X129754285Y-112269642D01*
X129754285Y-112269642D02*
X129182857Y-112841071D01*
X129182857Y-112841071D02*
X129801904Y-112841071D01*
X126797143Y-113241071D02*
X126892381Y-113241071D01*
X126892381Y-113241071D02*
X126987619Y-113288690D01*
X126987619Y-113288690D02*
X127035238Y-113336309D01*
X127035238Y-113336309D02*
X127082857Y-113431547D01*
X127082857Y-113431547D02*
X127130476Y-113622023D01*
X127130476Y-113622023D02*
X127130476Y-113860118D01*
X127130476Y-113860118D02*
X127082857Y-114050594D01*
X127082857Y-114050594D02*
X127035238Y-114145832D01*
X127035238Y-114145832D02*
X126987619Y-114193452D01*
X126987619Y-114193452D02*
X126892381Y-114241071D01*
X126892381Y-114241071D02*
X126797143Y-114241071D01*
X126797143Y-114241071D02*
X126701905Y-114193452D01*
X126701905Y-114193452D02*
X126654286Y-114145832D01*
X126654286Y-114145832D02*
X126606667Y-114050594D01*
X126606667Y-114050594D02*
X126559048Y-113860118D01*
X126559048Y-113860118D02*
X126559048Y-113622023D01*
X126559048Y-113622023D02*
X126606667Y-113431547D01*
X126606667Y-113431547D02*
X126654286Y-113336309D01*
X126654286Y-113336309D02*
X126701905Y-113288690D01*
X126701905Y-113288690D02*
X126797143Y-113241071D01*
X127559048Y-114145832D02*
X127606667Y-114193452D01*
X127606667Y-114193452D02*
X127559048Y-114241071D01*
X127559048Y-114241071D02*
X127511429Y-114193452D01*
X127511429Y-114193452D02*
X127559048Y-114145832D01*
X127559048Y-114145832D02*
X127559048Y-114241071D01*
X128559047Y-114241071D02*
X127987619Y-114241071D01*
X128273333Y-114241071D02*
X128273333Y-113241071D01*
X128273333Y-113241071D02*
X128178095Y-113383928D01*
X128178095Y-113383928D02*
X128082857Y-113479166D01*
X128082857Y-113479166D02*
X127987619Y-113526785D01*
X129416190Y-113574404D02*
X129416190Y-114241071D01*
X128987619Y-113574404D02*
X128987619Y-114098213D01*
X128987619Y-114098213D02*
X129035238Y-114193452D01*
X129035238Y-114193452D02*
X129130476Y-114241071D01*
X129130476Y-114241071D02*
X129273333Y-114241071D01*
X129273333Y-114241071D02*
X129368571Y-114193452D01*
X129368571Y-114193452D02*
X129416190Y-114145832D01*
X130225714Y-113717261D02*
X129892381Y-113717261D01*
X129892381Y-114241071D02*
X129892381Y-113241071D01*
X129892381Y-113241071D02*
X130368571Y-113241071D01*
X111457142Y-66754819D02*
X111123809Y-66278628D01*
X110885714Y-66754819D02*
X110885714Y-65754819D01*
X110885714Y-65754819D02*
X111266666Y-65754819D01*
X111266666Y-65754819D02*
X111361904Y-65802438D01*
X111361904Y-65802438D02*
X111409523Y-65850057D01*
X111409523Y-65850057D02*
X111457142Y-65945295D01*
X111457142Y-65945295D02*
X111457142Y-66088152D01*
X111457142Y-66088152D02*
X111409523Y-66183390D01*
X111409523Y-66183390D02*
X111361904Y-66231009D01*
X111361904Y-66231009D02*
X111266666Y-66278628D01*
X111266666Y-66278628D02*
X110885714Y-66278628D01*
X112409523Y-66754819D02*
X111838095Y-66754819D01*
X112123809Y-66754819D02*
X112123809Y-65754819D01*
X112123809Y-65754819D02*
X112028571Y-65897676D01*
X112028571Y-65897676D02*
X111933333Y-65992914D01*
X111933333Y-65992914D02*
X111838095Y-66040533D01*
X112980952Y-66183390D02*
X112885714Y-66135771D01*
X112885714Y-66135771D02*
X112838095Y-66088152D01*
X112838095Y-66088152D02*
X112790476Y-65992914D01*
X112790476Y-65992914D02*
X112790476Y-65945295D01*
X112790476Y-65945295D02*
X112838095Y-65850057D01*
X112838095Y-65850057D02*
X112885714Y-65802438D01*
X112885714Y-65802438D02*
X112980952Y-65754819D01*
X112980952Y-65754819D02*
X113171428Y-65754819D01*
X113171428Y-65754819D02*
X113266666Y-65802438D01*
X113266666Y-65802438D02*
X113314285Y-65850057D01*
X113314285Y-65850057D02*
X113361904Y-65945295D01*
X113361904Y-65945295D02*
X113361904Y-65992914D01*
X113361904Y-65992914D02*
X113314285Y-66088152D01*
X113314285Y-66088152D02*
X113266666Y-66135771D01*
X113266666Y-66135771D02*
X113171428Y-66183390D01*
X113171428Y-66183390D02*
X112980952Y-66183390D01*
X112980952Y-66183390D02*
X112885714Y-66231009D01*
X112885714Y-66231009D02*
X112838095Y-66278628D01*
X112838095Y-66278628D02*
X112790476Y-66373866D01*
X112790476Y-66373866D02*
X112790476Y-66564342D01*
X112790476Y-66564342D02*
X112838095Y-66659580D01*
X112838095Y-66659580D02*
X112885714Y-66707200D01*
X112885714Y-66707200D02*
X112980952Y-66754819D01*
X112980952Y-66754819D02*
X113171428Y-66754819D01*
X113171428Y-66754819D02*
X113266666Y-66707200D01*
X113266666Y-66707200D02*
X113314285Y-66659580D01*
X113314285Y-66659580D02*
X113361904Y-66564342D01*
X113361904Y-66564342D02*
X113361904Y-66373866D01*
X113361904Y-66373866D02*
X113314285Y-66278628D01*
X113314285Y-66278628D02*
X113266666Y-66231009D01*
X113266666Y-66231009D02*
X113171428Y-66183390D01*
X111338095Y-67150057D02*
X111385714Y-67102438D01*
X111385714Y-67102438D02*
X111480952Y-67054819D01*
X111480952Y-67054819D02*
X111719047Y-67054819D01*
X111719047Y-67054819D02*
X111814285Y-67102438D01*
X111814285Y-67102438D02*
X111861904Y-67150057D01*
X111861904Y-67150057D02*
X111909523Y-67245295D01*
X111909523Y-67245295D02*
X111909523Y-67340533D01*
X111909523Y-67340533D02*
X111861904Y-67483390D01*
X111861904Y-67483390D02*
X111290476Y-68054819D01*
X111290476Y-68054819D02*
X111909523Y-68054819D01*
X112528571Y-67054819D02*
X112623809Y-67054819D01*
X112623809Y-67054819D02*
X112719047Y-67102438D01*
X112719047Y-67102438D02*
X112766666Y-67150057D01*
X112766666Y-67150057D02*
X112814285Y-67245295D01*
X112814285Y-67245295D02*
X112861904Y-67435771D01*
X112861904Y-67435771D02*
X112861904Y-67673866D01*
X112861904Y-67673866D02*
X112814285Y-67864342D01*
X112814285Y-67864342D02*
X112766666Y-67959580D01*
X112766666Y-67959580D02*
X112719047Y-68007200D01*
X112719047Y-68007200D02*
X112623809Y-68054819D01*
X112623809Y-68054819D02*
X112528571Y-68054819D01*
X112528571Y-68054819D02*
X112433333Y-68007200D01*
X112433333Y-68007200D02*
X112385714Y-67959580D01*
X112385714Y-67959580D02*
X112338095Y-67864342D01*
X112338095Y-67864342D02*
X112290476Y-67673866D01*
X112290476Y-67673866D02*
X112290476Y-67435771D01*
X112290476Y-67435771D02*
X112338095Y-67245295D01*
X112338095Y-67245295D02*
X112385714Y-67150057D01*
X112385714Y-67150057D02*
X112433333Y-67102438D01*
X112433333Y-67102438D02*
X112528571Y-67054819D01*
X152309523Y-74954819D02*
X151738095Y-74954819D01*
X152023809Y-74954819D02*
X152023809Y-73954819D01*
X152023809Y-73954819D02*
X151928571Y-74097676D01*
X151928571Y-74097676D02*
X151833333Y-74192914D01*
X151833333Y-74192914D02*
X151738095Y-74240533D01*
X152928571Y-73954819D02*
X153023809Y-73954819D01*
X153023809Y-73954819D02*
X153119047Y-74002438D01*
X153119047Y-74002438D02*
X153166666Y-74050057D01*
X153166666Y-74050057D02*
X153214285Y-74145295D01*
X153214285Y-74145295D02*
X153261904Y-74335771D01*
X153261904Y-74335771D02*
X153261904Y-74573866D01*
X153261904Y-74573866D02*
X153214285Y-74764342D01*
X153214285Y-74764342D02*
X153166666Y-74859580D01*
X153166666Y-74859580D02*
X153119047Y-74907200D01*
X153119047Y-74907200D02*
X153023809Y-74954819D01*
X153023809Y-74954819D02*
X152928571Y-74954819D01*
X152928571Y-74954819D02*
X152833333Y-74907200D01*
X152833333Y-74907200D02*
X152785714Y-74859580D01*
X152785714Y-74859580D02*
X152738095Y-74764342D01*
X152738095Y-74764342D02*
X152690476Y-74573866D01*
X152690476Y-74573866D02*
X152690476Y-74335771D01*
X152690476Y-74335771D02*
X152738095Y-74145295D01*
X152738095Y-74145295D02*
X152785714Y-74050057D01*
X152785714Y-74050057D02*
X152833333Y-74002438D01*
X152833333Y-74002438D02*
X152928571Y-73954819D01*
X149833333Y-64654819D02*
X149500000Y-64178628D01*
X149261905Y-64654819D02*
X149261905Y-63654819D01*
X149261905Y-63654819D02*
X149642857Y-63654819D01*
X149642857Y-63654819D02*
X149738095Y-63702438D01*
X149738095Y-63702438D02*
X149785714Y-63750057D01*
X149785714Y-63750057D02*
X149833333Y-63845295D01*
X149833333Y-63845295D02*
X149833333Y-63988152D01*
X149833333Y-63988152D02*
X149785714Y-64083390D01*
X149785714Y-64083390D02*
X149738095Y-64131009D01*
X149738095Y-64131009D02*
X149642857Y-64178628D01*
X149642857Y-64178628D02*
X149261905Y-64178628D01*
X150166667Y-63654819D02*
X150833333Y-63654819D01*
X150833333Y-63654819D02*
X150404762Y-64654819D01*
X147761904Y-65388152D02*
X147761904Y-66054819D01*
X147523809Y-65007200D02*
X147285714Y-65721485D01*
X147285714Y-65721485D02*
X147904761Y-65721485D01*
X148476190Y-65054819D02*
X148571428Y-65054819D01*
X148571428Y-65054819D02*
X148666666Y-65102438D01*
X148666666Y-65102438D02*
X148714285Y-65150057D01*
X148714285Y-65150057D02*
X148761904Y-65245295D01*
X148761904Y-65245295D02*
X148809523Y-65435771D01*
X148809523Y-65435771D02*
X148809523Y-65673866D01*
X148809523Y-65673866D02*
X148761904Y-65864342D01*
X148761904Y-65864342D02*
X148714285Y-65959580D01*
X148714285Y-65959580D02*
X148666666Y-66007200D01*
X148666666Y-66007200D02*
X148571428Y-66054819D01*
X148571428Y-66054819D02*
X148476190Y-66054819D01*
X148476190Y-66054819D02*
X148380952Y-66007200D01*
X148380952Y-66007200D02*
X148333333Y-65959580D01*
X148333333Y-65959580D02*
X148285714Y-65864342D01*
X148285714Y-65864342D02*
X148238095Y-65673866D01*
X148238095Y-65673866D02*
X148238095Y-65435771D01*
X148238095Y-65435771D02*
X148285714Y-65245295D01*
X148285714Y-65245295D02*
X148333333Y-65150057D01*
X148333333Y-65150057D02*
X148380952Y-65102438D01*
X148380952Y-65102438D02*
X148476190Y-65054819D01*
X149428571Y-65054819D02*
X149523809Y-65054819D01*
X149523809Y-65054819D02*
X149619047Y-65102438D01*
X149619047Y-65102438D02*
X149666666Y-65150057D01*
X149666666Y-65150057D02*
X149714285Y-65245295D01*
X149714285Y-65245295D02*
X149761904Y-65435771D01*
X149761904Y-65435771D02*
X149761904Y-65673866D01*
X149761904Y-65673866D02*
X149714285Y-65864342D01*
X149714285Y-65864342D02*
X149666666Y-65959580D01*
X149666666Y-65959580D02*
X149619047Y-66007200D01*
X149619047Y-66007200D02*
X149523809Y-66054819D01*
X149523809Y-66054819D02*
X149428571Y-66054819D01*
X149428571Y-66054819D02*
X149333333Y-66007200D01*
X149333333Y-66007200D02*
X149285714Y-65959580D01*
X149285714Y-65959580D02*
X149238095Y-65864342D01*
X149238095Y-65864342D02*
X149190476Y-65673866D01*
X149190476Y-65673866D02*
X149190476Y-65435771D01*
X149190476Y-65435771D02*
X149238095Y-65245295D01*
X149238095Y-65245295D02*
X149285714Y-65150057D01*
X149285714Y-65150057D02*
X149333333Y-65102438D01*
X149333333Y-65102438D02*
X149428571Y-65054819D01*
X150380952Y-65054819D02*
X150476190Y-65054819D01*
X150476190Y-65054819D02*
X150571428Y-65102438D01*
X150571428Y-65102438D02*
X150619047Y-65150057D01*
X150619047Y-65150057D02*
X150666666Y-65245295D01*
X150666666Y-65245295D02*
X150714285Y-65435771D01*
X150714285Y-65435771D02*
X150714285Y-65673866D01*
X150714285Y-65673866D02*
X150666666Y-65864342D01*
X150666666Y-65864342D02*
X150619047Y-65959580D01*
X150619047Y-65959580D02*
X150571428Y-66007200D01*
X150571428Y-66007200D02*
X150476190Y-66054819D01*
X150476190Y-66054819D02*
X150380952Y-66054819D01*
X150380952Y-66054819D02*
X150285714Y-66007200D01*
X150285714Y-66007200D02*
X150238095Y-65959580D01*
X150238095Y-65959580D02*
X150190476Y-65864342D01*
X150190476Y-65864342D02*
X150142857Y-65673866D01*
X150142857Y-65673866D02*
X150142857Y-65435771D01*
X150142857Y-65435771D02*
X150190476Y-65245295D01*
X150190476Y-65245295D02*
X150238095Y-65150057D01*
X150238095Y-65150057D02*
X150285714Y-65102438D01*
X150285714Y-65102438D02*
X150380952Y-65054819D01*
X123504761Y-74650057D02*
X123409523Y-74602438D01*
X123409523Y-74602438D02*
X123314285Y-74507200D01*
X123314285Y-74507200D02*
X123171428Y-74364342D01*
X123171428Y-74364342D02*
X123076190Y-74316723D01*
X123076190Y-74316723D02*
X122980952Y-74316723D01*
X123028571Y-74554819D02*
X122933333Y-74507200D01*
X122933333Y-74507200D02*
X122838095Y-74411961D01*
X122838095Y-74411961D02*
X122790476Y-74221485D01*
X122790476Y-74221485D02*
X122790476Y-73888152D01*
X122790476Y-73888152D02*
X122838095Y-73697676D01*
X122838095Y-73697676D02*
X122933333Y-73602438D01*
X122933333Y-73602438D02*
X123028571Y-73554819D01*
X123028571Y-73554819D02*
X123219047Y-73554819D01*
X123219047Y-73554819D02*
X123314285Y-73602438D01*
X123314285Y-73602438D02*
X123409523Y-73697676D01*
X123409523Y-73697676D02*
X123457142Y-73888152D01*
X123457142Y-73888152D02*
X123457142Y-74221485D01*
X123457142Y-74221485D02*
X123409523Y-74411961D01*
X123409523Y-74411961D02*
X123314285Y-74507200D01*
X123314285Y-74507200D02*
X123219047Y-74554819D01*
X123219047Y-74554819D02*
X123028571Y-74554819D01*
X124028571Y-73983390D02*
X123933333Y-73935771D01*
X123933333Y-73935771D02*
X123885714Y-73888152D01*
X123885714Y-73888152D02*
X123838095Y-73792914D01*
X123838095Y-73792914D02*
X123838095Y-73745295D01*
X123838095Y-73745295D02*
X123885714Y-73650057D01*
X123885714Y-73650057D02*
X123933333Y-73602438D01*
X123933333Y-73602438D02*
X124028571Y-73554819D01*
X124028571Y-73554819D02*
X124219047Y-73554819D01*
X124219047Y-73554819D02*
X124314285Y-73602438D01*
X124314285Y-73602438D02*
X124361904Y-73650057D01*
X124361904Y-73650057D02*
X124409523Y-73745295D01*
X124409523Y-73745295D02*
X124409523Y-73792914D01*
X124409523Y-73792914D02*
X124361904Y-73888152D01*
X124361904Y-73888152D02*
X124314285Y-73935771D01*
X124314285Y-73935771D02*
X124219047Y-73983390D01*
X124219047Y-73983390D02*
X124028571Y-73983390D01*
X124028571Y-73983390D02*
X123933333Y-74031009D01*
X123933333Y-74031009D02*
X123885714Y-74078628D01*
X123885714Y-74078628D02*
X123838095Y-74173866D01*
X123838095Y-74173866D02*
X123838095Y-74364342D01*
X123838095Y-74364342D02*
X123885714Y-74459580D01*
X123885714Y-74459580D02*
X123933333Y-74507200D01*
X123933333Y-74507200D02*
X124028571Y-74554819D01*
X124028571Y-74554819D02*
X124219047Y-74554819D01*
X124219047Y-74554819D02*
X124314285Y-74507200D01*
X124314285Y-74507200D02*
X124361904Y-74459580D01*
X124361904Y-74459580D02*
X124409523Y-74364342D01*
X124409523Y-74364342D02*
X124409523Y-74173866D01*
X124409523Y-74173866D02*
X124361904Y-74078628D01*
X124361904Y-74078628D02*
X124314285Y-74031009D01*
X124314285Y-74031009D02*
X124219047Y-73983390D01*
X171838095Y-65654819D02*
X172409523Y-65654819D01*
X172123809Y-66654819D02*
X172123809Y-65654819D01*
X173266666Y-66654819D02*
X172695238Y-66654819D01*
X172980952Y-66654819D02*
X172980952Y-65654819D01*
X172980952Y-65654819D02*
X172885714Y-65797676D01*
X172885714Y-65797676D02*
X172790476Y-65892914D01*
X172790476Y-65892914D02*
X172695238Y-65940533D01*
D12*
X142040000Y-93062500D02*
X142040000Y-93862500D01*
X142040000Y-93062500D02*
X142040000Y-92262500D01*
X145160000Y-93062500D02*
X145160000Y-93862500D01*
X145160000Y-93062500D02*
X145160000Y-92262500D01*
X142090000Y-94362500D02*
X141760000Y-94602500D01*
X141760000Y-94122500D01*
X142090000Y-94362500D01*
G36*
X142090000Y-94362500D02*
G01*
X141760000Y-94602500D01*
X141760000Y-94122500D01*
X142090000Y-94362500D01*
G37*
X158772936Y-100510000D02*
X160227064Y-100510000D01*
X158772936Y-98690000D02*
X160227064Y-98690000D01*
X149889564Y-96510000D02*
X148435436Y-96510000D01*
X149889564Y-94690000D02*
X148435436Y-94690000D01*
X158490000Y-95462500D02*
X158490000Y-96262500D01*
X158490000Y-95462500D02*
X158490000Y-94662500D01*
X161610000Y-95462500D02*
X161610000Y-96262500D01*
X161610000Y-95462500D02*
X161610000Y-94662500D01*
X158540000Y-96762500D02*
X158210000Y-97002500D01*
X158210000Y-96522500D01*
X158540000Y-96762500D01*
G36*
X158540000Y-96762500D02*
G01*
X158210000Y-97002500D01*
X158210000Y-96522500D01*
X158540000Y-96762500D01*
G37*
X154662500Y-95040000D02*
X153862500Y-95040000D01*
X154662500Y-95040000D02*
X155462500Y-95040000D01*
X154662500Y-98160000D02*
X153862500Y-98160000D01*
X154662500Y-98160000D02*
X155462500Y-98160000D01*
X153362500Y-95090000D02*
X153122500Y-94760000D01*
X153602500Y-94760000D01*
X153362500Y-95090000D01*
G36*
X153362500Y-95090000D02*
G01*
X153122500Y-94760000D01*
X153602500Y-94760000D01*
X153362500Y-95090000D01*
G37*
X133410000Y-92272936D02*
X133410000Y-93727064D01*
X131590000Y-92272936D02*
X131590000Y-93727064D01*
X118060436Y-86415000D02*
X119514564Y-86415000D01*
X118060436Y-88235000D02*
X119514564Y-88235000D01*
X141886252Y-95940000D02*
X140463748Y-95940000D01*
X141886252Y-97760000D02*
X140463748Y-97760000D01*
X139230000Y-104590689D02*
X139230000Y-110346252D01*
X139230000Y-110346252D02*
X141580000Y-110346252D01*
X140294437Y-103526252D02*
X139230000Y-104590689D01*
X140294437Y-103526252D02*
X141580000Y-103526252D01*
X144487500Y-102498752D02*
X144487500Y-103286252D01*
X144881250Y-102892502D02*
X144093750Y-102892502D01*
X144985563Y-103526252D02*
X143700000Y-103526252D01*
X144985563Y-103526252D02*
X146050000Y-104590689D01*
X146050000Y-104590689D02*
X146050000Y-110346252D01*
X146050000Y-110346252D02*
X143700000Y-110346252D01*
X147055000Y-62930000D02*
X147055000Y-57860000D01*
X156825000Y-57860000D02*
X147055000Y-57860000D01*
X156825000Y-62930000D02*
X147055000Y-62930000D01*
X156825000Y-62930000D02*
X156825000Y-57860000D01*
X157810436Y-64190000D02*
X159264564Y-64190000D01*
X157810436Y-66010000D02*
X159264564Y-66010000D01*
X141886252Y-88190000D02*
X140463748Y-88190000D01*
X141886252Y-90010000D02*
X140463748Y-90010000D01*
X159314564Y-83340000D02*
X157860436Y-83340000D01*
X159314564Y-85160000D02*
X157860436Y-85160000D01*
X124490000Y-70285436D02*
X124490000Y-71739564D01*
X126310000Y-70285436D02*
X126310000Y-71739564D01*
X121052064Y-78515000D02*
X119597936Y-78515000D01*
X121052064Y-80335000D02*
X119597936Y-80335000D01*
X115390000Y-102726252D02*
X115390000Y-111236252D01*
X115390000Y-102726252D02*
X121890000Y-102726252D01*
X121890000Y-102726252D02*
X121890000Y-111236252D01*
D13*
X132600000Y-67500000D02*
X143600000Y-67500000D01*
X143600000Y-81500000D01*
X132600000Y-81500000D01*
X132600000Y-67500000D01*
D12*
X150410436Y-67090000D02*
X151864564Y-67090000D01*
X150410436Y-68910000D02*
X151864564Y-68910000D01*
X116890000Y-71189564D02*
X116890000Y-69735436D01*
X118710000Y-71189564D02*
X118710000Y-69735436D01*
X131280000Y-104590689D02*
X131280000Y-110346252D01*
X131280000Y-110346252D02*
X133630000Y-110346252D01*
X132344437Y-103526252D02*
X131280000Y-104590689D01*
X132344437Y-103526252D02*
X133630000Y-103526252D01*
X136537500Y-102498752D02*
X136537500Y-103286252D01*
X136931250Y-102892502D02*
X136143750Y-102892502D01*
X137035563Y-103526252D02*
X135750000Y-103526252D01*
X137035563Y-103526252D02*
X138100000Y-104590689D01*
X138100000Y-104590689D02*
X138100000Y-110346252D01*
X138100000Y-110346252D02*
X135750000Y-110346252D01*
X119772936Y-74665000D02*
X120977064Y-74665000D01*
X119772936Y-77385000D02*
X120977064Y-77385000D01*
X114527064Y-95490000D02*
X113072936Y-95490000D01*
X114527064Y-97310000D02*
X113072936Y-97310000D01*
X150397936Y-75390000D02*
X151852064Y-75390000D01*
X150397936Y-77210000D02*
X151852064Y-77210000D01*
X126636252Y-75190000D02*
X125213748Y-75190000D01*
X126636252Y-77010000D02*
X125213748Y-77010000D01*
X121712500Y-65640000D02*
X120912500Y-65640000D01*
X121712500Y-65640000D02*
X122512500Y-65640000D01*
X121712500Y-68760000D02*
X120912500Y-68760000D01*
X121712500Y-68760000D02*
X122512500Y-68760000D01*
X120412500Y-65690000D02*
X120172500Y-65360000D01*
X120652500Y-65360000D01*
X120412500Y-65690000D01*
G36*
X120412500Y-65690000D02*
G01*
X120172500Y-65360000D01*
X120652500Y-65360000D01*
X120412500Y-65690000D01*
G37*
X117111252Y-65340000D02*
X115688748Y-65340000D01*
X117111252Y-67160000D02*
X115688748Y-67160000D01*
X115985436Y-62140000D02*
X117439564Y-62140000D01*
X115985436Y-63960000D02*
X117439564Y-63960000D01*
X146915000Y-91630000D02*
X146915000Y-86560000D01*
X156685000Y-86560000D02*
X146915000Y-86560000D01*
X156685000Y-91630000D02*
X146915000Y-91630000D01*
X156685000Y-91630000D02*
X156685000Y-86560000D01*
X113990000Y-74139564D02*
X113990000Y-72685436D01*
X115810000Y-74139564D02*
X115810000Y-72685436D01*
X106040000Y-87188748D02*
X106040000Y-88611252D01*
X107860000Y-87188748D02*
X107860000Y-88611252D01*
X114527064Y-98340000D02*
X113072936Y-98340000D01*
X114527064Y-100160000D02*
X113072936Y-100160000D01*
X115761252Y-78540000D02*
X114338748Y-78540000D01*
X115761252Y-80360000D02*
X114338748Y-80360000D01*
D13*
X183735000Y-72765000D02*
X183735000Y-70315000D01*
X185760000Y-74865000D02*
X188310000Y-74865000D01*
X185910000Y-68190000D02*
X188235000Y-68190000D01*
X190460000Y-70390000D02*
X190460000Y-72565000D01*
D12*
X150397936Y-79990000D02*
X151852064Y-79990000D01*
X150397936Y-81810000D02*
X151852064Y-81810000D01*
X156637500Y-75190000D02*
X160397500Y-75190000D01*
X156637500Y-82010000D02*
X160397500Y-82010000D01*
X160397500Y-75190000D02*
X160397500Y-76450000D01*
X160397500Y-82010000D02*
X160397500Y-80750000D01*
X155357500Y-75290000D02*
X155117500Y-74960000D01*
X155597500Y-74960000D01*
X155357500Y-75290000D01*
G36*
X155357500Y-75290000D02*
G01*
X155117500Y-74960000D01*
X155597500Y-74960000D01*
X155357500Y-75290000D01*
G37*
D14*
X124670000Y-102711252D02*
X128730000Y-102711252D01*
X124670000Y-105761252D02*
X128730000Y-105761252D01*
D12*
X102350000Y-101350000D02*
X102350000Y-101850000D01*
X102590000Y-101590000D02*
X102590000Y-111710000D01*
X103090000Y-101350000D02*
X102350000Y-101350000D01*
X103150000Y-101590000D02*
X103150000Y-111710000D01*
X104250000Y-101590000D02*
X104250000Y-111710000D01*
X112910000Y-101590000D02*
X102590000Y-101590000D01*
X112910000Y-101590000D02*
X112910000Y-111710000D01*
X112910000Y-111710000D02*
X102590000Y-111710000D01*
X106494507Y-104177011D02*
G75*
G02*
X106618000Y-103542000I1555481J27013D01*
G01*
X106618615Y-104757587D02*
G75*
G02*
X106495000Y-104150000I1431385J607587D01*
G01*
X107442258Y-102717891D02*
G75*
G02*
X108658000Y-102718000I607742J-1432109D01*
G01*
X108657742Y-105582109D02*
G75*
G02*
X107442000Y-105582000I-607743J1432112D01*
G01*
X109482109Y-103542258D02*
G75*
G02*
X109482000Y-104758000I-1432109J-607742D01*
G01*
X109605000Y-109150000D02*
G75*
G02*
X106495000Y-109150000I-1555000J0D01*
G01*
X106495000Y-109150000D02*
G75*
G02*
X109605000Y-109150000I1555000J0D01*
G01*
D13*
X102585000Y-70635000D02*
X102585000Y-68185000D01*
X104610000Y-72735000D02*
X107160000Y-72735000D01*
X104760000Y-66060000D02*
X107085000Y-66060000D01*
X109310000Y-68260000D02*
X109310000Y-70435000D01*
D12*
X121260436Y-62540000D02*
X122714564Y-62540000D01*
X121260436Y-64360000D02*
X122714564Y-64360000D01*
D13*
X103950000Y-91300000D02*
X103950000Y-91800000D01*
X103950000Y-91300000D02*
X104450000Y-91300000D01*
X103950000Y-99500000D02*
X103950000Y-99000000D01*
X103950000Y-99500000D02*
X104450000Y-99500000D01*
X109950000Y-91300000D02*
X109450000Y-91300000D01*
X109950000Y-91300000D02*
X109950000Y-91800000D01*
X109950000Y-99500000D02*
X109450000Y-99500000D01*
X109950000Y-99500000D02*
X109950000Y-99000000D01*
D12*
X120290000Y-92285242D02*
X120290000Y-90614758D01*
X122110000Y-92285242D02*
X122110000Y-90614758D01*
X113932936Y-91490000D02*
X115387064Y-91490000D01*
X113932936Y-93310000D02*
X115387064Y-93310000D01*
X144611252Y-61310000D02*
X143188748Y-61310000D01*
X144611252Y-59490000D02*
X143188748Y-59490000D01*
X152597936Y-83340000D02*
X154052064Y-83340000D01*
X152597936Y-85160000D02*
X154052064Y-85160000D01*
X117290000Y-83312500D02*
X117290000Y-82512500D01*
X117290000Y-83312500D02*
X117290000Y-84112500D01*
X120410000Y-83312500D02*
X120410000Y-82512500D01*
X120410000Y-83312500D02*
X120410000Y-84112500D01*
X117340000Y-84612500D02*
X117010000Y-84852500D01*
X117010000Y-84372500D01*
X117340000Y-84612500D01*
G36*
X117340000Y-84612500D02*
G01*
X117010000Y-84852500D01*
X117010000Y-84372500D01*
X117340000Y-84612500D01*
G37*
X156650000Y-66890000D02*
X160410000Y-66890000D01*
X156650000Y-73710000D02*
X160410000Y-73710000D01*
X160410000Y-66890000D02*
X160410000Y-68150000D01*
X160410000Y-73710000D02*
X160410000Y-72450000D01*
X155370000Y-66990000D02*
X155130000Y-66660000D01*
X155610000Y-66660000D01*
X155370000Y-66990000D01*
G36*
X155370000Y-66990000D02*
G01*
X155130000Y-66660000D01*
X155610000Y-66660000D01*
X155370000Y-66990000D01*
G37*
X111040000Y-74127064D02*
X111040000Y-72672936D01*
X112860000Y-74127064D02*
X112860000Y-72672936D01*
X112600000Y-88500000D02*
X112600000Y-87700000D01*
X112600000Y-88500000D02*
X112600000Y-89300000D01*
X115720000Y-88500000D02*
X115720000Y-87700000D01*
X115720000Y-88500000D02*
X115720000Y-89300000D01*
X112650000Y-89800000D02*
X112320000Y-90040000D01*
X112320000Y-89560000D01*
X112650000Y-89800000D01*
G36*
X112650000Y-89800000D02*
G01*
X112320000Y-90040000D01*
X112320000Y-89560000D01*
X112650000Y-89800000D01*
G37*
X127580000Y-108300000D02*
X127580000Y-109722504D01*
X129400000Y-108300000D02*
X129400000Y-109722504D01*
X112710436Y-68390000D02*
X114164564Y-68390000D01*
X112710436Y-70210000D02*
X114164564Y-70210000D01*
X150410436Y-71690000D02*
X151864564Y-71690000D01*
X150410436Y-73510000D02*
X151864564Y-73510000D01*
X154102064Y-64190000D02*
X152647936Y-64190000D01*
X154102064Y-66010000D02*
X152647936Y-66010000D01*
X120240000Y-71337500D02*
X120240000Y-70537500D01*
X120240000Y-71337500D02*
X120240000Y-72137500D01*
X123360000Y-71337500D02*
X123360000Y-70537500D01*
X123360000Y-71337500D02*
X123360000Y-72137500D01*
X120290000Y-72637500D02*
X119960000Y-72877500D01*
X119960000Y-72397500D01*
X120290000Y-72637500D01*
G36*
X120290000Y-72637500D02*
G01*
X119960000Y-72877500D01*
X119960000Y-72397500D01*
X120290000Y-72637500D01*
G37*
D13*
X178100000Y-81500000D02*
X167100000Y-81500000D01*
X167100000Y-67500000D01*
X178100000Y-67500000D01*
X178100000Y-81500000D01*
%LPC*%
D15*
X142650000Y-94200000D03*
X143600000Y-94200000D03*
X144550000Y-94200000D03*
X144550000Y-91925000D03*
X142650000Y-91925000D03*
D16*
X160962500Y-99600000D03*
X158037500Y-99600000D03*
D17*
X150625000Y-95600000D03*
X147700000Y-95600000D03*
D15*
X159100000Y-96600000D03*
X161000000Y-96600000D03*
X160050000Y-94325000D03*
D18*
X153525000Y-95650000D03*
X153525000Y-97550000D03*
X155800000Y-96600000D03*
D19*
X132500000Y-91537500D03*
X132500000Y-94462500D03*
D16*
X117325000Y-87325000D03*
X120250000Y-87325000D03*
D20*
X142650000Y-96850000D03*
X139700000Y-96850000D03*
D21*
X142640000Y-104236252D03*
X142640000Y-109636252D03*
D22*
X149400000Y-60400000D03*
X151940000Y-60400000D03*
X154480000Y-60400000D03*
D16*
X157075000Y-65100000D03*
X160000000Y-65100000D03*
D20*
X142650000Y-89100000D03*
X139700000Y-89100000D03*
D17*
X160050000Y-84250000D03*
X157125000Y-84250000D03*
D19*
X125400000Y-69550000D03*
X125400000Y-72475000D03*
D17*
X121787500Y-79425000D03*
X118862500Y-79425000D03*
D23*
X118640000Y-104236252D03*
X118640000Y-111036252D03*
D24*
X130100000Y-71500000D03*
X130100000Y-77500000D03*
X146100000Y-77500000D03*
X146100000Y-74500000D03*
X146100000Y-71500000D03*
D16*
X149675000Y-68000000D03*
X152600000Y-68000000D03*
D25*
X117800000Y-71925000D03*
X117800000Y-69000000D03*
D21*
X134690000Y-104236252D03*
X134690000Y-109636252D03*
D26*
X118975000Y-76025000D03*
X121775000Y-76025000D03*
D17*
X115262500Y-96400000D03*
X112337500Y-96400000D03*
D27*
X195000000Y-55000000D03*
D16*
X149662500Y-76300000D03*
X152587500Y-76300000D03*
D20*
X127400000Y-76100000D03*
X124450000Y-76100000D03*
D18*
X120575000Y-66250000D03*
X120575000Y-68150000D03*
X122850000Y-67200000D03*
D20*
X117875000Y-66250000D03*
X114925000Y-66250000D03*
D16*
X115250000Y-63050000D03*
X118175000Y-63050000D03*
D22*
X149260000Y-89100000D03*
X151800000Y-89100000D03*
X154340000Y-89100000D03*
D25*
X114900000Y-74875000D03*
X114900000Y-71950000D03*
D28*
X106950000Y-86425000D03*
X106950000Y-89375000D03*
D27*
X105000000Y-55000000D03*
X195000000Y-121000000D03*
D17*
X115262500Y-99250000D03*
X112337500Y-99250000D03*
D20*
X116525000Y-79450000D03*
X113575000Y-79450000D03*
D29*
X184520000Y-69000000D03*
X184520000Y-74080000D03*
X189600000Y-69000000D03*
X189600000Y-74080000D03*
D30*
X187160000Y-71465000D03*
D16*
X149662500Y-80900000D03*
X152587500Y-80900000D03*
D31*
X155337500Y-76300000D03*
X155337500Y-78600000D03*
X155337500Y-80900000D03*
D32*
X161637500Y-78600000D03*
D33*
X124910000Y-104236252D03*
X128490000Y-104236252D03*
D34*
X108050000Y-104150000D03*
D35*
X108050000Y-109150000D03*
D29*
X103370000Y-66870000D03*
X103370000Y-71950000D03*
X108450000Y-66870000D03*
X108450000Y-71950000D03*
D30*
X106010000Y-69335000D03*
D16*
X120525000Y-63450000D03*
X123450000Y-63450000D03*
D36*
X106950000Y-93900000D03*
X106950000Y-96400000D03*
D37*
X121200000Y-93025000D03*
X121200000Y-89875000D03*
D16*
X113197500Y-92400000D03*
X116122500Y-92400000D03*
D20*
X145375000Y-60400000D03*
X142425000Y-60400000D03*
D16*
X151862500Y-84250000D03*
X154787500Y-84250000D03*
D15*
X117900000Y-84450000D03*
X119800000Y-84450000D03*
X118850000Y-82175000D03*
D31*
X155350000Y-68000000D03*
X155350000Y-70300000D03*
X155350000Y-72600000D03*
D32*
X161650000Y-70300000D03*
D25*
X111950000Y-74862500D03*
X111950000Y-71937500D03*
D15*
X113210000Y-89637500D03*
X115110000Y-89637500D03*
X114160000Y-87362500D03*
D27*
X105000000Y-121000000D03*
D28*
X128490000Y-107536252D03*
X128490000Y-110486252D03*
D16*
X111975000Y-69300000D03*
X114900000Y-69300000D03*
X149675000Y-72600000D03*
X152600000Y-72600000D03*
D17*
X154837500Y-65100000D03*
X151912500Y-65100000D03*
D15*
X120850000Y-72475000D03*
X122750000Y-72475000D03*
X121800000Y-70200000D03*
D24*
X180600000Y-77500000D03*
X180600000Y-71500000D03*
X164600000Y-71500000D03*
X164600000Y-74500000D03*
X164600000Y-77500000D03*
%LPD*%
M02*
