G04 #@! TF.GenerationSoftware,KiCad,Pcbnew,8.0.6*
G04 #@! TF.CreationDate,2024-12-01T18:53:23-05:00*
G04 #@! TF.ProjectId,t41_2_low_power_amplifier,7434315f-325f-46c6-9f77-5f706f776572,rev?*
G04 #@! TF.SameCoordinates,Original*
G04 #@! TF.FileFunction,Legend,Top*
G04 #@! TF.FilePolarity,Positive*
%FSLAX46Y46*%
G04 Gerber Fmt 4.6, Leading zero omitted, Abs format (unit mm)*
G04 Created by KiCad (PCBNEW 8.0.6) date 2024-12-01 18:53:23*
%MOMM*%
%LPD*%
G01*
G04 APERTURE LIST*
G04 Aperture macros list*
%AMRoundRect*
0 Rectangle with rounded corners*
0 $1 Rounding radius*
0 $2 $3 $4 $5 $6 $7 $8 $9 X,Y pos of 4 corners*
0 Add a 4 corners polygon primitive as box body*
4,1,4,$2,$3,$4,$5,$6,$7,$8,$9,$2,$3,0*
0 Add four circle primitives for the rounded corners*
1,1,$1+$1,$2,$3*
1,1,$1+$1,$4,$5*
1,1,$1+$1,$6,$7*
1,1,$1+$1,$8,$9*
0 Add four rect primitives between the rounded corners*
20,1,$1+$1,$2,$3,$4,$5,0*
20,1,$1+$1,$4,$5,$6,$7,0*
20,1,$1+$1,$6,$7,$8,$9,0*
20,1,$1+$1,$8,$9,$2,$3,0*%
G04 Aperture macros list end*
%ADD10C,0.200000*%
%ADD11C,0.150000*%
%ADD12C,0.120000*%
%ADD13C,0.100000*%
%ADD14C,0.127000*%
%ADD15C,7.500000*%
%ADD16RoundRect,0.250000X-0.625000X0.312500X-0.625000X-0.312500X0.625000X-0.312500X0.625000X0.312500X0*%
%ADD17RoundRect,0.250000X-0.312500X-0.625000X0.312500X-0.625000X0.312500X0.625000X-0.312500X0.625000X0*%
%ADD18RoundRect,0.150000X0.150000X-0.512500X0.150000X0.512500X-0.150000X0.512500X-0.150000X-0.512500X0*%
%ADD19RoundRect,0.250000X0.325000X0.650000X-0.325000X0.650000X-0.325000X-0.650000X0.325000X-0.650000X0*%
%ADD20RoundRect,0.250000X-0.550000X1.500000X-0.550000X-1.500000X0.550000X-1.500000X0.550000X1.500000X0*%
%ADD21RoundRect,0.250000X0.700000X-0.275000X0.700000X0.275000X-0.700000X0.275000X-0.700000X-0.275000X0*%
%ADD22RoundRect,0.250000X0.312500X0.625000X-0.312500X0.625000X-0.312500X-0.625000X0.312500X-0.625000X0*%
%ADD23RoundRect,0.250000X-1.400000X-1.000000X1.400000X-1.000000X1.400000X1.000000X-1.400000X1.000000X0*%
%ADD24C,2.000000*%
%ADD25RoundRect,0.250000X0.625000X-0.312500X0.625000X0.312500X-0.625000X0.312500X-0.625000X-0.312500X0*%
%ADD26RoundRect,0.250000X0.275000X0.700000X-0.275000X0.700000X-0.275000X-0.700000X0.275000X-0.700000X0*%
%ADD27RoundRect,0.150000X-0.512500X-0.150000X0.512500X-0.150000X0.512500X0.150000X-0.512500X0.150000X0*%
%ADD28C,1.440000*%
%ADD29RoundRect,0.150000X0.512500X0.150000X-0.512500X0.150000X-0.512500X-0.150000X0.512500X-0.150000X0*%
%ADD30RoundRect,0.250000X-0.650000X0.325000X-0.650000X-0.325000X0.650000X-0.325000X0.650000X0.325000X0*%
%ADD31C,2.600000*%
%ADD32C,2.500000*%
%ADD33RoundRect,0.375000X-0.625000X-0.375000X0.625000X-0.375000X0.625000X0.375000X-0.625000X0.375000X0*%
%ADD34RoundRect,0.500000X-0.500000X-1.400000X0.500000X-1.400000X0.500000X1.400000X-0.500000X1.400000X0*%
%ADD35RoundRect,0.102000X-1.385000X-0.735000X1.385000X-0.735000X1.385000X0.735000X-1.385000X0.735000X0*%
%ADD36R,2.400000X2.400000*%
%ADD37C,2.400000*%
%ADD38C,2.100000*%
G04 APERTURE END LIST*
D10*
X128574435Y-58406028D02*
X128860149Y-58406028D01*
X128860149Y-58406028D02*
X129003006Y-58477457D01*
X129003006Y-58477457D02*
X129145863Y-58620314D01*
X129145863Y-58620314D02*
X129217292Y-58906028D01*
X129217292Y-58906028D02*
X129217292Y-59406028D01*
X129217292Y-59406028D02*
X129145863Y-59691742D01*
X129145863Y-59691742D02*
X129003006Y-59834600D01*
X129003006Y-59834600D02*
X128860149Y-59906028D01*
X128860149Y-59906028D02*
X128574435Y-59906028D01*
X128574435Y-59906028D02*
X128431578Y-59834600D01*
X128431578Y-59834600D02*
X128288720Y-59691742D01*
X128288720Y-59691742D02*
X128217292Y-59406028D01*
X128217292Y-59406028D02*
X128217292Y-58906028D01*
X128217292Y-58906028D02*
X128288720Y-58620314D01*
X128288720Y-58620314D02*
X128431578Y-58477457D01*
X128431578Y-58477457D02*
X128574435Y-58406028D01*
X129860149Y-59906028D02*
X129860149Y-58406028D01*
X129860149Y-58406028D02*
X130431578Y-58406028D01*
X130431578Y-58406028D02*
X130574435Y-58477457D01*
X130574435Y-58477457D02*
X130645864Y-58548885D01*
X130645864Y-58548885D02*
X130717292Y-58691742D01*
X130717292Y-58691742D02*
X130717292Y-58906028D01*
X130717292Y-58906028D02*
X130645864Y-59048885D01*
X130645864Y-59048885D02*
X130574435Y-59120314D01*
X130574435Y-59120314D02*
X130431578Y-59191742D01*
X130431578Y-59191742D02*
X129860149Y-59191742D01*
X131360149Y-59120314D02*
X131860149Y-59120314D01*
X132074435Y-59906028D02*
X131360149Y-59906028D01*
X131360149Y-59906028D02*
X131360149Y-58406028D01*
X131360149Y-58406028D02*
X132074435Y-58406028D01*
X132717292Y-59906028D02*
X132717292Y-58406028D01*
X132717292Y-58406028D02*
X133574435Y-59906028D01*
X133574435Y-59906028D02*
X133574435Y-58406028D01*
X135431578Y-59906028D02*
X135431578Y-58406028D01*
X135431578Y-59120314D02*
X136288721Y-59120314D01*
X136288721Y-59906028D02*
X136288721Y-58406028D01*
X136931579Y-59477457D02*
X137645865Y-59477457D01*
X136788722Y-59906028D02*
X137288722Y-58406028D01*
X137288722Y-58406028D02*
X137788722Y-59906028D01*
X139145864Y-59906028D02*
X138645864Y-59191742D01*
X138288721Y-59906028D02*
X138288721Y-58406028D01*
X138288721Y-58406028D02*
X138860150Y-58406028D01*
X138860150Y-58406028D02*
X139003007Y-58477457D01*
X139003007Y-58477457D02*
X139074436Y-58548885D01*
X139074436Y-58548885D02*
X139145864Y-58691742D01*
X139145864Y-58691742D02*
X139145864Y-58906028D01*
X139145864Y-58906028D02*
X139074436Y-59048885D01*
X139074436Y-59048885D02*
X139003007Y-59120314D01*
X139003007Y-59120314D02*
X138860150Y-59191742D01*
X138860150Y-59191742D02*
X138288721Y-59191742D01*
X139788721Y-59906028D02*
X139788721Y-58406028D01*
X139788721Y-58406028D02*
X140145864Y-58406028D01*
X140145864Y-58406028D02*
X140360150Y-58477457D01*
X140360150Y-58477457D02*
X140503007Y-58620314D01*
X140503007Y-58620314D02*
X140574436Y-58763171D01*
X140574436Y-58763171D02*
X140645864Y-59048885D01*
X140645864Y-59048885D02*
X140645864Y-59263171D01*
X140645864Y-59263171D02*
X140574436Y-59548885D01*
X140574436Y-59548885D02*
X140503007Y-59691742D01*
X140503007Y-59691742D02*
X140360150Y-59834600D01*
X140360150Y-59834600D02*
X140145864Y-59906028D01*
X140145864Y-59906028D02*
X139788721Y-59906028D01*
X141145864Y-58406028D02*
X141503007Y-59906028D01*
X141503007Y-59906028D02*
X141788721Y-58834600D01*
X141788721Y-58834600D02*
X142074436Y-59906028D01*
X142074436Y-59906028D02*
X142431579Y-58406028D01*
X142931579Y-59477457D02*
X143645865Y-59477457D01*
X142788722Y-59906028D02*
X143288722Y-58406028D01*
X143288722Y-58406028D02*
X143788722Y-59906028D01*
X145145864Y-59906028D02*
X144645864Y-59191742D01*
X144288721Y-59906028D02*
X144288721Y-58406028D01*
X144288721Y-58406028D02*
X144860150Y-58406028D01*
X144860150Y-58406028D02*
X145003007Y-58477457D01*
X145003007Y-58477457D02*
X145074436Y-58548885D01*
X145074436Y-58548885D02*
X145145864Y-58691742D01*
X145145864Y-58691742D02*
X145145864Y-58906028D01*
X145145864Y-58906028D02*
X145074436Y-59048885D01*
X145074436Y-59048885D02*
X145003007Y-59120314D01*
X145003007Y-59120314D02*
X144860150Y-59191742D01*
X144860150Y-59191742D02*
X144288721Y-59191742D01*
X145788721Y-59120314D02*
X146288721Y-59120314D01*
X146503007Y-59906028D02*
X145788721Y-59906028D01*
X145788721Y-59906028D02*
X145788721Y-58406028D01*
X145788721Y-58406028D02*
X146503007Y-58406028D01*
X134388720Y-57306028D02*
X134388720Y-55806028D01*
X135245863Y-57306028D02*
X134603006Y-56448885D01*
X135245863Y-55806028D02*
X134388720Y-56663171D01*
X136388720Y-56520314D02*
X135888720Y-56520314D01*
X135888720Y-57306028D02*
X135888720Y-55806028D01*
X135888720Y-55806028D02*
X136603006Y-55806028D01*
X137888720Y-55806028D02*
X137174434Y-55806028D01*
X137174434Y-55806028D02*
X137103006Y-56520314D01*
X137103006Y-56520314D02*
X137174434Y-56448885D01*
X137174434Y-56448885D02*
X137317292Y-56377457D01*
X137317292Y-56377457D02*
X137674434Y-56377457D01*
X137674434Y-56377457D02*
X137817292Y-56448885D01*
X137817292Y-56448885D02*
X137888720Y-56520314D01*
X137888720Y-56520314D02*
X137960149Y-56663171D01*
X137960149Y-56663171D02*
X137960149Y-57020314D01*
X137960149Y-57020314D02*
X137888720Y-57163171D01*
X137888720Y-57163171D02*
X137817292Y-57234600D01*
X137817292Y-57234600D02*
X137674434Y-57306028D01*
X137674434Y-57306028D02*
X137317292Y-57306028D01*
X137317292Y-57306028D02*
X137174434Y-57234600D01*
X137174434Y-57234600D02*
X137103006Y-57163171D01*
X138603005Y-57306028D02*
X138603005Y-55806028D01*
X138603005Y-55806028D02*
X139460148Y-57306028D01*
X139460148Y-57306028D02*
X139460148Y-55806028D01*
X119074435Y-53106028D02*
X119931578Y-53106028D01*
X119503006Y-54606028D02*
X119503006Y-53106028D01*
X121074435Y-53606028D02*
X121074435Y-54606028D01*
X120717292Y-53034600D02*
X120360149Y-54106028D01*
X120360149Y-54106028D02*
X121288720Y-54106028D01*
X122645863Y-54606028D02*
X121788720Y-54606028D01*
X122217291Y-54606028D02*
X122217291Y-53106028D01*
X122217291Y-53106028D02*
X122074434Y-53320314D01*
X122074434Y-53320314D02*
X121931577Y-53463171D01*
X121931577Y-53463171D02*
X121788720Y-53534600D01*
X123288719Y-54034600D02*
X124431577Y-54034600D01*
X125074434Y-53248885D02*
X125145862Y-53177457D01*
X125145862Y-53177457D02*
X125288720Y-53106028D01*
X125288720Y-53106028D02*
X125645862Y-53106028D01*
X125645862Y-53106028D02*
X125788720Y-53177457D01*
X125788720Y-53177457D02*
X125860148Y-53248885D01*
X125860148Y-53248885D02*
X125931577Y-53391742D01*
X125931577Y-53391742D02*
X125931577Y-53534600D01*
X125931577Y-53534600D02*
X125860148Y-53748885D01*
X125860148Y-53748885D02*
X125003005Y-54606028D01*
X125003005Y-54606028D02*
X125931577Y-54606028D01*
X128431576Y-54606028D02*
X127717290Y-54606028D01*
X127717290Y-54606028D02*
X127717290Y-53106028D01*
X129217291Y-53106028D02*
X129503005Y-53106028D01*
X129503005Y-53106028D02*
X129645862Y-53177457D01*
X129645862Y-53177457D02*
X129788719Y-53320314D01*
X129788719Y-53320314D02*
X129860148Y-53606028D01*
X129860148Y-53606028D02*
X129860148Y-54106028D01*
X129860148Y-54106028D02*
X129788719Y-54391742D01*
X129788719Y-54391742D02*
X129645862Y-54534600D01*
X129645862Y-54534600D02*
X129503005Y-54606028D01*
X129503005Y-54606028D02*
X129217291Y-54606028D01*
X129217291Y-54606028D02*
X129074434Y-54534600D01*
X129074434Y-54534600D02*
X128931576Y-54391742D01*
X128931576Y-54391742D02*
X128860148Y-54106028D01*
X128860148Y-54106028D02*
X128860148Y-53606028D01*
X128860148Y-53606028D02*
X128931576Y-53320314D01*
X128931576Y-53320314D02*
X129074434Y-53177457D01*
X129074434Y-53177457D02*
X129217291Y-53106028D01*
X130360148Y-53106028D02*
X130717291Y-54606028D01*
X130717291Y-54606028D02*
X131003005Y-53534600D01*
X131003005Y-53534600D02*
X131288720Y-54606028D01*
X131288720Y-54606028D02*
X131645863Y-53106028D01*
X133360148Y-54606028D02*
X133360148Y-53106028D01*
X133360148Y-53106028D02*
X133931577Y-53106028D01*
X133931577Y-53106028D02*
X134074434Y-53177457D01*
X134074434Y-53177457D02*
X134145863Y-53248885D01*
X134145863Y-53248885D02*
X134217291Y-53391742D01*
X134217291Y-53391742D02*
X134217291Y-53606028D01*
X134217291Y-53606028D02*
X134145863Y-53748885D01*
X134145863Y-53748885D02*
X134074434Y-53820314D01*
X134074434Y-53820314D02*
X133931577Y-53891742D01*
X133931577Y-53891742D02*
X133360148Y-53891742D01*
X135145863Y-53106028D02*
X135431577Y-53106028D01*
X135431577Y-53106028D02*
X135574434Y-53177457D01*
X135574434Y-53177457D02*
X135717291Y-53320314D01*
X135717291Y-53320314D02*
X135788720Y-53606028D01*
X135788720Y-53606028D02*
X135788720Y-54106028D01*
X135788720Y-54106028D02*
X135717291Y-54391742D01*
X135717291Y-54391742D02*
X135574434Y-54534600D01*
X135574434Y-54534600D02*
X135431577Y-54606028D01*
X135431577Y-54606028D02*
X135145863Y-54606028D01*
X135145863Y-54606028D02*
X135003006Y-54534600D01*
X135003006Y-54534600D02*
X134860148Y-54391742D01*
X134860148Y-54391742D02*
X134788720Y-54106028D01*
X134788720Y-54106028D02*
X134788720Y-53606028D01*
X134788720Y-53606028D02*
X134860148Y-53320314D01*
X134860148Y-53320314D02*
X135003006Y-53177457D01*
X135003006Y-53177457D02*
X135145863Y-53106028D01*
X136288720Y-53106028D02*
X136645863Y-54606028D01*
X136645863Y-54606028D02*
X136931577Y-53534600D01*
X136931577Y-53534600D02*
X137217292Y-54606028D01*
X137217292Y-54606028D02*
X137574435Y-53106028D01*
X138145863Y-53820314D02*
X138645863Y-53820314D01*
X138860149Y-54606028D02*
X138145863Y-54606028D01*
X138145863Y-54606028D02*
X138145863Y-53106028D01*
X138145863Y-53106028D02*
X138860149Y-53106028D01*
X140360149Y-54606028D02*
X139860149Y-53891742D01*
X139503006Y-54606028D02*
X139503006Y-53106028D01*
X139503006Y-53106028D02*
X140074435Y-53106028D01*
X140074435Y-53106028D02*
X140217292Y-53177457D01*
X140217292Y-53177457D02*
X140288721Y-53248885D01*
X140288721Y-53248885D02*
X140360149Y-53391742D01*
X140360149Y-53391742D02*
X140360149Y-53606028D01*
X140360149Y-53606028D02*
X140288721Y-53748885D01*
X140288721Y-53748885D02*
X140217292Y-53820314D01*
X140217292Y-53820314D02*
X140074435Y-53891742D01*
X140074435Y-53891742D02*
X139503006Y-53891742D01*
X142074435Y-54177457D02*
X142788721Y-54177457D01*
X141931578Y-54606028D02*
X142431578Y-53106028D01*
X142431578Y-53106028D02*
X142931578Y-54606028D01*
X143431577Y-54606028D02*
X143431577Y-53106028D01*
X143431577Y-53106028D02*
X143931577Y-54177457D01*
X143931577Y-54177457D02*
X144431577Y-53106028D01*
X144431577Y-53106028D02*
X144431577Y-54606028D01*
X145145863Y-54606028D02*
X145145863Y-53106028D01*
X145145863Y-53106028D02*
X145717292Y-53106028D01*
X145717292Y-53106028D02*
X145860149Y-53177457D01*
X145860149Y-53177457D02*
X145931578Y-53248885D01*
X145931578Y-53248885D02*
X146003006Y-53391742D01*
X146003006Y-53391742D02*
X146003006Y-53606028D01*
X146003006Y-53606028D02*
X145931578Y-53748885D01*
X145931578Y-53748885D02*
X145860149Y-53820314D01*
X145860149Y-53820314D02*
X145717292Y-53891742D01*
X145717292Y-53891742D02*
X145145863Y-53891742D01*
X147360149Y-54606028D02*
X146645863Y-54606028D01*
X146645863Y-54606028D02*
X146645863Y-53106028D01*
X147860149Y-54606028D02*
X147860149Y-53106028D01*
X149074435Y-53820314D02*
X148574435Y-53820314D01*
X148574435Y-54606028D02*
X148574435Y-53106028D01*
X148574435Y-53106028D02*
X149288721Y-53106028D01*
X149860149Y-54606028D02*
X149860149Y-53106028D01*
X150574435Y-53820314D02*
X151074435Y-53820314D01*
X151288721Y-54606028D02*
X150574435Y-54606028D01*
X150574435Y-54606028D02*
X150574435Y-53106028D01*
X150574435Y-53106028D02*
X151288721Y-53106028D01*
X152788721Y-54606028D02*
X152288721Y-53891742D01*
X151931578Y-54606028D02*
X151931578Y-53106028D01*
X151931578Y-53106028D02*
X152503007Y-53106028D01*
X152503007Y-53106028D02*
X152645864Y-53177457D01*
X152645864Y-53177457D02*
X152717293Y-53248885D01*
X152717293Y-53248885D02*
X152788721Y-53391742D01*
X152788721Y-53391742D02*
X152788721Y-53606028D01*
X152788721Y-53606028D02*
X152717293Y-53748885D01*
X152717293Y-53748885D02*
X152645864Y-53820314D01*
X152645864Y-53820314D02*
X152503007Y-53891742D01*
X152503007Y-53891742D02*
X151931578Y-53891742D01*
X154360150Y-53106028D02*
X154860150Y-54606028D01*
X154860150Y-54606028D02*
X155360150Y-53106028D01*
X156645864Y-54606028D02*
X155788721Y-54606028D01*
X156217292Y-54606028D02*
X156217292Y-53106028D01*
X156217292Y-53106028D02*
X156074435Y-53320314D01*
X156074435Y-53320314D02*
X155931578Y-53463171D01*
X155931578Y-53463171D02*
X155788721Y-53534600D01*
X157288720Y-54463171D02*
X157360149Y-54534600D01*
X157360149Y-54534600D02*
X157288720Y-54606028D01*
X157288720Y-54606028D02*
X157217292Y-54534600D01*
X157217292Y-54534600D02*
X157288720Y-54463171D01*
X157288720Y-54463171D02*
X157288720Y-54606028D01*
X158788721Y-54606028D02*
X157931578Y-54606028D01*
X158360149Y-54606028D02*
X158360149Y-53106028D01*
X158360149Y-53106028D02*
X158217292Y-53320314D01*
X158217292Y-53320314D02*
X158074435Y-53463171D01*
X158074435Y-53463171D02*
X157931578Y-53534600D01*
D11*
X150933333Y-86654819D02*
X150600000Y-86178628D01*
X150361905Y-86654819D02*
X150361905Y-85654819D01*
X150361905Y-85654819D02*
X150742857Y-85654819D01*
X150742857Y-85654819D02*
X150838095Y-85702438D01*
X150838095Y-85702438D02*
X150885714Y-85750057D01*
X150885714Y-85750057D02*
X150933333Y-85845295D01*
X150933333Y-85845295D02*
X150933333Y-85988152D01*
X150933333Y-85988152D02*
X150885714Y-86083390D01*
X150885714Y-86083390D02*
X150838095Y-86131009D01*
X150838095Y-86131009D02*
X150742857Y-86178628D01*
X150742857Y-86178628D02*
X150361905Y-86178628D01*
X151266667Y-85654819D02*
X151933333Y-85654819D01*
X151933333Y-85654819D02*
X151504762Y-86654819D01*
X150233333Y-88054819D02*
X149661905Y-88054819D01*
X149947619Y-88054819D02*
X149947619Y-87054819D01*
X149947619Y-87054819D02*
X149852381Y-87197676D01*
X149852381Y-87197676D02*
X149757143Y-87292914D01*
X149757143Y-87292914D02*
X149661905Y-87340533D01*
X150852381Y-87054819D02*
X150947619Y-87054819D01*
X150947619Y-87054819D02*
X151042857Y-87102438D01*
X151042857Y-87102438D02*
X151090476Y-87150057D01*
X151090476Y-87150057D02*
X151138095Y-87245295D01*
X151138095Y-87245295D02*
X151185714Y-87435771D01*
X151185714Y-87435771D02*
X151185714Y-87673866D01*
X151185714Y-87673866D02*
X151138095Y-87864342D01*
X151138095Y-87864342D02*
X151090476Y-87959580D01*
X151090476Y-87959580D02*
X151042857Y-88007200D01*
X151042857Y-88007200D02*
X150947619Y-88054819D01*
X150947619Y-88054819D02*
X150852381Y-88054819D01*
X150852381Y-88054819D02*
X150757143Y-88007200D01*
X150757143Y-88007200D02*
X150709524Y-87959580D01*
X150709524Y-87959580D02*
X150661905Y-87864342D01*
X150661905Y-87864342D02*
X150614286Y-87673866D01*
X150614286Y-87673866D02*
X150614286Y-87435771D01*
X150614286Y-87435771D02*
X150661905Y-87245295D01*
X150661905Y-87245295D02*
X150709524Y-87150057D01*
X150709524Y-87150057D02*
X150757143Y-87102438D01*
X150757143Y-87102438D02*
X150852381Y-87054819D01*
X151804762Y-87054819D02*
X151900000Y-87054819D01*
X151900000Y-87054819D02*
X151995238Y-87102438D01*
X151995238Y-87102438D02*
X152042857Y-87150057D01*
X152042857Y-87150057D02*
X152090476Y-87245295D01*
X152090476Y-87245295D02*
X152138095Y-87435771D01*
X152138095Y-87435771D02*
X152138095Y-87673866D01*
X152138095Y-87673866D02*
X152090476Y-87864342D01*
X152090476Y-87864342D02*
X152042857Y-87959580D01*
X152042857Y-87959580D02*
X151995238Y-88007200D01*
X151995238Y-88007200D02*
X151900000Y-88054819D01*
X151900000Y-88054819D02*
X151804762Y-88054819D01*
X151804762Y-88054819D02*
X151709524Y-88007200D01*
X151709524Y-88007200D02*
X151661905Y-87959580D01*
X151661905Y-87959580D02*
X151614286Y-87864342D01*
X151614286Y-87864342D02*
X151566667Y-87673866D01*
X151566667Y-87673866D02*
X151566667Y-87435771D01*
X151566667Y-87435771D02*
X151614286Y-87245295D01*
X151614286Y-87245295D02*
X151661905Y-87150057D01*
X151661905Y-87150057D02*
X151709524Y-87102438D01*
X151709524Y-87102438D02*
X151804762Y-87054819D01*
X118932142Y-84479819D02*
X118598809Y-84003628D01*
X118360714Y-84479819D02*
X118360714Y-83479819D01*
X118360714Y-83479819D02*
X118741666Y-83479819D01*
X118741666Y-83479819D02*
X118836904Y-83527438D01*
X118836904Y-83527438D02*
X118884523Y-83575057D01*
X118884523Y-83575057D02*
X118932142Y-83670295D01*
X118932142Y-83670295D02*
X118932142Y-83813152D01*
X118932142Y-83813152D02*
X118884523Y-83908390D01*
X118884523Y-83908390D02*
X118836904Y-83956009D01*
X118836904Y-83956009D02*
X118741666Y-84003628D01*
X118741666Y-84003628D02*
X118360714Y-84003628D01*
X119884523Y-84479819D02*
X119313095Y-84479819D01*
X119598809Y-84479819D02*
X119598809Y-83479819D01*
X119598809Y-83479819D02*
X119503571Y-83622676D01*
X119503571Y-83622676D02*
X119408333Y-83717914D01*
X119408333Y-83717914D02*
X119313095Y-83765533D01*
X120360714Y-84479819D02*
X120551190Y-84479819D01*
X120551190Y-84479819D02*
X120646428Y-84432200D01*
X120646428Y-84432200D02*
X120694047Y-84384580D01*
X120694047Y-84384580D02*
X120789285Y-84241723D01*
X120789285Y-84241723D02*
X120836904Y-84051247D01*
X120836904Y-84051247D02*
X120836904Y-83670295D01*
X120836904Y-83670295D02*
X120789285Y-83575057D01*
X120789285Y-83575057D02*
X120741666Y-83527438D01*
X120741666Y-83527438D02*
X120646428Y-83479819D01*
X120646428Y-83479819D02*
X120455952Y-83479819D01*
X120455952Y-83479819D02*
X120360714Y-83527438D01*
X120360714Y-83527438D02*
X120313095Y-83575057D01*
X120313095Y-83575057D02*
X120265476Y-83670295D01*
X120265476Y-83670295D02*
X120265476Y-83908390D01*
X120265476Y-83908390D02*
X120313095Y-84003628D01*
X120313095Y-84003628D02*
X120360714Y-84051247D01*
X120360714Y-84051247D02*
X120455952Y-84098866D01*
X120455952Y-84098866D02*
X120646428Y-84098866D01*
X120646428Y-84098866D02*
X120741666Y-84051247D01*
X120741666Y-84051247D02*
X120789285Y-84003628D01*
X120789285Y-84003628D02*
X120836904Y-83908390D01*
X118929761Y-85879819D02*
X118358333Y-85879819D01*
X118644047Y-85879819D02*
X118644047Y-84879819D01*
X118644047Y-84879819D02*
X118548809Y-85022676D01*
X118548809Y-85022676D02*
X118453571Y-85117914D01*
X118453571Y-85117914D02*
X118358333Y-85165533D01*
X119548809Y-84879819D02*
X119644047Y-84879819D01*
X119644047Y-84879819D02*
X119739285Y-84927438D01*
X119739285Y-84927438D02*
X119786904Y-84975057D01*
X119786904Y-84975057D02*
X119834523Y-85070295D01*
X119834523Y-85070295D02*
X119882142Y-85260771D01*
X119882142Y-85260771D02*
X119882142Y-85498866D01*
X119882142Y-85498866D02*
X119834523Y-85689342D01*
X119834523Y-85689342D02*
X119786904Y-85784580D01*
X119786904Y-85784580D02*
X119739285Y-85832200D01*
X119739285Y-85832200D02*
X119644047Y-85879819D01*
X119644047Y-85879819D02*
X119548809Y-85879819D01*
X119548809Y-85879819D02*
X119453571Y-85832200D01*
X119453571Y-85832200D02*
X119405952Y-85784580D01*
X119405952Y-85784580D02*
X119358333Y-85689342D01*
X119358333Y-85689342D02*
X119310714Y-85498866D01*
X119310714Y-85498866D02*
X119310714Y-85260771D01*
X119310714Y-85260771D02*
X119358333Y-85070295D01*
X119358333Y-85070295D02*
X119405952Y-84975057D01*
X119405952Y-84975057D02*
X119453571Y-84927438D01*
X119453571Y-84927438D02*
X119548809Y-84879819D01*
X120310714Y-85879819D02*
X120310714Y-84879819D01*
X120405952Y-85498866D02*
X120691666Y-85879819D01*
X120691666Y-85213152D02*
X120310714Y-85594104D01*
X145738095Y-91829819D02*
X145738095Y-92639342D01*
X145738095Y-92639342D02*
X145785714Y-92734580D01*
X145785714Y-92734580D02*
X145833333Y-92782200D01*
X145833333Y-92782200D02*
X145928571Y-92829819D01*
X145928571Y-92829819D02*
X146119047Y-92829819D01*
X146119047Y-92829819D02*
X146214285Y-92782200D01*
X146214285Y-92782200D02*
X146261904Y-92734580D01*
X146261904Y-92734580D02*
X146309523Y-92639342D01*
X146309523Y-92639342D02*
X146309523Y-91829819D01*
X147309523Y-92829819D02*
X146738095Y-92829819D01*
X147023809Y-92829819D02*
X147023809Y-91829819D01*
X147023809Y-91829819D02*
X146928571Y-91972676D01*
X146928571Y-91972676D02*
X146833333Y-92067914D01*
X146833333Y-92067914D02*
X146738095Y-92115533D01*
X136457142Y-97259580D02*
X136409523Y-97307200D01*
X136409523Y-97307200D02*
X136266666Y-97354819D01*
X136266666Y-97354819D02*
X136171428Y-97354819D01*
X136171428Y-97354819D02*
X136028571Y-97307200D01*
X136028571Y-97307200D02*
X135933333Y-97211961D01*
X135933333Y-97211961D02*
X135885714Y-97116723D01*
X135885714Y-97116723D02*
X135838095Y-96926247D01*
X135838095Y-96926247D02*
X135838095Y-96783390D01*
X135838095Y-96783390D02*
X135885714Y-96592914D01*
X135885714Y-96592914D02*
X135933333Y-96497676D01*
X135933333Y-96497676D02*
X136028571Y-96402438D01*
X136028571Y-96402438D02*
X136171428Y-96354819D01*
X136171428Y-96354819D02*
X136266666Y-96354819D01*
X136266666Y-96354819D02*
X136409523Y-96402438D01*
X136409523Y-96402438D02*
X136457142Y-96450057D01*
X136838095Y-96450057D02*
X136885714Y-96402438D01*
X136885714Y-96402438D02*
X136980952Y-96354819D01*
X136980952Y-96354819D02*
X137219047Y-96354819D01*
X137219047Y-96354819D02*
X137314285Y-96402438D01*
X137314285Y-96402438D02*
X137361904Y-96450057D01*
X137361904Y-96450057D02*
X137409523Y-96545295D01*
X137409523Y-96545295D02*
X137409523Y-96640533D01*
X137409523Y-96640533D02*
X137361904Y-96783390D01*
X137361904Y-96783390D02*
X136790476Y-97354819D01*
X136790476Y-97354819D02*
X137409523Y-97354819D01*
X138028571Y-96354819D02*
X138123809Y-96354819D01*
X138123809Y-96354819D02*
X138219047Y-96402438D01*
X138219047Y-96402438D02*
X138266666Y-96450057D01*
X138266666Y-96450057D02*
X138314285Y-96545295D01*
X138314285Y-96545295D02*
X138361904Y-96735771D01*
X138361904Y-96735771D02*
X138361904Y-96973866D01*
X138361904Y-96973866D02*
X138314285Y-97164342D01*
X138314285Y-97164342D02*
X138266666Y-97259580D01*
X138266666Y-97259580D02*
X138219047Y-97307200D01*
X138219047Y-97307200D02*
X138123809Y-97354819D01*
X138123809Y-97354819D02*
X138028571Y-97354819D01*
X138028571Y-97354819D02*
X137933333Y-97307200D01*
X137933333Y-97307200D02*
X137885714Y-97259580D01*
X137885714Y-97259580D02*
X137838095Y-97164342D01*
X137838095Y-97164342D02*
X137790476Y-96973866D01*
X137790476Y-96973866D02*
X137790476Y-96735771D01*
X137790476Y-96735771D02*
X137838095Y-96545295D01*
X137838095Y-96545295D02*
X137885714Y-96450057D01*
X137885714Y-96450057D02*
X137933333Y-96402438D01*
X137933333Y-96402438D02*
X138028571Y-96354819D01*
X144347618Y-97354819D02*
X143776190Y-97354819D01*
X144061904Y-97354819D02*
X144061904Y-96354819D01*
X144061904Y-96354819D02*
X143966666Y-96497676D01*
X143966666Y-96497676D02*
X143871428Y-96592914D01*
X143871428Y-96592914D02*
X143776190Y-96640533D01*
X145204761Y-96688152D02*
X145204761Y-97354819D01*
X144776190Y-96688152D02*
X144776190Y-97211961D01*
X144776190Y-97211961D02*
X144823809Y-97307200D01*
X144823809Y-97307200D02*
X144919047Y-97354819D01*
X144919047Y-97354819D02*
X145061904Y-97354819D01*
X145061904Y-97354819D02*
X145157142Y-97307200D01*
X145157142Y-97307200D02*
X145204761Y-97259580D01*
X145538095Y-96688152D02*
X145919047Y-96688152D01*
X145680952Y-97354819D02*
X145680952Y-96497676D01*
X145680952Y-96497676D02*
X145728571Y-96402438D01*
X145728571Y-96402438D02*
X145823809Y-96354819D01*
X145823809Y-96354819D02*
X145919047Y-96354819D01*
X142473333Y-113145832D02*
X142425714Y-113193452D01*
X142425714Y-113193452D02*
X142282857Y-113241071D01*
X142282857Y-113241071D02*
X142187619Y-113241071D01*
X142187619Y-113241071D02*
X142044762Y-113193452D01*
X142044762Y-113193452D02*
X141949524Y-113098213D01*
X141949524Y-113098213D02*
X141901905Y-113002975D01*
X141901905Y-113002975D02*
X141854286Y-112812499D01*
X141854286Y-112812499D02*
X141854286Y-112669642D01*
X141854286Y-112669642D02*
X141901905Y-112479166D01*
X141901905Y-112479166D02*
X141949524Y-112383928D01*
X141949524Y-112383928D02*
X142044762Y-112288690D01*
X142044762Y-112288690D02*
X142187619Y-112241071D01*
X142187619Y-112241071D02*
X142282857Y-112241071D01*
X142282857Y-112241071D02*
X142425714Y-112288690D01*
X142425714Y-112288690D02*
X142473333Y-112336309D01*
X142949524Y-113241071D02*
X143140000Y-113241071D01*
X143140000Y-113241071D02*
X143235238Y-113193452D01*
X143235238Y-113193452D02*
X143282857Y-113145832D01*
X143282857Y-113145832D02*
X143378095Y-113002975D01*
X143378095Y-113002975D02*
X143425714Y-112812499D01*
X143425714Y-112812499D02*
X143425714Y-112431547D01*
X143425714Y-112431547D02*
X143378095Y-112336309D01*
X143378095Y-112336309D02*
X143330476Y-112288690D01*
X143330476Y-112288690D02*
X143235238Y-112241071D01*
X143235238Y-112241071D02*
X143044762Y-112241071D01*
X143044762Y-112241071D02*
X142949524Y-112288690D01*
X142949524Y-112288690D02*
X142901905Y-112336309D01*
X142901905Y-112336309D02*
X142854286Y-112431547D01*
X142854286Y-112431547D02*
X142854286Y-112669642D01*
X142854286Y-112669642D02*
X142901905Y-112764880D01*
X142901905Y-112764880D02*
X142949524Y-112812499D01*
X142949524Y-112812499D02*
X143044762Y-112860118D01*
X143044762Y-112860118D02*
X143235238Y-112860118D01*
X143235238Y-112860118D02*
X143330476Y-112812499D01*
X143330476Y-112812499D02*
X143378095Y-112764880D01*
X143378095Y-112764880D02*
X143425714Y-112669642D01*
X141473333Y-113874404D02*
X141473333Y-114541071D01*
X141235238Y-113493452D02*
X140997143Y-114207737D01*
X140997143Y-114207737D02*
X141616190Y-114207737D01*
X141901905Y-113541071D02*
X142568571Y-113541071D01*
X142568571Y-113541071D02*
X142140000Y-114541071D01*
X143378095Y-113874404D02*
X143378095Y-114541071D01*
X142949524Y-113874404D02*
X142949524Y-114398213D01*
X142949524Y-114398213D02*
X142997143Y-114493452D01*
X142997143Y-114493452D02*
X143092381Y-114541071D01*
X143092381Y-114541071D02*
X143235238Y-114541071D01*
X143235238Y-114541071D02*
X143330476Y-114493452D01*
X143330476Y-114493452D02*
X143378095Y-114445832D01*
X144187619Y-114017261D02*
X143854286Y-114017261D01*
X143854286Y-114541071D02*
X143854286Y-113541071D01*
X143854286Y-113541071D02*
X144330476Y-113541071D01*
X144432142Y-84909580D02*
X144384523Y-84957200D01*
X144384523Y-84957200D02*
X144241666Y-85004819D01*
X144241666Y-85004819D02*
X144146428Y-85004819D01*
X144146428Y-85004819D02*
X144003571Y-84957200D01*
X144003571Y-84957200D02*
X143908333Y-84861961D01*
X143908333Y-84861961D02*
X143860714Y-84766723D01*
X143860714Y-84766723D02*
X143813095Y-84576247D01*
X143813095Y-84576247D02*
X143813095Y-84433390D01*
X143813095Y-84433390D02*
X143860714Y-84242914D01*
X143860714Y-84242914D02*
X143908333Y-84147676D01*
X143908333Y-84147676D02*
X144003571Y-84052438D01*
X144003571Y-84052438D02*
X144146428Y-84004819D01*
X144146428Y-84004819D02*
X144241666Y-84004819D01*
X144241666Y-84004819D02*
X144384523Y-84052438D01*
X144384523Y-84052438D02*
X144432142Y-84100057D01*
X145384523Y-85004819D02*
X144813095Y-85004819D01*
X145098809Y-85004819D02*
X145098809Y-84004819D01*
X145098809Y-84004819D02*
X145003571Y-84147676D01*
X145003571Y-84147676D02*
X144908333Y-84242914D01*
X144908333Y-84242914D02*
X144813095Y-84290533D01*
X146241666Y-84338152D02*
X146241666Y-85004819D01*
X146003571Y-83957200D02*
X145765476Y-84671485D01*
X145765476Y-84671485D02*
X146384523Y-84671485D01*
X144429761Y-86354819D02*
X143858333Y-86354819D01*
X144144047Y-86354819D02*
X144144047Y-85354819D01*
X144144047Y-85354819D02*
X144048809Y-85497676D01*
X144048809Y-85497676D02*
X143953571Y-85592914D01*
X143953571Y-85592914D02*
X143858333Y-85640533D01*
X145286904Y-85688152D02*
X145286904Y-86354819D01*
X144858333Y-85688152D02*
X144858333Y-86211961D01*
X144858333Y-86211961D02*
X144905952Y-86307200D01*
X144905952Y-86307200D02*
X145001190Y-86354819D01*
X145001190Y-86354819D02*
X145144047Y-86354819D01*
X145144047Y-86354819D02*
X145239285Y-86307200D01*
X145239285Y-86307200D02*
X145286904Y-86259580D01*
X146096428Y-85831009D02*
X145763095Y-85831009D01*
X145763095Y-86354819D02*
X145763095Y-85354819D01*
X145763095Y-85354819D02*
X146239285Y-85354819D01*
X159166666Y-86831009D02*
X158833333Y-86831009D01*
X158833333Y-87354819D02*
X158833333Y-86354819D01*
X158833333Y-86354819D02*
X159309523Y-86354819D01*
X160023809Y-86831009D02*
X160166666Y-86878628D01*
X160166666Y-86878628D02*
X160214285Y-86926247D01*
X160214285Y-86926247D02*
X160261904Y-87021485D01*
X160261904Y-87021485D02*
X160261904Y-87164342D01*
X160261904Y-87164342D02*
X160214285Y-87259580D01*
X160214285Y-87259580D02*
X160166666Y-87307200D01*
X160166666Y-87307200D02*
X160071428Y-87354819D01*
X160071428Y-87354819D02*
X159690476Y-87354819D01*
X159690476Y-87354819D02*
X159690476Y-86354819D01*
X159690476Y-86354819D02*
X160023809Y-86354819D01*
X160023809Y-86354819D02*
X160119047Y-86402438D01*
X160119047Y-86402438D02*
X160166666Y-86450057D01*
X160166666Y-86450057D02*
X160214285Y-86545295D01*
X160214285Y-86545295D02*
X160214285Y-86640533D01*
X160214285Y-86640533D02*
X160166666Y-86735771D01*
X160166666Y-86735771D02*
X160119047Y-86783390D01*
X160119047Y-86783390D02*
X160023809Y-86831009D01*
X160023809Y-86831009D02*
X159690476Y-86831009D01*
X161214285Y-87354819D02*
X160642857Y-87354819D01*
X160928571Y-87354819D02*
X160928571Y-86354819D01*
X160928571Y-86354819D02*
X160833333Y-86497676D01*
X160833333Y-86497676D02*
X160738095Y-86592914D01*
X160738095Y-86592914D02*
X160642857Y-86640533D01*
X133583333Y-80754819D02*
X133250000Y-80278628D01*
X133011905Y-80754819D02*
X133011905Y-79754819D01*
X133011905Y-79754819D02*
X133392857Y-79754819D01*
X133392857Y-79754819D02*
X133488095Y-79802438D01*
X133488095Y-79802438D02*
X133535714Y-79850057D01*
X133535714Y-79850057D02*
X133583333Y-79945295D01*
X133583333Y-79945295D02*
X133583333Y-80088152D01*
X133583333Y-80088152D02*
X133535714Y-80183390D01*
X133535714Y-80183390D02*
X133488095Y-80231009D01*
X133488095Y-80231009D02*
X133392857Y-80278628D01*
X133392857Y-80278628D02*
X133011905Y-80278628D01*
X134440476Y-79754819D02*
X134250000Y-79754819D01*
X134250000Y-79754819D02*
X134154762Y-79802438D01*
X134154762Y-79802438D02*
X134107143Y-79850057D01*
X134107143Y-79850057D02*
X134011905Y-79992914D01*
X134011905Y-79992914D02*
X133964286Y-80183390D01*
X133964286Y-80183390D02*
X133964286Y-80564342D01*
X133964286Y-80564342D02*
X134011905Y-80659580D01*
X134011905Y-80659580D02*
X134059524Y-80707200D01*
X134059524Y-80707200D02*
X134154762Y-80754819D01*
X134154762Y-80754819D02*
X134345238Y-80754819D01*
X134345238Y-80754819D02*
X134440476Y-80707200D01*
X134440476Y-80707200D02*
X134488095Y-80659580D01*
X134488095Y-80659580D02*
X134535714Y-80564342D01*
X134535714Y-80564342D02*
X134535714Y-80326247D01*
X134535714Y-80326247D02*
X134488095Y-80231009D01*
X134488095Y-80231009D02*
X134440476Y-80183390D01*
X134440476Y-80183390D02*
X134345238Y-80135771D01*
X134345238Y-80135771D02*
X134154762Y-80135771D01*
X134154762Y-80135771D02*
X134059524Y-80183390D01*
X134059524Y-80183390D02*
X134011905Y-80231009D01*
X134011905Y-80231009D02*
X133964286Y-80326247D01*
X133011905Y-81250057D02*
X133059524Y-81202438D01*
X133059524Y-81202438D02*
X133154762Y-81154819D01*
X133154762Y-81154819D02*
X133392857Y-81154819D01*
X133392857Y-81154819D02*
X133488095Y-81202438D01*
X133488095Y-81202438D02*
X133535714Y-81250057D01*
X133535714Y-81250057D02*
X133583333Y-81345295D01*
X133583333Y-81345295D02*
X133583333Y-81440533D01*
X133583333Y-81440533D02*
X133535714Y-81583390D01*
X133535714Y-81583390D02*
X132964286Y-82154819D01*
X132964286Y-82154819D02*
X133583333Y-82154819D01*
X133964286Y-81250057D02*
X134011905Y-81202438D01*
X134011905Y-81202438D02*
X134107143Y-81154819D01*
X134107143Y-81154819D02*
X134345238Y-81154819D01*
X134345238Y-81154819D02*
X134440476Y-81202438D01*
X134440476Y-81202438D02*
X134488095Y-81250057D01*
X134488095Y-81250057D02*
X134535714Y-81345295D01*
X134535714Y-81345295D02*
X134535714Y-81440533D01*
X134535714Y-81440533D02*
X134488095Y-81583390D01*
X134488095Y-81583390D02*
X133916667Y-82154819D01*
X133916667Y-82154819D02*
X134535714Y-82154819D01*
X135154762Y-81154819D02*
X135250000Y-81154819D01*
X135250000Y-81154819D02*
X135345238Y-81202438D01*
X135345238Y-81202438D02*
X135392857Y-81250057D01*
X135392857Y-81250057D02*
X135440476Y-81345295D01*
X135440476Y-81345295D02*
X135488095Y-81535771D01*
X135488095Y-81535771D02*
X135488095Y-81773866D01*
X135488095Y-81773866D02*
X135440476Y-81964342D01*
X135440476Y-81964342D02*
X135392857Y-82059580D01*
X135392857Y-82059580D02*
X135345238Y-82107200D01*
X135345238Y-82107200D02*
X135250000Y-82154819D01*
X135250000Y-82154819D02*
X135154762Y-82154819D01*
X135154762Y-82154819D02*
X135059524Y-82107200D01*
X135059524Y-82107200D02*
X135011905Y-82059580D01*
X135011905Y-82059580D02*
X134964286Y-81964342D01*
X134964286Y-81964342D02*
X134916667Y-81773866D01*
X134916667Y-81773866D02*
X134916667Y-81535771D01*
X134916667Y-81535771D02*
X134964286Y-81345295D01*
X134964286Y-81345295D02*
X135011905Y-81250057D01*
X135011905Y-81250057D02*
X135059524Y-81202438D01*
X135059524Y-81202438D02*
X135154762Y-81154819D01*
X131857142Y-96554819D02*
X131523809Y-96078628D01*
X131285714Y-96554819D02*
X131285714Y-95554819D01*
X131285714Y-95554819D02*
X131666666Y-95554819D01*
X131666666Y-95554819D02*
X131761904Y-95602438D01*
X131761904Y-95602438D02*
X131809523Y-95650057D01*
X131809523Y-95650057D02*
X131857142Y-95745295D01*
X131857142Y-95745295D02*
X131857142Y-95888152D01*
X131857142Y-95888152D02*
X131809523Y-95983390D01*
X131809523Y-95983390D02*
X131761904Y-96031009D01*
X131761904Y-96031009D02*
X131666666Y-96078628D01*
X131666666Y-96078628D02*
X131285714Y-96078628D01*
X132809523Y-96554819D02*
X132238095Y-96554819D01*
X132523809Y-96554819D02*
X132523809Y-95554819D01*
X132523809Y-95554819D02*
X132428571Y-95697676D01*
X132428571Y-95697676D02*
X132333333Y-95792914D01*
X132333333Y-95792914D02*
X132238095Y-95840533D01*
X133666666Y-95888152D02*
X133666666Y-96554819D01*
X133428571Y-95507200D02*
X133190476Y-96221485D01*
X133190476Y-96221485D02*
X133809523Y-96221485D01*
X131904761Y-97854819D02*
X131333333Y-97854819D01*
X131619047Y-97854819D02*
X131619047Y-96854819D01*
X131619047Y-96854819D02*
X131523809Y-96997676D01*
X131523809Y-96997676D02*
X131428571Y-97092914D01*
X131428571Y-97092914D02*
X131333333Y-97140533D01*
X132523809Y-96854819D02*
X132619047Y-96854819D01*
X132619047Y-96854819D02*
X132714285Y-96902438D01*
X132714285Y-96902438D02*
X132761904Y-96950057D01*
X132761904Y-96950057D02*
X132809523Y-97045295D01*
X132809523Y-97045295D02*
X132857142Y-97235771D01*
X132857142Y-97235771D02*
X132857142Y-97473866D01*
X132857142Y-97473866D02*
X132809523Y-97664342D01*
X132809523Y-97664342D02*
X132761904Y-97759580D01*
X132761904Y-97759580D02*
X132714285Y-97807200D01*
X132714285Y-97807200D02*
X132619047Y-97854819D01*
X132619047Y-97854819D02*
X132523809Y-97854819D01*
X132523809Y-97854819D02*
X132428571Y-97807200D01*
X132428571Y-97807200D02*
X132380952Y-97759580D01*
X132380952Y-97759580D02*
X132333333Y-97664342D01*
X132333333Y-97664342D02*
X132285714Y-97473866D01*
X132285714Y-97473866D02*
X132285714Y-97235771D01*
X132285714Y-97235771D02*
X132333333Y-97045295D01*
X132333333Y-97045295D02*
X132380952Y-96950057D01*
X132380952Y-96950057D02*
X132428571Y-96902438D01*
X132428571Y-96902438D02*
X132523809Y-96854819D01*
X133285714Y-97854819D02*
X133285714Y-96854819D01*
X133380952Y-97473866D02*
X133666666Y-97854819D01*
X133666666Y-97188152D02*
X133285714Y-97569104D01*
X117607142Y-77854819D02*
X117273809Y-77378628D01*
X117035714Y-77854819D02*
X117035714Y-76854819D01*
X117035714Y-76854819D02*
X117416666Y-76854819D01*
X117416666Y-76854819D02*
X117511904Y-76902438D01*
X117511904Y-76902438D02*
X117559523Y-76950057D01*
X117559523Y-76950057D02*
X117607142Y-77045295D01*
X117607142Y-77045295D02*
X117607142Y-77188152D01*
X117607142Y-77188152D02*
X117559523Y-77283390D01*
X117559523Y-77283390D02*
X117511904Y-77331009D01*
X117511904Y-77331009D02*
X117416666Y-77378628D01*
X117416666Y-77378628D02*
X117035714Y-77378628D01*
X117988095Y-76950057D02*
X118035714Y-76902438D01*
X118035714Y-76902438D02*
X118130952Y-76854819D01*
X118130952Y-76854819D02*
X118369047Y-76854819D01*
X118369047Y-76854819D02*
X118464285Y-76902438D01*
X118464285Y-76902438D02*
X118511904Y-76950057D01*
X118511904Y-76950057D02*
X118559523Y-77045295D01*
X118559523Y-77045295D02*
X118559523Y-77140533D01*
X118559523Y-77140533D02*
X118511904Y-77283390D01*
X118511904Y-77283390D02*
X117940476Y-77854819D01*
X117940476Y-77854819D02*
X118559523Y-77854819D01*
X118892857Y-76854819D02*
X119511904Y-76854819D01*
X119511904Y-76854819D02*
X119178571Y-77235771D01*
X119178571Y-77235771D02*
X119321428Y-77235771D01*
X119321428Y-77235771D02*
X119416666Y-77283390D01*
X119416666Y-77283390D02*
X119464285Y-77331009D01*
X119464285Y-77331009D02*
X119511904Y-77426247D01*
X119511904Y-77426247D02*
X119511904Y-77664342D01*
X119511904Y-77664342D02*
X119464285Y-77759580D01*
X119464285Y-77759580D02*
X119416666Y-77807200D01*
X119416666Y-77807200D02*
X119321428Y-77854819D01*
X119321428Y-77854819D02*
X119035714Y-77854819D01*
X119035714Y-77854819D02*
X118940476Y-77807200D01*
X118940476Y-77807200D02*
X118892857Y-77759580D01*
X120859523Y-77854819D02*
X120288095Y-77854819D01*
X120573809Y-77854819D02*
X120573809Y-76854819D01*
X120573809Y-76854819D02*
X120478571Y-76997676D01*
X120478571Y-76997676D02*
X120383333Y-77092914D01*
X120383333Y-77092914D02*
X120288095Y-77140533D01*
X121478571Y-76854819D02*
X121573809Y-76854819D01*
X121573809Y-76854819D02*
X121669047Y-76902438D01*
X121669047Y-76902438D02*
X121716666Y-76950057D01*
X121716666Y-76950057D02*
X121764285Y-77045295D01*
X121764285Y-77045295D02*
X121811904Y-77235771D01*
X121811904Y-77235771D02*
X121811904Y-77473866D01*
X121811904Y-77473866D02*
X121764285Y-77664342D01*
X121764285Y-77664342D02*
X121716666Y-77759580D01*
X121716666Y-77759580D02*
X121669047Y-77807200D01*
X121669047Y-77807200D02*
X121573809Y-77854819D01*
X121573809Y-77854819D02*
X121478571Y-77854819D01*
X121478571Y-77854819D02*
X121383333Y-77807200D01*
X121383333Y-77807200D02*
X121335714Y-77759580D01*
X121335714Y-77759580D02*
X121288095Y-77664342D01*
X121288095Y-77664342D02*
X121240476Y-77473866D01*
X121240476Y-77473866D02*
X121240476Y-77235771D01*
X121240476Y-77235771D02*
X121288095Y-77045295D01*
X121288095Y-77045295D02*
X121335714Y-76950057D01*
X121335714Y-76950057D02*
X121383333Y-76902438D01*
X121383333Y-76902438D02*
X121478571Y-76854819D01*
X122301905Y-108041071D02*
X122301905Y-107041071D01*
X122301905Y-107041071D02*
X122540000Y-107041071D01*
X122540000Y-107041071D02*
X122682857Y-107088690D01*
X122682857Y-107088690D02*
X122778095Y-107183928D01*
X122778095Y-107183928D02*
X122825714Y-107279166D01*
X122825714Y-107279166D02*
X122873333Y-107469642D01*
X122873333Y-107469642D02*
X122873333Y-107612499D01*
X122873333Y-107612499D02*
X122825714Y-107802975D01*
X122825714Y-107802975D02*
X122778095Y-107898213D01*
X122778095Y-107898213D02*
X122682857Y-107993452D01*
X122682857Y-107993452D02*
X122540000Y-108041071D01*
X122540000Y-108041071D02*
X122301905Y-108041071D01*
X123825714Y-108041071D02*
X123254286Y-108041071D01*
X123540000Y-108041071D02*
X123540000Y-107041071D01*
X123540000Y-107041071D02*
X123444762Y-107183928D01*
X123444762Y-107183928D02*
X123349524Y-107279166D01*
X123349524Y-107279166D02*
X123254286Y-107326785D01*
X129938095Y-63504819D02*
X130509523Y-63504819D01*
X130223809Y-64504819D02*
X130223809Y-63504819D01*
X130747619Y-63504819D02*
X131366666Y-63504819D01*
X131366666Y-63504819D02*
X131033333Y-63885771D01*
X131033333Y-63885771D02*
X131176190Y-63885771D01*
X131176190Y-63885771D02*
X131271428Y-63933390D01*
X131271428Y-63933390D02*
X131319047Y-63981009D01*
X131319047Y-63981009D02*
X131366666Y-64076247D01*
X131366666Y-64076247D02*
X131366666Y-64314342D01*
X131366666Y-64314342D02*
X131319047Y-64409580D01*
X131319047Y-64409580D02*
X131271428Y-64457200D01*
X131271428Y-64457200D02*
X131176190Y-64504819D01*
X131176190Y-64504819D02*
X130890476Y-64504819D01*
X130890476Y-64504819D02*
X130795238Y-64457200D01*
X130795238Y-64457200D02*
X130747619Y-64409580D01*
X122366666Y-94731009D02*
X122033333Y-94731009D01*
X122033333Y-95254819D02*
X122033333Y-94254819D01*
X122033333Y-94254819D02*
X122509523Y-94254819D01*
X123223809Y-94731009D02*
X123366666Y-94778628D01*
X123366666Y-94778628D02*
X123414285Y-94826247D01*
X123414285Y-94826247D02*
X123461904Y-94921485D01*
X123461904Y-94921485D02*
X123461904Y-95064342D01*
X123461904Y-95064342D02*
X123414285Y-95159580D01*
X123414285Y-95159580D02*
X123366666Y-95207200D01*
X123366666Y-95207200D02*
X123271428Y-95254819D01*
X123271428Y-95254819D02*
X122890476Y-95254819D01*
X122890476Y-95254819D02*
X122890476Y-94254819D01*
X122890476Y-94254819D02*
X123223809Y-94254819D01*
X123223809Y-94254819D02*
X123319047Y-94302438D01*
X123319047Y-94302438D02*
X123366666Y-94350057D01*
X123366666Y-94350057D02*
X123414285Y-94445295D01*
X123414285Y-94445295D02*
X123414285Y-94540533D01*
X123414285Y-94540533D02*
X123366666Y-94635771D01*
X123366666Y-94635771D02*
X123319047Y-94683390D01*
X123319047Y-94683390D02*
X123223809Y-94731009D01*
X123223809Y-94731009D02*
X122890476Y-94731009D01*
X123842857Y-94350057D02*
X123890476Y-94302438D01*
X123890476Y-94302438D02*
X123985714Y-94254819D01*
X123985714Y-94254819D02*
X124223809Y-94254819D01*
X124223809Y-94254819D02*
X124319047Y-94302438D01*
X124319047Y-94302438D02*
X124366666Y-94350057D01*
X124366666Y-94350057D02*
X124414285Y-94445295D01*
X124414285Y-94445295D02*
X124414285Y-94540533D01*
X124414285Y-94540533D02*
X124366666Y-94683390D01*
X124366666Y-94683390D02*
X123795238Y-95254819D01*
X123795238Y-95254819D02*
X124414285Y-95254819D01*
X138357142Y-64154819D02*
X138023809Y-63678628D01*
X137785714Y-64154819D02*
X137785714Y-63154819D01*
X137785714Y-63154819D02*
X138166666Y-63154819D01*
X138166666Y-63154819D02*
X138261904Y-63202438D01*
X138261904Y-63202438D02*
X138309523Y-63250057D01*
X138309523Y-63250057D02*
X138357142Y-63345295D01*
X138357142Y-63345295D02*
X138357142Y-63488152D01*
X138357142Y-63488152D02*
X138309523Y-63583390D01*
X138309523Y-63583390D02*
X138261904Y-63631009D01*
X138261904Y-63631009D02*
X138166666Y-63678628D01*
X138166666Y-63678628D02*
X137785714Y-63678628D01*
X138738095Y-63250057D02*
X138785714Y-63202438D01*
X138785714Y-63202438D02*
X138880952Y-63154819D01*
X138880952Y-63154819D02*
X139119047Y-63154819D01*
X139119047Y-63154819D02*
X139214285Y-63202438D01*
X139214285Y-63202438D02*
X139261904Y-63250057D01*
X139261904Y-63250057D02*
X139309523Y-63345295D01*
X139309523Y-63345295D02*
X139309523Y-63440533D01*
X139309523Y-63440533D02*
X139261904Y-63583390D01*
X139261904Y-63583390D02*
X138690476Y-64154819D01*
X138690476Y-64154819D02*
X139309523Y-64154819D01*
X140214285Y-63154819D02*
X139738095Y-63154819D01*
X139738095Y-63154819D02*
X139690476Y-63631009D01*
X139690476Y-63631009D02*
X139738095Y-63583390D01*
X139738095Y-63583390D02*
X139833333Y-63535771D01*
X139833333Y-63535771D02*
X140071428Y-63535771D01*
X140071428Y-63535771D02*
X140166666Y-63583390D01*
X140166666Y-63583390D02*
X140214285Y-63631009D01*
X140214285Y-63631009D02*
X140261904Y-63726247D01*
X140261904Y-63726247D02*
X140261904Y-63964342D01*
X140261904Y-63964342D02*
X140214285Y-64059580D01*
X140214285Y-64059580D02*
X140166666Y-64107200D01*
X140166666Y-64107200D02*
X140071428Y-64154819D01*
X140071428Y-64154819D02*
X139833333Y-64154819D01*
X139833333Y-64154819D02*
X139738095Y-64107200D01*
X139738095Y-64107200D02*
X139690476Y-64059580D01*
X141709523Y-64154819D02*
X141138095Y-64154819D01*
X141423809Y-64154819D02*
X141423809Y-63154819D01*
X141423809Y-63154819D02*
X141328571Y-63297676D01*
X141328571Y-63297676D02*
X141233333Y-63392914D01*
X141233333Y-63392914D02*
X141138095Y-63440533D01*
X142328571Y-63154819D02*
X142423809Y-63154819D01*
X142423809Y-63154819D02*
X142519047Y-63202438D01*
X142519047Y-63202438D02*
X142566666Y-63250057D01*
X142566666Y-63250057D02*
X142614285Y-63345295D01*
X142614285Y-63345295D02*
X142661904Y-63535771D01*
X142661904Y-63535771D02*
X142661904Y-63773866D01*
X142661904Y-63773866D02*
X142614285Y-63964342D01*
X142614285Y-63964342D02*
X142566666Y-64059580D01*
X142566666Y-64059580D02*
X142519047Y-64107200D01*
X142519047Y-64107200D02*
X142423809Y-64154819D01*
X142423809Y-64154819D02*
X142328571Y-64154819D01*
X142328571Y-64154819D02*
X142233333Y-64107200D01*
X142233333Y-64107200D02*
X142185714Y-64059580D01*
X142185714Y-64059580D02*
X142138095Y-63964342D01*
X142138095Y-63964342D02*
X142090476Y-63773866D01*
X142090476Y-63773866D02*
X142090476Y-63535771D01*
X142090476Y-63535771D02*
X142138095Y-63345295D01*
X142138095Y-63345295D02*
X142185714Y-63250057D01*
X142185714Y-63250057D02*
X142233333Y-63202438D01*
X142233333Y-63202438D02*
X142328571Y-63154819D01*
X116857142Y-74154819D02*
X116523809Y-73678628D01*
X116285714Y-74154819D02*
X116285714Y-73154819D01*
X116285714Y-73154819D02*
X116666666Y-73154819D01*
X116666666Y-73154819D02*
X116761904Y-73202438D01*
X116761904Y-73202438D02*
X116809523Y-73250057D01*
X116809523Y-73250057D02*
X116857142Y-73345295D01*
X116857142Y-73345295D02*
X116857142Y-73488152D01*
X116857142Y-73488152D02*
X116809523Y-73583390D01*
X116809523Y-73583390D02*
X116761904Y-73631009D01*
X116761904Y-73631009D02*
X116666666Y-73678628D01*
X116666666Y-73678628D02*
X116285714Y-73678628D01*
X117238095Y-73250057D02*
X117285714Y-73202438D01*
X117285714Y-73202438D02*
X117380952Y-73154819D01*
X117380952Y-73154819D02*
X117619047Y-73154819D01*
X117619047Y-73154819D02*
X117714285Y-73202438D01*
X117714285Y-73202438D02*
X117761904Y-73250057D01*
X117761904Y-73250057D02*
X117809523Y-73345295D01*
X117809523Y-73345295D02*
X117809523Y-73440533D01*
X117809523Y-73440533D02*
X117761904Y-73583390D01*
X117761904Y-73583390D02*
X117190476Y-74154819D01*
X117190476Y-74154819D02*
X117809523Y-74154819D01*
X118761904Y-74154819D02*
X118190476Y-74154819D01*
X118476190Y-74154819D02*
X118476190Y-73154819D01*
X118476190Y-73154819D02*
X118380952Y-73297676D01*
X118380952Y-73297676D02*
X118285714Y-73392914D01*
X118285714Y-73392914D02*
X118190476Y-73440533D01*
X117107142Y-95804819D02*
X116773809Y-95328628D01*
X116535714Y-95804819D02*
X116535714Y-94804819D01*
X116535714Y-94804819D02*
X116916666Y-94804819D01*
X116916666Y-94804819D02*
X117011904Y-94852438D01*
X117011904Y-94852438D02*
X117059523Y-94900057D01*
X117059523Y-94900057D02*
X117107142Y-94995295D01*
X117107142Y-94995295D02*
X117107142Y-95138152D01*
X117107142Y-95138152D02*
X117059523Y-95233390D01*
X117059523Y-95233390D02*
X117011904Y-95281009D01*
X117011904Y-95281009D02*
X116916666Y-95328628D01*
X116916666Y-95328628D02*
X116535714Y-95328628D01*
X118059523Y-95804819D02*
X117488095Y-95804819D01*
X117773809Y-95804819D02*
X117773809Y-94804819D01*
X117773809Y-94804819D02*
X117678571Y-94947676D01*
X117678571Y-94947676D02*
X117583333Y-95042914D01*
X117583333Y-95042914D02*
X117488095Y-95090533D01*
X118440476Y-94900057D02*
X118488095Y-94852438D01*
X118488095Y-94852438D02*
X118583333Y-94804819D01*
X118583333Y-94804819D02*
X118821428Y-94804819D01*
X118821428Y-94804819D02*
X118916666Y-94852438D01*
X118916666Y-94852438D02*
X118964285Y-94900057D01*
X118964285Y-94900057D02*
X119011904Y-94995295D01*
X119011904Y-94995295D02*
X119011904Y-95090533D01*
X119011904Y-95090533D02*
X118964285Y-95233390D01*
X118964285Y-95233390D02*
X118392857Y-95804819D01*
X118392857Y-95804819D02*
X119011904Y-95804819D01*
X116485714Y-96350057D02*
X116533333Y-96302438D01*
X116533333Y-96302438D02*
X116628571Y-96254819D01*
X116628571Y-96254819D02*
X116866666Y-96254819D01*
X116866666Y-96254819D02*
X116961904Y-96302438D01*
X116961904Y-96302438D02*
X117009523Y-96350057D01*
X117009523Y-96350057D02*
X117057142Y-96445295D01*
X117057142Y-96445295D02*
X117057142Y-96540533D01*
X117057142Y-96540533D02*
X117009523Y-96683390D01*
X117009523Y-96683390D02*
X116438095Y-97254819D01*
X116438095Y-97254819D02*
X117057142Y-97254819D01*
X117390476Y-96254819D02*
X118057142Y-96254819D01*
X118057142Y-96254819D02*
X117628571Y-97254819D01*
X118628571Y-96254819D02*
X118723809Y-96254819D01*
X118723809Y-96254819D02*
X118819047Y-96302438D01*
X118819047Y-96302438D02*
X118866666Y-96350057D01*
X118866666Y-96350057D02*
X118914285Y-96445295D01*
X118914285Y-96445295D02*
X118961904Y-96635771D01*
X118961904Y-96635771D02*
X118961904Y-96873866D01*
X118961904Y-96873866D02*
X118914285Y-97064342D01*
X118914285Y-97064342D02*
X118866666Y-97159580D01*
X118866666Y-97159580D02*
X118819047Y-97207200D01*
X118819047Y-97207200D02*
X118723809Y-97254819D01*
X118723809Y-97254819D02*
X118628571Y-97254819D01*
X118628571Y-97254819D02*
X118533333Y-97207200D01*
X118533333Y-97207200D02*
X118485714Y-97159580D01*
X118485714Y-97159580D02*
X118438095Y-97064342D01*
X118438095Y-97064342D02*
X118390476Y-96873866D01*
X118390476Y-96873866D02*
X118390476Y-96635771D01*
X118390476Y-96635771D02*
X118438095Y-96445295D01*
X118438095Y-96445295D02*
X118485714Y-96350057D01*
X118485714Y-96350057D02*
X118533333Y-96302438D01*
X118533333Y-96302438D02*
X118628571Y-96254819D01*
X119580952Y-96254819D02*
X119676190Y-96254819D01*
X119676190Y-96254819D02*
X119771428Y-96302438D01*
X119771428Y-96302438D02*
X119819047Y-96350057D01*
X119819047Y-96350057D02*
X119866666Y-96445295D01*
X119866666Y-96445295D02*
X119914285Y-96635771D01*
X119914285Y-96635771D02*
X119914285Y-96873866D01*
X119914285Y-96873866D02*
X119866666Y-97064342D01*
X119866666Y-97064342D02*
X119819047Y-97159580D01*
X119819047Y-97159580D02*
X119771428Y-97207200D01*
X119771428Y-97207200D02*
X119676190Y-97254819D01*
X119676190Y-97254819D02*
X119580952Y-97254819D01*
X119580952Y-97254819D02*
X119485714Y-97207200D01*
X119485714Y-97207200D02*
X119438095Y-97159580D01*
X119438095Y-97159580D02*
X119390476Y-97064342D01*
X119390476Y-97064342D02*
X119342857Y-96873866D01*
X119342857Y-96873866D02*
X119342857Y-96635771D01*
X119342857Y-96635771D02*
X119390476Y-96445295D01*
X119390476Y-96445295D02*
X119438095Y-96350057D01*
X119438095Y-96350057D02*
X119485714Y-96302438D01*
X119485714Y-96302438D02*
X119580952Y-96254819D01*
X137857142Y-69154819D02*
X137523809Y-68678628D01*
X137285714Y-69154819D02*
X137285714Y-68154819D01*
X137285714Y-68154819D02*
X137666666Y-68154819D01*
X137666666Y-68154819D02*
X137761904Y-68202438D01*
X137761904Y-68202438D02*
X137809523Y-68250057D01*
X137809523Y-68250057D02*
X137857142Y-68345295D01*
X137857142Y-68345295D02*
X137857142Y-68488152D01*
X137857142Y-68488152D02*
X137809523Y-68583390D01*
X137809523Y-68583390D02*
X137761904Y-68631009D01*
X137761904Y-68631009D02*
X137666666Y-68678628D01*
X137666666Y-68678628D02*
X137285714Y-68678628D01*
X138238095Y-68250057D02*
X138285714Y-68202438D01*
X138285714Y-68202438D02*
X138380952Y-68154819D01*
X138380952Y-68154819D02*
X138619047Y-68154819D01*
X138619047Y-68154819D02*
X138714285Y-68202438D01*
X138714285Y-68202438D02*
X138761904Y-68250057D01*
X138761904Y-68250057D02*
X138809523Y-68345295D01*
X138809523Y-68345295D02*
X138809523Y-68440533D01*
X138809523Y-68440533D02*
X138761904Y-68583390D01*
X138761904Y-68583390D02*
X138190476Y-69154819D01*
X138190476Y-69154819D02*
X138809523Y-69154819D01*
X139666666Y-68154819D02*
X139476190Y-68154819D01*
X139476190Y-68154819D02*
X139380952Y-68202438D01*
X139380952Y-68202438D02*
X139333333Y-68250057D01*
X139333333Y-68250057D02*
X139238095Y-68392914D01*
X139238095Y-68392914D02*
X139190476Y-68583390D01*
X139190476Y-68583390D02*
X139190476Y-68964342D01*
X139190476Y-68964342D02*
X139238095Y-69059580D01*
X139238095Y-69059580D02*
X139285714Y-69107200D01*
X139285714Y-69107200D02*
X139380952Y-69154819D01*
X139380952Y-69154819D02*
X139571428Y-69154819D01*
X139571428Y-69154819D02*
X139666666Y-69107200D01*
X139666666Y-69107200D02*
X139714285Y-69059580D01*
X139714285Y-69059580D02*
X139761904Y-68964342D01*
X139761904Y-68964342D02*
X139761904Y-68726247D01*
X139761904Y-68726247D02*
X139714285Y-68631009D01*
X139714285Y-68631009D02*
X139666666Y-68583390D01*
X139666666Y-68583390D02*
X139571428Y-68535771D01*
X139571428Y-68535771D02*
X139380952Y-68535771D01*
X139380952Y-68535771D02*
X139285714Y-68583390D01*
X139285714Y-68583390D02*
X139238095Y-68631009D01*
X139238095Y-68631009D02*
X139190476Y-68726247D01*
X141009523Y-76154819D02*
X140438095Y-76154819D01*
X140723809Y-76154819D02*
X140723809Y-75154819D01*
X140723809Y-75154819D02*
X140628571Y-75297676D01*
X140628571Y-75297676D02*
X140533333Y-75392914D01*
X140533333Y-75392914D02*
X140438095Y-75440533D01*
X141628571Y-75154819D02*
X141723809Y-75154819D01*
X141723809Y-75154819D02*
X141819047Y-75202438D01*
X141819047Y-75202438D02*
X141866666Y-75250057D01*
X141866666Y-75250057D02*
X141914285Y-75345295D01*
X141914285Y-75345295D02*
X141961904Y-75535771D01*
X141961904Y-75535771D02*
X141961904Y-75773866D01*
X141961904Y-75773866D02*
X141914285Y-75964342D01*
X141914285Y-75964342D02*
X141866666Y-76059580D01*
X141866666Y-76059580D02*
X141819047Y-76107200D01*
X141819047Y-76107200D02*
X141723809Y-76154819D01*
X141723809Y-76154819D02*
X141628571Y-76154819D01*
X141628571Y-76154819D02*
X141533333Y-76107200D01*
X141533333Y-76107200D02*
X141485714Y-76059580D01*
X141485714Y-76059580D02*
X141438095Y-75964342D01*
X141438095Y-75964342D02*
X141390476Y-75773866D01*
X141390476Y-75773866D02*
X141390476Y-75535771D01*
X141390476Y-75535771D02*
X141438095Y-75345295D01*
X141438095Y-75345295D02*
X141485714Y-75250057D01*
X141485714Y-75250057D02*
X141533333Y-75202438D01*
X141533333Y-75202438D02*
X141628571Y-75154819D01*
X137857142Y-76154819D02*
X137523809Y-75678628D01*
X137285714Y-76154819D02*
X137285714Y-75154819D01*
X137285714Y-75154819D02*
X137666666Y-75154819D01*
X137666666Y-75154819D02*
X137761904Y-75202438D01*
X137761904Y-75202438D02*
X137809523Y-75250057D01*
X137809523Y-75250057D02*
X137857142Y-75345295D01*
X137857142Y-75345295D02*
X137857142Y-75488152D01*
X137857142Y-75488152D02*
X137809523Y-75583390D01*
X137809523Y-75583390D02*
X137761904Y-75631009D01*
X137761904Y-75631009D02*
X137666666Y-75678628D01*
X137666666Y-75678628D02*
X137285714Y-75678628D01*
X138238095Y-75250057D02*
X138285714Y-75202438D01*
X138285714Y-75202438D02*
X138380952Y-75154819D01*
X138380952Y-75154819D02*
X138619047Y-75154819D01*
X138619047Y-75154819D02*
X138714285Y-75202438D01*
X138714285Y-75202438D02*
X138761904Y-75250057D01*
X138761904Y-75250057D02*
X138809523Y-75345295D01*
X138809523Y-75345295D02*
X138809523Y-75440533D01*
X138809523Y-75440533D02*
X138761904Y-75583390D01*
X138761904Y-75583390D02*
X138190476Y-76154819D01*
X138190476Y-76154819D02*
X138809523Y-76154819D01*
X139666666Y-75154819D02*
X139476190Y-75154819D01*
X139476190Y-75154819D02*
X139380952Y-75202438D01*
X139380952Y-75202438D02*
X139333333Y-75250057D01*
X139333333Y-75250057D02*
X139238095Y-75392914D01*
X139238095Y-75392914D02*
X139190476Y-75583390D01*
X139190476Y-75583390D02*
X139190476Y-75964342D01*
X139190476Y-75964342D02*
X139238095Y-76059580D01*
X139238095Y-76059580D02*
X139285714Y-76107200D01*
X139285714Y-76107200D02*
X139380952Y-76154819D01*
X139380952Y-76154819D02*
X139571428Y-76154819D01*
X139571428Y-76154819D02*
X139666666Y-76107200D01*
X139666666Y-76107200D02*
X139714285Y-76059580D01*
X139714285Y-76059580D02*
X139761904Y-75964342D01*
X139761904Y-75964342D02*
X139761904Y-75726247D01*
X139761904Y-75726247D02*
X139714285Y-75631009D01*
X139714285Y-75631009D02*
X139666666Y-75583390D01*
X139666666Y-75583390D02*
X139571428Y-75535771D01*
X139571428Y-75535771D02*
X139380952Y-75535771D01*
X139380952Y-75535771D02*
X139285714Y-75583390D01*
X139285714Y-75583390D02*
X139238095Y-75631009D01*
X139238095Y-75631009D02*
X139190476Y-75726247D01*
X123582142Y-80709580D02*
X123534523Y-80757200D01*
X123534523Y-80757200D02*
X123391666Y-80804819D01*
X123391666Y-80804819D02*
X123296428Y-80804819D01*
X123296428Y-80804819D02*
X123153571Y-80757200D01*
X123153571Y-80757200D02*
X123058333Y-80661961D01*
X123058333Y-80661961D02*
X123010714Y-80566723D01*
X123010714Y-80566723D02*
X122963095Y-80376247D01*
X122963095Y-80376247D02*
X122963095Y-80233390D01*
X122963095Y-80233390D02*
X123010714Y-80042914D01*
X123010714Y-80042914D02*
X123058333Y-79947676D01*
X123058333Y-79947676D02*
X123153571Y-79852438D01*
X123153571Y-79852438D02*
X123296428Y-79804819D01*
X123296428Y-79804819D02*
X123391666Y-79804819D01*
X123391666Y-79804819D02*
X123534523Y-79852438D01*
X123534523Y-79852438D02*
X123582142Y-79900057D01*
X124534523Y-80804819D02*
X123963095Y-80804819D01*
X124248809Y-80804819D02*
X124248809Y-79804819D01*
X124248809Y-79804819D02*
X124153571Y-79947676D01*
X124153571Y-79947676D02*
X124058333Y-80042914D01*
X124058333Y-80042914D02*
X123963095Y-80090533D01*
X125439285Y-79804819D02*
X124963095Y-79804819D01*
X124963095Y-79804819D02*
X124915476Y-80281009D01*
X124915476Y-80281009D02*
X124963095Y-80233390D01*
X124963095Y-80233390D02*
X125058333Y-80185771D01*
X125058333Y-80185771D02*
X125296428Y-80185771D01*
X125296428Y-80185771D02*
X125391666Y-80233390D01*
X125391666Y-80233390D02*
X125439285Y-80281009D01*
X125439285Y-80281009D02*
X125486904Y-80376247D01*
X125486904Y-80376247D02*
X125486904Y-80614342D01*
X125486904Y-80614342D02*
X125439285Y-80709580D01*
X125439285Y-80709580D02*
X125391666Y-80757200D01*
X125391666Y-80757200D02*
X125296428Y-80804819D01*
X125296428Y-80804819D02*
X125058333Y-80804819D01*
X125058333Y-80804819D02*
X124963095Y-80757200D01*
X124963095Y-80757200D02*
X124915476Y-80709580D01*
X122582143Y-81204819D02*
X122677381Y-81204819D01*
X122677381Y-81204819D02*
X122772619Y-81252438D01*
X122772619Y-81252438D02*
X122820238Y-81300057D01*
X122820238Y-81300057D02*
X122867857Y-81395295D01*
X122867857Y-81395295D02*
X122915476Y-81585771D01*
X122915476Y-81585771D02*
X122915476Y-81823866D01*
X122915476Y-81823866D02*
X122867857Y-82014342D01*
X122867857Y-82014342D02*
X122820238Y-82109580D01*
X122820238Y-82109580D02*
X122772619Y-82157200D01*
X122772619Y-82157200D02*
X122677381Y-82204819D01*
X122677381Y-82204819D02*
X122582143Y-82204819D01*
X122582143Y-82204819D02*
X122486905Y-82157200D01*
X122486905Y-82157200D02*
X122439286Y-82109580D01*
X122439286Y-82109580D02*
X122391667Y-82014342D01*
X122391667Y-82014342D02*
X122344048Y-81823866D01*
X122344048Y-81823866D02*
X122344048Y-81585771D01*
X122344048Y-81585771D02*
X122391667Y-81395295D01*
X122391667Y-81395295D02*
X122439286Y-81300057D01*
X122439286Y-81300057D02*
X122486905Y-81252438D01*
X122486905Y-81252438D02*
X122582143Y-81204819D01*
X123344048Y-82109580D02*
X123391667Y-82157200D01*
X123391667Y-82157200D02*
X123344048Y-82204819D01*
X123344048Y-82204819D02*
X123296429Y-82157200D01*
X123296429Y-82157200D02*
X123344048Y-82109580D01*
X123344048Y-82109580D02*
X123344048Y-82204819D01*
X124344047Y-82204819D02*
X123772619Y-82204819D01*
X124058333Y-82204819D02*
X124058333Y-81204819D01*
X124058333Y-81204819D02*
X123963095Y-81347676D01*
X123963095Y-81347676D02*
X123867857Y-81442914D01*
X123867857Y-81442914D02*
X123772619Y-81490533D01*
X125201190Y-81538152D02*
X125201190Y-82204819D01*
X124772619Y-81538152D02*
X124772619Y-82061961D01*
X124772619Y-82061961D02*
X124820238Y-82157200D01*
X124820238Y-82157200D02*
X124915476Y-82204819D01*
X124915476Y-82204819D02*
X125058333Y-82204819D01*
X125058333Y-82204819D02*
X125153571Y-82157200D01*
X125153571Y-82157200D02*
X125201190Y-82109580D01*
X126010714Y-81681009D02*
X125677381Y-81681009D01*
X125677381Y-82204819D02*
X125677381Y-81204819D01*
X125677381Y-81204819D02*
X126153571Y-81204819D01*
X144266666Y-88331009D02*
X143933333Y-88331009D01*
X143933333Y-88854819D02*
X143933333Y-87854819D01*
X143933333Y-87854819D02*
X144409523Y-87854819D01*
X145123809Y-88331009D02*
X145266666Y-88378628D01*
X145266666Y-88378628D02*
X145314285Y-88426247D01*
X145314285Y-88426247D02*
X145361904Y-88521485D01*
X145361904Y-88521485D02*
X145361904Y-88664342D01*
X145361904Y-88664342D02*
X145314285Y-88759580D01*
X145314285Y-88759580D02*
X145266666Y-88807200D01*
X145266666Y-88807200D02*
X145171428Y-88854819D01*
X145171428Y-88854819D02*
X144790476Y-88854819D01*
X144790476Y-88854819D02*
X144790476Y-87854819D01*
X144790476Y-87854819D02*
X145123809Y-87854819D01*
X145123809Y-87854819D02*
X145219047Y-87902438D01*
X145219047Y-87902438D02*
X145266666Y-87950057D01*
X145266666Y-87950057D02*
X145314285Y-88045295D01*
X145314285Y-88045295D02*
X145314285Y-88140533D01*
X145314285Y-88140533D02*
X145266666Y-88235771D01*
X145266666Y-88235771D02*
X145219047Y-88283390D01*
X145219047Y-88283390D02*
X145123809Y-88331009D01*
X145123809Y-88331009D02*
X144790476Y-88331009D01*
X145695238Y-87854819D02*
X146314285Y-87854819D01*
X146314285Y-87854819D02*
X145980952Y-88235771D01*
X145980952Y-88235771D02*
X146123809Y-88235771D01*
X146123809Y-88235771D02*
X146219047Y-88283390D01*
X146219047Y-88283390D02*
X146266666Y-88331009D01*
X146266666Y-88331009D02*
X146314285Y-88426247D01*
X146314285Y-88426247D02*
X146314285Y-88664342D01*
X146314285Y-88664342D02*
X146266666Y-88759580D01*
X146266666Y-88759580D02*
X146219047Y-88807200D01*
X146219047Y-88807200D02*
X146123809Y-88854819D01*
X146123809Y-88854819D02*
X145838095Y-88854819D01*
X145838095Y-88854819D02*
X145742857Y-88807200D01*
X145742857Y-88807200D02*
X145695238Y-88759580D01*
X124904761Y-66450057D02*
X124809523Y-66402438D01*
X124809523Y-66402438D02*
X124714285Y-66307200D01*
X124714285Y-66307200D02*
X124571428Y-66164342D01*
X124571428Y-66164342D02*
X124476190Y-66116723D01*
X124476190Y-66116723D02*
X124380952Y-66116723D01*
X124428571Y-66354819D02*
X124333333Y-66307200D01*
X124333333Y-66307200D02*
X124238095Y-66211961D01*
X124238095Y-66211961D02*
X124190476Y-66021485D01*
X124190476Y-66021485D02*
X124190476Y-65688152D01*
X124190476Y-65688152D02*
X124238095Y-65497676D01*
X124238095Y-65497676D02*
X124333333Y-65402438D01*
X124333333Y-65402438D02*
X124428571Y-65354819D01*
X124428571Y-65354819D02*
X124619047Y-65354819D01*
X124619047Y-65354819D02*
X124714285Y-65402438D01*
X124714285Y-65402438D02*
X124809523Y-65497676D01*
X124809523Y-65497676D02*
X124857142Y-65688152D01*
X124857142Y-65688152D02*
X124857142Y-66021485D01*
X124857142Y-66021485D02*
X124809523Y-66211961D01*
X124809523Y-66211961D02*
X124714285Y-66307200D01*
X124714285Y-66307200D02*
X124619047Y-66354819D01*
X124619047Y-66354819D02*
X124428571Y-66354819D01*
X125190476Y-65354819D02*
X125857142Y-65354819D01*
X125857142Y-65354819D02*
X125428571Y-66354819D01*
X112157142Y-65259580D02*
X112109523Y-65307200D01*
X112109523Y-65307200D02*
X111966666Y-65354819D01*
X111966666Y-65354819D02*
X111871428Y-65354819D01*
X111871428Y-65354819D02*
X111728571Y-65307200D01*
X111728571Y-65307200D02*
X111633333Y-65211961D01*
X111633333Y-65211961D02*
X111585714Y-65116723D01*
X111585714Y-65116723D02*
X111538095Y-64926247D01*
X111538095Y-64926247D02*
X111538095Y-64783390D01*
X111538095Y-64783390D02*
X111585714Y-64592914D01*
X111585714Y-64592914D02*
X111633333Y-64497676D01*
X111633333Y-64497676D02*
X111728571Y-64402438D01*
X111728571Y-64402438D02*
X111871428Y-64354819D01*
X111871428Y-64354819D02*
X111966666Y-64354819D01*
X111966666Y-64354819D02*
X112109523Y-64402438D01*
X112109523Y-64402438D02*
X112157142Y-64450057D01*
X113109523Y-65354819D02*
X112538095Y-65354819D01*
X112823809Y-65354819D02*
X112823809Y-64354819D01*
X112823809Y-64354819D02*
X112728571Y-64497676D01*
X112728571Y-64497676D02*
X112633333Y-64592914D01*
X112633333Y-64592914D02*
X112538095Y-64640533D01*
X113585714Y-65354819D02*
X113776190Y-65354819D01*
X113776190Y-65354819D02*
X113871428Y-65307200D01*
X113871428Y-65307200D02*
X113919047Y-65259580D01*
X113919047Y-65259580D02*
X114014285Y-65116723D01*
X114014285Y-65116723D02*
X114061904Y-64926247D01*
X114061904Y-64926247D02*
X114061904Y-64545295D01*
X114061904Y-64545295D02*
X114014285Y-64450057D01*
X114014285Y-64450057D02*
X113966666Y-64402438D01*
X113966666Y-64402438D02*
X113871428Y-64354819D01*
X113871428Y-64354819D02*
X113680952Y-64354819D01*
X113680952Y-64354819D02*
X113585714Y-64402438D01*
X113585714Y-64402438D02*
X113538095Y-64450057D01*
X113538095Y-64450057D02*
X113490476Y-64545295D01*
X113490476Y-64545295D02*
X113490476Y-64783390D01*
X113490476Y-64783390D02*
X113538095Y-64878628D01*
X113538095Y-64878628D02*
X113585714Y-64926247D01*
X113585714Y-64926247D02*
X113680952Y-64973866D01*
X113680952Y-64973866D02*
X113871428Y-64973866D01*
X113871428Y-64973866D02*
X113966666Y-64926247D01*
X113966666Y-64926247D02*
X114014285Y-64878628D01*
X114014285Y-64878628D02*
X114061904Y-64783390D01*
X114533333Y-61604819D02*
X114200000Y-61128628D01*
X113961905Y-61604819D02*
X113961905Y-60604819D01*
X113961905Y-60604819D02*
X114342857Y-60604819D01*
X114342857Y-60604819D02*
X114438095Y-60652438D01*
X114438095Y-60652438D02*
X114485714Y-60700057D01*
X114485714Y-60700057D02*
X114533333Y-60795295D01*
X114533333Y-60795295D02*
X114533333Y-60938152D01*
X114533333Y-60938152D02*
X114485714Y-61033390D01*
X114485714Y-61033390D02*
X114438095Y-61081009D01*
X114438095Y-61081009D02*
X114342857Y-61128628D01*
X114342857Y-61128628D02*
X113961905Y-61128628D01*
X115390476Y-60938152D02*
X115390476Y-61604819D01*
X115152381Y-60557200D02*
X114914286Y-61271485D01*
X114914286Y-61271485D02*
X115533333Y-61271485D01*
X116564286Y-60604819D02*
X117183333Y-60604819D01*
X117183333Y-60604819D02*
X116850000Y-60985771D01*
X116850000Y-60985771D02*
X116992857Y-60985771D01*
X116992857Y-60985771D02*
X117088095Y-61033390D01*
X117088095Y-61033390D02*
X117135714Y-61081009D01*
X117135714Y-61081009D02*
X117183333Y-61176247D01*
X117183333Y-61176247D02*
X117183333Y-61414342D01*
X117183333Y-61414342D02*
X117135714Y-61509580D01*
X117135714Y-61509580D02*
X117088095Y-61557200D01*
X117088095Y-61557200D02*
X116992857Y-61604819D01*
X116992857Y-61604819D02*
X116707143Y-61604819D01*
X116707143Y-61604819D02*
X116611905Y-61557200D01*
X116611905Y-61557200D02*
X116564286Y-61509580D01*
X117516667Y-60604819D02*
X118135714Y-60604819D01*
X118135714Y-60604819D02*
X117802381Y-60985771D01*
X117802381Y-60985771D02*
X117945238Y-60985771D01*
X117945238Y-60985771D02*
X118040476Y-61033390D01*
X118040476Y-61033390D02*
X118088095Y-61081009D01*
X118088095Y-61081009D02*
X118135714Y-61176247D01*
X118135714Y-61176247D02*
X118135714Y-61414342D01*
X118135714Y-61414342D02*
X118088095Y-61509580D01*
X118088095Y-61509580D02*
X118040476Y-61557200D01*
X118040476Y-61557200D02*
X117945238Y-61604819D01*
X117945238Y-61604819D02*
X117659524Y-61604819D01*
X117659524Y-61604819D02*
X117564286Y-61557200D01*
X117564286Y-61557200D02*
X117516667Y-61509580D01*
X118754762Y-60604819D02*
X118850000Y-60604819D01*
X118850000Y-60604819D02*
X118945238Y-60652438D01*
X118945238Y-60652438D02*
X118992857Y-60700057D01*
X118992857Y-60700057D02*
X119040476Y-60795295D01*
X119040476Y-60795295D02*
X119088095Y-60985771D01*
X119088095Y-60985771D02*
X119088095Y-61223866D01*
X119088095Y-61223866D02*
X119040476Y-61414342D01*
X119040476Y-61414342D02*
X118992857Y-61509580D01*
X118992857Y-61509580D02*
X118945238Y-61557200D01*
X118945238Y-61557200D02*
X118850000Y-61604819D01*
X118850000Y-61604819D02*
X118754762Y-61604819D01*
X118754762Y-61604819D02*
X118659524Y-61557200D01*
X118659524Y-61557200D02*
X118611905Y-61509580D01*
X118611905Y-61509580D02*
X118564286Y-61414342D01*
X118564286Y-61414342D02*
X118516667Y-61223866D01*
X118516667Y-61223866D02*
X118516667Y-60985771D01*
X118516667Y-60985771D02*
X118564286Y-60795295D01*
X118564286Y-60795295D02*
X118611905Y-60700057D01*
X118611905Y-60700057D02*
X118659524Y-60652438D01*
X118659524Y-60652438D02*
X118754762Y-60604819D01*
X130197142Y-89704819D02*
X129863809Y-89228628D01*
X129625714Y-89704819D02*
X129625714Y-88704819D01*
X129625714Y-88704819D02*
X130006666Y-88704819D01*
X130006666Y-88704819D02*
X130101904Y-88752438D01*
X130101904Y-88752438D02*
X130149523Y-88800057D01*
X130149523Y-88800057D02*
X130197142Y-88895295D01*
X130197142Y-88895295D02*
X130197142Y-89038152D01*
X130197142Y-89038152D02*
X130149523Y-89133390D01*
X130149523Y-89133390D02*
X130101904Y-89181009D01*
X130101904Y-89181009D02*
X130006666Y-89228628D01*
X130006666Y-89228628D02*
X129625714Y-89228628D01*
X131149523Y-89704819D02*
X130578095Y-89704819D01*
X130863809Y-89704819D02*
X130863809Y-88704819D01*
X130863809Y-88704819D02*
X130768571Y-88847676D01*
X130768571Y-88847676D02*
X130673333Y-88942914D01*
X130673333Y-88942914D02*
X130578095Y-88990533D01*
X131482857Y-88704819D02*
X132149523Y-88704819D01*
X132149523Y-88704819D02*
X131720952Y-89704819D01*
X133449524Y-88800057D02*
X133497143Y-88752438D01*
X133497143Y-88752438D02*
X133592381Y-88704819D01*
X133592381Y-88704819D02*
X133830476Y-88704819D01*
X133830476Y-88704819D02*
X133925714Y-88752438D01*
X133925714Y-88752438D02*
X133973333Y-88800057D01*
X133973333Y-88800057D02*
X134020952Y-88895295D01*
X134020952Y-88895295D02*
X134020952Y-88990533D01*
X134020952Y-88990533D02*
X133973333Y-89133390D01*
X133973333Y-89133390D02*
X133401905Y-89704819D01*
X133401905Y-89704819D02*
X134020952Y-89704819D01*
X134449524Y-89704819D02*
X134449524Y-88704819D01*
X134544762Y-89323866D02*
X134830476Y-89704819D01*
X134830476Y-89038152D02*
X134449524Y-89419104D01*
X114257142Y-77154819D02*
X113923809Y-76678628D01*
X113685714Y-77154819D02*
X113685714Y-76154819D01*
X113685714Y-76154819D02*
X114066666Y-76154819D01*
X114066666Y-76154819D02*
X114161904Y-76202438D01*
X114161904Y-76202438D02*
X114209523Y-76250057D01*
X114209523Y-76250057D02*
X114257142Y-76345295D01*
X114257142Y-76345295D02*
X114257142Y-76488152D01*
X114257142Y-76488152D02*
X114209523Y-76583390D01*
X114209523Y-76583390D02*
X114161904Y-76631009D01*
X114161904Y-76631009D02*
X114066666Y-76678628D01*
X114066666Y-76678628D02*
X113685714Y-76678628D01*
X115209523Y-77154819D02*
X114638095Y-77154819D01*
X114923809Y-77154819D02*
X114923809Y-76154819D01*
X114923809Y-76154819D02*
X114828571Y-76297676D01*
X114828571Y-76297676D02*
X114733333Y-76392914D01*
X114733333Y-76392914D02*
X114638095Y-76440533D01*
X116114285Y-76154819D02*
X115638095Y-76154819D01*
X115638095Y-76154819D02*
X115590476Y-76631009D01*
X115590476Y-76631009D02*
X115638095Y-76583390D01*
X115638095Y-76583390D02*
X115733333Y-76535771D01*
X115733333Y-76535771D02*
X115971428Y-76535771D01*
X115971428Y-76535771D02*
X116066666Y-76583390D01*
X116066666Y-76583390D02*
X116114285Y-76631009D01*
X116114285Y-76631009D02*
X116161904Y-76726247D01*
X116161904Y-76726247D02*
X116161904Y-76964342D01*
X116161904Y-76964342D02*
X116114285Y-77059580D01*
X116114285Y-77059580D02*
X116066666Y-77107200D01*
X116066666Y-77107200D02*
X115971428Y-77154819D01*
X115971428Y-77154819D02*
X115733333Y-77154819D01*
X115733333Y-77154819D02*
X115638095Y-77107200D01*
X115638095Y-77107200D02*
X115590476Y-77059580D01*
X113664286Y-78454819D02*
X113664286Y-77454819D01*
X113664286Y-77454819D02*
X113902381Y-77454819D01*
X113902381Y-77454819D02*
X114045238Y-77502438D01*
X114045238Y-77502438D02*
X114140476Y-77597676D01*
X114140476Y-77597676D02*
X114188095Y-77692914D01*
X114188095Y-77692914D02*
X114235714Y-77883390D01*
X114235714Y-77883390D02*
X114235714Y-78026247D01*
X114235714Y-78026247D02*
X114188095Y-78216723D01*
X114188095Y-78216723D02*
X114140476Y-78311961D01*
X114140476Y-78311961D02*
X114045238Y-78407200D01*
X114045238Y-78407200D02*
X113902381Y-78454819D01*
X113902381Y-78454819D02*
X113664286Y-78454819D01*
X114664286Y-78454819D02*
X114664286Y-77454819D01*
X114664286Y-77454819D02*
X115235714Y-78454819D01*
X115235714Y-78454819D02*
X115235714Y-77454819D01*
X115711905Y-78454819D02*
X115711905Y-77454819D01*
X115711905Y-77454819D02*
X116092857Y-77454819D01*
X116092857Y-77454819D02*
X116188095Y-77502438D01*
X116188095Y-77502438D02*
X116235714Y-77550057D01*
X116235714Y-77550057D02*
X116283333Y-77645295D01*
X116283333Y-77645295D02*
X116283333Y-77788152D01*
X116283333Y-77788152D02*
X116235714Y-77883390D01*
X116235714Y-77883390D02*
X116188095Y-77931009D01*
X116188095Y-77931009D02*
X116092857Y-77978628D01*
X116092857Y-77978628D02*
X115711905Y-77978628D01*
X124292261Y-87450057D02*
X124197023Y-87402438D01*
X124197023Y-87402438D02*
X124101785Y-87307200D01*
X124101785Y-87307200D02*
X123958928Y-87164342D01*
X123958928Y-87164342D02*
X123863690Y-87116723D01*
X123863690Y-87116723D02*
X123768452Y-87116723D01*
X123816071Y-87354819D02*
X123720833Y-87307200D01*
X123720833Y-87307200D02*
X123625595Y-87211961D01*
X123625595Y-87211961D02*
X123577976Y-87021485D01*
X123577976Y-87021485D02*
X123577976Y-86688152D01*
X123577976Y-86688152D02*
X123625595Y-86497676D01*
X123625595Y-86497676D02*
X123720833Y-86402438D01*
X123720833Y-86402438D02*
X123816071Y-86354819D01*
X123816071Y-86354819D02*
X124006547Y-86354819D01*
X124006547Y-86354819D02*
X124101785Y-86402438D01*
X124101785Y-86402438D02*
X124197023Y-86497676D01*
X124197023Y-86497676D02*
X124244642Y-86688152D01*
X124244642Y-86688152D02*
X124244642Y-87021485D01*
X124244642Y-87021485D02*
X124197023Y-87211961D01*
X124197023Y-87211961D02*
X124101785Y-87307200D01*
X124101785Y-87307200D02*
X124006547Y-87354819D01*
X124006547Y-87354819D02*
X123816071Y-87354819D01*
X124720833Y-87354819D02*
X124911309Y-87354819D01*
X124911309Y-87354819D02*
X125006547Y-87307200D01*
X125006547Y-87307200D02*
X125054166Y-87259580D01*
X125054166Y-87259580D02*
X125149404Y-87116723D01*
X125149404Y-87116723D02*
X125197023Y-86926247D01*
X125197023Y-86926247D02*
X125197023Y-86545295D01*
X125197023Y-86545295D02*
X125149404Y-86450057D01*
X125149404Y-86450057D02*
X125101785Y-86402438D01*
X125101785Y-86402438D02*
X125006547Y-86354819D01*
X125006547Y-86354819D02*
X124816071Y-86354819D01*
X124816071Y-86354819D02*
X124720833Y-86402438D01*
X124720833Y-86402438D02*
X124673214Y-86450057D01*
X124673214Y-86450057D02*
X124625595Y-86545295D01*
X124625595Y-86545295D02*
X124625595Y-86783390D01*
X124625595Y-86783390D02*
X124673214Y-86878628D01*
X124673214Y-86878628D02*
X124720833Y-86926247D01*
X124720833Y-86926247D02*
X124816071Y-86973866D01*
X124816071Y-86973866D02*
X125006547Y-86973866D01*
X125006547Y-86973866D02*
X125101785Y-86926247D01*
X125101785Y-86926247D02*
X125149404Y-86878628D01*
X125149404Y-86878628D02*
X125197023Y-86783390D01*
X103507142Y-87834580D02*
X103459523Y-87882200D01*
X103459523Y-87882200D02*
X103316666Y-87929819D01*
X103316666Y-87929819D02*
X103221428Y-87929819D01*
X103221428Y-87929819D02*
X103078571Y-87882200D01*
X103078571Y-87882200D02*
X102983333Y-87786961D01*
X102983333Y-87786961D02*
X102935714Y-87691723D01*
X102935714Y-87691723D02*
X102888095Y-87501247D01*
X102888095Y-87501247D02*
X102888095Y-87358390D01*
X102888095Y-87358390D02*
X102935714Y-87167914D01*
X102935714Y-87167914D02*
X102983333Y-87072676D01*
X102983333Y-87072676D02*
X103078571Y-86977438D01*
X103078571Y-86977438D02*
X103221428Y-86929819D01*
X103221428Y-86929819D02*
X103316666Y-86929819D01*
X103316666Y-86929819D02*
X103459523Y-86977438D01*
X103459523Y-86977438D02*
X103507142Y-87025057D01*
X104459523Y-87929819D02*
X103888095Y-87929819D01*
X104173809Y-87929819D02*
X104173809Y-86929819D01*
X104173809Y-86929819D02*
X104078571Y-87072676D01*
X104078571Y-87072676D02*
X103983333Y-87167914D01*
X103983333Y-87167914D02*
X103888095Y-87215533D01*
X105411904Y-87929819D02*
X104840476Y-87929819D01*
X105126190Y-87929819D02*
X105126190Y-86929819D01*
X105126190Y-86929819D02*
X105030952Y-87072676D01*
X105030952Y-87072676D02*
X104935714Y-87167914D01*
X104935714Y-87167914D02*
X104840476Y-87215533D01*
X101807143Y-85529819D02*
X101902381Y-85529819D01*
X101902381Y-85529819D02*
X101997619Y-85577438D01*
X101997619Y-85577438D02*
X102045238Y-85625057D01*
X102045238Y-85625057D02*
X102092857Y-85720295D01*
X102092857Y-85720295D02*
X102140476Y-85910771D01*
X102140476Y-85910771D02*
X102140476Y-86148866D01*
X102140476Y-86148866D02*
X102092857Y-86339342D01*
X102092857Y-86339342D02*
X102045238Y-86434580D01*
X102045238Y-86434580D02*
X101997619Y-86482200D01*
X101997619Y-86482200D02*
X101902381Y-86529819D01*
X101902381Y-86529819D02*
X101807143Y-86529819D01*
X101807143Y-86529819D02*
X101711905Y-86482200D01*
X101711905Y-86482200D02*
X101664286Y-86434580D01*
X101664286Y-86434580D02*
X101616667Y-86339342D01*
X101616667Y-86339342D02*
X101569048Y-86148866D01*
X101569048Y-86148866D02*
X101569048Y-85910771D01*
X101569048Y-85910771D02*
X101616667Y-85720295D01*
X101616667Y-85720295D02*
X101664286Y-85625057D01*
X101664286Y-85625057D02*
X101711905Y-85577438D01*
X101711905Y-85577438D02*
X101807143Y-85529819D01*
X102569048Y-86434580D02*
X102616667Y-86482200D01*
X102616667Y-86482200D02*
X102569048Y-86529819D01*
X102569048Y-86529819D02*
X102521429Y-86482200D01*
X102521429Y-86482200D02*
X102569048Y-86434580D01*
X102569048Y-86434580D02*
X102569048Y-86529819D01*
X103569047Y-86529819D02*
X102997619Y-86529819D01*
X103283333Y-86529819D02*
X103283333Y-85529819D01*
X103283333Y-85529819D02*
X103188095Y-85672676D01*
X103188095Y-85672676D02*
X103092857Y-85767914D01*
X103092857Y-85767914D02*
X102997619Y-85815533D01*
X104426190Y-85863152D02*
X104426190Y-86529819D01*
X103997619Y-85863152D02*
X103997619Y-86386961D01*
X103997619Y-86386961D02*
X104045238Y-86482200D01*
X104045238Y-86482200D02*
X104140476Y-86529819D01*
X104140476Y-86529819D02*
X104283333Y-86529819D01*
X104283333Y-86529819D02*
X104378571Y-86482200D01*
X104378571Y-86482200D02*
X104426190Y-86434580D01*
X105235714Y-86006009D02*
X104902381Y-86006009D01*
X104902381Y-86529819D02*
X104902381Y-85529819D01*
X104902381Y-85529819D02*
X105378571Y-85529819D01*
X117057142Y-98904819D02*
X116723809Y-98428628D01*
X116485714Y-98904819D02*
X116485714Y-97904819D01*
X116485714Y-97904819D02*
X116866666Y-97904819D01*
X116866666Y-97904819D02*
X116961904Y-97952438D01*
X116961904Y-97952438D02*
X117009523Y-98000057D01*
X117009523Y-98000057D02*
X117057142Y-98095295D01*
X117057142Y-98095295D02*
X117057142Y-98238152D01*
X117057142Y-98238152D02*
X117009523Y-98333390D01*
X117009523Y-98333390D02*
X116961904Y-98381009D01*
X116961904Y-98381009D02*
X116866666Y-98428628D01*
X116866666Y-98428628D02*
X116485714Y-98428628D01*
X118009523Y-98904819D02*
X117438095Y-98904819D01*
X117723809Y-98904819D02*
X117723809Y-97904819D01*
X117723809Y-97904819D02*
X117628571Y-98047676D01*
X117628571Y-98047676D02*
X117533333Y-98142914D01*
X117533333Y-98142914D02*
X117438095Y-98190533D01*
X118628571Y-97904819D02*
X118723809Y-97904819D01*
X118723809Y-97904819D02*
X118819047Y-97952438D01*
X118819047Y-97952438D02*
X118866666Y-98000057D01*
X118866666Y-98000057D02*
X118914285Y-98095295D01*
X118914285Y-98095295D02*
X118961904Y-98285771D01*
X118961904Y-98285771D02*
X118961904Y-98523866D01*
X118961904Y-98523866D02*
X118914285Y-98714342D01*
X118914285Y-98714342D02*
X118866666Y-98809580D01*
X118866666Y-98809580D02*
X118819047Y-98857200D01*
X118819047Y-98857200D02*
X118723809Y-98904819D01*
X118723809Y-98904819D02*
X118628571Y-98904819D01*
X118628571Y-98904819D02*
X118533333Y-98857200D01*
X118533333Y-98857200D02*
X118485714Y-98809580D01*
X118485714Y-98809580D02*
X118438095Y-98714342D01*
X118438095Y-98714342D02*
X118390476Y-98523866D01*
X118390476Y-98523866D02*
X118390476Y-98285771D01*
X118390476Y-98285771D02*
X118438095Y-98095295D01*
X118438095Y-98095295D02*
X118485714Y-98000057D01*
X118485714Y-98000057D02*
X118533333Y-97952438D01*
X118533333Y-97952438D02*
X118628571Y-97904819D01*
X117007142Y-100304819D02*
X116435714Y-100304819D01*
X116721428Y-100304819D02*
X116721428Y-99304819D01*
X116721428Y-99304819D02*
X116626190Y-99447676D01*
X116626190Y-99447676D02*
X116530952Y-99542914D01*
X116530952Y-99542914D02*
X116435714Y-99590533D01*
X117626190Y-99304819D02*
X117721428Y-99304819D01*
X117721428Y-99304819D02*
X117816666Y-99352438D01*
X117816666Y-99352438D02*
X117864285Y-99400057D01*
X117864285Y-99400057D02*
X117911904Y-99495295D01*
X117911904Y-99495295D02*
X117959523Y-99685771D01*
X117959523Y-99685771D02*
X117959523Y-99923866D01*
X117959523Y-99923866D02*
X117911904Y-100114342D01*
X117911904Y-100114342D02*
X117864285Y-100209580D01*
X117864285Y-100209580D02*
X117816666Y-100257200D01*
X117816666Y-100257200D02*
X117721428Y-100304819D01*
X117721428Y-100304819D02*
X117626190Y-100304819D01*
X117626190Y-100304819D02*
X117530952Y-100257200D01*
X117530952Y-100257200D02*
X117483333Y-100209580D01*
X117483333Y-100209580D02*
X117435714Y-100114342D01*
X117435714Y-100114342D02*
X117388095Y-99923866D01*
X117388095Y-99923866D02*
X117388095Y-99685771D01*
X117388095Y-99685771D02*
X117435714Y-99495295D01*
X117435714Y-99495295D02*
X117483333Y-99400057D01*
X117483333Y-99400057D02*
X117530952Y-99352438D01*
X117530952Y-99352438D02*
X117626190Y-99304819D01*
X118578571Y-99304819D02*
X118673809Y-99304819D01*
X118673809Y-99304819D02*
X118769047Y-99352438D01*
X118769047Y-99352438D02*
X118816666Y-99400057D01*
X118816666Y-99400057D02*
X118864285Y-99495295D01*
X118864285Y-99495295D02*
X118911904Y-99685771D01*
X118911904Y-99685771D02*
X118911904Y-99923866D01*
X118911904Y-99923866D02*
X118864285Y-100114342D01*
X118864285Y-100114342D02*
X118816666Y-100209580D01*
X118816666Y-100209580D02*
X118769047Y-100257200D01*
X118769047Y-100257200D02*
X118673809Y-100304819D01*
X118673809Y-100304819D02*
X118578571Y-100304819D01*
X118578571Y-100304819D02*
X118483333Y-100257200D01*
X118483333Y-100257200D02*
X118435714Y-100209580D01*
X118435714Y-100209580D02*
X118388095Y-100114342D01*
X118388095Y-100114342D02*
X118340476Y-99923866D01*
X118340476Y-99923866D02*
X118340476Y-99685771D01*
X118340476Y-99685771D02*
X118388095Y-99495295D01*
X118388095Y-99495295D02*
X118435714Y-99400057D01*
X118435714Y-99400057D02*
X118483333Y-99352438D01*
X118483333Y-99352438D02*
X118578571Y-99304819D01*
X119530952Y-99304819D02*
X119626190Y-99304819D01*
X119626190Y-99304819D02*
X119721428Y-99352438D01*
X119721428Y-99352438D02*
X119769047Y-99400057D01*
X119769047Y-99400057D02*
X119816666Y-99495295D01*
X119816666Y-99495295D02*
X119864285Y-99685771D01*
X119864285Y-99685771D02*
X119864285Y-99923866D01*
X119864285Y-99923866D02*
X119816666Y-100114342D01*
X119816666Y-100114342D02*
X119769047Y-100209580D01*
X119769047Y-100209580D02*
X119721428Y-100257200D01*
X119721428Y-100257200D02*
X119626190Y-100304819D01*
X119626190Y-100304819D02*
X119530952Y-100304819D01*
X119530952Y-100304819D02*
X119435714Y-100257200D01*
X119435714Y-100257200D02*
X119388095Y-100209580D01*
X119388095Y-100209580D02*
X119340476Y-100114342D01*
X119340476Y-100114342D02*
X119292857Y-99923866D01*
X119292857Y-99923866D02*
X119292857Y-99685771D01*
X119292857Y-99685771D02*
X119340476Y-99495295D01*
X119340476Y-99495295D02*
X119388095Y-99400057D01*
X119388095Y-99400057D02*
X119435714Y-99352438D01*
X119435714Y-99352438D02*
X119530952Y-99304819D01*
X152954761Y-94550057D02*
X152859523Y-94502438D01*
X152859523Y-94502438D02*
X152764285Y-94407200D01*
X152764285Y-94407200D02*
X152621428Y-94264342D01*
X152621428Y-94264342D02*
X152526190Y-94216723D01*
X152526190Y-94216723D02*
X152430952Y-94216723D01*
X152478571Y-94454819D02*
X152383333Y-94407200D01*
X152383333Y-94407200D02*
X152288095Y-94311961D01*
X152288095Y-94311961D02*
X152240476Y-94121485D01*
X152240476Y-94121485D02*
X152240476Y-93788152D01*
X152240476Y-93788152D02*
X152288095Y-93597676D01*
X152288095Y-93597676D02*
X152383333Y-93502438D01*
X152383333Y-93502438D02*
X152478571Y-93454819D01*
X152478571Y-93454819D02*
X152669047Y-93454819D01*
X152669047Y-93454819D02*
X152764285Y-93502438D01*
X152764285Y-93502438D02*
X152859523Y-93597676D01*
X152859523Y-93597676D02*
X152907142Y-93788152D01*
X152907142Y-93788152D02*
X152907142Y-94121485D01*
X152907142Y-94121485D02*
X152859523Y-94311961D01*
X152859523Y-94311961D02*
X152764285Y-94407200D01*
X152764285Y-94407200D02*
X152669047Y-94454819D01*
X152669047Y-94454819D02*
X152478571Y-94454819D01*
X153288095Y-93550057D02*
X153335714Y-93502438D01*
X153335714Y-93502438D02*
X153430952Y-93454819D01*
X153430952Y-93454819D02*
X153669047Y-93454819D01*
X153669047Y-93454819D02*
X153764285Y-93502438D01*
X153764285Y-93502438D02*
X153811904Y-93550057D01*
X153811904Y-93550057D02*
X153859523Y-93645295D01*
X153859523Y-93645295D02*
X153859523Y-93740533D01*
X153859523Y-93740533D02*
X153811904Y-93883390D01*
X153811904Y-93883390D02*
X153240476Y-94454819D01*
X153240476Y-94454819D02*
X153859523Y-94454819D01*
X149694642Y-101804819D02*
X149361309Y-101328628D01*
X149123214Y-101804819D02*
X149123214Y-100804819D01*
X149123214Y-100804819D02*
X149504166Y-100804819D01*
X149504166Y-100804819D02*
X149599404Y-100852438D01*
X149599404Y-100852438D02*
X149647023Y-100900057D01*
X149647023Y-100900057D02*
X149694642Y-100995295D01*
X149694642Y-100995295D02*
X149694642Y-101138152D01*
X149694642Y-101138152D02*
X149647023Y-101233390D01*
X149647023Y-101233390D02*
X149599404Y-101281009D01*
X149599404Y-101281009D02*
X149504166Y-101328628D01*
X149504166Y-101328628D02*
X149123214Y-101328628D01*
X150075595Y-100900057D02*
X150123214Y-100852438D01*
X150123214Y-100852438D02*
X150218452Y-100804819D01*
X150218452Y-100804819D02*
X150456547Y-100804819D01*
X150456547Y-100804819D02*
X150551785Y-100852438D01*
X150551785Y-100852438D02*
X150599404Y-100900057D01*
X150599404Y-100900057D02*
X150647023Y-100995295D01*
X150647023Y-100995295D02*
X150647023Y-101090533D01*
X150647023Y-101090533D02*
X150599404Y-101233390D01*
X150599404Y-101233390D02*
X150027976Y-101804819D01*
X150027976Y-101804819D02*
X150647023Y-101804819D01*
X150980357Y-100804819D02*
X151647023Y-100804819D01*
X151647023Y-100804819D02*
X151218452Y-101804819D01*
X149842261Y-100404819D02*
X149270833Y-100404819D01*
X149556547Y-100404819D02*
X149556547Y-99404819D01*
X149556547Y-99404819D02*
X149461309Y-99547676D01*
X149461309Y-99547676D02*
X149366071Y-99642914D01*
X149366071Y-99642914D02*
X149270833Y-99690533D01*
X150461309Y-99404819D02*
X150556547Y-99404819D01*
X150556547Y-99404819D02*
X150651785Y-99452438D01*
X150651785Y-99452438D02*
X150699404Y-99500057D01*
X150699404Y-99500057D02*
X150747023Y-99595295D01*
X150747023Y-99595295D02*
X150794642Y-99785771D01*
X150794642Y-99785771D02*
X150794642Y-100023866D01*
X150794642Y-100023866D02*
X150747023Y-100214342D01*
X150747023Y-100214342D02*
X150699404Y-100309580D01*
X150699404Y-100309580D02*
X150651785Y-100357200D01*
X150651785Y-100357200D02*
X150556547Y-100404819D01*
X150556547Y-100404819D02*
X150461309Y-100404819D01*
X150461309Y-100404819D02*
X150366071Y-100357200D01*
X150366071Y-100357200D02*
X150318452Y-100309580D01*
X150318452Y-100309580D02*
X150270833Y-100214342D01*
X150270833Y-100214342D02*
X150223214Y-100023866D01*
X150223214Y-100023866D02*
X150223214Y-99785771D01*
X150223214Y-99785771D02*
X150270833Y-99595295D01*
X150270833Y-99595295D02*
X150318452Y-99500057D01*
X150318452Y-99500057D02*
X150366071Y-99452438D01*
X150366071Y-99452438D02*
X150461309Y-99404819D01*
X151223214Y-100404819D02*
X151223214Y-99404819D01*
X151318452Y-100023866D02*
X151604166Y-100404819D01*
X151604166Y-99738152D02*
X151223214Y-100119104D01*
X169416666Y-63954819D02*
X169416666Y-64669104D01*
X169416666Y-64669104D02*
X169369047Y-64811961D01*
X169369047Y-64811961D02*
X169273809Y-64907200D01*
X169273809Y-64907200D02*
X169130952Y-64954819D01*
X169130952Y-64954819D02*
X169035714Y-64954819D01*
X170416666Y-64954819D02*
X169845238Y-64954819D01*
X170130952Y-64954819D02*
X170130952Y-63954819D01*
X170130952Y-63954819D02*
X170035714Y-64097676D01*
X170035714Y-64097676D02*
X169940476Y-64192914D01*
X169940476Y-64192914D02*
X169845238Y-64240533D01*
X138633333Y-81254819D02*
X138300000Y-80778628D01*
X138061905Y-81254819D02*
X138061905Y-80254819D01*
X138061905Y-80254819D02*
X138442857Y-80254819D01*
X138442857Y-80254819D02*
X138538095Y-80302438D01*
X138538095Y-80302438D02*
X138585714Y-80350057D01*
X138585714Y-80350057D02*
X138633333Y-80445295D01*
X138633333Y-80445295D02*
X138633333Y-80588152D01*
X138633333Y-80588152D02*
X138585714Y-80683390D01*
X138585714Y-80683390D02*
X138538095Y-80731009D01*
X138538095Y-80731009D02*
X138442857Y-80778628D01*
X138442857Y-80778628D02*
X138061905Y-80778628D01*
X139585714Y-81254819D02*
X139014286Y-81254819D01*
X139300000Y-81254819D02*
X139300000Y-80254819D01*
X139300000Y-80254819D02*
X139204762Y-80397676D01*
X139204762Y-80397676D02*
X139109524Y-80492914D01*
X139109524Y-80492914D02*
X139014286Y-80540533D01*
X141009523Y-81254819D02*
X140438095Y-81254819D01*
X140723809Y-81254819D02*
X140723809Y-80254819D01*
X140723809Y-80254819D02*
X140628571Y-80397676D01*
X140628571Y-80397676D02*
X140533333Y-80492914D01*
X140533333Y-80492914D02*
X140438095Y-80540533D01*
X141628571Y-80254819D02*
X141723809Y-80254819D01*
X141723809Y-80254819D02*
X141819047Y-80302438D01*
X141819047Y-80302438D02*
X141866666Y-80350057D01*
X141866666Y-80350057D02*
X141914285Y-80445295D01*
X141914285Y-80445295D02*
X141961904Y-80635771D01*
X141961904Y-80635771D02*
X141961904Y-80873866D01*
X141961904Y-80873866D02*
X141914285Y-81064342D01*
X141914285Y-81064342D02*
X141866666Y-81159580D01*
X141866666Y-81159580D02*
X141819047Y-81207200D01*
X141819047Y-81207200D02*
X141723809Y-81254819D01*
X141723809Y-81254819D02*
X141628571Y-81254819D01*
X141628571Y-81254819D02*
X141533333Y-81207200D01*
X141533333Y-81207200D02*
X141485714Y-81159580D01*
X141485714Y-81159580D02*
X141438095Y-81064342D01*
X141438095Y-81064342D02*
X141390476Y-80873866D01*
X141390476Y-80873866D02*
X141390476Y-80635771D01*
X141390476Y-80635771D02*
X141438095Y-80445295D01*
X141438095Y-80445295D02*
X141485714Y-80350057D01*
X141485714Y-80350057D02*
X141533333Y-80302438D01*
X141533333Y-80302438D02*
X141628571Y-80254819D01*
X147254761Y-82350057D02*
X147159523Y-82302438D01*
X147159523Y-82302438D02*
X147064285Y-82207200D01*
X147064285Y-82207200D02*
X146921428Y-82064342D01*
X146921428Y-82064342D02*
X146826190Y-82016723D01*
X146826190Y-82016723D02*
X146730952Y-82016723D01*
X146778571Y-82254819D02*
X146683333Y-82207200D01*
X146683333Y-82207200D02*
X146588095Y-82111961D01*
X146588095Y-82111961D02*
X146540476Y-81921485D01*
X146540476Y-81921485D02*
X146540476Y-81588152D01*
X146540476Y-81588152D02*
X146588095Y-81397676D01*
X146588095Y-81397676D02*
X146683333Y-81302438D01*
X146683333Y-81302438D02*
X146778571Y-81254819D01*
X146778571Y-81254819D02*
X146969047Y-81254819D01*
X146969047Y-81254819D02*
X147064285Y-81302438D01*
X147064285Y-81302438D02*
X147159523Y-81397676D01*
X147159523Y-81397676D02*
X147207142Y-81588152D01*
X147207142Y-81588152D02*
X147207142Y-81921485D01*
X147207142Y-81921485D02*
X147159523Y-82111961D01*
X147159523Y-82111961D02*
X147064285Y-82207200D01*
X147064285Y-82207200D02*
X146969047Y-82254819D01*
X146969047Y-82254819D02*
X146778571Y-82254819D01*
X148159523Y-82254819D02*
X147588095Y-82254819D01*
X147873809Y-82254819D02*
X147873809Y-81254819D01*
X147873809Y-81254819D02*
X147778571Y-81397676D01*
X147778571Y-81397676D02*
X147683333Y-81492914D01*
X147683333Y-81492914D02*
X147588095Y-81540533D01*
X126059524Y-106731009D02*
X126392857Y-106731009D01*
X126535714Y-107254819D02*
X126059524Y-107254819D01*
X126059524Y-107254819D02*
X126059524Y-106254819D01*
X126059524Y-106254819D02*
X126535714Y-106254819D01*
X126916667Y-106350057D02*
X126964286Y-106302438D01*
X126964286Y-106302438D02*
X127059524Y-106254819D01*
X127059524Y-106254819D02*
X127297619Y-106254819D01*
X127297619Y-106254819D02*
X127392857Y-106302438D01*
X127392857Y-106302438D02*
X127440476Y-106350057D01*
X127440476Y-106350057D02*
X127488095Y-106445295D01*
X127488095Y-106445295D02*
X127488095Y-106540533D01*
X127488095Y-106540533D02*
X127440476Y-106683390D01*
X127440476Y-106683390D02*
X126869048Y-107254819D01*
X126869048Y-107254819D02*
X127488095Y-107254819D01*
X107666666Y-112704819D02*
X107666666Y-113419104D01*
X107666666Y-113419104D02*
X107619047Y-113561961D01*
X107619047Y-113561961D02*
X107523809Y-113657200D01*
X107523809Y-113657200D02*
X107380952Y-113704819D01*
X107380952Y-113704819D02*
X107285714Y-113704819D01*
X108619047Y-112704819D02*
X108142857Y-112704819D01*
X108142857Y-112704819D02*
X108095238Y-113181009D01*
X108095238Y-113181009D02*
X108142857Y-113133390D01*
X108142857Y-113133390D02*
X108238095Y-113085771D01*
X108238095Y-113085771D02*
X108476190Y-113085771D01*
X108476190Y-113085771D02*
X108571428Y-113133390D01*
X108571428Y-113133390D02*
X108619047Y-113181009D01*
X108619047Y-113181009D02*
X108666666Y-113276247D01*
X108666666Y-113276247D02*
X108666666Y-113514342D01*
X108666666Y-113514342D02*
X108619047Y-113609580D01*
X108619047Y-113609580D02*
X108571428Y-113657200D01*
X108571428Y-113657200D02*
X108476190Y-113704819D01*
X108476190Y-113704819D02*
X108238095Y-113704819D01*
X108238095Y-113704819D02*
X108142857Y-113657200D01*
X108142857Y-113657200D02*
X108095238Y-113609580D01*
X105566666Y-63854819D02*
X105566666Y-64569104D01*
X105566666Y-64569104D02*
X105519047Y-64711961D01*
X105519047Y-64711961D02*
X105423809Y-64807200D01*
X105423809Y-64807200D02*
X105280952Y-64854819D01*
X105280952Y-64854819D02*
X105185714Y-64854819D01*
X105995238Y-63950057D02*
X106042857Y-63902438D01*
X106042857Y-63902438D02*
X106138095Y-63854819D01*
X106138095Y-63854819D02*
X106376190Y-63854819D01*
X106376190Y-63854819D02*
X106471428Y-63902438D01*
X106471428Y-63902438D02*
X106519047Y-63950057D01*
X106519047Y-63950057D02*
X106566666Y-64045295D01*
X106566666Y-64045295D02*
X106566666Y-64140533D01*
X106566666Y-64140533D02*
X106519047Y-64283390D01*
X106519047Y-64283390D02*
X105947619Y-64854819D01*
X105947619Y-64854819D02*
X106566666Y-64854819D01*
X120533333Y-62054819D02*
X120200000Y-61578628D01*
X119961905Y-62054819D02*
X119961905Y-61054819D01*
X119961905Y-61054819D02*
X120342857Y-61054819D01*
X120342857Y-61054819D02*
X120438095Y-61102438D01*
X120438095Y-61102438D02*
X120485714Y-61150057D01*
X120485714Y-61150057D02*
X120533333Y-61245295D01*
X120533333Y-61245295D02*
X120533333Y-61388152D01*
X120533333Y-61388152D02*
X120485714Y-61483390D01*
X120485714Y-61483390D02*
X120438095Y-61531009D01*
X120438095Y-61531009D02*
X120342857Y-61578628D01*
X120342857Y-61578628D02*
X119961905Y-61578628D01*
X120866667Y-61054819D02*
X121485714Y-61054819D01*
X121485714Y-61054819D02*
X121152381Y-61435771D01*
X121152381Y-61435771D02*
X121295238Y-61435771D01*
X121295238Y-61435771D02*
X121390476Y-61483390D01*
X121390476Y-61483390D02*
X121438095Y-61531009D01*
X121438095Y-61531009D02*
X121485714Y-61626247D01*
X121485714Y-61626247D02*
X121485714Y-61864342D01*
X121485714Y-61864342D02*
X121438095Y-61959580D01*
X121438095Y-61959580D02*
X121390476Y-62007200D01*
X121390476Y-62007200D02*
X121295238Y-62054819D01*
X121295238Y-62054819D02*
X121009524Y-62054819D01*
X121009524Y-62054819D02*
X120914286Y-62007200D01*
X120914286Y-62007200D02*
X120866667Y-61959580D01*
X122957142Y-62054819D02*
X122385714Y-62054819D01*
X122671428Y-62054819D02*
X122671428Y-61054819D01*
X122671428Y-61054819D02*
X122576190Y-61197676D01*
X122576190Y-61197676D02*
X122480952Y-61292914D01*
X122480952Y-61292914D02*
X122385714Y-61340533D01*
X123861904Y-61054819D02*
X123385714Y-61054819D01*
X123385714Y-61054819D02*
X123338095Y-61531009D01*
X123338095Y-61531009D02*
X123385714Y-61483390D01*
X123385714Y-61483390D02*
X123480952Y-61435771D01*
X123480952Y-61435771D02*
X123719047Y-61435771D01*
X123719047Y-61435771D02*
X123814285Y-61483390D01*
X123814285Y-61483390D02*
X123861904Y-61531009D01*
X123861904Y-61531009D02*
X123909523Y-61626247D01*
X123909523Y-61626247D02*
X123909523Y-61864342D01*
X123909523Y-61864342D02*
X123861904Y-61959580D01*
X123861904Y-61959580D02*
X123814285Y-62007200D01*
X123814285Y-62007200D02*
X123719047Y-62054819D01*
X123719047Y-62054819D02*
X123480952Y-62054819D01*
X123480952Y-62054819D02*
X123385714Y-62007200D01*
X123385714Y-62007200D02*
X123338095Y-61959580D01*
X124528571Y-61054819D02*
X124623809Y-61054819D01*
X124623809Y-61054819D02*
X124719047Y-61102438D01*
X124719047Y-61102438D02*
X124766666Y-61150057D01*
X124766666Y-61150057D02*
X124814285Y-61245295D01*
X124814285Y-61245295D02*
X124861904Y-61435771D01*
X124861904Y-61435771D02*
X124861904Y-61673866D01*
X124861904Y-61673866D02*
X124814285Y-61864342D01*
X124814285Y-61864342D02*
X124766666Y-61959580D01*
X124766666Y-61959580D02*
X124719047Y-62007200D01*
X124719047Y-62007200D02*
X124623809Y-62054819D01*
X124623809Y-62054819D02*
X124528571Y-62054819D01*
X124528571Y-62054819D02*
X124433333Y-62007200D01*
X124433333Y-62007200D02*
X124385714Y-61959580D01*
X124385714Y-61959580D02*
X124338095Y-61864342D01*
X124338095Y-61864342D02*
X124290476Y-61673866D01*
X124290476Y-61673866D02*
X124290476Y-61435771D01*
X124290476Y-61435771D02*
X124338095Y-61245295D01*
X124338095Y-61245295D02*
X124385714Y-61150057D01*
X124385714Y-61150057D02*
X124433333Y-61102438D01*
X124433333Y-61102438D02*
X124528571Y-61054819D01*
X125480952Y-61054819D02*
X125576190Y-61054819D01*
X125576190Y-61054819D02*
X125671428Y-61102438D01*
X125671428Y-61102438D02*
X125719047Y-61150057D01*
X125719047Y-61150057D02*
X125766666Y-61245295D01*
X125766666Y-61245295D02*
X125814285Y-61435771D01*
X125814285Y-61435771D02*
X125814285Y-61673866D01*
X125814285Y-61673866D02*
X125766666Y-61864342D01*
X125766666Y-61864342D02*
X125719047Y-61959580D01*
X125719047Y-61959580D02*
X125671428Y-62007200D01*
X125671428Y-62007200D02*
X125576190Y-62054819D01*
X125576190Y-62054819D02*
X125480952Y-62054819D01*
X125480952Y-62054819D02*
X125385714Y-62007200D01*
X125385714Y-62007200D02*
X125338095Y-61959580D01*
X125338095Y-61959580D02*
X125290476Y-61864342D01*
X125290476Y-61864342D02*
X125242857Y-61673866D01*
X125242857Y-61673866D02*
X125242857Y-61435771D01*
X125242857Y-61435771D02*
X125290476Y-61245295D01*
X125290476Y-61245295D02*
X125338095Y-61150057D01*
X125338095Y-61150057D02*
X125385714Y-61102438D01*
X125385714Y-61102438D02*
X125480952Y-61054819D01*
X102266666Y-94654819D02*
X102266666Y-95369104D01*
X102266666Y-95369104D02*
X102219047Y-95511961D01*
X102219047Y-95511961D02*
X102123809Y-95607200D01*
X102123809Y-95607200D02*
X101980952Y-95654819D01*
X101980952Y-95654819D02*
X101885714Y-95654819D01*
X102647619Y-94654819D02*
X103266666Y-94654819D01*
X103266666Y-94654819D02*
X102933333Y-95035771D01*
X102933333Y-95035771D02*
X103076190Y-95035771D01*
X103076190Y-95035771D02*
X103171428Y-95083390D01*
X103171428Y-95083390D02*
X103219047Y-95131009D01*
X103219047Y-95131009D02*
X103266666Y-95226247D01*
X103266666Y-95226247D02*
X103266666Y-95464342D01*
X103266666Y-95464342D02*
X103219047Y-95559580D01*
X103219047Y-95559580D02*
X103171428Y-95607200D01*
X103171428Y-95607200D02*
X103076190Y-95654819D01*
X103076190Y-95654819D02*
X102790476Y-95654819D01*
X102790476Y-95654819D02*
X102695238Y-95607200D01*
X102695238Y-95607200D02*
X102647619Y-95559580D01*
X117807142Y-92154819D02*
X117473809Y-91678628D01*
X117235714Y-92154819D02*
X117235714Y-91154819D01*
X117235714Y-91154819D02*
X117616666Y-91154819D01*
X117616666Y-91154819D02*
X117711904Y-91202438D01*
X117711904Y-91202438D02*
X117759523Y-91250057D01*
X117759523Y-91250057D02*
X117807142Y-91345295D01*
X117807142Y-91345295D02*
X117807142Y-91488152D01*
X117807142Y-91488152D02*
X117759523Y-91583390D01*
X117759523Y-91583390D02*
X117711904Y-91631009D01*
X117711904Y-91631009D02*
X117616666Y-91678628D01*
X117616666Y-91678628D02*
X117235714Y-91678628D01*
X118188095Y-91250057D02*
X118235714Y-91202438D01*
X118235714Y-91202438D02*
X118330952Y-91154819D01*
X118330952Y-91154819D02*
X118569047Y-91154819D01*
X118569047Y-91154819D02*
X118664285Y-91202438D01*
X118664285Y-91202438D02*
X118711904Y-91250057D01*
X118711904Y-91250057D02*
X118759523Y-91345295D01*
X118759523Y-91345295D02*
X118759523Y-91440533D01*
X118759523Y-91440533D02*
X118711904Y-91583390D01*
X118711904Y-91583390D02*
X118140476Y-92154819D01*
X118140476Y-92154819D02*
X118759523Y-92154819D01*
X119378571Y-91154819D02*
X119473809Y-91154819D01*
X119473809Y-91154819D02*
X119569047Y-91202438D01*
X119569047Y-91202438D02*
X119616666Y-91250057D01*
X119616666Y-91250057D02*
X119664285Y-91345295D01*
X119664285Y-91345295D02*
X119711904Y-91535771D01*
X119711904Y-91535771D02*
X119711904Y-91773866D01*
X119711904Y-91773866D02*
X119664285Y-91964342D01*
X119664285Y-91964342D02*
X119616666Y-92059580D01*
X119616666Y-92059580D02*
X119569047Y-92107200D01*
X119569047Y-92107200D02*
X119473809Y-92154819D01*
X119473809Y-92154819D02*
X119378571Y-92154819D01*
X119378571Y-92154819D02*
X119283333Y-92107200D01*
X119283333Y-92107200D02*
X119235714Y-92059580D01*
X119235714Y-92059580D02*
X119188095Y-91964342D01*
X119188095Y-91964342D02*
X119140476Y-91773866D01*
X119140476Y-91773866D02*
X119140476Y-91535771D01*
X119140476Y-91535771D02*
X119188095Y-91345295D01*
X119188095Y-91345295D02*
X119235714Y-91250057D01*
X119235714Y-91250057D02*
X119283333Y-91202438D01*
X119283333Y-91202438D02*
X119378571Y-91154819D01*
X117804761Y-93504819D02*
X117233333Y-93504819D01*
X117519047Y-93504819D02*
X117519047Y-92504819D01*
X117519047Y-92504819D02*
X117423809Y-92647676D01*
X117423809Y-92647676D02*
X117328571Y-92742914D01*
X117328571Y-92742914D02*
X117233333Y-92790533D01*
X118423809Y-92504819D02*
X118519047Y-92504819D01*
X118519047Y-92504819D02*
X118614285Y-92552438D01*
X118614285Y-92552438D02*
X118661904Y-92600057D01*
X118661904Y-92600057D02*
X118709523Y-92695295D01*
X118709523Y-92695295D02*
X118757142Y-92885771D01*
X118757142Y-92885771D02*
X118757142Y-93123866D01*
X118757142Y-93123866D02*
X118709523Y-93314342D01*
X118709523Y-93314342D02*
X118661904Y-93409580D01*
X118661904Y-93409580D02*
X118614285Y-93457200D01*
X118614285Y-93457200D02*
X118519047Y-93504819D01*
X118519047Y-93504819D02*
X118423809Y-93504819D01*
X118423809Y-93504819D02*
X118328571Y-93457200D01*
X118328571Y-93457200D02*
X118280952Y-93409580D01*
X118280952Y-93409580D02*
X118233333Y-93314342D01*
X118233333Y-93314342D02*
X118185714Y-93123866D01*
X118185714Y-93123866D02*
X118185714Y-92885771D01*
X118185714Y-92885771D02*
X118233333Y-92695295D01*
X118233333Y-92695295D02*
X118280952Y-92600057D01*
X118280952Y-92600057D02*
X118328571Y-92552438D01*
X118328571Y-92552438D02*
X118423809Y-92504819D01*
X119185714Y-93504819D02*
X119185714Y-92504819D01*
X119280952Y-93123866D02*
X119566666Y-93504819D01*
X119566666Y-92838152D02*
X119185714Y-93219104D01*
X112754761Y-81100057D02*
X112659523Y-81052438D01*
X112659523Y-81052438D02*
X112564285Y-80957200D01*
X112564285Y-80957200D02*
X112421428Y-80814342D01*
X112421428Y-80814342D02*
X112326190Y-80766723D01*
X112326190Y-80766723D02*
X112230952Y-80766723D01*
X112278571Y-81004819D02*
X112183333Y-80957200D01*
X112183333Y-80957200D02*
X112088095Y-80861961D01*
X112088095Y-80861961D02*
X112040476Y-80671485D01*
X112040476Y-80671485D02*
X112040476Y-80338152D01*
X112040476Y-80338152D02*
X112088095Y-80147676D01*
X112088095Y-80147676D02*
X112183333Y-80052438D01*
X112183333Y-80052438D02*
X112278571Y-80004819D01*
X112278571Y-80004819D02*
X112469047Y-80004819D01*
X112469047Y-80004819D02*
X112564285Y-80052438D01*
X112564285Y-80052438D02*
X112659523Y-80147676D01*
X112659523Y-80147676D02*
X112707142Y-80338152D01*
X112707142Y-80338152D02*
X112707142Y-80671485D01*
X112707142Y-80671485D02*
X112659523Y-80861961D01*
X112659523Y-80861961D02*
X112564285Y-80957200D01*
X112564285Y-80957200D02*
X112469047Y-81004819D01*
X112469047Y-81004819D02*
X112278571Y-81004819D01*
X113611904Y-80004819D02*
X113135714Y-80004819D01*
X113135714Y-80004819D02*
X113088095Y-80481009D01*
X113088095Y-80481009D02*
X113135714Y-80433390D01*
X113135714Y-80433390D02*
X113230952Y-80385771D01*
X113230952Y-80385771D02*
X113469047Y-80385771D01*
X113469047Y-80385771D02*
X113564285Y-80433390D01*
X113564285Y-80433390D02*
X113611904Y-80481009D01*
X113611904Y-80481009D02*
X113659523Y-80576247D01*
X113659523Y-80576247D02*
X113659523Y-80814342D01*
X113659523Y-80814342D02*
X113611904Y-80909580D01*
X113611904Y-80909580D02*
X113564285Y-80957200D01*
X113564285Y-80957200D02*
X113469047Y-81004819D01*
X113469047Y-81004819D02*
X113230952Y-81004819D01*
X113230952Y-81004819D02*
X113135714Y-80957200D01*
X113135714Y-80957200D02*
X113088095Y-80909580D01*
X147304761Y-64200057D02*
X147209523Y-64152438D01*
X147209523Y-64152438D02*
X147114285Y-64057200D01*
X147114285Y-64057200D02*
X146971428Y-63914342D01*
X146971428Y-63914342D02*
X146876190Y-63866723D01*
X146876190Y-63866723D02*
X146780952Y-63866723D01*
X146828571Y-64104819D02*
X146733333Y-64057200D01*
X146733333Y-64057200D02*
X146638095Y-63961961D01*
X146638095Y-63961961D02*
X146590476Y-63771485D01*
X146590476Y-63771485D02*
X146590476Y-63438152D01*
X146590476Y-63438152D02*
X146638095Y-63247676D01*
X146638095Y-63247676D02*
X146733333Y-63152438D01*
X146733333Y-63152438D02*
X146828571Y-63104819D01*
X146828571Y-63104819D02*
X147019047Y-63104819D01*
X147019047Y-63104819D02*
X147114285Y-63152438D01*
X147114285Y-63152438D02*
X147209523Y-63247676D01*
X147209523Y-63247676D02*
X147257142Y-63438152D01*
X147257142Y-63438152D02*
X147257142Y-63771485D01*
X147257142Y-63771485D02*
X147209523Y-63961961D01*
X147209523Y-63961961D02*
X147114285Y-64057200D01*
X147114285Y-64057200D02*
X147019047Y-64104819D01*
X147019047Y-64104819D02*
X146828571Y-64104819D01*
X148114285Y-63438152D02*
X148114285Y-64104819D01*
X147876190Y-63057200D02*
X147638095Y-63771485D01*
X147638095Y-63771485D02*
X148257142Y-63771485D01*
X148519642Y-97874819D02*
X148186309Y-97398628D01*
X147948214Y-97874819D02*
X147948214Y-96874819D01*
X147948214Y-96874819D02*
X148329166Y-96874819D01*
X148329166Y-96874819D02*
X148424404Y-96922438D01*
X148424404Y-96922438D02*
X148472023Y-96970057D01*
X148472023Y-96970057D02*
X148519642Y-97065295D01*
X148519642Y-97065295D02*
X148519642Y-97208152D01*
X148519642Y-97208152D02*
X148472023Y-97303390D01*
X148472023Y-97303390D02*
X148424404Y-97351009D01*
X148424404Y-97351009D02*
X148329166Y-97398628D01*
X148329166Y-97398628D02*
X147948214Y-97398628D01*
X148900595Y-96970057D02*
X148948214Y-96922438D01*
X148948214Y-96922438D02*
X149043452Y-96874819D01*
X149043452Y-96874819D02*
X149281547Y-96874819D01*
X149281547Y-96874819D02*
X149376785Y-96922438D01*
X149376785Y-96922438D02*
X149424404Y-96970057D01*
X149424404Y-96970057D02*
X149472023Y-97065295D01*
X149472023Y-97065295D02*
X149472023Y-97160533D01*
X149472023Y-97160533D02*
X149424404Y-97303390D01*
X149424404Y-97303390D02*
X148852976Y-97874819D01*
X148852976Y-97874819D02*
X149472023Y-97874819D01*
X150329166Y-97208152D02*
X150329166Y-97874819D01*
X150091071Y-96827200D02*
X149852976Y-97541485D01*
X149852976Y-97541485D02*
X150472023Y-97541485D01*
X148567261Y-99154819D02*
X147995833Y-99154819D01*
X148281547Y-99154819D02*
X148281547Y-98154819D01*
X148281547Y-98154819D02*
X148186309Y-98297676D01*
X148186309Y-98297676D02*
X148091071Y-98392914D01*
X148091071Y-98392914D02*
X147995833Y-98440533D01*
X149186309Y-98154819D02*
X149281547Y-98154819D01*
X149281547Y-98154819D02*
X149376785Y-98202438D01*
X149376785Y-98202438D02*
X149424404Y-98250057D01*
X149424404Y-98250057D02*
X149472023Y-98345295D01*
X149472023Y-98345295D02*
X149519642Y-98535771D01*
X149519642Y-98535771D02*
X149519642Y-98773866D01*
X149519642Y-98773866D02*
X149472023Y-98964342D01*
X149472023Y-98964342D02*
X149424404Y-99059580D01*
X149424404Y-99059580D02*
X149376785Y-99107200D01*
X149376785Y-99107200D02*
X149281547Y-99154819D01*
X149281547Y-99154819D02*
X149186309Y-99154819D01*
X149186309Y-99154819D02*
X149091071Y-99107200D01*
X149091071Y-99107200D02*
X149043452Y-99059580D01*
X149043452Y-99059580D02*
X148995833Y-98964342D01*
X148995833Y-98964342D02*
X148948214Y-98773866D01*
X148948214Y-98773866D02*
X148948214Y-98535771D01*
X148948214Y-98535771D02*
X148995833Y-98345295D01*
X148995833Y-98345295D02*
X149043452Y-98250057D01*
X149043452Y-98250057D02*
X149091071Y-98202438D01*
X149091071Y-98202438D02*
X149186309Y-98154819D01*
X149948214Y-99154819D02*
X149948214Y-98154819D01*
X150043452Y-98773866D02*
X150329166Y-99154819D01*
X150329166Y-98488152D02*
X149948214Y-98869104D01*
X108257142Y-75404819D02*
X107923809Y-74928628D01*
X107685714Y-75404819D02*
X107685714Y-74404819D01*
X107685714Y-74404819D02*
X108066666Y-74404819D01*
X108066666Y-74404819D02*
X108161904Y-74452438D01*
X108161904Y-74452438D02*
X108209523Y-74500057D01*
X108209523Y-74500057D02*
X108257142Y-74595295D01*
X108257142Y-74595295D02*
X108257142Y-74738152D01*
X108257142Y-74738152D02*
X108209523Y-74833390D01*
X108209523Y-74833390D02*
X108161904Y-74881009D01*
X108161904Y-74881009D02*
X108066666Y-74928628D01*
X108066666Y-74928628D02*
X107685714Y-74928628D01*
X109209523Y-75404819D02*
X108638095Y-75404819D01*
X108923809Y-75404819D02*
X108923809Y-74404819D01*
X108923809Y-74404819D02*
X108828571Y-74547676D01*
X108828571Y-74547676D02*
X108733333Y-74642914D01*
X108733333Y-74642914D02*
X108638095Y-74690533D01*
X110066666Y-74404819D02*
X109876190Y-74404819D01*
X109876190Y-74404819D02*
X109780952Y-74452438D01*
X109780952Y-74452438D02*
X109733333Y-74500057D01*
X109733333Y-74500057D02*
X109638095Y-74642914D01*
X109638095Y-74642914D02*
X109590476Y-74833390D01*
X109590476Y-74833390D02*
X109590476Y-75214342D01*
X109590476Y-75214342D02*
X109638095Y-75309580D01*
X109638095Y-75309580D02*
X109685714Y-75357200D01*
X109685714Y-75357200D02*
X109780952Y-75404819D01*
X109780952Y-75404819D02*
X109971428Y-75404819D01*
X109971428Y-75404819D02*
X110066666Y-75357200D01*
X110066666Y-75357200D02*
X110114285Y-75309580D01*
X110114285Y-75309580D02*
X110161904Y-75214342D01*
X110161904Y-75214342D02*
X110161904Y-74976247D01*
X110161904Y-74976247D02*
X110114285Y-74881009D01*
X110114285Y-74881009D02*
X110066666Y-74833390D01*
X110066666Y-74833390D02*
X109971428Y-74785771D01*
X109971428Y-74785771D02*
X109780952Y-74785771D01*
X109780952Y-74785771D02*
X109685714Y-74833390D01*
X109685714Y-74833390D02*
X109638095Y-74881009D01*
X109638095Y-74881009D02*
X109590476Y-74976247D01*
X107711905Y-75950057D02*
X107759524Y-75902438D01*
X107759524Y-75902438D02*
X107854762Y-75854819D01*
X107854762Y-75854819D02*
X108092857Y-75854819D01*
X108092857Y-75854819D02*
X108188095Y-75902438D01*
X108188095Y-75902438D02*
X108235714Y-75950057D01*
X108235714Y-75950057D02*
X108283333Y-76045295D01*
X108283333Y-76045295D02*
X108283333Y-76140533D01*
X108283333Y-76140533D02*
X108235714Y-76283390D01*
X108235714Y-76283390D02*
X107664286Y-76854819D01*
X107664286Y-76854819D02*
X108283333Y-76854819D01*
X108616667Y-75854819D02*
X109283333Y-75854819D01*
X109283333Y-75854819D02*
X108854762Y-76854819D01*
X109854762Y-75854819D02*
X109950000Y-75854819D01*
X109950000Y-75854819D02*
X110045238Y-75902438D01*
X110045238Y-75902438D02*
X110092857Y-75950057D01*
X110092857Y-75950057D02*
X110140476Y-76045295D01*
X110140476Y-76045295D02*
X110188095Y-76235771D01*
X110188095Y-76235771D02*
X110188095Y-76473866D01*
X110188095Y-76473866D02*
X110140476Y-76664342D01*
X110140476Y-76664342D02*
X110092857Y-76759580D01*
X110092857Y-76759580D02*
X110045238Y-76807200D01*
X110045238Y-76807200D02*
X109950000Y-76854819D01*
X109950000Y-76854819D02*
X109854762Y-76854819D01*
X109854762Y-76854819D02*
X109759524Y-76807200D01*
X109759524Y-76807200D02*
X109711905Y-76759580D01*
X109711905Y-76759580D02*
X109664286Y-76664342D01*
X109664286Y-76664342D02*
X109616667Y-76473866D01*
X109616667Y-76473866D02*
X109616667Y-76235771D01*
X109616667Y-76235771D02*
X109664286Y-76045295D01*
X109664286Y-76045295D02*
X109711905Y-75950057D01*
X109711905Y-75950057D02*
X109759524Y-75902438D01*
X109759524Y-75902438D02*
X109854762Y-75854819D01*
X111114761Y-89050057D02*
X111019523Y-89002438D01*
X111019523Y-89002438D02*
X110924285Y-88907200D01*
X110924285Y-88907200D02*
X110781428Y-88764342D01*
X110781428Y-88764342D02*
X110686190Y-88716723D01*
X110686190Y-88716723D02*
X110590952Y-88716723D01*
X110638571Y-88954819D02*
X110543333Y-88907200D01*
X110543333Y-88907200D02*
X110448095Y-88811961D01*
X110448095Y-88811961D02*
X110400476Y-88621485D01*
X110400476Y-88621485D02*
X110400476Y-88288152D01*
X110400476Y-88288152D02*
X110448095Y-88097676D01*
X110448095Y-88097676D02*
X110543333Y-88002438D01*
X110543333Y-88002438D02*
X110638571Y-87954819D01*
X110638571Y-87954819D02*
X110829047Y-87954819D01*
X110829047Y-87954819D02*
X110924285Y-88002438D01*
X110924285Y-88002438D02*
X111019523Y-88097676D01*
X111019523Y-88097676D02*
X111067142Y-88288152D01*
X111067142Y-88288152D02*
X111067142Y-88621485D01*
X111067142Y-88621485D02*
X111019523Y-88811961D01*
X111019523Y-88811961D02*
X110924285Y-88907200D01*
X110924285Y-88907200D02*
X110829047Y-88954819D01*
X110829047Y-88954819D02*
X110638571Y-88954819D01*
X111924285Y-87954819D02*
X111733809Y-87954819D01*
X111733809Y-87954819D02*
X111638571Y-88002438D01*
X111638571Y-88002438D02*
X111590952Y-88050057D01*
X111590952Y-88050057D02*
X111495714Y-88192914D01*
X111495714Y-88192914D02*
X111448095Y-88383390D01*
X111448095Y-88383390D02*
X111448095Y-88764342D01*
X111448095Y-88764342D02*
X111495714Y-88859580D01*
X111495714Y-88859580D02*
X111543333Y-88907200D01*
X111543333Y-88907200D02*
X111638571Y-88954819D01*
X111638571Y-88954819D02*
X111829047Y-88954819D01*
X111829047Y-88954819D02*
X111924285Y-88907200D01*
X111924285Y-88907200D02*
X111971904Y-88859580D01*
X111971904Y-88859580D02*
X112019523Y-88764342D01*
X112019523Y-88764342D02*
X112019523Y-88526247D01*
X112019523Y-88526247D02*
X111971904Y-88431009D01*
X111971904Y-88431009D02*
X111924285Y-88383390D01*
X111924285Y-88383390D02*
X111829047Y-88335771D01*
X111829047Y-88335771D02*
X111638571Y-88335771D01*
X111638571Y-88335771D02*
X111543333Y-88383390D01*
X111543333Y-88383390D02*
X111495714Y-88431009D01*
X111495714Y-88431009D02*
X111448095Y-88526247D01*
X133407142Y-109434580D02*
X133359523Y-109482200D01*
X133359523Y-109482200D02*
X133216666Y-109529819D01*
X133216666Y-109529819D02*
X133121428Y-109529819D01*
X133121428Y-109529819D02*
X132978571Y-109482200D01*
X132978571Y-109482200D02*
X132883333Y-109386961D01*
X132883333Y-109386961D02*
X132835714Y-109291723D01*
X132835714Y-109291723D02*
X132788095Y-109101247D01*
X132788095Y-109101247D02*
X132788095Y-108958390D01*
X132788095Y-108958390D02*
X132835714Y-108767914D01*
X132835714Y-108767914D02*
X132883333Y-108672676D01*
X132883333Y-108672676D02*
X132978571Y-108577438D01*
X132978571Y-108577438D02*
X133121428Y-108529819D01*
X133121428Y-108529819D02*
X133216666Y-108529819D01*
X133216666Y-108529819D02*
X133359523Y-108577438D01*
X133359523Y-108577438D02*
X133407142Y-108625057D01*
X134359523Y-109529819D02*
X133788095Y-109529819D01*
X134073809Y-109529819D02*
X134073809Y-108529819D01*
X134073809Y-108529819D02*
X133978571Y-108672676D01*
X133978571Y-108672676D02*
X133883333Y-108767914D01*
X133883333Y-108767914D02*
X133788095Y-108815533D01*
X134740476Y-108625057D02*
X134788095Y-108577438D01*
X134788095Y-108577438D02*
X134883333Y-108529819D01*
X134883333Y-108529819D02*
X135121428Y-108529819D01*
X135121428Y-108529819D02*
X135216666Y-108577438D01*
X135216666Y-108577438D02*
X135264285Y-108625057D01*
X135264285Y-108625057D02*
X135311904Y-108720295D01*
X135311904Y-108720295D02*
X135311904Y-108815533D01*
X135311904Y-108815533D02*
X135264285Y-108958390D01*
X135264285Y-108958390D02*
X134692857Y-109529819D01*
X134692857Y-109529819D02*
X135311904Y-109529819D01*
X132307143Y-109929819D02*
X132402381Y-109929819D01*
X132402381Y-109929819D02*
X132497619Y-109977438D01*
X132497619Y-109977438D02*
X132545238Y-110025057D01*
X132545238Y-110025057D02*
X132592857Y-110120295D01*
X132592857Y-110120295D02*
X132640476Y-110310771D01*
X132640476Y-110310771D02*
X132640476Y-110548866D01*
X132640476Y-110548866D02*
X132592857Y-110739342D01*
X132592857Y-110739342D02*
X132545238Y-110834580D01*
X132545238Y-110834580D02*
X132497619Y-110882200D01*
X132497619Y-110882200D02*
X132402381Y-110929819D01*
X132402381Y-110929819D02*
X132307143Y-110929819D01*
X132307143Y-110929819D02*
X132211905Y-110882200D01*
X132211905Y-110882200D02*
X132164286Y-110834580D01*
X132164286Y-110834580D02*
X132116667Y-110739342D01*
X132116667Y-110739342D02*
X132069048Y-110548866D01*
X132069048Y-110548866D02*
X132069048Y-110310771D01*
X132069048Y-110310771D02*
X132116667Y-110120295D01*
X132116667Y-110120295D02*
X132164286Y-110025057D01*
X132164286Y-110025057D02*
X132211905Y-109977438D01*
X132211905Y-109977438D02*
X132307143Y-109929819D01*
X133069048Y-110834580D02*
X133116667Y-110882200D01*
X133116667Y-110882200D02*
X133069048Y-110929819D01*
X133069048Y-110929819D02*
X133021429Y-110882200D01*
X133021429Y-110882200D02*
X133069048Y-110834580D01*
X133069048Y-110834580D02*
X133069048Y-110929819D01*
X134069047Y-110929819D02*
X133497619Y-110929819D01*
X133783333Y-110929819D02*
X133783333Y-109929819D01*
X133783333Y-109929819D02*
X133688095Y-110072676D01*
X133688095Y-110072676D02*
X133592857Y-110167914D01*
X133592857Y-110167914D02*
X133497619Y-110215533D01*
X134926190Y-110263152D02*
X134926190Y-110929819D01*
X134497619Y-110263152D02*
X134497619Y-110786961D01*
X134497619Y-110786961D02*
X134545238Y-110882200D01*
X134545238Y-110882200D02*
X134640476Y-110929819D01*
X134640476Y-110929819D02*
X134783333Y-110929819D01*
X134783333Y-110929819D02*
X134878571Y-110882200D01*
X134878571Y-110882200D02*
X134926190Y-110834580D01*
X135735714Y-110406009D02*
X135402381Y-110406009D01*
X135402381Y-110929819D02*
X135402381Y-109929819D01*
X135402381Y-109929819D02*
X135878571Y-109929819D01*
X111457142Y-66754819D02*
X111123809Y-66278628D01*
X110885714Y-66754819D02*
X110885714Y-65754819D01*
X110885714Y-65754819D02*
X111266666Y-65754819D01*
X111266666Y-65754819D02*
X111361904Y-65802438D01*
X111361904Y-65802438D02*
X111409523Y-65850057D01*
X111409523Y-65850057D02*
X111457142Y-65945295D01*
X111457142Y-65945295D02*
X111457142Y-66088152D01*
X111457142Y-66088152D02*
X111409523Y-66183390D01*
X111409523Y-66183390D02*
X111361904Y-66231009D01*
X111361904Y-66231009D02*
X111266666Y-66278628D01*
X111266666Y-66278628D02*
X110885714Y-66278628D01*
X112409523Y-66754819D02*
X111838095Y-66754819D01*
X112123809Y-66754819D02*
X112123809Y-65754819D01*
X112123809Y-65754819D02*
X112028571Y-65897676D01*
X112028571Y-65897676D02*
X111933333Y-65992914D01*
X111933333Y-65992914D02*
X111838095Y-66040533D01*
X112980952Y-66183390D02*
X112885714Y-66135771D01*
X112885714Y-66135771D02*
X112838095Y-66088152D01*
X112838095Y-66088152D02*
X112790476Y-65992914D01*
X112790476Y-65992914D02*
X112790476Y-65945295D01*
X112790476Y-65945295D02*
X112838095Y-65850057D01*
X112838095Y-65850057D02*
X112885714Y-65802438D01*
X112885714Y-65802438D02*
X112980952Y-65754819D01*
X112980952Y-65754819D02*
X113171428Y-65754819D01*
X113171428Y-65754819D02*
X113266666Y-65802438D01*
X113266666Y-65802438D02*
X113314285Y-65850057D01*
X113314285Y-65850057D02*
X113361904Y-65945295D01*
X113361904Y-65945295D02*
X113361904Y-65992914D01*
X113361904Y-65992914D02*
X113314285Y-66088152D01*
X113314285Y-66088152D02*
X113266666Y-66135771D01*
X113266666Y-66135771D02*
X113171428Y-66183390D01*
X113171428Y-66183390D02*
X112980952Y-66183390D01*
X112980952Y-66183390D02*
X112885714Y-66231009D01*
X112885714Y-66231009D02*
X112838095Y-66278628D01*
X112838095Y-66278628D02*
X112790476Y-66373866D01*
X112790476Y-66373866D02*
X112790476Y-66564342D01*
X112790476Y-66564342D02*
X112838095Y-66659580D01*
X112838095Y-66659580D02*
X112885714Y-66707200D01*
X112885714Y-66707200D02*
X112980952Y-66754819D01*
X112980952Y-66754819D02*
X113171428Y-66754819D01*
X113171428Y-66754819D02*
X113266666Y-66707200D01*
X113266666Y-66707200D02*
X113314285Y-66659580D01*
X113314285Y-66659580D02*
X113361904Y-66564342D01*
X113361904Y-66564342D02*
X113361904Y-66373866D01*
X113361904Y-66373866D02*
X113314285Y-66278628D01*
X113314285Y-66278628D02*
X113266666Y-66231009D01*
X113266666Y-66231009D02*
X113171428Y-66183390D01*
X111338095Y-67150057D02*
X111385714Y-67102438D01*
X111385714Y-67102438D02*
X111480952Y-67054819D01*
X111480952Y-67054819D02*
X111719047Y-67054819D01*
X111719047Y-67054819D02*
X111814285Y-67102438D01*
X111814285Y-67102438D02*
X111861904Y-67150057D01*
X111861904Y-67150057D02*
X111909523Y-67245295D01*
X111909523Y-67245295D02*
X111909523Y-67340533D01*
X111909523Y-67340533D02*
X111861904Y-67483390D01*
X111861904Y-67483390D02*
X111290476Y-68054819D01*
X111290476Y-68054819D02*
X111909523Y-68054819D01*
X112528571Y-67054819D02*
X112623809Y-67054819D01*
X112623809Y-67054819D02*
X112719047Y-67102438D01*
X112719047Y-67102438D02*
X112766666Y-67150057D01*
X112766666Y-67150057D02*
X112814285Y-67245295D01*
X112814285Y-67245295D02*
X112861904Y-67435771D01*
X112861904Y-67435771D02*
X112861904Y-67673866D01*
X112861904Y-67673866D02*
X112814285Y-67864342D01*
X112814285Y-67864342D02*
X112766666Y-67959580D01*
X112766666Y-67959580D02*
X112719047Y-68007200D01*
X112719047Y-68007200D02*
X112623809Y-68054819D01*
X112623809Y-68054819D02*
X112528571Y-68054819D01*
X112528571Y-68054819D02*
X112433333Y-68007200D01*
X112433333Y-68007200D02*
X112385714Y-67959580D01*
X112385714Y-67959580D02*
X112338095Y-67864342D01*
X112338095Y-67864342D02*
X112290476Y-67673866D01*
X112290476Y-67673866D02*
X112290476Y-67435771D01*
X112290476Y-67435771D02*
X112338095Y-67245295D01*
X112338095Y-67245295D02*
X112385714Y-67150057D01*
X112385714Y-67150057D02*
X112433333Y-67102438D01*
X112433333Y-67102438D02*
X112528571Y-67054819D01*
X121633333Y-87509580D02*
X121585714Y-87557200D01*
X121585714Y-87557200D02*
X121442857Y-87604819D01*
X121442857Y-87604819D02*
X121347619Y-87604819D01*
X121347619Y-87604819D02*
X121204762Y-87557200D01*
X121204762Y-87557200D02*
X121109524Y-87461961D01*
X121109524Y-87461961D02*
X121061905Y-87366723D01*
X121061905Y-87366723D02*
X121014286Y-87176247D01*
X121014286Y-87176247D02*
X121014286Y-87033390D01*
X121014286Y-87033390D02*
X121061905Y-86842914D01*
X121061905Y-86842914D02*
X121109524Y-86747676D01*
X121109524Y-86747676D02*
X121204762Y-86652438D01*
X121204762Y-86652438D02*
X121347619Y-86604819D01*
X121347619Y-86604819D02*
X121442857Y-86604819D01*
X121442857Y-86604819D02*
X121585714Y-86652438D01*
X121585714Y-86652438D02*
X121633333Y-86700057D01*
X122538095Y-86604819D02*
X122061905Y-86604819D01*
X122061905Y-86604819D02*
X122014286Y-87081009D01*
X122014286Y-87081009D02*
X122061905Y-87033390D01*
X122061905Y-87033390D02*
X122157143Y-86985771D01*
X122157143Y-86985771D02*
X122395238Y-86985771D01*
X122395238Y-86985771D02*
X122490476Y-87033390D01*
X122490476Y-87033390D02*
X122538095Y-87081009D01*
X122538095Y-87081009D02*
X122585714Y-87176247D01*
X122585714Y-87176247D02*
X122585714Y-87414342D01*
X122585714Y-87414342D02*
X122538095Y-87509580D01*
X122538095Y-87509580D02*
X122490476Y-87557200D01*
X122490476Y-87557200D02*
X122395238Y-87604819D01*
X122395238Y-87604819D02*
X122157143Y-87604819D01*
X122157143Y-87604819D02*
X122061905Y-87557200D01*
X122061905Y-87557200D02*
X122014286Y-87509580D01*
X121207143Y-87954819D02*
X121302381Y-87954819D01*
X121302381Y-87954819D02*
X121397619Y-88002438D01*
X121397619Y-88002438D02*
X121445238Y-88050057D01*
X121445238Y-88050057D02*
X121492857Y-88145295D01*
X121492857Y-88145295D02*
X121540476Y-88335771D01*
X121540476Y-88335771D02*
X121540476Y-88573866D01*
X121540476Y-88573866D02*
X121492857Y-88764342D01*
X121492857Y-88764342D02*
X121445238Y-88859580D01*
X121445238Y-88859580D02*
X121397619Y-88907200D01*
X121397619Y-88907200D02*
X121302381Y-88954819D01*
X121302381Y-88954819D02*
X121207143Y-88954819D01*
X121207143Y-88954819D02*
X121111905Y-88907200D01*
X121111905Y-88907200D02*
X121064286Y-88859580D01*
X121064286Y-88859580D02*
X121016667Y-88764342D01*
X121016667Y-88764342D02*
X120969048Y-88573866D01*
X120969048Y-88573866D02*
X120969048Y-88335771D01*
X120969048Y-88335771D02*
X121016667Y-88145295D01*
X121016667Y-88145295D02*
X121064286Y-88050057D01*
X121064286Y-88050057D02*
X121111905Y-88002438D01*
X121111905Y-88002438D02*
X121207143Y-87954819D01*
X121969048Y-88859580D02*
X122016667Y-88907200D01*
X122016667Y-88907200D02*
X121969048Y-88954819D01*
X121969048Y-88954819D02*
X121921429Y-88907200D01*
X121921429Y-88907200D02*
X121969048Y-88859580D01*
X121969048Y-88859580D02*
X121969048Y-88954819D01*
X122969047Y-88954819D02*
X122397619Y-88954819D01*
X122683333Y-88954819D02*
X122683333Y-87954819D01*
X122683333Y-87954819D02*
X122588095Y-88097676D01*
X122588095Y-88097676D02*
X122492857Y-88192914D01*
X122492857Y-88192914D02*
X122397619Y-88240533D01*
X123826190Y-88288152D02*
X123826190Y-88954819D01*
X123397619Y-88288152D02*
X123397619Y-88811961D01*
X123397619Y-88811961D02*
X123445238Y-88907200D01*
X123445238Y-88907200D02*
X123540476Y-88954819D01*
X123540476Y-88954819D02*
X123683333Y-88954819D01*
X123683333Y-88954819D02*
X123778571Y-88907200D01*
X123778571Y-88907200D02*
X123826190Y-88859580D01*
X124635714Y-88431009D02*
X124302381Y-88431009D01*
X124302381Y-88954819D02*
X124302381Y-87954819D01*
X124302381Y-87954819D02*
X124778571Y-87954819D01*
X160254761Y-92575057D02*
X160159523Y-92527438D01*
X160159523Y-92527438D02*
X160064285Y-92432200D01*
X160064285Y-92432200D02*
X159921428Y-92289342D01*
X159921428Y-92289342D02*
X159826190Y-92241723D01*
X159826190Y-92241723D02*
X159730952Y-92241723D01*
X159778571Y-92479819D02*
X159683333Y-92432200D01*
X159683333Y-92432200D02*
X159588095Y-92336961D01*
X159588095Y-92336961D02*
X159540476Y-92146485D01*
X159540476Y-92146485D02*
X159540476Y-91813152D01*
X159540476Y-91813152D02*
X159588095Y-91622676D01*
X159588095Y-91622676D02*
X159683333Y-91527438D01*
X159683333Y-91527438D02*
X159778571Y-91479819D01*
X159778571Y-91479819D02*
X159969047Y-91479819D01*
X159969047Y-91479819D02*
X160064285Y-91527438D01*
X160064285Y-91527438D02*
X160159523Y-91622676D01*
X160159523Y-91622676D02*
X160207142Y-91813152D01*
X160207142Y-91813152D02*
X160207142Y-92146485D01*
X160207142Y-92146485D02*
X160159523Y-92336961D01*
X160159523Y-92336961D02*
X160064285Y-92432200D01*
X160064285Y-92432200D02*
X159969047Y-92479819D01*
X159969047Y-92479819D02*
X159778571Y-92479819D01*
X160540476Y-91479819D02*
X161159523Y-91479819D01*
X161159523Y-91479819D02*
X160826190Y-91860771D01*
X160826190Y-91860771D02*
X160969047Y-91860771D01*
X160969047Y-91860771D02*
X161064285Y-91908390D01*
X161064285Y-91908390D02*
X161111904Y-91956009D01*
X161111904Y-91956009D02*
X161159523Y-92051247D01*
X161159523Y-92051247D02*
X161159523Y-92289342D01*
X161159523Y-92289342D02*
X161111904Y-92384580D01*
X161111904Y-92384580D02*
X161064285Y-92432200D01*
X161064285Y-92432200D02*
X160969047Y-92479819D01*
X160969047Y-92479819D02*
X160683333Y-92479819D01*
X160683333Y-92479819D02*
X160588095Y-92432200D01*
X160588095Y-92432200D02*
X160540476Y-92384580D01*
X141109523Y-69154819D02*
X140538095Y-69154819D01*
X140823809Y-69154819D02*
X140823809Y-68154819D01*
X140823809Y-68154819D02*
X140728571Y-68297676D01*
X140728571Y-68297676D02*
X140633333Y-68392914D01*
X140633333Y-68392914D02*
X140538095Y-68440533D01*
X141728571Y-68154819D02*
X141823809Y-68154819D01*
X141823809Y-68154819D02*
X141919047Y-68202438D01*
X141919047Y-68202438D02*
X141966666Y-68250057D01*
X141966666Y-68250057D02*
X142014285Y-68345295D01*
X142014285Y-68345295D02*
X142061904Y-68535771D01*
X142061904Y-68535771D02*
X142061904Y-68773866D01*
X142061904Y-68773866D02*
X142014285Y-68964342D01*
X142014285Y-68964342D02*
X141966666Y-69059580D01*
X141966666Y-69059580D02*
X141919047Y-69107200D01*
X141919047Y-69107200D02*
X141823809Y-69154819D01*
X141823809Y-69154819D02*
X141728571Y-69154819D01*
X141728571Y-69154819D02*
X141633333Y-69107200D01*
X141633333Y-69107200D02*
X141585714Y-69059580D01*
X141585714Y-69059580D02*
X141538095Y-68964342D01*
X141538095Y-68964342D02*
X141490476Y-68773866D01*
X141490476Y-68773866D02*
X141490476Y-68535771D01*
X141490476Y-68535771D02*
X141538095Y-68345295D01*
X141538095Y-68345295D02*
X141585714Y-68250057D01*
X141585714Y-68250057D02*
X141633333Y-68202438D01*
X141633333Y-68202438D02*
X141728571Y-68154819D01*
X124504761Y-72950057D02*
X124409523Y-72902438D01*
X124409523Y-72902438D02*
X124314285Y-72807200D01*
X124314285Y-72807200D02*
X124171428Y-72664342D01*
X124171428Y-72664342D02*
X124076190Y-72616723D01*
X124076190Y-72616723D02*
X123980952Y-72616723D01*
X124028571Y-72854819D02*
X123933333Y-72807200D01*
X123933333Y-72807200D02*
X123838095Y-72711961D01*
X123838095Y-72711961D02*
X123790476Y-72521485D01*
X123790476Y-72521485D02*
X123790476Y-72188152D01*
X123790476Y-72188152D02*
X123838095Y-71997676D01*
X123838095Y-71997676D02*
X123933333Y-71902438D01*
X123933333Y-71902438D02*
X124028571Y-71854819D01*
X124028571Y-71854819D02*
X124219047Y-71854819D01*
X124219047Y-71854819D02*
X124314285Y-71902438D01*
X124314285Y-71902438D02*
X124409523Y-71997676D01*
X124409523Y-71997676D02*
X124457142Y-72188152D01*
X124457142Y-72188152D02*
X124457142Y-72521485D01*
X124457142Y-72521485D02*
X124409523Y-72711961D01*
X124409523Y-72711961D02*
X124314285Y-72807200D01*
X124314285Y-72807200D02*
X124219047Y-72854819D01*
X124219047Y-72854819D02*
X124028571Y-72854819D01*
X125028571Y-72283390D02*
X124933333Y-72235771D01*
X124933333Y-72235771D02*
X124885714Y-72188152D01*
X124885714Y-72188152D02*
X124838095Y-72092914D01*
X124838095Y-72092914D02*
X124838095Y-72045295D01*
X124838095Y-72045295D02*
X124885714Y-71950057D01*
X124885714Y-71950057D02*
X124933333Y-71902438D01*
X124933333Y-71902438D02*
X125028571Y-71854819D01*
X125028571Y-71854819D02*
X125219047Y-71854819D01*
X125219047Y-71854819D02*
X125314285Y-71902438D01*
X125314285Y-71902438D02*
X125361904Y-71950057D01*
X125361904Y-71950057D02*
X125409523Y-72045295D01*
X125409523Y-72045295D02*
X125409523Y-72092914D01*
X125409523Y-72092914D02*
X125361904Y-72188152D01*
X125361904Y-72188152D02*
X125314285Y-72235771D01*
X125314285Y-72235771D02*
X125219047Y-72283390D01*
X125219047Y-72283390D02*
X125028571Y-72283390D01*
X125028571Y-72283390D02*
X124933333Y-72331009D01*
X124933333Y-72331009D02*
X124885714Y-72378628D01*
X124885714Y-72378628D02*
X124838095Y-72473866D01*
X124838095Y-72473866D02*
X124838095Y-72664342D01*
X124838095Y-72664342D02*
X124885714Y-72759580D01*
X124885714Y-72759580D02*
X124933333Y-72807200D01*
X124933333Y-72807200D02*
X125028571Y-72854819D01*
X125028571Y-72854819D02*
X125219047Y-72854819D01*
X125219047Y-72854819D02*
X125314285Y-72807200D01*
X125314285Y-72807200D02*
X125361904Y-72759580D01*
X125361904Y-72759580D02*
X125409523Y-72664342D01*
X125409523Y-72664342D02*
X125409523Y-72473866D01*
X125409523Y-72473866D02*
X125361904Y-72378628D01*
X125361904Y-72378628D02*
X125314285Y-72331009D01*
X125314285Y-72331009D02*
X125219047Y-72283390D01*
X157538095Y-63654819D02*
X158109523Y-63654819D01*
X157823809Y-64654819D02*
X157823809Y-63654819D01*
X158966666Y-64654819D02*
X158395238Y-64654819D01*
X158680952Y-64654819D02*
X158680952Y-63654819D01*
X158680952Y-63654819D02*
X158585714Y-63797676D01*
X158585714Y-63797676D02*
X158490476Y-63892914D01*
X158490476Y-63892914D02*
X158395238Y-63940533D01*
D12*
X154410000Y-86172936D02*
X154410000Y-87627064D01*
X152590000Y-86172936D02*
X152590000Y-87627064D01*
X114935436Y-83665000D02*
X116389564Y-83665000D01*
X114935436Y-85485000D02*
X116389564Y-85485000D01*
X142040000Y-93062500D02*
X142040000Y-92262500D01*
X142040000Y-93062500D02*
X142040000Y-93862500D01*
X145160000Y-93062500D02*
X145160000Y-92262500D01*
X145160000Y-93062500D02*
X145160000Y-93862500D01*
X142090000Y-94362500D02*
X141760000Y-94602500D01*
X141760000Y-94122500D01*
X142090000Y-94362500D01*
G36*
X142090000Y-94362500D02*
G01*
X141760000Y-94602500D01*
X141760000Y-94122500D01*
X142090000Y-94362500D01*
G37*
X141886252Y-95940000D02*
X140463748Y-95940000D01*
X141886252Y-97760000D02*
X140463748Y-97760000D01*
X139230000Y-104590689D02*
X139230000Y-110346252D01*
X139230000Y-110346252D02*
X141580000Y-110346252D01*
X140294437Y-103526252D02*
X139230000Y-104590689D01*
X140294437Y-103526252D02*
X141580000Y-103526252D01*
X144487500Y-102498752D02*
X144487500Y-103286252D01*
X144881250Y-102892502D02*
X144093750Y-102892502D01*
X144985563Y-103526252D02*
X143700000Y-103526252D01*
X144985563Y-103526252D02*
X146050000Y-104590689D01*
X146050000Y-104590689D02*
X146050000Y-110346252D01*
X146050000Y-110346252D02*
X143700000Y-110346252D01*
X141861252Y-84290000D02*
X140438748Y-84290000D01*
X141861252Y-86110000D02*
X140438748Y-86110000D01*
X156290000Y-87735242D02*
X156290000Y-86064758D01*
X158110000Y-87735242D02*
X158110000Y-86064758D01*
X131077064Y-80090000D02*
X129622936Y-80090000D01*
X131077064Y-81910000D02*
X129622936Y-81910000D01*
X131590000Y-92272936D02*
X131590000Y-93727064D01*
X133410000Y-92272936D02*
X133410000Y-93727064D01*
X120522936Y-74640000D02*
X121977064Y-74640000D01*
X120522936Y-76460000D02*
X121977064Y-76460000D01*
X115390000Y-102726252D02*
X115390000Y-111236252D01*
X115390000Y-102726252D02*
X121890000Y-102726252D01*
X121890000Y-102726252D02*
X121890000Y-111236252D01*
D13*
X127000000Y-65100000D02*
X134400000Y-65100000D01*
X134400000Y-79100000D01*
X127000000Y-79100000D01*
X127000000Y-65100000D01*
D12*
X122290000Y-92360242D02*
X122290000Y-90689758D01*
X124110000Y-92360242D02*
X124110000Y-90689758D01*
X139310436Y-64590000D02*
X140764564Y-64590000D01*
X139310436Y-66410000D02*
X140764564Y-66410000D01*
X116890000Y-71189564D02*
X116890000Y-69735436D01*
X118710000Y-71189564D02*
X118710000Y-69735436D01*
X114527064Y-95490000D02*
X113072936Y-95490000D01*
X114527064Y-97310000D02*
X113072936Y-97310000D01*
X139297936Y-72890000D02*
X140752064Y-72890000D01*
X139297936Y-74710000D02*
X140752064Y-74710000D01*
X124936252Y-77540000D02*
X123513748Y-77540000D01*
X124936252Y-79360000D02*
X123513748Y-79360000D01*
X141910242Y-87490000D02*
X140239758Y-87490000D01*
X141910242Y-89310000D02*
X140239758Y-89310000D01*
X121712500Y-65640000D02*
X120912500Y-65640000D01*
X121712500Y-65640000D02*
X122512500Y-65640000D01*
X121712500Y-68760000D02*
X120912500Y-68760000D01*
X121712500Y-68760000D02*
X122512500Y-68760000D01*
X120412500Y-65690000D02*
X120172500Y-65360000D01*
X120652500Y-65360000D01*
X120412500Y-65690000D01*
G36*
X120412500Y-65690000D02*
G01*
X120172500Y-65360000D01*
X120652500Y-65360000D01*
X120412500Y-65690000D01*
G37*
X117111252Y-65340000D02*
X115688748Y-65340000D01*
X117111252Y-67160000D02*
X115688748Y-67160000D01*
X115985436Y-62140000D02*
X117439564Y-62140000D01*
X115985436Y-63960000D02*
X117439564Y-63960000D01*
X127355000Y-88180000D02*
X127355000Y-83110000D01*
X137125000Y-83110000D02*
X127355000Y-83110000D01*
X137125000Y-88180000D02*
X127355000Y-88180000D01*
X137125000Y-88180000D02*
X137125000Y-83110000D01*
X113990000Y-74139564D02*
X113990000Y-72685436D01*
X115810000Y-74139564D02*
X115810000Y-72685436D01*
X124387500Y-82940000D02*
X123587500Y-82940000D01*
X124387500Y-82940000D02*
X125187500Y-82940000D01*
X124387500Y-86060000D02*
X123587500Y-86060000D01*
X124387500Y-86060000D02*
X125187500Y-86060000D01*
X125927500Y-86340000D02*
X125447500Y-86340000D01*
X125687500Y-86010000D01*
X125927500Y-86340000D01*
G36*
X125927500Y-86340000D02*
G01*
X125447500Y-86340000D01*
X125687500Y-86010000D01*
X125927500Y-86340000D01*
G37*
X106040000Y-87188748D02*
X106040000Y-88611252D01*
X107860000Y-87188748D02*
X107860000Y-88611252D01*
X114527064Y-98340000D02*
X113072936Y-98340000D01*
X114527064Y-100160000D02*
X113072936Y-100160000D01*
X154662500Y-95040000D02*
X153862500Y-95040000D01*
X154662500Y-95040000D02*
X155462500Y-95040000D01*
X154662500Y-98160000D02*
X153862500Y-98160000D01*
X154662500Y-98160000D02*
X155462500Y-98160000D01*
X153362500Y-95090000D02*
X153122500Y-94760000D01*
X153602500Y-94760000D01*
X153362500Y-95090000D01*
G36*
X153362500Y-95090000D02*
G01*
X153122500Y-94760000D01*
X153602500Y-94760000D01*
X153362500Y-95090000D01*
G37*
X155064564Y-99540000D02*
X153610436Y-99540000D01*
X155064564Y-101360000D02*
X153610436Y-101360000D01*
D13*
X166375000Y-70635000D02*
X166375000Y-68185000D01*
X168400000Y-72735000D02*
X170950000Y-72735000D01*
X168550000Y-66060000D02*
X170875000Y-66060000D01*
X173100000Y-68260000D02*
X173100000Y-70435000D01*
D12*
X139310436Y-77890000D02*
X140764564Y-77890000D01*
X139310436Y-79710000D02*
X140764564Y-79710000D01*
X145537500Y-72890000D02*
X149297500Y-72890000D01*
X145537500Y-79710000D02*
X149297500Y-79710000D01*
X149297500Y-72890000D02*
X149297500Y-74150000D01*
X149297500Y-79710000D02*
X149297500Y-78450000D01*
X144257500Y-72990000D02*
X144017500Y-72660000D01*
X144497500Y-72660000D01*
X144257500Y-72990000D01*
G36*
X144257500Y-72990000D02*
G01*
X144017500Y-72660000D01*
X144497500Y-72660000D01*
X144257500Y-72990000D01*
G37*
D14*
X124670000Y-102711252D02*
X128730000Y-102711252D01*
X124670000Y-105761252D02*
X128730000Y-105761252D01*
D12*
X102350000Y-101350000D02*
X102350000Y-101850000D01*
X102590000Y-101590000D02*
X102590000Y-111710000D01*
X103090000Y-101350000D02*
X102350000Y-101350000D01*
X103150000Y-101590000D02*
X103150000Y-111710000D01*
X104250000Y-101590000D02*
X104250000Y-111710000D01*
X112910000Y-101590000D02*
X102590000Y-101590000D01*
X112910000Y-101590000D02*
X112910000Y-111710000D01*
X112910000Y-111710000D02*
X102590000Y-111710000D01*
X106494507Y-104177011D02*
G75*
G02*
X106618000Y-103542000I1555481J27013D01*
G01*
X106618615Y-104757587D02*
G75*
G02*
X106495000Y-104150000I1431385J607587D01*
G01*
X107442258Y-102717891D02*
G75*
G02*
X108658000Y-102718000I607742J-1432109D01*
G01*
X108657742Y-105582109D02*
G75*
G02*
X107442000Y-105582000I-607743J1432112D01*
G01*
X109482109Y-103542258D02*
G75*
G02*
X109482000Y-104758000I-1432109J-607742D01*
G01*
X109605000Y-109150000D02*
G75*
G02*
X106495000Y-109150000I-1555000J0D01*
G01*
X106495000Y-109150000D02*
G75*
G02*
X109605000Y-109150000I1555000J0D01*
G01*
D13*
X102585000Y-70635000D02*
X102585000Y-68185000D01*
X104610000Y-72735000D02*
X107160000Y-72735000D01*
X104760000Y-66060000D02*
X107085000Y-66060000D01*
X109310000Y-68260000D02*
X109310000Y-70435000D01*
D12*
X121260436Y-62540000D02*
X122714564Y-62540000D01*
X121260436Y-64360000D02*
X122714564Y-64360000D01*
D13*
X103950000Y-91300000D02*
X103950000Y-91800000D01*
X103950000Y-91300000D02*
X104450000Y-91300000D01*
X103950000Y-99500000D02*
X103950000Y-99000000D01*
X103950000Y-99500000D02*
X104450000Y-99500000D01*
X109950000Y-91300000D02*
X109450000Y-91300000D01*
X109950000Y-91300000D02*
X109950000Y-91800000D01*
X109950000Y-99500000D02*
X109450000Y-99500000D01*
X109950000Y-99500000D02*
X109950000Y-99000000D01*
D12*
X113932936Y-91490000D02*
X115387064Y-91490000D01*
X113932936Y-93310000D02*
X115387064Y-93310000D01*
X114165000Y-80562500D02*
X114165000Y-79762500D01*
X114165000Y-80562500D02*
X114165000Y-81362500D01*
X117285000Y-80562500D02*
X117285000Y-79762500D01*
X117285000Y-80562500D02*
X117285000Y-81362500D01*
X114215000Y-81862500D02*
X113885000Y-82102500D01*
X113885000Y-81622500D01*
X114215000Y-81862500D01*
G36*
X114215000Y-81862500D02*
G01*
X113885000Y-82102500D01*
X113885000Y-81622500D01*
X114215000Y-81862500D01*
G37*
X145550000Y-64590000D02*
X149310000Y-64590000D01*
X145550000Y-71410000D02*
X149310000Y-71410000D01*
X149310000Y-64590000D02*
X149310000Y-65850000D01*
X149310000Y-71410000D02*
X149310000Y-70150000D01*
X144270000Y-64690000D02*
X144030000Y-64360000D01*
X144510000Y-64360000D01*
X144270000Y-64690000D01*
G36*
X144270000Y-64690000D02*
G01*
X144030000Y-64360000D01*
X144510000Y-64360000D01*
X144270000Y-64690000D01*
G37*
X149889564Y-94690000D02*
X148435436Y-94690000D01*
X149889564Y-96510000D02*
X148435436Y-96510000D01*
X111040000Y-74127064D02*
X111040000Y-72672936D01*
X112860000Y-74127064D02*
X112860000Y-72672936D01*
X112600000Y-88500000D02*
X112600000Y-87700000D01*
X112600000Y-88500000D02*
X112600000Y-89300000D01*
X115720000Y-88500000D02*
X115720000Y-87700000D01*
X115720000Y-88500000D02*
X115720000Y-89300000D01*
X112650000Y-89800000D02*
X112320000Y-90040000D01*
X112320000Y-89560000D01*
X112650000Y-89800000D01*
G36*
X112650000Y-89800000D02*
G01*
X112320000Y-90040000D01*
X112320000Y-89560000D01*
X112650000Y-89800000D01*
G37*
X133090000Y-104988748D02*
X133090000Y-106411252D01*
X134910000Y-104988748D02*
X134910000Y-106411252D01*
X112710436Y-68390000D02*
X114164564Y-68390000D01*
X112710436Y-70210000D02*
X114164564Y-70210000D01*
X118790000Y-87513748D02*
X118790000Y-88936252D01*
X120610000Y-87513748D02*
X120610000Y-88936252D01*
X155640000Y-91987500D02*
X155640000Y-91187500D01*
X155640000Y-91987500D02*
X155640000Y-92787500D01*
X158760000Y-91987500D02*
X158760000Y-91187500D01*
X158760000Y-91987500D02*
X158760000Y-92787500D01*
X155690000Y-93287500D02*
X155360000Y-93527500D01*
X155360000Y-93047500D01*
X155690000Y-93287500D01*
G36*
X155690000Y-93287500D02*
G01*
X155360000Y-93527500D01*
X155360000Y-93047500D01*
X155690000Y-93287500D01*
G37*
X139310436Y-69590000D02*
X140764564Y-69590000D01*
X139310436Y-71410000D02*
X140764564Y-71410000D01*
X120240000Y-71337500D02*
X120240000Y-70537500D01*
X120240000Y-71337500D02*
X120240000Y-72137500D01*
X123360000Y-71337500D02*
X123360000Y-70537500D01*
X123360000Y-71337500D02*
X123360000Y-72137500D01*
X120290000Y-72637500D02*
X119960000Y-72877500D01*
X119960000Y-72397500D01*
X120290000Y-72637500D01*
G36*
X120290000Y-72637500D02*
G01*
X119960000Y-72877500D01*
X119960000Y-72397500D01*
X120290000Y-72637500D01*
G37*
D13*
X162000000Y-79200000D02*
X154600000Y-79200000D01*
X154600000Y-65200000D01*
X162000000Y-65200000D01*
X162000000Y-79200000D01*
%LPC*%
D15*
X170750000Y-55000000D03*
D16*
X153500000Y-85437500D03*
X153500000Y-88362500D03*
D17*
X114200000Y-84575000D03*
X117125000Y-84575000D03*
D18*
X142650000Y-94200000D03*
X143600000Y-94200000D03*
X144550000Y-94200000D03*
X144550000Y-91925000D03*
X142650000Y-91925000D03*
D19*
X142650000Y-96850000D03*
X139700000Y-96850000D03*
D20*
X142640000Y-104236252D03*
X142640000Y-109636252D03*
D19*
X142625000Y-85200000D03*
X139675000Y-85200000D03*
D21*
X157200000Y-88475000D03*
X157200000Y-85325000D03*
D22*
X131812500Y-81000000D03*
X128887500Y-81000000D03*
D16*
X132500000Y-91537500D03*
X132500000Y-94462500D03*
D17*
X119787500Y-75550000D03*
X122712500Y-75550000D03*
D23*
X118640000Y-104236252D03*
X118640000Y-111036252D03*
D24*
X125700000Y-69100000D03*
X125700000Y-75100000D03*
X135700000Y-75100000D03*
X135700000Y-72100000D03*
X135700000Y-69100000D03*
D21*
X123200000Y-93100000D03*
X123200000Y-89950000D03*
D17*
X138575000Y-65500000D03*
X141500000Y-65500000D03*
D25*
X117800000Y-71925000D03*
X117800000Y-69000000D03*
D22*
X115262500Y-96400000D03*
X112337500Y-96400000D03*
D17*
X138562500Y-73800000D03*
X141487500Y-73800000D03*
D19*
X125700000Y-78450000D03*
X122750000Y-78450000D03*
D26*
X142650000Y-88400000D03*
X139500000Y-88400000D03*
D27*
X120575000Y-66250000D03*
X120575000Y-68150000D03*
X122850000Y-67200000D03*
D19*
X117875000Y-66250000D03*
X114925000Y-66250000D03*
D17*
X115250000Y-63050000D03*
X118175000Y-63050000D03*
D28*
X129700000Y-85650000D03*
X132240000Y-85650000D03*
X134780000Y-85650000D03*
D25*
X114900000Y-74875000D03*
X114900000Y-71950000D03*
D29*
X125525000Y-85450000D03*
X125525000Y-83550000D03*
X123250000Y-84500000D03*
D30*
X106950000Y-86425000D03*
X106950000Y-89375000D03*
D15*
X105000000Y-55000000D03*
X170700000Y-121000000D03*
D22*
X115262500Y-99250000D03*
X112337500Y-99250000D03*
D27*
X153525000Y-95650000D03*
X153525000Y-97550000D03*
X155800000Y-96600000D03*
D22*
X155800000Y-100450000D03*
X152875000Y-100450000D03*
D31*
X167160000Y-66870000D03*
X167160000Y-71950000D03*
X172240000Y-66870000D03*
X172240000Y-71950000D03*
D32*
X169800000Y-69335000D03*
D17*
X138575000Y-78800000D03*
X141500000Y-78800000D03*
D33*
X144237500Y-74000000D03*
X144237500Y-76300000D03*
X144237500Y-78600000D03*
D34*
X150537500Y-76300000D03*
D35*
X124910000Y-104236252D03*
X128490000Y-104236252D03*
D36*
X108050000Y-104150000D03*
D37*
X108050000Y-109150000D03*
D31*
X103370000Y-66870000D03*
X103370000Y-71950000D03*
X108450000Y-66870000D03*
X108450000Y-71950000D03*
D32*
X106010000Y-69335000D03*
D17*
X120525000Y-63450000D03*
X123450000Y-63450000D03*
D38*
X106950000Y-93900000D03*
X106950000Y-96400000D03*
D17*
X113197500Y-92400000D03*
X116122500Y-92400000D03*
D18*
X114775000Y-81700000D03*
X116675000Y-81700000D03*
X115725000Y-79425000D03*
D33*
X144250000Y-65700000D03*
X144250000Y-68000000D03*
X144250000Y-70300000D03*
D34*
X150550000Y-68000000D03*
D22*
X150625000Y-95600000D03*
X147700000Y-95600000D03*
D25*
X111950000Y-74862500D03*
X111950000Y-71937500D03*
D18*
X113210000Y-89637500D03*
X115110000Y-89637500D03*
X114160000Y-87362500D03*
D15*
X105000000Y-121000000D03*
D30*
X134000000Y-104225000D03*
X134000000Y-107175000D03*
D17*
X111975000Y-69300000D03*
X114900000Y-69300000D03*
D30*
X119700000Y-86750000D03*
X119700000Y-89700000D03*
D18*
X156250000Y-93125000D03*
X158150000Y-93125000D03*
X157200000Y-90850000D03*
D17*
X138575000Y-70500000D03*
X141500000Y-70500000D03*
D18*
X120850000Y-72475000D03*
X122750000Y-72475000D03*
X121800000Y-70200000D03*
D24*
X163300000Y-75200000D03*
X163300000Y-69200000D03*
X153300000Y-69200000D03*
X153300000Y-72200000D03*
X153300000Y-75200000D03*
%LPD*%
M02*
