G04 #@! TF.GenerationSoftware,KiCad,Pcbnew,8.0.8*
G04 #@! TF.CreationDate,2025-01-19T17:42:09-05:00*
G04 #@! TF.ProjectId,t41_2_low_power_amplifier,7434315f-325f-46c6-9f77-5f706f776572,rev?*
G04 #@! TF.SameCoordinates,Original*
G04 #@! TF.FileFunction,Soldermask,Bot*
G04 #@! TF.FilePolarity,Negative*
%FSLAX46Y46*%
G04 Gerber Fmt 4.6, Leading zero omitted, Abs format (unit mm)*
G04 Created by KiCad (PCBNEW 8.0.8) date 2025-01-19 17:42:09*
%MOMM*%
%LPD*%
G01*
G04 APERTURE LIST*
G04 Aperture macros list*
%AMRoundRect*
0 Rectangle with rounded corners*
0 $1 Rounding radius*
0 $2 $3 $4 $5 $6 $7 $8 $9 X,Y pos of 4 corners*
0 Add a 4 corners polygon primitive as box body*
4,1,4,$2,$3,$4,$5,$6,$7,$8,$9,$2,$3,0*
0 Add four circle primitives for the rounded corners*
1,1,$1+$1,$2,$3*
1,1,$1+$1,$4,$5*
1,1,$1+$1,$6,$7*
1,1,$1+$1,$8,$9*
0 Add four rect primitives between the rounded corners*
20,1,$1+$1,$2,$3,$4,$5,0*
20,1,$1+$1,$4,$5,$6,$7,0*
20,1,$1+$1,$6,$7,$8,$9,0*
20,1,$1+$1,$8,$9,$2,$3,0*%
G04 Aperture macros list end*
%ADD10C,2.000000*%
%ADD11C,2.200000*%
%ADD12C,7.500000*%
%ADD13C,1.440000*%
%ADD14C,2.600000*%
%ADD15C,2.500000*%
%ADD16R,2.400000X2.400000*%
%ADD17C,2.400000*%
%ADD18C,2.100000*%
%ADD19RoundRect,0.250000X0.325000X0.650000X-0.325000X0.650000X-0.325000X-0.650000X0.325000X-0.650000X0*%
%ADD20RoundRect,0.250000X-0.325000X-0.650000X0.325000X-0.650000X0.325000X0.650000X-0.325000X0.650000X0*%
%ADD21RoundRect,0.250000X0.312500X0.625000X-0.312500X0.625000X-0.312500X-0.625000X0.312500X-0.625000X0*%
G04 APERTURE END LIST*
D10*
X157500000Y-75200000D03*
X157500000Y-69200000D03*
X150500000Y-69200000D03*
D11*
X150500000Y-72200000D03*
D10*
X150500000Y-75200000D03*
X125700000Y-69100000D03*
X125700000Y-75100000D03*
X132700000Y-75100000D03*
D11*
X132700000Y-72100000D03*
D10*
X132700000Y-69100000D03*
D12*
X165000000Y-55000000D03*
D13*
X128700000Y-83650000D03*
X128700000Y-86190000D03*
X128700000Y-88730000D03*
D12*
X105000000Y-55000000D03*
X165000000Y-111000000D03*
D14*
X161920000Y-64000000D03*
X161920000Y-69080000D03*
X167000000Y-64000000D03*
X167000000Y-69080000D03*
D15*
X164560000Y-66465000D03*
D16*
X109000000Y-94700000D03*
D17*
X109000000Y-99700000D03*
D14*
X103370000Y-66870000D03*
X103370000Y-71950000D03*
X108450000Y-66870000D03*
X108450000Y-71950000D03*
D15*
X106010000Y-69335000D03*
D18*
X106950000Y-84450000D03*
X106950000Y-86950000D03*
D12*
X105000000Y-111000000D03*
D19*
X130400000Y-72100000D03*
X127450000Y-72100000D03*
D20*
X152725000Y-72200000D03*
X155675000Y-72200000D03*
X143000000Y-70900000D03*
X145950000Y-70900000D03*
X142887500Y-79150000D03*
X145837500Y-79150000D03*
D21*
X144075000Y-68000000D03*
X141150000Y-68000000D03*
X144100000Y-76300000D03*
X141175000Y-76300000D03*
M02*
