G04 #@! TF.GenerationSoftware,KiCad,Pcbnew,8.0.8*
G04 #@! TF.CreationDate,2025-01-19T17:42:08-05:00*
G04 #@! TF.ProjectId,t41_2_low_power_amplifier,7434315f-325f-46c6-9f77-5f706f776572,rev?*
G04 #@! TF.SameCoordinates,Original*
G04 #@! TF.FileFunction,Copper,L2,Bot*
G04 #@! TF.FilePolarity,Positive*
%FSLAX46Y46*%
G04 Gerber Fmt 4.6, Leading zero omitted, Abs format (unit mm)*
G04 Created by KiCad (PCBNEW 8.0.8) date 2025-01-19 17:42:08*
%MOMM*%
%LPD*%
G01*
G04 APERTURE LIST*
G04 Aperture macros list*
%AMRoundRect*
0 Rectangle with rounded corners*
0 $1 Rounding radius*
0 $2 $3 $4 $5 $6 $7 $8 $9 X,Y pos of 4 corners*
0 Add a 4 corners polygon primitive as box body*
4,1,4,$2,$3,$4,$5,$6,$7,$8,$9,$2,$3,0*
0 Add four circle primitives for the rounded corners*
1,1,$1+$1,$2,$3*
1,1,$1+$1,$4,$5*
1,1,$1+$1,$6,$7*
1,1,$1+$1,$8,$9*
0 Add four rect primitives between the rounded corners*
20,1,$1+$1,$2,$3,$4,$5,0*
20,1,$1+$1,$4,$5,$6,$7,0*
20,1,$1+$1,$6,$7,$8,$9,0*
20,1,$1+$1,$8,$9,$2,$3,0*%
G04 Aperture macros list end*
G04 #@! TA.AperFunction,ComponentPad*
%ADD10C,2.000000*%
G04 #@! TD*
G04 #@! TA.AperFunction,ComponentPad*
%ADD11C,2.200000*%
G04 #@! TD*
G04 #@! TA.AperFunction,ComponentPad*
%ADD12C,7.500000*%
G04 #@! TD*
G04 #@! TA.AperFunction,ComponentPad*
%ADD13C,1.440000*%
G04 #@! TD*
G04 #@! TA.AperFunction,ComponentPad*
%ADD14C,2.600000*%
G04 #@! TD*
G04 #@! TA.AperFunction,ComponentPad*
%ADD15C,2.500000*%
G04 #@! TD*
G04 #@! TA.AperFunction,ComponentPad*
%ADD16R,2.400000X2.400000*%
G04 #@! TD*
G04 #@! TA.AperFunction,ComponentPad*
%ADD17C,2.400000*%
G04 #@! TD*
G04 #@! TA.AperFunction,ComponentPad*
%ADD18C,2.100000*%
G04 #@! TD*
G04 #@! TA.AperFunction,SMDPad,CuDef*
%ADD19RoundRect,0.250000X0.325000X0.650000X-0.325000X0.650000X-0.325000X-0.650000X0.325000X-0.650000X0*%
G04 #@! TD*
G04 #@! TA.AperFunction,SMDPad,CuDef*
%ADD20RoundRect,0.250000X-0.325000X-0.650000X0.325000X-0.650000X0.325000X0.650000X-0.325000X0.650000X0*%
G04 #@! TD*
G04 #@! TA.AperFunction,SMDPad,CuDef*
%ADD21RoundRect,0.250000X0.312500X0.625000X-0.312500X0.625000X-0.312500X-0.625000X0.312500X-0.625000X0*%
G04 #@! TD*
G04 #@! TA.AperFunction,ViaPad*
%ADD22C,1.000000*%
G04 #@! TD*
G04 #@! TA.AperFunction,Conductor*
%ADD23C,0.500000*%
G04 #@! TD*
G04 #@! TA.AperFunction,Conductor*
%ADD24C,1.000000*%
G04 #@! TD*
G04 #@! TA.AperFunction,Conductor*
%ADD25C,0.750000*%
G04 #@! TD*
G04 #@! TA.AperFunction,Conductor*
%ADD26C,0.250000*%
G04 #@! TD*
G04 APERTURE END LIST*
D10*
X157500000Y-75200000D03*
X157500000Y-69200000D03*
X150500000Y-69200000D03*
D11*
X150500000Y-72200000D03*
D10*
X150500000Y-75200000D03*
X125700000Y-69100000D03*
X125700000Y-75100000D03*
X132700000Y-75100000D03*
D11*
X132700000Y-72100000D03*
D10*
X132700000Y-69100000D03*
D12*
X165000000Y-55000000D03*
D13*
X128700000Y-83650000D03*
X128700000Y-86190000D03*
X128700000Y-88730000D03*
D12*
X105000000Y-55000000D03*
X165000000Y-111000000D03*
D14*
X161920000Y-64000000D03*
X161920000Y-69080000D03*
X167000000Y-64000000D03*
X167000000Y-69080000D03*
D15*
X164560000Y-66465000D03*
D16*
X109000000Y-94700000D03*
D17*
X109000000Y-99700000D03*
D14*
X103370000Y-66870000D03*
X103370000Y-71950000D03*
X108450000Y-66870000D03*
X108450000Y-71950000D03*
D15*
X106010000Y-69335000D03*
D18*
X106950000Y-84450000D03*
X106950000Y-86950000D03*
D12*
X105000000Y-111000000D03*
D19*
X130400000Y-72100000D03*
X127450000Y-72100000D03*
D20*
X152725000Y-72200000D03*
X155675000Y-72200000D03*
X143000000Y-70900000D03*
X145950000Y-70900000D03*
X142887500Y-79150000D03*
X145837500Y-79150000D03*
D21*
X144075000Y-68000000D03*
X141150000Y-68000000D03*
X144100000Y-76300000D03*
X141175000Y-76300000D03*
D22*
X114900000Y-76700000D03*
X143450000Y-65650000D03*
X148700000Y-86650000D03*
X131400000Y-92600000D03*
X113350000Y-63050000D03*
X147500000Y-65000000D03*
X115500000Y-83900000D03*
X141300000Y-63650000D03*
X142900000Y-95575000D03*
X139800000Y-72150000D03*
X130800000Y-74275000D03*
X134075000Y-70600000D03*
X125500000Y-72100000D03*
X152350000Y-70225000D03*
X125200000Y-62800000D03*
X135600000Y-63350000D03*
X147225000Y-73325000D03*
X120850000Y-78450000D03*
X130850000Y-70100000D03*
X143200000Y-92075000D03*
X157400000Y-72200000D03*
X111950000Y-76700000D03*
X155000000Y-83900000D03*
X152000000Y-83900000D03*
X125450000Y-83350000D03*
X119400000Y-73400000D03*
X160200000Y-92975000D03*
X125500000Y-86450000D03*
X118075000Y-92400000D03*
X144475000Y-72450000D03*
X151450000Y-89125000D03*
X134200000Y-73600000D03*
X130000000Y-78850000D03*
X148250000Y-80600000D03*
X143325000Y-74400000D03*
X148950000Y-73650000D03*
X148300000Y-95550000D03*
X117950000Y-75550000D03*
X115500000Y-86300000D03*
X123225000Y-70700000D03*
X118600000Y-104250000D03*
X106975000Y-75275000D03*
X152000000Y-67725000D03*
X148350000Y-72250000D03*
X149625000Y-77125000D03*
X124600000Y-67300000D03*
X154200000Y-73725000D03*
X138600000Y-81000000D03*
X119550000Y-61575000D03*
X149325000Y-65500000D03*
X141200000Y-80550000D03*
X149050000Y-70700000D03*
X138100000Y-103350000D03*
X149625000Y-67300000D03*
X127600000Y-70000000D03*
X155300000Y-89975000D03*
X137050000Y-72150000D03*
X149325000Y-78700000D03*
X152000000Y-76700000D03*
X119350000Y-70450000D03*
X130300000Y-96500000D03*
X155625000Y-70175000D03*
X144350000Y-80900000D03*
X124100000Y-76900000D03*
X132350000Y-81950000D03*
X133700000Y-65500000D03*
X116450000Y-64700000D03*
X145575000Y-74200000D03*
X145550000Y-65650000D03*
X116850000Y-73650000D03*
X133850000Y-78775000D03*
X127600000Y-74250000D03*
X147550000Y-70900000D03*
X147537500Y-79150000D03*
X139300000Y-68000000D03*
X139287500Y-76300000D03*
X153600000Y-94100000D03*
X125850000Y-90500000D03*
D23*
X143000000Y-70900000D02*
X143000000Y-69075000D01*
X143000000Y-69075000D02*
X144075000Y-68000000D01*
D24*
X130400000Y-72100000D02*
X132700000Y-72100000D01*
D23*
X147550000Y-70900000D02*
X145950000Y-70900000D01*
X142887500Y-79150000D02*
X142887500Y-77512500D01*
X142887500Y-77512500D02*
X144100000Y-76300000D01*
X147537500Y-79150000D02*
X145837500Y-79150000D01*
D25*
X139300000Y-68000000D02*
X141150000Y-68000000D01*
X139287500Y-76300000D02*
X141175000Y-76300000D01*
D23*
X127150000Y-90500000D02*
X130750000Y-94100000D01*
X125850000Y-90500000D02*
X115900000Y-90500000D01*
X130800000Y-94100000D02*
X153600000Y-94100000D01*
X125850000Y-90500000D02*
X127150000Y-90500000D01*
D26*
X130750000Y-94100000D02*
X130800000Y-94100000D01*
D23*
X115900000Y-90500000D02*
X109850000Y-84450000D01*
X109850000Y-84450000D02*
X106950000Y-84450000D01*
D24*
X152725000Y-72200000D02*
X150500000Y-72200000D01*
G04 #@! TA.AperFunction,Conductor*
G36*
X169492539Y-50520185D02*
G01*
X169538294Y-50572989D01*
X169549500Y-50624500D01*
X169549500Y-115375500D01*
X169529815Y-115442539D01*
X169477011Y-115488294D01*
X169425500Y-115499500D01*
X100624500Y-115499500D01*
X100557461Y-115479815D01*
X100511706Y-115427011D01*
X100500500Y-115375500D01*
X100500500Y-111072626D01*
X100520185Y-111005587D01*
X100523400Y-111002801D01*
X100721054Y-111002801D01*
X100743477Y-111037691D01*
X100748360Y-111066726D01*
X100764447Y-111404450D01*
X100822071Y-111805231D01*
X100917531Y-112198722D01*
X100917534Y-112198733D01*
X101049956Y-112581340D01*
X101049966Y-112581365D01*
X101218168Y-112949675D01*
X101420621Y-113300335D01*
X101420627Y-113300343D01*
X101655485Y-113630154D01*
X101822985Y-113823460D01*
X103313098Y-112333347D01*
X103380076Y-112420635D01*
X103579365Y-112619924D01*
X103666650Y-112686900D01*
X102174928Y-114178622D01*
X102213676Y-114215568D01*
X102213695Y-114215585D01*
X102531968Y-114465877D01*
X102872594Y-114684782D01*
X103232485Y-114870319D01*
X103608383Y-115020806D01*
X103608395Y-115020810D01*
X103996882Y-115134880D01*
X103996899Y-115134884D01*
X104394460Y-115211508D01*
X104394472Y-115211510D01*
X104797554Y-115250000D01*
X105202446Y-115250000D01*
X105605527Y-115211510D01*
X105605539Y-115211508D01*
X106003100Y-115134884D01*
X106003117Y-115134880D01*
X106391604Y-115020810D01*
X106391616Y-115020806D01*
X106767507Y-114870322D01*
X106767511Y-114870320D01*
X107127406Y-114684782D01*
X107468031Y-114465877D01*
X107786314Y-114215578D01*
X107825069Y-114178622D01*
X106333348Y-112686901D01*
X106420635Y-112619924D01*
X106619924Y-112420635D01*
X106686901Y-112333348D01*
X108177012Y-113823459D01*
X108344512Y-113630156D01*
X108344523Y-113630143D01*
X108579372Y-113300343D01*
X108579378Y-113300335D01*
X108781831Y-112949675D01*
X108950033Y-112581365D01*
X108950043Y-112581340D01*
X109082465Y-112198733D01*
X109082468Y-112198722D01*
X109177928Y-111805231D01*
X109235552Y-111404450D01*
X109254818Y-111000000D01*
X160745181Y-111000000D01*
X160764447Y-111404450D01*
X160822071Y-111805231D01*
X160917531Y-112198722D01*
X160917534Y-112198733D01*
X161049956Y-112581340D01*
X161049966Y-112581365D01*
X161218168Y-112949675D01*
X161420621Y-113300335D01*
X161420627Y-113300343D01*
X161655485Y-113630154D01*
X161822985Y-113823460D01*
X163313098Y-112333347D01*
X163380076Y-112420635D01*
X163579365Y-112619924D01*
X163666650Y-112686900D01*
X162174928Y-114178622D01*
X162213676Y-114215568D01*
X162213695Y-114215585D01*
X162531968Y-114465877D01*
X162872594Y-114684782D01*
X163232485Y-114870319D01*
X163608383Y-115020806D01*
X163608395Y-115020810D01*
X163996882Y-115134880D01*
X163996899Y-115134884D01*
X164394460Y-115211508D01*
X164394472Y-115211510D01*
X164797554Y-115250000D01*
X165202446Y-115250000D01*
X165605527Y-115211510D01*
X165605539Y-115211508D01*
X166003100Y-115134884D01*
X166003117Y-115134880D01*
X166391604Y-115020810D01*
X166391616Y-115020806D01*
X166767507Y-114870322D01*
X166767511Y-114870320D01*
X167127406Y-114684782D01*
X167468031Y-114465877D01*
X167786314Y-114215578D01*
X167825069Y-114178622D01*
X166333348Y-112686901D01*
X166420635Y-112619924D01*
X166619924Y-112420635D01*
X166686901Y-112333348D01*
X168177012Y-113823459D01*
X168344512Y-113630156D01*
X168344523Y-113630143D01*
X168579372Y-113300343D01*
X168579378Y-113300335D01*
X168781831Y-112949675D01*
X168950033Y-112581365D01*
X168950043Y-112581340D01*
X169082465Y-112198733D01*
X169082468Y-112198722D01*
X169177928Y-111805231D01*
X169235552Y-111404450D01*
X169254818Y-111000000D01*
X169235552Y-110595549D01*
X169177928Y-110194768D01*
X169082468Y-109801277D01*
X169082465Y-109801266D01*
X168950043Y-109418659D01*
X168950033Y-109418634D01*
X168781831Y-109050324D01*
X168579378Y-108699664D01*
X168579372Y-108699656D01*
X168344523Y-108369856D01*
X168344512Y-108369843D01*
X168177013Y-108176538D01*
X166686900Y-109666650D01*
X166619924Y-109579365D01*
X166420635Y-109380076D01*
X166333347Y-109313098D01*
X167825070Y-107821376D01*
X167786323Y-107784431D01*
X167786304Y-107784414D01*
X167468031Y-107534122D01*
X167127406Y-107315217D01*
X166767511Y-107129679D01*
X166767507Y-107129677D01*
X166391616Y-106979193D01*
X166391604Y-106979189D01*
X166003117Y-106865119D01*
X166003100Y-106865115D01*
X165605539Y-106788491D01*
X165605527Y-106788489D01*
X165202446Y-106750000D01*
X164797554Y-106750000D01*
X164394472Y-106788489D01*
X164394460Y-106788491D01*
X163996899Y-106865115D01*
X163996882Y-106865119D01*
X163608395Y-106979189D01*
X163608383Y-106979193D01*
X163232485Y-107129680D01*
X162872594Y-107315217D01*
X162531968Y-107534122D01*
X162213685Y-107784421D01*
X162213673Y-107784432D01*
X162174929Y-107821375D01*
X162174929Y-107821376D01*
X163666651Y-109313098D01*
X163579365Y-109380076D01*
X163380076Y-109579365D01*
X163313098Y-109666651D01*
X161822986Y-108176539D01*
X161655485Y-108369845D01*
X161420627Y-108699656D01*
X161420621Y-108699664D01*
X161218168Y-109050324D01*
X161049966Y-109418634D01*
X161049956Y-109418659D01*
X160917534Y-109801266D01*
X160917531Y-109801277D01*
X160822071Y-110194768D01*
X160764447Y-110595549D01*
X160745181Y-111000000D01*
X109254818Y-111000000D01*
X109235552Y-110595549D01*
X109177928Y-110194768D01*
X109082468Y-109801277D01*
X109082465Y-109801266D01*
X108950043Y-109418659D01*
X108950033Y-109418634D01*
X108781831Y-109050324D01*
X108579378Y-108699664D01*
X108579372Y-108699656D01*
X108344523Y-108369856D01*
X108344512Y-108369843D01*
X108177013Y-108176538D01*
X106686900Y-109666650D01*
X106619924Y-109579365D01*
X106420635Y-109380076D01*
X106333347Y-109313098D01*
X107825070Y-107821376D01*
X107786323Y-107784431D01*
X107786304Y-107784414D01*
X107468031Y-107534122D01*
X107127406Y-107315217D01*
X106767511Y-107129679D01*
X106767507Y-107129677D01*
X106391616Y-106979193D01*
X106391604Y-106979189D01*
X106003117Y-106865119D01*
X106003100Y-106865115D01*
X105605539Y-106788491D01*
X105605527Y-106788489D01*
X105202446Y-106750000D01*
X104797554Y-106750000D01*
X104394472Y-106788489D01*
X104394460Y-106788491D01*
X103996899Y-106865115D01*
X103996882Y-106865119D01*
X103608395Y-106979189D01*
X103608383Y-106979193D01*
X103232485Y-107129680D01*
X102872594Y-107315217D01*
X102531968Y-107534122D01*
X102213685Y-107784421D01*
X102213673Y-107784432D01*
X102174929Y-107821375D01*
X102174929Y-107821376D01*
X103666651Y-109313098D01*
X103579365Y-109380076D01*
X103380076Y-109579365D01*
X103313098Y-109666651D01*
X101822986Y-108176539D01*
X101655485Y-108369845D01*
X101420627Y-108699656D01*
X101420621Y-108699664D01*
X101218168Y-109050324D01*
X101049966Y-109418634D01*
X101049956Y-109418659D01*
X100917534Y-109801266D01*
X100917531Y-109801277D01*
X100822071Y-110194768D01*
X100764447Y-110595549D01*
X100748360Y-110933273D01*
X100725507Y-110999300D01*
X100721054Y-111002801D01*
X100523400Y-111002801D01*
X100528242Y-110998605D01*
X100503995Y-110956607D01*
X100500500Y-110927373D01*
X100500500Y-99699995D01*
X107295233Y-99699995D01*
X107295233Y-99700004D01*
X107314273Y-99954079D01*
X107370968Y-100202477D01*
X107370973Y-100202494D01*
X107464058Y-100439671D01*
X107464057Y-100439671D01*
X107591457Y-100660332D01*
X107633452Y-100712993D01*
X108435387Y-99911058D01*
X108440889Y-99931591D01*
X108519881Y-100068408D01*
X108631592Y-100180119D01*
X108768409Y-100259111D01*
X108788940Y-100264612D01*
X107986813Y-101066737D01*
X108147623Y-101176375D01*
X108147624Y-101176376D01*
X108377176Y-101286921D01*
X108377174Y-101286921D01*
X108620652Y-101362024D01*
X108620658Y-101362026D01*
X108872595Y-101399999D01*
X108872604Y-101400000D01*
X109127396Y-101400000D01*
X109127404Y-101399999D01*
X109379341Y-101362026D01*
X109379347Y-101362024D01*
X109622824Y-101286921D01*
X109852381Y-101176373D01*
X110013185Y-101066737D01*
X109211059Y-100264612D01*
X109231591Y-100259111D01*
X109368408Y-100180119D01*
X109480119Y-100068408D01*
X109559111Y-99931591D01*
X109564612Y-99911060D01*
X110366545Y-100712993D01*
X110408545Y-100660327D01*
X110535941Y-100439671D01*
X110629026Y-100202494D01*
X110629031Y-100202477D01*
X110685726Y-99954079D01*
X110704767Y-99700004D01*
X110704767Y-99699995D01*
X110685726Y-99445920D01*
X110629031Y-99197522D01*
X110629026Y-99197505D01*
X110535941Y-98960328D01*
X110535942Y-98960328D01*
X110408544Y-98739671D01*
X110366546Y-98687006D01*
X109564612Y-99488939D01*
X109559111Y-99468409D01*
X109480119Y-99331592D01*
X109368408Y-99219881D01*
X109231591Y-99140889D01*
X109211058Y-99135387D01*
X110013185Y-98333261D01*
X109852377Y-98223624D01*
X109852376Y-98223623D01*
X109622823Y-98113078D01*
X109622825Y-98113078D01*
X109379347Y-98037975D01*
X109379341Y-98037973D01*
X109127404Y-98000000D01*
X108872595Y-98000000D01*
X108620658Y-98037973D01*
X108620652Y-98037975D01*
X108377175Y-98113078D01*
X108147624Y-98223623D01*
X108147616Y-98223628D01*
X107986813Y-98333261D01*
X108788940Y-99135387D01*
X108768409Y-99140889D01*
X108631592Y-99219881D01*
X108519881Y-99331592D01*
X108440889Y-99468409D01*
X108435387Y-99488940D01*
X107633453Y-98687006D01*
X107591455Y-98739670D01*
X107464058Y-98960328D01*
X107370973Y-99197505D01*
X107370968Y-99197522D01*
X107314273Y-99445920D01*
X107295233Y-99699995D01*
X100500500Y-99699995D01*
X100500500Y-93452135D01*
X107299500Y-93452135D01*
X107299500Y-95947870D01*
X107299501Y-95947876D01*
X107305908Y-96007483D01*
X107356202Y-96142328D01*
X107356206Y-96142335D01*
X107442452Y-96257544D01*
X107442455Y-96257547D01*
X107557664Y-96343793D01*
X107557671Y-96343797D01*
X107692517Y-96394091D01*
X107692516Y-96394091D01*
X107699444Y-96394835D01*
X107752127Y-96400500D01*
X110247872Y-96400499D01*
X110307483Y-96394091D01*
X110442331Y-96343796D01*
X110557546Y-96257546D01*
X110643796Y-96142331D01*
X110694091Y-96007483D01*
X110700500Y-95947873D01*
X110700499Y-93452128D01*
X110694091Y-93392517D01*
X110646189Y-93264086D01*
X110643797Y-93257671D01*
X110643793Y-93257664D01*
X110557547Y-93142455D01*
X110557544Y-93142452D01*
X110442335Y-93056206D01*
X110442328Y-93056202D01*
X110307482Y-93005908D01*
X110307483Y-93005908D01*
X110247883Y-92999501D01*
X110247881Y-92999500D01*
X110247873Y-92999500D01*
X110247864Y-92999500D01*
X107752129Y-92999500D01*
X107752123Y-92999501D01*
X107692516Y-93005908D01*
X107557671Y-93056202D01*
X107557664Y-93056206D01*
X107442455Y-93142452D01*
X107442452Y-93142455D01*
X107356206Y-93257664D01*
X107356202Y-93257671D01*
X107305908Y-93392517D01*
X107299501Y-93452116D01*
X107299501Y-93452123D01*
X107299500Y-93452135D01*
X100500500Y-93452135D01*
X100500500Y-84450000D01*
X105394706Y-84450000D01*
X105413853Y-84693297D01*
X105413853Y-84693300D01*
X105413854Y-84693302D01*
X105457515Y-84875162D01*
X105470830Y-84930619D01*
X105564222Y-85156089D01*
X105691737Y-85364173D01*
X105691738Y-85364176D01*
X105691741Y-85364179D01*
X105850241Y-85549759D01*
X106035821Y-85708259D01*
X106090435Y-85741726D01*
X106113325Y-85759772D01*
X106779766Y-86426212D01*
X106737708Y-86437482D01*
X106612292Y-86509890D01*
X106509890Y-86612292D01*
X106437482Y-86737708D01*
X106426212Y-86779765D01*
X105688504Y-86042056D01*
X105564668Y-86244141D01*
X105564665Y-86244146D01*
X105471303Y-86469542D01*
X105414348Y-86706780D01*
X105395207Y-86950000D01*
X105414348Y-87193219D01*
X105471303Y-87430457D01*
X105564668Y-87655861D01*
X105688504Y-87857942D01*
X106426212Y-87120234D01*
X106437482Y-87162292D01*
X106509890Y-87287708D01*
X106612292Y-87390110D01*
X106737708Y-87462518D01*
X106779765Y-87473787D01*
X106042056Y-88211494D01*
X106244138Y-88335331D01*
X106469542Y-88428696D01*
X106706780Y-88485651D01*
X106706779Y-88485651D01*
X106950000Y-88504792D01*
X107193219Y-88485651D01*
X107430457Y-88428696D01*
X107655861Y-88335331D01*
X107857942Y-88211494D01*
X107120234Y-87473787D01*
X107162292Y-87462518D01*
X107287708Y-87390110D01*
X107390110Y-87287708D01*
X107462518Y-87162292D01*
X107473787Y-87120234D01*
X108211494Y-87857942D01*
X108335331Y-87655861D01*
X108428696Y-87430457D01*
X108485651Y-87193219D01*
X108504792Y-86950000D01*
X108485651Y-86706780D01*
X108428696Y-86469542D01*
X108335331Y-86244138D01*
X108211494Y-86042056D01*
X107473787Y-86779764D01*
X107462518Y-86737708D01*
X107390110Y-86612292D01*
X107287708Y-86509890D01*
X107162292Y-86437482D01*
X107120232Y-86426211D01*
X107786672Y-85759773D01*
X107809557Y-85741731D01*
X107864179Y-85708259D01*
X108049759Y-85549759D01*
X108208259Y-85364179D01*
X108272278Y-85259710D01*
X108324089Y-85212835D01*
X108378005Y-85200500D01*
X109487770Y-85200500D01*
X109554809Y-85220185D01*
X109575451Y-85236819D01*
X115421586Y-91082954D01*
X115451058Y-91102645D01*
X115495270Y-91132186D01*
X115544505Y-91165084D01*
X115544506Y-91165084D01*
X115544507Y-91165085D01*
X115544509Y-91165086D01*
X115681082Y-91221656D01*
X115681087Y-91221658D01*
X115681091Y-91221658D01*
X115681092Y-91221659D01*
X115826079Y-91250500D01*
X115826082Y-91250500D01*
X115826083Y-91250500D01*
X115973917Y-91250500D01*
X125143022Y-91250500D01*
X125210061Y-91270185D01*
X125221687Y-91278647D01*
X125291460Y-91335909D01*
X125291467Y-91335913D01*
X125465266Y-91428811D01*
X125465269Y-91428811D01*
X125465273Y-91428814D01*
X125653868Y-91486024D01*
X125850000Y-91505341D01*
X126046132Y-91486024D01*
X126234727Y-91428814D01*
X126408538Y-91335910D01*
X126478313Y-91278647D01*
X126542623Y-91251334D01*
X126556978Y-91250500D01*
X126787770Y-91250500D01*
X126854809Y-91270185D01*
X126875451Y-91286819D01*
X130271578Y-94682947D01*
X130271581Y-94682949D01*
X130271584Y-94682952D01*
X130394506Y-94765084D01*
X130531088Y-94821658D01*
X130531092Y-94821658D01*
X130531093Y-94821659D01*
X130676080Y-94850500D01*
X130676083Y-94850500D01*
X130726082Y-94850500D01*
X152893022Y-94850500D01*
X152960061Y-94870185D01*
X152971687Y-94878647D01*
X153041460Y-94935909D01*
X153041467Y-94935913D01*
X153215266Y-95028811D01*
X153215269Y-95028811D01*
X153215273Y-95028814D01*
X153403868Y-95086024D01*
X153600000Y-95105341D01*
X153796132Y-95086024D01*
X153984727Y-95028814D01*
X154158538Y-94935910D01*
X154310883Y-94810883D01*
X154435910Y-94658538D01*
X154528814Y-94484727D01*
X154586024Y-94296132D01*
X154605341Y-94100000D01*
X154586024Y-93903868D01*
X154528814Y-93715273D01*
X154528811Y-93715269D01*
X154528811Y-93715266D01*
X154435913Y-93541467D01*
X154435909Y-93541460D01*
X154310883Y-93389116D01*
X154158539Y-93264090D01*
X154158532Y-93264086D01*
X153984733Y-93171188D01*
X153984727Y-93171186D01*
X153796132Y-93113976D01*
X153796129Y-93113975D01*
X153600000Y-93094659D01*
X153403870Y-93113975D01*
X153215266Y-93171188D01*
X153041467Y-93264086D01*
X153041460Y-93264090D01*
X152971687Y-93321353D01*
X152907377Y-93348666D01*
X152893022Y-93349500D01*
X131112230Y-93349500D01*
X131045191Y-93329815D01*
X131024549Y-93313181D01*
X127628421Y-89917052D01*
X127628414Y-89917046D01*
X127554729Y-89867812D01*
X127554729Y-89867813D01*
X127505491Y-89834913D01*
X127368917Y-89778343D01*
X127368907Y-89778340D01*
X127223920Y-89749500D01*
X127223918Y-89749500D01*
X126556978Y-89749500D01*
X126489939Y-89729815D01*
X126478313Y-89721353D01*
X126408539Y-89664090D01*
X126408532Y-89664086D01*
X126234733Y-89571188D01*
X126234727Y-89571186D01*
X126046132Y-89513976D01*
X126046129Y-89513975D01*
X125850000Y-89494659D01*
X125653870Y-89513975D01*
X125465266Y-89571188D01*
X125291467Y-89664086D01*
X125291460Y-89664090D01*
X125221687Y-89721353D01*
X125157377Y-89748666D01*
X125143022Y-89749500D01*
X116262230Y-89749500D01*
X116195191Y-89729815D01*
X116174549Y-89713181D01*
X110328421Y-83867052D01*
X110328414Y-83867046D01*
X110254729Y-83817812D01*
X110254729Y-83817813D01*
X110205491Y-83784913D01*
X110068917Y-83728343D01*
X110068907Y-83728340D01*
X109923920Y-83699500D01*
X109923918Y-83699500D01*
X108378005Y-83699500D01*
X108310966Y-83679815D01*
X108281780Y-83649998D01*
X127474838Y-83649998D01*
X127474838Y-83650001D01*
X127493450Y-83862740D01*
X127493452Y-83862752D01*
X127548721Y-84069022D01*
X127548723Y-84069026D01*
X127548724Y-84069030D01*
X127591171Y-84160058D01*
X127638977Y-84262578D01*
X127761472Y-84437521D01*
X127912478Y-84588527D01*
X127912481Y-84588529D01*
X128087419Y-84711021D01*
X128087421Y-84711022D01*
X128087420Y-84711022D01*
X128151936Y-84741106D01*
X128280970Y-84801276D01*
X128280983Y-84801279D01*
X128286064Y-84803130D01*
X128285292Y-84805250D01*
X128336710Y-84836594D01*
X128367237Y-84899442D01*
X128358939Y-84968817D01*
X128314452Y-85022693D01*
X128285685Y-85035830D01*
X128286064Y-85036870D01*
X128280972Y-85038723D01*
X128280970Y-85038724D01*
X128280968Y-85038725D01*
X128087421Y-85128977D01*
X127912478Y-85251472D01*
X127761472Y-85402478D01*
X127638977Y-85577421D01*
X127548725Y-85770968D01*
X127548721Y-85770977D01*
X127493452Y-85977247D01*
X127493450Y-85977258D01*
X127474838Y-86189998D01*
X127474838Y-86190001D01*
X127493450Y-86402741D01*
X127493452Y-86402752D01*
X127548721Y-86609022D01*
X127548723Y-86609026D01*
X127548724Y-86609030D01*
X127591171Y-86700058D01*
X127638977Y-86802578D01*
X127761472Y-86977521D01*
X127912478Y-87128527D01*
X127912481Y-87128529D01*
X128087419Y-87251021D01*
X128087421Y-87251022D01*
X128087420Y-87251022D01*
X128151936Y-87281106D01*
X128280970Y-87341276D01*
X128280983Y-87341279D01*
X128286064Y-87343130D01*
X128285390Y-87344978D01*
X128337680Y-87376857D01*
X128368204Y-87439707D01*
X128359903Y-87509082D01*
X128315413Y-87562956D01*
X128285904Y-87576432D01*
X128286236Y-87577342D01*
X128281140Y-87579197D01*
X128087671Y-87669412D01*
X128087669Y-87669413D01*
X128031969Y-87708415D01*
X128031968Y-87708415D01*
X128653554Y-88330000D01*
X128647339Y-88330000D01*
X128545606Y-88357259D01*
X128454394Y-88409920D01*
X128379920Y-88484394D01*
X128327259Y-88575606D01*
X128300000Y-88677339D01*
X128300000Y-88683553D01*
X127678415Y-88061968D01*
X127678415Y-88061969D01*
X127639413Y-88117669D01*
X127639412Y-88117671D01*
X127549197Y-88311140D01*
X127549194Y-88311146D01*
X127493945Y-88517337D01*
X127493944Y-88517345D01*
X127475340Y-88729997D01*
X127475340Y-88730002D01*
X127493944Y-88942654D01*
X127493945Y-88942662D01*
X127549194Y-89148853D01*
X127549197Y-89148859D01*
X127639413Y-89342329D01*
X127678415Y-89398030D01*
X128300000Y-88776445D01*
X128300000Y-88782661D01*
X128327259Y-88884394D01*
X128379920Y-88975606D01*
X128454394Y-89050080D01*
X128545606Y-89102741D01*
X128647339Y-89130000D01*
X128653554Y-89130000D01*
X128031968Y-89751584D01*
X128087663Y-89790582D01*
X128087669Y-89790586D01*
X128281140Y-89880802D01*
X128281146Y-89880805D01*
X128487337Y-89936054D01*
X128487345Y-89936055D01*
X128699998Y-89954660D01*
X128700002Y-89954660D01*
X128912654Y-89936055D01*
X128912662Y-89936054D01*
X129118853Y-89880805D01*
X129118864Y-89880801D01*
X129312325Y-89790589D01*
X129368030Y-89751583D01*
X128746447Y-89130000D01*
X128752661Y-89130000D01*
X128854394Y-89102741D01*
X128945606Y-89050080D01*
X129020080Y-88975606D01*
X129072741Y-88884394D01*
X129100000Y-88782661D01*
X129100000Y-88776446D01*
X129721583Y-89398029D01*
X129760589Y-89342325D01*
X129850801Y-89148864D01*
X129850805Y-89148853D01*
X129906054Y-88942662D01*
X129906055Y-88942654D01*
X129924660Y-88730002D01*
X129924660Y-88729997D01*
X129906055Y-88517345D01*
X129906054Y-88517337D01*
X129850805Y-88311146D01*
X129850802Y-88311140D01*
X129760586Y-88117669D01*
X129760582Y-88117663D01*
X129721584Y-88061968D01*
X129100000Y-88683552D01*
X129100000Y-88677339D01*
X129072741Y-88575606D01*
X129020080Y-88484394D01*
X128945606Y-88409920D01*
X128854394Y-88357259D01*
X128752661Y-88330000D01*
X128746447Y-88330000D01*
X129368030Y-87708415D01*
X129312329Y-87669413D01*
X129118859Y-87579197D01*
X129113764Y-87577342D01*
X129114455Y-87575443D01*
X129062325Y-87543667D01*
X129031797Y-87480820D01*
X129040093Y-87411444D01*
X129084579Y-87357567D01*
X129114257Y-87344014D01*
X129113936Y-87343130D01*
X129119013Y-87341280D01*
X129119030Y-87341276D01*
X129312581Y-87251021D01*
X129487519Y-87128529D01*
X129638529Y-86977519D01*
X129761021Y-86802581D01*
X129851276Y-86609030D01*
X129906549Y-86402747D01*
X129925162Y-86190000D01*
X129906549Y-85977253D01*
X129851276Y-85770970D01*
X129761021Y-85577419D01*
X129638529Y-85402481D01*
X129638527Y-85402478D01*
X129487521Y-85251472D01*
X129312578Y-85128977D01*
X129312579Y-85128977D01*
X129183547Y-85068809D01*
X129119030Y-85038724D01*
X129119023Y-85038722D01*
X129113936Y-85036870D01*
X129114709Y-85034746D01*
X129063305Y-85003424D01*
X129032766Y-84940581D01*
X129041050Y-84871204D01*
X129085528Y-84817320D01*
X129114315Y-84804172D01*
X129113936Y-84803130D01*
X129119013Y-84801280D01*
X129119030Y-84801276D01*
X129312581Y-84711021D01*
X129487519Y-84588529D01*
X129638529Y-84437519D01*
X129761021Y-84262581D01*
X129851276Y-84069030D01*
X129906549Y-83862747D01*
X129910481Y-83817813D01*
X129925162Y-83650001D01*
X129925162Y-83649998D01*
X129915173Y-83535823D01*
X129906549Y-83437253D01*
X129851276Y-83230970D01*
X129761021Y-83037419D01*
X129638529Y-82862481D01*
X129638527Y-82862478D01*
X129487521Y-82711472D01*
X129312578Y-82588977D01*
X129312579Y-82588977D01*
X129183547Y-82528809D01*
X129119030Y-82498724D01*
X129119026Y-82498723D01*
X129119022Y-82498721D01*
X128912752Y-82443452D01*
X128912748Y-82443451D01*
X128912747Y-82443451D01*
X128912746Y-82443450D01*
X128912741Y-82443450D01*
X128700002Y-82424838D01*
X128699998Y-82424838D01*
X128487258Y-82443450D01*
X128487247Y-82443452D01*
X128280977Y-82498721D01*
X128280968Y-82498725D01*
X128087421Y-82588977D01*
X127912478Y-82711472D01*
X127761472Y-82862478D01*
X127638977Y-83037421D01*
X127548725Y-83230968D01*
X127548721Y-83230977D01*
X127493452Y-83437247D01*
X127493450Y-83437258D01*
X127474838Y-83649998D01*
X108281780Y-83649998D01*
X108272278Y-83640290D01*
X108208262Y-83535825D01*
X108208261Y-83535823D01*
X108124069Y-83437247D01*
X108049759Y-83350241D01*
X107910108Y-83230968D01*
X107864176Y-83191738D01*
X107864173Y-83191737D01*
X107656089Y-83064222D01*
X107430618Y-82970830D01*
X107430621Y-82970830D01*
X107324992Y-82945470D01*
X107193302Y-82913854D01*
X107193300Y-82913853D01*
X107193297Y-82913853D01*
X106950000Y-82894706D01*
X106706702Y-82913853D01*
X106469380Y-82970830D01*
X106243910Y-83064222D01*
X106035826Y-83191737D01*
X106035823Y-83191738D01*
X105850241Y-83350241D01*
X105691738Y-83535823D01*
X105691737Y-83535826D01*
X105564222Y-83743910D01*
X105470830Y-83969380D01*
X105413853Y-84206702D01*
X105394706Y-84450000D01*
X100500500Y-84450000D01*
X100500500Y-75099994D01*
X124194357Y-75099994D01*
X124194357Y-75100005D01*
X124214890Y-75347812D01*
X124214892Y-75347824D01*
X124275936Y-75588881D01*
X124375826Y-75816606D01*
X124511833Y-76024782D01*
X124511836Y-76024785D01*
X124680256Y-76207738D01*
X124876491Y-76360474D01*
X124876493Y-76360475D01*
X125060500Y-76460055D01*
X125095190Y-76478828D01*
X125330386Y-76559571D01*
X125575665Y-76600500D01*
X125824335Y-76600500D01*
X126069614Y-76559571D01*
X126304810Y-76478828D01*
X126523509Y-76360474D01*
X126719744Y-76207738D01*
X126888164Y-76024785D01*
X127024173Y-75816607D01*
X127124063Y-75588881D01*
X127185108Y-75347821D01*
X127186494Y-75331096D01*
X127205643Y-75100005D01*
X127205643Y-75099994D01*
X127185109Y-74852187D01*
X127185107Y-74852175D01*
X127124063Y-74611118D01*
X127024173Y-74383393D01*
X126888166Y-74175217D01*
X126811800Y-74092262D01*
X126719744Y-73992262D01*
X126523509Y-73839526D01*
X126523507Y-73839525D01*
X126523506Y-73839524D01*
X126304811Y-73721172D01*
X126304802Y-73721169D01*
X126069616Y-73640429D01*
X125824335Y-73599500D01*
X125575665Y-73599500D01*
X125330383Y-73640429D01*
X125095197Y-73721169D01*
X125095188Y-73721172D01*
X124876493Y-73839524D01*
X124680257Y-73992261D01*
X124511833Y-74175217D01*
X124375826Y-74383393D01*
X124275936Y-74611118D01*
X124214892Y-74852175D01*
X124214890Y-74852187D01*
X124194357Y-75099994D01*
X100500500Y-75099994D01*
X100500500Y-66869995D01*
X101564953Y-66869995D01*
X101564953Y-66870004D01*
X101585113Y-67139026D01*
X101585113Y-67139028D01*
X101645142Y-67402033D01*
X101645148Y-67402052D01*
X101743709Y-67653181D01*
X101743708Y-67653181D01*
X101878600Y-67886818D01*
X101932294Y-67954150D01*
X101932295Y-67954150D01*
X102654152Y-67232292D01*
X102661049Y-67248942D01*
X102748599Y-67379970D01*
X102860030Y-67491401D01*
X102991058Y-67578951D01*
X103007705Y-67585846D01*
X102284848Y-68308703D01*
X102467476Y-68433216D01*
X102467485Y-68433221D01*
X102710539Y-68550269D01*
X102710537Y-68550269D01*
X102968337Y-68629790D01*
X102968343Y-68629792D01*
X103235101Y-68669999D01*
X103235110Y-68670000D01*
X103504890Y-68670000D01*
X103504898Y-68669999D01*
X103771656Y-68629792D01*
X103771662Y-68629790D01*
X104029458Y-68550270D01*
X104247927Y-68445061D01*
X104316869Y-68433709D01*
X104381003Y-68461431D01*
X104419969Y-68519426D01*
X104421394Y-68589281D01*
X104417158Y-68602081D01*
X104332583Y-68817578D01*
X104332578Y-68817590D01*
X104332576Y-68817597D01*
X104274197Y-69073374D01*
X104274196Y-69073379D01*
X104254592Y-69334995D01*
X104254592Y-69335004D01*
X104274196Y-69596620D01*
X104274197Y-69596625D01*
X104332576Y-69852402D01*
X104332582Y-69852421D01*
X104428432Y-70096643D01*
X104534256Y-70279937D01*
X104550729Y-70347837D01*
X104527876Y-70413864D01*
X104472955Y-70457055D01*
X104403402Y-70463696D01*
X104357017Y-70444390D01*
X104272526Y-70386784D01*
X104272516Y-70386778D01*
X104029460Y-70269730D01*
X104029462Y-70269730D01*
X103771662Y-70190209D01*
X103771656Y-70190207D01*
X103504898Y-70150000D01*
X103235101Y-70150000D01*
X102968343Y-70190207D01*
X102968337Y-70190209D01*
X102710538Y-70269730D01*
X102467482Y-70386780D01*
X102467469Y-70386787D01*
X102284848Y-70511294D01*
X103007706Y-71234152D01*
X102991058Y-71241049D01*
X102860030Y-71328599D01*
X102748599Y-71440030D01*
X102661049Y-71571058D01*
X102654152Y-71587706D01*
X101932294Y-70865848D01*
X101878602Y-70933177D01*
X101743709Y-71166818D01*
X101645148Y-71417947D01*
X101645142Y-71417966D01*
X101585113Y-71680971D01*
X101585113Y-71680973D01*
X101564953Y-71949995D01*
X101564953Y-71950000D01*
X101585113Y-72219026D01*
X101585113Y-72219028D01*
X101645142Y-72482033D01*
X101645148Y-72482052D01*
X101743709Y-72733181D01*
X101743708Y-72733181D01*
X101878600Y-72966818D01*
X101932294Y-73034150D01*
X101932295Y-73034150D01*
X102654152Y-72312292D01*
X102661049Y-72328942D01*
X102748599Y-72459970D01*
X102860030Y-72571401D01*
X102991058Y-72658951D01*
X103007706Y-72665846D01*
X102284848Y-73388703D01*
X102467476Y-73513216D01*
X102467485Y-73513221D01*
X102710539Y-73630269D01*
X102710537Y-73630269D01*
X102968337Y-73709790D01*
X102968343Y-73709792D01*
X103235101Y-73749999D01*
X103235110Y-73750000D01*
X103504890Y-73750000D01*
X103504898Y-73749999D01*
X103771656Y-73709792D01*
X103771662Y-73709790D01*
X104029461Y-73630269D01*
X104272516Y-73513221D01*
X104272517Y-73513220D01*
X104455150Y-73388703D01*
X103732293Y-72665847D01*
X103748942Y-72658951D01*
X103879970Y-72571401D01*
X103991401Y-72459970D01*
X104078951Y-72328942D01*
X104085847Y-72312293D01*
X104807703Y-73034150D01*
X104807704Y-73034149D01*
X104861400Y-72966818D01*
X104996290Y-72733181D01*
X105094851Y-72482052D01*
X105094857Y-72482033D01*
X105154886Y-72219028D01*
X105154886Y-72219026D01*
X105175047Y-71950000D01*
X105175047Y-71949995D01*
X105154886Y-71680973D01*
X105154886Y-71680971D01*
X105094857Y-71417966D01*
X105094851Y-71417947D01*
X104996290Y-71166818D01*
X104996291Y-71166818D01*
X104882961Y-70970527D01*
X104866488Y-70902627D01*
X104889340Y-70836600D01*
X104944261Y-70793410D01*
X105013815Y-70786768D01*
X105060197Y-70806071D01*
X105132296Y-70855228D01*
X105132301Y-70855230D01*
X105132302Y-70855231D01*
X105132303Y-70855232D01*
X105225266Y-70900000D01*
X105368673Y-70969061D01*
X105368674Y-70969061D01*
X105368677Y-70969063D01*
X105619385Y-71046396D01*
X105878818Y-71085500D01*
X106141182Y-71085500D01*
X106400615Y-71046396D01*
X106651323Y-70969063D01*
X106686056Y-70952336D01*
X106754994Y-70940985D01*
X106819128Y-70968706D01*
X106858094Y-71026701D01*
X106859520Y-71096556D01*
X106847243Y-71126056D01*
X106823708Y-71166820D01*
X106725148Y-71417947D01*
X106725142Y-71417966D01*
X106665113Y-71680971D01*
X106665113Y-71680973D01*
X106644953Y-71949995D01*
X106644953Y-71950000D01*
X106665113Y-72219026D01*
X106665113Y-72219028D01*
X106725142Y-72482033D01*
X106725148Y-72482052D01*
X106823709Y-72733181D01*
X106823708Y-72733181D01*
X106958600Y-72966818D01*
X107012294Y-73034150D01*
X107734152Y-72312292D01*
X107741049Y-72328942D01*
X107828599Y-72459970D01*
X107940030Y-72571401D01*
X108071058Y-72658951D01*
X108087706Y-72665846D01*
X107364848Y-73388703D01*
X107547476Y-73513216D01*
X107547485Y-73513221D01*
X107790539Y-73630269D01*
X107790537Y-73630269D01*
X108048337Y-73709790D01*
X108048343Y-73709792D01*
X108315101Y-73749999D01*
X108315110Y-73750000D01*
X108584890Y-73750000D01*
X108584898Y-73749999D01*
X108851656Y-73709792D01*
X108851662Y-73709790D01*
X109109461Y-73630269D01*
X109352516Y-73513221D01*
X109352517Y-73513220D01*
X109535150Y-73388703D01*
X108812293Y-72665847D01*
X108828942Y-72658951D01*
X108959970Y-72571401D01*
X109071401Y-72459970D01*
X109158951Y-72328942D01*
X109165847Y-72312293D01*
X109887703Y-73034150D01*
X109887704Y-73034149D01*
X109941400Y-72966818D01*
X110037720Y-72799986D01*
X126375001Y-72799986D01*
X126385494Y-72902697D01*
X126440641Y-73069119D01*
X126440643Y-73069124D01*
X126532684Y-73218345D01*
X126656654Y-73342315D01*
X126805875Y-73434356D01*
X126805880Y-73434358D01*
X126972302Y-73489505D01*
X126972309Y-73489506D01*
X127075019Y-73499999D01*
X127199999Y-73499999D01*
X127200000Y-73499998D01*
X127200000Y-72350000D01*
X126375001Y-72350000D01*
X126375001Y-72799986D01*
X110037720Y-72799986D01*
X110076290Y-72733181D01*
X110174851Y-72482052D01*
X110174857Y-72482033D01*
X110234886Y-72219028D01*
X110234886Y-72219026D01*
X110255047Y-71950000D01*
X110255047Y-71949995D01*
X110234886Y-71680973D01*
X110234886Y-71680971D01*
X110174857Y-71417966D01*
X110174851Y-71417947D01*
X110167812Y-71400013D01*
X126375000Y-71400013D01*
X126375000Y-71850000D01*
X127200000Y-71850000D01*
X127200000Y-70700000D01*
X127700000Y-70700000D01*
X127700000Y-73499999D01*
X127824972Y-73499999D01*
X127824986Y-73499998D01*
X127927697Y-73489505D01*
X128094119Y-73434358D01*
X128094124Y-73434356D01*
X128243345Y-73342315D01*
X128367315Y-73218345D01*
X128459356Y-73069124D01*
X128462408Y-73062579D01*
X128463764Y-73063211D01*
X128498842Y-73012550D01*
X128563358Y-72985728D01*
X128576774Y-72985000D01*
X129272699Y-72985000D01*
X129339738Y-73004685D01*
X129385493Y-73057489D01*
X129389929Y-73068783D01*
X129390184Y-73069330D01*
X129390185Y-73069332D01*
X129390186Y-73069334D01*
X129482288Y-73218656D01*
X129606344Y-73342712D01*
X129755666Y-73434814D01*
X129922203Y-73489999D01*
X130024991Y-73500500D01*
X130775008Y-73500499D01*
X130775016Y-73500498D01*
X130775019Y-73500498D01*
X130831302Y-73494748D01*
X130877797Y-73489999D01*
X131044334Y-73434814D01*
X131193656Y-73342712D01*
X131317712Y-73218656D01*
X131326056Y-73205127D01*
X131378001Y-73158402D01*
X131446963Y-73147177D01*
X131511046Y-73175018D01*
X131525886Y-73189690D01*
X131550625Y-73218656D01*
X131564776Y-73235224D01*
X131673797Y-73328337D01*
X131756343Y-73398838D01*
X131756345Y-73398838D01*
X131971141Y-73530466D01*
X132000407Y-73542588D01*
X132054811Y-73586427D01*
X132076878Y-73652721D01*
X132059600Y-73720421D01*
X132011975Y-73766204D01*
X131876501Y-73839519D01*
X131876494Y-73839523D01*
X131680257Y-73992261D01*
X131511833Y-74175217D01*
X131375826Y-74383393D01*
X131275936Y-74611118D01*
X131214892Y-74852175D01*
X131214890Y-74852187D01*
X131194357Y-75099994D01*
X131194357Y-75100005D01*
X131214890Y-75347812D01*
X131214892Y-75347824D01*
X131275936Y-75588881D01*
X131375826Y-75816606D01*
X131511833Y-76024782D01*
X131511836Y-76024785D01*
X131680256Y-76207738D01*
X131876491Y-76360474D01*
X131876493Y-76360475D01*
X132060500Y-76460055D01*
X132095190Y-76478828D01*
X132330386Y-76559571D01*
X132575665Y-76600500D01*
X132824335Y-76600500D01*
X133069614Y-76559571D01*
X133304810Y-76478828D01*
X133523509Y-76360474D01*
X133601206Y-76300000D01*
X138282159Y-76300000D01*
X138301475Y-76496129D01*
X138358688Y-76684733D01*
X138451586Y-76858532D01*
X138451590Y-76858539D01*
X138576616Y-77010883D01*
X138728960Y-77135909D01*
X138728967Y-77135913D01*
X138902766Y-77228811D01*
X138902769Y-77228811D01*
X138902773Y-77228814D01*
X139091368Y-77286024D01*
X139287500Y-77305341D01*
X139483632Y-77286024D01*
X139672227Y-77228814D01*
X139744577Y-77190141D01*
X139803030Y-77175500D01*
X140066592Y-77175500D01*
X140133631Y-77195185D01*
X140172136Y-77239271D01*
X140173895Y-77238187D01*
X140177685Y-77244331D01*
X140177686Y-77244334D01*
X140269788Y-77393656D01*
X140393844Y-77517712D01*
X140543166Y-77609814D01*
X140709703Y-77664999D01*
X140812491Y-77675500D01*
X141537508Y-77675499D01*
X141537516Y-77675498D01*
X141537519Y-77675498D01*
X141593802Y-77669748D01*
X141640297Y-77664999D01*
X141806834Y-77609814D01*
X141947907Y-77522799D01*
X142015295Y-77504361D01*
X142081959Y-77525283D01*
X142126729Y-77578925D01*
X142137000Y-77628340D01*
X142137000Y-77813132D01*
X142117315Y-77880171D01*
X142098116Y-77901346D01*
X142098951Y-77902181D01*
X141969789Y-78031342D01*
X141877687Y-78180663D01*
X141877685Y-78180668D01*
X141865539Y-78217323D01*
X141822501Y-78347203D01*
X141822501Y-78347204D01*
X141822500Y-78347204D01*
X141812000Y-78449983D01*
X141812000Y-79850001D01*
X141812001Y-79850018D01*
X141822500Y-79952796D01*
X141822501Y-79952799D01*
X141877685Y-80119331D01*
X141877687Y-80119336D01*
X141899895Y-80155341D01*
X141969788Y-80268656D01*
X142093844Y-80392712D01*
X142243166Y-80484814D01*
X142409703Y-80539999D01*
X142512491Y-80550500D01*
X143262508Y-80550499D01*
X143262516Y-80550498D01*
X143262519Y-80550498D01*
X143318802Y-80544748D01*
X143365297Y-80539999D01*
X143531834Y-80484814D01*
X143681156Y-80392712D01*
X143805212Y-80268656D01*
X143897314Y-80119334D01*
X143952499Y-79952797D01*
X143963000Y-79850009D01*
X143962999Y-78449992D01*
X143962998Y-78449983D01*
X144762000Y-78449983D01*
X144762000Y-79850001D01*
X144762001Y-79850018D01*
X144772500Y-79952796D01*
X144772501Y-79952799D01*
X144827685Y-80119331D01*
X144827687Y-80119336D01*
X144849895Y-80155341D01*
X144919788Y-80268656D01*
X145043844Y-80392712D01*
X145193166Y-80484814D01*
X145359703Y-80539999D01*
X145462491Y-80550500D01*
X146212508Y-80550499D01*
X146212516Y-80550498D01*
X146212519Y-80550498D01*
X146268802Y-80544748D01*
X146315297Y-80539999D01*
X146481834Y-80484814D01*
X146631156Y-80392712D01*
X146755212Y-80268656D01*
X146847314Y-80119334D01*
X146858370Y-80085966D01*
X146898141Y-80028522D01*
X146962657Y-80001698D01*
X147031433Y-80014012D01*
X147034529Y-80015612D01*
X147152767Y-80078811D01*
X147152773Y-80078814D01*
X147341368Y-80136024D01*
X147537500Y-80155341D01*
X147733632Y-80136024D01*
X147922227Y-80078814D01*
X148096038Y-79985910D01*
X148248383Y-79860883D01*
X148373410Y-79708538D01*
X148466314Y-79534727D01*
X148523524Y-79346132D01*
X148542841Y-79150000D01*
X148523524Y-78953868D01*
X148466314Y-78765273D01*
X148466311Y-78765269D01*
X148466311Y-78765266D01*
X148373413Y-78591467D01*
X148373409Y-78591460D01*
X148248383Y-78439116D01*
X148096039Y-78314090D01*
X148096032Y-78314086D01*
X147922233Y-78221188D01*
X147922227Y-78221186D01*
X147733632Y-78163976D01*
X147733629Y-78163975D01*
X147537500Y-78144659D01*
X147341370Y-78163975D01*
X147256746Y-78189645D01*
X147152773Y-78221186D01*
X147152770Y-78221187D01*
X147152768Y-78221188D01*
X147034528Y-78284388D01*
X146966126Y-78298629D01*
X146900882Y-78273628D01*
X146859512Y-78217323D01*
X146858370Y-78214032D01*
X146847315Y-78180670D01*
X146847314Y-78180666D01*
X146755212Y-78031344D01*
X146631156Y-77907288D01*
X146538388Y-77850069D01*
X146481836Y-77815187D01*
X146481831Y-77815185D01*
X146437261Y-77800416D01*
X146315297Y-77760001D01*
X146315295Y-77760000D01*
X146212510Y-77749500D01*
X145462498Y-77749500D01*
X145462480Y-77749501D01*
X145359703Y-77760000D01*
X145359700Y-77760001D01*
X145193168Y-77815185D01*
X145193163Y-77815187D01*
X145043842Y-77907289D01*
X144919789Y-78031342D01*
X144827687Y-78180663D01*
X144827685Y-78180668D01*
X144815539Y-78217323D01*
X144772501Y-78347203D01*
X144772501Y-78347204D01*
X144772500Y-78347204D01*
X144762000Y-78449983D01*
X143962998Y-78449983D01*
X143952499Y-78347203D01*
X143897314Y-78180666D01*
X143805212Y-78031344D01*
X143705299Y-77931431D01*
X143671814Y-77870108D01*
X143676798Y-77800416D01*
X143705299Y-77756069D01*
X143749550Y-77711818D01*
X143810873Y-77678333D01*
X143837231Y-77675499D01*
X144462502Y-77675499D01*
X144462508Y-77675499D01*
X144565297Y-77664999D01*
X144731834Y-77609814D01*
X144881156Y-77517712D01*
X145005212Y-77393656D01*
X145097314Y-77244334D01*
X145152499Y-77077797D01*
X145163000Y-76975009D01*
X145162999Y-75624992D01*
X145152499Y-75522203D01*
X145097314Y-75355666D01*
X145005212Y-75206344D01*
X144881156Y-75082288D01*
X144788388Y-75025069D01*
X144731836Y-74990187D01*
X144731831Y-74990185D01*
X144730362Y-74989698D01*
X144565297Y-74935001D01*
X144565295Y-74935000D01*
X144462510Y-74924500D01*
X143737498Y-74924500D01*
X143737480Y-74924501D01*
X143634703Y-74935000D01*
X143634700Y-74935001D01*
X143468168Y-74990185D01*
X143468163Y-74990187D01*
X143318842Y-75082289D01*
X143194787Y-75206344D01*
X143117841Y-75331096D01*
X143065893Y-75377821D01*
X143012302Y-75390000D01*
X142262698Y-75390000D01*
X142195659Y-75370315D01*
X142157159Y-75331096D01*
X142146599Y-75313976D01*
X142080212Y-75206344D01*
X141956156Y-75082288D01*
X141863388Y-75025069D01*
X141806836Y-74990187D01*
X141806831Y-74990185D01*
X141805362Y-74989698D01*
X141640297Y-74935001D01*
X141640295Y-74935000D01*
X141537510Y-74924500D01*
X140812498Y-74924500D01*
X140812480Y-74924501D01*
X140709703Y-74935000D01*
X140709700Y-74935001D01*
X140543168Y-74990185D01*
X140543163Y-74990187D01*
X140393842Y-75082289D01*
X140269789Y-75206342D01*
X140269788Y-75206344D01*
X140182531Y-75347812D01*
X140173895Y-75361813D01*
X140172100Y-75360706D01*
X140132813Y-75405337D01*
X140066592Y-75424500D01*
X139803030Y-75424500D01*
X139744577Y-75409858D01*
X139712967Y-75392962D01*
X139672230Y-75371187D01*
X139669355Y-75370315D01*
X139483632Y-75313976D01*
X139483629Y-75313975D01*
X139287500Y-75294659D01*
X139091370Y-75313975D01*
X138902766Y-75371188D01*
X138728967Y-75464086D01*
X138728960Y-75464090D01*
X138576616Y-75589116D01*
X138451590Y-75741460D01*
X138451586Y-75741467D01*
X138358688Y-75915266D01*
X138301475Y-76103870D01*
X138282159Y-76300000D01*
X133601206Y-76300000D01*
X133719744Y-76207738D01*
X133888164Y-76024785D01*
X134024173Y-75816607D01*
X134124063Y-75588881D01*
X134185108Y-75347821D01*
X134186494Y-75331096D01*
X134205643Y-75100005D01*
X134205643Y-75099994D01*
X134185109Y-74852187D01*
X134185107Y-74852175D01*
X134124063Y-74611118D01*
X134024173Y-74383393D01*
X133888166Y-74175217D01*
X133811800Y-74092262D01*
X133719744Y-73992262D01*
X133523509Y-73839526D01*
X133523507Y-73839525D01*
X133523506Y-73839524D01*
X133388024Y-73766205D01*
X133338434Y-73716985D01*
X133323326Y-73648768D01*
X133347497Y-73583213D01*
X133399589Y-73542589D01*
X133428859Y-73530466D01*
X133643659Y-73398836D01*
X133835224Y-73235224D01*
X133998836Y-73043659D01*
X134130466Y-72828859D01*
X134226873Y-72596111D01*
X134285683Y-72351148D01*
X134305449Y-72100000D01*
X134285683Y-71848852D01*
X134226873Y-71603889D01*
X134183853Y-71500028D01*
X134130466Y-71371140D01*
X133998839Y-71156346D01*
X133998838Y-71156343D01*
X133922998Y-71067546D01*
X133835224Y-70964776D01*
X133649407Y-70806073D01*
X133643656Y-70801161D01*
X133643653Y-70801160D01*
X133428862Y-70669535D01*
X133420113Y-70665911D01*
X133399588Y-70657409D01*
X133345187Y-70613570D01*
X133323121Y-70547276D01*
X133340400Y-70479577D01*
X133388024Y-70433794D01*
X133523509Y-70360474D01*
X133719744Y-70207738D01*
X133888164Y-70024785D01*
X134024173Y-69816607D01*
X134124063Y-69588881D01*
X134185108Y-69347821D01*
X134186170Y-69335004D01*
X134205643Y-69100005D01*
X134205643Y-69099994D01*
X134185109Y-68852187D01*
X134185107Y-68852175D01*
X134124063Y-68611118D01*
X134024173Y-68383393D01*
X133888166Y-68175217D01*
X133818059Y-68099061D01*
X133726867Y-68000000D01*
X138294659Y-68000000D01*
X138313975Y-68196129D01*
X138313976Y-68196132D01*
X138370781Y-68383393D01*
X138371188Y-68384733D01*
X138464086Y-68558532D01*
X138464090Y-68558539D01*
X138589116Y-68710883D01*
X138741460Y-68835909D01*
X138741467Y-68835913D01*
X138915266Y-68928811D01*
X138915269Y-68928811D01*
X138915273Y-68928814D01*
X139103868Y-68986024D01*
X139300000Y-69005341D01*
X139496132Y-68986024D01*
X139684727Y-68928814D01*
X139757077Y-68890141D01*
X139815530Y-68875500D01*
X140041592Y-68875500D01*
X140108631Y-68895185D01*
X140147136Y-68939271D01*
X140148895Y-68938187D01*
X140152685Y-68944331D01*
X140152686Y-68944334D01*
X140244788Y-69093656D01*
X140368844Y-69217712D01*
X140518166Y-69309814D01*
X140684703Y-69364999D01*
X140787491Y-69375500D01*
X141512508Y-69375499D01*
X141512516Y-69375498D01*
X141512519Y-69375498D01*
X141568802Y-69369748D01*
X141615297Y-69364999D01*
X141781834Y-69309814D01*
X141931156Y-69217712D01*
X142037819Y-69111049D01*
X142099142Y-69077564D01*
X142168834Y-69082548D01*
X142224767Y-69124420D01*
X142249184Y-69189884D01*
X142249500Y-69198730D01*
X142249500Y-69563132D01*
X142229815Y-69630171D01*
X142210616Y-69651346D01*
X142211451Y-69652181D01*
X142082289Y-69781342D01*
X141990187Y-69930663D01*
X141990185Y-69930668D01*
X141962349Y-70014670D01*
X141935001Y-70097203D01*
X141935001Y-70097204D01*
X141935000Y-70097204D01*
X141924500Y-70199983D01*
X141924500Y-71600001D01*
X141924501Y-71600018D01*
X141935000Y-71702796D01*
X141935001Y-71702799D01*
X141990185Y-71869331D01*
X141990187Y-71869336D01*
X142012395Y-71905341D01*
X142082288Y-72018656D01*
X142206344Y-72142712D01*
X142355666Y-72234814D01*
X142522203Y-72289999D01*
X142624991Y-72300500D01*
X143375008Y-72300499D01*
X143375016Y-72300498D01*
X143375019Y-72300498D01*
X143431302Y-72294748D01*
X143477797Y-72289999D01*
X143644334Y-72234814D01*
X143793656Y-72142712D01*
X143917712Y-72018656D01*
X144009814Y-71869334D01*
X144064999Y-71702797D01*
X144075500Y-71600009D01*
X144075499Y-70199992D01*
X144075498Y-70199983D01*
X144874500Y-70199983D01*
X144874500Y-71600001D01*
X144874501Y-71600018D01*
X144885000Y-71702796D01*
X144885001Y-71702799D01*
X144940185Y-71869331D01*
X144940187Y-71869336D01*
X144962395Y-71905341D01*
X145032288Y-72018656D01*
X145156344Y-72142712D01*
X145305666Y-72234814D01*
X145472203Y-72289999D01*
X145574991Y-72300500D01*
X146325008Y-72300499D01*
X146325016Y-72300498D01*
X146325019Y-72300498D01*
X146381302Y-72294748D01*
X146427797Y-72289999D01*
X146594334Y-72234814D01*
X146650777Y-72200000D01*
X148894551Y-72200000D01*
X148914317Y-72451151D01*
X148973126Y-72696110D01*
X149069533Y-72928859D01*
X149201160Y-73143653D01*
X149201161Y-73143656D01*
X149223094Y-73169336D01*
X149364776Y-73335224D01*
X149490626Y-73442710D01*
X149556343Y-73498838D01*
X149556345Y-73498838D01*
X149771141Y-73630466D01*
X149800407Y-73642588D01*
X149854811Y-73686427D01*
X149876878Y-73752721D01*
X149859600Y-73820421D01*
X149811975Y-73866204D01*
X149676501Y-73939519D01*
X149676494Y-73939523D01*
X149480257Y-74092261D01*
X149311833Y-74275217D01*
X149175826Y-74483393D01*
X149075936Y-74711118D01*
X149014892Y-74952175D01*
X149014890Y-74952187D01*
X148994357Y-75199994D01*
X148994357Y-75200005D01*
X149014890Y-75447812D01*
X149014892Y-75447824D01*
X149075936Y-75688881D01*
X149175826Y-75916606D01*
X149311833Y-76124782D01*
X149311836Y-76124785D01*
X149480256Y-76307738D01*
X149676491Y-76460474D01*
X149676493Y-76460475D01*
X149894332Y-76578364D01*
X149895190Y-76578828D01*
X150114141Y-76653994D01*
X150128964Y-76659083D01*
X150130386Y-76659571D01*
X150375665Y-76700500D01*
X150624335Y-76700500D01*
X150869614Y-76659571D01*
X151104810Y-76578828D01*
X151323509Y-76460474D01*
X151519744Y-76307738D01*
X151688164Y-76124785D01*
X151824173Y-75916607D01*
X151924063Y-75688881D01*
X151985108Y-75447821D01*
X151985116Y-75447729D01*
X152005643Y-75200005D01*
X152005643Y-75199994D01*
X155994859Y-75199994D01*
X155994859Y-75200005D01*
X156015385Y-75447729D01*
X156015387Y-75447738D01*
X156076412Y-75688717D01*
X156176267Y-75916367D01*
X156276562Y-76069881D01*
X157017037Y-75329408D01*
X157034075Y-75392993D01*
X157099901Y-75507007D01*
X157192993Y-75600099D01*
X157307007Y-75665925D01*
X157370591Y-75682962D01*
X156629943Y-76423609D01*
X156676768Y-76460055D01*
X156676771Y-76460057D01*
X156895385Y-76578364D01*
X156895396Y-76578369D01*
X157130506Y-76659083D01*
X157375707Y-76700000D01*
X157624293Y-76700000D01*
X157869493Y-76659083D01*
X158104603Y-76578369D01*
X158104614Y-76578364D01*
X158323230Y-76460056D01*
X158323236Y-76460051D01*
X158370055Y-76423610D01*
X158370056Y-76423609D01*
X157629408Y-75682962D01*
X157692993Y-75665925D01*
X157807007Y-75600099D01*
X157900099Y-75507007D01*
X157965925Y-75392993D01*
X157982962Y-75329409D01*
X158723435Y-76069882D01*
X158823733Y-75916364D01*
X158923587Y-75688717D01*
X158984612Y-75447738D01*
X158984614Y-75447729D01*
X159005141Y-75200005D01*
X159005141Y-75199994D01*
X158984614Y-74952270D01*
X158984612Y-74952261D01*
X158923587Y-74711282D01*
X158823732Y-74483632D01*
X158723435Y-74330116D01*
X157982962Y-75070590D01*
X157965925Y-75007007D01*
X157900099Y-74892993D01*
X157807007Y-74799901D01*
X157692993Y-74734075D01*
X157629409Y-74717037D01*
X158370055Y-73976389D01*
X158370055Y-73976388D01*
X158323236Y-73939947D01*
X158323231Y-73939944D01*
X158104614Y-73821635D01*
X158104603Y-73821630D01*
X157869493Y-73740916D01*
X157624293Y-73700000D01*
X157375707Y-73700000D01*
X157130506Y-73740916D01*
X156895396Y-73821630D01*
X156895385Y-73821635D01*
X156676770Y-73939943D01*
X156629943Y-73976389D01*
X157370591Y-74717037D01*
X157307007Y-74734075D01*
X157192993Y-74799901D01*
X157099901Y-74892993D01*
X157034075Y-75007007D01*
X157017037Y-75070591D01*
X156276563Y-74330117D01*
X156176267Y-74483633D01*
X156176265Y-74483637D01*
X156076412Y-74711282D01*
X156015387Y-74952261D01*
X156015385Y-74952270D01*
X155994859Y-75199994D01*
X152005643Y-75199994D01*
X151985109Y-74952187D01*
X151985107Y-74952175D01*
X151924063Y-74711118D01*
X151824173Y-74483393D01*
X151688166Y-74275217D01*
X151596109Y-74175217D01*
X151519744Y-74092262D01*
X151323509Y-73939526D01*
X151323507Y-73939525D01*
X151323506Y-73939524D01*
X151188024Y-73866205D01*
X151138434Y-73816985D01*
X151123326Y-73748768D01*
X151147497Y-73683213D01*
X151199589Y-73642589D01*
X151228859Y-73630466D01*
X151443659Y-73498836D01*
X151635224Y-73335224D01*
X151635229Y-73335217D01*
X151638669Y-73331779D01*
X151639468Y-73332578D01*
X151693470Y-73297304D01*
X151763337Y-73296784D01*
X151816969Y-73328337D01*
X151931344Y-73442712D01*
X152080666Y-73534814D01*
X152247203Y-73589999D01*
X152349991Y-73600500D01*
X153100008Y-73600499D01*
X153100016Y-73600498D01*
X153100019Y-73600498D01*
X153156302Y-73594748D01*
X153202797Y-73589999D01*
X153369334Y-73534814D01*
X153518656Y-73442712D01*
X153642712Y-73318656D01*
X153734814Y-73169334D01*
X153762761Y-73084994D01*
X153802534Y-73027551D01*
X153867050Y-73000728D01*
X153880467Y-73000000D01*
X154520060Y-73000000D01*
X154587099Y-73019685D01*
X154632854Y-73072489D01*
X154637766Y-73084996D01*
X154665641Y-73169119D01*
X154665643Y-73169124D01*
X154757684Y-73318345D01*
X154881654Y-73442315D01*
X155030875Y-73534356D01*
X155030880Y-73534358D01*
X155197302Y-73589505D01*
X155197309Y-73589506D01*
X155300019Y-73599999D01*
X155424999Y-73599999D01*
X155925000Y-73599999D01*
X156049972Y-73599999D01*
X156049986Y-73599998D01*
X156152697Y-73589505D01*
X156319119Y-73534358D01*
X156319124Y-73534356D01*
X156468345Y-73442315D01*
X156592315Y-73318345D01*
X156684356Y-73169124D01*
X156684358Y-73169119D01*
X156739505Y-73002697D01*
X156739506Y-73002690D01*
X156749999Y-72899986D01*
X156750000Y-72899973D01*
X156750000Y-72450000D01*
X155925000Y-72450000D01*
X155925000Y-73599999D01*
X155424999Y-73599999D01*
X155425000Y-73599998D01*
X155425000Y-71950000D01*
X155925000Y-71950000D01*
X156749999Y-71950000D01*
X156749999Y-71500028D01*
X156749998Y-71500013D01*
X156739505Y-71397302D01*
X156684358Y-71230880D01*
X156684356Y-71230875D01*
X156592315Y-71081654D01*
X156468345Y-70957684D01*
X156319124Y-70865643D01*
X156319119Y-70865641D01*
X156152697Y-70810494D01*
X156152690Y-70810493D01*
X156049986Y-70800000D01*
X155925000Y-70800000D01*
X155925000Y-71950000D01*
X155425000Y-71950000D01*
X155425000Y-70800000D01*
X155300027Y-70800000D01*
X155300012Y-70800001D01*
X155197302Y-70810494D01*
X155030880Y-70865641D01*
X155030875Y-70865643D01*
X154881654Y-70957684D01*
X154757684Y-71081654D01*
X154665643Y-71230875D01*
X154665641Y-71230880D01*
X154637766Y-71315004D01*
X154597994Y-71372449D01*
X154533478Y-71399272D01*
X154520060Y-71400000D01*
X153880467Y-71400000D01*
X153813428Y-71380315D01*
X153767673Y-71327511D01*
X153762761Y-71315005D01*
X153752728Y-71284727D01*
X153734814Y-71230666D01*
X153642712Y-71081344D01*
X153518656Y-70957288D01*
X153425777Y-70900000D01*
X153369336Y-70865187D01*
X153369331Y-70865185D01*
X153367862Y-70864698D01*
X153202797Y-70810001D01*
X153202795Y-70810000D01*
X153100010Y-70799500D01*
X152349998Y-70799500D01*
X152349980Y-70799501D01*
X152247203Y-70810000D01*
X152247200Y-70810001D01*
X152080668Y-70865185D01*
X152080663Y-70865187D01*
X151931345Y-70957287D01*
X151816969Y-71071663D01*
X151755646Y-71105147D01*
X151685954Y-71100163D01*
X151639343Y-71067546D01*
X151638669Y-71068221D01*
X151635227Y-71064779D01*
X151635225Y-71064777D01*
X151635224Y-71064776D01*
X151524873Y-70970527D01*
X151443656Y-70901161D01*
X151443653Y-70901160D01*
X151228862Y-70769535D01*
X151218362Y-70765186D01*
X151199588Y-70757409D01*
X151145187Y-70713570D01*
X151123121Y-70647276D01*
X151140400Y-70579577D01*
X151188024Y-70533794D01*
X151323509Y-70460474D01*
X151519744Y-70307738D01*
X151688164Y-70124785D01*
X151824173Y-69916607D01*
X151924063Y-69688881D01*
X151985108Y-69447821D01*
X151986381Y-69432460D01*
X152005643Y-69200005D01*
X152005643Y-69199994D01*
X155994357Y-69199994D01*
X155994357Y-69200005D01*
X156014890Y-69447812D01*
X156014892Y-69447824D01*
X156075936Y-69688881D01*
X156175826Y-69916606D01*
X156311833Y-70124782D01*
X156311836Y-70124785D01*
X156480256Y-70307738D01*
X156676491Y-70460474D01*
X156895190Y-70578828D01*
X157130386Y-70659571D01*
X157375665Y-70700500D01*
X157624335Y-70700500D01*
X157869614Y-70659571D01*
X158104810Y-70578828D01*
X158323509Y-70460474D01*
X158519744Y-70307738D01*
X158688164Y-70124785D01*
X158824173Y-69916607D01*
X158924063Y-69688881D01*
X158985108Y-69447821D01*
X158986381Y-69432460D01*
X159005643Y-69200005D01*
X159005643Y-69199994D01*
X158985109Y-68952187D01*
X158985107Y-68952175D01*
X158924063Y-68711118D01*
X158824173Y-68483393D01*
X158688166Y-68275217D01*
X158643370Y-68226556D01*
X158519744Y-68092262D01*
X158323509Y-67939526D01*
X158323507Y-67939525D01*
X158323506Y-67939524D01*
X158104811Y-67821172D01*
X158104802Y-67821169D01*
X157869616Y-67740429D01*
X157624335Y-67699500D01*
X157375665Y-67699500D01*
X157130383Y-67740429D01*
X156895197Y-67821169D01*
X156895188Y-67821172D01*
X156676493Y-67939524D01*
X156480257Y-68092261D01*
X156311833Y-68275217D01*
X156175826Y-68483393D01*
X156075936Y-68711118D01*
X156014892Y-68952175D01*
X156014890Y-68952187D01*
X155994357Y-69199994D01*
X152005643Y-69199994D01*
X151985109Y-68952187D01*
X151985107Y-68952175D01*
X151924063Y-68711118D01*
X151824173Y-68483393D01*
X151688166Y-68275217D01*
X151643370Y-68226556D01*
X151519744Y-68092262D01*
X151323509Y-67939526D01*
X151323507Y-67939525D01*
X151323506Y-67939524D01*
X151104811Y-67821172D01*
X151104802Y-67821169D01*
X150869616Y-67740429D01*
X150624335Y-67699500D01*
X150375665Y-67699500D01*
X150130383Y-67740429D01*
X149895197Y-67821169D01*
X149895188Y-67821172D01*
X149676493Y-67939524D01*
X149480257Y-68092261D01*
X149311833Y-68275217D01*
X149175826Y-68483393D01*
X149075936Y-68711118D01*
X149014892Y-68952175D01*
X149014890Y-68952187D01*
X148994357Y-69199994D01*
X148994357Y-69200005D01*
X149014890Y-69447812D01*
X149014892Y-69447824D01*
X149075936Y-69688881D01*
X149175826Y-69916606D01*
X149311833Y-70124782D01*
X149311836Y-70124785D01*
X149480256Y-70307738D01*
X149676491Y-70460474D01*
X149676494Y-70460476D01*
X149676496Y-70460477D01*
X149811974Y-70533794D01*
X149861565Y-70583014D01*
X149876673Y-70651230D01*
X149852503Y-70716786D01*
X149800410Y-70757410D01*
X149771140Y-70769533D01*
X149556346Y-70901160D01*
X149556343Y-70901161D01*
X149364776Y-71064776D01*
X149201161Y-71256343D01*
X149201160Y-71256346D01*
X149069533Y-71471140D01*
X148973126Y-71703889D01*
X148914317Y-71948848D01*
X148894551Y-72200000D01*
X146650777Y-72200000D01*
X146743656Y-72142712D01*
X146867712Y-72018656D01*
X146959814Y-71869334D01*
X146959814Y-71869331D01*
X146959817Y-71869328D01*
X146960588Y-71867675D01*
X146961418Y-71866731D01*
X146963605Y-71863187D01*
X146964210Y-71863560D01*
X147006760Y-71815235D01*
X147073953Y-71796083D01*
X147131422Y-71810720D01*
X147165273Y-71828814D01*
X147353868Y-71886024D01*
X147550000Y-71905341D01*
X147746132Y-71886024D01*
X147934727Y-71828814D01*
X147960132Y-71815235D01*
X148038730Y-71773223D01*
X148108538Y-71735910D01*
X148260883Y-71610883D01*
X148385910Y-71458538D01*
X148455364Y-71328599D01*
X148478811Y-71284733D01*
X148478811Y-71284732D01*
X148478814Y-71284727D01*
X148536024Y-71096132D01*
X148555341Y-70900000D01*
X148536024Y-70703868D01*
X148478814Y-70515273D01*
X148478811Y-70515269D01*
X148478811Y-70515266D01*
X148385913Y-70341467D01*
X148385909Y-70341460D01*
X148260883Y-70189116D01*
X148108539Y-70064090D01*
X148108532Y-70064086D01*
X147934733Y-69971188D01*
X147934727Y-69971186D01*
X147746132Y-69913976D01*
X147746129Y-69913975D01*
X147550000Y-69894659D01*
X147353870Y-69913975D01*
X147165270Y-69971187D01*
X147131419Y-69989280D01*
X147063015Y-70003520D01*
X146997772Y-69978517D01*
X146964004Y-69936566D01*
X146963605Y-69936813D01*
X146961647Y-69933638D01*
X146960584Y-69932318D01*
X146959815Y-69930669D01*
X146959814Y-69930666D01*
X146867712Y-69781344D01*
X146743656Y-69657288D01*
X146645297Y-69596620D01*
X146594336Y-69565187D01*
X146594331Y-69565185D01*
X146588135Y-69563132D01*
X146427797Y-69510001D01*
X146427795Y-69510000D01*
X146325010Y-69499500D01*
X145574998Y-69499500D01*
X145574980Y-69499501D01*
X145472203Y-69510000D01*
X145472200Y-69510001D01*
X145305668Y-69565185D01*
X145305663Y-69565187D01*
X145156342Y-69657289D01*
X145032289Y-69781342D01*
X144940187Y-69930663D01*
X144940185Y-69930668D01*
X144912349Y-70014670D01*
X144885001Y-70097203D01*
X144885001Y-70097204D01*
X144885000Y-70097204D01*
X144874500Y-70199983D01*
X144075498Y-70199983D01*
X144074499Y-70190207D01*
X144064999Y-70097203D01*
X144064998Y-70097200D01*
X144054025Y-70064086D01*
X144009814Y-69930666D01*
X143917712Y-69781344D01*
X143793656Y-69657288D01*
X143788549Y-69652181D01*
X143790435Y-69650294D01*
X143757212Y-69603375D01*
X143750500Y-69563132D01*
X143750500Y-69499499D01*
X143770185Y-69432460D01*
X143822989Y-69386705D01*
X143874500Y-69375499D01*
X144437502Y-69375499D01*
X144437508Y-69375499D01*
X144540297Y-69364999D01*
X144706834Y-69309814D01*
X144856156Y-69217712D01*
X144980212Y-69093656D01*
X145072314Y-68944334D01*
X145127499Y-68777797D01*
X145138000Y-68675009D01*
X145137999Y-67324992D01*
X145137510Y-67320209D01*
X145127499Y-67222203D01*
X145127498Y-67222200D01*
X145099937Y-67139028D01*
X145072314Y-67055666D01*
X144980212Y-66906344D01*
X144856156Y-66782288D01*
X144706834Y-66690186D01*
X144540297Y-66635001D01*
X144540295Y-66635000D01*
X144437510Y-66624500D01*
X143712498Y-66624500D01*
X143712480Y-66624501D01*
X143609703Y-66635000D01*
X143609700Y-66635001D01*
X143443168Y-66690185D01*
X143443163Y-66690187D01*
X143293842Y-66782289D01*
X143169787Y-66906344D01*
X143092841Y-67031096D01*
X143040893Y-67077821D01*
X142987302Y-67090000D01*
X142237698Y-67090000D01*
X142170659Y-67070315D01*
X142132159Y-67031096D01*
X142121599Y-67013976D01*
X142055212Y-66906344D01*
X141931156Y-66782288D01*
X141781834Y-66690186D01*
X141615297Y-66635001D01*
X141615295Y-66635000D01*
X141512510Y-66624500D01*
X140787498Y-66624500D01*
X140787480Y-66624501D01*
X140684703Y-66635000D01*
X140684700Y-66635001D01*
X140518168Y-66690185D01*
X140518163Y-66690187D01*
X140368842Y-66782289D01*
X140244789Y-66906342D01*
X140244788Y-66906344D01*
X140178401Y-67013976D01*
X140148895Y-67061813D01*
X140147100Y-67060706D01*
X140107813Y-67105337D01*
X140041592Y-67124500D01*
X139815530Y-67124500D01*
X139757077Y-67109858D01*
X139725467Y-67092962D01*
X139684730Y-67071187D01*
X139681855Y-67070315D01*
X139496132Y-67013976D01*
X139496129Y-67013975D01*
X139300000Y-66994659D01*
X139103870Y-67013975D01*
X138915266Y-67071188D01*
X138741467Y-67164086D01*
X138741460Y-67164090D01*
X138589116Y-67289116D01*
X138464090Y-67441460D01*
X138464086Y-67441467D01*
X138371188Y-67615266D01*
X138313975Y-67803870D01*
X138294659Y-68000000D01*
X133726867Y-68000000D01*
X133719744Y-67992262D01*
X133523509Y-67839526D01*
X133523507Y-67839525D01*
X133523506Y-67839524D01*
X133304811Y-67721172D01*
X133304802Y-67721169D01*
X133069616Y-67640429D01*
X132824335Y-67599500D01*
X132575665Y-67599500D01*
X132330383Y-67640429D01*
X132095197Y-67721169D01*
X132095188Y-67721172D01*
X131876493Y-67839524D01*
X131680257Y-67992261D01*
X131511833Y-68175217D01*
X131375826Y-68383393D01*
X131275936Y-68611118D01*
X131214892Y-68852175D01*
X131214890Y-68852187D01*
X131194357Y-69099994D01*
X131194357Y-69100005D01*
X131214890Y-69347812D01*
X131214892Y-69347824D01*
X131275936Y-69588881D01*
X131375826Y-69816606D01*
X131511833Y-70024782D01*
X131511836Y-70024785D01*
X131680256Y-70207738D01*
X131852071Y-70341467D01*
X131876494Y-70360476D01*
X131876496Y-70360477D01*
X132011974Y-70433794D01*
X132061565Y-70483014D01*
X132076673Y-70551230D01*
X132052503Y-70616786D01*
X132000410Y-70657410D01*
X131971140Y-70669533D01*
X131756346Y-70801160D01*
X131756343Y-70801161D01*
X131564776Y-70964776D01*
X131525886Y-71010310D01*
X131467378Y-71048503D01*
X131397510Y-71049001D01*
X131338464Y-71011647D01*
X131326060Y-70994878D01*
X131317712Y-70981344D01*
X131193656Y-70857288D01*
X131051385Y-70769535D01*
X131044336Y-70765187D01*
X131044331Y-70765185D01*
X131042862Y-70764698D01*
X130877797Y-70710001D01*
X130877795Y-70710000D01*
X130775010Y-70699500D01*
X130024998Y-70699500D01*
X130024980Y-70699501D01*
X129922203Y-70710000D01*
X129922200Y-70710001D01*
X129755668Y-70765185D01*
X129755663Y-70765187D01*
X129606342Y-70857289D01*
X129482287Y-70981344D01*
X129440864Y-71048503D01*
X129411489Y-71096129D01*
X129405341Y-71106096D01*
X129353393Y-71152821D01*
X129299802Y-71165000D01*
X128549611Y-71165000D01*
X128482572Y-71145315D01*
X128444072Y-71106097D01*
X128367315Y-70981654D01*
X128243345Y-70857684D01*
X128094124Y-70765643D01*
X128094119Y-70765641D01*
X127927697Y-70710494D01*
X127927690Y-70710493D01*
X127824986Y-70700000D01*
X127700000Y-70700000D01*
X127200000Y-70700000D01*
X127075027Y-70700000D01*
X127075012Y-70700001D01*
X126972302Y-70710494D01*
X126805880Y-70765641D01*
X126805875Y-70765643D01*
X126656654Y-70857684D01*
X126532684Y-70981654D01*
X126440643Y-71130875D01*
X126440641Y-71130880D01*
X126385494Y-71297302D01*
X126385493Y-71297309D01*
X126375000Y-71400013D01*
X110167812Y-71400013D01*
X110076290Y-71166818D01*
X110076291Y-71166818D01*
X109941400Y-70933182D01*
X109941393Y-70933171D01*
X109887704Y-70865849D01*
X109887703Y-70865848D01*
X109165846Y-71587705D01*
X109158951Y-71571058D01*
X109071401Y-71440030D01*
X108959970Y-71328599D01*
X108828942Y-71241049D01*
X108812292Y-71234152D01*
X109535150Y-70511295D01*
X109352524Y-70386783D01*
X109352516Y-70386778D01*
X109109460Y-70269730D01*
X109109462Y-70269730D01*
X108851662Y-70190209D01*
X108851656Y-70190207D01*
X108584898Y-70150000D01*
X108315101Y-70150000D01*
X108048343Y-70190207D01*
X108048337Y-70190209D01*
X107790544Y-70269728D01*
X107738711Y-70294690D01*
X107669769Y-70306041D01*
X107605635Y-70278318D01*
X107566670Y-70220323D01*
X107565245Y-70150468D01*
X107577522Y-70120970D01*
X107591568Y-70096643D01*
X107687420Y-69852416D01*
X107745802Y-69596630D01*
X107746383Y-69588881D01*
X107765408Y-69335004D01*
X107765408Y-69334995D01*
X107747797Y-69099994D01*
X124194357Y-69099994D01*
X124194357Y-69100005D01*
X124214890Y-69347812D01*
X124214892Y-69347824D01*
X124275936Y-69588881D01*
X124375826Y-69816606D01*
X124511833Y-70024782D01*
X124511836Y-70024785D01*
X124680256Y-70207738D01*
X124876491Y-70360474D01*
X124876493Y-70360475D01*
X125067228Y-70463696D01*
X125095190Y-70478828D01*
X125330386Y-70559571D01*
X125575665Y-70600500D01*
X125824335Y-70600500D01*
X126069614Y-70559571D01*
X126304810Y-70478828D01*
X126523509Y-70360474D01*
X126719744Y-70207738D01*
X126888164Y-70024785D01*
X127024173Y-69816607D01*
X127124063Y-69588881D01*
X127185108Y-69347821D01*
X127186170Y-69335004D01*
X127205643Y-69100005D01*
X127205643Y-69099994D01*
X127185109Y-68852187D01*
X127185107Y-68852175D01*
X127124063Y-68611118D01*
X127024173Y-68383393D01*
X126888166Y-68175217D01*
X126818059Y-68099061D01*
X126719744Y-67992262D01*
X126523509Y-67839526D01*
X126523507Y-67839525D01*
X126523506Y-67839524D01*
X126304811Y-67721172D01*
X126304802Y-67721169D01*
X126069616Y-67640429D01*
X125824335Y-67599500D01*
X125575665Y-67599500D01*
X125330383Y-67640429D01*
X125095197Y-67721169D01*
X125095188Y-67721172D01*
X124876493Y-67839524D01*
X124680257Y-67992261D01*
X124511833Y-68175217D01*
X124375826Y-68383393D01*
X124275936Y-68611118D01*
X124214892Y-68852175D01*
X124214890Y-68852187D01*
X124194357Y-69099994D01*
X107747797Y-69099994D01*
X107745803Y-69073379D01*
X107745802Y-69073374D01*
X107745802Y-69073370D01*
X107687420Y-68817584D01*
X107647923Y-68716949D01*
X107641755Y-68647353D01*
X107674193Y-68585470D01*
X107734938Y-68550947D01*
X107799902Y-68553157D01*
X108048337Y-68629790D01*
X108048343Y-68629792D01*
X108315101Y-68669999D01*
X108315110Y-68670000D01*
X108584890Y-68670000D01*
X108584898Y-68669999D01*
X108851656Y-68629792D01*
X108851662Y-68629790D01*
X109109461Y-68550269D01*
X109352516Y-68433221D01*
X109352517Y-68433220D01*
X109535150Y-68308703D01*
X108812293Y-67585847D01*
X108828942Y-67578951D01*
X108959970Y-67491401D01*
X109071401Y-67379970D01*
X109158951Y-67248942D01*
X109165847Y-67232293D01*
X109887703Y-67954150D01*
X109887704Y-67954149D01*
X109941400Y-67886818D01*
X110076290Y-67653181D01*
X110174851Y-67402052D01*
X110174857Y-67402033D01*
X110234886Y-67139028D01*
X110234886Y-67139026D01*
X110255047Y-66870004D01*
X110255047Y-66869995D01*
X110234886Y-66600973D01*
X110234886Y-66600971D01*
X110174857Y-66337966D01*
X110174851Y-66337947D01*
X110076290Y-66086818D01*
X110076291Y-66086818D01*
X109941400Y-65853182D01*
X109941393Y-65853171D01*
X109887704Y-65785849D01*
X109887703Y-65785848D01*
X109165846Y-66507705D01*
X109158951Y-66491058D01*
X109071401Y-66360030D01*
X108959970Y-66248599D01*
X108828942Y-66161049D01*
X108812293Y-66154152D01*
X109535150Y-65431295D01*
X109352524Y-65306783D01*
X109352516Y-65306778D01*
X109109460Y-65189730D01*
X109109462Y-65189730D01*
X108851662Y-65110209D01*
X108851656Y-65110207D01*
X108584898Y-65070000D01*
X108315101Y-65070000D01*
X108048343Y-65110207D01*
X108048337Y-65110209D01*
X107790538Y-65189730D01*
X107547482Y-65306780D01*
X107547469Y-65306787D01*
X107364848Y-65431294D01*
X108087706Y-66154152D01*
X108071058Y-66161049D01*
X107940030Y-66248599D01*
X107828599Y-66360030D01*
X107741049Y-66491058D01*
X107734152Y-66507706D01*
X107012294Y-65785848D01*
X106958602Y-65853177D01*
X106823709Y-66086818D01*
X106725148Y-66337947D01*
X106725142Y-66337966D01*
X106665113Y-66600971D01*
X106665113Y-66600973D01*
X106644953Y-66869995D01*
X106644953Y-66870004D01*
X106665113Y-67139026D01*
X106665113Y-67139028D01*
X106725142Y-67402033D01*
X106725148Y-67402052D01*
X106774706Y-67528324D01*
X106780875Y-67597921D01*
X106748437Y-67659804D01*
X106687692Y-67694327D01*
X106622729Y-67692117D01*
X106515305Y-67658981D01*
X106400623Y-67623606D01*
X106400619Y-67623605D01*
X106400615Y-67623604D01*
X106275823Y-67604794D01*
X106141187Y-67584500D01*
X106141182Y-67584500D01*
X105878818Y-67584500D01*
X105878812Y-67584500D01*
X105717247Y-67608853D01*
X105619385Y-67623604D01*
X105619382Y-67623605D01*
X105619376Y-67623606D01*
X105368673Y-67700938D01*
X105171052Y-67796107D01*
X105102111Y-67807459D01*
X105037976Y-67779736D01*
X104999011Y-67721741D01*
X104997586Y-67651886D01*
X105001823Y-67639085D01*
X105094851Y-67402052D01*
X105094857Y-67402033D01*
X105154886Y-67139028D01*
X105154886Y-67139026D01*
X105175047Y-66870004D01*
X105175047Y-66869995D01*
X105154886Y-66600973D01*
X105154886Y-66600971D01*
X105094857Y-66337966D01*
X105094851Y-66337947D01*
X104996290Y-66086818D01*
X104996291Y-66086818D01*
X104861400Y-65853182D01*
X104861393Y-65853171D01*
X104807704Y-65785849D01*
X104807703Y-65785848D01*
X104085846Y-66507705D01*
X104078951Y-66491058D01*
X103991401Y-66360030D01*
X103879970Y-66248599D01*
X103748942Y-66161049D01*
X103732293Y-66154152D01*
X104455150Y-65431295D01*
X104272524Y-65306783D01*
X104272516Y-65306778D01*
X104029460Y-65189730D01*
X104029462Y-65189730D01*
X103771662Y-65110209D01*
X103771656Y-65110207D01*
X103504898Y-65070000D01*
X103235101Y-65070000D01*
X102968343Y-65110207D01*
X102968337Y-65110209D01*
X102710538Y-65189730D01*
X102467482Y-65306780D01*
X102467469Y-65306787D01*
X102284848Y-65431294D01*
X103007706Y-66154152D01*
X102991058Y-66161049D01*
X102860030Y-66248599D01*
X102748599Y-66360030D01*
X102661049Y-66491058D01*
X102654152Y-66507706D01*
X101932294Y-65785848D01*
X101878602Y-65853177D01*
X101743709Y-66086818D01*
X101645148Y-66337947D01*
X101645142Y-66337966D01*
X101585113Y-66600971D01*
X101585113Y-66600973D01*
X101564953Y-66869995D01*
X100500500Y-66869995D01*
X100500500Y-63999995D01*
X160114953Y-63999995D01*
X160114953Y-64000004D01*
X160135113Y-64269026D01*
X160135113Y-64269028D01*
X160195142Y-64532033D01*
X160195148Y-64532052D01*
X160293709Y-64783181D01*
X160293708Y-64783181D01*
X160428600Y-65016818D01*
X160482294Y-65084150D01*
X161204152Y-64362291D01*
X161211049Y-64378942D01*
X161298599Y-64509970D01*
X161410030Y-64621401D01*
X161541058Y-64708951D01*
X161557705Y-64715846D01*
X160834848Y-65438703D01*
X161017476Y-65563216D01*
X161017485Y-65563221D01*
X161260539Y-65680269D01*
X161260537Y-65680269D01*
X161518337Y-65759790D01*
X161518343Y-65759792D01*
X161785101Y-65799999D01*
X161785110Y-65800000D01*
X162054890Y-65800000D01*
X162054898Y-65799999D01*
X162321656Y-65759792D01*
X162321662Y-65759790D01*
X162579458Y-65680270D01*
X162797927Y-65575061D01*
X162866869Y-65563709D01*
X162931003Y-65591431D01*
X162969969Y-65649426D01*
X162971394Y-65719281D01*
X162967158Y-65732081D01*
X162882583Y-65947578D01*
X162882578Y-65947590D01*
X162882576Y-65947597D01*
X162824197Y-66203374D01*
X162824196Y-66203379D01*
X162804592Y-66464995D01*
X162804592Y-66465004D01*
X162824196Y-66726620D01*
X162824197Y-66726625D01*
X162882576Y-66982402D01*
X162882578Y-66982411D01*
X162882580Y-66982416D01*
X162911329Y-67055668D01*
X162978432Y-67226643D01*
X163084256Y-67409937D01*
X163100729Y-67477837D01*
X163077876Y-67543864D01*
X163022955Y-67587055D01*
X162953402Y-67593696D01*
X162907017Y-67574390D01*
X162822526Y-67516784D01*
X162822516Y-67516778D01*
X162579460Y-67399730D01*
X162579462Y-67399730D01*
X162321662Y-67320209D01*
X162321656Y-67320207D01*
X162054898Y-67280000D01*
X161785101Y-67280000D01*
X161518343Y-67320207D01*
X161518337Y-67320209D01*
X161260538Y-67399730D01*
X161017482Y-67516780D01*
X161017469Y-67516787D01*
X160834848Y-67641294D01*
X161557706Y-68364152D01*
X161541058Y-68371049D01*
X161410030Y-68458599D01*
X161298599Y-68570030D01*
X161211049Y-68701058D01*
X161204152Y-68717706D01*
X160482294Y-67995848D01*
X160428602Y-68063177D01*
X160293709Y-68296818D01*
X160195148Y-68547947D01*
X160195142Y-68547966D01*
X160135113Y-68810971D01*
X160135113Y-68810973D01*
X160114953Y-69079995D01*
X160114953Y-69080004D01*
X160135113Y-69349026D01*
X160135113Y-69349028D01*
X160195142Y-69612033D01*
X160195148Y-69612052D01*
X160293709Y-69863181D01*
X160293708Y-69863181D01*
X160428600Y-70096818D01*
X160482294Y-70164150D01*
X161204152Y-69442291D01*
X161211049Y-69458942D01*
X161298599Y-69589970D01*
X161410030Y-69701401D01*
X161541058Y-69788951D01*
X161557706Y-69795846D01*
X160834848Y-70518703D01*
X161017476Y-70643216D01*
X161017485Y-70643221D01*
X161260539Y-70760269D01*
X161260537Y-70760269D01*
X161518337Y-70839790D01*
X161518343Y-70839792D01*
X161785101Y-70879999D01*
X161785110Y-70880000D01*
X162054890Y-70880000D01*
X162054898Y-70879999D01*
X162321656Y-70839792D01*
X162321662Y-70839790D01*
X162579461Y-70760269D01*
X162822516Y-70643221D01*
X162822517Y-70643220D01*
X163005150Y-70518703D01*
X162282293Y-69795847D01*
X162298942Y-69788951D01*
X162429970Y-69701401D01*
X162541401Y-69589970D01*
X162628951Y-69458942D01*
X162635847Y-69442293D01*
X163357703Y-70164150D01*
X163357704Y-70164149D01*
X163411400Y-70096818D01*
X163546290Y-69863181D01*
X163644851Y-69612052D01*
X163644857Y-69612033D01*
X163704886Y-69349028D01*
X163704886Y-69349026D01*
X163725047Y-69080004D01*
X163725047Y-69079995D01*
X163704886Y-68810973D01*
X163704886Y-68810971D01*
X163644857Y-68547966D01*
X163644851Y-68547947D01*
X163546290Y-68296818D01*
X163546291Y-68296818D01*
X163432961Y-68100527D01*
X163416488Y-68032627D01*
X163439340Y-67966600D01*
X163494261Y-67923410D01*
X163563815Y-67916768D01*
X163610197Y-67936071D01*
X163682296Y-67985228D01*
X163682301Y-67985230D01*
X163682302Y-67985231D01*
X163682303Y-67985232D01*
X163807843Y-68045688D01*
X163918673Y-68099061D01*
X163918674Y-68099061D01*
X163918677Y-68099063D01*
X164169385Y-68176396D01*
X164428818Y-68215500D01*
X164691182Y-68215500D01*
X164950615Y-68176396D01*
X165201323Y-68099063D01*
X165236056Y-68082336D01*
X165304994Y-68070985D01*
X165369128Y-68098706D01*
X165408094Y-68156701D01*
X165409520Y-68226556D01*
X165397243Y-68256056D01*
X165373708Y-68296820D01*
X165275148Y-68547947D01*
X165275142Y-68547966D01*
X165215113Y-68810971D01*
X165215113Y-68810973D01*
X165194953Y-69079995D01*
X165194953Y-69080004D01*
X165215113Y-69349026D01*
X165215113Y-69349028D01*
X165275142Y-69612033D01*
X165275148Y-69612052D01*
X165373709Y-69863181D01*
X165373708Y-69863181D01*
X165508600Y-70096818D01*
X165562294Y-70164150D01*
X166284152Y-69442292D01*
X166291049Y-69458942D01*
X166378599Y-69589970D01*
X166490030Y-69701401D01*
X166621058Y-69788951D01*
X166637706Y-69795846D01*
X165914848Y-70518703D01*
X166097476Y-70643216D01*
X166097485Y-70643221D01*
X166340539Y-70760269D01*
X166340537Y-70760269D01*
X166598337Y-70839790D01*
X166598343Y-70839792D01*
X166865101Y-70879999D01*
X166865110Y-70880000D01*
X167134890Y-70880000D01*
X167134898Y-70879999D01*
X167401656Y-70839792D01*
X167401662Y-70839790D01*
X167659461Y-70760269D01*
X167902516Y-70643221D01*
X167902517Y-70643220D01*
X168085150Y-70518703D01*
X167362293Y-69795847D01*
X167378942Y-69788951D01*
X167509970Y-69701401D01*
X167621401Y-69589970D01*
X167708951Y-69458942D01*
X167715846Y-69442293D01*
X168437703Y-70164150D01*
X168437704Y-70164149D01*
X168491400Y-70096818D01*
X168626290Y-69863181D01*
X168724851Y-69612052D01*
X168724857Y-69612033D01*
X168784886Y-69349028D01*
X168784886Y-69349026D01*
X168805047Y-69080004D01*
X168805047Y-69079995D01*
X168784886Y-68810973D01*
X168784886Y-68810971D01*
X168724857Y-68547966D01*
X168724851Y-68547947D01*
X168626290Y-68296818D01*
X168626291Y-68296818D01*
X168491400Y-68063182D01*
X168491393Y-68063171D01*
X168437704Y-67995849D01*
X168437703Y-67995848D01*
X167715846Y-68717705D01*
X167708951Y-68701058D01*
X167621401Y-68570030D01*
X167509970Y-68458599D01*
X167378942Y-68371049D01*
X167362292Y-68364152D01*
X168085150Y-67641295D01*
X167902524Y-67516783D01*
X167902516Y-67516778D01*
X167659460Y-67399730D01*
X167659462Y-67399730D01*
X167401662Y-67320209D01*
X167401656Y-67320207D01*
X167134898Y-67280000D01*
X166865101Y-67280000D01*
X166598343Y-67320207D01*
X166598337Y-67320209D01*
X166340544Y-67399728D01*
X166288711Y-67424690D01*
X166219769Y-67436041D01*
X166155635Y-67408318D01*
X166116670Y-67350323D01*
X166115245Y-67280468D01*
X166127522Y-67250970D01*
X166141568Y-67226643D01*
X166237420Y-66982416D01*
X166295802Y-66726630D01*
X166302545Y-66636649D01*
X166315408Y-66465004D01*
X166315408Y-66464995D01*
X166295803Y-66203379D01*
X166295802Y-66203374D01*
X166295802Y-66203370D01*
X166237420Y-65947584D01*
X166197923Y-65846949D01*
X166191755Y-65777353D01*
X166224193Y-65715470D01*
X166284938Y-65680947D01*
X166349902Y-65683157D01*
X166598337Y-65759790D01*
X166598343Y-65759792D01*
X166865101Y-65799999D01*
X166865110Y-65800000D01*
X167134890Y-65800000D01*
X167134898Y-65799999D01*
X167401656Y-65759792D01*
X167401662Y-65759790D01*
X167659461Y-65680269D01*
X167902516Y-65563221D01*
X167902517Y-65563220D01*
X168085150Y-65438703D01*
X167362293Y-64715847D01*
X167378942Y-64708951D01*
X167509970Y-64621401D01*
X167621401Y-64509970D01*
X167708951Y-64378942D01*
X167715846Y-64362293D01*
X168437703Y-65084150D01*
X168437704Y-65084149D01*
X168491400Y-65016818D01*
X168626290Y-64783181D01*
X168724851Y-64532052D01*
X168724857Y-64532033D01*
X168784886Y-64269028D01*
X168784886Y-64269026D01*
X168805047Y-64000004D01*
X168805047Y-63999995D01*
X168784886Y-63730973D01*
X168784886Y-63730971D01*
X168724857Y-63467966D01*
X168724851Y-63467947D01*
X168626290Y-63216818D01*
X168626291Y-63216818D01*
X168491400Y-62983182D01*
X168491393Y-62983171D01*
X168437704Y-62915849D01*
X168437703Y-62915848D01*
X167715846Y-63637705D01*
X167708951Y-63621058D01*
X167621401Y-63490030D01*
X167509970Y-63378599D01*
X167378942Y-63291049D01*
X167362293Y-63284152D01*
X168085150Y-62561295D01*
X167902524Y-62436783D01*
X167902516Y-62436778D01*
X167659460Y-62319730D01*
X167659462Y-62319730D01*
X167401662Y-62240209D01*
X167401656Y-62240207D01*
X167134898Y-62200000D01*
X166865101Y-62200000D01*
X166598343Y-62240207D01*
X166598337Y-62240209D01*
X166340538Y-62319730D01*
X166097482Y-62436780D01*
X166097469Y-62436787D01*
X165914848Y-62561294D01*
X166637706Y-63284152D01*
X166621058Y-63291049D01*
X166490030Y-63378599D01*
X166378599Y-63490030D01*
X166291049Y-63621058D01*
X166284152Y-63637706D01*
X165562294Y-62915848D01*
X165508602Y-62983177D01*
X165373709Y-63216818D01*
X165275148Y-63467947D01*
X165275142Y-63467966D01*
X165215113Y-63730971D01*
X165215113Y-63730973D01*
X165194953Y-63999995D01*
X165194953Y-64000004D01*
X165215113Y-64269026D01*
X165215113Y-64269028D01*
X165275142Y-64532033D01*
X165275148Y-64532052D01*
X165324706Y-64658324D01*
X165330875Y-64727921D01*
X165298437Y-64789804D01*
X165237692Y-64824327D01*
X165172729Y-64822117D01*
X165067973Y-64789804D01*
X164950623Y-64753606D01*
X164950619Y-64753605D01*
X164950615Y-64753604D01*
X164825823Y-64734794D01*
X164691187Y-64714500D01*
X164691182Y-64714500D01*
X164428818Y-64714500D01*
X164428812Y-64714500D01*
X164267247Y-64738853D01*
X164169385Y-64753604D01*
X164169382Y-64753605D01*
X164169376Y-64753606D01*
X163918673Y-64830938D01*
X163721052Y-64926107D01*
X163652111Y-64937459D01*
X163587976Y-64909736D01*
X163549011Y-64851741D01*
X163547586Y-64781886D01*
X163551823Y-64769085D01*
X163644851Y-64532052D01*
X163644857Y-64532033D01*
X163704886Y-64269028D01*
X163704886Y-64269026D01*
X163725047Y-64000004D01*
X163725047Y-63999995D01*
X163704886Y-63730973D01*
X163704886Y-63730971D01*
X163644857Y-63467966D01*
X163644851Y-63467947D01*
X163546290Y-63216818D01*
X163546291Y-63216818D01*
X163411400Y-62983182D01*
X163411393Y-62983171D01*
X163357704Y-62915849D01*
X163357703Y-62915848D01*
X162635846Y-63637705D01*
X162628951Y-63621058D01*
X162541401Y-63490030D01*
X162429970Y-63378599D01*
X162298942Y-63291049D01*
X162282293Y-63284152D01*
X163005150Y-62561295D01*
X162822524Y-62436783D01*
X162822516Y-62436778D01*
X162579460Y-62319730D01*
X162579462Y-62319730D01*
X162321662Y-62240209D01*
X162321656Y-62240207D01*
X162054898Y-62200000D01*
X161785101Y-62200000D01*
X161518343Y-62240207D01*
X161518337Y-62240209D01*
X161260538Y-62319730D01*
X161017482Y-62436780D01*
X161017469Y-62436787D01*
X160834848Y-62561294D01*
X161557706Y-63284152D01*
X161541058Y-63291049D01*
X161410030Y-63378599D01*
X161298599Y-63490030D01*
X161211049Y-63621058D01*
X161204152Y-63637706D01*
X160482294Y-62915848D01*
X160428602Y-62983177D01*
X160293709Y-63216818D01*
X160195148Y-63467947D01*
X160195142Y-63467966D01*
X160135113Y-63730971D01*
X160135113Y-63730973D01*
X160114953Y-63999995D01*
X100500500Y-63999995D01*
X100500500Y-55072626D01*
X100520185Y-55005587D01*
X100523400Y-55002801D01*
X100721054Y-55002801D01*
X100743477Y-55037691D01*
X100748360Y-55066726D01*
X100764447Y-55404450D01*
X100822071Y-55805231D01*
X100917531Y-56198722D01*
X100917534Y-56198733D01*
X101049956Y-56581340D01*
X101049966Y-56581365D01*
X101218168Y-56949675D01*
X101420621Y-57300335D01*
X101420627Y-57300343D01*
X101655485Y-57630154D01*
X101822985Y-57823460D01*
X103313098Y-56333347D01*
X103380076Y-56420635D01*
X103579365Y-56619924D01*
X103666650Y-56686900D01*
X102174928Y-58178622D01*
X102213676Y-58215568D01*
X102213695Y-58215585D01*
X102531968Y-58465877D01*
X102872594Y-58684782D01*
X103232485Y-58870319D01*
X103608383Y-59020806D01*
X103608395Y-59020810D01*
X103996882Y-59134880D01*
X103996899Y-59134884D01*
X104394460Y-59211508D01*
X104394472Y-59211510D01*
X104797554Y-59250000D01*
X105202446Y-59250000D01*
X105605527Y-59211510D01*
X105605539Y-59211508D01*
X106003100Y-59134884D01*
X106003117Y-59134880D01*
X106391604Y-59020810D01*
X106391616Y-59020806D01*
X106767507Y-58870322D01*
X106767511Y-58870320D01*
X107127406Y-58684782D01*
X107468031Y-58465877D01*
X107786314Y-58215578D01*
X107825069Y-58178622D01*
X106333348Y-56686901D01*
X106420635Y-56619924D01*
X106619924Y-56420635D01*
X106686901Y-56333348D01*
X108177012Y-57823459D01*
X108344512Y-57630156D01*
X108344523Y-57630143D01*
X108579372Y-57300343D01*
X108579378Y-57300335D01*
X108781831Y-56949675D01*
X108950033Y-56581365D01*
X108950043Y-56581340D01*
X109082465Y-56198733D01*
X109082468Y-56198722D01*
X109177928Y-55805231D01*
X109235552Y-55404450D01*
X109254818Y-55000000D01*
X160745181Y-55000000D01*
X160764447Y-55404450D01*
X160822071Y-55805231D01*
X160917531Y-56198722D01*
X160917534Y-56198733D01*
X161049956Y-56581340D01*
X161049966Y-56581365D01*
X161218168Y-56949675D01*
X161420621Y-57300335D01*
X161420627Y-57300343D01*
X161655485Y-57630154D01*
X161822985Y-57823460D01*
X163313098Y-56333347D01*
X163380076Y-56420635D01*
X163579365Y-56619924D01*
X163666650Y-56686900D01*
X162174928Y-58178622D01*
X162213676Y-58215568D01*
X162213695Y-58215585D01*
X162531968Y-58465877D01*
X162872594Y-58684782D01*
X163232485Y-58870319D01*
X163608383Y-59020806D01*
X163608395Y-59020810D01*
X163996882Y-59134880D01*
X163996899Y-59134884D01*
X164394460Y-59211508D01*
X164394472Y-59211510D01*
X164797554Y-59250000D01*
X165202446Y-59250000D01*
X165605527Y-59211510D01*
X165605539Y-59211508D01*
X166003100Y-59134884D01*
X166003117Y-59134880D01*
X166391604Y-59020810D01*
X166391616Y-59020806D01*
X166767507Y-58870322D01*
X166767511Y-58870320D01*
X167127406Y-58684782D01*
X167468031Y-58465877D01*
X167786314Y-58215578D01*
X167825069Y-58178622D01*
X166333348Y-56686901D01*
X166420635Y-56619924D01*
X166619924Y-56420635D01*
X166686901Y-56333348D01*
X168177012Y-57823459D01*
X168344512Y-57630156D01*
X168344523Y-57630143D01*
X168579372Y-57300343D01*
X168579378Y-57300335D01*
X168781831Y-56949675D01*
X168950033Y-56581365D01*
X168950043Y-56581340D01*
X169082465Y-56198733D01*
X169082468Y-56198722D01*
X169177928Y-55805231D01*
X169235552Y-55404450D01*
X169254818Y-55000000D01*
X169235552Y-54595549D01*
X169177928Y-54194768D01*
X169082468Y-53801277D01*
X169082465Y-53801266D01*
X168950043Y-53418659D01*
X168950033Y-53418634D01*
X168781831Y-53050324D01*
X168579378Y-52699664D01*
X168579372Y-52699656D01*
X168344523Y-52369856D01*
X168344512Y-52369843D01*
X168177013Y-52176538D01*
X166686900Y-53666650D01*
X166619924Y-53579365D01*
X166420635Y-53380076D01*
X166333347Y-53313098D01*
X167825070Y-51821376D01*
X167786323Y-51784431D01*
X167786304Y-51784414D01*
X167468031Y-51534122D01*
X167127406Y-51315217D01*
X166767511Y-51129679D01*
X166767507Y-51129677D01*
X166391616Y-50979193D01*
X166391604Y-50979189D01*
X166003117Y-50865119D01*
X166003100Y-50865115D01*
X165605539Y-50788491D01*
X165605527Y-50788489D01*
X165202446Y-50750000D01*
X164797554Y-50750000D01*
X164394472Y-50788489D01*
X164394460Y-50788491D01*
X163996899Y-50865115D01*
X163996882Y-50865119D01*
X163608395Y-50979189D01*
X163608383Y-50979193D01*
X163232485Y-51129680D01*
X162872594Y-51315217D01*
X162531968Y-51534122D01*
X162213685Y-51784421D01*
X162213673Y-51784432D01*
X162174929Y-51821375D01*
X162174929Y-51821376D01*
X163666651Y-53313098D01*
X163579365Y-53380076D01*
X163380076Y-53579365D01*
X163313098Y-53666651D01*
X161822986Y-52176539D01*
X161655485Y-52369845D01*
X161420627Y-52699656D01*
X161420621Y-52699664D01*
X161218168Y-53050324D01*
X161049966Y-53418634D01*
X161049956Y-53418659D01*
X160917534Y-53801266D01*
X160917531Y-53801277D01*
X160822071Y-54194768D01*
X160764447Y-54595549D01*
X160745181Y-55000000D01*
X109254818Y-55000000D01*
X109235552Y-54595549D01*
X109177928Y-54194768D01*
X109082468Y-53801277D01*
X109082465Y-53801266D01*
X108950043Y-53418659D01*
X108950033Y-53418634D01*
X108781831Y-53050324D01*
X108579378Y-52699664D01*
X108579372Y-52699656D01*
X108344523Y-52369856D01*
X108344512Y-52369843D01*
X108177013Y-52176538D01*
X106686900Y-53666650D01*
X106619924Y-53579365D01*
X106420635Y-53380076D01*
X106333347Y-53313098D01*
X107825070Y-51821376D01*
X107786323Y-51784431D01*
X107786304Y-51784414D01*
X107468031Y-51534122D01*
X107127406Y-51315217D01*
X106767511Y-51129679D01*
X106767507Y-51129677D01*
X106391616Y-50979193D01*
X106391604Y-50979189D01*
X106003117Y-50865119D01*
X106003100Y-50865115D01*
X105605539Y-50788491D01*
X105605527Y-50788489D01*
X105202446Y-50750000D01*
X104797554Y-50750000D01*
X104394472Y-50788489D01*
X104394460Y-50788491D01*
X103996899Y-50865115D01*
X103996882Y-50865119D01*
X103608395Y-50979189D01*
X103608383Y-50979193D01*
X103232485Y-51129680D01*
X102872594Y-51315217D01*
X102531968Y-51534122D01*
X102213685Y-51784421D01*
X102213673Y-51784432D01*
X102174929Y-51821375D01*
X102174929Y-51821376D01*
X103666651Y-53313098D01*
X103579365Y-53380076D01*
X103380076Y-53579365D01*
X103313098Y-53666651D01*
X101822986Y-52176539D01*
X101655485Y-52369845D01*
X101420627Y-52699656D01*
X101420621Y-52699664D01*
X101218168Y-53050324D01*
X101049966Y-53418634D01*
X101049956Y-53418659D01*
X100917534Y-53801266D01*
X100917531Y-53801277D01*
X100822071Y-54194768D01*
X100764447Y-54595549D01*
X100748360Y-54933273D01*
X100725507Y-54999300D01*
X100721054Y-55002801D01*
X100523400Y-55002801D01*
X100528242Y-54998605D01*
X100503995Y-54956607D01*
X100500500Y-54927373D01*
X100500500Y-50624500D01*
X100520185Y-50557461D01*
X100572989Y-50511706D01*
X100624500Y-50500500D01*
X169425500Y-50500500D01*
X169492539Y-50520185D01*
G37*
G04 #@! TD.AperFunction*
M02*
