M48
; DRILL file {KiCad 9.0.2} date 2025-06-22T21:11:17-0400
; FORMAT={-:-/ absolute / metric / decimal}
; #@! TF.CreationDate,2025-06-22T21:11:17-04:00
; #@! TF.GenerationSoftware,Kicad,Pcbnew,9.0.2
; #@! TF.FileFunction,Plated,1,2,PTH
FMAT,2
METRIC
; #@! TA.AperFunction,Plated,PTH,ViaDrill
T1C0.500
; #@! TA.AperFunction,Plated,PTH,ComponentDrill
T2C0.800
; #@! TA.AperFunction,Plated,PTH,ComponentDrill
T3C1.000
; #@! TA.AperFunction,Plated,PTH,ComponentDrill
T4C1.100
; #@! TA.AperFunction,Plated,PTH,ComponentDrill
T5C1.200
; #@! TA.AperFunction,Plated,PTH,ComponentDrill
T6C1.500
; #@! TA.AperFunction,Plated,PTH,ComponentDrill
T7C1.600
; #@! TA.AperFunction,Plated,PTH,ComponentDrill
T8C4.300
%
G90
G05
T1
X106.975Y-75.275
X111.95Y-76.7
X113.35Y-63.05
X114.7Y-86.9
X114.9Y-76.7
X116.3Y-85.0
X116.45Y-64.7
X116.85Y-73.65
X117.6Y-92.5
X117.95Y-75.55
X118.6Y-104.25
X119.35Y-70.45
X119.4Y-73.4
X119.55Y-61.575
X120.85Y-78.45
X121.3Y-87.0
X123.225Y-70.7
X124.1Y-76.9
X124.6Y-67.3
X125.2Y-62.8
X125.45Y-83.35
X125.5Y-72.1
X125.5Y-86.45
X125.85Y-90.5
X127.6Y-70.0
X127.6Y-74.25
X129.8Y-93.2
X129.8Y-96.4
X130.0Y-78.85
X130.8Y-74.275
X130.85Y-70.1
X132.35Y-81.95
X134.3Y-65.5
X134.3Y-66.6
X134.3Y-70.5
X134.3Y-73.8
X134.3Y-77.65
X134.3Y-78.775
X134.8Y-72.15
X135.6Y-63.35
X137.2Y-80.7
X137.3Y-72.15
X139.287Y-76.3
X139.3Y-68.0
X139.45Y-96.4
X140.1Y-72.15
X141.2Y-80.55
X141.3Y-63.65
X141.4Y-89.1
X141.5Y-72.15
X142.25Y-84.35
X142.85Y-95.2
X143.325Y-74.4
X143.45Y-65.65
X144.0Y-93.1
X144.1Y-90.8
X144.1Y-91.9
X144.1Y-94.4
X144.15Y-98.45
X144.35Y-80.9
X144.475Y-72.45
X145.55Y-65.65
X145.575Y-74.2
X145.95Y-101.4
X147.225Y-73.325
X147.5Y-65.0
X147.537Y-79.15
X147.55Y-70.9
X148.0Y-91.0
X148.0Y-95.1
X148.25Y-80.6
X148.35Y-72.25
X148.35Y-86.65
X148.95Y-73.65
X149.05Y-70.7
X149.325Y-65.5
X149.325Y-78.7
X149.6Y-82.2
X149.625Y-67.3
X149.625Y-77.125
X150.0Y-90.2
X150.0Y-101.4
X151.1Y-89.1
X151.5Y-77.0
X151.6Y-93.1
X151.8Y-92.0
X152.0Y-96.2
X152.7Y-91.3
X153.3Y-78.4
X154.1Y-73.7
X154.2Y-70.65
X154.6Y-66.7
X155.2Y-74.1
X155.7Y-70.3
X156.1Y-87.2
X156.2Y-94.2
X157.0Y-77.8
X159.3Y-91.1
X159.5Y-84.8
X161.95Y-72.25
X165.5Y-72.2
T2
X128.7Y-83.65
X128.7Y-86.19
X128.7Y-88.73
T3
X125.7Y-69.1
X125.7Y-75.1
X132.7Y-69.1
X132.7Y-75.1
X150.5Y-69.2
X150.5Y-75.2
X158.5Y-69.2
X158.5Y-75.2
X165.5Y-69.2
X165.5Y-75.2
T4
X106.95Y-84.45
X106.95Y-86.95
T5
X109.0Y-94.7
X109.0Y-99.7
X132.7Y-72.1
X150.5Y-72.2
X158.5Y-72.2
T6
X106.01Y-69.335
X155.1Y-58.925
T7
X103.37Y-66.87
X103.37Y-71.95
X108.45Y-66.87
X108.45Y-71.95
X152.46Y-56.46
X152.46Y-61.54
X157.54Y-56.46
X157.54Y-61.54
T8
X105.0Y-55.0
X105.0Y-111.0
X165.0Y-55.0
X165.0Y-111.0
M30
