M48
; DRILL file {KiCad 8.0.6} date 2024-11-10T21:08:30-0500
; FORMAT={-:-/ absolute / metric / decimal}
; #@! TF.CreationDate,2024-11-10T21:08:30-05:00
; #@! TF.GenerationSoftware,Kicad,Pcbnew,8.0.6
; #@! TF.FileFunction,Plated,1,2,PTH
FMAT,2
METRIC
; #@! TA.AperFunction,Plated,PTH,ViaDrill
T1C0.500
; #@! TA.AperFunction,Plated,PTH,ComponentDrill
T2C0.800
; #@! TA.AperFunction,Plated,PTH,ComponentDrill
T3C1.000
; #@! TA.AperFunction,Plated,PTH,ComponentDrill
T4C1.100
; #@! TA.AperFunction,Plated,PTH,ComponentDrill
T5C1.200
; #@! TA.AperFunction,Plated,PTH,ComponentDrill
T6C1.500
; #@! TA.AperFunction,Plated,PTH,ComponentDrill
T7C1.600
; #@! TA.AperFunction,Plated,PTH,ComponentDrill
T8C4.300
%
G90
G05
T1
X106.9Y-84.6
X111.95Y-76.7
X113.3Y-61.9
X113.3Y-63.3
X113.5Y-81.6
X113.6Y-77.2
X114.9Y-76.7
X115.3Y-101.6
X115.96Y-85.225
X116.66Y-89.625
X116.85Y-73.65
X118.6Y-113.7
X119.35Y-70.45
X119.4Y-73.4
X120.4Y-81.2
X123.4Y-78.0
X123.4Y-90.2
X124.7Y-67.75
X125.2Y-62.8
X126.0Y-96.0
X127.3Y-73.4
X127.5Y-68.7
X128.0Y-92.8
X131.5Y-111.3
X138.6Y-111.5
X140.5Y-60.4
X140.5Y-102.3
X140.9Y-94.6
X141.2Y-68.4
X141.2Y-74.5
X141.2Y-80.6
X141.2Y-86.6
X141.2Y-91.8
X144.1Y-68.4
X144.1Y-80.6
X144.2Y-87.4
X144.6Y-96.1
X145.5Y-102.4
X145.6Y-90.4
X147.0Y-106.0
X150.6Y-61.8
X153.387Y-78.6
X153.4Y-70.3
X153.9Y-74.5
X156.4Y-98.1
X159.9Y-104.7
X160.9Y-88.9
X161.4Y-67.0
X161.5Y-92.5
X161.637Y-81.45
X161.65Y-73.2
X161.8Y-83.3
X162.0Y-75.1
X166.5Y-72.4
X166.5Y-78.5
X166.8Y-83.0
X169.4Y-84.6
X169.8Y-72.4
X169.8Y-76.6
X171.5Y-74.5
T2
X149.26Y-89.1
X149.4Y-60.4
X151.8Y-89.1
X151.94Y-60.4
X154.34Y-89.1
X154.48Y-60.4
T3
X130.1Y-71.5
X130.1Y-77.5
X146.1Y-71.5
X146.1Y-74.5
X146.1Y-77.5
X164.6Y-71.5
X164.6Y-74.5
X164.6Y-77.5
X180.6Y-71.5
X180.6Y-77.5
T4
X106.95Y-93.9
X106.95Y-96.4
T5
X108.05Y-104.15
X108.05Y-109.15
T6
X106.01Y-69.335
X187.16Y-71.465
T7
X103.37Y-66.87
X103.37Y-71.95
X108.45Y-66.87
X108.45Y-71.95
X184.52Y-69.0
X184.52Y-74.08
X189.6Y-69.0
X189.6Y-74.08
T8
X105.0Y-55.0
X105.0Y-121.0
X195.0Y-55.0
X195.0Y-121.0
M30
