G04 #@! TF.GenerationSoftware,KiCad,Pcbnew,9.0.2*
G04 #@! TF.CreationDate,2025-06-22T21:11:13-04:00*
G04 #@! TF.ProjectId,t41_2_low_power_amplifier,7434315f-325f-46c6-9f77-5f706f776572,V1.5*
G04 #@! TF.SameCoordinates,Original*
G04 #@! TF.FileFunction,Copper,L1,Top*
G04 #@! TF.FilePolarity,Positive*
%FSLAX46Y46*%
G04 Gerber Fmt 4.6, Leading zero omitted, Abs format (unit mm)*
G04 Created by KiCad (PCBNEW 9.0.2) date 2025-06-22 21:11:13*
%MOMM*%
%LPD*%
G01*
G04 APERTURE LIST*
G04 Aperture macros list*
%AMRoundRect*
0 Rectangle with rounded corners*
0 $1 Rounding radius*
0 $2 $3 $4 $5 $6 $7 $8 $9 X,Y pos of 4 corners*
0 Add a 4 corners polygon primitive as box body*
4,1,4,$2,$3,$4,$5,$6,$7,$8,$9,$2,$3,0*
0 Add four circle primitives for the rounded corners*
1,1,$1+$1,$2,$3*
1,1,$1+$1,$4,$5*
1,1,$1+$1,$6,$7*
1,1,$1+$1,$8,$9*
0 Add four rect primitives between the rounded corners*
20,1,$1+$1,$2,$3,$4,$5,0*
20,1,$1+$1,$4,$5,$6,$7,0*
20,1,$1+$1,$6,$7,$8,$9,0*
20,1,$1+$1,$8,$9,$2,$3,0*%
G04 Aperture macros list end*
G04 #@! TA.AperFunction,EtchedComponent*
%ADD10C,0.000000*%
G04 #@! TD*
G04 #@! TA.AperFunction,SMDPad,CuDef*
%ADD11RoundRect,0.250000X0.325000X0.650000X-0.325000X0.650000X-0.325000X-0.650000X0.325000X-0.650000X0*%
G04 #@! TD*
G04 #@! TA.AperFunction,SMDPad,CuDef*
%ADD12RoundRect,0.250000X0.700000X-0.275000X0.700000X0.275000X-0.700000X0.275000X-0.700000X-0.275000X0*%
G04 #@! TD*
G04 #@! TA.AperFunction,SMDPad,CuDef*
%ADD13RoundRect,0.250000X0.312500X0.625000X-0.312500X0.625000X-0.312500X-0.625000X0.312500X-0.625000X0*%
G04 #@! TD*
G04 #@! TA.AperFunction,SMDPad,CuDef*
%ADD14RoundRect,0.250000X-0.312500X-0.625000X0.312500X-0.625000X0.312500X0.625000X-0.312500X0.625000X0*%
G04 #@! TD*
G04 #@! TA.AperFunction,SMDPad,CuDef*
%ADD15RoundRect,0.250000X-0.625000X0.312500X-0.625000X-0.312500X0.625000X-0.312500X0.625000X0.312500X0*%
G04 #@! TD*
G04 #@! TA.AperFunction,SMDPad,CuDef*
%ADD16RoundRect,0.250000X-1.400000X-1.000000X1.400000X-1.000000X1.400000X1.000000X-1.400000X1.000000X0*%
G04 #@! TD*
G04 #@! TA.AperFunction,ComponentPad*
%ADD17C,2.000000*%
G04 #@! TD*
G04 #@! TA.AperFunction,ComponentPad*
%ADD18C,2.200000*%
G04 #@! TD*
G04 #@! TA.AperFunction,SMDPad,CuDef*
%ADD19RoundRect,0.250000X-0.275000X-0.700000X0.275000X-0.700000X0.275000X0.700000X-0.275000X0.700000X0*%
G04 #@! TD*
G04 #@! TA.AperFunction,SMDPad,CuDef*
%ADD20RoundRect,0.250000X0.625000X-0.312500X0.625000X0.312500X-0.625000X0.312500X-0.625000X-0.312500X0*%
G04 #@! TD*
G04 #@! TA.AperFunction,SMDPad,CuDef*
%ADD21R,1.320800X0.508000*%
G04 #@! TD*
G04 #@! TA.AperFunction,ComponentPad*
%ADD22C,7.500000*%
G04 #@! TD*
G04 #@! TA.AperFunction,SMDPad,CuDef*
%ADD23RoundRect,0.150000X-0.512500X-0.150000X0.512500X-0.150000X0.512500X0.150000X-0.512500X0.150000X0*%
G04 #@! TD*
G04 #@! TA.AperFunction,ComponentPad*
%ADD24C,1.440000*%
G04 #@! TD*
G04 #@! TA.AperFunction,SMDPad,CuDef*
%ADD25RoundRect,0.150000X0.150000X-0.512500X0.150000X0.512500X-0.150000X0.512500X-0.150000X-0.512500X0*%
G04 #@! TD*
G04 #@! TA.AperFunction,SMDPad,CuDef*
%ADD26RoundRect,0.250000X0.650000X-0.325000X0.650000X0.325000X-0.650000X0.325000X-0.650000X-0.325000X0*%
G04 #@! TD*
G04 #@! TA.AperFunction,SMDPad,CuDef*
%ADD27RoundRect,0.250000X-0.650000X0.325000X-0.650000X-0.325000X0.650000X-0.325000X0.650000X0.325000X0*%
G04 #@! TD*
G04 #@! TA.AperFunction,ComponentPad*
%ADD28C,2.600000*%
G04 #@! TD*
G04 #@! TA.AperFunction,ComponentPad*
%ADD29C,2.500000*%
G04 #@! TD*
G04 #@! TA.AperFunction,SMDPad,CuDef*
%ADD30RoundRect,0.375000X-0.625000X-0.375000X0.625000X-0.375000X0.625000X0.375000X-0.625000X0.375000X0*%
G04 #@! TD*
G04 #@! TA.AperFunction,SMDPad,CuDef*
%ADD31RoundRect,0.500000X-0.500000X-1.400000X0.500000X-1.400000X0.500000X1.400000X-0.500000X1.400000X0*%
G04 #@! TD*
G04 #@! TA.AperFunction,ComponentPad*
%ADD32R,2.400000X2.400000*%
G04 #@! TD*
G04 #@! TA.AperFunction,ComponentPad*
%ADD33C,2.400000*%
G04 #@! TD*
G04 #@! TA.AperFunction,SMDPad,CuDef*
%ADD34R,1.422400X0.482600*%
G04 #@! TD*
G04 #@! TA.AperFunction,SMDPad,CuDef*
%ADD35R,1.422400X0.558800*%
G04 #@! TD*
G04 #@! TA.AperFunction,ComponentPad*
%ADD36C,2.100000*%
G04 #@! TD*
G04 #@! TA.AperFunction,ViaPad*
%ADD37C,1.000000*%
G04 #@! TD*
G04 #@! TA.AperFunction,Conductor*
%ADD38C,1.500000*%
G04 #@! TD*
G04 #@! TA.AperFunction,Conductor*
%ADD39C,0.500000*%
G04 #@! TD*
G04 #@! TA.AperFunction,Conductor*
%ADD40C,1.000000*%
G04 #@! TD*
G04 #@! TA.AperFunction,Conductor*
%ADD41C,0.750000*%
G04 #@! TD*
G04 #@! TA.AperFunction,Conductor*
%ADD42C,0.250000*%
G04 #@! TD*
G04 #@! TA.AperFunction,Conductor*
%ADD43C,1.250000*%
G04 #@! TD*
G04 APERTURE END LIST*
D10*
G04 #@! TA.AperFunction,EtchedComponent*
G36*
X148619200Y-92820600D02*
G01*
X149288800Y-92820600D01*
X149288800Y-93379400D01*
X148619200Y-93379400D01*
X148009600Y-94039800D01*
X145114000Y-94039800D01*
X145114000Y-93366700D01*
X145114000Y-92833300D01*
X145114000Y-92160200D01*
X148009600Y-92160200D01*
X148619200Y-92820600D01*
G37*
G04 #@! TD.AperFunction*
D11*
X119400000Y-88600000D03*
X116450000Y-88600000D03*
X121100000Y-85000000D03*
X118150000Y-85000000D03*
D12*
X157262500Y-83375000D03*
X157262500Y-80225000D03*
D13*
X154362500Y-84300000D03*
X151437500Y-84300000D03*
D14*
X151500000Y-87200000D03*
X154425000Y-87200000D03*
D15*
X112600000Y-81700000D03*
X112600000Y-84625000D03*
D14*
X119787500Y-75550000D03*
X122712500Y-75550000D03*
D16*
X118640000Y-94786252D03*
X118640000Y-101586252D03*
D17*
X125700000Y-69100000D03*
X125700000Y-75100000D03*
X132700000Y-75100000D03*
D18*
X132700000Y-72100000D03*
D17*
X132700000Y-69100000D03*
D19*
X134300000Y-94800000D03*
X137450000Y-94800000D03*
D14*
X135875000Y-65500000D03*
X138800000Y-65500000D03*
D15*
X160962500Y-80275000D03*
X160962500Y-83200000D03*
D14*
X138025000Y-82900000D03*
X140950000Y-82900000D03*
D20*
X117800000Y-71925000D03*
X117800000Y-69000000D03*
D17*
X150500000Y-69200000D03*
D18*
X150500000Y-72200000D03*
D17*
X150500000Y-75200000D03*
D21*
X154190800Y-81700000D03*
X154190800Y-80749999D03*
X154190800Y-79799998D03*
X151600000Y-79799998D03*
X151600000Y-81700000D03*
D14*
X135875000Y-73800000D03*
X138800000Y-73800000D03*
D11*
X125700000Y-78450000D03*
X122750000Y-78450000D03*
D12*
X123900000Y-85050000D03*
X123900000Y-81900000D03*
D22*
X165000000Y-55000000D03*
D23*
X120575000Y-66250000D03*
X120575000Y-68150000D03*
X122850000Y-67200000D03*
D13*
X140962500Y-85850000D03*
X138037500Y-85850000D03*
D11*
X117875000Y-66250000D03*
X114925000Y-66250000D03*
D19*
X125350000Y-94800000D03*
X128500000Y-94800000D03*
D14*
X115250000Y-63050000D03*
X118175000Y-63050000D03*
D24*
X128700000Y-83650000D03*
X128700000Y-86190000D03*
X128700000Y-88730000D03*
D20*
X114900000Y-74875000D03*
X114900000Y-71950000D03*
D25*
X133050000Y-86175000D03*
X134950000Y-86175000D03*
X134000000Y-83900000D03*
D26*
X112600000Y-89900000D03*
X112600000Y-86950000D03*
D22*
X105000000Y-55000000D03*
X165000000Y-111000000D03*
D27*
X150000000Y-96750000D03*
X150000000Y-99700000D03*
D28*
X152460000Y-56460000D03*
X152460000Y-61540000D03*
X157540000Y-56460000D03*
X157540000Y-61540000D03*
D29*
X155100000Y-58925000D03*
D14*
X135875000Y-78800000D03*
X138800000Y-78800000D03*
D30*
X141237500Y-74000000D03*
X141237500Y-76300000D03*
X141237500Y-78600000D03*
D31*
X147537500Y-76300000D03*
D23*
X143925000Y-82300000D03*
X143925000Y-84200000D03*
X146200000Y-83250000D03*
D32*
X109000000Y-94700000D03*
D33*
X109000000Y-99700000D03*
D28*
X103370000Y-66870000D03*
X103370000Y-71950000D03*
X108450000Y-66870000D03*
X108450000Y-71950000D03*
D29*
X106010000Y-69335000D03*
D14*
X120525000Y-63450000D03*
X123450000Y-63450000D03*
D34*
X150000000Y-94600000D03*
D35*
X150000000Y-93100000D03*
D34*
X150000000Y-91600000D03*
X145977600Y-91600000D03*
X145977600Y-94600000D03*
D36*
X106950000Y-84450000D03*
X106950000Y-86950000D03*
D13*
X146850000Y-86650000D03*
X143925000Y-86650000D03*
D23*
X121825000Y-88600000D03*
X121825000Y-89550000D03*
X121825000Y-90500000D03*
X124100000Y-90500000D03*
X124100000Y-88600000D03*
D30*
X141250000Y-65700000D03*
X141250000Y-68000000D03*
X141250000Y-70300000D03*
D31*
X147550000Y-68000000D03*
D20*
X111950000Y-74862500D03*
X111950000Y-71937500D03*
D22*
X105000000Y-111000000D03*
D27*
X131400000Y-94800000D03*
X131400000Y-97750000D03*
D14*
X111975000Y-69300000D03*
X114900000Y-69300000D03*
D27*
X145950000Y-96750000D03*
X145950000Y-99700000D03*
D14*
X135875000Y-70500000D03*
X138800000Y-70500000D03*
D25*
X120850000Y-72475000D03*
X122750000Y-72475000D03*
X121800000Y-70200000D03*
D17*
X165500000Y-75200000D03*
X165500000Y-69200000D03*
X158500000Y-69200000D03*
D18*
X158500000Y-72200000D03*
D17*
X158500000Y-75200000D03*
D37*
X114900000Y-76700000D03*
X143450000Y-65650000D03*
X148350000Y-86650000D03*
X154200000Y-70650000D03*
X161950000Y-72250000D03*
X159300000Y-91100000D03*
X129800000Y-93200000D03*
X113350000Y-63050000D03*
X147500000Y-65000000D03*
X121300000Y-87000000D03*
X141300000Y-63650000D03*
X144000000Y-93100000D03*
X134800000Y-72150000D03*
X145950000Y-101400000D03*
X134300000Y-66600000D03*
X141500000Y-72150000D03*
X130800000Y-74275000D03*
X134300000Y-70500000D03*
X125500000Y-72100000D03*
X142250000Y-84350000D03*
X125200000Y-62800000D03*
X135600000Y-63350000D03*
X151800000Y-92000000D03*
X147225000Y-73325000D03*
X120850000Y-78450000D03*
X130850000Y-70100000D03*
X155200000Y-74100000D03*
X111950000Y-76700000D03*
X125450000Y-83350000D03*
X119400000Y-73400000D03*
X156100000Y-87200000D03*
X125500000Y-86450000D03*
X117600000Y-92500000D03*
X144475000Y-72450000D03*
X144150000Y-98450000D03*
X151100000Y-89100000D03*
X134300000Y-73800000D03*
X130000000Y-78850000D03*
X148250000Y-80600000D03*
X143325000Y-74400000D03*
X148000000Y-95100000D03*
X148950000Y-73650000D03*
X141400000Y-89100000D03*
X139450000Y-96400000D03*
X150000000Y-101400000D03*
X153300000Y-78400000D03*
X144100000Y-90800000D03*
X117950000Y-75550000D03*
X151600000Y-93100000D03*
X116300000Y-85000000D03*
X123225000Y-70700000D03*
X118600000Y-104250000D03*
X134300000Y-77650000D03*
X106975000Y-75275000D03*
X154600000Y-66700000D03*
X148350000Y-72250000D03*
X149625000Y-77125000D03*
X165500000Y-72200000D03*
X157000000Y-77800000D03*
X144100000Y-94400000D03*
X124600000Y-67300000D03*
X154100000Y-73700000D03*
X137200000Y-80700000D03*
X119550000Y-61575000D03*
X149325000Y-65500000D03*
X141200000Y-80550000D03*
X149050000Y-70700000D03*
X156200000Y-94200000D03*
X152000000Y-96200000D03*
X149625000Y-67300000D03*
X127600000Y-70000000D03*
X148000000Y-91000000D03*
X137300000Y-72150000D03*
X149325000Y-78700000D03*
X151500000Y-77000000D03*
X119350000Y-70450000D03*
X129800000Y-96400000D03*
X144100000Y-91900000D03*
X155700000Y-70300000D03*
X159500000Y-84800000D03*
X144350000Y-80900000D03*
X124100000Y-76900000D03*
X132350000Y-81950000D03*
X134300000Y-65500000D03*
X116450000Y-64700000D03*
X145575000Y-74200000D03*
X142850000Y-95200000D03*
X145550000Y-65650000D03*
X116850000Y-73650000D03*
X140100000Y-72150000D03*
X134300000Y-78775000D03*
X127600000Y-74250000D03*
X152700000Y-91300000D03*
X147550000Y-70900000D03*
X147537500Y-79150000D03*
X139300000Y-68000000D03*
X139287500Y-76300000D03*
X149600000Y-82200000D03*
X150000000Y-90200000D03*
X114700000Y-86900000D03*
X125850000Y-90500000D03*
D38*
X144000000Y-93100000D02*
X147201400Y-93100000D01*
X142200000Y-93100000D02*
X144000000Y-93100000D01*
D39*
X129475000Y-73750000D02*
X131125000Y-72100000D01*
X135950000Y-82900000D02*
X129475000Y-76425000D01*
X129475000Y-76425000D02*
X129475000Y-73750000D01*
X131125000Y-72100000D02*
X132700000Y-72100000D01*
X138025000Y-82900000D02*
X135950000Y-82900000D01*
X147550000Y-68000000D02*
X147550000Y-70900000D01*
D40*
X148750000Y-69200000D02*
X147550000Y-68000000D01*
X150500000Y-69200000D02*
X148750000Y-69200000D01*
X145900000Y-96800000D02*
X142150000Y-96800000D01*
X145950000Y-96750000D02*
X145900000Y-96800000D01*
X145950000Y-96750000D02*
X145950000Y-94900000D01*
X142150000Y-96800000D02*
X140150000Y-94800000D01*
X140150000Y-94800000D02*
X137450000Y-94800000D01*
X148637500Y-75200000D02*
X147537500Y-76300000D01*
D39*
X147537500Y-76300000D02*
X147537500Y-79150000D01*
D40*
X150500000Y-75200000D02*
X148637500Y-75200000D01*
D41*
X141250000Y-68000000D02*
X139300000Y-68000000D01*
X132700000Y-69100000D02*
X133800000Y-68000000D01*
X133800000Y-68000000D02*
X139300000Y-68000000D01*
X132700000Y-75100000D02*
X133900000Y-76300000D01*
X133900000Y-76300000D02*
X139287500Y-76300000D01*
X141237500Y-76300000D02*
X139287500Y-76300000D01*
D39*
X109700000Y-81700000D02*
X106950000Y-84450000D01*
D42*
X151600000Y-81700000D02*
X150100000Y-81700000D01*
X150100000Y-81700000D02*
X149600000Y-82200000D01*
D39*
X112600000Y-81700000D02*
X109700000Y-81700000D01*
D40*
X128500000Y-94800000D02*
X131400000Y-94800000D01*
D39*
X128490000Y-93360000D02*
X128490000Y-94786252D01*
X128500000Y-93350000D02*
X128490000Y-93360000D01*
X120325000Y-92875000D02*
X128025000Y-92875000D01*
X128025000Y-92875000D02*
X128500000Y-93350000D01*
X119400000Y-88600000D02*
X119400000Y-91950000D01*
X119400000Y-91950000D02*
X120325000Y-92875000D01*
X121825000Y-88600000D02*
X119400000Y-88600000D01*
D40*
X131400000Y-94800000D02*
X134300000Y-94800000D01*
D39*
X122850000Y-67200000D02*
X122850000Y-69150000D01*
X122900000Y-69100000D02*
X122850000Y-69150000D01*
X125700000Y-69100000D02*
X122900000Y-69100000D01*
X122850000Y-67200000D02*
X122850000Y-64100000D01*
X122850000Y-64100000D02*
X123500000Y-63450000D01*
X122850000Y-69150000D02*
X121800000Y-70200000D01*
X160962500Y-80200000D02*
X157375000Y-80200000D01*
D41*
X150500000Y-72200000D02*
X153500000Y-75200000D01*
X157375000Y-80200000D02*
X157262500Y-80312500D01*
X153500000Y-76462500D02*
X157262500Y-80225000D01*
X153500000Y-75200000D02*
X153500000Y-76462500D01*
D40*
X141237500Y-78600000D02*
X139000000Y-78600000D01*
X139000000Y-78600000D02*
X138800000Y-78800000D01*
X118590000Y-94736252D02*
X118640000Y-94786252D01*
X118640000Y-94786252D02*
X124910000Y-94786252D01*
X108136252Y-94786252D02*
X108050000Y-94700000D01*
D38*
X118640000Y-94786252D02*
X109086252Y-94786252D01*
D40*
X109086252Y-94786252D02*
X109000000Y-94700000D01*
D39*
X137712500Y-86175000D02*
X138037500Y-85850000D01*
X134950000Y-86175000D02*
X137712500Y-86175000D01*
D41*
X157437500Y-83200000D02*
X157262500Y-83375000D01*
X160962500Y-83200000D02*
X157437500Y-83200000D01*
D40*
X150000000Y-94600000D02*
X150000000Y-96750000D01*
X150000000Y-94600000D02*
X153500000Y-94600000D01*
D41*
X161012500Y-83150000D02*
X160962500Y-83200000D01*
D39*
X157375000Y-83350000D02*
X157262500Y-83237500D01*
D40*
X157787500Y-90312500D02*
X157787500Y-83900000D01*
X153500000Y-94600000D02*
X157787500Y-90312500D01*
X157787500Y-83900000D02*
X157262500Y-83375000D01*
D39*
X157362500Y-83337500D02*
X157262500Y-83237500D01*
D40*
X111940000Y-69335000D02*
X111975000Y-69300000D01*
D39*
X111950000Y-69325000D02*
X111975000Y-69300000D01*
D43*
X106010000Y-69335000D02*
X111940000Y-69335000D01*
D39*
X111950000Y-71937500D02*
X111950000Y-69325000D01*
X128700000Y-86190000D02*
X133035000Y-86190000D01*
X133035000Y-86190000D02*
X133050000Y-86175000D01*
D40*
X139000000Y-70300000D02*
X138800000Y-70500000D01*
X141250000Y-70300000D02*
X139000000Y-70300000D01*
D39*
X146200000Y-83250000D02*
X144875000Y-83250000D01*
X140962500Y-85850000D02*
X140962500Y-82912500D01*
X143925000Y-82300000D02*
X141550000Y-82300000D01*
X144875000Y-83250000D02*
X143925000Y-82300000D01*
X140962500Y-82912500D02*
X140950000Y-82900000D01*
X141550000Y-82300000D02*
X140950000Y-82900000D01*
X120575000Y-66250000D02*
X117875000Y-66250000D01*
X120575000Y-63450000D02*
X118575000Y-63450000D01*
X118575000Y-63450000D02*
X118175000Y-63050000D01*
X120575000Y-66250000D02*
X120575000Y-63450000D01*
X114900000Y-69300000D02*
X114900000Y-66275000D01*
X114900000Y-71950000D02*
X114900000Y-69300000D01*
X114900000Y-66275000D02*
X114925000Y-66250000D01*
X120850000Y-70050000D02*
X120575000Y-69775000D01*
X119950000Y-68150000D02*
X119100000Y-69000000D01*
X120575000Y-68150000D02*
X119950000Y-68150000D01*
X119100000Y-69000000D02*
X117800000Y-69000000D01*
X120575000Y-69775000D02*
X120575000Y-68150000D01*
X120850000Y-72475000D02*
X120850000Y-70050000D01*
X122750000Y-75347936D02*
X122712500Y-75385436D01*
X122750000Y-72475000D02*
X122750000Y-75347936D01*
D40*
X139000000Y-74000000D02*
X138800000Y-73800000D01*
X141237500Y-74000000D02*
X139000000Y-74000000D01*
X141250000Y-65700000D02*
X139000000Y-65700000D01*
X139000000Y-65700000D02*
X138800000Y-65500000D01*
D39*
X143925000Y-86650000D02*
X143925000Y-84200000D01*
X125700000Y-80100000D02*
X125700000Y-78450000D01*
X123900000Y-81900000D02*
X125700000Y-80100000D01*
D40*
X125700000Y-75100000D02*
X125700000Y-78450000D01*
D39*
X128700000Y-83650000D02*
X127150000Y-83650000D01*
X127150000Y-83650000D02*
X125750000Y-85050000D01*
X133750000Y-83650000D02*
X134000000Y-83900000D01*
X123900000Y-85050000D02*
X121150000Y-85050000D01*
X125750000Y-85050000D02*
X123900000Y-85050000D01*
X124100000Y-85250000D02*
X123900000Y-85050000D01*
X124100000Y-88600000D02*
X124100000Y-85250000D01*
X121150000Y-85050000D02*
X121100000Y-85000000D01*
X128700000Y-83650000D02*
X133750000Y-83650000D01*
X112600000Y-84625000D02*
X112600000Y-86950000D01*
X150000000Y-90200000D02*
X150051000Y-90149000D01*
X124100000Y-90500000D02*
X125850000Y-90500000D01*
X149300000Y-89500000D02*
X150000000Y-90200000D01*
X125850000Y-90500000D02*
X142000000Y-90500000D01*
X114650000Y-86950000D02*
X114700000Y-86900000D01*
X143000000Y-89500000D02*
X149300000Y-89500000D01*
D42*
X150051000Y-90149000D02*
X152351000Y-90149000D01*
X153280400Y-79799998D02*
X152800000Y-80280398D01*
D39*
X112975000Y-84450000D02*
X113000000Y-84425000D01*
X150000000Y-91600000D02*
X150000000Y-90200000D01*
X142000000Y-90500000D02*
X143000000Y-89500000D01*
D42*
X152351000Y-90149000D02*
X152800000Y-89700000D01*
X152800000Y-80280398D02*
X152800000Y-89700000D01*
X154190800Y-79799998D02*
X153280400Y-79799998D01*
D39*
X112600000Y-86950000D02*
X114650000Y-86950000D01*
D42*
X154190800Y-84128300D02*
X154362500Y-84300000D01*
X154190800Y-81700000D02*
X154190800Y-84128300D01*
X151500000Y-84362500D02*
X151437500Y-84300000D01*
X151500000Y-87200000D02*
X151500000Y-84362500D01*
G04 #@! TA.AperFunction,Conductor*
G36*
X169492539Y-50520185D02*
G01*
X169538294Y-50572989D01*
X169549500Y-50624500D01*
X169549500Y-115375500D01*
X169529815Y-115442539D01*
X169477011Y-115488294D01*
X169425500Y-115499500D01*
X100624500Y-115499500D01*
X100557461Y-115479815D01*
X100511706Y-115427011D01*
X100500500Y-115375500D01*
X100500500Y-110814437D01*
X100750000Y-110814437D01*
X100750000Y-111185562D01*
X100782345Y-111555267D01*
X100782345Y-111555271D01*
X100846787Y-111920735D01*
X100846791Y-111920752D01*
X100942837Y-112279206D01*
X101069775Y-112627963D01*
X101226607Y-112964292D01*
X101226615Y-112964307D01*
X101412166Y-113285690D01*
X101412175Y-113285705D01*
X101625040Y-113589707D01*
X101822005Y-113824439D01*
X101822006Y-113824440D01*
X103313098Y-112333348D01*
X103380076Y-112420635D01*
X103579365Y-112619924D01*
X103666650Y-112686900D01*
X102175558Y-114177992D01*
X102175559Y-114177993D01*
X102410292Y-114374959D01*
X102714294Y-114587824D01*
X102714309Y-114587833D01*
X103035692Y-114773384D01*
X103035707Y-114773392D01*
X103372036Y-114930224D01*
X103720793Y-115057162D01*
X104079247Y-115153208D01*
X104079264Y-115153212D01*
X104444730Y-115217654D01*
X104814437Y-115249999D01*
X104814440Y-115250000D01*
X105185560Y-115250000D01*
X105185562Y-115249999D01*
X105555267Y-115217654D01*
X105555271Y-115217654D01*
X105920735Y-115153212D01*
X105920752Y-115153208D01*
X106279206Y-115057162D01*
X106627963Y-114930224D01*
X106964292Y-114773392D01*
X106964307Y-114773384D01*
X107285690Y-114587833D01*
X107285705Y-114587824D01*
X107589700Y-114374964D01*
X107824439Y-114177993D01*
X107824440Y-114177992D01*
X106333348Y-112686901D01*
X106420635Y-112619924D01*
X106619924Y-112420635D01*
X106686900Y-112333348D01*
X108177992Y-113824440D01*
X108177993Y-113824439D01*
X108374964Y-113589700D01*
X108587824Y-113285705D01*
X108587833Y-113285690D01*
X108773384Y-112964307D01*
X108773392Y-112964292D01*
X108930224Y-112627963D01*
X109057162Y-112279206D01*
X109153208Y-111920752D01*
X109153212Y-111920735D01*
X109217654Y-111555271D01*
X109217654Y-111555267D01*
X109249999Y-111185562D01*
X109250000Y-111185560D01*
X109250000Y-110814440D01*
X109249999Y-110814437D01*
X160750000Y-110814437D01*
X160750000Y-111185562D01*
X160782345Y-111555267D01*
X160782345Y-111555271D01*
X160846787Y-111920735D01*
X160846791Y-111920752D01*
X160942837Y-112279206D01*
X161069775Y-112627963D01*
X161226607Y-112964292D01*
X161226615Y-112964307D01*
X161412166Y-113285690D01*
X161412175Y-113285705D01*
X161625040Y-113589707D01*
X161822005Y-113824439D01*
X161822006Y-113824440D01*
X163313098Y-112333348D01*
X163380076Y-112420635D01*
X163579365Y-112619924D01*
X163666650Y-112686900D01*
X162175558Y-114177992D01*
X162175559Y-114177993D01*
X162410292Y-114374959D01*
X162714294Y-114587824D01*
X162714309Y-114587833D01*
X163035692Y-114773384D01*
X163035707Y-114773392D01*
X163372036Y-114930224D01*
X163720793Y-115057162D01*
X164079247Y-115153208D01*
X164079264Y-115153212D01*
X164444730Y-115217654D01*
X164814437Y-115249999D01*
X164814440Y-115250000D01*
X165185560Y-115250000D01*
X165185562Y-115249999D01*
X165555267Y-115217654D01*
X165555271Y-115217654D01*
X165920735Y-115153212D01*
X165920752Y-115153208D01*
X166279206Y-115057162D01*
X166627963Y-114930224D01*
X166964292Y-114773392D01*
X166964307Y-114773384D01*
X167285690Y-114587833D01*
X167285705Y-114587824D01*
X167589700Y-114374964D01*
X167824439Y-114177993D01*
X167824440Y-114177992D01*
X166333348Y-112686901D01*
X166420635Y-112619924D01*
X166619924Y-112420635D01*
X166686900Y-112333348D01*
X168177992Y-113824440D01*
X168177993Y-113824439D01*
X168374964Y-113589700D01*
X168587824Y-113285705D01*
X168587833Y-113285690D01*
X168773384Y-112964307D01*
X168773392Y-112964292D01*
X168930224Y-112627963D01*
X169057162Y-112279206D01*
X169153208Y-111920752D01*
X169153212Y-111920735D01*
X169217654Y-111555271D01*
X169217654Y-111555267D01*
X169249999Y-111185562D01*
X169250000Y-111185560D01*
X169250000Y-110814440D01*
X169249999Y-110814437D01*
X169217654Y-110444732D01*
X169217654Y-110444728D01*
X169153212Y-110079264D01*
X169153208Y-110079247D01*
X169057162Y-109720793D01*
X168930224Y-109372036D01*
X168773392Y-109035707D01*
X168773384Y-109035692D01*
X168587833Y-108714309D01*
X168587824Y-108714294D01*
X168374959Y-108410292D01*
X168177993Y-108175559D01*
X168177992Y-108175558D01*
X166686900Y-109666650D01*
X166619924Y-109579365D01*
X166420635Y-109380076D01*
X166333347Y-109313098D01*
X167824440Y-107822006D01*
X167824439Y-107822005D01*
X167589707Y-107625040D01*
X167285705Y-107412175D01*
X167285690Y-107412166D01*
X166964307Y-107226615D01*
X166964292Y-107226607D01*
X166627963Y-107069775D01*
X166279206Y-106942837D01*
X165920752Y-106846791D01*
X165920735Y-106846787D01*
X165555269Y-106782345D01*
X165185562Y-106750000D01*
X164814437Y-106750000D01*
X164444732Y-106782345D01*
X164444728Y-106782345D01*
X164079264Y-106846787D01*
X164079247Y-106846791D01*
X163720793Y-106942837D01*
X163372036Y-107069775D01*
X163035707Y-107226607D01*
X163035692Y-107226615D01*
X162714309Y-107412166D01*
X162714294Y-107412175D01*
X162410292Y-107625040D01*
X162175559Y-107822005D01*
X162175558Y-107822006D01*
X163666651Y-109313098D01*
X163579365Y-109380076D01*
X163380076Y-109579365D01*
X163313098Y-109666651D01*
X161822006Y-108175558D01*
X161822005Y-108175559D01*
X161625040Y-108410292D01*
X161412175Y-108714294D01*
X161412166Y-108714309D01*
X161226615Y-109035692D01*
X161226607Y-109035707D01*
X161069775Y-109372036D01*
X160942837Y-109720793D01*
X160846791Y-110079247D01*
X160846787Y-110079264D01*
X160782345Y-110444728D01*
X160782345Y-110444732D01*
X160750000Y-110814437D01*
X109249999Y-110814437D01*
X109217654Y-110444732D01*
X109217654Y-110444728D01*
X109153212Y-110079264D01*
X109153208Y-110079247D01*
X109057162Y-109720793D01*
X108930224Y-109372036D01*
X108773392Y-109035707D01*
X108773384Y-109035692D01*
X108587833Y-108714309D01*
X108587824Y-108714294D01*
X108374959Y-108410292D01*
X108177993Y-108175559D01*
X108177992Y-108175558D01*
X106686900Y-109666650D01*
X106619924Y-109579365D01*
X106420635Y-109380076D01*
X106333347Y-109313098D01*
X107824440Y-107822006D01*
X107824439Y-107822005D01*
X107589707Y-107625040D01*
X107285705Y-107412175D01*
X107285690Y-107412166D01*
X106964307Y-107226615D01*
X106964292Y-107226607D01*
X106627963Y-107069775D01*
X106279206Y-106942837D01*
X105920752Y-106846791D01*
X105920735Y-106846787D01*
X105555269Y-106782345D01*
X105185562Y-106750000D01*
X104814437Y-106750000D01*
X104444732Y-106782345D01*
X104444728Y-106782345D01*
X104079264Y-106846787D01*
X104079247Y-106846791D01*
X103720793Y-106942837D01*
X103372036Y-107069775D01*
X103035707Y-107226607D01*
X103035692Y-107226615D01*
X102714309Y-107412166D01*
X102714294Y-107412175D01*
X102410292Y-107625040D01*
X102175559Y-107822005D01*
X102175558Y-107822006D01*
X103666651Y-109313098D01*
X103579365Y-109380076D01*
X103380076Y-109579365D01*
X103313098Y-109666651D01*
X101822006Y-108175558D01*
X101822005Y-108175559D01*
X101625040Y-108410292D01*
X101412175Y-108714294D01*
X101412166Y-108714309D01*
X101226615Y-109035692D01*
X101226607Y-109035707D01*
X101069775Y-109372036D01*
X100942837Y-109720793D01*
X100846791Y-110079247D01*
X100846787Y-110079264D01*
X100782345Y-110444728D01*
X100782345Y-110444732D01*
X100750000Y-110814437D01*
X100500500Y-110814437D01*
X100500500Y-102636238D01*
X116490001Y-102636238D01*
X116500494Y-102738949D01*
X116555641Y-102905371D01*
X116555643Y-102905376D01*
X116647684Y-103054597D01*
X116771654Y-103178567D01*
X116920875Y-103270608D01*
X116920880Y-103270610D01*
X117087302Y-103325757D01*
X117087309Y-103325758D01*
X117190019Y-103336251D01*
X118389999Y-103336251D01*
X118890000Y-103336251D01*
X120089972Y-103336251D01*
X120089986Y-103336250D01*
X120192697Y-103325757D01*
X120359119Y-103270610D01*
X120359124Y-103270608D01*
X120508345Y-103178567D01*
X120632315Y-103054597D01*
X120724356Y-102905376D01*
X120724358Y-102905371D01*
X120779505Y-102738949D01*
X120779506Y-102738942D01*
X120789999Y-102636238D01*
X120790000Y-102636225D01*
X120790000Y-101836252D01*
X118890000Y-101836252D01*
X118890000Y-103336251D01*
X118389999Y-103336251D01*
X118390000Y-103336250D01*
X118390000Y-101836252D01*
X116490001Y-101836252D01*
X116490001Y-102636238D01*
X100500500Y-102636238D01*
X100500500Y-99588575D01*
X107300000Y-99588575D01*
X107300000Y-99811424D01*
X107329085Y-100032354D01*
X107329088Y-100032367D01*
X107386763Y-100247618D01*
X107472045Y-100453502D01*
X107472054Y-100453520D01*
X107583464Y-100646491D01*
X107583473Y-100646504D01*
X107634040Y-100712403D01*
X107634043Y-100712403D01*
X108435387Y-99911059D01*
X108440889Y-99931591D01*
X108519881Y-100068408D01*
X108631592Y-100180119D01*
X108768409Y-100259111D01*
X108788940Y-100264612D01*
X107987595Y-101065955D01*
X107987595Y-101065956D01*
X108053507Y-101116533D01*
X108246485Y-101227949D01*
X108246497Y-101227954D01*
X108452381Y-101313236D01*
X108667632Y-101370911D01*
X108667645Y-101370914D01*
X108888575Y-101400000D01*
X109111425Y-101400000D01*
X109332354Y-101370914D01*
X109332367Y-101370911D01*
X109547618Y-101313236D01*
X109753502Y-101227954D01*
X109753514Y-101227949D01*
X109946498Y-101116530D01*
X110012403Y-101065957D01*
X110012404Y-101065956D01*
X109211059Y-100264612D01*
X109231591Y-100259111D01*
X109368408Y-100180119D01*
X109480119Y-100068408D01*
X109559111Y-99931591D01*
X109564612Y-99911059D01*
X110365956Y-100712404D01*
X110365957Y-100712403D01*
X110416530Y-100646498D01*
X110480173Y-100536265D01*
X116490000Y-100536265D01*
X116490000Y-101336252D01*
X118390000Y-101336252D01*
X118890000Y-101336252D01*
X120789999Y-101336252D01*
X120789999Y-100536280D01*
X120789998Y-100536265D01*
X120779505Y-100433554D01*
X120724358Y-100267132D01*
X120724356Y-100267127D01*
X120632315Y-100117906D01*
X120589395Y-100074986D01*
X144550001Y-100074986D01*
X144560494Y-100177697D01*
X144615641Y-100344119D01*
X144615643Y-100344124D01*
X144707684Y-100493345D01*
X144831654Y-100617315D01*
X144980875Y-100709356D01*
X144980880Y-100709358D01*
X145147302Y-100764505D01*
X145147309Y-100764506D01*
X145250019Y-100774999D01*
X145699999Y-100774999D01*
X146200000Y-100774999D01*
X146649972Y-100774999D01*
X146649986Y-100774998D01*
X146752697Y-100764505D01*
X146919119Y-100709358D01*
X146919124Y-100709356D01*
X147068345Y-100617315D01*
X147192315Y-100493345D01*
X147284356Y-100344124D01*
X147284358Y-100344119D01*
X147339505Y-100177697D01*
X147339506Y-100177690D01*
X147349999Y-100074986D01*
X148600001Y-100074986D01*
X148610494Y-100177697D01*
X148665641Y-100344119D01*
X148665643Y-100344124D01*
X148757684Y-100493345D01*
X148881654Y-100617315D01*
X149030875Y-100709356D01*
X149030880Y-100709358D01*
X149197302Y-100764505D01*
X149197309Y-100764506D01*
X149300019Y-100774999D01*
X149749999Y-100774999D01*
X150250000Y-100774999D01*
X150699972Y-100774999D01*
X150699986Y-100774998D01*
X150802697Y-100764505D01*
X150969119Y-100709358D01*
X150969124Y-100709356D01*
X151118345Y-100617315D01*
X151242315Y-100493345D01*
X151334356Y-100344124D01*
X151334358Y-100344119D01*
X151389505Y-100177697D01*
X151389506Y-100177690D01*
X151399999Y-100074986D01*
X151400000Y-100074973D01*
X151400000Y-99950000D01*
X150250000Y-99950000D01*
X150250000Y-100774999D01*
X149749999Y-100774999D01*
X149750000Y-100774998D01*
X149750000Y-99950000D01*
X148600001Y-99950000D01*
X148600001Y-100074986D01*
X147349999Y-100074986D01*
X147350000Y-100074973D01*
X147350000Y-99950000D01*
X146200000Y-99950000D01*
X146200000Y-100774999D01*
X145699999Y-100774999D01*
X145700000Y-100774998D01*
X145700000Y-99950000D01*
X144550001Y-99950000D01*
X144550001Y-100074986D01*
X120589395Y-100074986D01*
X120508345Y-99993936D01*
X120359124Y-99901895D01*
X120359119Y-99901893D01*
X120192697Y-99846746D01*
X120192690Y-99846745D01*
X120089986Y-99836252D01*
X118890000Y-99836252D01*
X118890000Y-101336252D01*
X118390000Y-101336252D01*
X118390000Y-99836252D01*
X117190028Y-99836252D01*
X117190012Y-99836253D01*
X117087302Y-99846746D01*
X116920880Y-99901893D01*
X116920875Y-99901895D01*
X116771654Y-99993936D01*
X116647684Y-100117906D01*
X116555643Y-100267127D01*
X116555641Y-100267132D01*
X116500494Y-100433554D01*
X116500493Y-100433561D01*
X116490000Y-100536265D01*
X110480173Y-100536265D01*
X110517787Y-100471116D01*
X110527951Y-100453509D01*
X110527954Y-100453502D01*
X110613236Y-100247618D01*
X110670911Y-100032367D01*
X110670914Y-100032354D01*
X110700000Y-99811424D01*
X110700000Y-99588575D01*
X110670914Y-99367645D01*
X110670911Y-99367632D01*
X110613236Y-99152381D01*
X110527954Y-98946497D01*
X110527949Y-98946485D01*
X110416533Y-98753507D01*
X110365956Y-98687595D01*
X110365955Y-98687595D01*
X109564612Y-99488939D01*
X109559111Y-99468409D01*
X109480119Y-99331592D01*
X109368408Y-99219881D01*
X109231591Y-99140889D01*
X109211058Y-99135387D01*
X110012403Y-98334043D01*
X110012403Y-98334040D01*
X109946504Y-98283473D01*
X109946491Y-98283464D01*
X109753520Y-98172054D01*
X109753502Y-98172045D01*
X109547618Y-98086763D01*
X109332367Y-98029088D01*
X109332354Y-98029085D01*
X109111425Y-98000000D01*
X108888575Y-98000000D01*
X108667645Y-98029085D01*
X108667632Y-98029088D01*
X108452381Y-98086763D01*
X108246497Y-98172045D01*
X108246479Y-98172054D01*
X108053511Y-98283462D01*
X107987595Y-98334042D01*
X108788941Y-99135387D01*
X108768409Y-99140889D01*
X108631592Y-99219881D01*
X108519881Y-99331592D01*
X108440889Y-99468409D01*
X108435387Y-99488940D01*
X107634042Y-98687595D01*
X107583462Y-98753511D01*
X107472054Y-98946479D01*
X107472045Y-98946497D01*
X107386763Y-99152381D01*
X107329088Y-99367632D01*
X107329085Y-99367645D01*
X107300000Y-99588575D01*
X100500500Y-99588575D01*
X100500500Y-94601455D01*
X107049500Y-94601455D01*
X107049500Y-94798544D01*
X107087947Y-94991828D01*
X107087949Y-94991836D01*
X107163367Y-95173910D01*
X107163372Y-95173920D01*
X107276245Y-95342846D01*
X107274717Y-95343866D01*
X107298666Y-95400254D01*
X107299500Y-95414609D01*
X107299500Y-95947870D01*
X107299501Y-95947876D01*
X107305908Y-96007483D01*
X107356202Y-96142328D01*
X107356206Y-96142335D01*
X107442452Y-96257544D01*
X107442455Y-96257547D01*
X107557664Y-96343793D01*
X107557671Y-96343797D01*
X107692517Y-96394091D01*
X107692516Y-96394091D01*
X107699444Y-96394835D01*
X107752127Y-96400500D01*
X110247872Y-96400499D01*
X110307483Y-96394091D01*
X110442331Y-96343796D01*
X110557546Y-96257546D01*
X110643796Y-96142331D01*
X110645515Y-96137721D01*
X110653088Y-96117419D01*
X110694959Y-96061485D01*
X110760423Y-96037068D01*
X110769270Y-96036752D01*
X116444092Y-96036752D01*
X116511131Y-96056437D01*
X116549636Y-96100523D01*
X116551395Y-96099439D01*
X116555185Y-96105583D01*
X116555186Y-96105586D01*
X116647288Y-96254908D01*
X116647289Y-96254909D01*
X116716951Y-96324571D01*
X116750436Y-96385894D01*
X116745452Y-96455586D01*
X116703580Y-96511519D01*
X116638116Y-96535936D01*
X116629270Y-96536252D01*
X115590000Y-96536252D01*
X115590000Y-99174574D01*
X121690000Y-99174574D01*
X121690000Y-98124986D01*
X130000001Y-98124986D01*
X130010494Y-98227697D01*
X130065641Y-98394119D01*
X130065643Y-98394124D01*
X130157684Y-98543345D01*
X130281654Y-98667315D01*
X130430875Y-98759356D01*
X130430880Y-98759358D01*
X130597302Y-98814505D01*
X130597309Y-98814506D01*
X130700019Y-98824999D01*
X131149999Y-98824999D01*
X131650000Y-98824999D01*
X132099972Y-98824999D01*
X132099986Y-98824998D01*
X132202697Y-98814505D01*
X132369119Y-98759358D01*
X132369124Y-98759356D01*
X132518345Y-98667315D01*
X132642315Y-98543345D01*
X132734356Y-98394124D01*
X132734358Y-98394119D01*
X132789505Y-98227697D01*
X132789506Y-98227690D01*
X132799999Y-98124986D01*
X132800000Y-98124973D01*
X132800000Y-98000000D01*
X131650000Y-98000000D01*
X131650000Y-98824999D01*
X131149999Y-98824999D01*
X131150000Y-98824998D01*
X131150000Y-98000000D01*
X130000001Y-98000000D01*
X130000001Y-98124986D01*
X121690000Y-98124986D01*
X121690000Y-96536252D01*
X120650730Y-96536252D01*
X120583691Y-96516567D01*
X120537936Y-96463763D01*
X120527992Y-96394605D01*
X120557017Y-96331049D01*
X120563049Y-96324571D01*
X120632712Y-96254908D01*
X120724814Y-96105586D01*
X120779999Y-95939049D01*
X120784177Y-95898148D01*
X120810573Y-95833459D01*
X120867753Y-95793307D01*
X120907535Y-95786752D01*
X124300882Y-95786752D01*
X124367921Y-95806437D01*
X124406420Y-95845654D01*
X124482288Y-95968656D01*
X124606344Y-96092712D01*
X124755666Y-96184814D01*
X124922203Y-96239999D01*
X125024991Y-96250500D01*
X125675008Y-96250499D01*
X125675016Y-96250498D01*
X125675019Y-96250498D01*
X125731302Y-96244748D01*
X125777797Y-96239999D01*
X125944334Y-96184814D01*
X126093656Y-96092712D01*
X126217712Y-95968656D01*
X126309814Y-95819334D01*
X126316055Y-95800500D01*
X126317880Y-95794994D01*
X126357653Y-95737550D01*
X126422170Y-95710728D01*
X126435585Y-95710000D01*
X127414415Y-95710000D01*
X127481454Y-95729685D01*
X127527209Y-95782489D01*
X127532120Y-95794994D01*
X127540183Y-95819327D01*
X127540187Y-95819336D01*
X127550971Y-95836819D01*
X127632288Y-95968656D01*
X127756344Y-96092712D01*
X127905666Y-96184814D01*
X128072203Y-96239999D01*
X128174991Y-96250500D01*
X128825008Y-96250499D01*
X128825016Y-96250498D01*
X128825019Y-96250498D01*
X128881302Y-96244748D01*
X128927797Y-96239999D01*
X129094334Y-96184814D01*
X129243656Y-96092712D01*
X129367712Y-95968656D01*
X129435099Y-95859402D01*
X129487047Y-95812679D01*
X129540638Y-95800500D01*
X130366000Y-95800500D01*
X130433039Y-95820185D01*
X130478794Y-95872989D01*
X130490000Y-95924500D01*
X130490000Y-96634968D01*
X130470315Y-96702007D01*
X130431097Y-96740506D01*
X130281659Y-96832680D01*
X130281655Y-96832683D01*
X130157684Y-96956654D01*
X130065643Y-97105875D01*
X130065641Y-97105880D01*
X130010494Y-97272302D01*
X130010493Y-97272309D01*
X130000000Y-97375013D01*
X130000000Y-97500000D01*
X132799999Y-97500000D01*
X132799999Y-97375028D01*
X132799998Y-97375013D01*
X132789505Y-97272302D01*
X132734358Y-97105880D01*
X132734356Y-97105875D01*
X132642315Y-96956654D01*
X132518344Y-96832683D01*
X132518340Y-96832680D01*
X132368903Y-96740506D01*
X132322178Y-96688559D01*
X132310000Y-96634968D01*
X132310000Y-95924500D01*
X132329685Y-95857461D01*
X132382489Y-95811706D01*
X132434000Y-95800500D01*
X133259362Y-95800500D01*
X133326401Y-95820185D01*
X133364899Y-95859401D01*
X133432288Y-95968656D01*
X133556344Y-96092712D01*
X133705666Y-96184814D01*
X133872203Y-96239999D01*
X133974991Y-96250500D01*
X134625008Y-96250499D01*
X134625016Y-96250498D01*
X134625019Y-96250498D01*
X134681302Y-96244748D01*
X134727797Y-96239999D01*
X134894334Y-96184814D01*
X135043656Y-96092712D01*
X135167712Y-95968656D01*
X135259814Y-95819334D01*
X135314999Y-95652797D01*
X135325500Y-95550009D01*
X135325499Y-94049992D01*
X135322727Y-94022860D01*
X135314999Y-93947203D01*
X135314998Y-93947200D01*
X135296044Y-93890000D01*
X135259814Y-93780666D01*
X135167712Y-93631344D01*
X135043656Y-93507288D01*
X134925086Y-93434154D01*
X134894336Y-93415187D01*
X134894331Y-93415185D01*
X134892862Y-93414698D01*
X134727797Y-93360001D01*
X134727795Y-93360000D01*
X134625010Y-93349500D01*
X133974998Y-93349500D01*
X133974980Y-93349501D01*
X133872203Y-93360000D01*
X133872200Y-93360001D01*
X133705668Y-93415185D01*
X133705663Y-93415187D01*
X133556342Y-93507289D01*
X133432289Y-93631342D01*
X133423751Y-93645185D01*
X133368353Y-93735001D01*
X133364901Y-93740597D01*
X133312953Y-93787321D01*
X133259362Y-93799500D01*
X132416798Y-93799500D01*
X132376795Y-93790631D01*
X132376190Y-93792458D01*
X132355953Y-93785752D01*
X132202797Y-93735001D01*
X132202795Y-93735000D01*
X132100010Y-93724500D01*
X130699998Y-93724500D01*
X130699981Y-93724501D01*
X130597203Y-93735000D01*
X130597200Y-93735001D01*
X130423810Y-93792458D01*
X130423204Y-93790631D01*
X130383202Y-93799500D01*
X129540638Y-93799500D01*
X129473599Y-93779815D01*
X129435099Y-93740597D01*
X129432414Y-93736244D01*
X129367712Y-93631344D01*
X129282399Y-93546031D01*
X129248914Y-93484708D01*
X129248464Y-93434154D01*
X129250500Y-93423920D01*
X129250500Y-93276080D01*
X129221658Y-93131089D01*
X129221657Y-93131085D01*
X129206260Y-93093912D01*
X129165087Y-92994511D01*
X129165080Y-92994498D01*
X129082951Y-92871584D01*
X129082948Y-92871580D01*
X128503421Y-92292052D01*
X128503414Y-92292046D01*
X128429729Y-92242812D01*
X128429729Y-92242813D01*
X128380491Y-92209913D01*
X128243917Y-92153343D01*
X128243907Y-92153340D01*
X128098920Y-92124500D01*
X128098918Y-92124500D01*
X120687229Y-92124500D01*
X120620190Y-92104815D01*
X120599548Y-92088181D01*
X120186819Y-91675451D01*
X120153334Y-91614128D01*
X120150500Y-91587770D01*
X120150500Y-89936867D01*
X120170185Y-89869828D01*
X120183086Y-89853085D01*
X120191210Y-89844220D01*
X120193656Y-89842712D01*
X120317712Y-89718656D01*
X120409814Y-89569334D01*
X120454164Y-89435494D01*
X120493936Y-89378051D01*
X120558451Y-89351228D01*
X120571869Y-89350500D01*
X121030172Y-89350500D01*
X121032738Y-89350865D01*
X121033919Y-89350557D01*
X121036501Y-89351400D01*
X121064767Y-89355424D01*
X121209926Y-89397597D01*
X121209929Y-89397597D01*
X121209931Y-89397598D01*
X121246806Y-89400500D01*
X121246814Y-89400500D01*
X122403186Y-89400500D01*
X122403194Y-89400500D01*
X122440069Y-89397598D01*
X122440071Y-89397597D01*
X122440073Y-89397597D01*
X122481691Y-89385505D01*
X122597898Y-89351744D01*
X122656194Y-89317268D01*
X122719315Y-89300000D01*
X122984794Y-89300000D01*
X123009057Y-89273752D01*
X123069018Y-89237885D01*
X123138852Y-89240129D01*
X123178512Y-89264530D01*
X123179469Y-89263298D01*
X123185632Y-89268078D01*
X123185635Y-89268081D01*
X123327102Y-89351744D01*
X123339769Y-89355424D01*
X123484926Y-89397597D01*
X123484929Y-89397597D01*
X123484931Y-89397598D01*
X123521806Y-89400500D01*
X123521814Y-89400500D01*
X124678186Y-89400500D01*
X124678194Y-89400500D01*
X124715069Y-89397598D01*
X124715071Y-89397597D01*
X124715073Y-89397597D01*
X124756691Y-89385505D01*
X124872898Y-89351744D01*
X125014365Y-89268081D01*
X125130581Y-89151865D01*
X125214244Y-89010398D01*
X125255669Y-88867813D01*
X125260097Y-88852573D01*
X125260098Y-88852567D01*
X125260300Y-88850000D01*
X125263000Y-88815694D01*
X125263000Y-88384306D01*
X125260098Y-88347431D01*
X125244384Y-88293345D01*
X125214245Y-88189606D01*
X125214244Y-88189603D01*
X125214244Y-88189602D01*
X125130581Y-88048135D01*
X125130579Y-88048133D01*
X125130576Y-88048129D01*
X125014370Y-87931923D01*
X125014361Y-87931916D01*
X124911379Y-87871013D01*
X124863695Y-87819944D01*
X124850500Y-87764281D01*
X124850500Y-86120908D01*
X124870185Y-86053869D01*
X124914271Y-86015363D01*
X124913187Y-86013605D01*
X124919332Y-86009814D01*
X124919334Y-86009814D01*
X125068656Y-85917712D01*
X125149549Y-85836819D01*
X125210872Y-85803334D01*
X125237230Y-85800500D01*
X125823920Y-85800500D01*
X125936377Y-85778130D01*
X125968913Y-85771658D01*
X126105495Y-85715084D01*
X126180453Y-85664999D01*
X126228416Y-85632952D01*
X127424549Y-84436819D01*
X127451476Y-84422115D01*
X127477295Y-84405523D01*
X127483495Y-84404631D01*
X127485872Y-84403334D01*
X127512230Y-84400500D01*
X127673796Y-84400500D01*
X127740835Y-84420185D01*
X127765530Y-84441736D01*
X127765610Y-84441657D01*
X127766773Y-84442820D01*
X127768077Y-84443958D01*
X127769050Y-84445097D01*
X127769055Y-84445102D01*
X127904898Y-84580945D01*
X128060319Y-84693865D01*
X128231491Y-84781082D01*
X128231493Y-84781083D01*
X128296081Y-84802069D01*
X128353756Y-84841506D01*
X128380955Y-84905865D01*
X128369041Y-84974711D01*
X128321797Y-85026187D01*
X128296081Y-85037931D01*
X128231493Y-85058916D01*
X128060318Y-85146135D01*
X127988977Y-85197968D01*
X127904898Y-85259055D01*
X127904896Y-85259057D01*
X127904895Y-85259057D01*
X127769057Y-85394895D01*
X127769057Y-85394896D01*
X127769055Y-85394898D01*
X127750952Y-85419815D01*
X127656135Y-85550318D01*
X127568916Y-85721493D01*
X127509553Y-85904197D01*
X127487237Y-86045096D01*
X127479500Y-86093945D01*
X127479500Y-86286055D01*
X127487222Y-86334812D01*
X127509553Y-86475802D01*
X127568916Y-86658506D01*
X127641755Y-86801459D01*
X127656135Y-86829681D01*
X127769055Y-86985102D01*
X127904898Y-87120945D01*
X128060319Y-87233865D01*
X128169006Y-87289244D01*
X128231495Y-87321084D01*
X128296890Y-87342332D01*
X128354566Y-87381769D01*
X128381765Y-87446127D01*
X128369851Y-87514974D01*
X128322607Y-87566450D01*
X128296893Y-87578194D01*
X128231677Y-87599384D01*
X128060578Y-87686564D01*
X128031352Y-87707798D01*
X128031351Y-87707798D01*
X128653554Y-88330000D01*
X128647339Y-88330000D01*
X128545606Y-88357259D01*
X128454394Y-88409920D01*
X128379920Y-88484394D01*
X128327259Y-88575606D01*
X128300000Y-88677339D01*
X128300000Y-88683553D01*
X127677798Y-88061351D01*
X127677798Y-88061352D01*
X127656564Y-88090578D01*
X127569383Y-88261678D01*
X127510040Y-88444315D01*
X127480000Y-88633984D01*
X127480000Y-88826015D01*
X127510040Y-89015684D01*
X127569383Y-89198321D01*
X127656561Y-89369415D01*
X127677798Y-89398646D01*
X128300000Y-88776445D01*
X128300000Y-88782661D01*
X128327259Y-88884394D01*
X128379920Y-88975606D01*
X128454394Y-89050080D01*
X128545606Y-89102741D01*
X128647339Y-89130000D01*
X128653554Y-89130000D01*
X128070373Y-89713181D01*
X128009050Y-89746666D01*
X127982692Y-89749500D01*
X126564610Y-89749500D01*
X126497571Y-89729815D01*
X126490641Y-89724771D01*
X126323920Y-89613371D01*
X126323907Y-89613364D01*
X126141839Y-89537950D01*
X126141829Y-89537947D01*
X125948543Y-89499500D01*
X125948541Y-89499500D01*
X125751459Y-89499500D01*
X125751457Y-89499500D01*
X125558170Y-89537947D01*
X125558160Y-89537950D01*
X125376092Y-89613364D01*
X125376079Y-89613371D01*
X125207153Y-89726245D01*
X125206132Y-89724717D01*
X125191208Y-89731056D01*
X125170325Y-89744477D01*
X125154123Y-89746806D01*
X125149745Y-89748666D01*
X125135390Y-89749500D01*
X124894828Y-89749500D01*
X124860233Y-89744576D01*
X124715073Y-89702402D01*
X124715067Y-89702401D01*
X124678201Y-89699500D01*
X124678194Y-89699500D01*
X123521806Y-89699500D01*
X123521798Y-89699500D01*
X123484932Y-89702401D01*
X123484926Y-89702402D01*
X123327106Y-89748254D01*
X123327103Y-89748255D01*
X123185637Y-89831917D01*
X123179469Y-89836702D01*
X123178164Y-89835019D01*
X123126454Y-89863246D01*
X123056763Y-89858251D01*
X123009058Y-89826247D01*
X122984796Y-89800000D01*
X122719315Y-89800000D01*
X122656194Y-89782732D01*
X122620472Y-89761606D01*
X122597898Y-89748256D01*
X122597897Y-89748255D01*
X122597896Y-89748255D01*
X122597893Y-89748254D01*
X122440073Y-89702402D01*
X122440067Y-89702401D01*
X122403201Y-89699500D01*
X122403194Y-89699500D01*
X121246806Y-89699500D01*
X121246798Y-89699500D01*
X121209932Y-89702401D01*
X121209926Y-89702402D01*
X121052106Y-89748254D01*
X121052103Y-89748255D01*
X120993806Y-89782732D01*
X120983874Y-89785251D01*
X120930685Y-89800000D01*
X120665205Y-89800000D01*
X120665204Y-89800001D01*
X120665399Y-89802488D01*
X120665400Y-89802494D01*
X120711216Y-89960193D01*
X120711220Y-89960203D01*
X120711927Y-89961398D01*
X120712195Y-89962454D01*
X120714316Y-89967356D01*
X120713524Y-89967698D01*
X120729103Y-90029123D01*
X120713493Y-90082284D01*
X120713855Y-90082441D01*
X120712587Y-90085369D01*
X120711927Y-90087620D01*
X120710759Y-90089594D01*
X120710754Y-90089607D01*
X120664902Y-90247426D01*
X120664901Y-90247432D01*
X120662000Y-90284298D01*
X120662000Y-90715701D01*
X120664901Y-90752567D01*
X120664902Y-90752573D01*
X120710754Y-90910393D01*
X120710755Y-90910396D01*
X120794232Y-91051550D01*
X120794418Y-91051864D01*
X120794423Y-91051870D01*
X120910629Y-91168076D01*
X120910633Y-91168079D01*
X120910635Y-91168081D01*
X121052102Y-91251744D01*
X121064769Y-91255424D01*
X121209926Y-91297597D01*
X121209929Y-91297597D01*
X121209931Y-91297598D01*
X121246806Y-91300500D01*
X121246814Y-91300500D01*
X122403186Y-91300500D01*
X122403194Y-91300500D01*
X122440069Y-91297598D01*
X122440071Y-91297597D01*
X122440073Y-91297597D01*
X122481691Y-91285505D01*
X122597898Y-91251744D01*
X122739365Y-91168081D01*
X122855581Y-91051865D01*
X122855767Y-91051549D01*
X122855977Y-91051353D01*
X122860361Y-91045702D01*
X122861272Y-91046409D01*
X122906836Y-91003866D01*
X122975577Y-90991362D01*
X123040167Y-91018006D01*
X123064355Y-91045921D01*
X123064639Y-91045702D01*
X123068679Y-91050911D01*
X123069232Y-91051548D01*
X123069419Y-91051865D01*
X123069421Y-91051867D01*
X123069423Y-91051870D01*
X123185629Y-91168076D01*
X123185633Y-91168079D01*
X123185635Y-91168081D01*
X123327102Y-91251744D01*
X123339769Y-91255424D01*
X123484926Y-91297597D01*
X123484929Y-91297597D01*
X123484931Y-91297598D01*
X123521806Y-91300500D01*
X123521814Y-91300500D01*
X124678186Y-91300500D01*
X124678194Y-91300500D01*
X124715069Y-91297598D01*
X124715071Y-91297597D01*
X124715073Y-91297597D01*
X124860233Y-91255424D01*
X124894828Y-91250500D01*
X125135390Y-91250500D01*
X125202429Y-91270185D01*
X125209358Y-91275228D01*
X125376079Y-91386628D01*
X125376092Y-91386635D01*
X125558160Y-91462049D01*
X125558165Y-91462051D01*
X125558169Y-91462051D01*
X125558170Y-91462052D01*
X125751456Y-91500500D01*
X125751459Y-91500500D01*
X125948543Y-91500500D01*
X126078582Y-91474632D01*
X126141835Y-91462051D01*
X126323914Y-91386632D01*
X126323920Y-91386628D01*
X126492847Y-91273755D01*
X126493867Y-91275282D01*
X126550255Y-91251334D01*
X126564610Y-91250500D01*
X142073920Y-91250500D01*
X142171462Y-91231096D01*
X142218913Y-91221658D01*
X142355495Y-91165084D01*
X142404729Y-91132186D01*
X142478416Y-91082952D01*
X143274548Y-90286818D01*
X143335871Y-90253334D01*
X143362229Y-90250500D01*
X148888180Y-90250500D01*
X148955219Y-90270185D01*
X149000974Y-90322989D01*
X149009797Y-90350309D01*
X149037947Y-90491827D01*
X149037950Y-90491839D01*
X149113364Y-90673907D01*
X149113371Y-90673920D01*
X149141853Y-90716546D01*
X149162731Y-90783224D01*
X149144246Y-90850604D01*
X149092267Y-90897294D01*
X149082086Y-90901618D01*
X149046474Y-90914901D01*
X149046464Y-90914906D01*
X148931255Y-91001152D01*
X148931252Y-91001155D01*
X148845006Y-91116364D01*
X148845002Y-91116371D01*
X148805733Y-91221659D01*
X148794709Y-91251217D01*
X148788300Y-91310827D01*
X148788300Y-91310834D01*
X148788300Y-91310835D01*
X148788300Y-91889170D01*
X148788301Y-91889179D01*
X148793133Y-91934128D01*
X148780726Y-92002887D01*
X148733114Y-92054023D01*
X148665414Y-92071301D01*
X148599121Y-92049235D01*
X148578727Y-92031487D01*
X148571742Y-92023920D01*
X148381043Y-91817329D01*
X148282894Y-91734946D01*
X148152019Y-91675176D01*
X148152014Y-91675175D01*
X148009600Y-91654700D01*
X147313300Y-91654700D01*
X147246261Y-91635015D01*
X147200506Y-91582211D01*
X147189300Y-91530701D01*
X147189299Y-91310830D01*
X147189298Y-91310823D01*
X147189297Y-91310816D01*
X147182891Y-91251217D01*
X147171866Y-91221658D01*
X147132597Y-91116371D01*
X147132593Y-91116364D01*
X147046347Y-91001155D01*
X147046344Y-91001152D01*
X146931135Y-90914906D01*
X146931128Y-90914902D01*
X146796282Y-90864608D01*
X146796283Y-90864608D01*
X146736683Y-90858201D01*
X146736681Y-90858200D01*
X146736673Y-90858200D01*
X146736664Y-90858200D01*
X145218529Y-90858200D01*
X145218523Y-90858201D01*
X145158916Y-90864608D01*
X145024071Y-90914902D01*
X145024064Y-90914906D01*
X144908855Y-91001152D01*
X144908852Y-91001155D01*
X144822606Y-91116364D01*
X144822602Y-91116371D01*
X144772308Y-91251217D01*
X144767322Y-91297597D01*
X144765901Y-91310823D01*
X144765900Y-91310835D01*
X144765900Y-91751615D01*
X144746215Y-91818654D01*
X144735613Y-91832817D01*
X144688748Y-91886901D01*
X144688745Y-91886907D01*
X144628976Y-92017780D01*
X144628975Y-92017785D01*
X144608500Y-92160199D01*
X144608500Y-94039802D01*
X144613644Y-94111740D01*
X144642338Y-94209460D01*
X144654181Y-94249792D01*
X144731969Y-94370832D01*
X144731971Y-94370834D01*
X144735613Y-94375037D01*
X144764638Y-94438593D01*
X144765900Y-94456240D01*
X144765900Y-94889170D01*
X144765901Y-94889176D01*
X144772308Y-94948783D01*
X144822602Y-95083628D01*
X144822603Y-95083629D01*
X144822604Y-95083631D01*
X144887535Y-95170368D01*
X144908856Y-95198849D01*
X144913181Y-95203174D01*
X144946666Y-95264497D01*
X144949500Y-95290855D01*
X144949500Y-95675500D01*
X144929815Y-95742539D01*
X144877011Y-95788294D01*
X144825500Y-95799500D01*
X142615782Y-95799500D01*
X142548743Y-95779815D01*
X142528101Y-95763181D01*
X140931479Y-94166559D01*
X140931459Y-94166537D01*
X140787785Y-94022863D01*
X140787781Y-94022860D01*
X140623920Y-93913371D01*
X140623907Y-93913364D01*
X140478629Y-93853189D01*
X140478626Y-93853188D01*
X140470014Y-93849621D01*
X140441836Y-93837949D01*
X140318264Y-93813369D01*
X140315460Y-93812811D01*
X140315451Y-93812809D01*
X140248543Y-93799500D01*
X140248541Y-93799500D01*
X138490638Y-93799500D01*
X138423599Y-93779815D01*
X138385099Y-93740597D01*
X138382414Y-93736244D01*
X138317712Y-93631344D01*
X138193656Y-93507288D01*
X138075086Y-93434154D01*
X138044336Y-93415187D01*
X138044331Y-93415185D01*
X138042862Y-93414698D01*
X137877797Y-93360001D01*
X137877795Y-93360000D01*
X137775010Y-93349500D01*
X137124998Y-93349500D01*
X137124980Y-93349501D01*
X137022203Y-93360000D01*
X137022200Y-93360001D01*
X136855668Y-93415185D01*
X136855663Y-93415187D01*
X136706342Y-93507289D01*
X136582289Y-93631342D01*
X136490187Y-93780663D01*
X136490185Y-93780668D01*
X136466580Y-93851904D01*
X136435001Y-93947203D01*
X136435001Y-93947204D01*
X136435000Y-93947204D01*
X136424500Y-94049983D01*
X136424500Y-95550001D01*
X136424501Y-95550018D01*
X136435000Y-95652796D01*
X136435001Y-95652799D01*
X136490185Y-95819331D01*
X136490187Y-95819336D01*
X136500971Y-95836819D01*
X136582288Y-95968656D01*
X136706344Y-96092712D01*
X136855666Y-96184814D01*
X137022203Y-96239999D01*
X137124991Y-96250500D01*
X137775008Y-96250499D01*
X137775016Y-96250498D01*
X137775019Y-96250498D01*
X137831302Y-96244748D01*
X137877797Y-96239999D01*
X138044334Y-96184814D01*
X138193656Y-96092712D01*
X138317712Y-95968656D01*
X138385099Y-95859402D01*
X138437047Y-95812679D01*
X138490638Y-95800500D01*
X139684218Y-95800500D01*
X139751257Y-95820185D01*
X139771899Y-95836819D01*
X141369735Y-97434655D01*
X141369764Y-97434686D01*
X141512214Y-97577136D01*
X141512218Y-97577139D01*
X141676079Y-97686628D01*
X141676092Y-97686635D01*
X141804833Y-97739961D01*
X141847744Y-97757735D01*
X141858164Y-97762051D01*
X141954812Y-97781275D01*
X142003135Y-97790887D01*
X142051458Y-97800500D01*
X142051459Y-97800500D01*
X142051460Y-97800500D01*
X142248540Y-97800500D01*
X144916000Y-97800500D01*
X144983039Y-97820185D01*
X145028794Y-97872989D01*
X145040000Y-97924500D01*
X145040000Y-98584968D01*
X145020315Y-98652007D01*
X144981097Y-98690506D01*
X144831659Y-98782680D01*
X144831655Y-98782683D01*
X144707684Y-98906654D01*
X144615643Y-99055875D01*
X144615641Y-99055880D01*
X144560494Y-99222302D01*
X144560493Y-99222309D01*
X144550000Y-99325013D01*
X144550000Y-99450000D01*
X147349999Y-99450000D01*
X147349999Y-99325028D01*
X147349998Y-99325013D01*
X147339505Y-99222302D01*
X147284358Y-99055880D01*
X147284356Y-99055875D01*
X147192315Y-98906654D01*
X147068344Y-98782683D01*
X147068340Y-98782680D01*
X146918903Y-98690506D01*
X146872178Y-98638559D01*
X146860000Y-98584968D01*
X146860000Y-97865618D01*
X146879685Y-97798579D01*
X146918904Y-97760079D01*
X146951521Y-97739961D01*
X147068656Y-97667712D01*
X147192712Y-97543656D01*
X147284814Y-97394334D01*
X147339999Y-97227797D01*
X147350500Y-97125009D01*
X147350499Y-96374992D01*
X147347312Y-96343797D01*
X147339999Y-96272203D01*
X147339998Y-96272200D01*
X147332807Y-96250498D01*
X147284814Y-96105666D01*
X147192712Y-95956344D01*
X147068656Y-95832288D01*
X147068655Y-95832287D01*
X147009402Y-95795739D01*
X146962678Y-95743791D01*
X146950500Y-95690201D01*
X146950500Y-95332665D01*
X146970185Y-95265626D01*
X147000190Y-95233398D01*
X147046346Y-95198846D01*
X147132596Y-95083631D01*
X147182891Y-94948783D01*
X147189300Y-94889173D01*
X147189299Y-94669299D01*
X147208983Y-94602261D01*
X147261787Y-94556506D01*
X147313299Y-94545300D01*
X148009596Y-94545300D01*
X148009600Y-94545300D01*
X148136708Y-94529058D01*
X148269399Y-94473430D01*
X148381043Y-94382671D01*
X148578729Y-94168510D01*
X148638663Y-94132603D01*
X148708498Y-94134798D01*
X148766061Y-94174400D01*
X148793075Y-94238836D01*
X148793133Y-94265872D01*
X148788300Y-94310830D01*
X148788300Y-94889170D01*
X148788301Y-94889176D01*
X148794708Y-94948783D01*
X148845002Y-95083628D01*
X148845003Y-95083629D01*
X148845004Y-95083631D01*
X148931253Y-95198844D01*
X148931254Y-95198846D01*
X148949808Y-95212735D01*
X148991681Y-95268668D01*
X148999500Y-95312004D01*
X148999500Y-95690201D01*
X148979815Y-95757240D01*
X148940598Y-95795739D01*
X148881344Y-95832287D01*
X148757289Y-95956342D01*
X148665187Y-96105663D01*
X148665186Y-96105666D01*
X148610001Y-96272203D01*
X148610001Y-96272204D01*
X148610000Y-96272204D01*
X148599500Y-96374983D01*
X148599500Y-97125001D01*
X148599501Y-97125019D01*
X148610000Y-97227796D01*
X148610001Y-97227799D01*
X148665185Y-97394331D01*
X148665187Y-97394336D01*
X148757289Y-97543657D01*
X148881344Y-97667712D01*
X149031096Y-97760079D01*
X149077821Y-97812027D01*
X149090000Y-97865618D01*
X149090000Y-98584968D01*
X149070315Y-98652007D01*
X149031097Y-98690506D01*
X148881659Y-98782680D01*
X148881655Y-98782683D01*
X148757684Y-98906654D01*
X148665643Y-99055875D01*
X148665641Y-99055880D01*
X148610494Y-99222302D01*
X148610493Y-99222309D01*
X148600000Y-99325013D01*
X148600000Y-99450000D01*
X151399999Y-99450000D01*
X151399999Y-99325028D01*
X151399998Y-99325013D01*
X151389505Y-99222302D01*
X151334358Y-99055880D01*
X151334356Y-99055875D01*
X151242315Y-98906654D01*
X151118344Y-98782683D01*
X151118340Y-98782680D01*
X150968903Y-98690506D01*
X150922178Y-98638559D01*
X150910000Y-98584968D01*
X150910000Y-97865618D01*
X150929685Y-97798579D01*
X150968904Y-97760079D01*
X151001521Y-97739961D01*
X151118656Y-97667712D01*
X151242712Y-97543656D01*
X151334814Y-97394334D01*
X151389999Y-97227797D01*
X151400500Y-97125009D01*
X151400499Y-96374992D01*
X151397312Y-96343797D01*
X151389999Y-96272203D01*
X151389998Y-96272200D01*
X151382807Y-96250498D01*
X151334814Y-96105666D01*
X151242712Y-95956344D01*
X151118656Y-95832288D01*
X151115008Y-95830037D01*
X151113032Y-95827841D01*
X151112989Y-95827807D01*
X151112994Y-95827799D01*
X151068285Y-95778091D01*
X151057062Y-95709128D01*
X151084906Y-95645046D01*
X151142975Y-95606190D01*
X151180106Y-95600500D01*
X153598542Y-95600500D01*
X153616079Y-95597011D01*
X153695188Y-95581275D01*
X153791836Y-95562051D01*
X153852913Y-95536752D01*
X153973914Y-95486632D01*
X154137782Y-95377139D01*
X154277139Y-95237782D01*
X154277139Y-95237780D01*
X154287347Y-95227573D01*
X154287348Y-95227570D01*
X158564640Y-90950281D01*
X158674132Y-90786414D01*
X158749552Y-90604335D01*
X158788000Y-90411040D01*
X158788000Y-90213959D01*
X158788000Y-84199500D01*
X158807685Y-84132461D01*
X158860489Y-84086706D01*
X158912000Y-84075500D01*
X159788167Y-84075500D01*
X159855206Y-84095185D01*
X159865078Y-84102234D01*
X159868841Y-84105209D01*
X159868844Y-84105212D01*
X160018166Y-84197314D01*
X160184703Y-84252499D01*
X160287491Y-84263000D01*
X161637508Y-84262999D01*
X161740297Y-84252499D01*
X161906834Y-84197314D01*
X162056156Y-84105212D01*
X162180212Y-83981156D01*
X162272314Y-83831834D01*
X162327499Y-83665297D01*
X162338000Y-83562509D01*
X162337999Y-82837492D01*
X162335704Y-82815030D01*
X162327499Y-82734703D01*
X162327498Y-82734700D01*
X162315382Y-82698137D01*
X162272314Y-82568166D01*
X162180212Y-82418844D01*
X162056156Y-82294788D01*
X161942998Y-82224992D01*
X161906836Y-82202687D01*
X161906831Y-82202685D01*
X161887647Y-82196328D01*
X161740297Y-82147501D01*
X161740295Y-82147500D01*
X161637510Y-82137000D01*
X160287498Y-82137000D01*
X160287481Y-82137001D01*
X160184703Y-82147500D01*
X160184700Y-82147501D01*
X160018168Y-82202685D01*
X160018163Y-82202687D01*
X159868841Y-82294790D01*
X159865078Y-82297766D01*
X159800283Y-82323907D01*
X159788167Y-82324500D01*
X157523729Y-82324500D01*
X157351271Y-82324500D01*
X157304997Y-82333704D01*
X157237558Y-82347118D01*
X157213368Y-82349500D01*
X156512498Y-82349500D01*
X156512480Y-82349501D01*
X156409703Y-82360000D01*
X156409700Y-82360001D01*
X156243168Y-82415185D01*
X156243163Y-82415187D01*
X156093842Y-82507289D01*
X155969789Y-82631342D01*
X155877687Y-82780663D01*
X155877685Y-82780668D01*
X155858156Y-82839603D01*
X155822501Y-82947203D01*
X155822501Y-82947204D01*
X155822500Y-82947204D01*
X155812000Y-83049983D01*
X155812000Y-83700001D01*
X155812001Y-83700019D01*
X155822500Y-83802796D01*
X155822501Y-83802799D01*
X155877685Y-83969331D01*
X155877687Y-83969336D01*
X155897677Y-84001745D01*
X155969788Y-84118656D01*
X156093844Y-84242712D01*
X156243166Y-84334814D01*
X156409703Y-84389999D01*
X156512491Y-84400500D01*
X156663000Y-84400499D01*
X156730039Y-84420183D01*
X156775794Y-84472987D01*
X156787000Y-84524499D01*
X156787000Y-89846717D01*
X156767315Y-89913756D01*
X156750681Y-89934398D01*
X153121899Y-93563181D01*
X153060576Y-93596666D01*
X153034218Y-93599500D01*
X149905758Y-93599500D01*
X149838719Y-93579815D01*
X149792964Y-93527011D01*
X149783020Y-93457853D01*
X149783843Y-93452128D01*
X149794300Y-93379400D01*
X149794300Y-92820600D01*
X149789155Y-92748660D01*
X149748619Y-92610608D01*
X149748615Y-92610601D01*
X149698640Y-92532838D01*
X149696089Y-92524151D01*
X149690161Y-92517310D01*
X149686400Y-92491153D01*
X149678955Y-92465799D01*
X149681505Y-92457113D01*
X149680217Y-92448152D01*
X149691195Y-92424111D01*
X149698640Y-92398760D01*
X149705480Y-92392832D01*
X149709242Y-92384596D01*
X149731476Y-92370306D01*
X149751444Y-92353005D01*
X149761958Y-92350717D01*
X149768020Y-92346822D01*
X149802955Y-92341799D01*
X149870129Y-92341799D01*
X149894321Y-92344181D01*
X149907593Y-92346822D01*
X149926081Y-92350500D01*
X149926082Y-92350500D01*
X150073919Y-92350500D01*
X150092407Y-92346822D01*
X150105678Y-92344181D01*
X150129871Y-92341799D01*
X150759071Y-92341799D01*
X150759072Y-92341799D01*
X150818683Y-92335391D01*
X150953531Y-92285096D01*
X151068746Y-92198846D01*
X151154996Y-92083631D01*
X151205291Y-91948783D01*
X151211700Y-91889173D01*
X151211699Y-91310828D01*
X151205291Y-91251217D01*
X151194266Y-91221658D01*
X151154997Y-91116371D01*
X151154993Y-91116364D01*
X151068748Y-91001156D01*
X151068746Y-91001155D01*
X151068746Y-91001154D01*
X151064217Y-90997763D01*
X151022349Y-90941831D01*
X151017366Y-90872139D01*
X151050853Y-90810817D01*
X151112176Y-90777333D01*
X151138532Y-90774500D01*
X152412607Y-90774500D01*
X152473029Y-90762481D01*
X152533452Y-90750463D01*
X152566792Y-90736652D01*
X152647286Y-90703312D01*
X152698509Y-90669084D01*
X152749733Y-90634858D01*
X152836858Y-90547733D01*
X152836859Y-90547731D01*
X152843925Y-90540665D01*
X152843928Y-90540661D01*
X153198729Y-90185860D01*
X153198733Y-90185858D01*
X153285858Y-90098733D01*
X153338022Y-90020664D01*
X153354312Y-89996285D01*
X153401463Y-89882451D01*
X153409368Y-89842712D01*
X153425500Y-89761606D01*
X153425500Y-88498023D01*
X153445185Y-88430984D01*
X153497989Y-88385229D01*
X153567147Y-88375285D01*
X153630703Y-88404310D01*
X153637181Y-88410342D01*
X153644154Y-88417315D01*
X153793375Y-88509356D01*
X153793380Y-88509358D01*
X153959802Y-88564505D01*
X153959809Y-88564506D01*
X154062519Y-88574999D01*
X154174999Y-88574999D01*
X154675000Y-88574999D01*
X154787472Y-88574999D01*
X154787486Y-88574998D01*
X154890197Y-88564505D01*
X155056619Y-88509358D01*
X155056624Y-88509356D01*
X155205845Y-88417315D01*
X155329815Y-88293345D01*
X155421856Y-88144124D01*
X155421858Y-88144119D01*
X155477005Y-87977697D01*
X155477006Y-87977690D01*
X155487499Y-87874986D01*
X155487500Y-87874973D01*
X155487500Y-87450000D01*
X154675000Y-87450000D01*
X154675000Y-88574999D01*
X154174999Y-88574999D01*
X154175000Y-88574998D01*
X154175000Y-87324000D01*
X154194685Y-87256961D01*
X154247489Y-87211206D01*
X154299000Y-87200000D01*
X154425000Y-87200000D01*
X154425000Y-87074000D01*
X154444685Y-87006961D01*
X154497489Y-86961206D01*
X154549000Y-86950000D01*
X155487499Y-86950000D01*
X155487499Y-86525028D01*
X155487498Y-86525013D01*
X155477005Y-86422302D01*
X155421858Y-86255880D01*
X155421856Y-86255875D01*
X155329815Y-86106654D01*
X155205845Y-85982684D01*
X155056624Y-85890643D01*
X155056619Y-85890641D01*
X154956948Y-85857614D01*
X154899503Y-85817842D01*
X154872680Y-85753326D01*
X154884995Y-85684550D01*
X154932538Y-85633350D01*
X154956943Y-85622203D01*
X154994334Y-85609814D01*
X155143656Y-85517712D01*
X155267712Y-85393656D01*
X155359814Y-85244334D01*
X155414999Y-85077797D01*
X155425500Y-84975009D01*
X155425499Y-83624992D01*
X155425158Y-83621658D01*
X155414999Y-83522203D01*
X155414998Y-83522200D01*
X155390495Y-83448255D01*
X155359814Y-83355666D01*
X155267712Y-83206344D01*
X155143656Y-83082288D01*
X154994334Y-82990186D01*
X154901294Y-82959355D01*
X154843851Y-82919583D01*
X154817028Y-82855067D01*
X154816300Y-82841650D01*
X154816300Y-82574781D01*
X154835985Y-82507742D01*
X154888789Y-82461987D01*
X154927047Y-82451491D01*
X154958683Y-82448091D01*
X155093531Y-82397796D01*
X155208746Y-82311546D01*
X155294996Y-82196331D01*
X155345291Y-82061483D01*
X155351700Y-82001873D01*
X155351699Y-81398128D01*
X155345291Y-81338517D01*
X155345098Y-81338000D01*
X155318847Y-81267617D01*
X155313863Y-81197926D01*
X155318848Y-81180949D01*
X155344797Y-81111378D01*
X155344797Y-81111376D01*
X155351199Y-81051843D01*
X155351200Y-81051826D01*
X155351200Y-80999999D01*
X155109991Y-80999999D01*
X155066658Y-80992181D01*
X154958682Y-80951908D01*
X154958683Y-80951908D01*
X154899083Y-80945501D01*
X154899081Y-80945500D01*
X154899073Y-80945500D01*
X154899065Y-80945500D01*
X154314800Y-80945500D01*
X154306114Y-80942949D01*
X154297153Y-80944238D01*
X154273112Y-80933259D01*
X154247761Y-80925815D01*
X154241833Y-80918974D01*
X154233597Y-80915213D01*
X154219307Y-80892978D01*
X154202006Y-80873011D01*
X154199718Y-80862496D01*
X154195823Y-80856435D01*
X154190800Y-80821500D01*
X154190800Y-80678497D01*
X154210485Y-80611458D01*
X154263289Y-80565703D01*
X154314798Y-80554497D01*
X154899072Y-80554497D01*
X154958683Y-80548089D01*
X155066658Y-80507817D01*
X155109991Y-80499999D01*
X155351200Y-80499999D01*
X155351200Y-80448171D01*
X155351199Y-80448154D01*
X155344798Y-80388626D01*
X155344797Y-80388622D01*
X155318847Y-80319047D01*
X155313863Y-80249355D01*
X155318848Y-80232379D01*
X155345288Y-80161489D01*
X155345289Y-80161486D01*
X155345288Y-80161486D01*
X155345291Y-80161481D01*
X155351700Y-80101871D01*
X155351699Y-79851703D01*
X155371383Y-79784666D01*
X155424187Y-79738911D01*
X155493346Y-79728967D01*
X155556901Y-79757992D01*
X155563380Y-79764024D01*
X155775681Y-79976325D01*
X155809166Y-80037648D01*
X155812000Y-80064006D01*
X155812000Y-80550001D01*
X155812001Y-80550019D01*
X155822500Y-80652796D01*
X155822501Y-80652799D01*
X155877685Y-80819331D01*
X155877686Y-80819334D01*
X155969788Y-80968656D01*
X156093844Y-81092712D01*
X156243166Y-81184814D01*
X156409703Y-81239999D01*
X156512491Y-81250500D01*
X158012508Y-81250499D01*
X158115297Y-81239999D01*
X158281834Y-81184814D01*
X158431156Y-81092712D01*
X158537050Y-80986818D01*
X158598373Y-80953334D01*
X158624731Y-80950500D01*
X159610412Y-80950500D01*
X159677451Y-80970185D01*
X159715949Y-81009401D01*
X159744788Y-81056156D01*
X159868844Y-81180212D01*
X160018166Y-81272314D01*
X160184703Y-81327499D01*
X160287491Y-81338000D01*
X161637508Y-81337999D01*
X161740297Y-81327499D01*
X161906834Y-81272314D01*
X162056156Y-81180212D01*
X162180212Y-81056156D01*
X162272314Y-80906834D01*
X162327499Y-80740297D01*
X162338000Y-80637509D01*
X162337999Y-79912492D01*
X162331666Y-79850500D01*
X162327499Y-79809703D01*
X162327498Y-79809700D01*
X162326217Y-79805833D01*
X162272314Y-79643166D01*
X162180212Y-79493844D01*
X162056156Y-79369788D01*
X161906834Y-79277686D01*
X161740297Y-79222501D01*
X161740295Y-79222500D01*
X161637510Y-79212000D01*
X160287498Y-79212000D01*
X160287481Y-79212001D01*
X160184703Y-79222500D01*
X160184700Y-79222501D01*
X160018168Y-79277685D01*
X160018163Y-79277687D01*
X159868842Y-79369789D01*
X159825451Y-79413181D01*
X159764128Y-79446666D01*
X159737770Y-79449500D01*
X158574730Y-79449500D01*
X158507691Y-79429815D01*
X158487049Y-79413181D01*
X158431157Y-79357289D01*
X158431156Y-79357288D01*
X158303739Y-79278697D01*
X158281836Y-79265187D01*
X158281831Y-79265185D01*
X158280362Y-79264698D01*
X158115297Y-79210001D01*
X158115295Y-79210000D01*
X158012516Y-79199500D01*
X158012509Y-79199500D01*
X157526506Y-79199500D01*
X157459467Y-79179815D01*
X157438825Y-79163181D01*
X154411819Y-76136175D01*
X154378334Y-76074852D01*
X154375500Y-76048494D01*
X154375500Y-75113768D01*
X154373005Y-75101224D01*
X154373005Y-75101223D01*
X154341856Y-74944631D01*
X154341855Y-74944630D01*
X154341855Y-74944626D01*
X154320468Y-74892993D01*
X154275861Y-74785301D01*
X154275854Y-74785288D01*
X154180046Y-74641902D01*
X154143807Y-74605663D01*
X154058099Y-74519955D01*
X152112853Y-72574709D01*
X152079368Y-72513386D01*
X152078061Y-72467629D01*
X152084892Y-72424500D01*
X152100500Y-72325962D01*
X152100500Y-72074071D01*
X156900000Y-72074071D01*
X156900000Y-72325928D01*
X156939397Y-72574669D01*
X157017219Y-72814184D01*
X157131557Y-73038583D01*
X157205748Y-73140697D01*
X157205748Y-73140698D01*
X157935387Y-72411059D01*
X157940889Y-72431591D01*
X158019881Y-72568408D01*
X158131592Y-72680119D01*
X158268409Y-72759111D01*
X158288940Y-72764612D01*
X157559300Y-73494250D01*
X157661416Y-73568442D01*
X157812356Y-73645351D01*
X157863152Y-73693326D01*
X157879947Y-73761147D01*
X157857409Y-73827282D01*
X157812356Y-73866321D01*
X157713566Y-73916657D01*
X157645530Y-73966089D01*
X157522490Y-74055483D01*
X157522488Y-74055485D01*
X157522487Y-74055485D01*
X157355485Y-74222487D01*
X157355485Y-74222488D01*
X157355483Y-74222490D01*
X157308054Y-74287770D01*
X157216657Y-74413566D01*
X157109433Y-74624003D01*
X157036446Y-74848631D01*
X156999500Y-75081902D01*
X156999500Y-75318097D01*
X157036446Y-75551368D01*
X157109433Y-75775996D01*
X157158277Y-75871856D01*
X157216657Y-75986433D01*
X157355483Y-76177510D01*
X157522490Y-76344517D01*
X157713567Y-76483343D01*
X157812991Y-76534002D01*
X157924003Y-76590566D01*
X157924005Y-76590566D01*
X157924008Y-76590568D01*
X158044412Y-76629689D01*
X158148631Y-76663553D01*
X158381903Y-76700500D01*
X158381908Y-76700500D01*
X158618097Y-76700500D01*
X158851368Y-76663553D01*
X158911801Y-76643917D01*
X159075992Y-76590568D01*
X159286433Y-76483343D01*
X159477510Y-76344517D01*
X159644517Y-76177510D01*
X159783343Y-75986433D01*
X159890568Y-75775992D01*
X159963553Y-75551368D01*
X159970640Y-75506621D01*
X160000500Y-75318097D01*
X160000500Y-75081947D01*
X164000000Y-75081947D01*
X164000000Y-75318052D01*
X164036934Y-75551247D01*
X164109897Y-75775802D01*
X164217087Y-75986174D01*
X164277338Y-76069104D01*
X164277340Y-76069105D01*
X165017037Y-75329408D01*
X165034075Y-75392993D01*
X165099901Y-75507007D01*
X165192993Y-75600099D01*
X165307007Y-75665925D01*
X165370590Y-75682962D01*
X164630893Y-76422658D01*
X164713828Y-76482914D01*
X164924197Y-76590102D01*
X165148752Y-76663065D01*
X165148751Y-76663065D01*
X165381948Y-76700000D01*
X165618052Y-76700000D01*
X165851247Y-76663065D01*
X166075802Y-76590102D01*
X166286163Y-76482918D01*
X166286169Y-76482914D01*
X166369104Y-76422658D01*
X166369105Y-76422658D01*
X165629408Y-75682962D01*
X165692993Y-75665925D01*
X165807007Y-75600099D01*
X165900099Y-75507007D01*
X165965925Y-75392993D01*
X165982962Y-75329408D01*
X166722658Y-76069105D01*
X166722658Y-76069104D01*
X166782914Y-75986169D01*
X166782918Y-75986163D01*
X166890102Y-75775802D01*
X166963065Y-75551247D01*
X167000000Y-75318052D01*
X167000000Y-75081947D01*
X166963065Y-74848752D01*
X166890102Y-74624197D01*
X166782914Y-74413828D01*
X166722658Y-74330894D01*
X166722658Y-74330893D01*
X165982962Y-75070590D01*
X165965925Y-75007007D01*
X165900099Y-74892993D01*
X165807007Y-74799901D01*
X165692993Y-74734075D01*
X165629409Y-74717037D01*
X166369105Y-73977340D01*
X166369104Y-73977338D01*
X166286174Y-73917087D01*
X166075802Y-73809897D01*
X165851247Y-73736934D01*
X165851248Y-73736934D01*
X165618052Y-73700000D01*
X165381948Y-73700000D01*
X165148752Y-73736934D01*
X164924197Y-73809897D01*
X164713830Y-73917084D01*
X164630894Y-73977340D01*
X165370591Y-74717037D01*
X165307007Y-74734075D01*
X165192993Y-74799901D01*
X165099901Y-74892993D01*
X165034075Y-75007007D01*
X165017037Y-75070590D01*
X164277340Y-74330894D01*
X164217084Y-74413830D01*
X164109897Y-74624197D01*
X164036934Y-74848752D01*
X164000000Y-75081947D01*
X160000500Y-75081947D01*
X160000500Y-75081902D01*
X159963553Y-74848631D01*
X159915259Y-74700000D01*
X159890568Y-74624008D01*
X159890566Y-74624005D01*
X159890566Y-74624003D01*
X159824269Y-74493889D01*
X159783343Y-74413567D01*
X159644517Y-74222490D01*
X159477510Y-74055483D01*
X159286433Y-73916657D01*
X159187643Y-73866321D01*
X159136847Y-73818346D01*
X159120052Y-73750525D01*
X159142589Y-73684390D01*
X159187643Y-73645351D01*
X159338575Y-73568446D01*
X159338581Y-73568442D01*
X159440697Y-73494250D01*
X159440698Y-73494250D01*
X158711059Y-72764612D01*
X158731591Y-72759111D01*
X158868408Y-72680119D01*
X158980119Y-72568408D01*
X159059111Y-72431591D01*
X159064612Y-72411060D01*
X159794250Y-73140698D01*
X159794250Y-73140697D01*
X159868442Y-73038581D01*
X159868446Y-73038575D01*
X159982780Y-72814184D01*
X160060602Y-72574669D01*
X160100000Y-72325928D01*
X160100000Y-72074071D01*
X160060602Y-71825330D01*
X159982780Y-71585815D01*
X159868442Y-71361416D01*
X159794250Y-71259301D01*
X159794250Y-71259300D01*
X159064612Y-71988939D01*
X159059111Y-71968409D01*
X158980119Y-71831592D01*
X158868408Y-71719881D01*
X158731591Y-71640889D01*
X158711058Y-71635387D01*
X159440698Y-70905748D01*
X159338581Y-70831555D01*
X159187642Y-70754647D01*
X159136847Y-70706673D01*
X159120052Y-70638852D01*
X159142590Y-70572717D01*
X159187642Y-70533679D01*
X159286433Y-70483343D01*
X159477510Y-70344517D01*
X159644517Y-70177510D01*
X159783343Y-69986433D01*
X159890568Y-69775992D01*
X159963553Y-69551368D01*
X160000500Y-69318097D01*
X160000500Y-69081902D01*
X163999500Y-69081902D01*
X163999500Y-69318097D01*
X164036446Y-69551368D01*
X164109433Y-69775996D01*
X164199829Y-69953407D01*
X164216657Y-69986433D01*
X164355483Y-70177510D01*
X164522490Y-70344517D01*
X164713567Y-70483343D01*
X164792323Y-70523471D01*
X164924003Y-70590566D01*
X164924005Y-70590566D01*
X164924008Y-70590568D01*
X165018431Y-70621248D01*
X165148631Y-70663553D01*
X165381903Y-70700500D01*
X165381908Y-70700500D01*
X165618097Y-70700500D01*
X165851368Y-70663553D01*
X165879636Y-70654368D01*
X166075992Y-70590568D01*
X166286433Y-70483343D01*
X166477510Y-70344517D01*
X166644517Y-70177510D01*
X166783343Y-69986433D01*
X166890568Y-69775992D01*
X166963553Y-69551368D01*
X167000500Y-69318097D01*
X167000500Y-69081902D01*
X166963553Y-68848631D01*
X166915864Y-68701862D01*
X166890568Y-68624008D01*
X166890566Y-68624005D01*
X166890566Y-68624003D01*
X166821184Y-68487834D01*
X166783343Y-68413567D01*
X166644517Y-68222490D01*
X166477510Y-68055483D01*
X166286433Y-67916657D01*
X166207403Y-67876389D01*
X166075996Y-67809433D01*
X165851368Y-67736446D01*
X165618097Y-67699500D01*
X165618092Y-67699500D01*
X165381908Y-67699500D01*
X165381903Y-67699500D01*
X165148631Y-67736446D01*
X164924003Y-67809433D01*
X164713566Y-67916657D01*
X164643044Y-67967895D01*
X164522490Y-68055483D01*
X164522488Y-68055485D01*
X164522487Y-68055485D01*
X164355485Y-68222487D01*
X164355485Y-68222488D01*
X164355483Y-68222490D01*
X164323511Y-68266496D01*
X164216657Y-68413566D01*
X164109433Y-68624003D01*
X164036446Y-68848631D01*
X163999500Y-69081902D01*
X160000500Y-69081902D01*
X159963553Y-68848631D01*
X159915864Y-68701862D01*
X159890568Y-68624008D01*
X159890566Y-68624005D01*
X159890566Y-68624003D01*
X159821184Y-68487834D01*
X159783343Y-68413567D01*
X159644517Y-68222490D01*
X159477510Y-68055483D01*
X159286433Y-67916657D01*
X159207403Y-67876389D01*
X159075996Y-67809433D01*
X158851368Y-67736446D01*
X158618097Y-67699500D01*
X158618092Y-67699500D01*
X158381908Y-67699500D01*
X158381903Y-67699500D01*
X158148631Y-67736446D01*
X157924003Y-67809433D01*
X157713566Y-67916657D01*
X157643044Y-67967895D01*
X157522490Y-68055483D01*
X157522488Y-68055485D01*
X157522487Y-68055485D01*
X157355485Y-68222487D01*
X157355485Y-68222488D01*
X157355483Y-68222490D01*
X157323511Y-68266496D01*
X157216657Y-68413566D01*
X157109433Y-68624003D01*
X157036446Y-68848631D01*
X156999500Y-69081902D01*
X156999500Y-69318097D01*
X157036446Y-69551368D01*
X157109433Y-69775996D01*
X157199829Y-69953407D01*
X157216657Y-69986433D01*
X157355483Y-70177510D01*
X157522490Y-70344517D01*
X157713567Y-70483343D01*
X157812357Y-70533679D01*
X157863152Y-70581652D01*
X157879947Y-70649473D01*
X157857410Y-70715608D01*
X157812357Y-70754647D01*
X157661415Y-70831557D01*
X157559301Y-70905747D01*
X157559300Y-70905748D01*
X158288940Y-71635387D01*
X158268409Y-71640889D01*
X158131592Y-71719881D01*
X158019881Y-71831592D01*
X157940889Y-71968409D01*
X157935387Y-71988940D01*
X157205748Y-71259300D01*
X157205747Y-71259301D01*
X157131559Y-71361413D01*
X157017219Y-71585815D01*
X156939397Y-71825330D01*
X156900000Y-72074071D01*
X152100500Y-72074071D01*
X152100500Y-72074038D01*
X152061090Y-71825215D01*
X151983241Y-71585621D01*
X151983239Y-71585618D01*
X151983239Y-71585616D01*
X151932991Y-71487000D01*
X151868870Y-71361155D01*
X151833157Y-71312000D01*
X151720798Y-71157350D01*
X151720794Y-71157345D01*
X151542654Y-70979205D01*
X151542649Y-70979201D01*
X151338848Y-70831132D01*
X151338847Y-70831131D01*
X151338845Y-70831130D01*
X151234966Y-70778201D01*
X151188192Y-70754368D01*
X151137396Y-70706393D01*
X151120601Y-70638572D01*
X151143139Y-70572437D01*
X151188190Y-70533399D01*
X151286433Y-70483343D01*
X151477510Y-70344517D01*
X151644517Y-70177510D01*
X151783343Y-69986433D01*
X151890568Y-69775992D01*
X151963553Y-69551368D01*
X152000500Y-69318097D01*
X152000500Y-69081902D01*
X151963553Y-68848631D01*
X151915864Y-68701862D01*
X151890568Y-68624008D01*
X151890566Y-68624005D01*
X151890566Y-68624003D01*
X151821184Y-68487834D01*
X151783343Y-68413567D01*
X151644517Y-68222490D01*
X151477510Y-68055483D01*
X151286433Y-67916657D01*
X151207403Y-67876389D01*
X151075996Y-67809433D01*
X150851368Y-67736446D01*
X150618097Y-67699500D01*
X150618092Y-67699500D01*
X150381908Y-67699500D01*
X150381903Y-67699500D01*
X150148631Y-67736446D01*
X149924003Y-67809433D01*
X149713566Y-67916657D01*
X149643044Y-67967895D01*
X149522490Y-68055483D01*
X149522488Y-68055485D01*
X149522487Y-68055485D01*
X149414792Y-68163181D01*
X149387864Y-68177884D01*
X149362046Y-68194477D01*
X149355845Y-68195368D01*
X149353469Y-68196666D01*
X149327111Y-68199500D01*
X149215783Y-68199500D01*
X149148744Y-68179815D01*
X149128102Y-68163181D01*
X149086818Y-68121897D01*
X149053333Y-68060574D01*
X149050499Y-68034216D01*
X149050499Y-66541971D01*
X149050499Y-66541964D01*
X149039886Y-66422582D01*
X148983909Y-66226951D01*
X148889698Y-66046593D01*
X148837684Y-65982803D01*
X148761109Y-65888890D01*
X148603409Y-65760304D01*
X148603410Y-65760304D01*
X148603407Y-65760302D01*
X148423049Y-65666091D01*
X148423048Y-65666090D01*
X148423045Y-65666089D01*
X148305829Y-65632550D01*
X148227418Y-65610114D01*
X148227415Y-65610113D01*
X148227413Y-65610113D01*
X148161102Y-65604217D01*
X148108037Y-65599500D01*
X148108032Y-65599500D01*
X146991971Y-65599500D01*
X146991965Y-65599500D01*
X146991964Y-65599501D01*
X146980316Y-65600536D01*
X146872584Y-65610113D01*
X146676954Y-65666089D01*
X146615617Y-65698129D01*
X146496593Y-65760302D01*
X146496591Y-65760303D01*
X146496590Y-65760304D01*
X146338890Y-65888890D01*
X146210304Y-66046590D01*
X146210302Y-66046593D01*
X146163196Y-66136772D01*
X146116089Y-66226954D01*
X146060114Y-66422583D01*
X146060113Y-66422586D01*
X146049500Y-66541966D01*
X146049500Y-69458028D01*
X146049500Y-69458033D01*
X146049501Y-69458036D01*
X146050147Y-69465299D01*
X146060113Y-69577415D01*
X146116089Y-69773045D01*
X146116090Y-69773048D01*
X146116091Y-69773049D01*
X146210302Y-69953407D01*
X146210304Y-69953409D01*
X146338890Y-70111109D01*
X146401366Y-70162051D01*
X146496593Y-70239698D01*
X146596604Y-70291939D01*
X146646910Y-70340425D01*
X146663017Y-70408413D01*
X146653752Y-70449299D01*
X146587950Y-70608160D01*
X146587947Y-70608170D01*
X146549500Y-70801456D01*
X146549500Y-70801459D01*
X146549500Y-70998541D01*
X146549500Y-70998543D01*
X146549499Y-70998543D01*
X146587947Y-71191829D01*
X146587950Y-71191839D01*
X146663364Y-71373907D01*
X146663370Y-71373918D01*
X146772860Y-71537781D01*
X146772863Y-71537785D01*
X146912214Y-71677136D01*
X146912218Y-71677139D01*
X147076079Y-71786628D01*
X147076092Y-71786635D01*
X147185682Y-71832028D01*
X147258165Y-71862051D01*
X147258169Y-71862051D01*
X147258170Y-71862052D01*
X147451456Y-71900500D01*
X147451459Y-71900500D01*
X147648543Y-71900500D01*
X147795805Y-71871207D01*
X147841835Y-71862051D01*
X148023914Y-71786632D01*
X148187782Y-71677139D01*
X148327139Y-71537782D01*
X148388296Y-71446254D01*
X148436630Y-71373918D01*
X148436635Y-71373907D01*
X148467041Y-71300500D01*
X148512051Y-71191835D01*
X148538803Y-71057344D01*
X148550500Y-70998543D01*
X148550500Y-70801456D01*
X148512052Y-70608170D01*
X148512051Y-70608169D01*
X148512051Y-70608165D01*
X148446246Y-70449298D01*
X148446146Y-70448362D01*
X148445565Y-70447619D01*
X148442418Y-70413693D01*
X148438778Y-70379830D01*
X148439200Y-70378986D01*
X148439113Y-70378047D01*
X148454808Y-70347805D01*
X148470053Y-70317351D01*
X148471007Y-70316593D01*
X148471299Y-70316032D01*
X148478936Y-70310298D01*
X148499102Y-70294291D01*
X148501218Y-70293076D01*
X148603407Y-70239698D01*
X148625123Y-70221990D01*
X148633920Y-70216944D01*
X148658429Y-70211068D01*
X148681661Y-70201289D01*
X148695626Y-70200500D01*
X148848540Y-70200500D01*
X149327111Y-70200500D01*
X149394150Y-70220185D01*
X149414792Y-70236819D01*
X149522490Y-70344517D01*
X149632643Y-70424548D01*
X149713568Y-70483344D01*
X149771813Y-70513021D01*
X149789818Y-70522195D01*
X149811806Y-70533398D01*
X149862603Y-70581372D01*
X149879398Y-70649193D01*
X149856861Y-70715328D01*
X149811807Y-70754367D01*
X149661156Y-70831128D01*
X149661155Y-70831129D01*
X149457350Y-70979201D01*
X149457345Y-70979205D01*
X149279205Y-71157345D01*
X149279201Y-71157350D01*
X149131132Y-71361151D01*
X149016760Y-71585616D01*
X148938910Y-71825214D01*
X148927572Y-71896798D01*
X148899500Y-72074038D01*
X148899500Y-72325962D01*
X148925511Y-72490185D01*
X148938910Y-72574785D01*
X149016760Y-72814383D01*
X149095413Y-72968747D01*
X149130995Y-73038581D01*
X149131132Y-73038848D01*
X149279201Y-73242649D01*
X149279205Y-73242654D01*
X149457345Y-73420794D01*
X149457350Y-73420798D01*
X149523512Y-73468867D01*
X149661155Y-73568870D01*
X149802182Y-73640727D01*
X149811807Y-73645631D01*
X149862603Y-73693606D01*
X149879398Y-73761427D01*
X149856861Y-73827562D01*
X149811807Y-73866601D01*
X149713566Y-73916657D01*
X149645530Y-73966089D01*
X149522490Y-74055483D01*
X149522488Y-74055485D01*
X149522487Y-74055485D01*
X149414792Y-74163181D01*
X149353469Y-74196666D01*
X149327111Y-74199500D01*
X148805766Y-74199500D01*
X148738727Y-74179815D01*
X148727411Y-74171606D01*
X148590907Y-74060302D01*
X148410549Y-73966091D01*
X148410548Y-73966090D01*
X148410545Y-73966089D01*
X148293329Y-73932550D01*
X148214918Y-73910114D01*
X148214915Y-73910113D01*
X148214913Y-73910113D01*
X148148602Y-73904217D01*
X148095537Y-73899500D01*
X148095532Y-73899500D01*
X146979471Y-73899500D01*
X146979465Y-73899500D01*
X146979464Y-73899501D01*
X146967816Y-73900536D01*
X146860084Y-73910113D01*
X146664454Y-73966089D01*
X146574272Y-74013196D01*
X146484093Y-74060302D01*
X146484091Y-74060303D01*
X146484090Y-74060304D01*
X146326390Y-74188890D01*
X146197804Y-74346590D01*
X146197802Y-74346593D01*
X146162680Y-74413830D01*
X146103589Y-74526954D01*
X146047614Y-74722583D01*
X146047613Y-74722586D01*
X146037000Y-74841966D01*
X146037000Y-77758028D01*
X146037001Y-77758034D01*
X146047613Y-77877415D01*
X146103589Y-78073045D01*
X146103590Y-78073048D01*
X146103591Y-78073049D01*
X146197802Y-78253407D01*
X146232477Y-78295933D01*
X146326390Y-78411109D01*
X146454979Y-78515958D01*
X146484093Y-78539698D01*
X146567077Y-78583045D01*
X146617384Y-78631531D01*
X146633491Y-78699518D01*
X146624226Y-78740405D01*
X146575450Y-78858160D01*
X146575447Y-78858170D01*
X146537000Y-79051456D01*
X146537000Y-79051459D01*
X146537000Y-79248541D01*
X146537000Y-79248543D01*
X146536999Y-79248543D01*
X146575447Y-79441829D01*
X146575450Y-79441839D01*
X146650864Y-79623907D01*
X146650871Y-79623920D01*
X146760360Y-79787781D01*
X146760363Y-79787785D01*
X146899714Y-79927136D01*
X146899718Y-79927139D01*
X147063579Y-80036628D01*
X147063592Y-80036635D01*
X147240264Y-80109814D01*
X147245665Y-80112051D01*
X147245669Y-80112051D01*
X147245670Y-80112052D01*
X147438956Y-80150500D01*
X147438959Y-80150500D01*
X147636043Y-80150500D01*
X147766082Y-80124632D01*
X147829335Y-80112051D01*
X147853982Y-80101842D01*
X150439600Y-80101842D01*
X150446001Y-80161370D01*
X150446003Y-80161377D01*
X150496245Y-80296084D01*
X150496249Y-80296091D01*
X150582409Y-80411185D01*
X150582412Y-80411188D01*
X150697506Y-80497348D01*
X150697513Y-80497352D01*
X150832220Y-80547594D01*
X150832227Y-80547596D01*
X150891755Y-80553997D01*
X150891772Y-80553998D01*
X151350000Y-80553998D01*
X151350000Y-80049998D01*
X150439600Y-80049998D01*
X150439600Y-80101842D01*
X147853982Y-80101842D01*
X148011414Y-80036632D01*
X148175282Y-79927139D01*
X148175285Y-79927136D01*
X148191467Y-79910955D01*
X148314636Y-79787785D01*
X148314639Y-79787782D01*
X148424132Y-79623914D01*
X148476224Y-79498153D01*
X150439600Y-79498153D01*
X150439600Y-79549998D01*
X151350000Y-79549998D01*
X151350000Y-79045998D01*
X150891755Y-79045998D01*
X150832227Y-79052399D01*
X150832220Y-79052401D01*
X150697513Y-79102643D01*
X150697506Y-79102647D01*
X150582412Y-79188807D01*
X150582409Y-79188810D01*
X150496249Y-79303904D01*
X150496245Y-79303911D01*
X150446003Y-79438618D01*
X150446001Y-79438625D01*
X150439600Y-79498153D01*
X148476224Y-79498153D01*
X148499551Y-79441835D01*
X148524595Y-79315931D01*
X148538000Y-79248543D01*
X148538000Y-79051456D01*
X148499552Y-78858170D01*
X148499551Y-78858169D01*
X148499551Y-78858165D01*
X148450772Y-78740402D01*
X148443304Y-78670937D01*
X148474579Y-78608457D01*
X148507918Y-78583047D01*
X148590907Y-78539698D01*
X148748609Y-78411109D01*
X148877198Y-78253407D01*
X148971409Y-78073049D01*
X149027386Y-77877418D01*
X149038000Y-77758037D01*
X149037999Y-76324499D01*
X149040549Y-76315814D01*
X149039261Y-76306853D01*
X149050239Y-76282812D01*
X149057684Y-76257461D01*
X149064524Y-76251533D01*
X149068286Y-76243297D01*
X149090518Y-76229009D01*
X149110487Y-76211706D01*
X149121002Y-76209418D01*
X149127064Y-76205523D01*
X149161999Y-76200500D01*
X149327111Y-76200500D01*
X149394150Y-76220185D01*
X149414792Y-76236819D01*
X149522490Y-76344517D01*
X149713567Y-76483343D01*
X149812991Y-76534002D01*
X149924003Y-76590566D01*
X149924005Y-76590566D01*
X149924008Y-76590568D01*
X150044412Y-76629689D01*
X150148631Y-76663553D01*
X150381903Y-76700500D01*
X150381908Y-76700500D01*
X150618097Y-76700500D01*
X150851368Y-76663553D01*
X150911801Y-76643917D01*
X151075992Y-76590568D01*
X151286433Y-76483343D01*
X151477510Y-76344517D01*
X151644517Y-76177510D01*
X151783343Y-75986433D01*
X151890568Y-75775992D01*
X151963553Y-75551368D01*
X151970640Y-75506621D01*
X152000500Y-75318097D01*
X152000500Y-75238006D01*
X152020185Y-75170967D01*
X152072989Y-75125212D01*
X152142147Y-75115268D01*
X152205703Y-75144293D01*
X152212181Y-75150325D01*
X152588181Y-75526325D01*
X152621666Y-75587648D01*
X152624500Y-75614006D01*
X152624500Y-76548733D01*
X152658143Y-76717866D01*
X152658146Y-76717878D01*
X152724138Y-76877198D01*
X152724145Y-76877211D01*
X152819954Y-77020598D01*
X152819957Y-77020602D01*
X154633173Y-78833817D01*
X154666658Y-78895140D01*
X154661674Y-78964832D01*
X154619802Y-79020765D01*
X154554338Y-79045182D01*
X154545492Y-79045498D01*
X153482529Y-79045498D01*
X153482523Y-79045499D01*
X153422916Y-79051906D01*
X153288071Y-79102200D01*
X153288069Y-79102201D01*
X153204136Y-79165032D01*
X153154019Y-79187381D01*
X153097953Y-79198533D01*
X153097947Y-79198535D01*
X152984116Y-79245685D01*
X152984107Y-79245690D01*
X152881667Y-79314139D01*
X152876957Y-79318005D01*
X152875255Y-79315931D01*
X152824041Y-79343828D01*
X152754355Y-79338772D01*
X152698542Y-79296947D01*
X152617587Y-79188807D01*
X152502493Y-79102647D01*
X152502486Y-79102643D01*
X152367779Y-79052401D01*
X152367772Y-79052399D01*
X152308244Y-79045998D01*
X151850000Y-79045998D01*
X151850000Y-80553998D01*
X152050500Y-80553998D01*
X152059185Y-80556548D01*
X152068147Y-80555260D01*
X152092187Y-80566238D01*
X152117539Y-80573683D01*
X152123466Y-80580523D01*
X152131703Y-80584285D01*
X152145992Y-80606519D01*
X152163294Y-80626487D01*
X152165581Y-80637000D01*
X152169477Y-80643063D01*
X152174500Y-80677998D01*
X152174500Y-80821500D01*
X152154815Y-80888539D01*
X152102011Y-80934294D01*
X152050500Y-80945500D01*
X150891729Y-80945500D01*
X150891723Y-80945501D01*
X150832116Y-80951908D01*
X150697271Y-81002202D01*
X150697269Y-81002204D01*
X150633733Y-81049767D01*
X150568269Y-81074184D01*
X150559422Y-81074500D01*
X150038389Y-81074500D01*
X149977971Y-81086518D01*
X149917548Y-81098537D01*
X149917543Y-81098538D01*
X149886551Y-81111376D01*
X149870397Y-81118067D01*
X149848169Y-81127274D01*
X149803713Y-81145688D01*
X149803714Y-81145689D01*
X149754454Y-81178603D01*
X149687776Y-81199480D01*
X149685564Y-81199500D01*
X149501457Y-81199500D01*
X149308170Y-81237947D01*
X149308160Y-81237950D01*
X149126092Y-81313364D01*
X149126079Y-81313371D01*
X148962218Y-81422860D01*
X148962214Y-81422863D01*
X148822863Y-81562214D01*
X148822860Y-81562218D01*
X148713371Y-81726079D01*
X148713364Y-81726092D01*
X148637950Y-81908160D01*
X148637947Y-81908170D01*
X148599500Y-82101456D01*
X148599500Y-82101459D01*
X148599500Y-82298541D01*
X148599500Y-82298543D01*
X148599499Y-82298543D01*
X148637947Y-82491829D01*
X148637950Y-82491839D01*
X148713364Y-82673907D01*
X148713371Y-82673920D01*
X148822860Y-82837781D01*
X148822863Y-82837785D01*
X148962214Y-82977136D01*
X148962218Y-82977139D01*
X149126079Y-83086628D01*
X149126092Y-83086635D01*
X149247249Y-83136819D01*
X149308165Y-83162051D01*
X149308169Y-83162051D01*
X149308170Y-83162052D01*
X149501456Y-83200500D01*
X149501459Y-83200500D01*
X149698543Y-83200500D01*
X149829250Y-83174500D01*
X149891835Y-83162051D01*
X150040436Y-83100499D01*
X150073907Y-83086635D01*
X150073907Y-83086634D01*
X150073914Y-83086632D01*
X150237782Y-82977139D01*
X150377139Y-82837782D01*
X150486632Y-82673914D01*
X150562051Y-82491835D01*
X150562053Y-82491823D01*
X150563101Y-82488370D01*
X150564147Y-82486772D01*
X150564382Y-82486207D01*
X150564489Y-82486251D01*
X150601394Y-82429929D01*
X150665204Y-82401468D01*
X150725096Y-82408174D01*
X150832117Y-82448091D01*
X150832116Y-82448091D01*
X150834693Y-82448368D01*
X150891727Y-82454500D01*
X152050500Y-82454499D01*
X152117539Y-82474184D01*
X152163294Y-82526987D01*
X152174500Y-82578499D01*
X152174500Y-82853314D01*
X152154815Y-82920353D01*
X152102011Y-82966108D01*
X152032853Y-82976052D01*
X152011497Y-82971020D01*
X151902799Y-82935001D01*
X151902795Y-82935000D01*
X151800010Y-82924500D01*
X151074998Y-82924500D01*
X151074980Y-82924501D01*
X150972203Y-82935000D01*
X150972200Y-82935001D01*
X150805668Y-82990185D01*
X150805663Y-82990187D01*
X150656342Y-83082289D01*
X150532289Y-83206342D01*
X150440187Y-83355663D01*
X150440185Y-83355668D01*
X150385002Y-83522200D01*
X150385001Y-83522203D01*
X150374500Y-83624983D01*
X150374500Y-84975001D01*
X150374501Y-84975018D01*
X150385000Y-85077796D01*
X150385001Y-85077799D01*
X150440185Y-85244331D01*
X150440187Y-85244336D01*
X150474829Y-85300500D01*
X150532288Y-85393656D01*
X150656344Y-85517712D01*
X150805666Y-85609814D01*
X150805667Y-85609814D01*
X150811813Y-85613605D01*
X150810706Y-85615399D01*
X150815916Y-85619985D01*
X150831703Y-85627195D01*
X150841598Y-85642593D01*
X150855337Y-85654687D01*
X150860224Y-85671574D01*
X150869477Y-85685973D01*
X150874500Y-85720908D01*
X150874500Y-85817072D01*
X150854815Y-85884111D01*
X150815598Y-85922609D01*
X150790728Y-85937950D01*
X150718842Y-85982289D01*
X150594789Y-86106342D01*
X150502687Y-86255663D01*
X150502685Y-86255668D01*
X150486117Y-86305668D01*
X150447501Y-86422203D01*
X150447501Y-86422204D01*
X150447500Y-86422204D01*
X150437000Y-86524983D01*
X150437000Y-87875001D01*
X150437001Y-87875018D01*
X150447500Y-87977796D01*
X150447501Y-87977799D01*
X150484873Y-88090578D01*
X150502686Y-88144334D01*
X150594788Y-88293656D01*
X150718844Y-88417712D01*
X150868166Y-88509814D01*
X151034703Y-88564999D01*
X151137491Y-88575500D01*
X151862508Y-88575499D01*
X151862516Y-88575498D01*
X151862519Y-88575498D01*
X151918802Y-88569748D01*
X151965297Y-88564999D01*
X152011496Y-88549689D01*
X152081324Y-88547288D01*
X152141366Y-88583019D01*
X152172559Y-88645539D01*
X152174500Y-88667396D01*
X152174500Y-89389548D01*
X152165855Y-89418988D01*
X152159332Y-89448975D01*
X152155577Y-89453990D01*
X152154815Y-89456587D01*
X152138181Y-89477229D01*
X152128229Y-89487181D01*
X152066906Y-89520666D01*
X152040548Y-89523500D01*
X150789783Y-89523500D01*
X150722744Y-89503815D01*
X150702106Y-89487185D01*
X150637782Y-89422861D01*
X150637781Y-89422860D01*
X150637780Y-89422859D01*
X150473920Y-89313371D01*
X150473907Y-89313364D01*
X150291839Y-89237950D01*
X150291829Y-89237947D01*
X150092566Y-89198311D01*
X150092923Y-89196514D01*
X150036100Y-89173557D01*
X150025378Y-89164010D01*
X149778421Y-88917052D01*
X149778414Y-88917046D01*
X149704729Y-88867812D01*
X149704729Y-88867813D01*
X149655491Y-88834913D01*
X149518917Y-88778343D01*
X149518907Y-88778340D01*
X149373920Y-88749500D01*
X149373918Y-88749500D01*
X142926082Y-88749500D01*
X142926076Y-88749500D01*
X142897242Y-88755234D01*
X142897243Y-88755235D01*
X142781093Y-88778339D01*
X142781083Y-88778342D01*
X142701081Y-88811479D01*
X142701082Y-88811480D01*
X142644505Y-88834915D01*
X142595272Y-88867812D01*
X142562373Y-88889794D01*
X142552210Y-88896584D01*
X142521585Y-88917047D01*
X142521581Y-88917050D01*
X141725451Y-89713181D01*
X141664128Y-89746666D01*
X141637770Y-89749500D01*
X129417308Y-89749500D01*
X129350269Y-89729815D01*
X129329627Y-89713181D01*
X128746446Y-89130000D01*
X128752661Y-89130000D01*
X128854394Y-89102741D01*
X128945606Y-89050080D01*
X129020080Y-88975606D01*
X129072741Y-88884394D01*
X129100000Y-88782661D01*
X129100000Y-88776446D01*
X129722200Y-89398646D01*
X129722201Y-89398646D01*
X129743436Y-89369419D01*
X129830616Y-89198321D01*
X129889959Y-89015684D01*
X129920000Y-88826015D01*
X129920000Y-88633984D01*
X129889959Y-88444315D01*
X129830616Y-88261678D01*
X129743434Y-88090577D01*
X129722201Y-88061352D01*
X129722200Y-88061351D01*
X129100000Y-88683552D01*
X129100000Y-88677339D01*
X129072741Y-88575606D01*
X129020080Y-88484394D01*
X128945606Y-88409920D01*
X128854394Y-88357259D01*
X128752661Y-88330000D01*
X128746447Y-88330000D01*
X129368646Y-87707798D01*
X129339415Y-87686561D01*
X129168321Y-87599383D01*
X129103107Y-87578194D01*
X129045432Y-87538756D01*
X129018234Y-87474397D01*
X129030149Y-87405551D01*
X129077394Y-87354075D01*
X129103109Y-87342332D01*
X129168504Y-87321084D01*
X129168506Y-87321082D01*
X129168509Y-87321082D01*
X129339681Y-87233865D01*
X129495102Y-87120945D01*
X129630945Y-86985102D01*
X129630949Y-86985097D01*
X129631923Y-86983958D01*
X129632400Y-86983646D01*
X129634390Y-86981657D01*
X129634808Y-86982075D01*
X129690434Y-86945771D01*
X129726204Y-86940500D01*
X132223152Y-86940500D01*
X132290191Y-86960185D01*
X132329884Y-87001379D01*
X132381916Y-87089361D01*
X132381923Y-87089370D01*
X132498129Y-87205576D01*
X132498133Y-87205579D01*
X132498135Y-87205581D01*
X132639602Y-87289244D01*
X132681224Y-87301336D01*
X132797426Y-87335097D01*
X132797429Y-87335097D01*
X132797431Y-87335098D01*
X132834306Y-87338000D01*
X132834314Y-87338000D01*
X133265686Y-87338000D01*
X133265694Y-87338000D01*
X133302569Y-87335098D01*
X133302571Y-87335097D01*
X133302573Y-87335097D01*
X133378771Y-87312959D01*
X133460398Y-87289244D01*
X133601865Y-87205581D01*
X133718081Y-87089365D01*
X133801744Y-86947898D01*
X133847598Y-86790069D01*
X133850500Y-86753194D01*
X133850500Y-85596806D01*
X133847598Y-85559931D01*
X133846555Y-85556342D01*
X133805020Y-85413379D01*
X133801744Y-85402102D01*
X133726577Y-85275001D01*
X133714110Y-85253920D01*
X133715928Y-85252844D01*
X133694381Y-85197968D01*
X133708059Y-85129450D01*
X133756609Y-85079204D01*
X133817895Y-85063000D01*
X134182105Y-85063000D01*
X134249144Y-85082685D01*
X134294899Y-85135489D01*
X134304843Y-85204647D01*
X134284328Y-85252996D01*
X134285890Y-85253920D01*
X134198255Y-85402103D01*
X134198254Y-85402106D01*
X134152402Y-85559926D01*
X134152401Y-85559932D01*
X134149500Y-85596798D01*
X134149500Y-86753201D01*
X134152401Y-86790067D01*
X134152402Y-86790073D01*
X134198254Y-86947893D01*
X134198255Y-86947896D01*
X134198256Y-86947898D01*
X134221014Y-86986380D01*
X134281917Y-87089362D01*
X134281923Y-87089370D01*
X134398129Y-87205576D01*
X134398133Y-87205579D01*
X134398135Y-87205581D01*
X134539602Y-87289244D01*
X134581224Y-87301336D01*
X134697426Y-87335097D01*
X134697429Y-87335097D01*
X134697431Y-87335098D01*
X134734306Y-87338000D01*
X134734314Y-87338000D01*
X135165686Y-87338000D01*
X135165694Y-87338000D01*
X135202569Y-87335098D01*
X135202571Y-87335097D01*
X135202573Y-87335097D01*
X135278771Y-87312959D01*
X135360398Y-87289244D01*
X135501865Y-87205581D01*
X135618081Y-87089365D01*
X135678986Y-86986380D01*
X135730054Y-86938696D01*
X135785718Y-86925500D01*
X137062769Y-86925500D01*
X137129808Y-86945185D01*
X137150450Y-86961818D01*
X137256344Y-87067712D01*
X137405666Y-87159814D01*
X137572203Y-87214999D01*
X137674991Y-87225500D01*
X138400008Y-87225499D01*
X138400016Y-87225498D01*
X138400019Y-87225498D01*
X138456302Y-87219748D01*
X138502797Y-87214999D01*
X138669334Y-87159814D01*
X138818656Y-87067712D01*
X138942712Y-86943656D01*
X139034814Y-86794334D01*
X139089999Y-86627797D01*
X139100500Y-86525009D01*
X139100499Y-85174992D01*
X139089999Y-85072203D01*
X139034814Y-84905666D01*
X138942712Y-84756344D01*
X138818656Y-84632288D01*
X138669334Y-84540186D01*
X138519796Y-84490634D01*
X138462353Y-84450862D01*
X138435530Y-84386347D01*
X138447845Y-84317571D01*
X138495388Y-84266371D01*
X138519795Y-84255224D01*
X138656834Y-84209814D01*
X138806156Y-84117712D01*
X138930212Y-83993656D01*
X139022314Y-83844334D01*
X139077499Y-83677797D01*
X139088000Y-83575009D01*
X139087999Y-82224992D01*
X139087998Y-82224983D01*
X139887000Y-82224983D01*
X139887000Y-83575001D01*
X139887001Y-83575018D01*
X139897500Y-83677796D01*
X139897501Y-83677799D01*
X139948543Y-83831831D01*
X139952686Y-83844334D01*
X140029787Y-83969336D01*
X140044789Y-83993657D01*
X140173951Y-84122819D01*
X140172059Y-84124710D01*
X140205274Y-84171583D01*
X140212000Y-84211867D01*
X140212000Y-84550270D01*
X140192315Y-84617309D01*
X140175681Y-84637951D01*
X140057289Y-84756342D01*
X139965187Y-84905663D01*
X139965185Y-84905668D01*
X139944033Y-84969500D01*
X139910001Y-85072203D01*
X139910001Y-85072204D01*
X139910000Y-85072204D01*
X139899500Y-85174983D01*
X139899500Y-86525001D01*
X139899501Y-86525018D01*
X139910000Y-86627796D01*
X139910001Y-86627799D01*
X139951556Y-86753201D01*
X139965186Y-86794334D01*
X140057288Y-86943656D01*
X140181344Y-87067712D01*
X140330666Y-87159814D01*
X140497203Y-87214999D01*
X140599991Y-87225500D01*
X141325008Y-87225499D01*
X141325016Y-87225498D01*
X141325019Y-87225498D01*
X141381302Y-87219748D01*
X141427797Y-87214999D01*
X141594334Y-87159814D01*
X141743656Y-87067712D01*
X141867712Y-86943656D01*
X141959814Y-86794334D01*
X142014999Y-86627797D01*
X142025500Y-86525009D01*
X142025499Y-85174992D01*
X142014999Y-85072203D01*
X141959814Y-84905666D01*
X141867712Y-84756344D01*
X141749319Y-84637951D01*
X141715834Y-84576628D01*
X141713000Y-84550270D01*
X141713000Y-84187230D01*
X141732685Y-84120191D01*
X141749319Y-84099549D01*
X141801271Y-84047597D01*
X141855212Y-83993656D01*
X141947314Y-83844334D01*
X142002499Y-83677797D01*
X142013000Y-83575009D01*
X142013000Y-83174500D01*
X142032685Y-83107461D01*
X142085489Y-83061706D01*
X142137000Y-83050500D01*
X143130172Y-83050500D01*
X143164767Y-83055424D01*
X143309926Y-83097597D01*
X143309929Y-83097597D01*
X143309931Y-83097598D01*
X143346806Y-83100500D01*
X143612770Y-83100500D01*
X143642210Y-83109144D01*
X143672197Y-83115668D01*
X143677212Y-83119422D01*
X143679809Y-83120185D01*
X143700451Y-83136819D01*
X143751451Y-83187819D01*
X143784936Y-83249142D01*
X143779952Y-83318834D01*
X143738080Y-83374767D01*
X143672616Y-83399184D01*
X143663770Y-83399500D01*
X143346798Y-83399500D01*
X143309932Y-83402401D01*
X143309926Y-83402402D01*
X143152106Y-83448254D01*
X143152103Y-83448255D01*
X143010637Y-83531917D01*
X143010629Y-83531923D01*
X142894423Y-83648129D01*
X142894417Y-83648137D01*
X142810755Y-83789603D01*
X142810754Y-83789606D01*
X142764902Y-83947426D01*
X142764901Y-83947432D01*
X142762000Y-83984298D01*
X142762000Y-84415701D01*
X142764901Y-84452567D01*
X142764902Y-84452573D01*
X142810754Y-84610393D01*
X142810755Y-84610396D01*
X142894417Y-84751862D01*
X142894423Y-84751870D01*
X143010629Y-84868076D01*
X143010633Y-84868079D01*
X143010635Y-84868081D01*
X143010638Y-84868082D01*
X143010641Y-84868085D01*
X143113620Y-84928986D01*
X143161304Y-84980054D01*
X143174500Y-85035718D01*
X143174500Y-85350270D01*
X143154815Y-85417309D01*
X143138181Y-85437951D01*
X143019789Y-85556342D01*
X142927687Y-85705663D01*
X142927685Y-85705668D01*
X142916309Y-85740000D01*
X142872501Y-85872203D01*
X142872501Y-85872204D01*
X142872500Y-85872204D01*
X142862000Y-85974983D01*
X142862000Y-87325001D01*
X142862001Y-87325018D01*
X142872500Y-87427796D01*
X142872501Y-87427799D01*
X142922338Y-87578194D01*
X142927686Y-87594334D01*
X143019788Y-87743656D01*
X143143844Y-87867712D01*
X143293166Y-87959814D01*
X143459703Y-88014999D01*
X143562491Y-88025500D01*
X144287508Y-88025499D01*
X144287516Y-88025498D01*
X144287519Y-88025498D01*
X144343802Y-88019748D01*
X144390297Y-88014999D01*
X144556834Y-87959814D01*
X144706156Y-87867712D01*
X144830212Y-87743656D01*
X144907159Y-87618903D01*
X144959107Y-87572179D01*
X145012698Y-87560000D01*
X145762889Y-87560000D01*
X145829928Y-87579685D01*
X145868428Y-87618903D01*
X145945184Y-87743345D01*
X146069154Y-87867315D01*
X146218375Y-87959356D01*
X146218380Y-87959358D01*
X146384802Y-88014505D01*
X146384809Y-88014506D01*
X146487519Y-88024999D01*
X146599999Y-88024999D01*
X147100000Y-88024999D01*
X147212472Y-88024999D01*
X147212486Y-88024998D01*
X147315197Y-88014505D01*
X147481619Y-87959358D01*
X147481624Y-87959356D01*
X147630845Y-87867315D01*
X147754815Y-87743345D01*
X147846856Y-87594124D01*
X147846858Y-87594119D01*
X147902005Y-87427697D01*
X147902006Y-87427690D01*
X147912499Y-87324986D01*
X147912500Y-87324973D01*
X147912500Y-86900000D01*
X147100000Y-86900000D01*
X147100000Y-88024999D01*
X146599999Y-88024999D01*
X146600000Y-88024998D01*
X146600000Y-86400000D01*
X147100000Y-86400000D01*
X147912499Y-86400000D01*
X147912499Y-85975028D01*
X147912498Y-85975013D01*
X147902005Y-85872302D01*
X147846858Y-85705880D01*
X147846856Y-85705875D01*
X147754815Y-85556654D01*
X147630845Y-85432684D01*
X147481624Y-85340643D01*
X147481619Y-85340641D01*
X147315197Y-85285494D01*
X147315190Y-85285493D01*
X147212486Y-85275000D01*
X147100000Y-85275000D01*
X147100000Y-86400000D01*
X146600000Y-86400000D01*
X146600000Y-85275000D01*
X146487527Y-85275000D01*
X146487512Y-85275001D01*
X146384802Y-85285494D01*
X146218380Y-85340641D01*
X146218375Y-85340643D01*
X146069154Y-85432684D01*
X145945184Y-85556654D01*
X145868428Y-85681097D01*
X145816480Y-85727821D01*
X145762889Y-85740000D01*
X145012698Y-85740000D01*
X144945659Y-85720315D01*
X144907159Y-85681096D01*
X144904940Y-85677499D01*
X144830212Y-85556344D01*
X144711819Y-85437951D01*
X144678334Y-85376628D01*
X144675500Y-85350270D01*
X144675500Y-85035718D01*
X144695185Y-84968679D01*
X144736380Y-84928986D01*
X144778308Y-84904189D01*
X144839365Y-84868081D01*
X144955581Y-84751865D01*
X145039244Y-84610398D01*
X145085098Y-84452569D01*
X145088000Y-84415694D01*
X145088000Y-84124500D01*
X145090550Y-84115814D01*
X145089262Y-84106853D01*
X145100240Y-84082812D01*
X145107685Y-84057461D01*
X145114525Y-84051533D01*
X145118287Y-84043297D01*
X145140521Y-84029007D01*
X145160489Y-84011706D01*
X145171003Y-84009418D01*
X145177065Y-84005523D01*
X145212000Y-84000500D01*
X145405172Y-84000500D01*
X145439767Y-84005424D01*
X145584926Y-84047597D01*
X145584929Y-84047597D01*
X145584931Y-84047598D01*
X145621806Y-84050500D01*
X145621814Y-84050500D01*
X146778186Y-84050500D01*
X146778194Y-84050500D01*
X146815069Y-84047598D01*
X146815071Y-84047597D01*
X146815073Y-84047597D01*
X146879059Y-84029007D01*
X146972898Y-84001744D01*
X147114365Y-83918081D01*
X147230581Y-83801865D01*
X147314244Y-83660398D01*
X147360098Y-83502569D01*
X147363000Y-83465694D01*
X147363000Y-83034306D01*
X147360098Y-82997431D01*
X147357993Y-82990187D01*
X147319689Y-82858343D01*
X147314244Y-82839602D01*
X147230581Y-82698135D01*
X147230579Y-82698133D01*
X147230576Y-82698129D01*
X147114370Y-82581923D01*
X147114362Y-82581917D01*
X146972896Y-82498255D01*
X146972893Y-82498254D01*
X146815073Y-82452402D01*
X146815067Y-82452401D01*
X146778201Y-82449500D01*
X146778194Y-82449500D01*
X145621806Y-82449500D01*
X145621798Y-82449500D01*
X145584932Y-82452401D01*
X145584926Y-82452402D01*
X145439767Y-82494576D01*
X145405172Y-82499500D01*
X145237230Y-82499500D01*
X145170191Y-82479815D01*
X145149549Y-82463181D01*
X145124319Y-82437951D01*
X145090834Y-82376628D01*
X145088000Y-82350270D01*
X145088000Y-82084313D01*
X145087999Y-82084298D01*
X145086441Y-82064504D01*
X145085098Y-82047431D01*
X145071859Y-82001864D01*
X145051336Y-81931224D01*
X145039244Y-81889602D01*
X144955581Y-81748135D01*
X144955579Y-81748133D01*
X144955576Y-81748129D01*
X144839370Y-81631923D01*
X144839362Y-81631917D01*
X144737690Y-81571789D01*
X144697898Y-81548256D01*
X144697897Y-81548255D01*
X144697896Y-81548255D01*
X144697893Y-81548254D01*
X144540073Y-81502402D01*
X144540067Y-81502401D01*
X144503201Y-81499500D01*
X144503194Y-81499500D01*
X143346806Y-81499500D01*
X143346798Y-81499500D01*
X143309932Y-81502401D01*
X143309926Y-81502402D01*
X143164767Y-81544576D01*
X143130172Y-81549500D01*
X141479062Y-81549500D01*
X141440060Y-81543206D01*
X141415297Y-81535001D01*
X141415287Y-81535000D01*
X141312510Y-81524500D01*
X140587498Y-81524500D01*
X140587480Y-81524501D01*
X140484703Y-81535000D01*
X140484700Y-81535001D01*
X140318168Y-81590185D01*
X140318163Y-81590187D01*
X140168842Y-81682289D01*
X140044789Y-81806342D01*
X139952687Y-81955663D01*
X139952686Y-81955666D01*
X139897501Y-82122203D01*
X139897501Y-82122204D01*
X139897500Y-82122204D01*
X139887000Y-82224983D01*
X139087998Y-82224983D01*
X139085720Y-82202686D01*
X139077499Y-82122203D01*
X139077498Y-82122200D01*
X139064941Y-82084306D01*
X139022314Y-81955666D01*
X138930212Y-81806344D01*
X138806156Y-81682288D01*
X138656834Y-81590186D01*
X138490297Y-81535001D01*
X138490295Y-81535000D01*
X138387510Y-81524500D01*
X137662498Y-81524500D01*
X137662480Y-81524501D01*
X137559703Y-81535000D01*
X137559700Y-81535001D01*
X137393168Y-81590185D01*
X137393163Y-81590187D01*
X137243842Y-81682289D01*
X137119789Y-81806342D01*
X137027687Y-81955663D01*
X137027686Y-81955666D01*
X136992280Y-82062516D01*
X136991621Y-82064504D01*
X136951848Y-82121949D01*
X136887333Y-82148772D01*
X136873915Y-82149500D01*
X136312230Y-82149500D01*
X136245191Y-82129815D01*
X136224549Y-82113181D01*
X133586354Y-79474986D01*
X134812501Y-79474986D01*
X134822994Y-79577697D01*
X134878141Y-79744119D01*
X134878143Y-79744124D01*
X134970184Y-79893345D01*
X135094154Y-80017315D01*
X135243375Y-80109356D01*
X135243380Y-80109358D01*
X135409802Y-80164505D01*
X135409809Y-80164506D01*
X135512519Y-80174999D01*
X135624999Y-80174999D01*
X135625000Y-80174998D01*
X135625000Y-79050000D01*
X134812501Y-79050000D01*
X134812501Y-79474986D01*
X133586354Y-79474986D01*
X132236381Y-78125013D01*
X134812500Y-78125013D01*
X134812500Y-78550000D01*
X135625000Y-78550000D01*
X135625000Y-77425000D01*
X135512527Y-77425000D01*
X135512512Y-77425001D01*
X135409802Y-77435494D01*
X135243380Y-77490641D01*
X135243375Y-77490643D01*
X135094154Y-77582684D01*
X134970184Y-77706654D01*
X134878143Y-77855875D01*
X134878141Y-77855880D01*
X134822994Y-78022302D01*
X134822993Y-78022309D01*
X134812500Y-78125013D01*
X132236381Y-78125013D01*
X130261819Y-76150451D01*
X130228334Y-76089128D01*
X130225500Y-76062770D01*
X130225500Y-74112228D01*
X130245185Y-74045189D01*
X130261814Y-74024551D01*
X131235367Y-73050998D01*
X131296688Y-73017515D01*
X131366379Y-73022499D01*
X131422313Y-73064371D01*
X131423364Y-73065795D01*
X131477784Y-73140698D01*
X131479208Y-73142657D01*
X131657345Y-73320794D01*
X131657350Y-73320798D01*
X131794984Y-73420794D01*
X131861155Y-73468870D01*
X131976245Y-73527511D01*
X132011807Y-73545631D01*
X132062603Y-73593606D01*
X132079398Y-73661427D01*
X132056861Y-73727562D01*
X132011807Y-73766601D01*
X131913566Y-73816657D01*
X131807904Y-73893426D01*
X131722490Y-73955483D01*
X131722488Y-73955485D01*
X131722487Y-73955485D01*
X131555485Y-74122487D01*
X131555485Y-74122488D01*
X131555483Y-74122490D01*
X131507240Y-74188891D01*
X131416657Y-74313566D01*
X131309433Y-74524003D01*
X131236446Y-74748631D01*
X131199500Y-74981902D01*
X131199500Y-75218097D01*
X131236446Y-75451368D01*
X131309433Y-75675996D01*
X131409230Y-75871856D01*
X131416657Y-75886433D01*
X131555483Y-76077510D01*
X131722490Y-76244517D01*
X131913567Y-76383343D01*
X131990727Y-76422658D01*
X132124003Y-76490566D01*
X132124005Y-76490566D01*
X132124008Y-76490568D01*
X132211214Y-76518903D01*
X132348631Y-76563553D01*
X132581903Y-76600500D01*
X132581908Y-76600500D01*
X132818096Y-76600500D01*
X132880227Y-76590659D01*
X132949521Y-76599613D01*
X132987307Y-76625451D01*
X133219955Y-76858099D01*
X133285975Y-76924119D01*
X133341902Y-76980046D01*
X133485288Y-77075854D01*
X133485301Y-77075861D01*
X133644621Y-77141853D01*
X133644626Y-77141855D01*
X133813766Y-77175499D01*
X133813769Y-77175500D01*
X133813771Y-77175500D01*
X136486436Y-77175500D01*
X136553475Y-77195185D01*
X136599230Y-77247989D01*
X136610436Y-77299500D01*
X136610436Y-77353322D01*
X136590751Y-77420361D01*
X136537947Y-77466116D01*
X136468789Y-77476060D01*
X136447433Y-77471028D01*
X136340200Y-77435495D01*
X136340190Y-77435493D01*
X136237486Y-77425000D01*
X136125000Y-77425000D01*
X136125000Y-80174999D01*
X136237472Y-80174999D01*
X136237486Y-80174998D01*
X136340197Y-80164505D01*
X136506619Y-80109358D01*
X136506624Y-80109356D01*
X136655845Y-80017315D01*
X136779815Y-79893345D01*
X136856572Y-79768903D01*
X136908520Y-79722179D01*
X136962111Y-79710000D01*
X137712302Y-79710000D01*
X137779341Y-79729685D01*
X137817840Y-79768903D01*
X137833651Y-79794537D01*
X137868912Y-79851705D01*
X137894788Y-79893656D01*
X138018844Y-80017712D01*
X138168166Y-80109814D01*
X138334703Y-80164999D01*
X138437491Y-80175500D01*
X139162508Y-80175499D01*
X139162516Y-80175498D01*
X139162519Y-80175498D01*
X139218802Y-80169748D01*
X139265297Y-80164999D01*
X139431834Y-80109814D01*
X139581156Y-80017712D01*
X139705212Y-79893656D01*
X139797314Y-79744334D01*
X139816811Y-79685493D01*
X139830681Y-79665461D01*
X139840804Y-79643297D01*
X139850215Y-79637248D01*
X139856584Y-79628051D01*
X139879082Y-79618697D01*
X139899582Y-79605523D01*
X139916683Y-79603064D01*
X139921100Y-79601228D01*
X139934517Y-79600500D01*
X139949576Y-79600500D01*
X140016615Y-79620185D01*
X140027260Y-79627850D01*
X140046476Y-79643297D01*
X140138204Y-79717030D01*
X140138207Y-79717032D01*
X140308802Y-79801639D01*
X140308803Y-79801639D01*
X140308807Y-79801641D01*
X140493611Y-79847600D01*
X140536377Y-79850500D01*
X141938622Y-79850499D01*
X141981389Y-79847600D01*
X142166193Y-79801641D01*
X142336796Y-79717030D01*
X142485222Y-79597722D01*
X142604530Y-79449296D01*
X142689141Y-79278693D01*
X142735100Y-79093889D01*
X142738000Y-79051123D01*
X142737999Y-78148878D01*
X142735100Y-78106111D01*
X142689141Y-77921307D01*
X142608167Y-77758037D01*
X142604532Y-77750707D01*
X142604530Y-77750704D01*
X142485222Y-77602278D01*
X142485221Y-77602277D01*
X142416014Y-77546647D01*
X142376095Y-77489304D01*
X142373515Y-77419482D01*
X142409094Y-77359349D01*
X142416014Y-77353353D01*
X142443007Y-77331655D01*
X142485222Y-77297722D01*
X142604530Y-77149296D01*
X142689141Y-76978693D01*
X142735100Y-76793889D01*
X142738000Y-76751123D01*
X142737999Y-75848878D01*
X142735100Y-75806111D01*
X142689141Y-75621307D01*
X142654395Y-75551247D01*
X142604532Y-75450707D01*
X142604530Y-75450704D01*
X142485222Y-75302278D01*
X142485221Y-75302277D01*
X142416014Y-75246647D01*
X142376095Y-75189304D01*
X142373515Y-75119482D01*
X142409094Y-75059349D01*
X142416014Y-75053353D01*
X142425409Y-75045800D01*
X142485222Y-74997722D01*
X142604530Y-74849296D01*
X142689141Y-74678693D01*
X142735100Y-74493889D01*
X142738000Y-74451123D01*
X142737999Y-73548878D01*
X142735100Y-73506111D01*
X142689141Y-73321307D01*
X142650133Y-73242654D01*
X142604532Y-73150707D01*
X142604530Y-73150704D01*
X142485222Y-73002278D01*
X142485221Y-73002277D01*
X142336795Y-72882969D01*
X142336792Y-72882967D01*
X142166197Y-72798360D01*
X141981392Y-72752400D01*
X141960006Y-72750950D01*
X141938623Y-72749500D01*
X141938620Y-72749500D01*
X140536377Y-72749500D01*
X140536374Y-72749501D01*
X140493613Y-72752399D01*
X140493612Y-72752399D01*
X140308803Y-72798360D01*
X140138207Y-72882967D01*
X140138204Y-72882969D01*
X140059553Y-72946191D01*
X140027935Y-72971607D01*
X140027263Y-72972147D01*
X140004882Y-72981385D01*
X139984511Y-72994477D01*
X139967102Y-72996979D01*
X139962679Y-72998806D01*
X139949576Y-72999500D01*
X139934517Y-72999500D01*
X139867478Y-72979815D01*
X139821723Y-72927011D01*
X139816811Y-72914505D01*
X139797314Y-72855666D01*
X139705212Y-72706344D01*
X139581156Y-72582288D01*
X139488388Y-72525069D01*
X139431836Y-72490187D01*
X139431831Y-72490185D01*
X139430362Y-72489698D01*
X139265297Y-72435001D01*
X139265295Y-72435000D01*
X139162510Y-72424500D01*
X138437498Y-72424500D01*
X138437480Y-72424501D01*
X138334703Y-72435000D01*
X138334700Y-72435001D01*
X138168168Y-72490185D01*
X138168163Y-72490187D01*
X138018842Y-72582289D01*
X137894789Y-72706342D01*
X137802687Y-72855663D01*
X137802686Y-72855666D01*
X137783023Y-72915005D01*
X137743249Y-72972450D01*
X137678733Y-72999272D01*
X137665317Y-73000000D01*
X137009156Y-73000000D01*
X136942117Y-72980315D01*
X136896362Y-72927511D01*
X136891450Y-72915004D01*
X136871858Y-72855880D01*
X136871856Y-72855875D01*
X136779815Y-72706654D01*
X136655845Y-72582684D01*
X136506624Y-72490643D01*
X136506619Y-72490641D01*
X136340197Y-72435494D01*
X136340190Y-72435493D01*
X136237486Y-72425000D01*
X136125000Y-72425000D01*
X136125000Y-75174999D01*
X136237472Y-75174999D01*
X136237486Y-75174998D01*
X136340197Y-75164505D01*
X136506619Y-75109358D01*
X136506624Y-75109356D01*
X136655845Y-75017315D01*
X136779817Y-74893343D01*
X136788725Y-74878902D01*
X136840673Y-74832178D01*
X136894263Y-74820000D01*
X137780150Y-74820000D01*
X137847189Y-74839685D01*
X137885687Y-74878901D01*
X137894788Y-74893656D01*
X138018844Y-75017712D01*
X138168166Y-75109814D01*
X138334703Y-75164999D01*
X138437491Y-75175500D01*
X138764461Y-75175499D01*
X138775258Y-75178669D01*
X138786448Y-75177464D01*
X138808180Y-75188336D01*
X138831499Y-75195183D01*
X138838869Y-75203689D01*
X138848934Y-75208724D01*
X138861339Y-75229620D01*
X138877254Y-75247987D01*
X138878855Y-75259126D01*
X138884601Y-75268804D01*
X138883739Y-75293092D01*
X138887198Y-75317146D01*
X138882522Y-75327382D01*
X138882124Y-75338630D01*
X138868267Y-75358596D01*
X138858173Y-75380701D01*
X138847671Y-75388275D01*
X138842289Y-75396032D01*
X138811940Y-75414049D01*
X138809525Y-75415050D01*
X138762045Y-75424500D01*
X134314006Y-75424500D01*
X134246967Y-75404815D01*
X134226325Y-75388181D01*
X134225451Y-75387307D01*
X134191966Y-75325984D01*
X134190659Y-75280227D01*
X134200500Y-75218096D01*
X134200500Y-74981902D01*
X134163553Y-74748631D01*
X134108088Y-74577929D01*
X134090568Y-74524008D01*
X134090566Y-74524005D01*
X134090566Y-74524003D01*
X134065590Y-74474986D01*
X134812501Y-74474986D01*
X134822994Y-74577697D01*
X134878141Y-74744119D01*
X134878143Y-74744124D01*
X134970184Y-74893345D01*
X135094154Y-75017315D01*
X135243375Y-75109356D01*
X135243380Y-75109358D01*
X135409802Y-75164505D01*
X135409809Y-75164506D01*
X135512519Y-75174999D01*
X135624999Y-75174999D01*
X135625000Y-75174998D01*
X135625000Y-74050000D01*
X134812501Y-74050000D01*
X134812501Y-74474986D01*
X134065590Y-74474986D01*
X134014874Y-74375451D01*
X133983343Y-74313567D01*
X133844517Y-74122490D01*
X133677510Y-73955483D01*
X133486433Y-73816657D01*
X133388191Y-73766600D01*
X133337396Y-73718627D01*
X133320601Y-73650806D01*
X133343138Y-73584671D01*
X133388190Y-73545632D01*
X133538845Y-73468870D01*
X133742656Y-73320793D01*
X133920793Y-73142656D01*
X133933611Y-73125013D01*
X134812500Y-73125013D01*
X134812500Y-73550000D01*
X135625000Y-73550000D01*
X135625000Y-72425000D01*
X135512527Y-72425000D01*
X135512512Y-72425001D01*
X135409802Y-72435494D01*
X135243380Y-72490641D01*
X135243375Y-72490643D01*
X135094154Y-72582684D01*
X134970184Y-72706654D01*
X134878143Y-72855875D01*
X134878141Y-72855880D01*
X134822994Y-73022302D01*
X134822993Y-73022309D01*
X134812500Y-73125013D01*
X133933611Y-73125013D01*
X133976636Y-73065795D01*
X133988854Y-73048979D01*
X134038740Y-72980315D01*
X134068870Y-72938845D01*
X134183241Y-72714379D01*
X134261090Y-72474785D01*
X134300500Y-72225962D01*
X134300500Y-71974038D01*
X134261090Y-71725215D01*
X134183241Y-71485621D01*
X134183239Y-71485618D01*
X134183239Y-71485616D01*
X134132224Y-71385495D01*
X134068870Y-71261155D01*
X134016856Y-71189564D01*
X134006265Y-71174986D01*
X134812501Y-71174986D01*
X134822994Y-71277697D01*
X134878141Y-71444119D01*
X134878143Y-71444124D01*
X134970184Y-71593345D01*
X135094154Y-71717315D01*
X135243375Y-71809356D01*
X135243380Y-71809358D01*
X135409802Y-71864505D01*
X135409809Y-71864506D01*
X135512519Y-71874999D01*
X135624999Y-71874999D01*
X135625000Y-71874998D01*
X135625000Y-70750000D01*
X134812501Y-70750000D01*
X134812501Y-71174986D01*
X134006265Y-71174986D01*
X133920798Y-71057350D01*
X133920794Y-71057345D01*
X133742654Y-70879205D01*
X133742649Y-70879201D01*
X133632201Y-70798956D01*
X133538848Y-70731132D01*
X133538847Y-70731131D01*
X133538845Y-70731130D01*
X133406218Y-70663553D01*
X133388192Y-70654368D01*
X133337396Y-70606393D01*
X133320601Y-70538572D01*
X133343139Y-70472437D01*
X133388190Y-70433399D01*
X133486433Y-70383343D01*
X133677510Y-70244517D01*
X133844517Y-70077510D01*
X133983343Y-69886433D01*
X134014638Y-69825013D01*
X134812500Y-69825013D01*
X134812500Y-70250000D01*
X135625000Y-70250000D01*
X135625000Y-69125000D01*
X135512527Y-69125000D01*
X135512512Y-69125001D01*
X135409802Y-69135494D01*
X135243380Y-69190641D01*
X135243375Y-69190643D01*
X135094154Y-69282684D01*
X134970184Y-69406654D01*
X134878143Y-69555875D01*
X134878141Y-69555880D01*
X134822994Y-69722302D01*
X134822993Y-69722309D01*
X134812500Y-69825013D01*
X134014638Y-69825013D01*
X134090568Y-69675992D01*
X134163553Y-69451368D01*
X134184662Y-69318092D01*
X134200500Y-69218097D01*
X134200500Y-68999500D01*
X134220185Y-68932461D01*
X134272989Y-68886706D01*
X134324500Y-68875500D01*
X138774545Y-68875500D01*
X138782714Y-68877124D01*
X138787786Y-68876209D01*
X138821985Y-68884933D01*
X138824400Y-68885933D01*
X138878808Y-68929768D01*
X138900880Y-68996060D01*
X138883609Y-69063761D01*
X138832477Y-69111378D01*
X138776960Y-69124500D01*
X138437499Y-69124500D01*
X138437480Y-69124501D01*
X138334703Y-69135000D01*
X138334700Y-69135001D01*
X138168168Y-69190185D01*
X138168163Y-69190187D01*
X138018842Y-69282289D01*
X137894787Y-69406344D01*
X137817841Y-69531096D01*
X137765893Y-69577821D01*
X137712302Y-69590000D01*
X136962111Y-69590000D01*
X136895072Y-69570315D01*
X136856572Y-69531097D01*
X136779815Y-69406654D01*
X136655845Y-69282684D01*
X136506624Y-69190643D01*
X136506619Y-69190641D01*
X136340197Y-69135494D01*
X136340190Y-69135493D01*
X136237486Y-69125000D01*
X136125000Y-69125000D01*
X136125000Y-71874999D01*
X136237472Y-71874999D01*
X136237486Y-71874998D01*
X136340197Y-71864505D01*
X136506619Y-71809358D01*
X136506624Y-71809356D01*
X136655845Y-71717315D01*
X136779815Y-71593345D01*
X136856572Y-71468903D01*
X136908520Y-71422179D01*
X136962111Y-71410000D01*
X137712302Y-71410000D01*
X137779341Y-71429685D01*
X137817840Y-71468903D01*
X137838032Y-71501639D01*
X137889951Y-71585815D01*
X137894788Y-71593656D01*
X138018844Y-71717712D01*
X138168166Y-71809814D01*
X138334703Y-71864999D01*
X138437491Y-71875500D01*
X139162508Y-71875499D01*
X139162516Y-71875498D01*
X139162519Y-71875498D01*
X139218802Y-71869748D01*
X139265297Y-71864999D01*
X139431834Y-71809814D01*
X139581156Y-71717712D01*
X139705212Y-71593656D01*
X139797314Y-71444334D01*
X139816811Y-71385493D01*
X139830681Y-71365461D01*
X139840804Y-71343297D01*
X139850215Y-71337248D01*
X139856584Y-71328051D01*
X139879082Y-71318697D01*
X139899582Y-71305523D01*
X139916683Y-71303064D01*
X139921100Y-71301228D01*
X139934517Y-71300500D01*
X139962076Y-71300500D01*
X140029115Y-71320185D01*
X140039760Y-71327850D01*
X140102574Y-71378342D01*
X140150704Y-71417030D01*
X140150707Y-71417032D01*
X140321302Y-71501639D01*
X140321303Y-71501639D01*
X140321307Y-71501641D01*
X140506111Y-71547600D01*
X140548877Y-71550500D01*
X141951122Y-71550499D01*
X141993889Y-71547600D01*
X142178693Y-71501641D01*
X142349296Y-71417030D01*
X142497722Y-71297722D01*
X142617030Y-71149296D01*
X142701641Y-70978693D01*
X142747600Y-70793889D01*
X142750500Y-70751123D01*
X142750499Y-69848878D01*
X142747600Y-69806111D01*
X142701641Y-69621307D01*
X142678231Y-69574105D01*
X142617032Y-69450707D01*
X142617030Y-69450704D01*
X142497722Y-69302278D01*
X142497721Y-69302277D01*
X142428514Y-69246647D01*
X142388595Y-69189304D01*
X142386015Y-69119482D01*
X142421594Y-69059349D01*
X142428514Y-69053353D01*
X142448231Y-69037504D01*
X142497722Y-68997722D01*
X142617030Y-68849296D01*
X142701641Y-68678693D01*
X142747600Y-68493889D01*
X142750500Y-68451123D01*
X142750499Y-67548878D01*
X142747600Y-67506111D01*
X142701641Y-67321307D01*
X142699046Y-67316075D01*
X142617032Y-67150707D01*
X142617030Y-67150704D01*
X142497722Y-67002278D01*
X142497721Y-67002277D01*
X142428514Y-66946647D01*
X142388595Y-66889304D01*
X142386015Y-66819482D01*
X142421594Y-66759349D01*
X142428514Y-66753353D01*
X142437909Y-66745800D01*
X142497722Y-66697722D01*
X142617030Y-66549296D01*
X142622361Y-66538548D01*
X142675152Y-66432104D01*
X142701641Y-66378693D01*
X142747600Y-66193889D01*
X142750500Y-66151123D01*
X142750499Y-65248878D01*
X142747600Y-65206111D01*
X142701641Y-65021307D01*
X142649010Y-64915185D01*
X142617032Y-64850707D01*
X142617030Y-64850704D01*
X142497722Y-64702278D01*
X142497721Y-64702277D01*
X142349295Y-64582969D01*
X142349292Y-64582967D01*
X142178697Y-64498360D01*
X141993892Y-64452400D01*
X141972506Y-64450950D01*
X141951123Y-64449500D01*
X141951120Y-64449500D01*
X140548877Y-64449500D01*
X140548874Y-64449501D01*
X140506113Y-64452399D01*
X140506112Y-64452399D01*
X140321303Y-64498360D01*
X140150707Y-64582967D01*
X140150704Y-64582969D01*
X140039763Y-64672147D01*
X140017382Y-64681385D01*
X139997011Y-64694477D01*
X139979602Y-64696979D01*
X139975179Y-64698806D01*
X139962076Y-64699500D01*
X139934517Y-64699500D01*
X139867478Y-64679815D01*
X139821723Y-64627011D01*
X139816811Y-64614505D01*
X139797314Y-64555666D01*
X139705212Y-64406344D01*
X139581156Y-64282288D01*
X139480470Y-64220185D01*
X139431836Y-64190187D01*
X139431831Y-64190185D01*
X139430362Y-64189698D01*
X139265297Y-64135001D01*
X139265295Y-64135000D01*
X139162510Y-64124500D01*
X138437498Y-64124500D01*
X138437480Y-64124501D01*
X138334703Y-64135000D01*
X138334700Y-64135001D01*
X138168168Y-64190185D01*
X138168163Y-64190187D01*
X138018842Y-64282289D01*
X137894787Y-64406344D01*
X137817841Y-64531096D01*
X137765893Y-64577821D01*
X137712302Y-64590000D01*
X136962111Y-64590000D01*
X136895072Y-64570315D01*
X136856572Y-64531097D01*
X136779815Y-64406654D01*
X136655845Y-64282684D01*
X136506624Y-64190643D01*
X136506619Y-64190641D01*
X136340197Y-64135494D01*
X136340190Y-64135493D01*
X136237486Y-64125000D01*
X136125000Y-64125000D01*
X136125000Y-66874999D01*
X136237472Y-66874999D01*
X136237486Y-66874998D01*
X136340195Y-66864506D01*
X136447431Y-66828971D01*
X136517260Y-66826569D01*
X136577302Y-66862300D01*
X136608495Y-66924821D01*
X136610436Y-66946677D01*
X136610436Y-67000500D01*
X136590751Y-67067539D01*
X136537947Y-67113294D01*
X136486436Y-67124500D01*
X133713768Y-67124500D01*
X133544633Y-67158143D01*
X133544621Y-67158146D01*
X133385301Y-67224138D01*
X133385288Y-67224145D01*
X133241901Y-67319954D01*
X133241897Y-67319957D01*
X132987306Y-67574548D01*
X132925983Y-67608033D01*
X132880228Y-67609340D01*
X132818092Y-67599500D01*
X132581908Y-67599500D01*
X132581903Y-67599500D01*
X132348631Y-67636446D01*
X132124003Y-67709433D01*
X131913566Y-67816657D01*
X131831353Y-67876389D01*
X131722490Y-67955483D01*
X131722488Y-67955485D01*
X131722487Y-67955485D01*
X131555485Y-68122487D01*
X131555485Y-68122488D01*
X131555483Y-68122490D01*
X131544933Y-68137011D01*
X131416657Y-68313566D01*
X131309433Y-68524003D01*
X131236446Y-68748631D01*
X131199500Y-68981902D01*
X131199500Y-69218097D01*
X131236446Y-69451368D01*
X131309433Y-69675996D01*
X131363016Y-69781157D01*
X131416657Y-69886433D01*
X131555483Y-70077510D01*
X131722490Y-70244517D01*
X131854496Y-70340425D01*
X131913568Y-70383344D01*
X131963468Y-70408769D01*
X131994436Y-70424548D01*
X132011806Y-70433398D01*
X132062603Y-70481372D01*
X132079398Y-70549193D01*
X132056861Y-70615328D01*
X132011807Y-70654367D01*
X131861156Y-70731128D01*
X131861155Y-70731129D01*
X131657350Y-70879201D01*
X131657345Y-70879205D01*
X131479205Y-71057345D01*
X131479201Y-71057350D01*
X131331132Y-71261150D01*
X131326025Y-71271173D01*
X131320613Y-71281794D01*
X131272641Y-71332590D01*
X131210129Y-71349500D01*
X131051080Y-71349500D01*
X130906092Y-71378340D01*
X130906082Y-71378343D01*
X130769511Y-71434912D01*
X130769498Y-71434919D01*
X130646584Y-71517048D01*
X130646580Y-71517051D01*
X128892045Y-73271586D01*
X128868299Y-73307126D01*
X128858825Y-73321307D01*
X128834286Y-73358031D01*
X128809914Y-73394507D01*
X128753343Y-73531082D01*
X128753340Y-73531092D01*
X128724500Y-73676079D01*
X128724500Y-73676082D01*
X128724500Y-76498918D01*
X128724500Y-76498920D01*
X128724499Y-76498920D01*
X128753340Y-76643907D01*
X128753343Y-76643917D01*
X128809913Y-76780490D01*
X128809918Y-76780499D01*
X128818866Y-76793890D01*
X128818868Y-76793892D01*
X128862913Y-76859812D01*
X128892051Y-76903420D01*
X134607148Y-82618517D01*
X134640633Y-82679840D01*
X134635649Y-82749532D01*
X134593777Y-82805465D01*
X134528313Y-82829882D01*
X134460040Y-82815030D01*
X134456369Y-82812943D01*
X134410398Y-82785756D01*
X134410397Y-82785755D01*
X134410396Y-82785755D01*
X134410393Y-82785754D01*
X134252573Y-82739902D01*
X134252567Y-82739901D01*
X134215701Y-82737000D01*
X134215694Y-82737000D01*
X133784306Y-82737000D01*
X133784298Y-82737000D01*
X133747432Y-82739901D01*
X133747426Y-82739902D01*
X133589606Y-82785754D01*
X133589603Y-82785755D01*
X133448136Y-82869417D01*
X133442901Y-82873479D01*
X133377864Y-82899014D01*
X133366900Y-82899500D01*
X129726204Y-82899500D01*
X129659165Y-82879815D01*
X129634469Y-82858263D01*
X129634390Y-82858343D01*
X129633226Y-82857179D01*
X129631923Y-82856042D01*
X129630949Y-82854902D01*
X129495104Y-82719057D01*
X129495102Y-82719055D01*
X129339681Y-82606135D01*
X129265163Y-82568166D01*
X129168506Y-82518916D01*
X128985802Y-82459553D01*
X128849412Y-82437951D01*
X128796055Y-82429500D01*
X128603945Y-82429500D01*
X128550588Y-82437951D01*
X128414197Y-82459553D01*
X128231493Y-82518916D01*
X128060318Y-82606135D01*
X128008674Y-82643657D01*
X127904898Y-82719055D01*
X127904896Y-82719057D01*
X127904895Y-82719057D01*
X127769050Y-82854902D01*
X127768077Y-82856042D01*
X127767599Y-82856353D01*
X127765610Y-82858343D01*
X127765191Y-82857924D01*
X127709566Y-82894229D01*
X127673796Y-82899500D01*
X127076080Y-82899500D01*
X126931092Y-82928340D01*
X126931086Y-82928342D01*
X126794508Y-82984914D01*
X126794496Y-82984921D01*
X126745269Y-83017813D01*
X126671588Y-83067044D01*
X126671580Y-83067050D01*
X125475451Y-84263181D01*
X125448523Y-84277884D01*
X125422705Y-84294477D01*
X125416504Y-84295368D01*
X125414128Y-84296666D01*
X125387770Y-84299500D01*
X125237230Y-84299500D01*
X125170191Y-84279815D01*
X125149549Y-84263181D01*
X125068657Y-84182289D01*
X125068656Y-84182288D01*
X124965493Y-84118657D01*
X124919336Y-84090187D01*
X124919331Y-84090185D01*
X124908832Y-84086706D01*
X124752797Y-84035001D01*
X124752795Y-84035000D01*
X124650010Y-84024500D01*
X123149998Y-84024500D01*
X123149981Y-84024501D01*
X123047203Y-84035000D01*
X123047200Y-84035001D01*
X122880668Y-84090185D01*
X122880663Y-84090187D01*
X122731342Y-84182289D01*
X122650451Y-84263181D01*
X122589128Y-84296666D01*
X122562770Y-84299500D01*
X122287163Y-84299500D01*
X122220124Y-84279815D01*
X122174369Y-84227011D01*
X122165911Y-84201459D01*
X122165000Y-84197207D01*
X122160057Y-84182289D01*
X122109814Y-84030666D01*
X122017712Y-83881344D01*
X121893656Y-83757288D01*
X121744334Y-83665186D01*
X121577797Y-83610001D01*
X121577795Y-83610000D01*
X121475010Y-83599500D01*
X120724998Y-83599500D01*
X120724980Y-83599501D01*
X120622203Y-83610000D01*
X120622200Y-83610001D01*
X120455668Y-83665185D01*
X120455663Y-83665187D01*
X120306342Y-83757289D01*
X120182287Y-83881344D01*
X120089921Y-84031096D01*
X120037973Y-84077821D01*
X119984382Y-84090000D01*
X119265032Y-84090000D01*
X119197993Y-84070315D01*
X119159494Y-84031097D01*
X119067319Y-83881659D01*
X119067316Y-83881655D01*
X118943345Y-83757684D01*
X118794124Y-83665643D01*
X118794119Y-83665641D01*
X118627697Y-83610494D01*
X118627690Y-83610493D01*
X118524986Y-83600000D01*
X118400000Y-83600000D01*
X118400000Y-86399999D01*
X118524972Y-86399999D01*
X118524986Y-86399998D01*
X118627697Y-86389505D01*
X118794119Y-86334358D01*
X118794124Y-86334356D01*
X118943345Y-86242315D01*
X119067316Y-86118344D01*
X119067319Y-86118340D01*
X119159494Y-85968903D01*
X119211441Y-85922178D01*
X119265032Y-85910000D01*
X119984382Y-85910000D01*
X120051421Y-85929685D01*
X120089921Y-85968904D01*
X120090185Y-85969333D01*
X120090186Y-85969334D01*
X120093675Y-85974991D01*
X120182095Y-86118344D01*
X120182288Y-86118656D01*
X120306344Y-86242712D01*
X120455666Y-86334814D01*
X120622203Y-86389999D01*
X120724991Y-86400500D01*
X121475008Y-86400499D01*
X121475016Y-86400498D01*
X121475019Y-86400498D01*
X121531302Y-86394748D01*
X121577797Y-86389999D01*
X121744334Y-86334814D01*
X121893656Y-86242712D01*
X122017712Y-86118656D01*
X122109814Y-85969334D01*
X122137595Y-85885495D01*
X122177368Y-85828051D01*
X122241884Y-85801228D01*
X122255301Y-85800500D01*
X122562770Y-85800500D01*
X122629809Y-85820185D01*
X122650451Y-85836819D01*
X122731344Y-85917712D01*
X122880666Y-86009814D01*
X123047203Y-86064999D01*
X123149991Y-86075500D01*
X123225500Y-86075499D01*
X123292538Y-86095183D01*
X123338294Y-86147986D01*
X123349500Y-86199499D01*
X123349500Y-87764281D01*
X123329815Y-87831320D01*
X123288621Y-87871013D01*
X123185638Y-87931916D01*
X123185629Y-87931923D01*
X123069423Y-88048129D01*
X123069414Y-88048140D01*
X123069229Y-88048455D01*
X123069019Y-88048650D01*
X123064639Y-88054298D01*
X123063727Y-88053591D01*
X123018157Y-88096136D01*
X122949415Y-88108637D01*
X122884827Y-88081988D01*
X122860643Y-88054078D01*
X122860361Y-88054298D01*
X122856323Y-88049092D01*
X122855771Y-88048455D01*
X122855585Y-88048140D01*
X122855576Y-88048129D01*
X122739370Y-87931923D01*
X122739362Y-87931917D01*
X122643133Y-87875008D01*
X122597898Y-87848256D01*
X122597897Y-87848255D01*
X122597896Y-87848255D01*
X122597893Y-87848254D01*
X122440073Y-87802402D01*
X122440067Y-87802401D01*
X122403201Y-87799500D01*
X122403194Y-87799500D01*
X121246806Y-87799500D01*
X121246798Y-87799500D01*
X121209932Y-87802401D01*
X121209926Y-87802402D01*
X121064767Y-87844576D01*
X121030172Y-87849500D01*
X120571870Y-87849500D01*
X120504831Y-87829815D01*
X120459076Y-87777011D01*
X120454164Y-87764505D01*
X120451478Y-87756400D01*
X120409814Y-87630666D01*
X120317712Y-87481344D01*
X120193656Y-87357288D01*
X120083340Y-87289245D01*
X120044336Y-87265187D01*
X120044331Y-87265185D01*
X120020478Y-87257281D01*
X119877797Y-87210001D01*
X119877795Y-87210000D01*
X119775010Y-87199500D01*
X119024998Y-87199500D01*
X119024980Y-87199501D01*
X118922203Y-87210000D01*
X118922200Y-87210001D01*
X118755668Y-87265185D01*
X118755663Y-87265187D01*
X118606342Y-87357289D01*
X118482287Y-87481344D01*
X118426261Y-87572179D01*
X118397442Y-87618903D01*
X118389921Y-87631096D01*
X118337973Y-87677821D01*
X118284382Y-87690000D01*
X117565032Y-87690000D01*
X117497993Y-87670315D01*
X117459494Y-87631097D01*
X117367319Y-87481659D01*
X117367316Y-87481655D01*
X117243345Y-87357684D01*
X117094124Y-87265643D01*
X117094119Y-87265641D01*
X116927697Y-87210494D01*
X116927690Y-87210493D01*
X116824986Y-87200000D01*
X116700000Y-87200000D01*
X116700000Y-89999999D01*
X116824972Y-89999999D01*
X116824986Y-89999998D01*
X116927697Y-89989505D01*
X117094119Y-89934358D01*
X117094124Y-89934356D01*
X117243345Y-89842315D01*
X117367316Y-89718344D01*
X117367319Y-89718340D01*
X117459494Y-89568903D01*
X117511441Y-89522178D01*
X117565032Y-89510000D01*
X118284382Y-89510000D01*
X118351421Y-89529685D01*
X118389921Y-89568904D01*
X118482287Y-89718655D01*
X118611451Y-89847819D01*
X118609559Y-89849710D01*
X118642774Y-89896583D01*
X118649500Y-89936867D01*
X118649500Y-92023918D01*
X118649500Y-92023920D01*
X118649499Y-92023920D01*
X118678340Y-92168907D01*
X118678343Y-92168917D01*
X118734913Y-92305490D01*
X118759175Y-92341801D01*
X118817043Y-92428410D01*
X118817047Y-92428415D01*
X119212703Y-92824071D01*
X119246188Y-92885394D01*
X119241204Y-92955086D01*
X119199332Y-93011019D01*
X119133868Y-93035436D01*
X119125022Y-93035752D01*
X117189998Y-93035752D01*
X117189981Y-93035753D01*
X117087203Y-93046252D01*
X117087200Y-93046253D01*
X116920668Y-93101437D01*
X116920663Y-93101439D01*
X116771342Y-93193541D01*
X116647289Y-93317594D01*
X116627609Y-93349501D01*
X116557441Y-93463263D01*
X116551395Y-93473065D01*
X116549600Y-93471958D01*
X116510313Y-93516589D01*
X116444092Y-93535752D01*
X110820874Y-93535752D01*
X110753835Y-93516067D01*
X110708080Y-93463263D01*
X110697584Y-93425007D01*
X110696457Y-93414534D01*
X110694091Y-93392517D01*
X110643796Y-93257669D01*
X110643795Y-93257668D01*
X110643793Y-93257664D01*
X110557547Y-93142455D01*
X110557544Y-93142452D01*
X110442335Y-93056206D01*
X110442328Y-93056202D01*
X110307482Y-93005908D01*
X110307483Y-93005908D01*
X110247883Y-92999501D01*
X110247881Y-92999500D01*
X110247873Y-92999500D01*
X110247864Y-92999500D01*
X107752129Y-92999500D01*
X107752123Y-92999501D01*
X107692516Y-93005908D01*
X107557671Y-93056202D01*
X107557664Y-93056206D01*
X107442455Y-93142452D01*
X107442452Y-93142455D01*
X107356206Y-93257664D01*
X107356202Y-93257671D01*
X107305908Y-93392517D01*
X107299501Y-93452116D01*
X107299500Y-93452135D01*
X107299500Y-93985391D01*
X107279815Y-94052430D01*
X107274763Y-94059372D01*
X107163372Y-94226079D01*
X107163367Y-94226089D01*
X107087949Y-94408163D01*
X107087947Y-94408171D01*
X107049500Y-94601455D01*
X100500500Y-94601455D01*
X100500500Y-90274986D01*
X111200001Y-90274986D01*
X111210494Y-90377697D01*
X111265641Y-90544119D01*
X111265643Y-90544124D01*
X111357684Y-90693345D01*
X111481654Y-90817315D01*
X111630875Y-90909356D01*
X111630880Y-90909358D01*
X111797302Y-90964505D01*
X111797309Y-90964506D01*
X111900019Y-90974999D01*
X112349999Y-90974999D01*
X112850000Y-90974999D01*
X113299972Y-90974999D01*
X113299986Y-90974998D01*
X113402697Y-90964505D01*
X113569119Y-90909358D01*
X113569124Y-90909356D01*
X113718345Y-90817315D01*
X113842315Y-90693345D01*
X113934356Y-90544124D01*
X113934358Y-90544119D01*
X113989505Y-90377697D01*
X113989506Y-90377690D01*
X113999999Y-90274986D01*
X114000000Y-90274973D01*
X114000000Y-90150000D01*
X112850000Y-90150000D01*
X112850000Y-90974999D01*
X112349999Y-90974999D01*
X112350000Y-90974998D01*
X112350000Y-90150000D01*
X111200001Y-90150000D01*
X111200001Y-90274986D01*
X100500500Y-90274986D01*
X100500500Y-84327973D01*
X105399500Y-84327973D01*
X105399500Y-84572027D01*
X105411021Y-84644769D01*
X105435935Y-84802069D01*
X105437679Y-84813076D01*
X105513096Y-85045185D01*
X105620937Y-85256836D01*
X105623896Y-85262642D01*
X105767339Y-85460076D01*
X105767343Y-85460081D01*
X105767345Y-85460083D01*
X105939917Y-85632655D01*
X106101308Y-85749912D01*
X106116097Y-85762544D01*
X106779765Y-86426212D01*
X106737708Y-86437482D01*
X106612292Y-86509890D01*
X106509890Y-86612292D01*
X106437482Y-86737708D01*
X106426212Y-86779765D01*
X105691544Y-86045097D01*
X105624319Y-86137626D01*
X105513560Y-86355001D01*
X105438165Y-86587040D01*
X105400000Y-86828006D01*
X105400000Y-87071993D01*
X105438165Y-87312959D01*
X105513560Y-87544998D01*
X105624323Y-87762380D01*
X105691543Y-87854901D01*
X105691544Y-87854902D01*
X106426212Y-87120234D01*
X106437482Y-87162292D01*
X106509890Y-87287708D01*
X106612292Y-87390110D01*
X106737708Y-87462518D01*
X106779765Y-87473787D01*
X106045096Y-88208454D01*
X106045097Y-88208456D01*
X106137619Y-88275676D01*
X106355001Y-88386439D01*
X106587040Y-88461834D01*
X106828007Y-88500000D01*
X107071993Y-88500000D01*
X107312959Y-88461834D01*
X107544998Y-88386439D01*
X107762377Y-88275678D01*
X107854901Y-88208454D01*
X107854902Y-88208454D01*
X107120234Y-87473787D01*
X107162292Y-87462518D01*
X107287708Y-87390110D01*
X107390110Y-87287708D01*
X107462518Y-87162292D01*
X107473787Y-87120235D01*
X108208454Y-87854902D01*
X108208454Y-87854901D01*
X108275678Y-87762377D01*
X108386439Y-87544998D01*
X108461834Y-87312959D01*
X108500000Y-87071993D01*
X108500000Y-86828006D01*
X108462498Y-86591232D01*
X108461833Y-86587039D01*
X108457916Y-86574983D01*
X111199500Y-86574983D01*
X111199500Y-87325001D01*
X111199501Y-87325019D01*
X111210000Y-87427796D01*
X111210001Y-87427799D01*
X111259838Y-87578194D01*
X111265186Y-87594334D01*
X111357288Y-87743656D01*
X111481344Y-87867712D01*
X111629923Y-87959356D01*
X111631096Y-87960079D01*
X111677821Y-88012027D01*
X111690000Y-88065618D01*
X111690000Y-88784968D01*
X111670315Y-88852007D01*
X111631097Y-88890506D01*
X111481659Y-88982680D01*
X111481655Y-88982683D01*
X111357684Y-89106654D01*
X111265643Y-89255875D01*
X111265641Y-89255880D01*
X111210494Y-89422302D01*
X111210493Y-89422309D01*
X111200000Y-89525013D01*
X111200000Y-89650000D01*
X113999999Y-89650000D01*
X113999999Y-89525028D01*
X113999998Y-89525013D01*
X113989505Y-89422302D01*
X113948973Y-89299986D01*
X115375001Y-89299986D01*
X115385494Y-89402697D01*
X115440641Y-89569119D01*
X115440643Y-89569124D01*
X115532684Y-89718345D01*
X115656654Y-89842315D01*
X115805875Y-89934356D01*
X115805880Y-89934358D01*
X115972302Y-89989505D01*
X115972309Y-89989506D01*
X116075019Y-89999999D01*
X116199999Y-89999999D01*
X116200000Y-89999998D01*
X116200000Y-88850000D01*
X115375001Y-88850000D01*
X115375001Y-89299986D01*
X113948973Y-89299986D01*
X113934358Y-89255880D01*
X113934356Y-89255875D01*
X113842315Y-89106654D01*
X113718345Y-88982684D01*
X113591065Y-88904177D01*
X113591064Y-88904176D01*
X113568902Y-88890506D01*
X113522178Y-88838557D01*
X113510000Y-88784968D01*
X113510000Y-88065618D01*
X113529685Y-87998579D01*
X113568904Y-87960079D01*
X113570073Y-87959358D01*
X113718656Y-87867712D01*
X113842712Y-87743656D01*
X113842712Y-87743655D01*
X113847819Y-87738549D01*
X113848884Y-87739614D01*
X113870300Y-87725851D01*
X113896625Y-87707212D01*
X113900244Y-87706608D01*
X113901933Y-87705523D01*
X113936868Y-87700500D01*
X114059565Y-87700500D01*
X114126604Y-87720185D01*
X114128456Y-87721398D01*
X114151183Y-87736584D01*
X114226086Y-87786632D01*
X114226087Y-87786632D01*
X114226088Y-87786633D01*
X114408160Y-87862049D01*
X114408165Y-87862051D01*
X114408169Y-87862051D01*
X114408170Y-87862052D01*
X114601456Y-87900500D01*
X114601459Y-87900500D01*
X114798543Y-87900500D01*
X114946780Y-87871013D01*
X114991835Y-87862051D01*
X115173914Y-87786632D01*
X115183142Y-87780465D01*
X115249819Y-87759587D01*
X115317200Y-87778070D01*
X115363891Y-87830048D01*
X115375393Y-87896164D01*
X115375001Y-87899998D01*
X115375000Y-87900026D01*
X115375000Y-88350000D01*
X116200000Y-88350000D01*
X116200000Y-87200000D01*
X116075027Y-87200000D01*
X116075012Y-87200001D01*
X115972302Y-87210494D01*
X115838357Y-87254879D01*
X115768528Y-87257281D01*
X115708487Y-87221549D01*
X115677294Y-87159028D01*
X115677736Y-87112981D01*
X115682435Y-87089361D01*
X115686741Y-87067710D01*
X115700500Y-86998543D01*
X115700500Y-86801456D01*
X115662052Y-86608170D01*
X115662051Y-86608169D01*
X115662051Y-86608165D01*
X115653301Y-86587040D01*
X115586635Y-86426092D01*
X115586628Y-86426079D01*
X115477139Y-86262218D01*
X115477136Y-86262214D01*
X115337785Y-86122863D01*
X115337781Y-86122860D01*
X115173920Y-86013371D01*
X115173907Y-86013364D01*
X114991839Y-85937950D01*
X114991829Y-85937947D01*
X114798543Y-85899500D01*
X114798541Y-85899500D01*
X114601459Y-85899500D01*
X114601457Y-85899500D01*
X114408170Y-85937947D01*
X114408160Y-85937950D01*
X114226092Y-86013364D01*
X114226079Y-86013371D01*
X114062218Y-86122860D01*
X114062214Y-86122863D01*
X114023378Y-86161700D01*
X113962055Y-86195185D01*
X113892363Y-86190201D01*
X113849946Y-86159323D01*
X113847819Y-86161451D01*
X113718657Y-86032289D01*
X113718656Y-86032288D01*
X113569334Y-85940186D01*
X113435495Y-85895836D01*
X113415461Y-85881965D01*
X113393297Y-85871843D01*
X113387248Y-85862431D01*
X113378051Y-85856063D01*
X113368697Y-85833564D01*
X113355523Y-85813065D01*
X113353064Y-85795963D01*
X113351228Y-85791547D01*
X113350500Y-85778130D01*
X113350500Y-85776085D01*
X113370185Y-85709046D01*
X113380641Y-85699986D01*
X117075001Y-85699986D01*
X117085494Y-85802697D01*
X117140641Y-85969119D01*
X117140643Y-85969124D01*
X117232684Y-86118345D01*
X117356654Y-86242315D01*
X117505875Y-86334356D01*
X117505880Y-86334358D01*
X117672302Y-86389505D01*
X117672309Y-86389506D01*
X117775019Y-86399999D01*
X117899999Y-86399999D01*
X117900000Y-86399998D01*
X117900000Y-85250000D01*
X117075001Y-85250000D01*
X117075001Y-85699986D01*
X113380641Y-85699986D01*
X113422989Y-85663291D01*
X113435489Y-85658381D01*
X113544334Y-85622314D01*
X113693656Y-85530212D01*
X113817712Y-85406156D01*
X113909814Y-85256834D01*
X113964999Y-85090297D01*
X113975500Y-84987509D01*
X113975499Y-84300013D01*
X117075000Y-84300013D01*
X117075000Y-84750000D01*
X117900000Y-84750000D01*
X117900000Y-83600000D01*
X117775027Y-83600000D01*
X117775012Y-83600001D01*
X117672302Y-83610494D01*
X117505880Y-83665641D01*
X117505875Y-83665643D01*
X117356654Y-83757684D01*
X117232684Y-83881654D01*
X117140643Y-84030875D01*
X117140641Y-84030880D01*
X117085494Y-84197302D01*
X117085493Y-84197309D01*
X117075000Y-84300013D01*
X113975499Y-84300013D01*
X113975499Y-84262492D01*
X113975179Y-84259364D01*
X113964999Y-84159703D01*
X113964998Y-84159700D01*
X113951397Y-84118656D01*
X113909814Y-83993166D01*
X113817712Y-83843844D01*
X113693656Y-83719788D01*
X113560020Y-83637361D01*
X113544336Y-83627687D01*
X113544331Y-83627685D01*
X113526143Y-83621658D01*
X113377797Y-83572501D01*
X113377795Y-83572500D01*
X113275010Y-83562000D01*
X111924998Y-83562000D01*
X111924981Y-83562001D01*
X111822203Y-83572500D01*
X111822200Y-83572501D01*
X111655668Y-83627685D01*
X111655663Y-83627687D01*
X111506342Y-83719789D01*
X111382289Y-83843842D01*
X111290187Y-83993163D01*
X111290185Y-83993168D01*
X111276323Y-84035001D01*
X111235001Y-84159703D01*
X111235001Y-84159704D01*
X111235000Y-84159704D01*
X111224500Y-84262483D01*
X111224500Y-84987501D01*
X111224501Y-84987519D01*
X111235000Y-85090296D01*
X111235001Y-85090299D01*
X111290185Y-85256831D01*
X111290187Y-85256836D01*
X111317119Y-85300500D01*
X111382288Y-85406156D01*
X111506344Y-85530212D01*
X111655666Y-85622314D01*
X111764505Y-85658379D01*
X111784536Y-85672249D01*
X111806703Y-85682372D01*
X111812751Y-85691784D01*
X111821949Y-85698152D01*
X111831303Y-85720651D01*
X111844477Y-85741150D01*
X111846935Y-85758250D01*
X111848772Y-85762667D01*
X111849500Y-85776085D01*
X111849500Y-85778130D01*
X111829815Y-85845169D01*
X111777011Y-85890924D01*
X111764505Y-85895836D01*
X111630666Y-85940186D01*
X111630663Y-85940187D01*
X111481342Y-86032289D01*
X111357289Y-86156342D01*
X111265187Y-86305663D01*
X111265186Y-86305666D01*
X111210001Y-86472203D01*
X111210001Y-86472204D01*
X111210000Y-86472204D01*
X111199500Y-86574983D01*
X108457916Y-86574983D01*
X108386439Y-86355001D01*
X108275676Y-86137619D01*
X108208456Y-86045097D01*
X108208454Y-86045096D01*
X107473787Y-86779764D01*
X107462518Y-86737708D01*
X107390110Y-86612292D01*
X107287708Y-86509890D01*
X107162292Y-86437482D01*
X107120232Y-86426212D01*
X107783901Y-85762544D01*
X107798684Y-85749917D01*
X107951577Y-85638834D01*
X107960079Y-85632658D01*
X107960079Y-85632657D01*
X107960083Y-85632655D01*
X108132655Y-85460083D01*
X108276106Y-85262639D01*
X108386904Y-85045185D01*
X108462321Y-84813076D01*
X108500500Y-84572027D01*
X108500500Y-84327973D01*
X108462321Y-84086924D01*
X108462314Y-84086904D01*
X108461520Y-84083592D01*
X108461585Y-84082279D01*
X108461559Y-84082112D01*
X108461594Y-84082106D01*
X108465006Y-84013810D01*
X108494409Y-83966957D01*
X109974548Y-82486819D01*
X110035871Y-82453334D01*
X110062229Y-82450500D01*
X111300270Y-82450500D01*
X111367309Y-82470185D01*
X111387951Y-82486819D01*
X111506344Y-82605212D01*
X111655666Y-82697314D01*
X111822203Y-82752499D01*
X111924991Y-82763000D01*
X113275008Y-82762999D01*
X113377797Y-82752499D01*
X113544334Y-82697314D01*
X113693656Y-82605212D01*
X113817712Y-82481156D01*
X113909814Y-82331834D01*
X113964999Y-82165297D01*
X113975500Y-82062509D01*
X113975499Y-81337492D01*
X113966612Y-81250498D01*
X113964999Y-81234703D01*
X113964998Y-81234700D01*
X113948467Y-81184812D01*
X113909814Y-81068166D01*
X113817712Y-80918844D01*
X113693656Y-80794788D01*
X113544334Y-80702686D01*
X113377797Y-80647501D01*
X113377795Y-80647500D01*
X113275010Y-80637000D01*
X111924998Y-80637000D01*
X111924981Y-80637001D01*
X111822203Y-80647500D01*
X111822200Y-80647501D01*
X111655668Y-80702685D01*
X111655663Y-80702687D01*
X111506342Y-80794789D01*
X111387951Y-80913181D01*
X111326628Y-80946666D01*
X111300270Y-80949500D01*
X109626080Y-80949500D01*
X109481092Y-80978340D01*
X109481082Y-80978343D01*
X109344511Y-81034912D01*
X109344498Y-81034919D01*
X109221584Y-81117048D01*
X109221580Y-81117051D01*
X107433043Y-82905587D01*
X107371720Y-82939072D01*
X107316427Y-82938483D01*
X107313075Y-82937678D01*
X107096663Y-82903402D01*
X107072027Y-82899500D01*
X106827973Y-82899500D01*
X106789542Y-82905587D01*
X106586927Y-82937678D01*
X106582637Y-82939072D01*
X106441529Y-82984921D01*
X106354812Y-83013097D01*
X106137357Y-83123896D01*
X105939923Y-83267339D01*
X105939918Y-83267343D01*
X105767343Y-83439918D01*
X105767339Y-83439923D01*
X105623896Y-83637357D01*
X105513097Y-83854812D01*
X105437678Y-84086927D01*
X105404805Y-84294477D01*
X105399500Y-84327973D01*
X100500500Y-84327973D01*
X100500500Y-79149986D01*
X121675001Y-79149986D01*
X121685494Y-79252697D01*
X121740641Y-79419119D01*
X121740643Y-79419124D01*
X121832684Y-79568345D01*
X121956654Y-79692315D01*
X122105875Y-79784356D01*
X122105880Y-79784358D01*
X122272302Y-79839505D01*
X122272309Y-79839506D01*
X122375019Y-79849999D01*
X122499999Y-79849999D01*
X122500000Y-79849998D01*
X122500000Y-78700000D01*
X121675001Y-78700000D01*
X121675001Y-79149986D01*
X100500500Y-79149986D01*
X100500500Y-76224986D01*
X118725001Y-76224986D01*
X118735494Y-76327697D01*
X118790641Y-76494119D01*
X118790643Y-76494124D01*
X118882684Y-76643345D01*
X119006654Y-76767315D01*
X119155875Y-76859356D01*
X119155880Y-76859358D01*
X119322302Y-76914505D01*
X119322309Y-76914506D01*
X119425019Y-76924999D01*
X119537499Y-76924999D01*
X119537500Y-76924998D01*
X119537500Y-75800000D01*
X118725001Y-75800000D01*
X118725001Y-76224986D01*
X100500500Y-76224986D01*
X100500500Y-75224986D01*
X110575001Y-75224986D01*
X110585494Y-75327697D01*
X110640641Y-75494119D01*
X110640643Y-75494124D01*
X110732684Y-75643345D01*
X110856654Y-75767315D01*
X111005875Y-75859356D01*
X111005880Y-75859358D01*
X111172302Y-75914505D01*
X111172309Y-75914506D01*
X111275019Y-75924999D01*
X111699999Y-75924999D01*
X112200000Y-75924999D01*
X112624972Y-75924999D01*
X112624986Y-75924998D01*
X112727697Y-75914505D01*
X112894119Y-75859358D01*
X112894124Y-75859356D01*
X113043345Y-75767315D01*
X113167315Y-75643345D01*
X113259356Y-75494124D01*
X113259359Y-75494117D01*
X113305222Y-75355711D01*
X113344994Y-75298266D01*
X113409510Y-75271442D01*
X113478286Y-75283757D01*
X113529486Y-75331299D01*
X113540634Y-75355709D01*
X113590642Y-75506621D01*
X113590643Y-75506624D01*
X113682684Y-75655845D01*
X113806654Y-75779815D01*
X113955875Y-75871856D01*
X113955880Y-75871858D01*
X114122302Y-75927005D01*
X114122309Y-75927006D01*
X114225019Y-75937499D01*
X114649999Y-75937499D01*
X115150000Y-75937499D01*
X115574972Y-75937499D01*
X115574986Y-75937498D01*
X115677697Y-75927005D01*
X115844119Y-75871858D01*
X115844124Y-75871856D01*
X115993345Y-75779815D01*
X116112204Y-75660957D01*
X116117315Y-75655845D01*
X116209356Y-75506624D01*
X116209358Y-75506619D01*
X116264505Y-75340197D01*
X116264506Y-75340190D01*
X116274999Y-75237486D01*
X116275000Y-75237473D01*
X116275000Y-75125000D01*
X115150000Y-75125000D01*
X115150000Y-75937499D01*
X114649999Y-75937499D01*
X114650000Y-75937498D01*
X114650000Y-75125000D01*
X113525000Y-75125000D01*
X113518930Y-75131070D01*
X113457607Y-75164555D01*
X113387915Y-75159569D01*
X113343569Y-75131069D01*
X113325000Y-75112500D01*
X112200000Y-75112500D01*
X112200000Y-75924999D01*
X111699999Y-75924999D01*
X111700000Y-75924998D01*
X111700000Y-75112500D01*
X110575001Y-75112500D01*
X110575001Y-75224986D01*
X100500500Y-75224986D01*
X100500500Y-74875013D01*
X118725000Y-74875013D01*
X118725000Y-75300000D01*
X119537500Y-75300000D01*
X119537500Y-74175000D01*
X119425027Y-74175000D01*
X119425012Y-74175001D01*
X119322302Y-74185494D01*
X119155880Y-74240641D01*
X119155875Y-74240643D01*
X119006654Y-74332684D01*
X118882684Y-74456654D01*
X118790643Y-74605875D01*
X118790641Y-74605880D01*
X118735494Y-74772302D01*
X118735493Y-74772309D01*
X118725000Y-74875013D01*
X100500500Y-74875013D01*
X100500500Y-66752014D01*
X101570000Y-66752014D01*
X101570000Y-66987985D01*
X101600799Y-67221914D01*
X101661870Y-67449837D01*
X101752160Y-67667819D01*
X101752165Y-67667828D01*
X101870144Y-67872171D01*
X101870145Y-67872172D01*
X101932721Y-67953723D01*
X102654152Y-67232292D01*
X102661049Y-67248942D01*
X102748599Y-67379970D01*
X102860030Y-67491401D01*
X102991058Y-67578951D01*
X103007706Y-67585846D01*
X102286275Y-68307277D01*
X102367827Y-68369854D01*
X102367828Y-68369855D01*
X102572171Y-68487834D01*
X102572180Y-68487839D01*
X102790163Y-68578129D01*
X102790161Y-68578129D01*
X103018085Y-68639200D01*
X103252014Y-68669999D01*
X103252029Y-68670000D01*
X103487971Y-68670000D01*
X103487985Y-68669999D01*
X103721914Y-68639200D01*
X103949837Y-68578129D01*
X104167819Y-68487839D01*
X104167828Y-68487834D01*
X104243602Y-68444086D01*
X104311502Y-68427613D01*
X104377529Y-68450465D01*
X104420720Y-68505386D01*
X104427362Y-68574939D01*
X104420164Y-68598925D01*
X104348842Y-68771111D01*
X104348842Y-68771112D01*
X104330309Y-68840281D01*
X104297682Y-68962049D01*
X104289453Y-68992759D01*
X104289451Y-68992770D01*
X104259500Y-69220258D01*
X104259500Y-69449741D01*
X104282088Y-69621303D01*
X104289452Y-69677238D01*
X104317297Y-69781157D01*
X104348842Y-69898887D01*
X104436650Y-70110876D01*
X104436657Y-70110890D01*
X104447972Y-70130488D01*
X104527886Y-70268904D01*
X104531315Y-70274842D01*
X104547788Y-70342742D01*
X104524935Y-70408769D01*
X104470014Y-70451960D01*
X104400461Y-70458601D01*
X104361928Y-70444229D01*
X104167835Y-70332168D01*
X104167819Y-70332160D01*
X103949836Y-70241870D01*
X103949838Y-70241870D01*
X103721914Y-70180799D01*
X103487985Y-70150000D01*
X103252014Y-70150000D01*
X103018085Y-70180799D01*
X102790162Y-70241870D01*
X102572180Y-70332160D01*
X102572171Y-70332165D01*
X102367828Y-70450144D01*
X102367818Y-70450150D01*
X102286275Y-70512720D01*
X102286275Y-70512721D01*
X103007706Y-71234152D01*
X102991058Y-71241049D01*
X102860030Y-71328599D01*
X102748599Y-71440030D01*
X102661049Y-71571058D01*
X102654152Y-71587706D01*
X101932721Y-70866275D01*
X101932720Y-70866275D01*
X101870150Y-70947818D01*
X101870144Y-70947828D01*
X101752165Y-71152171D01*
X101752160Y-71152180D01*
X101661870Y-71370162D01*
X101600799Y-71598085D01*
X101570000Y-71832014D01*
X101570000Y-72067985D01*
X101600799Y-72301914D01*
X101661870Y-72529837D01*
X101752160Y-72747819D01*
X101752165Y-72747828D01*
X101870144Y-72952171D01*
X101870145Y-72952172D01*
X101932721Y-73033723D01*
X102654152Y-72312292D01*
X102661049Y-72328942D01*
X102748599Y-72459970D01*
X102860030Y-72571401D01*
X102991058Y-72658951D01*
X103007706Y-72665846D01*
X102286275Y-73387277D01*
X102367827Y-73449854D01*
X102367828Y-73449855D01*
X102572171Y-73567834D01*
X102572180Y-73567839D01*
X102790163Y-73658129D01*
X102790161Y-73658129D01*
X103018085Y-73719200D01*
X103252014Y-73749999D01*
X103252029Y-73750000D01*
X103487971Y-73750000D01*
X103487985Y-73749999D01*
X103721914Y-73719200D01*
X103949837Y-73658129D01*
X104167819Y-73567839D01*
X104167828Y-73567834D01*
X104372181Y-73449850D01*
X104453723Y-73387279D01*
X104453723Y-73387276D01*
X103732293Y-72665847D01*
X103748942Y-72658951D01*
X103879970Y-72571401D01*
X103991401Y-72459970D01*
X104078951Y-72328942D01*
X104085847Y-72312293D01*
X104807276Y-73033723D01*
X104807279Y-73033723D01*
X104869850Y-72952181D01*
X104987834Y-72747828D01*
X104987839Y-72747819D01*
X105078129Y-72529837D01*
X105139200Y-72301914D01*
X105169999Y-72067985D01*
X105170000Y-72067971D01*
X105170000Y-71832028D01*
X105169999Y-71832014D01*
X105139200Y-71598085D01*
X105078129Y-71370162D01*
X104987839Y-71152180D01*
X104987834Y-71152171D01*
X104884920Y-70973921D01*
X104868447Y-70906021D01*
X104891299Y-70839994D01*
X104946220Y-70796803D01*
X105015773Y-70790161D01*
X105054302Y-70804531D01*
X105234112Y-70908344D01*
X105234117Y-70908346D01*
X105234123Y-70908349D01*
X105318807Y-70943426D01*
X105446113Y-70996158D01*
X105667762Y-71055548D01*
X105895266Y-71085500D01*
X105895273Y-71085500D01*
X106124727Y-71085500D01*
X106124734Y-71085500D01*
X106352238Y-71055548D01*
X106573887Y-70996158D01*
X106694247Y-70946302D01*
X106763714Y-70938834D01*
X106826194Y-70970109D01*
X106861846Y-71030198D01*
X106859353Y-71100023D01*
X106849086Y-71122863D01*
X106832166Y-71152169D01*
X106832160Y-71152180D01*
X106741870Y-71370162D01*
X106680799Y-71598085D01*
X106650000Y-71832014D01*
X106650000Y-72067985D01*
X106680799Y-72301914D01*
X106741870Y-72529837D01*
X106832160Y-72747819D01*
X106832165Y-72747828D01*
X106950144Y-72952171D01*
X106950145Y-72952172D01*
X107012721Y-73033723D01*
X107734152Y-72312292D01*
X107741049Y-72328942D01*
X107828599Y-72459970D01*
X107940030Y-72571401D01*
X108071058Y-72658951D01*
X108087706Y-72665846D01*
X107366275Y-73387277D01*
X107447827Y-73449854D01*
X107447828Y-73449855D01*
X107652171Y-73567834D01*
X107652180Y-73567839D01*
X107870163Y-73658129D01*
X107870161Y-73658129D01*
X108098085Y-73719200D01*
X108332014Y-73749999D01*
X108332029Y-73750000D01*
X108567971Y-73750000D01*
X108567985Y-73749999D01*
X108801914Y-73719200D01*
X109029837Y-73658129D01*
X109247819Y-73567839D01*
X109247828Y-73567834D01*
X109452181Y-73449850D01*
X109533723Y-73387279D01*
X109533723Y-73387276D01*
X108812293Y-72665847D01*
X108828942Y-72658951D01*
X108959970Y-72571401D01*
X109071401Y-72459970D01*
X109158951Y-72328942D01*
X109165846Y-72312293D01*
X109887276Y-73033723D01*
X109887279Y-73033723D01*
X109949850Y-72952181D01*
X110067834Y-72747828D01*
X110067839Y-72747819D01*
X110158129Y-72529837D01*
X110219200Y-72301914D01*
X110249999Y-72067985D01*
X110250000Y-72067971D01*
X110250000Y-71832028D01*
X110249999Y-71832014D01*
X110219200Y-71598085D01*
X110158129Y-71370162D01*
X110067839Y-71152180D01*
X110067834Y-71152171D01*
X109949855Y-70947828D01*
X109949854Y-70947827D01*
X109887277Y-70866275D01*
X109165846Y-71587705D01*
X109158951Y-71571058D01*
X109071401Y-71440030D01*
X108959970Y-71328599D01*
X108828942Y-71241049D01*
X108812292Y-71234152D01*
X109549626Y-70496819D01*
X109610949Y-70463334D01*
X109637307Y-70460500D01*
X111075500Y-70460500D01*
X111084185Y-70463050D01*
X111093147Y-70461762D01*
X111117187Y-70472740D01*
X111142539Y-70480185D01*
X111148466Y-70487025D01*
X111156703Y-70490787D01*
X111170992Y-70513021D01*
X111188294Y-70532989D01*
X111190581Y-70543503D01*
X111194477Y-70549565D01*
X111199500Y-70584500D01*
X111199500Y-70786414D01*
X111179815Y-70853453D01*
X111127011Y-70899208D01*
X111114505Y-70904120D01*
X111005666Y-70940186D01*
X111005663Y-70940187D01*
X110856342Y-71032289D01*
X110732289Y-71156342D01*
X110640187Y-71305663D01*
X110640185Y-71305668D01*
X110616103Y-71378343D01*
X110585001Y-71472203D01*
X110585001Y-71472204D01*
X110585000Y-71472204D01*
X110574500Y-71574983D01*
X110574500Y-72300001D01*
X110574501Y-72300019D01*
X110585000Y-72402796D01*
X110585001Y-72402799D01*
X110640185Y-72569331D01*
X110640187Y-72569336D01*
X110648420Y-72582684D01*
X110732288Y-72718656D01*
X110856344Y-72842712D01*
X110973550Y-72915005D01*
X110981096Y-72919659D01*
X111027821Y-72971607D01*
X111040000Y-73025198D01*
X111040000Y-73775388D01*
X111020315Y-73842427D01*
X110981097Y-73880926D01*
X110856659Y-73957680D01*
X110856655Y-73957683D01*
X110732684Y-74081654D01*
X110640643Y-74230875D01*
X110640641Y-74230880D01*
X110585494Y-74397302D01*
X110585493Y-74397309D01*
X110575000Y-74500013D01*
X110575000Y-74612500D01*
X113324998Y-74612500D01*
X113331067Y-74606431D01*
X113392389Y-74572945D01*
X113462081Y-74577929D01*
X113506430Y-74606430D01*
X113525000Y-74625000D01*
X116274999Y-74625000D01*
X116274999Y-74512528D01*
X116274998Y-74512513D01*
X116264505Y-74409802D01*
X116209358Y-74243380D01*
X116209356Y-74243375D01*
X116117315Y-74094154D01*
X115993344Y-73970183D01*
X115993340Y-73970180D01*
X115868903Y-73893426D01*
X115822178Y-73841478D01*
X115810000Y-73787888D01*
X115810000Y-73037698D01*
X115829685Y-72970659D01*
X115868904Y-72932159D01*
X115876440Y-72927511D01*
X115993656Y-72855212D01*
X116117712Y-72731156D01*
X116209814Y-72581834D01*
X116236700Y-72500697D01*
X116276471Y-72443253D01*
X116340987Y-72416430D01*
X116409763Y-72428745D01*
X116460963Y-72476288D01*
X116472111Y-72500698D01*
X116490641Y-72556619D01*
X116490643Y-72556624D01*
X116582684Y-72705845D01*
X116706654Y-72829815D01*
X116855875Y-72921856D01*
X116855880Y-72921858D01*
X117022302Y-72977005D01*
X117022309Y-72977006D01*
X117125019Y-72987499D01*
X117549999Y-72987499D01*
X118050000Y-72987499D01*
X118474972Y-72987499D01*
X118474986Y-72987498D01*
X118577697Y-72977005D01*
X118744119Y-72921858D01*
X118744124Y-72921856D01*
X118893345Y-72829815D01*
X119017315Y-72705845D01*
X119109356Y-72556624D01*
X119109358Y-72556619D01*
X119164505Y-72390197D01*
X119164506Y-72390190D01*
X119174999Y-72287486D01*
X119175000Y-72287473D01*
X119175000Y-72175000D01*
X118050000Y-72175000D01*
X118050000Y-72987499D01*
X117549999Y-72987499D01*
X117550000Y-72987498D01*
X117550000Y-72049000D01*
X117569685Y-71981961D01*
X117622489Y-71936206D01*
X117674000Y-71925000D01*
X117800000Y-71925000D01*
X117800000Y-71799000D01*
X117819685Y-71731961D01*
X117872489Y-71686206D01*
X117924000Y-71675000D01*
X119174999Y-71675000D01*
X119174999Y-71562528D01*
X119174998Y-71562513D01*
X119164505Y-71459802D01*
X119109358Y-71293380D01*
X119109356Y-71293375D01*
X119017315Y-71144154D01*
X118893344Y-71020183D01*
X118893340Y-71020180D01*
X118768903Y-70943426D01*
X118722178Y-70891478D01*
X118710000Y-70837888D01*
X118710000Y-70087698D01*
X118729685Y-70020659D01*
X118768904Y-69982159D01*
X118780496Y-69975009D01*
X118893656Y-69905212D01*
X119012049Y-69786819D01*
X119073372Y-69753334D01*
X119099730Y-69750500D01*
X119173920Y-69750500D01*
X119271462Y-69731096D01*
X119318913Y-69721658D01*
X119455495Y-69665084D01*
X119512737Y-69626836D01*
X119578416Y-69582952D01*
X119617990Y-69543377D01*
X119623735Y-69538849D01*
X119649638Y-69528443D01*
X119674140Y-69515064D01*
X119681614Y-69515598D01*
X119688569Y-69512805D01*
X119715990Y-69518056D01*
X119743832Y-69520048D01*
X119749830Y-69524538D01*
X119757192Y-69525948D01*
X119777420Y-69545190D01*
X119799766Y-69561918D01*
X119802385Y-69568939D01*
X119807815Y-69574105D01*
X119814427Y-69601225D01*
X119824184Y-69627382D01*
X119824500Y-69636230D01*
X119824500Y-69848918D01*
X119824500Y-69848920D01*
X119824499Y-69848920D01*
X119853340Y-69993907D01*
X119853343Y-69993917D01*
X119909912Y-70130488D01*
X119909916Y-70130495D01*
X119931001Y-70162051D01*
X119992048Y-70253416D01*
X120067663Y-70329031D01*
X120071659Y-70333939D01*
X120082835Y-70360541D01*
X120096666Y-70385871D01*
X120097763Y-70396074D01*
X120098721Y-70398355D01*
X120098279Y-70400875D01*
X120099500Y-70412230D01*
X120099500Y-71680170D01*
X120094576Y-71714765D01*
X120052402Y-71859926D01*
X120052401Y-71859932D01*
X120049500Y-71896798D01*
X120049500Y-73053201D01*
X120052401Y-73090067D01*
X120052402Y-73090073D01*
X120098254Y-73247893D01*
X120098255Y-73247896D01*
X120181917Y-73389362D01*
X120181923Y-73389370D01*
X120298129Y-73505576D01*
X120298133Y-73505579D01*
X120298135Y-73505581D01*
X120341272Y-73531092D01*
X120439600Y-73589243D01*
X120446764Y-73592343D01*
X120445544Y-73595160D01*
X120492388Y-73625053D01*
X120521617Y-73688515D01*
X120522936Y-73706556D01*
X120522936Y-74103322D01*
X120503251Y-74170361D01*
X120450447Y-74216116D01*
X120381289Y-74226060D01*
X120359933Y-74221028D01*
X120252700Y-74185495D01*
X120252690Y-74185493D01*
X120149986Y-74175000D01*
X120037500Y-74175000D01*
X120037500Y-76924999D01*
X120149972Y-76924999D01*
X120149986Y-76924998D01*
X120252697Y-76914505D01*
X120419119Y-76859358D01*
X120419124Y-76859356D01*
X120568345Y-76767315D01*
X120692315Y-76643345D01*
X120769072Y-76518903D01*
X120821020Y-76472179D01*
X120874611Y-76460000D01*
X121624802Y-76460000D01*
X121691841Y-76479685D01*
X121730340Y-76518903D01*
X121807288Y-76643656D01*
X121931344Y-76767712D01*
X122080666Y-76859814D01*
X122124078Y-76874199D01*
X122181523Y-76913972D01*
X122208346Y-76978488D01*
X122196031Y-77047264D01*
X122148488Y-77098463D01*
X122124080Y-77109610D01*
X122105884Y-77115639D01*
X122105875Y-77115643D01*
X121956654Y-77207684D01*
X121832684Y-77331654D01*
X121740643Y-77480875D01*
X121740641Y-77480880D01*
X121685494Y-77647302D01*
X121685493Y-77647309D01*
X121675000Y-77750013D01*
X121675000Y-78200000D01*
X122626000Y-78200000D01*
X122693039Y-78219685D01*
X122738794Y-78272489D01*
X122750000Y-78324000D01*
X122750000Y-78450000D01*
X122876000Y-78450000D01*
X122943039Y-78469685D01*
X122988794Y-78522489D01*
X123000000Y-78574000D01*
X123000000Y-79849999D01*
X123124972Y-79849999D01*
X123124986Y-79849998D01*
X123227697Y-79839505D01*
X123394119Y-79784358D01*
X123394124Y-79784356D01*
X123543345Y-79692315D01*
X123667316Y-79568344D01*
X123667319Y-79568340D01*
X123759494Y-79418903D01*
X123811441Y-79372178D01*
X123865032Y-79360000D01*
X124584382Y-79360000D01*
X124651421Y-79379685D01*
X124689921Y-79418904D01*
X124690185Y-79419333D01*
X124690186Y-79419334D01*
X124724048Y-79474233D01*
X124782287Y-79568655D01*
X124888450Y-79674818D01*
X124921935Y-79736141D01*
X124916951Y-79805833D01*
X124888450Y-79850180D01*
X123900449Y-80838181D01*
X123839126Y-80871666D01*
X123812768Y-80874500D01*
X123149998Y-80874500D01*
X123149980Y-80874501D01*
X123047203Y-80885000D01*
X123047200Y-80885001D01*
X122880668Y-80940185D01*
X122880663Y-80940187D01*
X122731342Y-81032289D01*
X122607289Y-81156342D01*
X122515187Y-81305663D01*
X122515185Y-81305668D01*
X122504300Y-81338517D01*
X122460001Y-81472203D01*
X122460001Y-81472204D01*
X122460000Y-81472204D01*
X122449500Y-81574983D01*
X122449500Y-82225001D01*
X122449501Y-82225019D01*
X122460000Y-82327796D01*
X122460001Y-82327799D01*
X122515185Y-82494331D01*
X122515187Y-82494336D01*
X122523456Y-82507742D01*
X122607288Y-82643656D01*
X122731344Y-82767712D01*
X122880666Y-82859814D01*
X123047203Y-82914999D01*
X123149991Y-82925500D01*
X124650008Y-82925499D01*
X124752797Y-82914999D01*
X124919334Y-82859814D01*
X125068656Y-82767712D01*
X125192712Y-82643656D01*
X125284814Y-82494334D01*
X125339999Y-82327797D01*
X125350500Y-82225009D01*
X125350499Y-81574992D01*
X125350498Y-81574983D01*
X125350338Y-81571835D01*
X125351228Y-81571789D01*
X125363297Y-81506766D01*
X125386217Y-81475148D01*
X126282951Y-80578416D01*
X126365084Y-80455495D01*
X126421658Y-80318913D01*
X126441574Y-80218792D01*
X126450500Y-80173920D01*
X126450500Y-79786867D01*
X126470185Y-79719828D01*
X126489386Y-79698656D01*
X126488549Y-79697819D01*
X126549120Y-79637248D01*
X126617712Y-79568656D01*
X126709814Y-79419334D01*
X126764999Y-79252797D01*
X126775500Y-79150009D01*
X126775499Y-77749992D01*
X126764999Y-77647203D01*
X126709814Y-77480666D01*
X126709813Y-77480664D01*
X126707542Y-77473811D01*
X126709364Y-77473207D01*
X126700500Y-77433202D01*
X126700500Y-76272889D01*
X126720185Y-76205850D01*
X126736819Y-76185208D01*
X126785852Y-76136175D01*
X126844517Y-76077510D01*
X126983343Y-75886433D01*
X127090568Y-75675992D01*
X127163553Y-75451368D01*
X127163658Y-75450704D01*
X127200500Y-75218097D01*
X127200500Y-74981902D01*
X127163553Y-74748631D01*
X127108088Y-74577929D01*
X127090568Y-74524008D01*
X127090566Y-74524005D01*
X127090566Y-74524003D01*
X127014874Y-74375451D01*
X126983343Y-74313567D01*
X126844517Y-74122490D01*
X126677510Y-73955483D01*
X126486433Y-73816657D01*
X126429971Y-73787888D01*
X126275996Y-73709433D01*
X126051368Y-73636446D01*
X125818097Y-73599500D01*
X125818092Y-73599500D01*
X125581908Y-73599500D01*
X125581903Y-73599500D01*
X125348631Y-73636446D01*
X125124003Y-73709433D01*
X124913566Y-73816657D01*
X124807904Y-73893426D01*
X124722490Y-73955483D01*
X124722488Y-73955485D01*
X124722487Y-73955485D01*
X124555485Y-74122487D01*
X124555485Y-74122488D01*
X124555483Y-74122490D01*
X124507240Y-74188891D01*
X124416657Y-74313566D01*
X124309433Y-74524003D01*
X124236446Y-74748631D01*
X124199500Y-74981902D01*
X124199500Y-75218097D01*
X124236446Y-75451368D01*
X124309433Y-75675996D01*
X124409230Y-75871856D01*
X124416657Y-75886433D01*
X124555483Y-76077510D01*
X124555485Y-76077512D01*
X124663181Y-76185208D01*
X124696666Y-76246531D01*
X124699500Y-76272889D01*
X124699500Y-77416000D01*
X124679815Y-77483039D01*
X124627011Y-77528794D01*
X124575500Y-77540000D01*
X123865032Y-77540000D01*
X123797993Y-77520315D01*
X123759494Y-77481097D01*
X123667319Y-77331659D01*
X123667316Y-77331655D01*
X123543345Y-77207684D01*
X123394124Y-77115643D01*
X123394121Y-77115642D01*
X123338419Y-77097184D01*
X123280974Y-77057411D01*
X123254152Y-76992894D01*
X123266467Y-76924119D01*
X123314011Y-76872919D01*
X123338418Y-76861774D01*
X123344334Y-76859814D01*
X123493656Y-76767712D01*
X123617712Y-76643656D01*
X123709814Y-76494334D01*
X123764999Y-76327797D01*
X123775500Y-76225009D01*
X123775499Y-74874992D01*
X123764999Y-74772203D01*
X123709814Y-74605666D01*
X123617712Y-74456344D01*
X123536819Y-74375451D01*
X123503334Y-74314128D01*
X123500500Y-74287770D01*
X123500500Y-73269828D01*
X123505424Y-73235233D01*
X123547597Y-73090073D01*
X123547598Y-73090067D01*
X123550499Y-73053201D01*
X123550500Y-73053194D01*
X123550500Y-71896806D01*
X123547598Y-71859931D01*
X123543680Y-71846446D01*
X123506279Y-71717712D01*
X123501744Y-71702102D01*
X123418081Y-71560635D01*
X123418079Y-71560633D01*
X123418076Y-71560629D01*
X123301870Y-71444423D01*
X123301862Y-71444417D01*
X123223681Y-71398181D01*
X123160398Y-71360756D01*
X123160397Y-71360755D01*
X123160396Y-71360755D01*
X123160393Y-71360754D01*
X123002573Y-71314902D01*
X123002567Y-71314901D01*
X122965701Y-71312000D01*
X122965694Y-71312000D01*
X122567895Y-71312000D01*
X122500856Y-71292315D01*
X122455101Y-71239511D01*
X122445157Y-71170353D01*
X122465671Y-71122003D01*
X122464110Y-71121080D01*
X122502866Y-71055546D01*
X122551744Y-70972898D01*
X122592932Y-70831128D01*
X122597597Y-70815073D01*
X122597598Y-70815067D01*
X122598427Y-70804533D01*
X122600500Y-70778194D01*
X122600500Y-70512229D01*
X122620185Y-70445190D01*
X122636819Y-70424548D01*
X123174548Y-69886819D01*
X123235871Y-69853334D01*
X123262229Y-69850500D01*
X124327369Y-69850500D01*
X124394408Y-69870185D01*
X124427685Y-69901613D01*
X124555483Y-70077510D01*
X124722490Y-70244517D01*
X124913567Y-70383343D01*
X124997455Y-70426086D01*
X125124003Y-70490566D01*
X125124005Y-70490566D01*
X125124008Y-70490568D01*
X125221346Y-70522195D01*
X125348631Y-70563553D01*
X125581903Y-70600500D01*
X125581908Y-70600500D01*
X125818097Y-70600500D01*
X126051368Y-70563553D01*
X126095563Y-70549193D01*
X126275992Y-70490568D01*
X126486433Y-70383343D01*
X126677510Y-70244517D01*
X126844517Y-70077510D01*
X126983343Y-69886433D01*
X127090568Y-69675992D01*
X127163553Y-69451368D01*
X127184662Y-69318092D01*
X127200500Y-69218097D01*
X127200500Y-68981902D01*
X127163553Y-68748631D01*
X127108153Y-68578129D01*
X127090568Y-68524008D01*
X127090566Y-68524005D01*
X127090566Y-68524003D01*
X127028691Y-68402567D01*
X126983343Y-68313567D01*
X126844517Y-68122490D01*
X126677510Y-67955483D01*
X126486433Y-67816657D01*
X126472253Y-67809432D01*
X126275996Y-67709433D01*
X126051368Y-67636446D01*
X125818097Y-67599500D01*
X125818092Y-67599500D01*
X125581908Y-67599500D01*
X125581903Y-67599500D01*
X125348631Y-67636446D01*
X125124003Y-67709433D01*
X124913566Y-67816657D01*
X124831353Y-67876389D01*
X124722490Y-67955483D01*
X124722488Y-67955485D01*
X124722487Y-67955485D01*
X124555485Y-68122487D01*
X124555485Y-68122488D01*
X124555483Y-68122490D01*
X124443217Y-68277011D01*
X124427687Y-68298386D01*
X124372357Y-68341051D01*
X124327369Y-68349500D01*
X123724500Y-68349500D01*
X123715814Y-68346949D01*
X123706853Y-68348238D01*
X123682812Y-68337259D01*
X123657461Y-68329815D01*
X123651533Y-68322974D01*
X123643297Y-68319213D01*
X123629007Y-68296978D01*
X123611706Y-68277011D01*
X123609418Y-68266496D01*
X123605523Y-68260435D01*
X123600500Y-68225500D01*
X123600500Y-68035718D01*
X123620185Y-67968679D01*
X123661380Y-67928986D01*
X123764358Y-67868085D01*
X123764357Y-67868085D01*
X123764365Y-67868081D01*
X123880581Y-67751865D01*
X123964244Y-67610398D01*
X124000701Y-67484915D01*
X124010097Y-67452573D01*
X124010098Y-67452567D01*
X124010313Y-67449834D01*
X124013000Y-67415694D01*
X124013000Y-66984306D01*
X124010098Y-66947431D01*
X124009870Y-66946647D01*
X123967338Y-66800253D01*
X123964244Y-66789602D01*
X123880581Y-66648135D01*
X123880579Y-66648133D01*
X123880576Y-66648129D01*
X123764370Y-66531923D01*
X123764361Y-66531916D01*
X123661379Y-66471013D01*
X123613695Y-66419944D01*
X123600500Y-66364281D01*
X123600500Y-66174986D01*
X134812501Y-66174986D01*
X134822994Y-66277697D01*
X134878141Y-66444119D01*
X134878143Y-66444124D01*
X134970184Y-66593345D01*
X135094154Y-66717315D01*
X135243375Y-66809356D01*
X135243380Y-66809358D01*
X135409802Y-66864505D01*
X135409809Y-66864506D01*
X135512519Y-66874999D01*
X135624999Y-66874999D01*
X135625000Y-66874998D01*
X135625000Y-65750000D01*
X134812501Y-65750000D01*
X134812501Y-66174986D01*
X123600500Y-66174986D01*
X123600500Y-64949499D01*
X123620185Y-64882460D01*
X123672989Y-64836705D01*
X123724500Y-64825499D01*
X123812502Y-64825499D01*
X123812508Y-64825499D01*
X123817266Y-64825013D01*
X134812500Y-64825013D01*
X134812500Y-65250000D01*
X135625000Y-65250000D01*
X135625000Y-64125000D01*
X135512527Y-64125000D01*
X135512512Y-64125001D01*
X135409802Y-64135494D01*
X135243380Y-64190641D01*
X135243375Y-64190643D01*
X135094154Y-64282684D01*
X134970184Y-64406654D01*
X134878143Y-64555875D01*
X134878141Y-64555880D01*
X134822994Y-64722302D01*
X134822993Y-64722309D01*
X134812500Y-64825013D01*
X123817266Y-64825013D01*
X123915297Y-64814999D01*
X124081834Y-64759814D01*
X124231156Y-64667712D01*
X124355212Y-64543656D01*
X124447314Y-64394334D01*
X124502499Y-64227797D01*
X124513000Y-64125009D01*
X124512999Y-62774992D01*
X124502499Y-62672203D01*
X124447314Y-62505666D01*
X124355212Y-62356344D01*
X124231156Y-62232288D01*
X124081834Y-62140186D01*
X123915297Y-62085001D01*
X123915295Y-62085000D01*
X123812510Y-62074500D01*
X123087498Y-62074500D01*
X123087480Y-62074501D01*
X122984703Y-62085000D01*
X122984700Y-62085001D01*
X122818168Y-62140185D01*
X122818163Y-62140187D01*
X122668842Y-62232289D01*
X122544787Y-62356344D01*
X122467841Y-62481096D01*
X122415893Y-62527821D01*
X122362302Y-62540000D01*
X121612698Y-62540000D01*
X121545659Y-62520315D01*
X121507159Y-62481096D01*
X121430212Y-62356344D01*
X121306157Y-62232289D01*
X121306156Y-62232288D01*
X121156834Y-62140186D01*
X120990297Y-62085001D01*
X120990295Y-62085000D01*
X120887510Y-62074500D01*
X120162498Y-62074500D01*
X120162480Y-62074501D01*
X120059703Y-62085000D01*
X120059700Y-62085001D01*
X119893168Y-62140185D01*
X119893163Y-62140187D01*
X119743842Y-62232289D01*
X119619789Y-62356342D01*
X119527687Y-62505663D01*
X119527685Y-62505668D01*
X119491621Y-62614504D01*
X119477750Y-62634536D01*
X119467628Y-62656703D01*
X119458215Y-62662751D01*
X119451848Y-62671949D01*
X119429348Y-62681303D01*
X119408850Y-62694477D01*
X119391749Y-62696935D01*
X119387333Y-62698772D01*
X119373915Y-62699500D01*
X119361999Y-62699500D01*
X119294960Y-62679815D01*
X119249205Y-62627011D01*
X119237999Y-62575500D01*
X119237999Y-62374998D01*
X119237998Y-62374981D01*
X119227499Y-62272203D01*
X119227498Y-62272200D01*
X119214272Y-62232288D01*
X119172314Y-62105666D01*
X119080212Y-61956344D01*
X118956156Y-61832288D01*
X118806834Y-61740186D01*
X118640297Y-61685001D01*
X118640295Y-61685000D01*
X118537510Y-61674500D01*
X117812498Y-61674500D01*
X117812480Y-61674501D01*
X117709703Y-61685000D01*
X117709700Y-61685001D01*
X117543168Y-61740185D01*
X117543163Y-61740187D01*
X117393842Y-61832289D01*
X117269787Y-61956344D01*
X117192841Y-62081096D01*
X117140893Y-62127821D01*
X117087302Y-62140000D01*
X116337111Y-62140000D01*
X116270072Y-62120315D01*
X116231572Y-62081097D01*
X116154815Y-61956654D01*
X116030845Y-61832684D01*
X115881624Y-61740643D01*
X115881619Y-61740641D01*
X115715197Y-61685494D01*
X115715190Y-61685493D01*
X115612486Y-61675000D01*
X115500000Y-61675000D01*
X115500000Y-64424999D01*
X115612472Y-64424999D01*
X115612486Y-64424998D01*
X115715197Y-64414505D01*
X115881619Y-64359358D01*
X115881624Y-64359356D01*
X116030845Y-64267315D01*
X116154815Y-64143345D01*
X116231572Y-64018903D01*
X116283520Y-63972179D01*
X116337111Y-63960000D01*
X117087302Y-63960000D01*
X117154341Y-63979685D01*
X117192840Y-64018903D01*
X117197268Y-64026082D01*
X117264753Y-64135494D01*
X117269788Y-64143656D01*
X117393844Y-64267712D01*
X117543166Y-64359814D01*
X117709703Y-64414999D01*
X117812491Y-64425500D01*
X118537508Y-64425499D01*
X118537516Y-64425498D01*
X118537519Y-64425498D01*
X118593802Y-64419748D01*
X118640297Y-64414999D01*
X118806834Y-64359814D01*
X118956156Y-64267712D01*
X118987049Y-64236819D01*
X119048372Y-64203334D01*
X119074730Y-64200500D01*
X119373915Y-64200500D01*
X119440954Y-64220185D01*
X119486709Y-64272989D01*
X119491618Y-64285489D01*
X119516096Y-64359358D01*
X119527685Y-64394331D01*
X119527687Y-64394336D01*
X119546600Y-64424999D01*
X119619788Y-64543656D01*
X119743844Y-64667712D01*
X119765594Y-64681127D01*
X119812320Y-64733073D01*
X119824500Y-64786667D01*
X119824500Y-65375500D01*
X119804815Y-65442539D01*
X119752011Y-65488294D01*
X119700500Y-65499500D01*
X119046870Y-65499500D01*
X118979831Y-65479815D01*
X118934076Y-65427011D01*
X118929164Y-65414505D01*
X118904475Y-65340000D01*
X118884814Y-65280666D01*
X118792712Y-65131344D01*
X118668656Y-65007288D01*
X118519334Y-64915186D01*
X118352797Y-64860001D01*
X118352795Y-64860000D01*
X118250010Y-64849500D01*
X117499998Y-64849500D01*
X117499980Y-64849501D01*
X117397203Y-64860000D01*
X117397200Y-64860001D01*
X117230668Y-64915185D01*
X117230663Y-64915187D01*
X117081342Y-65007289D01*
X116957287Y-65131344D01*
X116864921Y-65281096D01*
X116812973Y-65327821D01*
X116759382Y-65340000D01*
X116040618Y-65340000D01*
X115973579Y-65320315D01*
X115935079Y-65281096D01*
X115917234Y-65252165D01*
X115842712Y-65131344D01*
X115718656Y-65007288D01*
X115569334Y-64915186D01*
X115402797Y-64860001D01*
X115402795Y-64860000D01*
X115300010Y-64849500D01*
X114549998Y-64849500D01*
X114549980Y-64849501D01*
X114447203Y-64860000D01*
X114447200Y-64860001D01*
X114280668Y-64915185D01*
X114280663Y-64915187D01*
X114131342Y-65007289D01*
X114007289Y-65131342D01*
X113915187Y-65280663D01*
X113915185Y-65280668D01*
X113899560Y-65327821D01*
X113860001Y-65447203D01*
X113860001Y-65447204D01*
X113860000Y-65447204D01*
X113849500Y-65549983D01*
X113849500Y-66950001D01*
X113849501Y-66950018D01*
X113860000Y-67052796D01*
X113860001Y-67052799D01*
X113915185Y-67219331D01*
X113915187Y-67219336D01*
X113918153Y-67224145D01*
X114007287Y-67368655D01*
X114007289Y-67368657D01*
X114113181Y-67474549D01*
X114146666Y-67535872D01*
X114149500Y-67562230D01*
X114149500Y-68000270D01*
X114129815Y-68067309D01*
X114113181Y-68087951D01*
X113994788Y-68206343D01*
X113994787Y-68206344D01*
X113938885Y-68296978D01*
X113922851Y-68322974D01*
X113917841Y-68331096D01*
X113865893Y-68377821D01*
X113812302Y-68390000D01*
X113062698Y-68390000D01*
X112995659Y-68370315D01*
X112957159Y-68331096D01*
X112952149Y-68322974D01*
X112880212Y-68206344D01*
X112756156Y-68082288D01*
X112648817Y-68016081D01*
X112606836Y-67990187D01*
X112606831Y-67990185D01*
X112605362Y-67989698D01*
X112440297Y-67935001D01*
X112440295Y-67935000D01*
X112337510Y-67924500D01*
X111612498Y-67924500D01*
X111612480Y-67924501D01*
X111509703Y-67935000D01*
X111509700Y-67935001D01*
X111343168Y-67990185D01*
X111343163Y-67990187D01*
X111193842Y-68082289D01*
X111102951Y-68173181D01*
X111041628Y-68206666D01*
X111015270Y-68209500D01*
X109942463Y-68209500D01*
X109875424Y-68189815D01*
X109829669Y-68137011D01*
X109819725Y-68067853D01*
X109844087Y-68010014D01*
X109949849Y-67872180D01*
X109949855Y-67872171D01*
X110067834Y-67667828D01*
X110067839Y-67667819D01*
X110158129Y-67449837D01*
X110219200Y-67221914D01*
X110249999Y-66987985D01*
X110250000Y-66987971D01*
X110250000Y-66752028D01*
X110249999Y-66752014D01*
X110219200Y-66518085D01*
X110158129Y-66290162D01*
X110067839Y-66072180D01*
X110067834Y-66072171D01*
X109949855Y-65867828D01*
X109949854Y-65867827D01*
X109887277Y-65786275D01*
X109165846Y-66507705D01*
X109158951Y-66491058D01*
X109071401Y-66360030D01*
X108959970Y-66248599D01*
X108828942Y-66161049D01*
X108812293Y-66154152D01*
X109533723Y-65432721D01*
X109452172Y-65370145D01*
X109452171Y-65370144D01*
X109247828Y-65252165D01*
X109247819Y-65252160D01*
X109029836Y-65161870D01*
X109029838Y-65161870D01*
X108801914Y-65100799D01*
X108567985Y-65070000D01*
X108332014Y-65070000D01*
X108098085Y-65100799D01*
X107870162Y-65161870D01*
X107652180Y-65252160D01*
X107652171Y-65252165D01*
X107447828Y-65370144D01*
X107447818Y-65370150D01*
X107366275Y-65432720D01*
X107366275Y-65432721D01*
X108087706Y-66154152D01*
X108071058Y-66161049D01*
X107940030Y-66248599D01*
X107828599Y-66360030D01*
X107741049Y-66491058D01*
X107734152Y-66507706D01*
X107012721Y-65786275D01*
X107012720Y-65786275D01*
X106950150Y-65867818D01*
X106950144Y-65867828D01*
X106832165Y-66072171D01*
X106832160Y-66072180D01*
X106741870Y-66290162D01*
X106680799Y-66518085D01*
X106650000Y-66752014D01*
X106650000Y-66987985D01*
X106680799Y-67221914D01*
X106741870Y-67449837D01*
X106774102Y-67527653D01*
X106781571Y-67597123D01*
X106750295Y-67659602D01*
X106690206Y-67695253D01*
X106620381Y-67692759D01*
X106612101Y-67689671D01*
X106573887Y-67673842D01*
X106573885Y-67673841D01*
X106573884Y-67673841D01*
X106486765Y-67650498D01*
X106352238Y-67614452D01*
X106303482Y-67608033D01*
X106124741Y-67584500D01*
X106124734Y-67584500D01*
X105895266Y-67584500D01*
X105895258Y-67584500D01*
X105678715Y-67613009D01*
X105667762Y-67614452D01*
X105585678Y-67636446D01*
X105446112Y-67673842D01*
X105234123Y-67761650D01*
X105234106Y-67761659D01*
X105175696Y-67795381D01*
X105107796Y-67811852D01*
X105041769Y-67788999D01*
X104998580Y-67734077D01*
X104991939Y-67664524D01*
X104999137Y-67640540D01*
X105078130Y-67449834D01*
X105139200Y-67221914D01*
X105169999Y-66987985D01*
X105170000Y-66987971D01*
X105170000Y-66752028D01*
X105169999Y-66752014D01*
X105139200Y-66518085D01*
X105078129Y-66290162D01*
X104987839Y-66072180D01*
X104987834Y-66072171D01*
X104869855Y-65867828D01*
X104869854Y-65867827D01*
X104807277Y-65786275D01*
X104085846Y-66507706D01*
X104078951Y-66491058D01*
X103991401Y-66360030D01*
X103879970Y-66248599D01*
X103748942Y-66161049D01*
X103732293Y-66154152D01*
X104453723Y-65432721D01*
X104372172Y-65370145D01*
X104372171Y-65370144D01*
X104167828Y-65252165D01*
X104167819Y-65252160D01*
X103949836Y-65161870D01*
X103949838Y-65161870D01*
X103721914Y-65100799D01*
X103487985Y-65070000D01*
X103252014Y-65070000D01*
X103018085Y-65100799D01*
X102790162Y-65161870D01*
X102572180Y-65252160D01*
X102572171Y-65252165D01*
X102367828Y-65370144D01*
X102367818Y-65370150D01*
X102286275Y-65432720D01*
X102286275Y-65432721D01*
X103007706Y-66154152D01*
X102991058Y-66161049D01*
X102860030Y-66248599D01*
X102748599Y-66360030D01*
X102661049Y-66491058D01*
X102654152Y-66507706D01*
X101932721Y-65786275D01*
X101932720Y-65786275D01*
X101870150Y-65867818D01*
X101870144Y-65867828D01*
X101752165Y-66072171D01*
X101752160Y-66072180D01*
X101661870Y-66290162D01*
X101600799Y-66518085D01*
X101570000Y-66752014D01*
X100500500Y-66752014D01*
X100500500Y-63724986D01*
X114187501Y-63724986D01*
X114197994Y-63827697D01*
X114253141Y-63994119D01*
X114253143Y-63994124D01*
X114345184Y-64143345D01*
X114469154Y-64267315D01*
X114618375Y-64359356D01*
X114618380Y-64359358D01*
X114784802Y-64414505D01*
X114784809Y-64414506D01*
X114887519Y-64424999D01*
X114999999Y-64424999D01*
X115000000Y-64424998D01*
X115000000Y-63300000D01*
X114187501Y-63300000D01*
X114187501Y-63724986D01*
X100500500Y-63724986D01*
X100500500Y-62375013D01*
X114187500Y-62375013D01*
X114187500Y-62800000D01*
X115000000Y-62800000D01*
X115000000Y-61675000D01*
X114887527Y-61675000D01*
X114887512Y-61675001D01*
X114784802Y-61685494D01*
X114618380Y-61740641D01*
X114618375Y-61740643D01*
X114469154Y-61832684D01*
X114345184Y-61956654D01*
X114253143Y-62105875D01*
X114253141Y-62105880D01*
X114197994Y-62272302D01*
X114197993Y-62272309D01*
X114187500Y-62375013D01*
X100500500Y-62375013D01*
X100500500Y-54814437D01*
X100750000Y-54814437D01*
X100750000Y-55185562D01*
X100782345Y-55555267D01*
X100782345Y-55555271D01*
X100846787Y-55920735D01*
X100846791Y-55920752D01*
X100942837Y-56279206D01*
X101069775Y-56627963D01*
X101226607Y-56964292D01*
X101226615Y-56964307D01*
X101412166Y-57285690D01*
X101412175Y-57285705D01*
X101625040Y-57589707D01*
X101822005Y-57824439D01*
X101822006Y-57824440D01*
X103313098Y-56333348D01*
X103380076Y-56420635D01*
X103579365Y-56619924D01*
X103666650Y-56686900D01*
X102175558Y-58177992D01*
X102175559Y-58177993D01*
X102410292Y-58374959D01*
X102714294Y-58587824D01*
X102714309Y-58587833D01*
X103035692Y-58773384D01*
X103035707Y-58773392D01*
X103372036Y-58930224D01*
X103720793Y-59057162D01*
X104079247Y-59153208D01*
X104079264Y-59153212D01*
X104444730Y-59217654D01*
X104814437Y-59249999D01*
X104814440Y-59250000D01*
X105185560Y-59250000D01*
X105185562Y-59249999D01*
X105555267Y-59217654D01*
X105555271Y-59217654D01*
X105920735Y-59153212D01*
X105920752Y-59153208D01*
X106279206Y-59057162D01*
X106627963Y-58930224D01*
X106964292Y-58773392D01*
X106964307Y-58773384D01*
X107285690Y-58587833D01*
X107285705Y-58587824D01*
X107589700Y-58374964D01*
X107824439Y-58177993D01*
X107824440Y-58177992D01*
X106333348Y-56686901D01*
X106420635Y-56619924D01*
X106619924Y-56420635D01*
X106686900Y-56333348D01*
X108177992Y-57824440D01*
X108177993Y-57824439D01*
X108223994Y-57769619D01*
X108374964Y-57589700D01*
X108587824Y-57285705D01*
X108587833Y-57285690D01*
X108773384Y-56964307D01*
X108773392Y-56964292D01*
X108930224Y-56627963D01*
X109034302Y-56342014D01*
X150660000Y-56342014D01*
X150660000Y-56577985D01*
X150690799Y-56811914D01*
X150751870Y-57039837D01*
X150842160Y-57257819D01*
X150842165Y-57257828D01*
X150960144Y-57462171D01*
X150960145Y-57462172D01*
X151022721Y-57543723D01*
X151744152Y-56822292D01*
X151751049Y-56838942D01*
X151838599Y-56969970D01*
X151950030Y-57081401D01*
X152081058Y-57168951D01*
X152097706Y-57175846D01*
X151376275Y-57897277D01*
X151457827Y-57959854D01*
X151457828Y-57959855D01*
X151662171Y-58077834D01*
X151662180Y-58077839D01*
X151880163Y-58168129D01*
X151880161Y-58168129D01*
X152108085Y-58229200D01*
X152342014Y-58259999D01*
X152342029Y-58260000D01*
X152577971Y-58260000D01*
X152577985Y-58259999D01*
X152811914Y-58229200D01*
X153039837Y-58168129D01*
X153257819Y-58077839D01*
X153257828Y-58077834D01*
X153333602Y-58034086D01*
X153401502Y-58017613D01*
X153467529Y-58040465D01*
X153510720Y-58095386D01*
X153517362Y-58164939D01*
X153510164Y-58188925D01*
X153438842Y-58361111D01*
X153438842Y-58361112D01*
X153379453Y-58582759D01*
X153379451Y-58582770D01*
X153349500Y-58810258D01*
X153349500Y-59039741D01*
X153351794Y-59057162D01*
X153379452Y-59267238D01*
X153379453Y-59267240D01*
X153438842Y-59488887D01*
X153526650Y-59700876D01*
X153526656Y-59700888D01*
X153602278Y-59831870D01*
X153621315Y-59864842D01*
X153637788Y-59932742D01*
X153614935Y-59998769D01*
X153560014Y-60041960D01*
X153490461Y-60048601D01*
X153451928Y-60034229D01*
X153257835Y-59922168D01*
X153257819Y-59922160D01*
X153039836Y-59831870D01*
X153039838Y-59831870D01*
X152811914Y-59770799D01*
X152577985Y-59740000D01*
X152342014Y-59740000D01*
X152108085Y-59770799D01*
X151880162Y-59831870D01*
X151662180Y-59922160D01*
X151662171Y-59922165D01*
X151457828Y-60040144D01*
X151457818Y-60040150D01*
X151376275Y-60102720D01*
X151376275Y-60102721D01*
X152097706Y-60824152D01*
X152081058Y-60831049D01*
X151950030Y-60918599D01*
X151838599Y-61030030D01*
X151751049Y-61161058D01*
X151744152Y-61177706D01*
X151022721Y-60456275D01*
X151022720Y-60456275D01*
X150960150Y-60537818D01*
X150960144Y-60537828D01*
X150842165Y-60742171D01*
X150842160Y-60742180D01*
X150751870Y-60960162D01*
X150690799Y-61188085D01*
X150660000Y-61422014D01*
X150660000Y-61657985D01*
X150690799Y-61891914D01*
X150751870Y-62119837D01*
X150842160Y-62337819D01*
X150842165Y-62337828D01*
X150960144Y-62542171D01*
X150960145Y-62542172D01*
X151022721Y-62623723D01*
X151744152Y-61902292D01*
X151751049Y-61918942D01*
X151838599Y-62049970D01*
X151950030Y-62161401D01*
X152081058Y-62248951D01*
X152097706Y-62255846D01*
X151376275Y-62977277D01*
X151457827Y-63039854D01*
X151457828Y-63039855D01*
X151662171Y-63157834D01*
X151662180Y-63157839D01*
X151880163Y-63248129D01*
X151880161Y-63248129D01*
X152108085Y-63309200D01*
X152342014Y-63339999D01*
X152342029Y-63340000D01*
X152577971Y-63340000D01*
X152577985Y-63339999D01*
X152811914Y-63309200D01*
X153039837Y-63248129D01*
X153257819Y-63157839D01*
X153257828Y-63157834D01*
X153462181Y-63039850D01*
X153543723Y-62977279D01*
X153543723Y-62977276D01*
X152822293Y-62255847D01*
X152838942Y-62248951D01*
X152969970Y-62161401D01*
X153081401Y-62049970D01*
X153168951Y-61918942D01*
X153175847Y-61902293D01*
X153897276Y-62623723D01*
X153897279Y-62623723D01*
X153959850Y-62542181D01*
X154077834Y-62337828D01*
X154077839Y-62337819D01*
X154168129Y-62119837D01*
X154229200Y-61891914D01*
X154259999Y-61657985D01*
X154260000Y-61657971D01*
X154260000Y-61422028D01*
X154259999Y-61422014D01*
X154229200Y-61188085D01*
X154168129Y-60960162D01*
X154077839Y-60742180D01*
X154077834Y-60742171D01*
X153974920Y-60563921D01*
X153958447Y-60496021D01*
X153981299Y-60429994D01*
X154036220Y-60386803D01*
X154105773Y-60380161D01*
X154144302Y-60394531D01*
X154324112Y-60498344D01*
X154324117Y-60498346D01*
X154324123Y-60498349D01*
X154397721Y-60528834D01*
X154536113Y-60586158D01*
X154757762Y-60645548D01*
X154985266Y-60675500D01*
X154985273Y-60675500D01*
X155214727Y-60675500D01*
X155214734Y-60675500D01*
X155442238Y-60645548D01*
X155663887Y-60586158D01*
X155784247Y-60536302D01*
X155853714Y-60528834D01*
X155916194Y-60560109D01*
X155951846Y-60620198D01*
X155949353Y-60690023D01*
X155939086Y-60712863D01*
X155922166Y-60742169D01*
X155922160Y-60742180D01*
X155831870Y-60960162D01*
X155770799Y-61188085D01*
X155740000Y-61422014D01*
X155740000Y-61657985D01*
X155770799Y-61891914D01*
X155831870Y-62119837D01*
X155922160Y-62337819D01*
X155922165Y-62337828D01*
X156040144Y-62542171D01*
X156040145Y-62542172D01*
X156102721Y-62623723D01*
X156824152Y-61902292D01*
X156831049Y-61918942D01*
X156918599Y-62049970D01*
X157030030Y-62161401D01*
X157161058Y-62248951D01*
X157177706Y-62255846D01*
X156456275Y-62977277D01*
X156537827Y-63039854D01*
X156537828Y-63039855D01*
X156742171Y-63157834D01*
X156742180Y-63157839D01*
X156960163Y-63248129D01*
X156960161Y-63248129D01*
X157188085Y-63309200D01*
X157422014Y-63339999D01*
X157422029Y-63340000D01*
X157657971Y-63340000D01*
X157657985Y-63339999D01*
X157891914Y-63309200D01*
X158119837Y-63248129D01*
X158337819Y-63157839D01*
X158337828Y-63157834D01*
X158542181Y-63039850D01*
X158623723Y-62977279D01*
X158623723Y-62977276D01*
X157902293Y-62255847D01*
X157918942Y-62248951D01*
X158049970Y-62161401D01*
X158161401Y-62049970D01*
X158248951Y-61918942D01*
X158255846Y-61902293D01*
X158977276Y-62623723D01*
X158977279Y-62623723D01*
X159039850Y-62542181D01*
X159157834Y-62337828D01*
X159157839Y-62337819D01*
X159248129Y-62119837D01*
X159309200Y-61891914D01*
X159339999Y-61657985D01*
X159340000Y-61657971D01*
X159340000Y-61422028D01*
X159339999Y-61422014D01*
X159309200Y-61188085D01*
X159248129Y-60960162D01*
X159157839Y-60742180D01*
X159157834Y-60742171D01*
X159039855Y-60537828D01*
X159039854Y-60537827D01*
X158977277Y-60456275D01*
X158255846Y-61177705D01*
X158248951Y-61161058D01*
X158161401Y-61030030D01*
X158049970Y-60918599D01*
X157918942Y-60831049D01*
X157902292Y-60824152D01*
X158623723Y-60102721D01*
X158542172Y-60040145D01*
X158542171Y-60040144D01*
X158337828Y-59922165D01*
X158337819Y-59922160D01*
X158119836Y-59831870D01*
X158119838Y-59831870D01*
X157891914Y-59770799D01*
X157657985Y-59740000D01*
X157422014Y-59740000D01*
X157188085Y-59770799D01*
X156960162Y-59831870D01*
X156821286Y-59889394D01*
X156751817Y-59896863D01*
X156689338Y-59865587D01*
X156653686Y-59805498D01*
X156656180Y-59735673D01*
X156666449Y-59712830D01*
X156673344Y-59700888D01*
X156761158Y-59488887D01*
X156820548Y-59267238D01*
X156850500Y-59039734D01*
X156850500Y-58810266D01*
X156820548Y-58582762D01*
X156761158Y-58361113D01*
X156738010Y-58305230D01*
X156730542Y-58235763D01*
X156761817Y-58173284D01*
X156821906Y-58137632D01*
X156891731Y-58140126D01*
X156900025Y-58143219D01*
X156960165Y-58168130D01*
X157188085Y-58229200D01*
X157422014Y-58259999D01*
X157422029Y-58260000D01*
X157657971Y-58260000D01*
X157657985Y-58259999D01*
X157891914Y-58229200D01*
X158119837Y-58168129D01*
X158337819Y-58077839D01*
X158337828Y-58077834D01*
X158435393Y-58021505D01*
X158542181Y-57959850D01*
X158623723Y-57897279D01*
X158623723Y-57897276D01*
X157902293Y-57175847D01*
X157918942Y-57168951D01*
X158049970Y-57081401D01*
X158161401Y-56969970D01*
X158248951Y-56838942D01*
X158255846Y-56822293D01*
X158977276Y-57543723D01*
X158977279Y-57543723D01*
X159039850Y-57462181D01*
X159157834Y-57257828D01*
X159157839Y-57257819D01*
X159248129Y-57039837D01*
X159309200Y-56811914D01*
X159339999Y-56577985D01*
X159340000Y-56577971D01*
X159340000Y-56342028D01*
X159339999Y-56342014D01*
X159309200Y-56108085D01*
X159248129Y-55880162D01*
X159157839Y-55662180D01*
X159157834Y-55662171D01*
X159039855Y-55457828D01*
X159039854Y-55457827D01*
X158977277Y-55376275D01*
X158255846Y-56097705D01*
X158248951Y-56081058D01*
X158161401Y-55950030D01*
X158049970Y-55838599D01*
X157918942Y-55751049D01*
X157902293Y-55744152D01*
X158623723Y-55022721D01*
X158542172Y-54960145D01*
X158542171Y-54960144D01*
X158471120Y-54919122D01*
X158337828Y-54842165D01*
X158337819Y-54842160D01*
X158270889Y-54814437D01*
X160750000Y-54814437D01*
X160750000Y-55185562D01*
X160782345Y-55555267D01*
X160782345Y-55555271D01*
X160846787Y-55920735D01*
X160846791Y-55920752D01*
X160942837Y-56279206D01*
X161069775Y-56627963D01*
X161226607Y-56964292D01*
X161226615Y-56964307D01*
X161412166Y-57285690D01*
X161412175Y-57285705D01*
X161625040Y-57589707D01*
X161822005Y-57824439D01*
X161822006Y-57824440D01*
X163313098Y-56333348D01*
X163380076Y-56420635D01*
X163579365Y-56619924D01*
X163666650Y-56686900D01*
X162175558Y-58177992D01*
X162175559Y-58177993D01*
X162410292Y-58374959D01*
X162714294Y-58587824D01*
X162714309Y-58587833D01*
X163035692Y-58773384D01*
X163035707Y-58773392D01*
X163372036Y-58930224D01*
X163720793Y-59057162D01*
X164079247Y-59153208D01*
X164079264Y-59153212D01*
X164444730Y-59217654D01*
X164814437Y-59249999D01*
X164814440Y-59250000D01*
X165185560Y-59250000D01*
X165185562Y-59249999D01*
X165555267Y-59217654D01*
X165555271Y-59217654D01*
X165920735Y-59153212D01*
X165920752Y-59153208D01*
X166279206Y-59057162D01*
X166627963Y-58930224D01*
X166964292Y-58773392D01*
X166964307Y-58773384D01*
X167285690Y-58587833D01*
X167285705Y-58587824D01*
X167589700Y-58374964D01*
X167824439Y-58177993D01*
X167824440Y-58177992D01*
X166333348Y-56686901D01*
X166420635Y-56619924D01*
X166619924Y-56420635D01*
X166686900Y-56333348D01*
X168177992Y-57824440D01*
X168177993Y-57824439D01*
X168374964Y-57589700D01*
X168587824Y-57285705D01*
X168587833Y-57285690D01*
X168773384Y-56964307D01*
X168773392Y-56964292D01*
X168930224Y-56627963D01*
X169057162Y-56279206D01*
X169153208Y-55920752D01*
X169153212Y-55920735D01*
X169217654Y-55555271D01*
X169217654Y-55555267D01*
X169249999Y-55185562D01*
X169250000Y-55185560D01*
X169250000Y-54814440D01*
X169249999Y-54814437D01*
X169217654Y-54444732D01*
X169217654Y-54444728D01*
X169153212Y-54079264D01*
X169153208Y-54079247D01*
X169057162Y-53720793D01*
X168930224Y-53372036D01*
X168773392Y-53035707D01*
X168773384Y-53035692D01*
X168587833Y-52714309D01*
X168587824Y-52714294D01*
X168374959Y-52410292D01*
X168177993Y-52175559D01*
X168177992Y-52175558D01*
X166686900Y-53666650D01*
X166619924Y-53579365D01*
X166420635Y-53380076D01*
X166333347Y-53313098D01*
X167824440Y-51822006D01*
X167824439Y-51822005D01*
X167589707Y-51625040D01*
X167285705Y-51412175D01*
X167285690Y-51412166D01*
X166964307Y-51226615D01*
X166964292Y-51226607D01*
X166627963Y-51069775D01*
X166279206Y-50942837D01*
X165920752Y-50846791D01*
X165920735Y-50846787D01*
X165555269Y-50782345D01*
X165185562Y-50750000D01*
X164814437Y-50750000D01*
X164444732Y-50782345D01*
X164444728Y-50782345D01*
X164079264Y-50846787D01*
X164079247Y-50846791D01*
X163720793Y-50942837D01*
X163372036Y-51069775D01*
X163035707Y-51226607D01*
X163035692Y-51226615D01*
X162714309Y-51412166D01*
X162714294Y-51412175D01*
X162410292Y-51625040D01*
X162175559Y-51822005D01*
X162175558Y-51822006D01*
X163666651Y-53313098D01*
X163579365Y-53380076D01*
X163380076Y-53579365D01*
X163313098Y-53666651D01*
X161822006Y-52175558D01*
X161822005Y-52175559D01*
X161625040Y-52410292D01*
X161412175Y-52714294D01*
X161412166Y-52714309D01*
X161226615Y-53035692D01*
X161226607Y-53035707D01*
X161069775Y-53372036D01*
X160942837Y-53720793D01*
X160846791Y-54079247D01*
X160846787Y-54079264D01*
X160782345Y-54444728D01*
X160782345Y-54444732D01*
X160750000Y-54814437D01*
X158270889Y-54814437D01*
X158119836Y-54751870D01*
X158119838Y-54751870D01*
X157891914Y-54690799D01*
X157657985Y-54660000D01*
X157422014Y-54660000D01*
X157188085Y-54690799D01*
X156960162Y-54751870D01*
X156742180Y-54842160D01*
X156742171Y-54842165D01*
X156537828Y-54960144D01*
X156537818Y-54960150D01*
X156456275Y-55022720D01*
X156456275Y-55022721D01*
X157177706Y-55744152D01*
X157161058Y-55751049D01*
X157030030Y-55838599D01*
X156918599Y-55950030D01*
X156831049Y-56081058D01*
X156824152Y-56097706D01*
X156102721Y-55376275D01*
X156102720Y-55376275D01*
X156040150Y-55457818D01*
X156040144Y-55457828D01*
X155922165Y-55662171D01*
X155922160Y-55662180D01*
X155831870Y-55880162D01*
X155770799Y-56108085D01*
X155740000Y-56342014D01*
X155740000Y-56577985D01*
X155770799Y-56811914D01*
X155831870Y-57039837D01*
X155864102Y-57117653D01*
X155871571Y-57187123D01*
X155840295Y-57249602D01*
X155780206Y-57285253D01*
X155710381Y-57282759D01*
X155702101Y-57279671D01*
X155663887Y-57263842D01*
X155663885Y-57263841D01*
X155663884Y-57263841D01*
X155598035Y-57246197D01*
X155442238Y-57204452D01*
X155404215Y-57199446D01*
X155214741Y-57174500D01*
X155214734Y-57174500D01*
X154985266Y-57174500D01*
X154985258Y-57174500D01*
X154768715Y-57203009D01*
X154757762Y-57204452D01*
X154665187Y-57229257D01*
X154536112Y-57263842D01*
X154324123Y-57351650D01*
X154324106Y-57351659D01*
X154265696Y-57385381D01*
X154197796Y-57401852D01*
X154131769Y-57378999D01*
X154088580Y-57324077D01*
X154081939Y-57254524D01*
X154089137Y-57230540D01*
X154168130Y-57039834D01*
X154229200Y-56811914D01*
X154259999Y-56577985D01*
X154260000Y-56577971D01*
X154260000Y-56342028D01*
X154259999Y-56342014D01*
X154229200Y-56108085D01*
X154168129Y-55880162D01*
X154077839Y-55662180D01*
X154077834Y-55662171D01*
X153959855Y-55457828D01*
X153959854Y-55457827D01*
X153897277Y-55376275D01*
X153175846Y-56097706D01*
X153168951Y-56081058D01*
X153081401Y-55950030D01*
X152969970Y-55838599D01*
X152838942Y-55751049D01*
X152822293Y-55744152D01*
X153543723Y-55022721D01*
X153462172Y-54960145D01*
X153462171Y-54960144D01*
X153257828Y-54842165D01*
X153257819Y-54842160D01*
X153039836Y-54751870D01*
X153039838Y-54751870D01*
X152811914Y-54690799D01*
X152577985Y-54660000D01*
X152342014Y-54660000D01*
X152108085Y-54690799D01*
X151880162Y-54751870D01*
X151662180Y-54842160D01*
X151662171Y-54842165D01*
X151457828Y-54960144D01*
X151457818Y-54960150D01*
X151376275Y-55022720D01*
X151376275Y-55022721D01*
X152097706Y-55744152D01*
X152081058Y-55751049D01*
X151950030Y-55838599D01*
X151838599Y-55950030D01*
X151751049Y-56081058D01*
X151744152Y-56097706D01*
X151022721Y-55376275D01*
X151022720Y-55376275D01*
X150960150Y-55457818D01*
X150960144Y-55457828D01*
X150842165Y-55662171D01*
X150842160Y-55662180D01*
X150751870Y-55880162D01*
X150690799Y-56108085D01*
X150660000Y-56342014D01*
X109034302Y-56342014D01*
X109051213Y-56295552D01*
X109051213Y-56295551D01*
X109057161Y-56279210D01*
X109153208Y-55920752D01*
X109153212Y-55920735D01*
X109217654Y-55555271D01*
X109217654Y-55555267D01*
X109249999Y-55185562D01*
X109250000Y-55185560D01*
X109250000Y-54814440D01*
X109249999Y-54814437D01*
X109217654Y-54444732D01*
X109217654Y-54444728D01*
X109153212Y-54079264D01*
X109153208Y-54079247D01*
X109057162Y-53720793D01*
X108930224Y-53372036D01*
X108773392Y-53035707D01*
X108773384Y-53035692D01*
X108587833Y-52714309D01*
X108587824Y-52714294D01*
X108374959Y-52410292D01*
X108177993Y-52175559D01*
X108177992Y-52175558D01*
X106686900Y-53666650D01*
X106619924Y-53579365D01*
X106420635Y-53380076D01*
X106333347Y-53313098D01*
X107824440Y-51822006D01*
X107824439Y-51822005D01*
X107589707Y-51625040D01*
X107285705Y-51412175D01*
X107285690Y-51412166D01*
X106964307Y-51226615D01*
X106964292Y-51226607D01*
X106627963Y-51069775D01*
X106279206Y-50942837D01*
X105920752Y-50846791D01*
X105920735Y-50846787D01*
X105555269Y-50782345D01*
X105185562Y-50750000D01*
X104814437Y-50750000D01*
X104444732Y-50782345D01*
X104444728Y-50782345D01*
X104079264Y-50846787D01*
X104079247Y-50846791D01*
X103720793Y-50942837D01*
X103372036Y-51069775D01*
X103035707Y-51226607D01*
X103035692Y-51226615D01*
X102714309Y-51412166D01*
X102714294Y-51412175D01*
X102410292Y-51625040D01*
X102175559Y-51822005D01*
X102175558Y-51822006D01*
X103666651Y-53313098D01*
X103579365Y-53380076D01*
X103380076Y-53579365D01*
X103313098Y-53666651D01*
X101822006Y-52175558D01*
X101822005Y-52175559D01*
X101625040Y-52410292D01*
X101412175Y-52714294D01*
X101412166Y-52714309D01*
X101226615Y-53035692D01*
X101226607Y-53035707D01*
X101069775Y-53372036D01*
X100942837Y-53720793D01*
X100846791Y-54079247D01*
X100846787Y-54079264D01*
X100782345Y-54444728D01*
X100782345Y-54444732D01*
X100750000Y-54814437D01*
X100500500Y-54814437D01*
X100500500Y-50624500D01*
X100520185Y-50557461D01*
X100572989Y-50511706D01*
X100624500Y-50500500D01*
X169425500Y-50500500D01*
X169492539Y-50520185D01*
G37*
G04 #@! TD.AperFunction*
M02*
