G04 #@! TF.GenerationSoftware,KiCad,Pcbnew,8.0.7*
G04 #@! TF.CreationDate,2024-12-21T14:56:44-05:00*
G04 #@! TF.ProjectId,t41_2_low_power_amplifier,7434315f-325f-46c6-9f77-5f706f776572,rev?*
G04 #@! TF.SameCoordinates,Original*
G04 #@! TF.FileFunction,Legend,Bot*
G04 #@! TF.FilePolarity,Positive*
%FSLAX46Y46*%
G04 Gerber Fmt 4.6, Leading zero omitted, Abs format (unit mm)*
G04 Created by KiCad (PCBNEW 8.0.7) date 2024-12-21 14:56:44*
%MOMM*%
%LPD*%
G01*
G04 APERTURE LIST*
G04 Aperture macros list*
%AMRoundRect*
0 Rectangle with rounded corners*
0 $1 Rounding radius*
0 $2 $3 $4 $5 $6 $7 $8 $9 X,Y pos of 4 corners*
0 Add a 4 corners polygon primitive as box body*
4,1,4,$2,$3,$4,$5,$6,$7,$8,$9,$2,$3,0*
0 Add four circle primitives for the rounded corners*
1,1,$1+$1,$2,$3*
1,1,$1+$1,$4,$5*
1,1,$1+$1,$6,$7*
1,1,$1+$1,$8,$9*
0 Add four rect primitives between the rounded corners*
20,1,$1+$1,$2,$3,$4,$5,0*
20,1,$1+$1,$4,$5,$6,$7,0*
20,1,$1+$1,$6,$7,$8,$9,0*
20,1,$1+$1,$8,$9,$2,$3,0*%
G04 Aperture macros list end*
%ADD10C,0.150000*%
%ADD11C,0.120000*%
%ADD12C,2.000000*%
%ADD13C,7.500000*%
%ADD14C,1.440000*%
%ADD15C,2.600000*%
%ADD16C,2.500000*%
%ADD17R,2.400000X2.400000*%
%ADD18C,2.400000*%
%ADD19C,2.100000*%
%ADD20RoundRect,0.250000X0.325000X0.650000X-0.325000X0.650000X-0.325000X-0.650000X0.325000X-0.650000X0*%
%ADD21RoundRect,0.250000X-0.325000X-0.650000X0.325000X-0.650000X0.325000X0.650000X-0.325000X0.650000X0*%
%ADD22RoundRect,0.250000X0.312500X0.625000X-0.312500X0.625000X-0.312500X-0.625000X0.312500X-0.625000X0*%
G04 APERTURE END LIST*
D10*
X129091666Y-70609580D02*
X129139285Y-70657200D01*
X129139285Y-70657200D02*
X129282142Y-70704819D01*
X129282142Y-70704819D02*
X129377380Y-70704819D01*
X129377380Y-70704819D02*
X129520237Y-70657200D01*
X129520237Y-70657200D02*
X129615475Y-70561961D01*
X129615475Y-70561961D02*
X129663094Y-70466723D01*
X129663094Y-70466723D02*
X129710713Y-70276247D01*
X129710713Y-70276247D02*
X129710713Y-70133390D01*
X129710713Y-70133390D02*
X129663094Y-69942914D01*
X129663094Y-69942914D02*
X129615475Y-69847676D01*
X129615475Y-69847676D02*
X129520237Y-69752438D01*
X129520237Y-69752438D02*
X129377380Y-69704819D01*
X129377380Y-69704819D02*
X129282142Y-69704819D01*
X129282142Y-69704819D02*
X129139285Y-69752438D01*
X129139285Y-69752438D02*
X129091666Y-69800057D01*
X128234523Y-70038152D02*
X128234523Y-70704819D01*
X128472618Y-69657200D02*
X128710713Y-70371485D01*
X128710713Y-70371485D02*
X128091666Y-70371485D01*
X130567856Y-73404819D02*
X130472618Y-73404819D01*
X130472618Y-73404819D02*
X130377380Y-73452438D01*
X130377380Y-73452438D02*
X130329761Y-73500057D01*
X130329761Y-73500057D02*
X130282142Y-73595295D01*
X130282142Y-73595295D02*
X130234523Y-73785771D01*
X130234523Y-73785771D02*
X130234523Y-74023866D01*
X130234523Y-74023866D02*
X130282142Y-74214342D01*
X130282142Y-74214342D02*
X130329761Y-74309580D01*
X130329761Y-74309580D02*
X130377380Y-74357200D01*
X130377380Y-74357200D02*
X130472618Y-74404819D01*
X130472618Y-74404819D02*
X130567856Y-74404819D01*
X130567856Y-74404819D02*
X130663094Y-74357200D01*
X130663094Y-74357200D02*
X130710713Y-74309580D01*
X130710713Y-74309580D02*
X130758332Y-74214342D01*
X130758332Y-74214342D02*
X130805951Y-74023866D01*
X130805951Y-74023866D02*
X130805951Y-73785771D01*
X130805951Y-73785771D02*
X130758332Y-73595295D01*
X130758332Y-73595295D02*
X130710713Y-73500057D01*
X130710713Y-73500057D02*
X130663094Y-73452438D01*
X130663094Y-73452438D02*
X130567856Y-73404819D01*
X129805951Y-74309580D02*
X129758332Y-74357200D01*
X129758332Y-74357200D02*
X129805951Y-74404819D01*
X129805951Y-74404819D02*
X129853570Y-74357200D01*
X129853570Y-74357200D02*
X129805951Y-74309580D01*
X129805951Y-74309580D02*
X129805951Y-74404819D01*
X128805952Y-74404819D02*
X129377380Y-74404819D01*
X129091666Y-74404819D02*
X129091666Y-73404819D01*
X129091666Y-73404819D02*
X129186904Y-73547676D01*
X129186904Y-73547676D02*
X129282142Y-73642914D01*
X129282142Y-73642914D02*
X129377380Y-73690533D01*
X127948809Y-73738152D02*
X127948809Y-74404819D01*
X128377380Y-73738152D02*
X128377380Y-74261961D01*
X128377380Y-74261961D02*
X128329761Y-74357200D01*
X128329761Y-74357200D02*
X128234523Y-74404819D01*
X128234523Y-74404819D02*
X128091666Y-74404819D01*
X128091666Y-74404819D02*
X127996428Y-74357200D01*
X127996428Y-74357200D02*
X127948809Y-74309580D01*
X127139285Y-73881009D02*
X127472618Y-73881009D01*
X127472618Y-74404819D02*
X127472618Y-73404819D01*
X127472618Y-73404819D02*
X126996428Y-73404819D01*
X154366666Y-74484580D02*
X154414285Y-74532200D01*
X154414285Y-74532200D02*
X154557142Y-74579819D01*
X154557142Y-74579819D02*
X154652380Y-74579819D01*
X154652380Y-74579819D02*
X154795237Y-74532200D01*
X154795237Y-74532200D02*
X154890475Y-74436961D01*
X154890475Y-74436961D02*
X154938094Y-74341723D01*
X154938094Y-74341723D02*
X154985713Y-74151247D01*
X154985713Y-74151247D02*
X154985713Y-74008390D01*
X154985713Y-74008390D02*
X154938094Y-73817914D01*
X154938094Y-73817914D02*
X154890475Y-73722676D01*
X154890475Y-73722676D02*
X154795237Y-73627438D01*
X154795237Y-73627438D02*
X154652380Y-73579819D01*
X154652380Y-73579819D02*
X154557142Y-73579819D01*
X154557142Y-73579819D02*
X154414285Y-73627438D01*
X154414285Y-73627438D02*
X154366666Y-73675057D01*
X153414285Y-74579819D02*
X153985713Y-74579819D01*
X153699999Y-74579819D02*
X153699999Y-73579819D01*
X153699999Y-73579819D02*
X153795237Y-73722676D01*
X153795237Y-73722676D02*
X153890475Y-73817914D01*
X153890475Y-73817914D02*
X153985713Y-73865533D01*
X155842856Y-74854819D02*
X155747618Y-74854819D01*
X155747618Y-74854819D02*
X155652380Y-74902438D01*
X155652380Y-74902438D02*
X155604761Y-74950057D01*
X155604761Y-74950057D02*
X155557142Y-75045295D01*
X155557142Y-75045295D02*
X155509523Y-75235771D01*
X155509523Y-75235771D02*
X155509523Y-75473866D01*
X155509523Y-75473866D02*
X155557142Y-75664342D01*
X155557142Y-75664342D02*
X155604761Y-75759580D01*
X155604761Y-75759580D02*
X155652380Y-75807200D01*
X155652380Y-75807200D02*
X155747618Y-75854819D01*
X155747618Y-75854819D02*
X155842856Y-75854819D01*
X155842856Y-75854819D02*
X155938094Y-75807200D01*
X155938094Y-75807200D02*
X155985713Y-75759580D01*
X155985713Y-75759580D02*
X156033332Y-75664342D01*
X156033332Y-75664342D02*
X156080951Y-75473866D01*
X156080951Y-75473866D02*
X156080951Y-75235771D01*
X156080951Y-75235771D02*
X156033332Y-75045295D01*
X156033332Y-75045295D02*
X155985713Y-74950057D01*
X155985713Y-74950057D02*
X155938094Y-74902438D01*
X155938094Y-74902438D02*
X155842856Y-74854819D01*
X155080951Y-75759580D02*
X155033332Y-75807200D01*
X155033332Y-75807200D02*
X155080951Y-75854819D01*
X155080951Y-75854819D02*
X155128570Y-75807200D01*
X155128570Y-75807200D02*
X155080951Y-75759580D01*
X155080951Y-75759580D02*
X155080951Y-75854819D01*
X154080952Y-75854819D02*
X154652380Y-75854819D01*
X154366666Y-75854819D02*
X154366666Y-74854819D01*
X154366666Y-74854819D02*
X154461904Y-74997676D01*
X154461904Y-74997676D02*
X154557142Y-75092914D01*
X154557142Y-75092914D02*
X154652380Y-75140533D01*
X153223809Y-75188152D02*
X153223809Y-75854819D01*
X153652380Y-75188152D02*
X153652380Y-75711961D01*
X153652380Y-75711961D02*
X153604761Y-75807200D01*
X153604761Y-75807200D02*
X153509523Y-75854819D01*
X153509523Y-75854819D02*
X153366666Y-75854819D01*
X153366666Y-75854819D02*
X153271428Y-75807200D01*
X153271428Y-75807200D02*
X153223809Y-75759580D01*
X152414285Y-75331009D02*
X152747618Y-75331009D01*
X152747618Y-75854819D02*
X152747618Y-74854819D01*
X152747618Y-74854819D02*
X152271428Y-74854819D01*
X146166666Y-73259580D02*
X146214285Y-73307200D01*
X146214285Y-73307200D02*
X146357142Y-73354819D01*
X146357142Y-73354819D02*
X146452380Y-73354819D01*
X146452380Y-73354819D02*
X146595237Y-73307200D01*
X146595237Y-73307200D02*
X146690475Y-73211961D01*
X146690475Y-73211961D02*
X146738094Y-73116723D01*
X146738094Y-73116723D02*
X146785713Y-72926247D01*
X146785713Y-72926247D02*
X146785713Y-72783390D01*
X146785713Y-72783390D02*
X146738094Y-72592914D01*
X146738094Y-72592914D02*
X146690475Y-72497676D01*
X146690475Y-72497676D02*
X146595237Y-72402438D01*
X146595237Y-72402438D02*
X146452380Y-72354819D01*
X146452380Y-72354819D02*
X146357142Y-72354819D01*
X146357142Y-72354819D02*
X146214285Y-72402438D01*
X146214285Y-72402438D02*
X146166666Y-72450057D01*
X145785713Y-72450057D02*
X145738094Y-72402438D01*
X145738094Y-72402438D02*
X145642856Y-72354819D01*
X145642856Y-72354819D02*
X145404761Y-72354819D01*
X145404761Y-72354819D02*
X145309523Y-72402438D01*
X145309523Y-72402438D02*
X145261904Y-72450057D01*
X145261904Y-72450057D02*
X145214285Y-72545295D01*
X145214285Y-72545295D02*
X145214285Y-72640533D01*
X145214285Y-72640533D02*
X145261904Y-72783390D01*
X145261904Y-72783390D02*
X145833332Y-73354819D01*
X145833332Y-73354819D02*
X145214285Y-73354819D01*
X144342856Y-72354819D02*
X144247618Y-72354819D01*
X144247618Y-72354819D02*
X144152380Y-72402438D01*
X144152380Y-72402438D02*
X144104761Y-72450057D01*
X144104761Y-72450057D02*
X144057142Y-72545295D01*
X144057142Y-72545295D02*
X144009523Y-72735771D01*
X144009523Y-72735771D02*
X144009523Y-72973866D01*
X144009523Y-72973866D02*
X144057142Y-73164342D01*
X144057142Y-73164342D02*
X144104761Y-73259580D01*
X144104761Y-73259580D02*
X144152380Y-73307200D01*
X144152380Y-73307200D02*
X144247618Y-73354819D01*
X144247618Y-73354819D02*
X144342856Y-73354819D01*
X144342856Y-73354819D02*
X144438094Y-73307200D01*
X144438094Y-73307200D02*
X144485713Y-73259580D01*
X144485713Y-73259580D02*
X144533332Y-73164342D01*
X144533332Y-73164342D02*
X144580951Y-72973866D01*
X144580951Y-72973866D02*
X144580951Y-72735771D01*
X144580951Y-72735771D02*
X144533332Y-72545295D01*
X144533332Y-72545295D02*
X144485713Y-72450057D01*
X144485713Y-72450057D02*
X144438094Y-72402438D01*
X144438094Y-72402438D02*
X144342856Y-72354819D01*
X143580951Y-73259580D02*
X143533332Y-73307200D01*
X143533332Y-73307200D02*
X143580951Y-73354819D01*
X143580951Y-73354819D02*
X143628570Y-73307200D01*
X143628570Y-73307200D02*
X143580951Y-73259580D01*
X143580951Y-73259580D02*
X143580951Y-73354819D01*
X142580952Y-73354819D02*
X143152380Y-73354819D01*
X142866666Y-73354819D02*
X142866666Y-72354819D01*
X142866666Y-72354819D02*
X142961904Y-72497676D01*
X142961904Y-72497676D02*
X143057142Y-72592914D01*
X143057142Y-72592914D02*
X143152380Y-72640533D01*
X141723809Y-72688152D02*
X141723809Y-73354819D01*
X142152380Y-72688152D02*
X142152380Y-73211961D01*
X142152380Y-73211961D02*
X142104761Y-73307200D01*
X142104761Y-73307200D02*
X142009523Y-73354819D01*
X142009523Y-73354819D02*
X141866666Y-73354819D01*
X141866666Y-73354819D02*
X141771428Y-73307200D01*
X141771428Y-73307200D02*
X141723809Y-73259580D01*
X140914285Y-72831009D02*
X141247618Y-72831009D01*
X141247618Y-73354819D02*
X141247618Y-72354819D01*
X141247618Y-72354819D02*
X140771428Y-72354819D01*
X146066666Y-81559580D02*
X146114285Y-81607200D01*
X146114285Y-81607200D02*
X146257142Y-81654819D01*
X146257142Y-81654819D02*
X146352380Y-81654819D01*
X146352380Y-81654819D02*
X146495237Y-81607200D01*
X146495237Y-81607200D02*
X146590475Y-81511961D01*
X146590475Y-81511961D02*
X146638094Y-81416723D01*
X146638094Y-81416723D02*
X146685713Y-81226247D01*
X146685713Y-81226247D02*
X146685713Y-81083390D01*
X146685713Y-81083390D02*
X146638094Y-80892914D01*
X146638094Y-80892914D02*
X146590475Y-80797676D01*
X146590475Y-80797676D02*
X146495237Y-80702438D01*
X146495237Y-80702438D02*
X146352380Y-80654819D01*
X146352380Y-80654819D02*
X146257142Y-80654819D01*
X146257142Y-80654819D02*
X146114285Y-80702438D01*
X146114285Y-80702438D02*
X146066666Y-80750057D01*
X145733332Y-80654819D02*
X145114285Y-80654819D01*
X145114285Y-80654819D02*
X145447618Y-81035771D01*
X145447618Y-81035771D02*
X145304761Y-81035771D01*
X145304761Y-81035771D02*
X145209523Y-81083390D01*
X145209523Y-81083390D02*
X145161904Y-81131009D01*
X145161904Y-81131009D02*
X145114285Y-81226247D01*
X145114285Y-81226247D02*
X145114285Y-81464342D01*
X145114285Y-81464342D02*
X145161904Y-81559580D01*
X145161904Y-81559580D02*
X145209523Y-81607200D01*
X145209523Y-81607200D02*
X145304761Y-81654819D01*
X145304761Y-81654819D02*
X145590475Y-81654819D01*
X145590475Y-81654819D02*
X145685713Y-81607200D01*
X145685713Y-81607200D02*
X145733332Y-81559580D01*
X144142856Y-80654819D02*
X144047618Y-80654819D01*
X144047618Y-80654819D02*
X143952380Y-80702438D01*
X143952380Y-80702438D02*
X143904761Y-80750057D01*
X143904761Y-80750057D02*
X143857142Y-80845295D01*
X143857142Y-80845295D02*
X143809523Y-81035771D01*
X143809523Y-81035771D02*
X143809523Y-81273866D01*
X143809523Y-81273866D02*
X143857142Y-81464342D01*
X143857142Y-81464342D02*
X143904761Y-81559580D01*
X143904761Y-81559580D02*
X143952380Y-81607200D01*
X143952380Y-81607200D02*
X144047618Y-81654819D01*
X144047618Y-81654819D02*
X144142856Y-81654819D01*
X144142856Y-81654819D02*
X144238094Y-81607200D01*
X144238094Y-81607200D02*
X144285713Y-81559580D01*
X144285713Y-81559580D02*
X144333332Y-81464342D01*
X144333332Y-81464342D02*
X144380951Y-81273866D01*
X144380951Y-81273866D02*
X144380951Y-81035771D01*
X144380951Y-81035771D02*
X144333332Y-80845295D01*
X144333332Y-80845295D02*
X144285713Y-80750057D01*
X144285713Y-80750057D02*
X144238094Y-80702438D01*
X144238094Y-80702438D02*
X144142856Y-80654819D01*
X143380951Y-81559580D02*
X143333332Y-81607200D01*
X143333332Y-81607200D02*
X143380951Y-81654819D01*
X143380951Y-81654819D02*
X143428570Y-81607200D01*
X143428570Y-81607200D02*
X143380951Y-81559580D01*
X143380951Y-81559580D02*
X143380951Y-81654819D01*
X142380952Y-81654819D02*
X142952380Y-81654819D01*
X142666666Y-81654819D02*
X142666666Y-80654819D01*
X142666666Y-80654819D02*
X142761904Y-80797676D01*
X142761904Y-80797676D02*
X142857142Y-80892914D01*
X142857142Y-80892914D02*
X142952380Y-80940533D01*
X141523809Y-80988152D02*
X141523809Y-81654819D01*
X141952380Y-80988152D02*
X141952380Y-81511961D01*
X141952380Y-81511961D02*
X141904761Y-81607200D01*
X141904761Y-81607200D02*
X141809523Y-81654819D01*
X141809523Y-81654819D02*
X141666666Y-81654819D01*
X141666666Y-81654819D02*
X141571428Y-81607200D01*
X141571428Y-81607200D02*
X141523809Y-81559580D01*
X140714285Y-81131009D02*
X141047618Y-81131009D01*
X141047618Y-81654819D02*
X141047618Y-80654819D01*
X141047618Y-80654819D02*
X140571428Y-80654819D01*
X144566666Y-66654819D02*
X144899999Y-66178628D01*
X145138094Y-66654819D02*
X145138094Y-65654819D01*
X145138094Y-65654819D02*
X144757142Y-65654819D01*
X144757142Y-65654819D02*
X144661904Y-65702438D01*
X144661904Y-65702438D02*
X144614285Y-65750057D01*
X144614285Y-65750057D02*
X144566666Y-65845295D01*
X144566666Y-65845295D02*
X144566666Y-65988152D01*
X144566666Y-65988152D02*
X144614285Y-66083390D01*
X144614285Y-66083390D02*
X144661904Y-66131009D01*
X144661904Y-66131009D02*
X144757142Y-66178628D01*
X144757142Y-66178628D02*
X145138094Y-66178628D01*
X144090475Y-66654819D02*
X143899999Y-66654819D01*
X143899999Y-66654819D02*
X143804761Y-66607200D01*
X143804761Y-66607200D02*
X143757142Y-66559580D01*
X143757142Y-66559580D02*
X143661904Y-66416723D01*
X143661904Y-66416723D02*
X143614285Y-66226247D01*
X143614285Y-66226247D02*
X143614285Y-65845295D01*
X143614285Y-65845295D02*
X143661904Y-65750057D01*
X143661904Y-65750057D02*
X143709523Y-65702438D01*
X143709523Y-65702438D02*
X143804761Y-65654819D01*
X143804761Y-65654819D02*
X143995237Y-65654819D01*
X143995237Y-65654819D02*
X144090475Y-65702438D01*
X144090475Y-65702438D02*
X144138094Y-65750057D01*
X144138094Y-65750057D02*
X144185713Y-65845295D01*
X144185713Y-65845295D02*
X144185713Y-66083390D01*
X144185713Y-66083390D02*
X144138094Y-66178628D01*
X144138094Y-66178628D02*
X144090475Y-66226247D01*
X144090475Y-66226247D02*
X143995237Y-66273866D01*
X143995237Y-66273866D02*
X143804761Y-66273866D01*
X143804761Y-66273866D02*
X143709523Y-66226247D01*
X143709523Y-66226247D02*
X143661904Y-66178628D01*
X143661904Y-66178628D02*
X143614285Y-66083390D01*
X142011904Y-65654819D02*
X142202380Y-65654819D01*
X142202380Y-65654819D02*
X142297618Y-65702438D01*
X142297618Y-65702438D02*
X142345237Y-65750057D01*
X142345237Y-65750057D02*
X142440475Y-65892914D01*
X142440475Y-65892914D02*
X142488094Y-66083390D01*
X142488094Y-66083390D02*
X142488094Y-66464342D01*
X142488094Y-66464342D02*
X142440475Y-66559580D01*
X142440475Y-66559580D02*
X142392856Y-66607200D01*
X142392856Y-66607200D02*
X142297618Y-66654819D01*
X142297618Y-66654819D02*
X142107142Y-66654819D01*
X142107142Y-66654819D02*
X142011904Y-66607200D01*
X142011904Y-66607200D02*
X141964285Y-66559580D01*
X141964285Y-66559580D02*
X141916666Y-66464342D01*
X141916666Y-66464342D02*
X141916666Y-66226247D01*
X141916666Y-66226247D02*
X141964285Y-66131009D01*
X141964285Y-66131009D02*
X142011904Y-66083390D01*
X142011904Y-66083390D02*
X142107142Y-66035771D01*
X142107142Y-66035771D02*
X142297618Y-66035771D01*
X142297618Y-66035771D02*
X142392856Y-66083390D01*
X142392856Y-66083390D02*
X142440475Y-66131009D01*
X142440475Y-66131009D02*
X142488094Y-66226247D01*
X141345237Y-66083390D02*
X141440475Y-66035771D01*
X141440475Y-66035771D02*
X141488094Y-65988152D01*
X141488094Y-65988152D02*
X141535713Y-65892914D01*
X141535713Y-65892914D02*
X141535713Y-65845295D01*
X141535713Y-65845295D02*
X141488094Y-65750057D01*
X141488094Y-65750057D02*
X141440475Y-65702438D01*
X141440475Y-65702438D02*
X141345237Y-65654819D01*
X141345237Y-65654819D02*
X141154761Y-65654819D01*
X141154761Y-65654819D02*
X141059523Y-65702438D01*
X141059523Y-65702438D02*
X141011904Y-65750057D01*
X141011904Y-65750057D02*
X140964285Y-65845295D01*
X140964285Y-65845295D02*
X140964285Y-65892914D01*
X140964285Y-65892914D02*
X141011904Y-65988152D01*
X141011904Y-65988152D02*
X141059523Y-66035771D01*
X141059523Y-66035771D02*
X141154761Y-66083390D01*
X141154761Y-66083390D02*
X141345237Y-66083390D01*
X141345237Y-66083390D02*
X141440475Y-66131009D01*
X141440475Y-66131009D02*
X141488094Y-66178628D01*
X141488094Y-66178628D02*
X141535713Y-66273866D01*
X141535713Y-66273866D02*
X141535713Y-66464342D01*
X141535713Y-66464342D02*
X141488094Y-66559580D01*
X141488094Y-66559580D02*
X141440475Y-66607200D01*
X141440475Y-66607200D02*
X141345237Y-66654819D01*
X141345237Y-66654819D02*
X141154761Y-66654819D01*
X141154761Y-66654819D02*
X141059523Y-66607200D01*
X141059523Y-66607200D02*
X141011904Y-66559580D01*
X141011904Y-66559580D02*
X140964285Y-66464342D01*
X140964285Y-66464342D02*
X140964285Y-66273866D01*
X140964285Y-66273866D02*
X141011904Y-66178628D01*
X141011904Y-66178628D02*
X141059523Y-66131009D01*
X141059523Y-66131009D02*
X141154761Y-66083390D01*
X140345237Y-65654819D02*
X140249999Y-65654819D01*
X140249999Y-65654819D02*
X140154761Y-65702438D01*
X140154761Y-65702438D02*
X140107142Y-65750057D01*
X140107142Y-65750057D02*
X140059523Y-65845295D01*
X140059523Y-65845295D02*
X140011904Y-66035771D01*
X140011904Y-66035771D02*
X140011904Y-66273866D01*
X140011904Y-66273866D02*
X140059523Y-66464342D01*
X140059523Y-66464342D02*
X140107142Y-66559580D01*
X140107142Y-66559580D02*
X140154761Y-66607200D01*
X140154761Y-66607200D02*
X140249999Y-66654819D01*
X140249999Y-66654819D02*
X140345237Y-66654819D01*
X140345237Y-66654819D02*
X140440475Y-66607200D01*
X140440475Y-66607200D02*
X140488094Y-66559580D01*
X140488094Y-66559580D02*
X140535713Y-66464342D01*
X140535713Y-66464342D02*
X140583332Y-66273866D01*
X140583332Y-66273866D02*
X140583332Y-66035771D01*
X140583332Y-66035771D02*
X140535713Y-65845295D01*
X140535713Y-65845295D02*
X140488094Y-65750057D01*
X140488094Y-65750057D02*
X140440475Y-65702438D01*
X140440475Y-65702438D02*
X140345237Y-65654819D01*
X144466666Y-74954819D02*
X144799999Y-74478628D01*
X145038094Y-74954819D02*
X145038094Y-73954819D01*
X145038094Y-73954819D02*
X144657142Y-73954819D01*
X144657142Y-73954819D02*
X144561904Y-74002438D01*
X144561904Y-74002438D02*
X144514285Y-74050057D01*
X144514285Y-74050057D02*
X144466666Y-74145295D01*
X144466666Y-74145295D02*
X144466666Y-74288152D01*
X144466666Y-74288152D02*
X144514285Y-74383390D01*
X144514285Y-74383390D02*
X144561904Y-74431009D01*
X144561904Y-74431009D02*
X144657142Y-74478628D01*
X144657142Y-74478628D02*
X145038094Y-74478628D01*
X144085713Y-74050057D02*
X144038094Y-74002438D01*
X144038094Y-74002438D02*
X143942856Y-73954819D01*
X143942856Y-73954819D02*
X143704761Y-73954819D01*
X143704761Y-73954819D02*
X143609523Y-74002438D01*
X143609523Y-74002438D02*
X143561904Y-74050057D01*
X143561904Y-74050057D02*
X143514285Y-74145295D01*
X143514285Y-74145295D02*
X143514285Y-74240533D01*
X143514285Y-74240533D02*
X143561904Y-74383390D01*
X143561904Y-74383390D02*
X144133332Y-74954819D01*
X144133332Y-74954819D02*
X143514285Y-74954819D01*
X142211904Y-73954819D02*
X142402380Y-73954819D01*
X142402380Y-73954819D02*
X142497618Y-74002438D01*
X142497618Y-74002438D02*
X142545237Y-74050057D01*
X142545237Y-74050057D02*
X142640475Y-74192914D01*
X142640475Y-74192914D02*
X142688094Y-74383390D01*
X142688094Y-74383390D02*
X142688094Y-74764342D01*
X142688094Y-74764342D02*
X142640475Y-74859580D01*
X142640475Y-74859580D02*
X142592856Y-74907200D01*
X142592856Y-74907200D02*
X142497618Y-74954819D01*
X142497618Y-74954819D02*
X142307142Y-74954819D01*
X142307142Y-74954819D02*
X142211904Y-74907200D01*
X142211904Y-74907200D02*
X142164285Y-74859580D01*
X142164285Y-74859580D02*
X142116666Y-74764342D01*
X142116666Y-74764342D02*
X142116666Y-74526247D01*
X142116666Y-74526247D02*
X142164285Y-74431009D01*
X142164285Y-74431009D02*
X142211904Y-74383390D01*
X142211904Y-74383390D02*
X142307142Y-74335771D01*
X142307142Y-74335771D02*
X142497618Y-74335771D01*
X142497618Y-74335771D02*
X142592856Y-74383390D01*
X142592856Y-74383390D02*
X142640475Y-74431009D01*
X142640475Y-74431009D02*
X142688094Y-74526247D01*
X141545237Y-74383390D02*
X141640475Y-74335771D01*
X141640475Y-74335771D02*
X141688094Y-74288152D01*
X141688094Y-74288152D02*
X141735713Y-74192914D01*
X141735713Y-74192914D02*
X141735713Y-74145295D01*
X141735713Y-74145295D02*
X141688094Y-74050057D01*
X141688094Y-74050057D02*
X141640475Y-74002438D01*
X141640475Y-74002438D02*
X141545237Y-73954819D01*
X141545237Y-73954819D02*
X141354761Y-73954819D01*
X141354761Y-73954819D02*
X141259523Y-74002438D01*
X141259523Y-74002438D02*
X141211904Y-74050057D01*
X141211904Y-74050057D02*
X141164285Y-74145295D01*
X141164285Y-74145295D02*
X141164285Y-74192914D01*
X141164285Y-74192914D02*
X141211904Y-74288152D01*
X141211904Y-74288152D02*
X141259523Y-74335771D01*
X141259523Y-74335771D02*
X141354761Y-74383390D01*
X141354761Y-74383390D02*
X141545237Y-74383390D01*
X141545237Y-74383390D02*
X141640475Y-74431009D01*
X141640475Y-74431009D02*
X141688094Y-74478628D01*
X141688094Y-74478628D02*
X141735713Y-74573866D01*
X141735713Y-74573866D02*
X141735713Y-74764342D01*
X141735713Y-74764342D02*
X141688094Y-74859580D01*
X141688094Y-74859580D02*
X141640475Y-74907200D01*
X141640475Y-74907200D02*
X141545237Y-74954819D01*
X141545237Y-74954819D02*
X141354761Y-74954819D01*
X141354761Y-74954819D02*
X141259523Y-74907200D01*
X141259523Y-74907200D02*
X141211904Y-74859580D01*
X141211904Y-74859580D02*
X141164285Y-74764342D01*
X141164285Y-74764342D02*
X141164285Y-74573866D01*
X141164285Y-74573866D02*
X141211904Y-74478628D01*
X141211904Y-74478628D02*
X141259523Y-74431009D01*
X141259523Y-74431009D02*
X141354761Y-74383390D01*
X140545237Y-73954819D02*
X140449999Y-73954819D01*
X140449999Y-73954819D02*
X140354761Y-74002438D01*
X140354761Y-74002438D02*
X140307142Y-74050057D01*
X140307142Y-74050057D02*
X140259523Y-74145295D01*
X140259523Y-74145295D02*
X140211904Y-74335771D01*
X140211904Y-74335771D02*
X140211904Y-74573866D01*
X140211904Y-74573866D02*
X140259523Y-74764342D01*
X140259523Y-74764342D02*
X140307142Y-74859580D01*
X140307142Y-74859580D02*
X140354761Y-74907200D01*
X140354761Y-74907200D02*
X140449999Y-74954819D01*
X140449999Y-74954819D02*
X140545237Y-74954819D01*
X140545237Y-74954819D02*
X140640475Y-74907200D01*
X140640475Y-74907200D02*
X140688094Y-74859580D01*
X140688094Y-74859580D02*
X140735713Y-74764342D01*
X140735713Y-74764342D02*
X140783332Y-74573866D01*
X140783332Y-74573866D02*
X140783332Y-74335771D01*
X140783332Y-74335771D02*
X140735713Y-74145295D01*
X140735713Y-74145295D02*
X140688094Y-74050057D01*
X140688094Y-74050057D02*
X140640475Y-74002438D01*
X140640475Y-74002438D02*
X140545237Y-73954819D01*
D11*
X128213748Y-71190000D02*
X129636252Y-71190000D01*
X128213748Y-73010000D02*
X129636252Y-73010000D01*
X154911252Y-71290000D02*
X153488748Y-71290000D01*
X154911252Y-73110000D02*
X153488748Y-73110000D01*
X145186252Y-69990000D02*
X143763748Y-69990000D01*
X145186252Y-71810000D02*
X143763748Y-71810000D01*
X145073752Y-78240000D02*
X143651248Y-78240000D01*
X145073752Y-80060000D02*
X143651248Y-80060000D01*
X141885436Y-67090000D02*
X143339564Y-67090000D01*
X141885436Y-68910000D02*
X143339564Y-68910000D01*
X141910436Y-75390000D02*
X143364564Y-75390000D01*
X141910436Y-77210000D02*
X143364564Y-77210000D01*
%LPC*%
D12*
X125700000Y-69100000D03*
X125700000Y-75100000D03*
X132700000Y-75100000D03*
X132700000Y-72100000D03*
X132700000Y-69100000D03*
D13*
X165000000Y-55000000D03*
D14*
X128700000Y-83650000D03*
X128700000Y-86190000D03*
X128700000Y-88730000D03*
D13*
X105000000Y-55000000D03*
X165000000Y-111000000D03*
D15*
X161220000Y-66750000D03*
X161220000Y-71830000D03*
X166300000Y-66750000D03*
X166300000Y-71830000D03*
D16*
X163860000Y-69215000D03*
D17*
X108050000Y-94700000D03*
D18*
X108050000Y-99700000D03*
D15*
X103370000Y-66870000D03*
X103370000Y-71950000D03*
X108450000Y-66870000D03*
X108450000Y-71950000D03*
D16*
X106010000Y-69335000D03*
D19*
X106950000Y-84450000D03*
X106950000Y-86950000D03*
D13*
X105000000Y-111000000D03*
D12*
X157500000Y-75200000D03*
X157500000Y-69200000D03*
X150500000Y-69200000D03*
X150500000Y-72200000D03*
X150500000Y-75200000D03*
D20*
X130400000Y-72100000D03*
X127450000Y-72100000D03*
D21*
X152725000Y-72200000D03*
X155675000Y-72200000D03*
X143000000Y-70900000D03*
X145950000Y-70900000D03*
X142887500Y-79150000D03*
X145837500Y-79150000D03*
D22*
X144075000Y-68000000D03*
X141150000Y-68000000D03*
X144100000Y-76300000D03*
X141175000Y-76300000D03*
%LPD*%
M02*
