G04 #@! TF.GenerationSoftware,KiCad,Pcbnew,8.0.6*
G04 #@! TF.CreationDate,2024-11-10T21:08:28-05:00*
G04 #@! TF.ProjectId,t41_2_low_power_amplifier,7434315f-325f-46c6-9f77-5f706f776572,rev?*
G04 #@! TF.SameCoordinates,Original*
G04 #@! TF.FileFunction,Soldermask,Bot*
G04 #@! TF.FilePolarity,Negative*
%FSLAX46Y46*%
G04 Gerber Fmt 4.6, Leading zero omitted, Abs format (unit mm)*
G04 Created by KiCad (PCBNEW 8.0.6) date 2024-11-10 21:08:28*
%MOMM*%
%LPD*%
G01*
G04 APERTURE LIST*
G04 Aperture macros list*
%AMRoundRect*
0 Rectangle with rounded corners*
0 $1 Rounding radius*
0 $2 $3 $4 $5 $6 $7 $8 $9 X,Y pos of 4 corners*
0 Add a 4 corners polygon primitive as box body*
4,1,4,$2,$3,$4,$5,$6,$7,$8,$9,$2,$3,0*
0 Add four circle primitives for the rounded corners*
1,1,$1+$1,$2,$3*
1,1,$1+$1,$4,$5*
1,1,$1+$1,$6,$7*
1,1,$1+$1,$8,$9*
0 Add four rect primitives between the rounded corners*
20,1,$1+$1,$2,$3,$4,$5,0*
20,1,$1+$1,$4,$5,$6,$7,0*
20,1,$1+$1,$6,$7,$8,$9,0*
20,1,$1+$1,$8,$9,$2,$3,0*%
G04 Aperture macros list end*
%ADD10C,1.440000*%
%ADD11C,2.000000*%
%ADD12C,7.500000*%
%ADD13C,2.600000*%
%ADD14C,2.500000*%
%ADD15R,2.400000X2.400000*%
%ADD16C,2.400000*%
%ADD17C,2.100000*%
%ADD18RoundRect,0.250000X0.325000X0.650000X-0.325000X0.650000X-0.325000X-0.650000X0.325000X-0.650000X0*%
%ADD19RoundRect,0.250000X-0.325000X-0.650000X0.325000X-0.650000X0.325000X0.650000X-0.325000X0.650000X0*%
%ADD20RoundRect,0.250000X0.312500X0.625000X-0.312500X0.625000X-0.312500X-0.625000X0.312500X-0.625000X0*%
G04 APERTURE END LIST*
D10*
X149400000Y-60400000D03*
X151940000Y-60400000D03*
X154480000Y-60400000D03*
D11*
X130100000Y-71500000D03*
X130100000Y-77500000D03*
X146100000Y-77500000D03*
X146100000Y-74500000D03*
X146100000Y-71500000D03*
D12*
X195000000Y-55000000D03*
D10*
X149260000Y-89100000D03*
X151800000Y-89100000D03*
X154340000Y-89100000D03*
D12*
X105000000Y-55000000D03*
X195000000Y-121000000D03*
D13*
X184520000Y-69000000D03*
X184520000Y-74080000D03*
X189600000Y-69000000D03*
X189600000Y-74080000D03*
D14*
X187160000Y-71465000D03*
D15*
X108050000Y-104150000D03*
D16*
X108050000Y-109150000D03*
D13*
X103370000Y-66870000D03*
X103370000Y-71950000D03*
X108450000Y-66870000D03*
X108450000Y-71950000D03*
D14*
X106010000Y-69335000D03*
D17*
X106950000Y-93900000D03*
X106950000Y-96400000D03*
D12*
X105000000Y-121000000D03*
D11*
X180600000Y-77500000D03*
X180600000Y-71500000D03*
X164600000Y-71500000D03*
X164600000Y-74500000D03*
X164600000Y-77500000D03*
D18*
X151537500Y-78600000D03*
X148587500Y-78600000D03*
D19*
X166825000Y-74500000D03*
X169775000Y-74500000D03*
X157100000Y-73200000D03*
X160050000Y-73200000D03*
X156987500Y-81450000D03*
X159937500Y-81450000D03*
D18*
X151550000Y-70300000D03*
X148600000Y-70300000D03*
D20*
X158175000Y-70300000D03*
X155250000Y-70300000D03*
X158200000Y-78600000D03*
X155275000Y-78600000D03*
M02*
