M48
; DRILL file {KiCad 8.0.6} date 2024-12-01T18:53:26-0500
; FORMAT={-:-/ absolute / metric / decimal}
; #@! TF.CreationDate,2024-12-01T18:53:26-05:00
; #@! TF.GenerationSoftware,Kicad,Pcbnew,8.0.6
; #@! TF.FileFunction,Plated,1,2,PTH
FMAT,2
METRIC
; #@! TA.AperFunction,Plated,PTH,ViaDrill
T1C0.500
; #@! TA.AperFunction,Plated,PTH,ComponentDrill
T2C0.800
; #@! TA.AperFunction,Plated,PTH,ComponentDrill
T3C1.000
; #@! TA.AperFunction,Plated,PTH,ComponentDrill
T4C1.100
; #@! TA.AperFunction,Plated,PTH,ComponentDrill
T5C1.200
; #@! TA.AperFunction,Plated,PTH,ComponentDrill
T6C1.500
; #@! TA.AperFunction,Plated,PTH,ComponentDrill
T7C1.600
; #@! TA.AperFunction,Plated,PTH,ComponentDrill
T8C4.300
%
G90
G05
T1
X106.9Y-84.6
X111.55Y-92.65
X111.95Y-76.7
X113.35Y-63.05
X114.9Y-76.7
X116.0Y-102.45
X116.45Y-64.7
X116.5Y-90.4
X116.85Y-73.65
X117.7Y-86.5
X117.95Y-75.55
X118.1Y-81.3
X118.6Y-113.7
X119.35Y-70.45
X119.4Y-73.4
X120.35Y-97.75
X120.85Y-78.45
X122.65Y-82.0
X124.1Y-70.5
X124.1Y-76.9
X124.6Y-67.3
X125.2Y-62.8
X125.3Y-92.8
X126.7Y-101.85
X127.2Y-80.7
X128.0Y-90.25
X128.1Y-72.1
X129.3Y-74.05
X129.9Y-101.8
X130.2Y-70.0
X131.6Y-83.0
X131.85Y-107.2
X132.2Y-78.2
X133.8Y-74.1
X133.85Y-70.1
X136.7Y-65.5
X136.7Y-78.8
X137.05Y-70.6
X137.05Y-73.6
X138.6Y-63.35
X138.6Y-81.0
X140.5Y-102.3
X140.6Y-111.2
X140.9Y-94.6
X141.2Y-91.8
X142.287Y-76.3
X142.3Y-68.0
X142.85Y-72.15
X144.2Y-80.55
X144.3Y-63.65
X144.6Y-96.1
X145.5Y-102.4
X146.1Y-93.9
X146.45Y-65.65
X146.55Y-73.95
X147.0Y-106.0
X147.35Y-80.9
X148.55Y-65.65
X148.6Y-73.95
X150.5Y-65.0
X150.537Y-79.15
X150.55Y-70.9
X150.55Y-73.3
X151.25Y-80.6
X151.65Y-97.55
X152.7Y-67.05
X152.7Y-77.3
X154.8Y-94.2
X155.4Y-70.1
X155.4Y-76.2
X155.6Y-83.8
X155.6Y-89.8
X158.05Y-103.95
X158.7Y-70.1
X158.7Y-74.3
X158.8Y-83.8
X159.8Y-94.6
X160.4Y-72.2
T2
X129.7Y-85.65
X132.24Y-85.65
X134.78Y-85.65
T3
X125.7Y-69.1
X125.7Y-75.1
X135.7Y-69.1
X135.7Y-72.1
X135.7Y-75.1
X153.3Y-69.2
X153.3Y-72.2
X153.3Y-75.2
X163.3Y-69.2
X163.3Y-75.2
T4
X106.95Y-93.9
X106.95Y-96.4
T5
X108.05Y-104.15
X108.05Y-109.15
T6
X106.01Y-69.335
X169.8Y-69.335
T7
X103.37Y-66.87
X103.37Y-71.95
X108.45Y-66.87
X108.45Y-71.95
X167.16Y-66.87
X167.16Y-71.95
X172.24Y-66.87
X172.24Y-71.95
T8
X105.0Y-55.0
X105.0Y-121.0
X170.7Y-121.0
X170.75Y-55.0
M30
