G04 #@! TF.GenerationSoftware,KiCad,Pcbnew,8.0.6*
G04 #@! TF.CreationDate,2024-12-01T18:53:23-05:00*
G04 #@! TF.ProjectId,t41_2_low_power_amplifier,7434315f-325f-46c6-9f77-5f706f776572,rev?*
G04 #@! TF.SameCoordinates,Original*
G04 #@! TF.FileFunction,Copper,L2,Bot*
G04 #@! TF.FilePolarity,Positive*
%FSLAX46Y46*%
G04 Gerber Fmt 4.6, Leading zero omitted, Abs format (unit mm)*
G04 Created by KiCad (PCBNEW 8.0.6) date 2024-12-01 18:53:23*
%MOMM*%
%LPD*%
G01*
G04 APERTURE LIST*
G04 Aperture macros list*
%AMRoundRect*
0 Rectangle with rounded corners*
0 $1 Rounding radius*
0 $2 $3 $4 $5 $6 $7 $8 $9 X,Y pos of 4 corners*
0 Add a 4 corners polygon primitive as box body*
4,1,4,$2,$3,$4,$5,$6,$7,$8,$9,$2,$3,0*
0 Add four circle primitives for the rounded corners*
1,1,$1+$1,$2,$3*
1,1,$1+$1,$4,$5*
1,1,$1+$1,$6,$7*
1,1,$1+$1,$8,$9*
0 Add four rect primitives between the rounded corners*
20,1,$1+$1,$2,$3,$4,$5,0*
20,1,$1+$1,$4,$5,$6,$7,0*
20,1,$1+$1,$6,$7,$8,$9,0*
20,1,$1+$1,$8,$9,$2,$3,0*%
G04 Aperture macros list end*
G04 #@! TA.AperFunction,ComponentPad*
%ADD10C,7.500000*%
G04 #@! TD*
G04 #@! TA.AperFunction,ComponentPad*
%ADD11C,2.000000*%
G04 #@! TD*
G04 #@! TA.AperFunction,ComponentPad*
%ADD12C,1.440000*%
G04 #@! TD*
G04 #@! TA.AperFunction,ComponentPad*
%ADD13C,2.600000*%
G04 #@! TD*
G04 #@! TA.AperFunction,ComponentPad*
%ADD14C,2.500000*%
G04 #@! TD*
G04 #@! TA.AperFunction,ComponentPad*
%ADD15R,2.400000X2.400000*%
G04 #@! TD*
G04 #@! TA.AperFunction,ComponentPad*
%ADD16C,2.400000*%
G04 #@! TD*
G04 #@! TA.AperFunction,ComponentPad*
%ADD17C,2.100000*%
G04 #@! TD*
G04 #@! TA.AperFunction,SMDPad,CuDef*
%ADD18RoundRect,0.250000X0.325000X0.650000X-0.325000X0.650000X-0.325000X-0.650000X0.325000X-0.650000X0*%
G04 #@! TD*
G04 #@! TA.AperFunction,SMDPad,CuDef*
%ADD19RoundRect,0.250000X-0.325000X-0.650000X0.325000X-0.650000X0.325000X0.650000X-0.325000X0.650000X0*%
G04 #@! TD*
G04 #@! TA.AperFunction,SMDPad,CuDef*
%ADD20RoundRect,0.150000X0.512500X0.150000X-0.512500X0.150000X-0.512500X-0.150000X0.512500X-0.150000X0*%
G04 #@! TD*
G04 #@! TA.AperFunction,SMDPad,CuDef*
%ADD21RoundRect,0.250000X0.625000X-0.312500X0.625000X0.312500X-0.625000X0.312500X-0.625000X-0.312500X0*%
G04 #@! TD*
G04 #@! TA.AperFunction,SMDPad,CuDef*
%ADD22RoundRect,0.250000X0.312500X0.625000X-0.312500X0.625000X-0.312500X-0.625000X0.312500X-0.625000X0*%
G04 #@! TD*
G04 #@! TA.AperFunction,ViaPad*
%ADD23C,1.000000*%
G04 #@! TD*
G04 #@! TA.AperFunction,Conductor*
%ADD24C,0.500000*%
G04 #@! TD*
G04 #@! TA.AperFunction,Conductor*
%ADD25C,0.750000*%
G04 #@! TD*
G04 #@! TA.AperFunction,Conductor*
%ADD26C,1.000000*%
G04 #@! TD*
G04 APERTURE END LIST*
D10*
X170750000Y-55000000D03*
D11*
X125700000Y-69100000D03*
X125700000Y-75100000D03*
X135700000Y-75100000D03*
X135700000Y-72100000D03*
X135700000Y-69100000D03*
D12*
X129700000Y-85650000D03*
X132240000Y-85650000D03*
X134780000Y-85650000D03*
D10*
X105000000Y-55000000D03*
X170700000Y-121000000D03*
D13*
X167160000Y-66870000D03*
X167160000Y-71950000D03*
X172240000Y-66870000D03*
X172240000Y-71950000D03*
D14*
X169800000Y-69335000D03*
D15*
X108050000Y-104150000D03*
D16*
X108050000Y-109150000D03*
D13*
X103370000Y-66870000D03*
X103370000Y-71950000D03*
X108450000Y-66870000D03*
X108450000Y-71950000D03*
D14*
X106010000Y-69335000D03*
D17*
X106950000Y-93900000D03*
X106950000Y-96400000D03*
D10*
X105000000Y-121000000D03*
D11*
X163300000Y-75200000D03*
X163300000Y-69200000D03*
X153300000Y-69200000D03*
X153300000Y-72200000D03*
X153300000Y-75200000D03*
D18*
X133150000Y-72100000D03*
X130200000Y-72100000D03*
D19*
X155725000Y-72200000D03*
X158675000Y-72200000D03*
D20*
X141300000Y-71150000D03*
X141300000Y-73050000D03*
X139025000Y-72100000D03*
D19*
X146000000Y-70900000D03*
X148950000Y-70900000D03*
D21*
X139500000Y-78450000D03*
X139500000Y-75525000D03*
D19*
X145887500Y-79150000D03*
X148837500Y-79150000D03*
D22*
X147075000Y-68000000D03*
X144150000Y-68000000D03*
X147100000Y-76300000D03*
X144175000Y-76300000D03*
D23*
X124100000Y-70500000D03*
X124100000Y-76900000D03*
X155600000Y-89800000D03*
X118100000Y-81300000D03*
X117700000Y-86500000D03*
X114900000Y-76700000D03*
X146450000Y-65650000D03*
X155400000Y-76200000D03*
X128000000Y-90250000D03*
X126700000Y-101850000D03*
X113350000Y-63050000D03*
X150500000Y-65000000D03*
X125300000Y-92800000D03*
X144300000Y-63650000D03*
X127200000Y-80700000D03*
X151650000Y-97550000D03*
X145500000Y-102400000D03*
X141200000Y-91800000D03*
X129900000Y-101800000D03*
X142850000Y-72150000D03*
X133800000Y-74100000D03*
X137050000Y-70600000D03*
X128100000Y-72100000D03*
X155400000Y-70100000D03*
X125200000Y-62800000D03*
X138600000Y-63350000D03*
X120350000Y-97750000D03*
X122650000Y-82000000D03*
X111550000Y-92650000D03*
X150550000Y-73300000D03*
X120850000Y-78450000D03*
X133850000Y-70100000D03*
X160400000Y-72200000D03*
X111950000Y-76700000D03*
X132200000Y-78200000D03*
X155600000Y-83800000D03*
X158800000Y-83800000D03*
X119400000Y-73400000D03*
X154800000Y-94200000D03*
X116000000Y-102450000D03*
X144600000Y-96100000D03*
X137050000Y-73600000D03*
X151250000Y-80600000D03*
X146550000Y-73950000D03*
X147000000Y-106000000D03*
X159800000Y-94600000D03*
X158050000Y-103950000D03*
X117950000Y-75550000D03*
X131600000Y-83000000D03*
X146100000Y-93900000D03*
X140900000Y-94600000D03*
X106900000Y-84600000D03*
X118600000Y-113700000D03*
X152700000Y-77300000D03*
X124600000Y-67300000D03*
X158700000Y-74300000D03*
X138600000Y-81000000D03*
X144200000Y-80550000D03*
X140600000Y-111200000D03*
X152700000Y-67050000D03*
X130200000Y-70000000D03*
X119350000Y-70450000D03*
X131850000Y-107200000D03*
X158700000Y-70100000D03*
X147350000Y-80900000D03*
X136700000Y-65500000D03*
X116500000Y-90400000D03*
X116450000Y-64700000D03*
X148600000Y-73950000D03*
X140500000Y-102300000D03*
X148550000Y-65650000D03*
X116850000Y-73650000D03*
X136700000Y-78800000D03*
X129300000Y-74050000D03*
X150550000Y-70900000D03*
X150537500Y-79150000D03*
X142300000Y-68000000D03*
X142287500Y-76300000D03*
D24*
X146000000Y-70900000D02*
X146000000Y-69075000D01*
X146000000Y-69075000D02*
X147075000Y-68000000D01*
X140350000Y-72100000D02*
X141300000Y-71150000D01*
D25*
X135700000Y-72100000D02*
X133150000Y-72100000D01*
D24*
X135700000Y-72100000D02*
X139025000Y-72100000D01*
X139025000Y-72100000D02*
X140350000Y-72100000D01*
X150550000Y-70900000D02*
X148950000Y-70900000D01*
X145887500Y-79150000D02*
X145887500Y-77512500D01*
X145887500Y-77512500D02*
X147100000Y-76300000D01*
X150537500Y-79150000D02*
X148837500Y-79150000D01*
D25*
X142300000Y-68000000D02*
X144150000Y-68000000D01*
X142287500Y-76300000D02*
X144175000Y-76300000D01*
D26*
X155725000Y-72200000D02*
X153500000Y-72200000D01*
D24*
X139500000Y-75525000D02*
X141300000Y-73725000D01*
X141300000Y-73725000D02*
X141300000Y-73050000D01*
D25*
X129700000Y-85650000D02*
X125700000Y-81650000D01*
X125700000Y-81650000D02*
X125700000Y-75100000D01*
G04 #@! TA.AperFunction,Conductor*
G36*
X175192539Y-50520185D02*
G01*
X175238294Y-50572989D01*
X175249500Y-50624500D01*
X175249500Y-54927373D01*
X175229815Y-54994412D01*
X175221757Y-55001393D01*
X175246005Y-55043392D01*
X175249500Y-55072626D01*
X175249500Y-125625500D01*
X175229815Y-125692539D01*
X175177011Y-125738294D01*
X175125500Y-125749500D01*
X100624500Y-125749500D01*
X100557461Y-125729815D01*
X100511706Y-125677011D01*
X100500500Y-125625500D01*
X100500500Y-121072626D01*
X100520185Y-121005587D01*
X100523400Y-121002801D01*
X100721054Y-121002801D01*
X100743477Y-121037691D01*
X100748360Y-121066726D01*
X100764447Y-121404450D01*
X100822071Y-121805231D01*
X100917531Y-122198722D01*
X100917534Y-122198733D01*
X101049956Y-122581340D01*
X101049966Y-122581365D01*
X101218168Y-122949675D01*
X101420621Y-123300335D01*
X101420627Y-123300343D01*
X101655485Y-123630154D01*
X101822985Y-123823460D01*
X103313098Y-122333347D01*
X103380076Y-122420635D01*
X103579365Y-122619924D01*
X103666650Y-122686900D01*
X102174928Y-124178622D01*
X102213676Y-124215568D01*
X102213695Y-124215585D01*
X102531968Y-124465877D01*
X102872594Y-124684782D01*
X103232485Y-124870319D01*
X103608383Y-125020806D01*
X103608395Y-125020810D01*
X103996882Y-125134880D01*
X103996899Y-125134884D01*
X104394460Y-125211508D01*
X104394472Y-125211510D01*
X104797554Y-125250000D01*
X105202446Y-125250000D01*
X105605527Y-125211510D01*
X105605539Y-125211508D01*
X106003100Y-125134884D01*
X106003117Y-125134880D01*
X106391604Y-125020810D01*
X106391616Y-125020806D01*
X106767507Y-124870322D01*
X106767511Y-124870320D01*
X107127406Y-124684782D01*
X107468031Y-124465877D01*
X107786314Y-124215578D01*
X107825069Y-124178622D01*
X106333348Y-122686901D01*
X106420635Y-122619924D01*
X106619924Y-122420635D01*
X106686901Y-122333348D01*
X108177012Y-123823459D01*
X108344512Y-123630156D01*
X108344523Y-123630143D01*
X108579372Y-123300343D01*
X108579378Y-123300335D01*
X108781831Y-122949675D01*
X108950033Y-122581365D01*
X108950043Y-122581340D01*
X109082465Y-122198733D01*
X109082468Y-122198722D01*
X109177928Y-121805231D01*
X109235552Y-121404450D01*
X109254818Y-121000000D01*
X166445181Y-121000000D01*
X166464447Y-121404450D01*
X166522071Y-121805231D01*
X166617531Y-122198722D01*
X166617534Y-122198733D01*
X166749956Y-122581340D01*
X166749966Y-122581365D01*
X166918168Y-122949675D01*
X167120621Y-123300335D01*
X167120627Y-123300343D01*
X167355485Y-123630154D01*
X167522985Y-123823460D01*
X169013098Y-122333347D01*
X169080076Y-122420635D01*
X169279365Y-122619924D01*
X169366650Y-122686900D01*
X167874928Y-124178622D01*
X167913676Y-124215568D01*
X167913695Y-124215585D01*
X168231968Y-124465877D01*
X168572594Y-124684782D01*
X168932485Y-124870319D01*
X169308383Y-125020806D01*
X169308395Y-125020810D01*
X169696882Y-125134880D01*
X169696899Y-125134884D01*
X170094460Y-125211508D01*
X170094472Y-125211510D01*
X170497554Y-125250000D01*
X170902446Y-125250000D01*
X171305527Y-125211510D01*
X171305539Y-125211508D01*
X171703100Y-125134884D01*
X171703117Y-125134880D01*
X172091604Y-125020810D01*
X172091616Y-125020806D01*
X172467507Y-124870322D01*
X172467511Y-124870320D01*
X172827406Y-124684782D01*
X173168031Y-124465877D01*
X173486314Y-124215578D01*
X173525069Y-124178622D01*
X172033348Y-122686901D01*
X172120635Y-122619924D01*
X172319924Y-122420635D01*
X172386901Y-122333348D01*
X173877012Y-123823459D01*
X174044512Y-123630156D01*
X174044523Y-123630143D01*
X174279372Y-123300343D01*
X174279378Y-123300335D01*
X174481831Y-122949675D01*
X174650033Y-122581365D01*
X174650043Y-122581340D01*
X174782465Y-122198733D01*
X174782468Y-122198722D01*
X174877928Y-121805231D01*
X174935552Y-121404450D01*
X174954818Y-121000000D01*
X174935552Y-120595549D01*
X174877928Y-120194768D01*
X174782468Y-119801277D01*
X174782465Y-119801266D01*
X174650043Y-119418659D01*
X174650033Y-119418634D01*
X174481831Y-119050324D01*
X174279378Y-118699664D01*
X174279372Y-118699656D01*
X174044523Y-118369856D01*
X174044512Y-118369843D01*
X173877013Y-118176538D01*
X172386900Y-119666650D01*
X172319924Y-119579365D01*
X172120635Y-119380076D01*
X172033348Y-119313098D01*
X173525070Y-117821376D01*
X173486323Y-117784431D01*
X173486304Y-117784414D01*
X173168031Y-117534122D01*
X172827406Y-117315217D01*
X172467511Y-117129679D01*
X172467507Y-117129677D01*
X172091616Y-116979193D01*
X172091604Y-116979189D01*
X171703117Y-116865119D01*
X171703100Y-116865115D01*
X171305539Y-116788491D01*
X171305527Y-116788489D01*
X170902446Y-116750000D01*
X170497554Y-116750000D01*
X170094472Y-116788489D01*
X170094460Y-116788491D01*
X169696899Y-116865115D01*
X169696882Y-116865119D01*
X169308395Y-116979189D01*
X169308383Y-116979193D01*
X168932485Y-117129680D01*
X168572594Y-117315217D01*
X168231968Y-117534122D01*
X167913685Y-117784421D01*
X167913673Y-117784432D01*
X167874929Y-117821375D01*
X167874929Y-117821376D01*
X169366651Y-119313098D01*
X169279365Y-119380076D01*
X169080076Y-119579365D01*
X169013098Y-119666651D01*
X167522986Y-118176539D01*
X167355485Y-118369845D01*
X167120627Y-118699656D01*
X167120621Y-118699664D01*
X166918168Y-119050324D01*
X166749966Y-119418634D01*
X166749956Y-119418659D01*
X166617534Y-119801266D01*
X166617531Y-119801277D01*
X166522071Y-120194768D01*
X166464447Y-120595549D01*
X166445181Y-121000000D01*
X109254818Y-121000000D01*
X109235552Y-120595549D01*
X109177928Y-120194768D01*
X109082468Y-119801277D01*
X109082465Y-119801266D01*
X108950043Y-119418659D01*
X108950033Y-119418634D01*
X108781831Y-119050324D01*
X108579378Y-118699664D01*
X108579372Y-118699656D01*
X108344523Y-118369856D01*
X108344512Y-118369843D01*
X108177013Y-118176538D01*
X106686900Y-119666650D01*
X106619924Y-119579365D01*
X106420635Y-119380076D01*
X106333348Y-119313098D01*
X107825070Y-117821376D01*
X107786323Y-117784431D01*
X107786304Y-117784414D01*
X107468031Y-117534122D01*
X107127406Y-117315217D01*
X106767511Y-117129679D01*
X106767507Y-117129677D01*
X106391616Y-116979193D01*
X106391604Y-116979189D01*
X106003117Y-116865119D01*
X106003100Y-116865115D01*
X105605539Y-116788491D01*
X105605527Y-116788489D01*
X105202446Y-116750000D01*
X104797554Y-116750000D01*
X104394472Y-116788489D01*
X104394460Y-116788491D01*
X103996899Y-116865115D01*
X103996882Y-116865119D01*
X103608395Y-116979189D01*
X103608383Y-116979193D01*
X103232485Y-117129680D01*
X102872594Y-117315217D01*
X102531968Y-117534122D01*
X102213685Y-117784421D01*
X102213673Y-117784432D01*
X102174929Y-117821375D01*
X102174929Y-117821376D01*
X103666651Y-119313098D01*
X103579365Y-119380076D01*
X103380076Y-119579365D01*
X103313098Y-119666651D01*
X101822986Y-118176539D01*
X101655485Y-118369845D01*
X101420627Y-118699656D01*
X101420621Y-118699664D01*
X101218168Y-119050324D01*
X101049966Y-119418634D01*
X101049956Y-119418659D01*
X100917534Y-119801266D01*
X100917531Y-119801277D01*
X100822071Y-120194768D01*
X100764447Y-120595549D01*
X100748360Y-120933273D01*
X100725507Y-120999300D01*
X100721054Y-121002801D01*
X100523400Y-121002801D01*
X100528242Y-120998605D01*
X100503995Y-120956607D01*
X100500500Y-120927373D01*
X100500500Y-109149995D01*
X106345233Y-109149995D01*
X106345233Y-109150004D01*
X106364273Y-109404079D01*
X106420968Y-109652477D01*
X106420973Y-109652494D01*
X106514058Y-109889671D01*
X106514057Y-109889671D01*
X106641454Y-110110327D01*
X106641461Y-110110338D01*
X106683452Y-110162991D01*
X106683453Y-110162992D01*
X107485387Y-109361058D01*
X107490889Y-109381591D01*
X107569881Y-109518408D01*
X107681592Y-109630119D01*
X107818409Y-109709111D01*
X107838940Y-109714612D01*
X107036813Y-110516738D01*
X107197616Y-110626371D01*
X107197624Y-110626376D01*
X107427176Y-110736921D01*
X107427174Y-110736921D01*
X107670652Y-110812024D01*
X107670658Y-110812026D01*
X107922595Y-110849999D01*
X107922604Y-110850000D01*
X108177396Y-110850000D01*
X108177404Y-110849999D01*
X108429341Y-110812026D01*
X108429347Y-110812024D01*
X108672824Y-110736921D01*
X108902376Y-110626376D01*
X108902377Y-110626375D01*
X109063185Y-110516738D01*
X108261060Y-109714612D01*
X108281591Y-109709111D01*
X108418408Y-109630119D01*
X108530119Y-109518408D01*
X108609111Y-109381591D01*
X108614612Y-109361059D01*
X109416544Y-110162992D01*
X109416546Y-110162991D01*
X109458544Y-110110330D01*
X109585941Y-109889671D01*
X109679026Y-109652494D01*
X109679031Y-109652477D01*
X109735726Y-109404079D01*
X109754767Y-109150004D01*
X109754767Y-109149995D01*
X109735726Y-108895920D01*
X109679031Y-108647522D01*
X109679026Y-108647505D01*
X109585941Y-108410328D01*
X109585942Y-108410328D01*
X109458545Y-108189672D01*
X109416545Y-108137006D01*
X108614612Y-108938939D01*
X108609111Y-108918409D01*
X108530119Y-108781592D01*
X108418408Y-108669881D01*
X108281591Y-108590889D01*
X108261059Y-108585387D01*
X109063185Y-107783260D01*
X108902384Y-107673628D01*
X108902376Y-107673623D01*
X108672823Y-107563078D01*
X108672825Y-107563078D01*
X108429347Y-107487975D01*
X108429341Y-107487973D01*
X108177404Y-107450000D01*
X107922595Y-107450000D01*
X107670658Y-107487973D01*
X107670652Y-107487975D01*
X107427175Y-107563078D01*
X107197622Y-107673625D01*
X107197609Y-107673632D01*
X107036813Y-107783259D01*
X107838941Y-108585387D01*
X107818409Y-108590889D01*
X107681592Y-108669881D01*
X107569881Y-108781592D01*
X107490889Y-108918409D01*
X107485387Y-108938940D01*
X106683452Y-108137006D01*
X106641457Y-108189667D01*
X106514058Y-108410328D01*
X106420973Y-108647505D01*
X106420968Y-108647522D01*
X106364273Y-108895920D01*
X106345233Y-109149995D01*
X100500500Y-109149995D01*
X100500500Y-102902135D01*
X106349500Y-102902135D01*
X106349500Y-105397870D01*
X106349501Y-105397876D01*
X106355908Y-105457483D01*
X106406202Y-105592328D01*
X106406206Y-105592335D01*
X106492452Y-105707544D01*
X106492455Y-105707547D01*
X106607664Y-105793793D01*
X106607671Y-105793797D01*
X106742517Y-105844091D01*
X106742516Y-105844091D01*
X106749444Y-105844835D01*
X106802127Y-105850500D01*
X109297872Y-105850499D01*
X109357483Y-105844091D01*
X109492331Y-105793796D01*
X109607546Y-105707546D01*
X109693796Y-105592331D01*
X109744091Y-105457483D01*
X109750500Y-105397873D01*
X109750499Y-102902128D01*
X109744091Y-102842517D01*
X109693796Y-102707669D01*
X109693795Y-102707668D01*
X109693793Y-102707664D01*
X109607547Y-102592455D01*
X109607544Y-102592452D01*
X109492335Y-102506206D01*
X109492328Y-102506202D01*
X109357482Y-102455908D01*
X109357483Y-102455908D01*
X109297883Y-102449501D01*
X109297881Y-102449500D01*
X109297873Y-102449500D01*
X109297864Y-102449500D01*
X106802129Y-102449500D01*
X106802123Y-102449501D01*
X106742516Y-102455908D01*
X106607671Y-102506202D01*
X106607664Y-102506206D01*
X106492455Y-102592452D01*
X106492452Y-102592455D01*
X106406206Y-102707664D01*
X106406202Y-102707671D01*
X106355908Y-102842517D01*
X106349501Y-102902116D01*
X106349501Y-102902123D01*
X106349500Y-102902135D01*
X100500500Y-102902135D01*
X100500500Y-93900000D01*
X105394706Y-93900000D01*
X105413853Y-94143297D01*
X105470830Y-94380619D01*
X105564222Y-94606089D01*
X105691737Y-94814173D01*
X105691738Y-94814176D01*
X105691741Y-94814179D01*
X105850241Y-94999759D01*
X105915750Y-95055709D01*
X105915751Y-95055710D01*
X105953944Y-95114217D01*
X105954442Y-95184085D01*
X105917088Y-95243131D01*
X105915751Y-95244290D01*
X105850241Y-95300241D01*
X105691738Y-95485823D01*
X105691737Y-95485826D01*
X105564222Y-95693910D01*
X105470830Y-95919380D01*
X105413853Y-96156702D01*
X105394706Y-96400000D01*
X105413853Y-96643297D01*
X105470830Y-96880619D01*
X105564222Y-97106089D01*
X105691737Y-97314173D01*
X105691738Y-97314176D01*
X105691741Y-97314179D01*
X105850241Y-97499759D01*
X105993897Y-97622453D01*
X106035823Y-97658261D01*
X106035826Y-97658262D01*
X106243910Y-97785777D01*
X106469381Y-97879169D01*
X106469378Y-97879169D01*
X106469384Y-97879170D01*
X106469388Y-97879172D01*
X106706698Y-97936146D01*
X106950000Y-97955294D01*
X107193302Y-97936146D01*
X107430612Y-97879172D01*
X107656089Y-97785777D01*
X107864179Y-97658259D01*
X108049759Y-97499759D01*
X108208259Y-97314179D01*
X108335777Y-97106089D01*
X108429172Y-96880612D01*
X108486146Y-96643302D01*
X108505294Y-96400000D01*
X108486146Y-96156698D01*
X108429172Y-95919388D01*
X108335777Y-95693911D01*
X108335777Y-95693910D01*
X108208262Y-95485826D01*
X108208261Y-95485823D01*
X108049759Y-95300241D01*
X107984245Y-95244287D01*
X107946055Y-95185784D01*
X107945555Y-95115917D01*
X107982908Y-95056870D01*
X107984121Y-95055818D01*
X108049759Y-94999759D01*
X108208259Y-94814179D01*
X108335777Y-94606089D01*
X108429172Y-94380612D01*
X108486146Y-94143302D01*
X108505294Y-93900000D01*
X108486146Y-93656698D01*
X108429172Y-93419388D01*
X108335777Y-93193911D01*
X108335777Y-93193910D01*
X108208262Y-92985826D01*
X108208261Y-92985823D01*
X108172453Y-92943897D01*
X108049759Y-92800241D01*
X107927063Y-92695449D01*
X107864176Y-92641738D01*
X107864173Y-92641737D01*
X107656089Y-92514222D01*
X107430618Y-92420830D01*
X107430621Y-92420830D01*
X107324992Y-92395470D01*
X107193302Y-92363854D01*
X107193300Y-92363853D01*
X107193297Y-92363853D01*
X106950000Y-92344706D01*
X106706702Y-92363853D01*
X106469380Y-92420830D01*
X106243910Y-92514222D01*
X106035826Y-92641737D01*
X106035823Y-92641738D01*
X105850241Y-92800241D01*
X105691738Y-92985823D01*
X105691737Y-92985826D01*
X105564222Y-93193910D01*
X105470830Y-93419380D01*
X105413853Y-93656702D01*
X105394706Y-93900000D01*
X100500500Y-93900000D01*
X100500500Y-75099994D01*
X124194357Y-75099994D01*
X124194357Y-75100005D01*
X124214890Y-75347812D01*
X124214892Y-75347824D01*
X124275936Y-75588881D01*
X124375826Y-75816606D01*
X124511833Y-76024782D01*
X124511836Y-76024785D01*
X124680256Y-76207738D01*
X124776663Y-76282774D01*
X124817475Y-76339484D01*
X124824500Y-76380627D01*
X124824500Y-81736233D01*
X124858143Y-81905366D01*
X124858146Y-81905378D01*
X124924138Y-82064698D01*
X124924145Y-82064711D01*
X125019954Y-82208098D01*
X125019957Y-82208102D01*
X128444168Y-85632312D01*
X128477653Y-85693635D01*
X128480015Y-85709185D01*
X128493450Y-85862742D01*
X128493452Y-85862752D01*
X128548721Y-86069022D01*
X128548723Y-86069026D01*
X128548724Y-86069030D01*
X128591171Y-86160058D01*
X128638977Y-86262578D01*
X128761472Y-86437521D01*
X128912478Y-86588527D01*
X128912481Y-86588529D01*
X129087419Y-86711021D01*
X129087421Y-86711022D01*
X129087420Y-86711022D01*
X129151936Y-86741106D01*
X129280970Y-86801276D01*
X129487253Y-86856549D01*
X129639215Y-86869844D01*
X129699998Y-86875162D01*
X129700000Y-86875162D01*
X129700002Y-86875162D01*
X129753186Y-86870508D01*
X129912747Y-86856549D01*
X130119030Y-86801276D01*
X130312581Y-86711021D01*
X130487519Y-86588529D01*
X130638529Y-86437519D01*
X130761021Y-86262581D01*
X130851276Y-86069030D01*
X130851280Y-86069013D01*
X130853130Y-86063936D01*
X130855253Y-86064709D01*
X130886576Y-86013305D01*
X130949419Y-85982766D01*
X131018796Y-85991050D01*
X131072680Y-86035528D01*
X131085827Y-86064315D01*
X131086870Y-86063936D01*
X131088722Y-86069022D01*
X131088724Y-86069030D01*
X131131171Y-86160058D01*
X131178977Y-86262578D01*
X131301472Y-86437521D01*
X131452478Y-86588527D01*
X131452481Y-86588529D01*
X131627419Y-86711021D01*
X131627421Y-86711022D01*
X131627420Y-86711022D01*
X131691936Y-86741106D01*
X131820970Y-86801276D01*
X132027253Y-86856549D01*
X132179215Y-86869844D01*
X132239998Y-86875162D01*
X132240000Y-86875162D01*
X132240002Y-86875162D01*
X132293186Y-86870508D01*
X132452747Y-86856549D01*
X132659030Y-86801276D01*
X132852581Y-86711021D01*
X133027519Y-86588529D01*
X133178529Y-86437519D01*
X133301021Y-86262581D01*
X133391276Y-86069030D01*
X133391280Y-86069013D01*
X133393130Y-86063936D01*
X133394981Y-86064609D01*
X133426847Y-86012328D01*
X133489694Y-85981797D01*
X133559069Y-85990091D01*
X133612948Y-86034575D01*
X133626430Y-86064095D01*
X133627342Y-86063764D01*
X133629197Y-86068859D01*
X133719413Y-86262329D01*
X133758415Y-86318030D01*
X134380000Y-85696445D01*
X134380000Y-85702661D01*
X134407259Y-85804394D01*
X134459920Y-85895606D01*
X134534394Y-85970080D01*
X134625606Y-86022741D01*
X134727339Y-86050000D01*
X134733553Y-86050000D01*
X134111968Y-86671584D01*
X134167663Y-86710582D01*
X134167669Y-86710586D01*
X134361140Y-86800802D01*
X134361146Y-86800805D01*
X134567337Y-86856054D01*
X134567345Y-86856055D01*
X134779998Y-86874660D01*
X134780002Y-86874660D01*
X134992654Y-86856055D01*
X134992662Y-86856054D01*
X135198853Y-86800805D01*
X135198864Y-86800801D01*
X135392325Y-86710589D01*
X135448030Y-86671583D01*
X134826448Y-86050000D01*
X134832661Y-86050000D01*
X134934394Y-86022741D01*
X135025606Y-85970080D01*
X135100080Y-85895606D01*
X135152741Y-85804394D01*
X135180000Y-85702661D01*
X135180000Y-85696446D01*
X135801583Y-86318029D01*
X135840589Y-86262325D01*
X135930801Y-86068864D01*
X135930805Y-86068853D01*
X135986054Y-85862662D01*
X135986055Y-85862654D01*
X136004660Y-85650002D01*
X136004660Y-85649997D01*
X135986055Y-85437345D01*
X135986054Y-85437337D01*
X135930805Y-85231146D01*
X135930802Y-85231140D01*
X135840586Y-85037669D01*
X135840582Y-85037663D01*
X135801584Y-84981968D01*
X135180000Y-85603552D01*
X135180000Y-85597339D01*
X135152741Y-85495606D01*
X135100080Y-85404394D01*
X135025606Y-85329920D01*
X134934394Y-85277259D01*
X134832661Y-85250000D01*
X134826447Y-85250000D01*
X135448030Y-84628415D01*
X135392329Y-84589413D01*
X135198859Y-84499197D01*
X135198853Y-84499194D01*
X134992662Y-84443945D01*
X134992654Y-84443944D01*
X134780002Y-84425340D01*
X134779998Y-84425340D01*
X134567345Y-84443944D01*
X134567337Y-84443945D01*
X134361146Y-84499194D01*
X134361140Y-84499197D01*
X134167671Y-84589412D01*
X134167669Y-84589413D01*
X134111969Y-84628415D01*
X134111968Y-84628415D01*
X134733554Y-85250000D01*
X134727339Y-85250000D01*
X134625606Y-85277259D01*
X134534394Y-85329920D01*
X134459920Y-85404394D01*
X134407259Y-85495606D01*
X134380000Y-85597339D01*
X134380000Y-85603553D01*
X133758415Y-84981968D01*
X133758415Y-84981969D01*
X133719413Y-85037669D01*
X133719412Y-85037671D01*
X133629197Y-85231140D01*
X133627342Y-85236236D01*
X133625445Y-85235545D01*
X133593656Y-85287684D01*
X133530805Y-85318205D01*
X133461431Y-85309901D01*
X133407559Y-85265408D01*
X133394012Y-85235742D01*
X133393130Y-85236064D01*
X133391279Y-85230983D01*
X133391276Y-85230970D01*
X133301021Y-85037419D01*
X133178529Y-84862481D01*
X133178527Y-84862478D01*
X133027521Y-84711472D01*
X132852578Y-84588977D01*
X132852579Y-84588977D01*
X132723547Y-84528809D01*
X132659030Y-84498724D01*
X132659026Y-84498723D01*
X132659022Y-84498721D01*
X132452752Y-84443452D01*
X132452748Y-84443451D01*
X132452747Y-84443451D01*
X132452746Y-84443450D01*
X132452741Y-84443450D01*
X132240002Y-84424838D01*
X132239998Y-84424838D01*
X132027258Y-84443450D01*
X132027247Y-84443452D01*
X131820977Y-84498721D01*
X131820968Y-84498725D01*
X131627421Y-84588977D01*
X131452478Y-84711472D01*
X131301472Y-84862478D01*
X131178977Y-85037421D01*
X131088725Y-85230968D01*
X131086870Y-85236064D01*
X131084749Y-85235292D01*
X131053406Y-85286710D01*
X130990558Y-85317237D01*
X130921183Y-85308939D01*
X130867307Y-85264452D01*
X130854169Y-85235685D01*
X130853130Y-85236064D01*
X130851279Y-85230983D01*
X130851276Y-85230970D01*
X130761021Y-85037419D01*
X130638529Y-84862481D01*
X130638527Y-84862478D01*
X130487521Y-84711472D01*
X130312578Y-84588977D01*
X130312579Y-84588977D01*
X130183547Y-84528809D01*
X130119030Y-84498724D01*
X130119026Y-84498723D01*
X130119022Y-84498721D01*
X129912752Y-84443452D01*
X129912742Y-84443450D01*
X129759185Y-84430015D01*
X129694116Y-84404562D01*
X129682312Y-84394168D01*
X126611819Y-81323675D01*
X126578334Y-81262352D01*
X126575500Y-81235994D01*
X126575500Y-78812486D01*
X138125001Y-78812486D01*
X138135494Y-78915197D01*
X138190641Y-79081619D01*
X138190643Y-79081624D01*
X138282684Y-79230845D01*
X138406654Y-79354815D01*
X138555875Y-79446856D01*
X138555880Y-79446858D01*
X138722302Y-79502005D01*
X138722309Y-79502006D01*
X138825019Y-79512499D01*
X139249999Y-79512499D01*
X139750000Y-79512499D01*
X140174972Y-79512499D01*
X140174986Y-79512498D01*
X140277697Y-79502005D01*
X140444119Y-79446858D01*
X140444124Y-79446856D01*
X140593345Y-79354815D01*
X140717315Y-79230845D01*
X140809356Y-79081624D01*
X140809358Y-79081619D01*
X140864505Y-78915197D01*
X140864506Y-78915190D01*
X140874999Y-78812486D01*
X140875000Y-78812473D01*
X140875000Y-78700000D01*
X139750000Y-78700000D01*
X139750000Y-79512499D01*
X139249999Y-79512499D01*
X139250000Y-79512498D01*
X139250000Y-78700000D01*
X138125001Y-78700000D01*
X138125001Y-78812486D01*
X126575500Y-78812486D01*
X126575500Y-76380627D01*
X126595185Y-76313588D01*
X126623337Y-76282774D01*
X126719744Y-76207738D01*
X126888164Y-76024785D01*
X127024173Y-75816607D01*
X127124063Y-75588881D01*
X127185108Y-75347821D01*
X127185109Y-75347812D01*
X127205643Y-75100005D01*
X127205643Y-75099994D01*
X127185109Y-74852187D01*
X127185107Y-74852175D01*
X127124063Y-74611118D01*
X127024173Y-74383393D01*
X126888166Y-74175217D01*
X126811800Y-74092262D01*
X126719744Y-73992262D01*
X126523509Y-73839526D01*
X126523507Y-73839525D01*
X126523506Y-73839524D01*
X126304811Y-73721172D01*
X126304802Y-73721169D01*
X126069616Y-73640429D01*
X125824335Y-73599500D01*
X125575665Y-73599500D01*
X125330383Y-73640429D01*
X125095197Y-73721169D01*
X125095188Y-73721172D01*
X124876493Y-73839524D01*
X124680257Y-73992261D01*
X124511833Y-74175217D01*
X124375826Y-74383393D01*
X124275936Y-74611118D01*
X124214892Y-74852175D01*
X124214890Y-74852187D01*
X124194357Y-75099994D01*
X100500500Y-75099994D01*
X100500500Y-66869995D01*
X101564953Y-66869995D01*
X101564953Y-66870004D01*
X101585113Y-67139026D01*
X101585113Y-67139028D01*
X101645142Y-67402033D01*
X101645148Y-67402052D01*
X101743709Y-67653181D01*
X101743708Y-67653181D01*
X101878602Y-67886822D01*
X101932294Y-67954151D01*
X101932295Y-67954151D01*
X102654153Y-67232293D01*
X102661049Y-67248942D01*
X102748599Y-67379970D01*
X102860030Y-67491401D01*
X102991058Y-67578951D01*
X103007705Y-67585846D01*
X102284848Y-68308702D01*
X102467483Y-68433220D01*
X102467485Y-68433221D01*
X102710539Y-68550269D01*
X102710537Y-68550269D01*
X102968337Y-68629790D01*
X102968343Y-68629792D01*
X103235101Y-68669999D01*
X103235110Y-68670000D01*
X103504890Y-68670000D01*
X103504898Y-68669999D01*
X103771656Y-68629792D01*
X103771662Y-68629790D01*
X104029458Y-68550270D01*
X104247927Y-68445061D01*
X104316869Y-68433709D01*
X104381003Y-68461431D01*
X104419969Y-68519426D01*
X104421394Y-68589281D01*
X104417158Y-68602081D01*
X104332583Y-68817578D01*
X104332578Y-68817590D01*
X104332576Y-68817597D01*
X104274197Y-69073374D01*
X104274196Y-69073379D01*
X104254592Y-69334995D01*
X104254592Y-69335004D01*
X104274196Y-69596620D01*
X104274197Y-69596625D01*
X104332576Y-69852402D01*
X104332582Y-69852421D01*
X104428432Y-70096643D01*
X104534256Y-70279937D01*
X104550729Y-70347837D01*
X104527876Y-70413864D01*
X104472955Y-70457055D01*
X104403402Y-70463696D01*
X104357017Y-70444390D01*
X104272526Y-70386784D01*
X104272516Y-70386778D01*
X104029460Y-70269730D01*
X104029462Y-70269730D01*
X103771662Y-70190209D01*
X103771656Y-70190207D01*
X103504898Y-70150000D01*
X103235101Y-70150000D01*
X102968343Y-70190207D01*
X102968337Y-70190209D01*
X102710538Y-70269730D01*
X102467485Y-70386778D01*
X102467476Y-70386783D01*
X102284848Y-70511296D01*
X103007705Y-71234153D01*
X102991058Y-71241049D01*
X102860030Y-71328599D01*
X102748599Y-71440030D01*
X102661049Y-71571058D01*
X102654153Y-71587706D01*
X101932295Y-70865848D01*
X101878600Y-70933180D01*
X101743709Y-71166818D01*
X101645148Y-71417947D01*
X101645142Y-71417966D01*
X101585113Y-71680971D01*
X101585113Y-71680973D01*
X101564953Y-71949995D01*
X101564953Y-71950000D01*
X101585113Y-72219026D01*
X101585113Y-72219028D01*
X101645142Y-72482033D01*
X101645148Y-72482052D01*
X101743709Y-72733181D01*
X101743708Y-72733181D01*
X101878602Y-72966822D01*
X101932294Y-73034151D01*
X102654152Y-72312293D01*
X102661049Y-72328942D01*
X102748599Y-72459970D01*
X102860030Y-72571401D01*
X102991058Y-72658951D01*
X103007705Y-72665846D01*
X102284848Y-73388702D01*
X102467483Y-73513220D01*
X102467485Y-73513221D01*
X102710539Y-73630269D01*
X102710537Y-73630269D01*
X102968337Y-73709790D01*
X102968343Y-73709792D01*
X103235101Y-73749999D01*
X103235110Y-73750000D01*
X103504890Y-73750000D01*
X103504898Y-73749999D01*
X103771656Y-73709792D01*
X103771662Y-73709790D01*
X104029461Y-73630269D01*
X104272521Y-73513218D01*
X104455150Y-73388702D01*
X103732294Y-72665846D01*
X103748942Y-72658951D01*
X103879970Y-72571401D01*
X103991401Y-72459970D01*
X104078951Y-72328942D01*
X104085846Y-72312294D01*
X104807703Y-73034151D01*
X104807704Y-73034150D01*
X104861393Y-72966828D01*
X104861400Y-72966817D01*
X104996290Y-72733181D01*
X105094851Y-72482052D01*
X105094857Y-72482033D01*
X105154886Y-72219028D01*
X105154886Y-72219026D01*
X105175047Y-71950000D01*
X105175047Y-71949995D01*
X105154886Y-71680973D01*
X105154886Y-71680971D01*
X105094857Y-71417966D01*
X105094851Y-71417947D01*
X104996290Y-71166818D01*
X104996291Y-71166818D01*
X104882961Y-70970527D01*
X104866488Y-70902627D01*
X104889340Y-70836600D01*
X104944261Y-70793410D01*
X105013815Y-70786768D01*
X105060197Y-70806071D01*
X105132296Y-70855228D01*
X105132301Y-70855230D01*
X105132302Y-70855231D01*
X105132303Y-70855232D01*
X105225266Y-70900000D01*
X105368673Y-70969061D01*
X105368674Y-70969061D01*
X105368677Y-70969063D01*
X105619385Y-71046396D01*
X105878818Y-71085500D01*
X106141182Y-71085500D01*
X106400615Y-71046396D01*
X106651323Y-70969063D01*
X106686056Y-70952336D01*
X106754994Y-70940985D01*
X106819128Y-70968706D01*
X106858094Y-71026701D01*
X106859520Y-71096556D01*
X106847243Y-71126056D01*
X106823708Y-71166820D01*
X106725148Y-71417947D01*
X106725142Y-71417966D01*
X106665113Y-71680971D01*
X106665113Y-71680973D01*
X106644953Y-71949995D01*
X106644953Y-71950000D01*
X106665113Y-72219026D01*
X106665113Y-72219028D01*
X106725142Y-72482033D01*
X106725148Y-72482052D01*
X106823709Y-72733181D01*
X106823708Y-72733181D01*
X106958602Y-72966822D01*
X107012294Y-73034151D01*
X107734152Y-72312293D01*
X107741049Y-72328942D01*
X107828599Y-72459970D01*
X107940030Y-72571401D01*
X108071058Y-72658951D01*
X108087705Y-72665846D01*
X107364848Y-73388702D01*
X107547483Y-73513220D01*
X107547485Y-73513221D01*
X107790539Y-73630269D01*
X107790537Y-73630269D01*
X108048337Y-73709790D01*
X108048343Y-73709792D01*
X108315101Y-73749999D01*
X108315110Y-73750000D01*
X108584890Y-73750000D01*
X108584898Y-73749999D01*
X108851656Y-73709792D01*
X108851662Y-73709790D01*
X109109461Y-73630269D01*
X109352521Y-73513218D01*
X109535150Y-73388702D01*
X108812294Y-72665846D01*
X108828942Y-72658951D01*
X108959970Y-72571401D01*
X109071401Y-72459970D01*
X109158951Y-72328942D01*
X109165846Y-72312294D01*
X109887703Y-73034151D01*
X109887704Y-73034150D01*
X109941393Y-72966828D01*
X109941400Y-72966817D01*
X110037720Y-72799986D01*
X129125001Y-72799986D01*
X129135494Y-72902697D01*
X129190641Y-73069119D01*
X129190643Y-73069124D01*
X129282684Y-73218345D01*
X129406654Y-73342315D01*
X129555875Y-73434356D01*
X129555880Y-73434358D01*
X129722302Y-73489505D01*
X129722309Y-73489506D01*
X129825019Y-73499999D01*
X129949999Y-73499999D01*
X129950000Y-73499998D01*
X129950000Y-72350000D01*
X129125001Y-72350000D01*
X129125001Y-72799986D01*
X110037720Y-72799986D01*
X110076290Y-72733181D01*
X110174851Y-72482052D01*
X110174857Y-72482033D01*
X110234886Y-72219028D01*
X110234886Y-72219026D01*
X110255047Y-71950000D01*
X110255047Y-71949995D01*
X110234886Y-71680973D01*
X110234886Y-71680971D01*
X110174857Y-71417966D01*
X110174851Y-71417947D01*
X110167812Y-71400013D01*
X129125000Y-71400013D01*
X129125000Y-71850000D01*
X129950000Y-71850000D01*
X129950000Y-70700000D01*
X130450000Y-70700000D01*
X130450000Y-73499999D01*
X130574972Y-73499999D01*
X130574986Y-73499998D01*
X130677697Y-73489505D01*
X130844119Y-73434358D01*
X130844124Y-73434356D01*
X130993345Y-73342315D01*
X131117316Y-73218344D01*
X131117319Y-73218340D01*
X131209494Y-73068903D01*
X131261441Y-73022178D01*
X131315032Y-73010000D01*
X132034382Y-73010000D01*
X132101421Y-73029685D01*
X132139921Y-73068904D01*
X132140185Y-73069332D01*
X132140186Y-73069334D01*
X132174048Y-73124233D01*
X132232095Y-73218344D01*
X132232288Y-73218656D01*
X132356344Y-73342712D01*
X132505666Y-73434814D01*
X132672203Y-73489999D01*
X132774991Y-73500500D01*
X133525008Y-73500499D01*
X133525016Y-73500498D01*
X133525019Y-73500498D01*
X133600690Y-73492768D01*
X133627797Y-73489999D01*
X133794334Y-73434814D01*
X133943656Y-73342712D01*
X134067712Y-73218656D01*
X134159814Y-73069334D01*
X134162744Y-73060493D01*
X134202518Y-73003049D01*
X134267035Y-72976228D01*
X134280449Y-72975500D01*
X134412856Y-72975500D01*
X134479895Y-72995185D01*
X134508264Y-73021101D01*
X134508363Y-73021011D01*
X134509406Y-73022144D01*
X134510702Y-73023328D01*
X134511831Y-73024778D01*
X134511836Y-73024785D01*
X134680256Y-73207738D01*
X134876491Y-73360474D01*
X135095190Y-73478828D01*
X135105682Y-73482430D01*
X135106524Y-73482719D01*
X135163539Y-73523106D01*
X135189668Y-73587906D01*
X135176615Y-73656546D01*
X135128526Y-73707233D01*
X135106524Y-73717281D01*
X135095191Y-73721171D01*
X135095188Y-73721172D01*
X134876493Y-73839524D01*
X134680257Y-73992261D01*
X134511833Y-74175217D01*
X134375826Y-74383393D01*
X134275936Y-74611118D01*
X134214892Y-74852175D01*
X134214890Y-74852187D01*
X134194357Y-75099994D01*
X134194357Y-75100005D01*
X134214890Y-75347812D01*
X134214892Y-75347824D01*
X134275936Y-75588881D01*
X134375826Y-75816606D01*
X134511833Y-76024782D01*
X134511836Y-76024785D01*
X134680256Y-76207738D01*
X134876491Y-76360474D01*
X134985840Y-76419651D01*
X135060500Y-76460055D01*
X135095190Y-76478828D01*
X135330386Y-76559571D01*
X135575665Y-76600500D01*
X135824335Y-76600500D01*
X136069614Y-76559571D01*
X136304810Y-76478828D01*
X136523509Y-76360474D01*
X136719744Y-76207738D01*
X136888164Y-76024785D01*
X137024173Y-75816607D01*
X137124063Y-75588881D01*
X137185108Y-75347821D01*
X137185109Y-75347812D01*
X137205643Y-75100005D01*
X137205643Y-75099994D01*
X137185109Y-74852187D01*
X137185107Y-74852175D01*
X137124063Y-74611118D01*
X137024173Y-74383393D01*
X136888166Y-74175217D01*
X136811800Y-74092262D01*
X136719744Y-73992262D01*
X136523509Y-73839526D01*
X136523507Y-73839525D01*
X136523506Y-73839524D01*
X136304811Y-73721172D01*
X136304802Y-73721169D01*
X136293477Y-73717281D01*
X136236462Y-73676896D01*
X136210331Y-73612096D01*
X136223382Y-73543456D01*
X136271471Y-73492768D01*
X136293477Y-73482719D01*
X136297235Y-73481428D01*
X136304810Y-73478828D01*
X136523509Y-73360474D01*
X136719744Y-73207738D01*
X136888164Y-73024785D01*
X136965327Y-72906677D01*
X137018474Y-72861322D01*
X137069136Y-72850500D01*
X138230172Y-72850500D01*
X138264767Y-72855424D01*
X138409926Y-72897597D01*
X138409929Y-72897597D01*
X138409931Y-72897598D01*
X138446806Y-72900500D01*
X138446814Y-72900500D01*
X139603186Y-72900500D01*
X139603194Y-72900500D01*
X139640069Y-72897598D01*
X139640071Y-72897597D01*
X139640073Y-72897597D01*
X139785233Y-72855424D01*
X139819828Y-72850500D01*
X140013000Y-72850500D01*
X140080039Y-72870185D01*
X140125794Y-72922989D01*
X140137000Y-72974500D01*
X140137000Y-73265701D01*
X140139901Y-73302567D01*
X140139902Y-73302573D01*
X140185754Y-73460393D01*
X140185755Y-73460396D01*
X140185756Y-73460398D01*
X140196657Y-73478830D01*
X140254775Y-73577104D01*
X140271958Y-73644829D01*
X140249798Y-73711091D01*
X140235724Y-73727906D01*
X139537949Y-74425681D01*
X139476626Y-74459166D01*
X139450268Y-74462000D01*
X138824998Y-74462000D01*
X138824980Y-74462001D01*
X138722203Y-74472500D01*
X138722200Y-74472501D01*
X138555668Y-74527685D01*
X138555663Y-74527687D01*
X138406342Y-74619789D01*
X138282289Y-74743842D01*
X138190187Y-74893163D01*
X138190185Y-74893168D01*
X138176323Y-74935001D01*
X138135001Y-75059703D01*
X138135001Y-75059704D01*
X138135000Y-75059704D01*
X138124500Y-75162483D01*
X138124500Y-75887501D01*
X138124501Y-75887519D01*
X138135000Y-75990296D01*
X138135001Y-75990299D01*
X138146428Y-76024782D01*
X138190186Y-76156834D01*
X138282288Y-76306156D01*
X138406344Y-76430212D01*
X138455408Y-76460475D01*
X138531096Y-76507159D01*
X138577821Y-76559107D01*
X138590000Y-76612698D01*
X138590000Y-77362888D01*
X138570315Y-77429927D01*
X138531097Y-77468426D01*
X138406659Y-77545180D01*
X138406655Y-77545183D01*
X138282684Y-77669154D01*
X138190643Y-77818375D01*
X138190641Y-77818380D01*
X138135494Y-77984802D01*
X138135493Y-77984809D01*
X138125000Y-78087513D01*
X138125000Y-78200000D01*
X140874999Y-78200000D01*
X140874999Y-78087528D01*
X140874998Y-78087513D01*
X140864505Y-77984802D01*
X140809358Y-77818380D01*
X140809356Y-77818375D01*
X140717315Y-77669154D01*
X140593344Y-77545183D01*
X140593340Y-77545180D01*
X140468903Y-77468426D01*
X140422178Y-77416478D01*
X140410000Y-77362888D01*
X140410000Y-76612698D01*
X140429685Y-76545659D01*
X140468904Y-76507159D01*
X140486782Y-76496132D01*
X140593656Y-76430212D01*
X140717712Y-76306156D01*
X140721509Y-76300000D01*
X141282159Y-76300000D01*
X141301475Y-76496129D01*
X141358688Y-76684733D01*
X141451586Y-76858532D01*
X141451590Y-76858539D01*
X141576616Y-77010883D01*
X141728960Y-77135909D01*
X141728967Y-77135913D01*
X141902766Y-77228811D01*
X141902769Y-77228811D01*
X141902773Y-77228814D01*
X142091368Y-77286024D01*
X142287500Y-77305341D01*
X142483632Y-77286024D01*
X142672227Y-77228814D01*
X142744577Y-77190141D01*
X142803030Y-77175500D01*
X143066592Y-77175500D01*
X143133631Y-77195185D01*
X143172136Y-77239271D01*
X143173895Y-77238187D01*
X143177685Y-77244331D01*
X143177686Y-77244334D01*
X143269788Y-77393656D01*
X143393844Y-77517712D01*
X143543166Y-77609814D01*
X143709703Y-77664999D01*
X143812491Y-77675500D01*
X144537508Y-77675499D01*
X144537516Y-77675498D01*
X144537519Y-77675498D01*
X144599622Y-77669154D01*
X144640297Y-77664999D01*
X144806834Y-77609814D01*
X144947907Y-77522799D01*
X145015295Y-77504361D01*
X145081959Y-77525283D01*
X145126729Y-77578925D01*
X145137000Y-77628340D01*
X145137000Y-77813132D01*
X145117315Y-77880171D01*
X145098116Y-77901346D01*
X145098951Y-77902181D01*
X144969789Y-78031342D01*
X144877687Y-78180663D01*
X144877685Y-78180668D01*
X144865539Y-78217323D01*
X144822501Y-78347203D01*
X144822501Y-78347204D01*
X144822500Y-78347204D01*
X144812000Y-78449983D01*
X144812000Y-79850001D01*
X144812001Y-79850018D01*
X144822500Y-79952796D01*
X144822501Y-79952799D01*
X144877685Y-80119331D01*
X144877687Y-80119336D01*
X144899895Y-80155341D01*
X144969788Y-80268656D01*
X145093844Y-80392712D01*
X145243166Y-80484814D01*
X145409703Y-80539999D01*
X145512491Y-80550500D01*
X146262508Y-80550499D01*
X146262516Y-80550498D01*
X146262519Y-80550498D01*
X146318802Y-80544748D01*
X146365297Y-80539999D01*
X146531834Y-80484814D01*
X146681156Y-80392712D01*
X146805212Y-80268656D01*
X146897314Y-80119334D01*
X146952499Y-79952797D01*
X146963000Y-79850009D01*
X146962999Y-78449992D01*
X146962998Y-78449983D01*
X147762000Y-78449983D01*
X147762000Y-79850001D01*
X147762001Y-79850018D01*
X147772500Y-79952796D01*
X147772501Y-79952799D01*
X147827685Y-80119331D01*
X147827687Y-80119336D01*
X147849895Y-80155341D01*
X147919788Y-80268656D01*
X148043844Y-80392712D01*
X148193166Y-80484814D01*
X148359703Y-80539999D01*
X148462491Y-80550500D01*
X149212508Y-80550499D01*
X149212516Y-80550498D01*
X149212519Y-80550498D01*
X149268802Y-80544748D01*
X149315297Y-80539999D01*
X149481834Y-80484814D01*
X149631156Y-80392712D01*
X149755212Y-80268656D01*
X149847314Y-80119334D01*
X149858370Y-80085966D01*
X149898141Y-80028522D01*
X149962657Y-80001698D01*
X150031433Y-80014012D01*
X150034529Y-80015612D01*
X150152767Y-80078811D01*
X150152773Y-80078814D01*
X150341368Y-80136024D01*
X150537500Y-80155341D01*
X150733632Y-80136024D01*
X150922227Y-80078814D01*
X151096038Y-79985910D01*
X151248383Y-79860883D01*
X151373410Y-79708538D01*
X151466314Y-79534727D01*
X151523524Y-79346132D01*
X151542841Y-79150000D01*
X151523524Y-78953868D01*
X151466314Y-78765273D01*
X151466311Y-78765269D01*
X151466311Y-78765266D01*
X151373413Y-78591467D01*
X151373409Y-78591460D01*
X151248383Y-78439116D01*
X151096039Y-78314090D01*
X151096032Y-78314086D01*
X150922233Y-78221188D01*
X150922227Y-78221186D01*
X150733632Y-78163976D01*
X150733629Y-78163975D01*
X150537500Y-78144659D01*
X150341370Y-78163975D01*
X150256746Y-78189645D01*
X150152773Y-78221186D01*
X150152770Y-78221187D01*
X150152768Y-78221188D01*
X150034528Y-78284388D01*
X149966126Y-78298629D01*
X149900882Y-78273628D01*
X149859512Y-78217323D01*
X149858370Y-78214032D01*
X149853720Y-78200000D01*
X149847314Y-78180666D01*
X149755212Y-78031344D01*
X149631156Y-77907288D01*
X149538388Y-77850069D01*
X149481836Y-77815187D01*
X149481831Y-77815185D01*
X149437261Y-77800416D01*
X149315297Y-77760001D01*
X149315295Y-77760000D01*
X149212510Y-77749500D01*
X148462498Y-77749500D01*
X148462480Y-77749501D01*
X148359703Y-77760000D01*
X148359700Y-77760001D01*
X148193168Y-77815185D01*
X148193163Y-77815187D01*
X148043842Y-77907289D01*
X147919789Y-78031342D01*
X147827687Y-78180663D01*
X147827685Y-78180668D01*
X147815539Y-78217323D01*
X147772501Y-78347203D01*
X147772501Y-78347204D01*
X147772500Y-78347204D01*
X147762000Y-78449983D01*
X146962998Y-78449983D01*
X146952499Y-78347203D01*
X146897314Y-78180666D01*
X146805212Y-78031344D01*
X146705299Y-77931431D01*
X146671814Y-77870108D01*
X146676798Y-77800416D01*
X146705299Y-77756069D01*
X146749550Y-77711818D01*
X146810873Y-77678333D01*
X146837231Y-77675499D01*
X147462502Y-77675499D01*
X147462508Y-77675499D01*
X147565297Y-77664999D01*
X147731834Y-77609814D01*
X147881156Y-77517712D01*
X148005212Y-77393656D01*
X148097314Y-77244334D01*
X148152499Y-77077797D01*
X148163000Y-76975009D01*
X148162999Y-75624992D01*
X148152499Y-75522203D01*
X148097314Y-75355666D01*
X148005212Y-75206344D01*
X147881156Y-75082288D01*
X147788388Y-75025069D01*
X147731836Y-74990187D01*
X147731831Y-74990185D01*
X147730362Y-74989698D01*
X147565297Y-74935001D01*
X147565295Y-74935000D01*
X147462510Y-74924500D01*
X146737498Y-74924500D01*
X146737480Y-74924501D01*
X146634703Y-74935000D01*
X146634700Y-74935001D01*
X146468168Y-74990185D01*
X146468163Y-74990187D01*
X146318842Y-75082289D01*
X146194789Y-75206342D01*
X146102687Y-75355663D01*
X146102685Y-75355668D01*
X146079877Y-75424500D01*
X146047501Y-75522203D01*
X146047501Y-75522204D01*
X146047500Y-75522204D01*
X146037000Y-75624983D01*
X146037000Y-76250269D01*
X146017315Y-76317308D01*
X146000681Y-76337950D01*
X145449680Y-76888950D01*
X145388357Y-76922435D01*
X145318665Y-76917451D01*
X145262732Y-76875579D01*
X145238315Y-76810115D01*
X145237999Y-76801293D01*
X145237999Y-75624992D01*
X145227499Y-75522203D01*
X145172314Y-75355666D01*
X145080212Y-75206344D01*
X144956156Y-75082288D01*
X144863388Y-75025069D01*
X144806836Y-74990187D01*
X144806831Y-74990185D01*
X144805362Y-74989698D01*
X144640297Y-74935001D01*
X144640295Y-74935000D01*
X144537510Y-74924500D01*
X143812498Y-74924500D01*
X143812480Y-74924501D01*
X143709703Y-74935000D01*
X143709700Y-74935001D01*
X143543168Y-74990185D01*
X143543163Y-74990187D01*
X143393842Y-75082289D01*
X143269789Y-75206342D01*
X143238284Y-75257419D01*
X143182531Y-75347812D01*
X143173895Y-75361813D01*
X143172100Y-75360706D01*
X143132813Y-75405337D01*
X143066592Y-75424500D01*
X142803030Y-75424500D01*
X142744577Y-75409858D01*
X142712967Y-75392962D01*
X142672230Y-75371187D01*
X142641328Y-75361813D01*
X142483632Y-75313976D01*
X142483629Y-75313975D01*
X142287500Y-75294659D01*
X142091370Y-75313975D01*
X141902766Y-75371188D01*
X141728967Y-75464086D01*
X141728960Y-75464090D01*
X141576616Y-75589116D01*
X141451590Y-75741460D01*
X141451586Y-75741467D01*
X141358688Y-75915266D01*
X141301475Y-76103870D01*
X141282159Y-76300000D01*
X140721509Y-76300000D01*
X140809814Y-76156834D01*
X140864999Y-75990297D01*
X140875500Y-75887509D01*
X140875499Y-75262228D01*
X140895183Y-75195190D01*
X140911813Y-75174553D01*
X141882951Y-74203416D01*
X141965084Y-74080495D01*
X142021658Y-73943913D01*
X142036067Y-73871469D01*
X142068451Y-73809562D01*
X142094560Y-73788932D01*
X142214365Y-73718081D01*
X142330581Y-73601865D01*
X142414244Y-73460398D01*
X142458597Y-73307737D01*
X142460097Y-73302573D01*
X142460098Y-73302567D01*
X142462999Y-73265701D01*
X142463000Y-73265694D01*
X142463000Y-72834306D01*
X142460098Y-72797431D01*
X142441431Y-72733181D01*
X142414245Y-72639606D01*
X142414244Y-72639603D01*
X142414244Y-72639602D01*
X142330581Y-72498135D01*
X142330579Y-72498133D01*
X142330576Y-72498129D01*
X142214370Y-72381923D01*
X142214362Y-72381917D01*
X142076692Y-72300500D01*
X142072898Y-72298256D01*
X142072897Y-72298255D01*
X142072896Y-72298255D01*
X142072893Y-72298254D01*
X141915073Y-72252402D01*
X141915067Y-72252401D01*
X141878201Y-72249500D01*
X141878194Y-72249500D01*
X141561230Y-72249500D01*
X141494191Y-72229815D01*
X141448436Y-72177011D01*
X141438492Y-72107853D01*
X141467517Y-72044297D01*
X141473549Y-72037819D01*
X141524549Y-71986819D01*
X141585872Y-71953334D01*
X141612230Y-71950500D01*
X141878186Y-71950500D01*
X141878194Y-71950500D01*
X141915069Y-71947598D01*
X141915071Y-71947597D01*
X141915073Y-71947597D01*
X141956691Y-71935505D01*
X142072898Y-71901744D01*
X142214365Y-71818081D01*
X142330581Y-71701865D01*
X142414244Y-71560398D01*
X142460098Y-71402569D01*
X142463000Y-71365694D01*
X142463000Y-70934306D01*
X142460098Y-70897431D01*
X142450922Y-70865848D01*
X142414245Y-70739606D01*
X142414244Y-70739603D01*
X142414244Y-70739602D01*
X142330581Y-70598135D01*
X142330579Y-70598133D01*
X142330576Y-70598129D01*
X142214370Y-70481923D01*
X142214362Y-70481917D01*
X142072896Y-70398255D01*
X142072893Y-70398254D01*
X141915073Y-70352402D01*
X141915067Y-70352401D01*
X141878201Y-70349500D01*
X141878194Y-70349500D01*
X140721806Y-70349500D01*
X140721798Y-70349500D01*
X140684932Y-70352401D01*
X140684926Y-70352402D01*
X140527106Y-70398254D01*
X140527103Y-70398255D01*
X140385637Y-70481917D01*
X140385629Y-70481923D01*
X140269423Y-70598129D01*
X140269417Y-70598137D01*
X140185755Y-70739603D01*
X140185754Y-70739606D01*
X140139902Y-70897426D01*
X140139901Y-70897432D01*
X140137000Y-70934298D01*
X140137000Y-71200270D01*
X140117315Y-71267309D01*
X140100681Y-71287951D01*
X140075451Y-71313181D01*
X140014128Y-71346666D01*
X139987770Y-71349500D01*
X139819828Y-71349500D01*
X139785233Y-71344576D01*
X139640073Y-71302402D01*
X139640067Y-71302401D01*
X139603201Y-71299500D01*
X139603194Y-71299500D01*
X138446806Y-71299500D01*
X138446798Y-71299500D01*
X138409932Y-71302401D01*
X138409926Y-71302402D01*
X138264767Y-71344576D01*
X138230172Y-71349500D01*
X137069136Y-71349500D01*
X137002097Y-71329815D01*
X136965327Y-71293322D01*
X136961818Y-71287951D01*
X136888164Y-71175215D01*
X136719744Y-70992262D01*
X136523509Y-70839526D01*
X136523507Y-70839525D01*
X136523506Y-70839524D01*
X136304811Y-70721172D01*
X136304802Y-70721169D01*
X136293477Y-70717281D01*
X136236462Y-70676896D01*
X136210331Y-70612096D01*
X136223382Y-70543456D01*
X136271471Y-70492768D01*
X136293477Y-70482719D01*
X136297235Y-70481428D01*
X136304810Y-70478828D01*
X136523509Y-70360474D01*
X136719744Y-70207738D01*
X136888164Y-70024785D01*
X137024173Y-69816607D01*
X137124063Y-69588881D01*
X137185108Y-69347821D01*
X137186170Y-69335004D01*
X137205643Y-69100005D01*
X137205643Y-69099994D01*
X137185109Y-68852187D01*
X137185107Y-68852175D01*
X137124063Y-68611118D01*
X137024173Y-68383393D01*
X136888166Y-68175217D01*
X136811800Y-68092262D01*
X136726867Y-68000000D01*
X141294659Y-68000000D01*
X141313975Y-68196129D01*
X141313976Y-68196132D01*
X141370781Y-68383393D01*
X141371188Y-68384733D01*
X141464086Y-68558532D01*
X141464090Y-68558539D01*
X141589116Y-68710883D01*
X141741460Y-68835909D01*
X141741467Y-68835913D01*
X141915266Y-68928811D01*
X141915269Y-68928811D01*
X141915273Y-68928814D01*
X142103868Y-68986024D01*
X142300000Y-69005341D01*
X142496132Y-68986024D01*
X142684727Y-68928814D01*
X142757077Y-68890141D01*
X142815530Y-68875500D01*
X143041592Y-68875500D01*
X143108631Y-68895185D01*
X143147136Y-68939271D01*
X143148895Y-68938187D01*
X143152685Y-68944331D01*
X143152686Y-68944334D01*
X143244788Y-69093656D01*
X143368844Y-69217712D01*
X143518166Y-69309814D01*
X143684703Y-69364999D01*
X143787491Y-69375500D01*
X144512508Y-69375499D01*
X144512516Y-69375498D01*
X144512519Y-69375498D01*
X144568802Y-69369748D01*
X144615297Y-69364999D01*
X144781834Y-69309814D01*
X144931156Y-69217712D01*
X145037819Y-69111049D01*
X145099142Y-69077564D01*
X145168834Y-69082548D01*
X145224767Y-69124420D01*
X145249184Y-69189884D01*
X145249500Y-69198730D01*
X145249500Y-69563132D01*
X145229815Y-69630171D01*
X145210616Y-69651346D01*
X145211451Y-69652181D01*
X145082289Y-69781342D01*
X144990187Y-69930663D01*
X144990185Y-69930668D01*
X144962349Y-70014670D01*
X144935001Y-70097203D01*
X144935001Y-70097204D01*
X144935000Y-70097204D01*
X144924500Y-70199983D01*
X144924500Y-71600001D01*
X144924501Y-71600018D01*
X144935000Y-71702796D01*
X144935001Y-71702799D01*
X144990185Y-71869331D01*
X144990187Y-71869336D01*
X145012395Y-71905341D01*
X145082288Y-72018656D01*
X145206344Y-72142712D01*
X145355666Y-72234814D01*
X145522203Y-72289999D01*
X145624991Y-72300500D01*
X146375008Y-72300499D01*
X146375016Y-72300498D01*
X146375019Y-72300498D01*
X146431302Y-72294748D01*
X146477797Y-72289999D01*
X146644334Y-72234814D01*
X146793656Y-72142712D01*
X146917712Y-72018656D01*
X147009814Y-71869334D01*
X147064999Y-71702797D01*
X147075500Y-71600009D01*
X147075499Y-70199992D01*
X147075498Y-70199983D01*
X147874500Y-70199983D01*
X147874500Y-71600001D01*
X147874501Y-71600018D01*
X147885000Y-71702796D01*
X147885001Y-71702799D01*
X147940185Y-71869331D01*
X147940187Y-71869336D01*
X147962395Y-71905341D01*
X148032288Y-72018656D01*
X148156344Y-72142712D01*
X148305666Y-72234814D01*
X148472203Y-72289999D01*
X148574991Y-72300500D01*
X149325008Y-72300499D01*
X149325016Y-72300498D01*
X149325019Y-72300498D01*
X149381302Y-72294748D01*
X149427797Y-72289999D01*
X149594334Y-72234814D01*
X149743656Y-72142712D01*
X149867712Y-72018656D01*
X149959814Y-71869334D01*
X149959814Y-71869331D01*
X149959817Y-71869328D01*
X149960588Y-71867675D01*
X149961418Y-71866731D01*
X149963605Y-71863187D01*
X149964210Y-71863560D01*
X150006760Y-71815235D01*
X150073953Y-71796083D01*
X150131422Y-71810720D01*
X150165273Y-71828814D01*
X150353868Y-71886024D01*
X150550000Y-71905341D01*
X150746132Y-71886024D01*
X150934727Y-71828814D01*
X150954817Y-71818076D01*
X151021632Y-71782362D01*
X151108538Y-71735910D01*
X151260883Y-71610883D01*
X151385910Y-71458538D01*
X151455364Y-71328599D01*
X151478811Y-71284733D01*
X151478811Y-71284732D01*
X151478814Y-71284727D01*
X151536024Y-71096132D01*
X151555341Y-70900000D01*
X151536024Y-70703868D01*
X151478814Y-70515273D01*
X151478811Y-70515269D01*
X151478811Y-70515266D01*
X151385913Y-70341467D01*
X151385909Y-70341460D01*
X151260883Y-70189116D01*
X151108539Y-70064090D01*
X151108532Y-70064086D01*
X150934733Y-69971188D01*
X150934727Y-69971186D01*
X150746132Y-69913976D01*
X150746129Y-69913975D01*
X150550000Y-69894659D01*
X150353870Y-69913975D01*
X150165270Y-69971187D01*
X150131419Y-69989280D01*
X150063015Y-70003520D01*
X149997772Y-69978517D01*
X149964004Y-69936566D01*
X149963605Y-69936813D01*
X149961647Y-69933638D01*
X149960584Y-69932318D01*
X149959815Y-69930669D01*
X149959814Y-69930666D01*
X149867712Y-69781344D01*
X149743656Y-69657288D01*
X149594334Y-69565186D01*
X149427797Y-69510001D01*
X149427795Y-69510000D01*
X149325010Y-69499500D01*
X148574998Y-69499500D01*
X148574980Y-69499501D01*
X148472203Y-69510000D01*
X148472200Y-69510001D01*
X148305668Y-69565185D01*
X148305663Y-69565187D01*
X148156342Y-69657289D01*
X148032289Y-69781342D01*
X147940187Y-69930663D01*
X147940185Y-69930668D01*
X147912349Y-70014670D01*
X147885001Y-70097203D01*
X147885001Y-70097204D01*
X147885000Y-70097204D01*
X147874500Y-70199983D01*
X147075498Y-70199983D01*
X147074499Y-70190207D01*
X147064999Y-70097203D01*
X147064998Y-70097200D01*
X147054025Y-70064086D01*
X147009814Y-69930666D01*
X146917712Y-69781344D01*
X146793656Y-69657288D01*
X146788549Y-69652181D01*
X146790435Y-69650294D01*
X146757212Y-69603375D01*
X146750500Y-69563132D01*
X146750500Y-69499499D01*
X146770185Y-69432460D01*
X146822989Y-69386705D01*
X146874500Y-69375499D01*
X147437502Y-69375499D01*
X147437508Y-69375499D01*
X147540297Y-69364999D01*
X147706834Y-69309814D01*
X147856156Y-69217712D01*
X147873874Y-69199994D01*
X151794357Y-69199994D01*
X151794357Y-69200005D01*
X151814890Y-69447812D01*
X151814892Y-69447824D01*
X151875936Y-69688881D01*
X151975826Y-69916606D01*
X152111833Y-70124782D01*
X152111836Y-70124785D01*
X152280256Y-70307738D01*
X152476491Y-70460474D01*
X152695190Y-70578828D01*
X152705682Y-70582430D01*
X152706524Y-70582719D01*
X152763539Y-70623106D01*
X152789668Y-70687906D01*
X152776615Y-70756546D01*
X152728526Y-70807233D01*
X152706524Y-70817281D01*
X152695191Y-70821171D01*
X152695188Y-70821172D01*
X152476493Y-70939524D01*
X152280257Y-71092261D01*
X152111833Y-71275217D01*
X151975826Y-71483393D01*
X151875936Y-71711118D01*
X151814892Y-71952175D01*
X151814890Y-71952187D01*
X151794357Y-72199994D01*
X151794357Y-72200005D01*
X151814890Y-72447812D01*
X151814892Y-72447824D01*
X151875936Y-72688881D01*
X151975826Y-72916606D01*
X152111833Y-73124782D01*
X152111836Y-73124785D01*
X152280256Y-73307738D01*
X152476491Y-73460474D01*
X152695190Y-73578828D01*
X152705682Y-73582430D01*
X152706524Y-73582719D01*
X152763539Y-73623106D01*
X152789668Y-73687906D01*
X152776615Y-73756546D01*
X152728526Y-73807233D01*
X152706524Y-73817281D01*
X152695191Y-73821171D01*
X152695188Y-73821172D01*
X152476493Y-73939524D01*
X152280257Y-74092261D01*
X152111833Y-74275217D01*
X151975826Y-74483393D01*
X151875936Y-74711118D01*
X151814892Y-74952175D01*
X151814890Y-74952187D01*
X151794357Y-75199994D01*
X151794357Y-75200005D01*
X151814890Y-75447812D01*
X151814892Y-75447824D01*
X151875936Y-75688881D01*
X151975826Y-75916606D01*
X152111833Y-76124782D01*
X152111836Y-76124785D01*
X152280256Y-76307738D01*
X152476491Y-76460474D01*
X152476493Y-76460475D01*
X152694332Y-76578364D01*
X152695190Y-76578828D01*
X152793850Y-76612698D01*
X152928964Y-76659083D01*
X152930386Y-76659571D01*
X153175665Y-76700500D01*
X153424335Y-76700500D01*
X153669614Y-76659571D01*
X153904810Y-76578828D01*
X154123509Y-76460474D01*
X154319744Y-76307738D01*
X154488164Y-76124785D01*
X154624173Y-75916607D01*
X154724063Y-75688881D01*
X154785108Y-75447821D01*
X154785116Y-75447729D01*
X154805643Y-75200005D01*
X154805643Y-75199994D01*
X161794859Y-75199994D01*
X161794859Y-75200005D01*
X161815385Y-75447729D01*
X161815387Y-75447738D01*
X161876412Y-75688717D01*
X161976266Y-75916364D01*
X162076564Y-76069882D01*
X162817037Y-75329409D01*
X162834075Y-75392993D01*
X162899901Y-75507007D01*
X162992993Y-75600099D01*
X163107007Y-75665925D01*
X163170590Y-75682962D01*
X162429942Y-76423609D01*
X162476768Y-76460055D01*
X162476770Y-76460056D01*
X162695385Y-76578364D01*
X162695396Y-76578369D01*
X162930506Y-76659083D01*
X163175707Y-76700000D01*
X163424293Y-76700000D01*
X163669493Y-76659083D01*
X163904603Y-76578369D01*
X163904614Y-76578364D01*
X164123228Y-76460057D01*
X164123231Y-76460055D01*
X164170056Y-76423609D01*
X163429409Y-75682962D01*
X163492993Y-75665925D01*
X163607007Y-75600099D01*
X163700099Y-75507007D01*
X163765925Y-75392993D01*
X163782962Y-75329410D01*
X164523434Y-76069882D01*
X164623731Y-75916369D01*
X164723587Y-75688717D01*
X164784612Y-75447738D01*
X164784614Y-75447729D01*
X164805141Y-75200005D01*
X164805141Y-75199994D01*
X164784614Y-74952270D01*
X164784612Y-74952261D01*
X164723587Y-74711282D01*
X164623731Y-74483630D01*
X164523434Y-74330116D01*
X163782962Y-75070589D01*
X163765925Y-75007007D01*
X163700099Y-74892993D01*
X163607007Y-74799901D01*
X163492993Y-74734075D01*
X163429410Y-74717037D01*
X164170057Y-73976390D01*
X164170056Y-73976389D01*
X164123229Y-73939943D01*
X163904614Y-73821635D01*
X163904603Y-73821630D01*
X163669493Y-73740916D01*
X163424293Y-73700000D01*
X163175707Y-73700000D01*
X162930506Y-73740916D01*
X162695396Y-73821630D01*
X162695390Y-73821632D01*
X162476761Y-73939949D01*
X162429942Y-73976388D01*
X162429942Y-73976390D01*
X163170590Y-74717037D01*
X163107007Y-74734075D01*
X162992993Y-74799901D01*
X162899901Y-74892993D01*
X162834075Y-75007007D01*
X162817037Y-75070589D01*
X162076564Y-74330116D01*
X161976267Y-74483632D01*
X161876412Y-74711282D01*
X161815387Y-74952261D01*
X161815385Y-74952270D01*
X161794859Y-75199994D01*
X154805643Y-75199994D01*
X154785109Y-74952187D01*
X154785107Y-74952175D01*
X154724063Y-74711118D01*
X154624173Y-74483393D01*
X154488166Y-74275217D01*
X154396109Y-74175217D01*
X154319744Y-74092262D01*
X154123509Y-73939526D01*
X154123507Y-73939525D01*
X154123506Y-73939524D01*
X153904811Y-73821172D01*
X153904802Y-73821169D01*
X153893477Y-73817281D01*
X153836462Y-73776896D01*
X153810331Y-73712096D01*
X153823382Y-73643456D01*
X153871471Y-73592768D01*
X153893477Y-73582719D01*
X153897235Y-73581428D01*
X153904810Y-73578828D01*
X154123509Y-73460474D01*
X154319744Y-73307738D01*
X154358448Y-73265694D01*
X154381626Y-73240517D01*
X154441513Y-73204526D01*
X154472855Y-73200500D01*
X154665202Y-73200500D01*
X154732241Y-73220185D01*
X154770739Y-73259401D01*
X154807288Y-73318656D01*
X154931344Y-73442712D01*
X155080666Y-73534814D01*
X155247203Y-73589999D01*
X155349991Y-73600500D01*
X156100008Y-73600499D01*
X156100016Y-73600498D01*
X156100019Y-73600498D01*
X156175690Y-73592768D01*
X156202797Y-73589999D01*
X156369334Y-73534814D01*
X156518656Y-73442712D01*
X156642712Y-73318656D01*
X156734814Y-73169334D01*
X156762761Y-73084994D01*
X156802534Y-73027551D01*
X156867050Y-73000728D01*
X156880467Y-73000000D01*
X157520060Y-73000000D01*
X157587099Y-73019685D01*
X157632854Y-73072489D01*
X157637766Y-73084996D01*
X157665641Y-73169119D01*
X157665643Y-73169124D01*
X157757684Y-73318345D01*
X157881654Y-73442315D01*
X158030875Y-73534356D01*
X158030880Y-73534358D01*
X158197302Y-73589505D01*
X158197309Y-73589506D01*
X158300019Y-73599999D01*
X158424999Y-73599999D01*
X158925000Y-73599999D01*
X159049972Y-73599999D01*
X159049986Y-73599998D01*
X159152697Y-73589505D01*
X159319119Y-73534358D01*
X159319124Y-73534356D01*
X159468345Y-73442315D01*
X159592315Y-73318345D01*
X159684356Y-73169124D01*
X159684358Y-73169119D01*
X159739505Y-73002697D01*
X159739506Y-73002690D01*
X159749999Y-72899986D01*
X159750000Y-72899973D01*
X159750000Y-72450000D01*
X158925000Y-72450000D01*
X158925000Y-73599999D01*
X158424999Y-73599999D01*
X158425000Y-73599998D01*
X158425000Y-71950000D01*
X158925000Y-71950000D01*
X159749999Y-71950000D01*
X159749999Y-71500028D01*
X159749998Y-71500013D01*
X159739505Y-71397302D01*
X159684358Y-71230880D01*
X159684356Y-71230875D01*
X159592315Y-71081654D01*
X159468345Y-70957684D01*
X159319124Y-70865643D01*
X159319119Y-70865641D01*
X159152697Y-70810494D01*
X159152690Y-70810493D01*
X159049986Y-70800000D01*
X158925000Y-70800000D01*
X158925000Y-71950000D01*
X158425000Y-71950000D01*
X158425000Y-70800000D01*
X158300027Y-70800000D01*
X158300012Y-70800001D01*
X158197302Y-70810494D01*
X158030880Y-70865641D01*
X158030875Y-70865643D01*
X157881654Y-70957684D01*
X157757684Y-71081654D01*
X157665643Y-71230875D01*
X157665641Y-71230880D01*
X157637766Y-71315004D01*
X157597994Y-71372449D01*
X157533478Y-71399272D01*
X157520060Y-71400000D01*
X156880467Y-71400000D01*
X156813428Y-71380315D01*
X156767673Y-71327511D01*
X156762761Y-71315005D01*
X156758585Y-71302402D01*
X156734814Y-71230666D01*
X156642712Y-71081344D01*
X156518656Y-70957288D01*
X156421604Y-70897426D01*
X156369336Y-70865187D01*
X156369331Y-70865185D01*
X156367862Y-70864698D01*
X156202797Y-70810001D01*
X156202795Y-70810000D01*
X156100010Y-70799500D01*
X155349998Y-70799500D01*
X155349980Y-70799501D01*
X155247203Y-70810000D01*
X155247200Y-70810001D01*
X155080668Y-70865185D01*
X155080663Y-70865187D01*
X154931342Y-70957289D01*
X154807289Y-71081342D01*
X154798167Y-71096132D01*
X154776601Y-71131097D01*
X154770741Y-71140597D01*
X154718793Y-71187321D01*
X154665202Y-71199500D01*
X154472855Y-71199500D01*
X154405816Y-71179815D01*
X154381626Y-71159483D01*
X154319747Y-71092265D01*
X154319744Y-71092262D01*
X154260813Y-71046394D01*
X154123509Y-70939526D01*
X154123507Y-70939525D01*
X154123506Y-70939524D01*
X153904811Y-70821172D01*
X153904802Y-70821169D01*
X153893477Y-70817281D01*
X153836462Y-70776896D01*
X153810331Y-70712096D01*
X153823382Y-70643456D01*
X153871471Y-70592768D01*
X153893477Y-70582719D01*
X153897235Y-70581428D01*
X153904810Y-70578828D01*
X154123509Y-70460474D01*
X154319744Y-70307738D01*
X154488164Y-70124785D01*
X154624173Y-69916607D01*
X154724063Y-69688881D01*
X154785108Y-69447821D01*
X154786381Y-69432460D01*
X154805643Y-69200005D01*
X154805643Y-69199994D01*
X161794357Y-69199994D01*
X161794357Y-69200005D01*
X161814890Y-69447812D01*
X161814892Y-69447824D01*
X161875936Y-69688881D01*
X161975826Y-69916606D01*
X162111833Y-70124782D01*
X162111836Y-70124785D01*
X162280256Y-70307738D01*
X162476491Y-70460474D01*
X162695190Y-70578828D01*
X162930386Y-70659571D01*
X163175665Y-70700500D01*
X163424335Y-70700500D01*
X163669614Y-70659571D01*
X163904810Y-70578828D01*
X164123509Y-70460474D01*
X164319744Y-70307738D01*
X164488164Y-70124785D01*
X164624173Y-69916607D01*
X164724063Y-69688881D01*
X164785108Y-69447821D01*
X164786381Y-69432460D01*
X164805643Y-69200005D01*
X164805643Y-69199994D01*
X164785109Y-68952187D01*
X164785107Y-68952175D01*
X164724063Y-68711118D01*
X164624173Y-68483393D01*
X164488166Y-68275217D01*
X164396109Y-68175217D01*
X164319744Y-68092262D01*
X164123509Y-67939526D01*
X164123507Y-67939525D01*
X164123506Y-67939524D01*
X163904811Y-67821172D01*
X163904802Y-67821169D01*
X163669616Y-67740429D01*
X163424335Y-67699500D01*
X163175665Y-67699500D01*
X162930383Y-67740429D01*
X162695197Y-67821169D01*
X162695188Y-67821172D01*
X162476493Y-67939524D01*
X162280257Y-68092261D01*
X162111833Y-68275217D01*
X161975826Y-68483393D01*
X161875936Y-68711118D01*
X161814892Y-68952175D01*
X161814890Y-68952187D01*
X161794357Y-69199994D01*
X154805643Y-69199994D01*
X154785109Y-68952187D01*
X154785107Y-68952175D01*
X154724063Y-68711118D01*
X154624173Y-68483393D01*
X154488166Y-68275217D01*
X154396109Y-68175217D01*
X154319744Y-68092262D01*
X154123509Y-67939526D01*
X154123507Y-67939525D01*
X154123506Y-67939524D01*
X153904811Y-67821172D01*
X153904802Y-67821169D01*
X153669616Y-67740429D01*
X153424335Y-67699500D01*
X153175665Y-67699500D01*
X152930383Y-67740429D01*
X152695197Y-67821169D01*
X152695188Y-67821172D01*
X152476493Y-67939524D01*
X152280257Y-68092261D01*
X152111833Y-68275217D01*
X151975826Y-68483393D01*
X151875936Y-68711118D01*
X151814892Y-68952175D01*
X151814890Y-68952187D01*
X151794357Y-69199994D01*
X147873874Y-69199994D01*
X147980212Y-69093656D01*
X148072314Y-68944334D01*
X148127499Y-68777797D01*
X148138000Y-68675009D01*
X148137999Y-67324992D01*
X148127499Y-67222203D01*
X148072314Y-67055666D01*
X147980212Y-66906344D01*
X147943863Y-66869995D01*
X165354953Y-66869995D01*
X165354953Y-66870004D01*
X165375113Y-67139026D01*
X165375113Y-67139028D01*
X165435142Y-67402033D01*
X165435148Y-67402052D01*
X165533709Y-67653181D01*
X165533708Y-67653181D01*
X165668602Y-67886822D01*
X165722294Y-67954151D01*
X165722295Y-67954151D01*
X166444153Y-67232293D01*
X166451049Y-67248942D01*
X166538599Y-67379970D01*
X166650030Y-67491401D01*
X166781058Y-67578951D01*
X166797705Y-67585846D01*
X166074848Y-68308702D01*
X166257483Y-68433220D01*
X166257485Y-68433221D01*
X166500539Y-68550269D01*
X166500537Y-68550269D01*
X166758337Y-68629790D01*
X166758343Y-68629792D01*
X167025101Y-68669999D01*
X167025110Y-68670000D01*
X167294890Y-68670000D01*
X167294898Y-68669999D01*
X167561656Y-68629792D01*
X167561662Y-68629790D01*
X167819458Y-68550270D01*
X168037927Y-68445061D01*
X168106869Y-68433709D01*
X168171003Y-68461431D01*
X168209969Y-68519426D01*
X168211394Y-68589281D01*
X168207158Y-68602081D01*
X168122583Y-68817578D01*
X168122578Y-68817590D01*
X168122576Y-68817597D01*
X168064197Y-69073374D01*
X168064196Y-69073379D01*
X168044592Y-69334995D01*
X168044592Y-69335004D01*
X168064196Y-69596620D01*
X168064197Y-69596625D01*
X168122576Y-69852402D01*
X168122582Y-69852421D01*
X168218432Y-70096643D01*
X168324256Y-70279937D01*
X168340729Y-70347837D01*
X168317876Y-70413864D01*
X168262955Y-70457055D01*
X168193402Y-70463696D01*
X168147017Y-70444390D01*
X168062526Y-70386784D01*
X168062516Y-70386778D01*
X167819460Y-70269730D01*
X167819462Y-70269730D01*
X167561662Y-70190209D01*
X167561656Y-70190207D01*
X167294898Y-70150000D01*
X167025101Y-70150000D01*
X166758343Y-70190207D01*
X166758337Y-70190209D01*
X166500538Y-70269730D01*
X166257485Y-70386778D01*
X166257476Y-70386783D01*
X166074848Y-70511296D01*
X166797705Y-71234153D01*
X166781058Y-71241049D01*
X166650030Y-71328599D01*
X166538599Y-71440030D01*
X166451049Y-71571058D01*
X166444153Y-71587706D01*
X165722295Y-70865848D01*
X165668600Y-70933180D01*
X165533709Y-71166818D01*
X165435148Y-71417947D01*
X165435142Y-71417966D01*
X165375113Y-71680971D01*
X165375113Y-71680973D01*
X165354953Y-71949995D01*
X165354953Y-71950000D01*
X165375113Y-72219026D01*
X165375113Y-72219028D01*
X165435142Y-72482033D01*
X165435148Y-72482052D01*
X165533709Y-72733181D01*
X165533708Y-72733181D01*
X165668602Y-72966822D01*
X165722294Y-73034151D01*
X165722295Y-73034151D01*
X166444153Y-72312293D01*
X166451049Y-72328942D01*
X166538599Y-72459970D01*
X166650030Y-72571401D01*
X166781058Y-72658951D01*
X166797705Y-72665846D01*
X166074848Y-73388702D01*
X166257483Y-73513220D01*
X166257485Y-73513221D01*
X166500539Y-73630269D01*
X166500537Y-73630269D01*
X166758337Y-73709790D01*
X166758343Y-73709792D01*
X167025101Y-73749999D01*
X167025110Y-73750000D01*
X167294890Y-73750000D01*
X167294898Y-73749999D01*
X167561656Y-73709792D01*
X167561662Y-73709790D01*
X167819461Y-73630269D01*
X168062521Y-73513218D01*
X168245150Y-73388702D01*
X167522294Y-72665846D01*
X167538942Y-72658951D01*
X167669970Y-72571401D01*
X167781401Y-72459970D01*
X167868951Y-72328942D01*
X167875846Y-72312294D01*
X168597703Y-73034151D01*
X168597704Y-73034150D01*
X168651393Y-72966828D01*
X168651400Y-72966817D01*
X168786290Y-72733181D01*
X168884851Y-72482052D01*
X168884857Y-72482033D01*
X168944886Y-72219028D01*
X168944886Y-72219026D01*
X168965047Y-71950000D01*
X168965047Y-71949995D01*
X168944886Y-71680973D01*
X168944886Y-71680971D01*
X168884857Y-71417966D01*
X168884851Y-71417947D01*
X168786290Y-71166818D01*
X168786291Y-71166818D01*
X168672961Y-70970527D01*
X168656488Y-70902627D01*
X168679340Y-70836600D01*
X168734261Y-70793410D01*
X168803815Y-70786768D01*
X168850197Y-70806071D01*
X168922296Y-70855228D01*
X168922301Y-70855230D01*
X168922302Y-70855231D01*
X168922303Y-70855232D01*
X169015266Y-70900000D01*
X169158673Y-70969061D01*
X169158674Y-70969061D01*
X169158677Y-70969063D01*
X169409385Y-71046396D01*
X169668818Y-71085500D01*
X169931182Y-71085500D01*
X170190615Y-71046396D01*
X170441323Y-70969063D01*
X170476056Y-70952336D01*
X170544994Y-70940985D01*
X170609128Y-70968706D01*
X170648094Y-71026701D01*
X170649520Y-71096556D01*
X170637243Y-71126056D01*
X170613708Y-71166820D01*
X170515148Y-71417947D01*
X170515142Y-71417966D01*
X170455113Y-71680971D01*
X170455113Y-71680973D01*
X170434953Y-71949995D01*
X170434953Y-71950000D01*
X170455113Y-72219026D01*
X170455113Y-72219028D01*
X170515142Y-72482033D01*
X170515148Y-72482052D01*
X170613709Y-72733181D01*
X170613708Y-72733181D01*
X170748602Y-72966822D01*
X170802294Y-73034151D01*
X171524152Y-72312293D01*
X171531049Y-72328942D01*
X171618599Y-72459970D01*
X171730030Y-72571401D01*
X171861058Y-72658951D01*
X171877705Y-72665846D01*
X171154848Y-73388702D01*
X171337483Y-73513220D01*
X171337485Y-73513221D01*
X171580539Y-73630269D01*
X171580537Y-73630269D01*
X171838337Y-73709790D01*
X171838343Y-73709792D01*
X172105101Y-73749999D01*
X172105110Y-73750000D01*
X172374890Y-73750000D01*
X172374898Y-73749999D01*
X172641656Y-73709792D01*
X172641662Y-73709790D01*
X172899461Y-73630269D01*
X173142521Y-73513218D01*
X173325150Y-73388702D01*
X172602294Y-72665846D01*
X172618942Y-72658951D01*
X172749970Y-72571401D01*
X172861401Y-72459970D01*
X172948951Y-72328942D01*
X172955846Y-72312294D01*
X173677703Y-73034151D01*
X173677704Y-73034150D01*
X173731393Y-72966828D01*
X173731400Y-72966817D01*
X173866290Y-72733181D01*
X173964851Y-72482052D01*
X173964857Y-72482033D01*
X174024886Y-72219028D01*
X174024886Y-72219026D01*
X174045047Y-71950000D01*
X174045047Y-71949995D01*
X174024886Y-71680973D01*
X174024886Y-71680971D01*
X173964857Y-71417966D01*
X173964851Y-71417947D01*
X173866290Y-71166818D01*
X173866291Y-71166818D01*
X173731397Y-70933177D01*
X173677704Y-70865847D01*
X172955846Y-71587705D01*
X172948951Y-71571058D01*
X172861401Y-71440030D01*
X172749970Y-71328599D01*
X172618942Y-71241049D01*
X172602293Y-71234153D01*
X173325150Y-70511296D01*
X173142517Y-70386779D01*
X173142516Y-70386778D01*
X172899460Y-70269730D01*
X172899462Y-70269730D01*
X172641662Y-70190209D01*
X172641656Y-70190207D01*
X172374898Y-70150000D01*
X172105101Y-70150000D01*
X171838343Y-70190207D01*
X171838337Y-70190209D01*
X171580544Y-70269728D01*
X171528711Y-70294690D01*
X171459769Y-70306041D01*
X171395635Y-70278318D01*
X171356670Y-70220323D01*
X171355245Y-70150468D01*
X171367522Y-70120970D01*
X171381568Y-70096643D01*
X171477420Y-69852416D01*
X171535802Y-69596630D01*
X171536383Y-69588881D01*
X171555408Y-69335004D01*
X171555408Y-69334995D01*
X171535803Y-69073379D01*
X171535802Y-69073374D01*
X171535802Y-69073370D01*
X171477420Y-68817584D01*
X171437923Y-68716949D01*
X171431755Y-68647353D01*
X171464193Y-68585470D01*
X171524938Y-68550947D01*
X171589902Y-68553157D01*
X171838337Y-68629790D01*
X171838343Y-68629792D01*
X172105101Y-68669999D01*
X172105110Y-68670000D01*
X172374890Y-68670000D01*
X172374898Y-68669999D01*
X172641656Y-68629792D01*
X172641662Y-68629790D01*
X172899461Y-68550269D01*
X173142521Y-68433218D01*
X173325150Y-68308702D01*
X172602294Y-67585846D01*
X172618942Y-67578951D01*
X172749970Y-67491401D01*
X172861401Y-67379970D01*
X172948951Y-67248942D01*
X172955846Y-67232294D01*
X173677703Y-67954151D01*
X173677704Y-67954150D01*
X173731393Y-67886828D01*
X173731400Y-67886817D01*
X173866290Y-67653181D01*
X173964851Y-67402052D01*
X173964857Y-67402033D01*
X174024886Y-67139028D01*
X174024886Y-67139026D01*
X174045047Y-66870004D01*
X174045047Y-66869995D01*
X174024886Y-66600973D01*
X174024886Y-66600971D01*
X173964857Y-66337966D01*
X173964851Y-66337947D01*
X173866290Y-66086818D01*
X173866291Y-66086818D01*
X173731397Y-65853177D01*
X173677704Y-65785847D01*
X172955846Y-66507705D01*
X172948951Y-66491058D01*
X172861401Y-66360030D01*
X172749970Y-66248599D01*
X172618942Y-66161049D01*
X172602294Y-66154153D01*
X173325150Y-65431296D01*
X173142517Y-65306779D01*
X173142516Y-65306778D01*
X172899460Y-65189730D01*
X172899462Y-65189730D01*
X172641662Y-65110209D01*
X172641656Y-65110207D01*
X172374898Y-65070000D01*
X172105101Y-65070000D01*
X171838343Y-65110207D01*
X171838337Y-65110209D01*
X171580538Y-65189730D01*
X171337485Y-65306778D01*
X171337476Y-65306783D01*
X171154848Y-65431296D01*
X171877705Y-66154153D01*
X171861058Y-66161049D01*
X171730030Y-66248599D01*
X171618599Y-66360030D01*
X171531049Y-66491058D01*
X171524153Y-66507706D01*
X170802295Y-65785848D01*
X170748600Y-65853180D01*
X170613709Y-66086818D01*
X170515148Y-66337947D01*
X170515142Y-66337966D01*
X170455113Y-66600971D01*
X170455113Y-66600973D01*
X170434953Y-66869995D01*
X170434953Y-66870004D01*
X170455113Y-67139026D01*
X170455113Y-67139028D01*
X170515142Y-67402033D01*
X170515148Y-67402052D01*
X170564706Y-67528324D01*
X170570875Y-67597921D01*
X170538437Y-67659804D01*
X170477692Y-67694327D01*
X170412729Y-67692117D01*
X170307973Y-67659804D01*
X170190623Y-67623606D01*
X170190619Y-67623605D01*
X170190615Y-67623604D01*
X170065823Y-67604794D01*
X169931187Y-67584500D01*
X169931182Y-67584500D01*
X169668818Y-67584500D01*
X169668812Y-67584500D01*
X169507247Y-67608853D01*
X169409385Y-67623604D01*
X169409382Y-67623605D01*
X169409376Y-67623606D01*
X169158673Y-67700938D01*
X168961052Y-67796107D01*
X168892111Y-67807459D01*
X168827976Y-67779736D01*
X168789011Y-67721741D01*
X168787586Y-67651886D01*
X168791823Y-67639085D01*
X168884851Y-67402052D01*
X168884857Y-67402033D01*
X168944886Y-67139028D01*
X168944886Y-67139026D01*
X168965047Y-66870004D01*
X168965047Y-66869995D01*
X168944886Y-66600973D01*
X168944886Y-66600971D01*
X168884857Y-66337966D01*
X168884851Y-66337947D01*
X168786290Y-66086818D01*
X168786291Y-66086818D01*
X168651397Y-65853177D01*
X168597704Y-65785847D01*
X167875846Y-66507705D01*
X167868951Y-66491058D01*
X167781401Y-66360030D01*
X167669970Y-66248599D01*
X167538942Y-66161049D01*
X167522294Y-66154153D01*
X168245150Y-65431296D01*
X168062517Y-65306779D01*
X168062516Y-65306778D01*
X167819460Y-65189730D01*
X167819462Y-65189730D01*
X167561662Y-65110209D01*
X167561656Y-65110207D01*
X167294898Y-65070000D01*
X167025101Y-65070000D01*
X166758343Y-65110207D01*
X166758337Y-65110209D01*
X166500538Y-65189730D01*
X166257485Y-65306778D01*
X166257476Y-65306783D01*
X166074848Y-65431296D01*
X166797705Y-66154153D01*
X166781058Y-66161049D01*
X166650030Y-66248599D01*
X166538599Y-66360030D01*
X166451049Y-66491058D01*
X166444153Y-66507706D01*
X165722295Y-65785848D01*
X165668600Y-65853180D01*
X165533709Y-66086818D01*
X165435148Y-66337947D01*
X165435142Y-66337966D01*
X165375113Y-66600971D01*
X165375113Y-66600973D01*
X165354953Y-66869995D01*
X147943863Y-66869995D01*
X147856156Y-66782288D01*
X147706834Y-66690186D01*
X147540297Y-66635001D01*
X147540295Y-66635000D01*
X147437510Y-66624500D01*
X146712498Y-66624500D01*
X146712480Y-66624501D01*
X146609703Y-66635000D01*
X146609700Y-66635001D01*
X146443168Y-66690185D01*
X146443163Y-66690187D01*
X146293842Y-66782289D01*
X146169789Y-66906342D01*
X146077687Y-67055663D01*
X146077685Y-67055668D01*
X146054877Y-67124500D01*
X146022501Y-67222203D01*
X146022501Y-67222204D01*
X146022500Y-67222204D01*
X146012000Y-67324983D01*
X146012000Y-67950270D01*
X145992315Y-68017309D01*
X145975681Y-68037951D01*
X145424680Y-68588951D01*
X145363357Y-68622436D01*
X145293665Y-68617452D01*
X145237732Y-68575580D01*
X145213315Y-68510116D01*
X145212999Y-68501294D01*
X145212999Y-67324992D01*
X145202499Y-67222203D01*
X145147314Y-67055666D01*
X145055212Y-66906344D01*
X144931156Y-66782288D01*
X144781834Y-66690186D01*
X144615297Y-66635001D01*
X144615295Y-66635000D01*
X144512510Y-66624500D01*
X143787498Y-66624500D01*
X143787480Y-66624501D01*
X143684703Y-66635000D01*
X143684700Y-66635001D01*
X143518168Y-66690185D01*
X143518163Y-66690187D01*
X143368842Y-66782289D01*
X143244789Y-66906342D01*
X143244788Y-66906344D01*
X143178401Y-67013976D01*
X143148895Y-67061813D01*
X143147100Y-67060706D01*
X143107813Y-67105337D01*
X143041592Y-67124500D01*
X142815530Y-67124500D01*
X142757077Y-67109858D01*
X142725467Y-67092962D01*
X142684730Y-67071187D01*
X142653828Y-67061813D01*
X142496132Y-67013976D01*
X142496129Y-67013975D01*
X142300000Y-66994659D01*
X142103870Y-67013975D01*
X141915266Y-67071188D01*
X141741467Y-67164086D01*
X141741460Y-67164090D01*
X141589116Y-67289116D01*
X141464090Y-67441460D01*
X141464086Y-67441467D01*
X141371188Y-67615266D01*
X141313975Y-67803870D01*
X141294659Y-68000000D01*
X136726867Y-68000000D01*
X136719744Y-67992262D01*
X136523509Y-67839526D01*
X136523507Y-67839525D01*
X136523506Y-67839524D01*
X136304811Y-67721172D01*
X136304802Y-67721169D01*
X136069616Y-67640429D01*
X135824335Y-67599500D01*
X135575665Y-67599500D01*
X135330383Y-67640429D01*
X135095197Y-67721169D01*
X135095188Y-67721172D01*
X134876493Y-67839524D01*
X134680257Y-67992261D01*
X134511833Y-68175217D01*
X134375826Y-68383393D01*
X134275936Y-68611118D01*
X134214892Y-68852175D01*
X134214890Y-68852187D01*
X134194357Y-69099994D01*
X134194357Y-69100005D01*
X134214890Y-69347812D01*
X134214892Y-69347824D01*
X134275936Y-69588881D01*
X134375826Y-69816606D01*
X134511833Y-70024782D01*
X134511836Y-70024785D01*
X134680256Y-70207738D01*
X134876491Y-70360474D01*
X134876493Y-70360475D01*
X135067228Y-70463696D01*
X135095190Y-70478828D01*
X135105682Y-70482430D01*
X135106524Y-70482719D01*
X135163539Y-70523106D01*
X135189668Y-70587906D01*
X135176615Y-70656546D01*
X135128526Y-70707233D01*
X135106524Y-70717281D01*
X135095191Y-70721171D01*
X135095188Y-70721172D01*
X134876493Y-70839524D01*
X134680257Y-70992261D01*
X134680256Y-70992262D01*
X134511836Y-71175215D01*
X134511834Y-71175216D01*
X134511831Y-71175221D01*
X134510702Y-71176672D01*
X134510091Y-71177111D01*
X134508363Y-71178989D01*
X134507976Y-71178633D01*
X134453988Y-71217479D01*
X134412856Y-71224500D01*
X134280449Y-71224500D01*
X134213410Y-71204815D01*
X134167655Y-71152011D01*
X134162744Y-71139507D01*
X134159814Y-71130667D01*
X134159814Y-71130666D01*
X134067712Y-70981344D01*
X133943656Y-70857288D01*
X133794334Y-70765186D01*
X133627797Y-70710001D01*
X133627795Y-70710000D01*
X133525010Y-70699500D01*
X132774998Y-70699500D01*
X132774980Y-70699501D01*
X132672203Y-70710000D01*
X132672200Y-70710001D01*
X132505668Y-70765185D01*
X132505663Y-70765187D01*
X132356342Y-70857289D01*
X132232287Y-70981344D01*
X132168045Y-71085499D01*
X132143030Y-71126056D01*
X132139921Y-71131096D01*
X132087973Y-71177821D01*
X132034382Y-71190000D01*
X131315032Y-71190000D01*
X131247993Y-71170315D01*
X131209494Y-71131097D01*
X131117319Y-70981659D01*
X131117316Y-70981655D01*
X130993345Y-70857684D01*
X130844124Y-70765643D01*
X130844119Y-70765641D01*
X130677697Y-70710494D01*
X130677690Y-70710493D01*
X130574986Y-70700000D01*
X130450000Y-70700000D01*
X129950000Y-70700000D01*
X129825027Y-70700000D01*
X129825012Y-70700001D01*
X129722302Y-70710494D01*
X129555880Y-70765641D01*
X129555875Y-70765643D01*
X129406654Y-70857684D01*
X129282684Y-70981654D01*
X129190643Y-71130875D01*
X129190641Y-71130880D01*
X129135494Y-71297302D01*
X129135493Y-71297309D01*
X129125000Y-71400013D01*
X110167812Y-71400013D01*
X110076290Y-71166818D01*
X110076291Y-71166818D01*
X109941397Y-70933177D01*
X109887704Y-70865847D01*
X109165846Y-71587705D01*
X109158951Y-71571058D01*
X109071401Y-71440030D01*
X108959970Y-71328599D01*
X108828942Y-71241049D01*
X108812293Y-71234153D01*
X109535150Y-70511296D01*
X109352517Y-70386779D01*
X109352516Y-70386778D01*
X109109460Y-70269730D01*
X109109462Y-70269730D01*
X108851662Y-70190209D01*
X108851656Y-70190207D01*
X108584898Y-70150000D01*
X108315101Y-70150000D01*
X108048343Y-70190207D01*
X108048337Y-70190209D01*
X107790544Y-70269728D01*
X107738711Y-70294690D01*
X107669769Y-70306041D01*
X107605635Y-70278318D01*
X107566670Y-70220323D01*
X107565245Y-70150468D01*
X107577522Y-70120970D01*
X107591568Y-70096643D01*
X107687420Y-69852416D01*
X107745802Y-69596630D01*
X107746383Y-69588881D01*
X107765408Y-69335004D01*
X107765408Y-69334995D01*
X107747797Y-69099994D01*
X124194357Y-69099994D01*
X124194357Y-69100005D01*
X124214890Y-69347812D01*
X124214892Y-69347824D01*
X124275936Y-69588881D01*
X124375826Y-69816606D01*
X124511833Y-70024782D01*
X124511836Y-70024785D01*
X124680256Y-70207738D01*
X124876491Y-70360474D01*
X124876493Y-70360475D01*
X125067228Y-70463696D01*
X125095190Y-70478828D01*
X125330386Y-70559571D01*
X125575665Y-70600500D01*
X125824335Y-70600500D01*
X126069614Y-70559571D01*
X126304810Y-70478828D01*
X126523509Y-70360474D01*
X126719744Y-70207738D01*
X126888164Y-70024785D01*
X127024173Y-69816607D01*
X127124063Y-69588881D01*
X127185108Y-69347821D01*
X127186170Y-69335004D01*
X127205643Y-69100005D01*
X127205643Y-69099994D01*
X127185109Y-68852187D01*
X127185107Y-68852175D01*
X127124063Y-68611118D01*
X127024173Y-68383393D01*
X126888166Y-68175217D01*
X126811800Y-68092262D01*
X126719744Y-67992262D01*
X126523509Y-67839526D01*
X126523507Y-67839525D01*
X126523506Y-67839524D01*
X126304811Y-67721172D01*
X126304802Y-67721169D01*
X126069616Y-67640429D01*
X125824335Y-67599500D01*
X125575665Y-67599500D01*
X125330383Y-67640429D01*
X125095197Y-67721169D01*
X125095188Y-67721172D01*
X124876493Y-67839524D01*
X124680257Y-67992261D01*
X124511833Y-68175217D01*
X124375826Y-68383393D01*
X124275936Y-68611118D01*
X124214892Y-68852175D01*
X124214890Y-68852187D01*
X124194357Y-69099994D01*
X107747797Y-69099994D01*
X107745803Y-69073379D01*
X107745802Y-69073374D01*
X107745802Y-69073370D01*
X107687420Y-68817584D01*
X107647923Y-68716949D01*
X107641755Y-68647353D01*
X107674193Y-68585470D01*
X107734938Y-68550947D01*
X107799902Y-68553157D01*
X108048337Y-68629790D01*
X108048343Y-68629792D01*
X108315101Y-68669999D01*
X108315110Y-68670000D01*
X108584890Y-68670000D01*
X108584898Y-68669999D01*
X108851656Y-68629792D01*
X108851662Y-68629790D01*
X109109461Y-68550269D01*
X109352521Y-68433218D01*
X109535150Y-68308702D01*
X108812294Y-67585846D01*
X108828942Y-67578951D01*
X108959970Y-67491401D01*
X109071401Y-67379970D01*
X109158951Y-67248942D01*
X109165846Y-67232294D01*
X109887703Y-67954151D01*
X109887704Y-67954150D01*
X109941393Y-67886828D01*
X109941400Y-67886817D01*
X110076290Y-67653181D01*
X110174851Y-67402052D01*
X110174857Y-67402033D01*
X110234886Y-67139028D01*
X110234886Y-67139026D01*
X110255047Y-66870004D01*
X110255047Y-66869995D01*
X110234886Y-66600973D01*
X110234886Y-66600971D01*
X110174857Y-66337966D01*
X110174851Y-66337947D01*
X110076290Y-66086818D01*
X110076291Y-66086818D01*
X109941397Y-65853177D01*
X109887704Y-65785847D01*
X109165846Y-66507705D01*
X109158951Y-66491058D01*
X109071401Y-66360030D01*
X108959970Y-66248599D01*
X108828942Y-66161049D01*
X108812294Y-66154153D01*
X109535150Y-65431296D01*
X109352517Y-65306779D01*
X109352516Y-65306778D01*
X109109460Y-65189730D01*
X109109462Y-65189730D01*
X108851662Y-65110209D01*
X108851656Y-65110207D01*
X108584898Y-65070000D01*
X108315101Y-65070000D01*
X108048343Y-65110207D01*
X108048337Y-65110209D01*
X107790538Y-65189730D01*
X107547485Y-65306778D01*
X107547476Y-65306783D01*
X107364848Y-65431296D01*
X108087705Y-66154153D01*
X108071058Y-66161049D01*
X107940030Y-66248599D01*
X107828599Y-66360030D01*
X107741049Y-66491058D01*
X107734153Y-66507706D01*
X107012295Y-65785848D01*
X106958600Y-65853180D01*
X106823709Y-66086818D01*
X106725148Y-66337947D01*
X106725142Y-66337966D01*
X106665113Y-66600971D01*
X106665113Y-66600973D01*
X106644953Y-66869995D01*
X106644953Y-66870004D01*
X106665113Y-67139026D01*
X106665113Y-67139028D01*
X106725142Y-67402033D01*
X106725148Y-67402052D01*
X106774706Y-67528324D01*
X106780875Y-67597921D01*
X106748437Y-67659804D01*
X106687692Y-67694327D01*
X106622729Y-67692117D01*
X106517973Y-67659804D01*
X106400623Y-67623606D01*
X106400619Y-67623605D01*
X106400615Y-67623604D01*
X106275823Y-67604794D01*
X106141187Y-67584500D01*
X106141182Y-67584500D01*
X105878818Y-67584500D01*
X105878812Y-67584500D01*
X105717247Y-67608853D01*
X105619385Y-67623604D01*
X105619382Y-67623605D01*
X105619376Y-67623606D01*
X105368673Y-67700938D01*
X105171052Y-67796107D01*
X105102111Y-67807459D01*
X105037976Y-67779736D01*
X104999011Y-67721741D01*
X104997586Y-67651886D01*
X105001823Y-67639085D01*
X105094851Y-67402052D01*
X105094857Y-67402033D01*
X105154886Y-67139028D01*
X105154886Y-67139026D01*
X105175047Y-66870004D01*
X105175047Y-66869995D01*
X105154886Y-66600973D01*
X105154886Y-66600971D01*
X105094857Y-66337966D01*
X105094851Y-66337947D01*
X104996290Y-66086818D01*
X104996291Y-66086818D01*
X104861397Y-65853177D01*
X104807704Y-65785847D01*
X104085846Y-66507705D01*
X104078951Y-66491058D01*
X103991401Y-66360030D01*
X103879970Y-66248599D01*
X103748942Y-66161049D01*
X103732294Y-66154153D01*
X104455150Y-65431296D01*
X104272517Y-65306779D01*
X104272516Y-65306778D01*
X104029460Y-65189730D01*
X104029462Y-65189730D01*
X103771662Y-65110209D01*
X103771656Y-65110207D01*
X103504898Y-65070000D01*
X103235101Y-65070000D01*
X102968343Y-65110207D01*
X102968337Y-65110209D01*
X102710538Y-65189730D01*
X102467485Y-65306778D01*
X102467476Y-65306783D01*
X102284848Y-65431296D01*
X103007705Y-66154153D01*
X102991058Y-66161049D01*
X102860030Y-66248599D01*
X102748599Y-66360030D01*
X102661049Y-66491058D01*
X102654153Y-66507706D01*
X101932295Y-65785848D01*
X101878600Y-65853180D01*
X101743709Y-66086818D01*
X101645148Y-66337947D01*
X101645142Y-66337966D01*
X101585113Y-66600971D01*
X101585113Y-66600973D01*
X101564953Y-66869995D01*
X100500500Y-66869995D01*
X100500500Y-55072626D01*
X100520185Y-55005587D01*
X100523400Y-55002801D01*
X100721054Y-55002801D01*
X100743477Y-55037691D01*
X100748360Y-55066726D01*
X100764447Y-55404450D01*
X100822071Y-55805231D01*
X100917531Y-56198722D01*
X100917534Y-56198733D01*
X101049956Y-56581340D01*
X101049966Y-56581365D01*
X101218168Y-56949675D01*
X101420621Y-57300335D01*
X101420627Y-57300343D01*
X101655485Y-57630154D01*
X101822985Y-57823460D01*
X103313098Y-56333347D01*
X103380076Y-56420635D01*
X103579365Y-56619924D01*
X103666650Y-56686900D01*
X102174928Y-58178622D01*
X102213676Y-58215568D01*
X102213695Y-58215585D01*
X102531968Y-58465877D01*
X102872594Y-58684782D01*
X103232485Y-58870319D01*
X103608383Y-59020806D01*
X103608395Y-59020810D01*
X103996882Y-59134880D01*
X103996899Y-59134884D01*
X104394460Y-59211508D01*
X104394472Y-59211510D01*
X104797554Y-59250000D01*
X105202446Y-59250000D01*
X105605527Y-59211510D01*
X105605539Y-59211508D01*
X106003100Y-59134884D01*
X106003117Y-59134880D01*
X106391604Y-59020810D01*
X106391616Y-59020806D01*
X106767507Y-58870322D01*
X106767511Y-58870320D01*
X107127406Y-58684782D01*
X107468031Y-58465877D01*
X107786314Y-58215578D01*
X107825069Y-58178622D01*
X106333348Y-56686901D01*
X106420635Y-56619924D01*
X106619924Y-56420635D01*
X106686901Y-56333348D01*
X108177012Y-57823459D01*
X108344512Y-57630156D01*
X108344523Y-57630143D01*
X108579372Y-57300343D01*
X108579378Y-57300335D01*
X108781831Y-56949675D01*
X108950033Y-56581365D01*
X108950043Y-56581340D01*
X109082465Y-56198733D01*
X109082468Y-56198722D01*
X109177928Y-55805231D01*
X109235552Y-55404450D01*
X109254818Y-55000000D01*
X166495181Y-55000000D01*
X166514447Y-55404450D01*
X166572071Y-55805231D01*
X166667531Y-56198722D01*
X166667534Y-56198733D01*
X166799956Y-56581340D01*
X166799966Y-56581365D01*
X166968168Y-56949675D01*
X167170621Y-57300335D01*
X167170627Y-57300343D01*
X167405485Y-57630154D01*
X167572985Y-57823460D01*
X169063098Y-56333347D01*
X169130076Y-56420635D01*
X169329365Y-56619924D01*
X169416650Y-56686900D01*
X167924928Y-58178622D01*
X167963676Y-58215568D01*
X167963695Y-58215585D01*
X168281968Y-58465877D01*
X168622594Y-58684782D01*
X168982485Y-58870319D01*
X169358383Y-59020806D01*
X169358395Y-59020810D01*
X169746882Y-59134880D01*
X169746899Y-59134884D01*
X170144460Y-59211508D01*
X170144472Y-59211510D01*
X170547554Y-59250000D01*
X170952446Y-59250000D01*
X171355527Y-59211510D01*
X171355539Y-59211508D01*
X171753100Y-59134884D01*
X171753117Y-59134880D01*
X172141604Y-59020810D01*
X172141616Y-59020806D01*
X172517507Y-58870322D01*
X172517511Y-58870320D01*
X172877406Y-58684782D01*
X173218031Y-58465877D01*
X173536314Y-58215578D01*
X173575069Y-58178622D01*
X172083348Y-56686901D01*
X172170635Y-56619924D01*
X172369924Y-56420635D01*
X172436901Y-56333348D01*
X173927012Y-57823459D01*
X174094512Y-57630156D01*
X174094523Y-57630143D01*
X174329372Y-57300343D01*
X174329378Y-57300335D01*
X174531831Y-56949675D01*
X174700033Y-56581365D01*
X174700043Y-56581340D01*
X174832465Y-56198733D01*
X174832468Y-56198722D01*
X174927928Y-55805231D01*
X174985552Y-55404450D01*
X175001640Y-55066726D01*
X175024493Y-55000699D01*
X175028945Y-54997197D01*
X175006523Y-54962308D01*
X175001640Y-54933273D01*
X174985552Y-54595549D01*
X174927928Y-54194768D01*
X174832468Y-53801277D01*
X174832465Y-53801266D01*
X174700043Y-53418659D01*
X174700033Y-53418634D01*
X174531831Y-53050324D01*
X174329378Y-52699664D01*
X174329372Y-52699656D01*
X174094523Y-52369856D01*
X174094512Y-52369843D01*
X173927013Y-52176538D01*
X172436900Y-53666650D01*
X172369924Y-53579365D01*
X172170635Y-53380076D01*
X172083348Y-53313098D01*
X173575070Y-51821376D01*
X173536323Y-51784431D01*
X173536304Y-51784414D01*
X173218031Y-51534122D01*
X172877406Y-51315217D01*
X172517511Y-51129679D01*
X172517507Y-51129677D01*
X172141616Y-50979193D01*
X172141604Y-50979189D01*
X171753117Y-50865119D01*
X171753100Y-50865115D01*
X171355539Y-50788491D01*
X171355527Y-50788489D01*
X170952446Y-50750000D01*
X170547554Y-50750000D01*
X170144472Y-50788489D01*
X170144460Y-50788491D01*
X169746899Y-50865115D01*
X169746882Y-50865119D01*
X169358395Y-50979189D01*
X169358383Y-50979193D01*
X168982485Y-51129680D01*
X168622594Y-51315217D01*
X168281968Y-51534122D01*
X167963685Y-51784421D01*
X167963673Y-51784432D01*
X167924929Y-51821375D01*
X167924929Y-51821376D01*
X169416651Y-53313098D01*
X169329365Y-53380076D01*
X169130076Y-53579365D01*
X169063098Y-53666651D01*
X167572986Y-52176539D01*
X167405485Y-52369845D01*
X167170627Y-52699656D01*
X167170621Y-52699664D01*
X166968168Y-53050324D01*
X166799966Y-53418634D01*
X166799956Y-53418659D01*
X166667534Y-53801266D01*
X166667531Y-53801277D01*
X166572071Y-54194768D01*
X166514447Y-54595549D01*
X166495181Y-55000000D01*
X109254818Y-55000000D01*
X109235552Y-54595549D01*
X109177928Y-54194768D01*
X109082468Y-53801277D01*
X109082465Y-53801266D01*
X108950043Y-53418659D01*
X108950033Y-53418634D01*
X108781831Y-53050324D01*
X108579378Y-52699664D01*
X108579372Y-52699656D01*
X108344523Y-52369856D01*
X108344512Y-52369843D01*
X108177013Y-52176538D01*
X106686900Y-53666650D01*
X106619924Y-53579365D01*
X106420635Y-53380076D01*
X106333348Y-53313098D01*
X107825070Y-51821376D01*
X107786323Y-51784431D01*
X107786304Y-51784414D01*
X107468031Y-51534122D01*
X107127406Y-51315217D01*
X106767511Y-51129679D01*
X106767507Y-51129677D01*
X106391616Y-50979193D01*
X106391604Y-50979189D01*
X106003117Y-50865119D01*
X106003100Y-50865115D01*
X105605539Y-50788491D01*
X105605527Y-50788489D01*
X105202446Y-50750000D01*
X104797554Y-50750000D01*
X104394472Y-50788489D01*
X104394460Y-50788491D01*
X103996899Y-50865115D01*
X103996882Y-50865119D01*
X103608395Y-50979189D01*
X103608383Y-50979193D01*
X103232485Y-51129680D01*
X102872594Y-51315217D01*
X102531968Y-51534122D01*
X102213685Y-51784421D01*
X102213673Y-51784432D01*
X102174929Y-51821375D01*
X102174929Y-51821376D01*
X103666651Y-53313098D01*
X103579365Y-53380076D01*
X103380076Y-53579365D01*
X103313098Y-53666651D01*
X101822986Y-52176539D01*
X101655485Y-52369845D01*
X101420627Y-52699656D01*
X101420621Y-52699664D01*
X101218168Y-53050324D01*
X101049966Y-53418634D01*
X101049956Y-53418659D01*
X100917534Y-53801266D01*
X100917531Y-53801277D01*
X100822071Y-54194768D01*
X100764447Y-54595549D01*
X100748360Y-54933273D01*
X100725507Y-54999300D01*
X100721054Y-55002801D01*
X100523400Y-55002801D01*
X100528242Y-54998605D01*
X100503995Y-54956607D01*
X100500500Y-54927373D01*
X100500500Y-50624500D01*
X100520185Y-50557461D01*
X100572989Y-50511706D01*
X100624500Y-50500500D01*
X175125500Y-50500500D01*
X175192539Y-50520185D01*
G37*
G04 #@! TD.AperFunction*
M02*
