G04 #@! TF.GenerationSoftware,KiCad,Pcbnew,9.0.2*
G04 #@! TF.CreationDate,2025-06-22T21:11:13-04:00*
G04 #@! TF.ProjectId,t41_2_low_power_amplifier,7434315f-325f-46c6-9f77-5f706f776572,V1.5*
G04 #@! TF.SameCoordinates,Original*
G04 #@! TF.FileFunction,Copper,L2,Bot*
G04 #@! TF.FilePolarity,Positive*
%FSLAX46Y46*%
G04 Gerber Fmt 4.6, Leading zero omitted, Abs format (unit mm)*
G04 Created by KiCad (PCBNEW 9.0.2) date 2025-06-22 21:11:13*
%MOMM*%
%LPD*%
G01*
G04 APERTURE LIST*
G04 Aperture macros list*
%AMRoundRect*
0 Rectangle with rounded corners*
0 $1 Rounding radius*
0 $2 $3 $4 $5 $6 $7 $8 $9 X,Y pos of 4 corners*
0 Add a 4 corners polygon primitive as box body*
4,1,4,$2,$3,$4,$5,$6,$7,$8,$9,$2,$3,0*
0 Add four circle primitives for the rounded corners*
1,1,$1+$1,$2,$3*
1,1,$1+$1,$4,$5*
1,1,$1+$1,$6,$7*
1,1,$1+$1,$8,$9*
0 Add four rect primitives between the rounded corners*
20,1,$1+$1,$2,$3,$4,$5,0*
20,1,$1+$1,$4,$5,$6,$7,0*
20,1,$1+$1,$6,$7,$8,$9,0*
20,1,$1+$1,$8,$9,$2,$3,0*%
G04 Aperture macros list end*
G04 #@! TA.AperFunction,ComponentPad*
%ADD10C,2.000000*%
G04 #@! TD*
G04 #@! TA.AperFunction,ComponentPad*
%ADD11C,2.200000*%
G04 #@! TD*
G04 #@! TA.AperFunction,ComponentPad*
%ADD12C,7.500000*%
G04 #@! TD*
G04 #@! TA.AperFunction,ComponentPad*
%ADD13C,1.440000*%
G04 #@! TD*
G04 #@! TA.AperFunction,ComponentPad*
%ADD14C,2.600000*%
G04 #@! TD*
G04 #@! TA.AperFunction,ComponentPad*
%ADD15C,2.500000*%
G04 #@! TD*
G04 #@! TA.AperFunction,ComponentPad*
%ADD16R,2.400000X2.400000*%
G04 #@! TD*
G04 #@! TA.AperFunction,ComponentPad*
%ADD17C,2.400000*%
G04 #@! TD*
G04 #@! TA.AperFunction,ComponentPad*
%ADD18C,2.100000*%
G04 #@! TD*
G04 #@! TA.AperFunction,SMDPad,CuDef*
%ADD19RoundRect,0.250000X-0.325000X-0.650000X0.325000X-0.650000X0.325000X0.650000X-0.325000X0.650000X0*%
G04 #@! TD*
G04 #@! TA.AperFunction,SMDPad,CuDef*
%ADD20RoundRect,0.250000X0.325000X0.650000X-0.325000X0.650000X-0.325000X-0.650000X0.325000X-0.650000X0*%
G04 #@! TD*
G04 #@! TA.AperFunction,SMDPad,CuDef*
%ADD21RoundRect,0.250000X0.312500X0.625000X-0.312500X0.625000X-0.312500X-0.625000X0.312500X-0.625000X0*%
G04 #@! TD*
G04 #@! TA.AperFunction,ViaPad*
%ADD22C,1.000000*%
G04 #@! TD*
G04 #@! TA.AperFunction,Conductor*
%ADD23C,0.500000*%
G04 #@! TD*
G04 #@! TA.AperFunction,Conductor*
%ADD24C,0.750000*%
G04 #@! TD*
G04 #@! TA.AperFunction,Conductor*
%ADD25C,1.000000*%
G04 #@! TD*
G04 #@! TA.AperFunction,Conductor*
%ADD26C,1.500000*%
G04 #@! TD*
G04 APERTURE END LIST*
D10*
X125700000Y-69100000D03*
X125700000Y-75100000D03*
X132700000Y-75100000D03*
D11*
X132700000Y-72100000D03*
D10*
X132700000Y-69100000D03*
X150500000Y-69200000D03*
D11*
X150500000Y-72200000D03*
D10*
X150500000Y-75200000D03*
D12*
X165000000Y-55000000D03*
D13*
X128700000Y-83650000D03*
X128700000Y-86190000D03*
X128700000Y-88730000D03*
D12*
X105000000Y-55000000D03*
X165000000Y-111000000D03*
D14*
X152460000Y-56460000D03*
X152460000Y-61540000D03*
X157540000Y-56460000D03*
X157540000Y-61540000D03*
D15*
X155100000Y-58925000D03*
D16*
X109000000Y-94700000D03*
D17*
X109000000Y-99700000D03*
D14*
X103370000Y-66870000D03*
X103370000Y-71950000D03*
X108450000Y-66870000D03*
X108450000Y-71950000D03*
D15*
X106010000Y-69335000D03*
D18*
X106950000Y-84450000D03*
X106950000Y-86950000D03*
D12*
X105000000Y-111000000D03*
D10*
X165500000Y-75200000D03*
X165500000Y-69200000D03*
X158500000Y-69200000D03*
D11*
X158500000Y-72200000D03*
D10*
X158500000Y-75200000D03*
D19*
X153125000Y-68400000D03*
X156075000Y-68400000D03*
D20*
X130400000Y-72100000D03*
X127450000Y-72100000D03*
D19*
X152725000Y-72200000D03*
X155675000Y-72200000D03*
X143000000Y-70900000D03*
X145950000Y-70900000D03*
X156000000Y-75900000D03*
X153050000Y-75900000D03*
X142887500Y-79150000D03*
X145837500Y-79150000D03*
D21*
X144075000Y-68000000D03*
X141150000Y-68000000D03*
X144100000Y-76300000D03*
X141175000Y-76300000D03*
D22*
X114900000Y-76700000D03*
X143450000Y-65650000D03*
X148350000Y-86650000D03*
X154200000Y-70650000D03*
X161950000Y-72250000D03*
X159300000Y-91100000D03*
X129800000Y-93200000D03*
X113350000Y-63050000D03*
X147500000Y-65000000D03*
X121300000Y-87000000D03*
X141300000Y-63650000D03*
X144000000Y-93100000D03*
X134800000Y-72150000D03*
X145950000Y-101400000D03*
X134300000Y-66600000D03*
X141500000Y-72150000D03*
X130800000Y-74275000D03*
X134300000Y-70500000D03*
X125500000Y-72100000D03*
X142250000Y-84350000D03*
X125200000Y-62800000D03*
X135600000Y-63350000D03*
X151800000Y-92000000D03*
X147225000Y-73325000D03*
X120850000Y-78450000D03*
X130850000Y-70100000D03*
X155200000Y-74100000D03*
X111950000Y-76700000D03*
X125450000Y-83350000D03*
X119400000Y-73400000D03*
X156100000Y-87200000D03*
X125500000Y-86450000D03*
X117600000Y-92500000D03*
X144475000Y-72450000D03*
X144150000Y-98450000D03*
X151100000Y-89100000D03*
X134300000Y-73800000D03*
X130000000Y-78850000D03*
X148250000Y-80600000D03*
X143325000Y-74400000D03*
X148000000Y-95100000D03*
X148950000Y-73650000D03*
X141400000Y-89100000D03*
X139450000Y-96400000D03*
X150000000Y-101400000D03*
X153300000Y-78400000D03*
X144100000Y-90800000D03*
X117950000Y-75550000D03*
X151600000Y-93100000D03*
X116300000Y-85000000D03*
X123225000Y-70700000D03*
X118600000Y-104250000D03*
X134300000Y-77650000D03*
X106975000Y-75275000D03*
X154600000Y-66700000D03*
X148350000Y-72250000D03*
X149625000Y-77125000D03*
X165500000Y-72200000D03*
X157000000Y-77800000D03*
X144100000Y-94400000D03*
X124600000Y-67300000D03*
X154100000Y-73700000D03*
X137200000Y-80700000D03*
X119550000Y-61575000D03*
X149325000Y-65500000D03*
X141200000Y-80550000D03*
X149050000Y-70700000D03*
X156200000Y-94200000D03*
X152000000Y-96200000D03*
X149625000Y-67300000D03*
X127600000Y-70000000D03*
X148000000Y-91000000D03*
X137300000Y-72150000D03*
X149325000Y-78700000D03*
X151500000Y-77000000D03*
X119350000Y-70450000D03*
X129800000Y-96400000D03*
X144100000Y-91900000D03*
X155700000Y-70300000D03*
X159500000Y-84800000D03*
X144350000Y-80900000D03*
X124100000Y-76900000D03*
X132350000Y-81950000D03*
X134300000Y-65500000D03*
X116450000Y-64700000D03*
X145575000Y-74200000D03*
X142850000Y-95200000D03*
X145550000Y-65650000D03*
X116850000Y-73650000D03*
X140100000Y-72150000D03*
X134300000Y-78775000D03*
X127600000Y-74250000D03*
X152700000Y-91300000D03*
X147550000Y-70900000D03*
X147537500Y-79150000D03*
X139300000Y-68000000D03*
X139287500Y-76300000D03*
X149600000Y-82200000D03*
X150000000Y-90200000D03*
X114700000Y-86900000D03*
X125850000Y-90500000D03*
D23*
X106950000Y-84450000D02*
X109850000Y-84450000D01*
X118900000Y-91900000D02*
X140651000Y-91900000D01*
X109850000Y-84450000D02*
X115900000Y-90500000D01*
X115900000Y-90500000D02*
X117519918Y-90500000D01*
X140651000Y-91900000D02*
X144051000Y-88500000D01*
X144051000Y-88500000D02*
X149600000Y-88500000D01*
X117519918Y-90500000D02*
X118470918Y-91451000D01*
X149600000Y-88500000D02*
X149600000Y-82200000D01*
X118470918Y-91451000D02*
X118470918Y-91470918D01*
X118470918Y-91470918D02*
X118900000Y-91900000D01*
D24*
X143000000Y-70900000D02*
X143000000Y-69075000D01*
X143000000Y-69075000D02*
X144075000Y-68000000D01*
D25*
X130400000Y-72100000D02*
X132700000Y-72100000D01*
X150500000Y-69200000D02*
X152325000Y-69200000D01*
X152325000Y-69200000D02*
X153125000Y-68400000D01*
D24*
X147550000Y-70900000D02*
X145950000Y-70900000D01*
X142887500Y-79150000D02*
X142887500Y-77512500D01*
X142887500Y-77512500D02*
X144100000Y-76300000D01*
D25*
X150500000Y-75200000D02*
X152350000Y-75200000D01*
D24*
X147537500Y-79150000D02*
X145837500Y-79150000D01*
D25*
X152350000Y-75200000D02*
X153050000Y-75900000D01*
D24*
X139300000Y-68000000D02*
X141150000Y-68000000D01*
X139287500Y-76300000D02*
X141175000Y-76300000D01*
D25*
X152725000Y-72200000D02*
X150500000Y-72200000D01*
D26*
X159625000Y-58925000D02*
X165500000Y-64800000D01*
X165500000Y-64800000D02*
X165500000Y-69200000D01*
X155100000Y-58925000D02*
X159625000Y-58925000D01*
D25*
X158500000Y-69200000D02*
X156875000Y-69200000D01*
X156875000Y-69200000D02*
X156075000Y-68400000D01*
X156700000Y-75200000D02*
X156000000Y-75900000D01*
X158500000Y-75200000D02*
X156700000Y-75200000D01*
D23*
X118300000Y-89100000D02*
X119700000Y-90500000D01*
X114700000Y-86900000D02*
X116900000Y-89100000D01*
X116900000Y-89100000D02*
X118300000Y-89100000D01*
X119700000Y-90500000D02*
X125850000Y-90500000D01*
G04 #@! TA.AperFunction,Conductor*
G36*
X169492539Y-50520185D02*
G01*
X169538294Y-50572989D01*
X169549500Y-50624500D01*
X169549500Y-115375500D01*
X169529815Y-115442539D01*
X169477011Y-115488294D01*
X169425500Y-115499500D01*
X100624500Y-115499500D01*
X100557461Y-115479815D01*
X100511706Y-115427011D01*
X100500500Y-115375500D01*
X100500500Y-110814437D01*
X100750000Y-110814437D01*
X100750000Y-111185562D01*
X100782345Y-111555267D01*
X100782345Y-111555271D01*
X100846787Y-111920735D01*
X100846791Y-111920752D01*
X100942837Y-112279206D01*
X101069775Y-112627963D01*
X101226607Y-112964292D01*
X101226615Y-112964307D01*
X101412166Y-113285690D01*
X101412175Y-113285705D01*
X101625040Y-113589707D01*
X101822005Y-113824439D01*
X101822006Y-113824440D01*
X103313098Y-112333348D01*
X103380076Y-112420635D01*
X103579365Y-112619924D01*
X103666650Y-112686900D01*
X102175558Y-114177992D01*
X102175559Y-114177993D01*
X102410292Y-114374959D01*
X102714294Y-114587824D01*
X102714309Y-114587833D01*
X103035692Y-114773384D01*
X103035707Y-114773392D01*
X103372036Y-114930224D01*
X103720793Y-115057162D01*
X104079247Y-115153208D01*
X104079264Y-115153212D01*
X104444730Y-115217654D01*
X104814437Y-115249999D01*
X104814440Y-115250000D01*
X105185560Y-115250000D01*
X105185562Y-115249999D01*
X105555267Y-115217654D01*
X105555271Y-115217654D01*
X105920735Y-115153212D01*
X105920752Y-115153208D01*
X106279206Y-115057162D01*
X106627963Y-114930224D01*
X106964292Y-114773392D01*
X106964307Y-114773384D01*
X107285690Y-114587833D01*
X107285705Y-114587824D01*
X107589700Y-114374964D01*
X107824439Y-114177993D01*
X107824440Y-114177992D01*
X106333348Y-112686901D01*
X106420635Y-112619924D01*
X106619924Y-112420635D01*
X106686900Y-112333348D01*
X108177992Y-113824440D01*
X108177993Y-113824439D01*
X108374964Y-113589700D01*
X108587824Y-113285705D01*
X108587833Y-113285690D01*
X108773384Y-112964307D01*
X108773392Y-112964292D01*
X108930224Y-112627963D01*
X109057162Y-112279206D01*
X109153208Y-111920752D01*
X109153212Y-111920735D01*
X109217654Y-111555271D01*
X109217654Y-111555267D01*
X109249999Y-111185562D01*
X109250000Y-111185560D01*
X109250000Y-110814440D01*
X109249999Y-110814437D01*
X160750000Y-110814437D01*
X160750000Y-111185562D01*
X160782345Y-111555267D01*
X160782345Y-111555271D01*
X160846787Y-111920735D01*
X160846791Y-111920752D01*
X160942837Y-112279206D01*
X161069775Y-112627963D01*
X161226607Y-112964292D01*
X161226615Y-112964307D01*
X161412166Y-113285690D01*
X161412175Y-113285705D01*
X161625040Y-113589707D01*
X161822005Y-113824439D01*
X161822006Y-113824440D01*
X163313098Y-112333348D01*
X163380076Y-112420635D01*
X163579365Y-112619924D01*
X163666650Y-112686900D01*
X162175558Y-114177992D01*
X162175559Y-114177993D01*
X162410292Y-114374959D01*
X162714294Y-114587824D01*
X162714309Y-114587833D01*
X163035692Y-114773384D01*
X163035707Y-114773392D01*
X163372036Y-114930224D01*
X163720793Y-115057162D01*
X164079247Y-115153208D01*
X164079264Y-115153212D01*
X164444730Y-115217654D01*
X164814437Y-115249999D01*
X164814440Y-115250000D01*
X165185560Y-115250000D01*
X165185562Y-115249999D01*
X165555267Y-115217654D01*
X165555271Y-115217654D01*
X165920735Y-115153212D01*
X165920752Y-115153208D01*
X166279206Y-115057162D01*
X166627963Y-114930224D01*
X166964292Y-114773392D01*
X166964307Y-114773384D01*
X167285690Y-114587833D01*
X167285705Y-114587824D01*
X167589700Y-114374964D01*
X167824439Y-114177993D01*
X167824440Y-114177992D01*
X166333348Y-112686901D01*
X166420635Y-112619924D01*
X166619924Y-112420635D01*
X166686900Y-112333348D01*
X168177992Y-113824440D01*
X168177993Y-113824439D01*
X168374964Y-113589700D01*
X168587824Y-113285705D01*
X168587833Y-113285690D01*
X168773384Y-112964307D01*
X168773392Y-112964292D01*
X168930224Y-112627963D01*
X169057162Y-112279206D01*
X169153208Y-111920752D01*
X169153212Y-111920735D01*
X169217654Y-111555271D01*
X169217654Y-111555267D01*
X169249999Y-111185562D01*
X169250000Y-111185560D01*
X169250000Y-110814440D01*
X169249999Y-110814437D01*
X169217654Y-110444732D01*
X169217654Y-110444728D01*
X169153212Y-110079264D01*
X169153208Y-110079247D01*
X169057162Y-109720793D01*
X168930224Y-109372036D01*
X168773392Y-109035707D01*
X168773384Y-109035692D01*
X168587833Y-108714309D01*
X168587824Y-108714294D01*
X168374959Y-108410292D01*
X168177993Y-108175559D01*
X168177992Y-108175558D01*
X166686900Y-109666650D01*
X166619924Y-109579365D01*
X166420635Y-109380076D01*
X166333347Y-109313098D01*
X167824440Y-107822006D01*
X167824439Y-107822005D01*
X167589707Y-107625040D01*
X167285705Y-107412175D01*
X167285690Y-107412166D01*
X166964307Y-107226615D01*
X166964292Y-107226607D01*
X166627963Y-107069775D01*
X166279206Y-106942837D01*
X165920752Y-106846791D01*
X165920735Y-106846787D01*
X165555269Y-106782345D01*
X165185562Y-106750000D01*
X164814437Y-106750000D01*
X164444732Y-106782345D01*
X164444728Y-106782345D01*
X164079264Y-106846787D01*
X164079247Y-106846791D01*
X163720793Y-106942837D01*
X163372036Y-107069775D01*
X163035707Y-107226607D01*
X163035692Y-107226615D01*
X162714309Y-107412166D01*
X162714294Y-107412175D01*
X162410292Y-107625040D01*
X162175559Y-107822005D01*
X162175558Y-107822006D01*
X163666651Y-109313098D01*
X163579365Y-109380076D01*
X163380076Y-109579365D01*
X163313098Y-109666651D01*
X161822006Y-108175558D01*
X161822005Y-108175559D01*
X161625040Y-108410292D01*
X161412175Y-108714294D01*
X161412166Y-108714309D01*
X161226615Y-109035692D01*
X161226607Y-109035707D01*
X161069775Y-109372036D01*
X160942837Y-109720793D01*
X160846791Y-110079247D01*
X160846787Y-110079264D01*
X160782345Y-110444728D01*
X160782345Y-110444732D01*
X160750000Y-110814437D01*
X109249999Y-110814437D01*
X109217654Y-110444732D01*
X109217654Y-110444728D01*
X109153212Y-110079264D01*
X109153208Y-110079247D01*
X109057162Y-109720793D01*
X108930224Y-109372036D01*
X108773392Y-109035707D01*
X108773384Y-109035692D01*
X108587833Y-108714309D01*
X108587824Y-108714294D01*
X108374959Y-108410292D01*
X108177993Y-108175559D01*
X108177992Y-108175558D01*
X106686900Y-109666650D01*
X106619924Y-109579365D01*
X106420635Y-109380076D01*
X106333347Y-109313098D01*
X107824440Y-107822006D01*
X107824439Y-107822005D01*
X107589707Y-107625040D01*
X107285705Y-107412175D01*
X107285690Y-107412166D01*
X106964307Y-107226615D01*
X106964292Y-107226607D01*
X106627963Y-107069775D01*
X106279206Y-106942837D01*
X105920752Y-106846791D01*
X105920735Y-106846787D01*
X105555269Y-106782345D01*
X105185562Y-106750000D01*
X104814437Y-106750000D01*
X104444732Y-106782345D01*
X104444728Y-106782345D01*
X104079264Y-106846787D01*
X104079247Y-106846791D01*
X103720793Y-106942837D01*
X103372036Y-107069775D01*
X103035707Y-107226607D01*
X103035692Y-107226615D01*
X102714309Y-107412166D01*
X102714294Y-107412175D01*
X102410292Y-107625040D01*
X102175559Y-107822005D01*
X102175558Y-107822006D01*
X103666651Y-109313098D01*
X103579365Y-109380076D01*
X103380076Y-109579365D01*
X103313098Y-109666651D01*
X101822006Y-108175558D01*
X101822005Y-108175559D01*
X101625040Y-108410292D01*
X101412175Y-108714294D01*
X101412166Y-108714309D01*
X101226615Y-109035692D01*
X101226607Y-109035707D01*
X101069775Y-109372036D01*
X100942837Y-109720793D01*
X100846791Y-110079247D01*
X100846787Y-110079264D01*
X100782345Y-110444728D01*
X100782345Y-110444732D01*
X100750000Y-110814437D01*
X100500500Y-110814437D01*
X100500500Y-99588575D01*
X107300000Y-99588575D01*
X107300000Y-99811424D01*
X107329085Y-100032354D01*
X107329088Y-100032367D01*
X107386763Y-100247618D01*
X107472045Y-100453502D01*
X107472054Y-100453520D01*
X107583464Y-100646491D01*
X107583473Y-100646504D01*
X107634040Y-100712403D01*
X107634043Y-100712403D01*
X108435387Y-99911059D01*
X108440889Y-99931591D01*
X108519881Y-100068408D01*
X108631592Y-100180119D01*
X108768409Y-100259111D01*
X108788940Y-100264612D01*
X107987595Y-101065955D01*
X107987595Y-101065956D01*
X108053507Y-101116533D01*
X108246485Y-101227949D01*
X108246497Y-101227954D01*
X108452381Y-101313236D01*
X108667632Y-101370911D01*
X108667645Y-101370914D01*
X108888575Y-101400000D01*
X109111425Y-101400000D01*
X109332354Y-101370914D01*
X109332367Y-101370911D01*
X109547618Y-101313236D01*
X109753502Y-101227954D01*
X109753514Y-101227949D01*
X109946498Y-101116530D01*
X110012403Y-101065957D01*
X110012404Y-101065956D01*
X109211059Y-100264612D01*
X109231591Y-100259111D01*
X109368408Y-100180119D01*
X109480119Y-100068408D01*
X109559111Y-99931591D01*
X109564612Y-99911059D01*
X110365956Y-100712404D01*
X110365957Y-100712403D01*
X110416530Y-100646498D01*
X110527949Y-100453514D01*
X110527954Y-100453502D01*
X110613236Y-100247618D01*
X110670911Y-100032367D01*
X110670914Y-100032354D01*
X110700000Y-99811424D01*
X110700000Y-99588575D01*
X110670914Y-99367645D01*
X110670911Y-99367632D01*
X110613236Y-99152381D01*
X110527954Y-98946497D01*
X110527949Y-98946485D01*
X110416533Y-98753507D01*
X110365956Y-98687595D01*
X110365955Y-98687595D01*
X109564612Y-99488939D01*
X109559111Y-99468409D01*
X109480119Y-99331592D01*
X109368408Y-99219881D01*
X109231591Y-99140889D01*
X109211058Y-99135387D01*
X110012403Y-98334043D01*
X110012403Y-98334040D01*
X109946504Y-98283473D01*
X109946491Y-98283464D01*
X109753520Y-98172054D01*
X109753502Y-98172045D01*
X109547618Y-98086763D01*
X109332367Y-98029088D01*
X109332354Y-98029085D01*
X109111425Y-98000000D01*
X108888575Y-98000000D01*
X108667645Y-98029085D01*
X108667632Y-98029088D01*
X108452381Y-98086763D01*
X108246497Y-98172045D01*
X108246479Y-98172054D01*
X108053511Y-98283462D01*
X107987595Y-98334042D01*
X108788941Y-99135387D01*
X108768409Y-99140889D01*
X108631592Y-99219881D01*
X108519881Y-99331592D01*
X108440889Y-99468409D01*
X108435387Y-99488940D01*
X107634042Y-98687595D01*
X107583462Y-98753511D01*
X107472054Y-98946479D01*
X107472045Y-98946497D01*
X107386763Y-99152381D01*
X107329088Y-99367632D01*
X107329085Y-99367645D01*
X107300000Y-99588575D01*
X100500500Y-99588575D01*
X100500500Y-93452135D01*
X107299500Y-93452135D01*
X107299500Y-95947870D01*
X107299501Y-95947876D01*
X107305908Y-96007483D01*
X107356202Y-96142328D01*
X107356206Y-96142335D01*
X107442452Y-96257544D01*
X107442455Y-96257547D01*
X107557664Y-96343793D01*
X107557671Y-96343797D01*
X107692517Y-96394091D01*
X107692516Y-96394091D01*
X107699444Y-96394835D01*
X107752127Y-96400500D01*
X110247872Y-96400499D01*
X110307483Y-96394091D01*
X110442331Y-96343796D01*
X110557546Y-96257546D01*
X110643796Y-96142331D01*
X110694091Y-96007483D01*
X110700500Y-95947873D01*
X110700499Y-93452128D01*
X110694091Y-93392517D01*
X110643796Y-93257669D01*
X110643795Y-93257668D01*
X110643793Y-93257664D01*
X110557547Y-93142455D01*
X110557544Y-93142452D01*
X110442335Y-93056206D01*
X110442328Y-93056202D01*
X110307482Y-93005908D01*
X110307483Y-93005908D01*
X110247883Y-92999501D01*
X110247881Y-92999500D01*
X110247873Y-92999500D01*
X110247864Y-92999500D01*
X107752129Y-92999500D01*
X107752123Y-92999501D01*
X107692516Y-93005908D01*
X107557671Y-93056202D01*
X107557664Y-93056206D01*
X107442455Y-93142452D01*
X107442452Y-93142455D01*
X107356206Y-93257664D01*
X107356202Y-93257671D01*
X107305908Y-93392517D01*
X107299501Y-93452116D01*
X107299501Y-93452123D01*
X107299500Y-93452135D01*
X100500500Y-93452135D01*
X100500500Y-84327973D01*
X105399500Y-84327973D01*
X105399500Y-84572027D01*
X105411021Y-84644769D01*
X105435935Y-84802069D01*
X105437679Y-84813076D01*
X105513096Y-85045185D01*
X105622404Y-85259715D01*
X105623896Y-85262642D01*
X105767339Y-85460076D01*
X105767343Y-85460081D01*
X105767345Y-85460083D01*
X105939917Y-85632655D01*
X106101308Y-85749912D01*
X106116097Y-85762544D01*
X106779765Y-86426212D01*
X106737708Y-86437482D01*
X106612292Y-86509890D01*
X106509890Y-86612292D01*
X106437482Y-86737708D01*
X106426212Y-86779765D01*
X105691544Y-86045097D01*
X105624319Y-86137626D01*
X105513560Y-86355001D01*
X105438165Y-86587040D01*
X105400000Y-86828006D01*
X105400000Y-87071993D01*
X105438165Y-87312959D01*
X105513560Y-87544998D01*
X105624323Y-87762380D01*
X105691543Y-87854901D01*
X105691544Y-87854902D01*
X106426212Y-87120234D01*
X106437482Y-87162292D01*
X106509890Y-87287708D01*
X106612292Y-87390110D01*
X106737708Y-87462518D01*
X106779765Y-87473787D01*
X106045096Y-88208454D01*
X106045097Y-88208456D01*
X106137619Y-88275676D01*
X106355001Y-88386439D01*
X106587040Y-88461834D01*
X106828007Y-88500000D01*
X107071993Y-88500000D01*
X107312959Y-88461834D01*
X107544998Y-88386439D01*
X107762377Y-88275678D01*
X107854901Y-88208454D01*
X107854902Y-88208454D01*
X107120234Y-87473787D01*
X107162292Y-87462518D01*
X107287708Y-87390110D01*
X107390110Y-87287708D01*
X107462518Y-87162292D01*
X107473787Y-87120235D01*
X108208454Y-87854902D01*
X108208454Y-87854901D01*
X108275678Y-87762377D01*
X108386439Y-87544998D01*
X108461834Y-87312959D01*
X108500000Y-87071993D01*
X108500000Y-86828006D01*
X108461834Y-86587040D01*
X108386439Y-86355001D01*
X108275676Y-86137619D01*
X108208456Y-86045097D01*
X108208454Y-86045096D01*
X107473787Y-86779764D01*
X107462518Y-86737708D01*
X107390110Y-86612292D01*
X107287708Y-86509890D01*
X107162292Y-86437482D01*
X107120232Y-86426212D01*
X107783901Y-85762544D01*
X107798684Y-85749917D01*
X107960083Y-85632655D01*
X108132655Y-85460083D01*
X108276106Y-85262639D01*
X108276106Y-85262637D01*
X108277898Y-85259715D01*
X108278870Y-85258835D01*
X108278970Y-85258698D01*
X108278998Y-85258718D01*
X108329707Y-85212837D01*
X108383628Y-85200500D01*
X109487770Y-85200500D01*
X109554809Y-85220185D01*
X109575451Y-85236819D01*
X115421584Y-91082952D01*
X115421589Y-91082956D01*
X115470179Y-91115422D01*
X115470181Y-91115423D01*
X115470183Y-91115424D01*
X115544505Y-91165084D01*
X115681087Y-91221658D01*
X115681091Y-91221658D01*
X115681092Y-91221659D01*
X115826079Y-91250500D01*
X115826082Y-91250500D01*
X115826083Y-91250500D01*
X115973917Y-91250500D01*
X117157688Y-91250500D01*
X117224727Y-91270185D01*
X117245369Y-91286819D01*
X117839220Y-91880669D01*
X117854641Y-91899459D01*
X117887967Y-91949336D01*
X117887970Y-91949339D01*
X118317049Y-92378416D01*
X118421584Y-92482951D01*
X118421587Y-92482953D01*
X118421588Y-92482954D01*
X118544503Y-92565083D01*
X118544506Y-92565085D01*
X118594665Y-92585861D01*
X118601080Y-92588518D01*
X118681088Y-92621659D01*
X118797241Y-92644763D01*
X118820380Y-92649365D01*
X118826081Y-92650500D01*
X118826082Y-92650500D01*
X140724920Y-92650500D01*
X140822462Y-92631096D01*
X140869913Y-92621658D01*
X141006495Y-92565084D01*
X141055729Y-92532186D01*
X141129416Y-92482952D01*
X144325548Y-89286818D01*
X144386871Y-89253334D01*
X144413229Y-89250500D01*
X149235216Y-89250500D01*
X149302255Y-89270185D01*
X149348010Y-89322989D01*
X149357954Y-89392147D01*
X149328929Y-89455703D01*
X149322897Y-89462181D01*
X149222863Y-89562214D01*
X149222860Y-89562218D01*
X149113371Y-89726079D01*
X149113364Y-89726092D01*
X149037950Y-89908160D01*
X149037947Y-89908170D01*
X148999500Y-90101456D01*
X148999500Y-90101459D01*
X148999500Y-90298541D01*
X148999500Y-90298543D01*
X148999499Y-90298543D01*
X149037947Y-90491829D01*
X149037950Y-90491839D01*
X149113364Y-90673907D01*
X149113371Y-90673920D01*
X149222860Y-90837781D01*
X149222863Y-90837785D01*
X149362214Y-90977136D01*
X149362218Y-90977139D01*
X149526079Y-91086628D01*
X149526092Y-91086635D01*
X149671022Y-91146666D01*
X149708165Y-91162051D01*
X149708169Y-91162051D01*
X149708170Y-91162052D01*
X149901456Y-91200500D01*
X149901459Y-91200500D01*
X150098543Y-91200500D01*
X150228582Y-91174632D01*
X150291835Y-91162051D01*
X150473914Y-91086632D01*
X150637782Y-90977139D01*
X150777139Y-90837782D01*
X150886632Y-90673914D01*
X150962051Y-90491835D01*
X151000500Y-90298541D01*
X151000500Y-90101459D01*
X151000500Y-90101456D01*
X150962052Y-89908170D01*
X150962051Y-89908169D01*
X150962051Y-89908165D01*
X150906244Y-89773434D01*
X150886635Y-89726092D01*
X150886628Y-89726079D01*
X150777139Y-89562218D01*
X150777136Y-89562214D01*
X150637785Y-89422863D01*
X150637781Y-89422860D01*
X150473920Y-89313371D01*
X150473907Y-89313364D01*
X150291839Y-89237950D01*
X150291829Y-89237947D01*
X150212072Y-89222082D01*
X150150161Y-89189696D01*
X150115587Y-89128980D01*
X150119328Y-89059211D01*
X150148584Y-89012783D01*
X150182948Y-88978419D01*
X150182951Y-88978416D01*
X150265084Y-88855495D01*
X150321658Y-88718913D01*
X150338552Y-88633984D01*
X150350500Y-88573920D01*
X150350500Y-82914610D01*
X150370185Y-82847571D01*
X150375228Y-82840641D01*
X150377136Y-82837784D01*
X150377139Y-82837782D01*
X150486632Y-82673914D01*
X150562051Y-82491835D01*
X150600500Y-82298541D01*
X150600500Y-82101459D01*
X150600500Y-82101456D01*
X150562052Y-81908170D01*
X150562051Y-81908169D01*
X150562051Y-81908165D01*
X150562049Y-81908160D01*
X150486635Y-81726092D01*
X150486628Y-81726079D01*
X150377139Y-81562218D01*
X150377136Y-81562214D01*
X150237785Y-81422863D01*
X150237781Y-81422860D01*
X150073920Y-81313371D01*
X150073907Y-81313364D01*
X149891839Y-81237950D01*
X149891829Y-81237947D01*
X149698543Y-81199500D01*
X149698541Y-81199500D01*
X149501459Y-81199500D01*
X149501457Y-81199500D01*
X149308170Y-81237947D01*
X149308160Y-81237950D01*
X149126092Y-81313364D01*
X149126079Y-81313371D01*
X148962218Y-81422860D01*
X148962214Y-81422863D01*
X148822863Y-81562214D01*
X148822860Y-81562218D01*
X148713371Y-81726079D01*
X148713364Y-81726092D01*
X148637950Y-81908160D01*
X148637947Y-81908170D01*
X148599500Y-82101456D01*
X148599500Y-82101459D01*
X148599500Y-82298541D01*
X148599500Y-82298543D01*
X148599499Y-82298543D01*
X148637947Y-82491829D01*
X148637950Y-82491839D01*
X148713364Y-82673907D01*
X148713371Y-82673920D01*
X148826245Y-82842847D01*
X148824717Y-82843867D01*
X148848666Y-82900255D01*
X148849500Y-82914610D01*
X148849500Y-87625500D01*
X148829815Y-87692539D01*
X148777011Y-87738294D01*
X148725500Y-87749500D01*
X143977080Y-87749500D01*
X143832092Y-87778340D01*
X143832082Y-87778343D01*
X143695511Y-87834912D01*
X143695498Y-87834919D01*
X143572584Y-87917048D01*
X143572580Y-87917051D01*
X140376451Y-91113181D01*
X140315128Y-91146666D01*
X140288770Y-91149500D01*
X126849481Y-91149500D01*
X126782442Y-91129815D01*
X126736687Y-91077011D01*
X126726743Y-91007853D01*
X126734920Y-90978048D01*
X126812049Y-90791839D01*
X126812051Y-90791835D01*
X126850500Y-90598541D01*
X126850500Y-90401459D01*
X126850500Y-90401456D01*
X126812052Y-90208170D01*
X126812051Y-90208169D01*
X126812051Y-90208165D01*
X126812049Y-90208160D01*
X126736635Y-90026092D01*
X126736628Y-90026079D01*
X126627139Y-89862218D01*
X126627136Y-89862214D01*
X126487785Y-89722863D01*
X126487781Y-89722860D01*
X126323920Y-89613371D01*
X126323907Y-89613364D01*
X126141839Y-89537950D01*
X126141829Y-89537947D01*
X125948543Y-89499500D01*
X125948541Y-89499500D01*
X125751459Y-89499500D01*
X125751457Y-89499500D01*
X125558170Y-89537947D01*
X125558160Y-89537950D01*
X125376092Y-89613364D01*
X125376079Y-89613371D01*
X125207153Y-89726245D01*
X125206132Y-89724717D01*
X125149745Y-89748666D01*
X125135390Y-89749500D01*
X120062230Y-89749500D01*
X119995191Y-89729815D01*
X119974549Y-89713181D01*
X118978162Y-88716793D01*
X118778421Y-88517052D01*
X118778414Y-88517046D01*
X118704729Y-88467812D01*
X118704729Y-88467813D01*
X118655491Y-88434913D01*
X118518917Y-88378343D01*
X118518907Y-88378340D01*
X118373920Y-88349500D01*
X118373918Y-88349500D01*
X117262230Y-88349500D01*
X117195191Y-88329815D01*
X117174549Y-88313181D01*
X115735989Y-86874621D01*
X115702504Y-86813298D01*
X115701168Y-86804815D01*
X115662052Y-86608170D01*
X115662051Y-86608169D01*
X115662051Y-86608165D01*
X115653301Y-86587040D01*
X115586635Y-86426092D01*
X115586628Y-86426079D01*
X115477139Y-86262218D01*
X115477136Y-86262214D01*
X115337785Y-86122863D01*
X115337781Y-86122860D01*
X115173920Y-86013371D01*
X115173907Y-86013364D01*
X114991839Y-85937950D01*
X114991829Y-85937947D01*
X114798543Y-85899500D01*
X114798541Y-85899500D01*
X114601459Y-85899500D01*
X114601457Y-85899500D01*
X114408170Y-85937947D01*
X114408160Y-85937950D01*
X114226092Y-86013364D01*
X114226079Y-86013371D01*
X114062218Y-86122860D01*
X114062214Y-86122863D01*
X113922863Y-86262214D01*
X113922860Y-86262218D01*
X113813371Y-86426079D01*
X113813364Y-86426092D01*
X113737950Y-86608160D01*
X113737947Y-86608170D01*
X113699500Y-86801456D01*
X113699500Y-86938769D01*
X113679815Y-87005808D01*
X113627011Y-87051563D01*
X113557853Y-87061507D01*
X113494297Y-87032482D01*
X113487819Y-87026450D01*
X110328421Y-83867052D01*
X110328414Y-83867046D01*
X110254729Y-83817812D01*
X110254729Y-83817813D01*
X110205491Y-83784913D01*
X110068917Y-83728343D01*
X110068907Y-83728340D01*
X109923920Y-83699500D01*
X109923918Y-83699500D01*
X108383628Y-83699500D01*
X108377154Y-83697599D01*
X108370516Y-83698805D01*
X108344051Y-83687878D01*
X108316589Y-83679815D01*
X108310646Y-83674087D01*
X108305934Y-83672142D01*
X108290884Y-83655041D01*
X108281854Y-83646338D01*
X108277472Y-83640043D01*
X108276106Y-83637361D01*
X108264191Y-83620962D01*
X108264172Y-83620934D01*
X108215502Y-83553945D01*
X127479500Y-83553945D01*
X127479500Y-83746054D01*
X127509553Y-83935802D01*
X127568916Y-84118506D01*
X127568918Y-84118509D01*
X127656135Y-84289681D01*
X127769055Y-84445102D01*
X127904898Y-84580945D01*
X128060319Y-84693865D01*
X128231491Y-84781082D01*
X128231493Y-84781083D01*
X128296081Y-84802069D01*
X128353756Y-84841506D01*
X128380955Y-84905865D01*
X128369041Y-84974711D01*
X128321797Y-85026187D01*
X128296081Y-85037931D01*
X128231493Y-85058916D01*
X128060318Y-85146135D01*
X127985492Y-85200500D01*
X127904898Y-85259055D01*
X127904896Y-85259057D01*
X127904895Y-85259057D01*
X127769057Y-85394895D01*
X127769057Y-85394896D01*
X127769055Y-85394898D01*
X127721700Y-85460076D01*
X127656135Y-85550318D01*
X127568916Y-85721493D01*
X127509553Y-85904197D01*
X127479500Y-86093945D01*
X127479500Y-86286054D01*
X127509553Y-86475802D01*
X127568916Y-86658506D01*
X127641755Y-86801459D01*
X127656135Y-86829681D01*
X127769055Y-86985102D01*
X127904898Y-87120945D01*
X128060319Y-87233865D01*
X128197089Y-87303553D01*
X128231495Y-87321084D01*
X128296890Y-87342332D01*
X128354566Y-87381769D01*
X128381765Y-87446127D01*
X128369851Y-87514974D01*
X128322607Y-87566450D01*
X128296893Y-87578194D01*
X128231677Y-87599384D01*
X128060578Y-87686564D01*
X128031352Y-87707798D01*
X128031351Y-87707798D01*
X128653554Y-88330000D01*
X128647339Y-88330000D01*
X128545606Y-88357259D01*
X128454394Y-88409920D01*
X128379920Y-88484394D01*
X128327259Y-88575606D01*
X128300000Y-88677339D01*
X128300000Y-88683553D01*
X127677798Y-88061351D01*
X127677798Y-88061352D01*
X127656564Y-88090578D01*
X127569383Y-88261678D01*
X127510040Y-88444315D01*
X127480000Y-88633984D01*
X127480000Y-88826015D01*
X127510040Y-89015684D01*
X127569383Y-89198321D01*
X127656561Y-89369415D01*
X127677798Y-89398646D01*
X128300000Y-88776445D01*
X128300000Y-88782661D01*
X128327259Y-88884394D01*
X128379920Y-88975606D01*
X128454394Y-89050080D01*
X128545606Y-89102741D01*
X128647339Y-89130000D01*
X128653554Y-89130000D01*
X128031351Y-89752200D01*
X128031352Y-89752201D01*
X128060577Y-89773434D01*
X128231678Y-89860616D01*
X128414315Y-89919959D01*
X128603985Y-89950000D01*
X128796015Y-89950000D01*
X128985684Y-89919959D01*
X129168321Y-89860616D01*
X129339419Y-89773436D01*
X129368646Y-89752201D01*
X129368646Y-89752200D01*
X128746447Y-89130000D01*
X128752661Y-89130000D01*
X128854394Y-89102741D01*
X128945606Y-89050080D01*
X129020080Y-88975606D01*
X129072741Y-88884394D01*
X129100000Y-88782661D01*
X129100000Y-88776446D01*
X129722200Y-89398646D01*
X129722201Y-89398646D01*
X129743436Y-89369419D01*
X129830616Y-89198321D01*
X129889959Y-89015684D01*
X129920000Y-88826015D01*
X129920000Y-88633984D01*
X129889959Y-88444315D01*
X129830616Y-88261678D01*
X129743434Y-88090577D01*
X129722201Y-88061352D01*
X129722200Y-88061351D01*
X129100000Y-88683552D01*
X129100000Y-88677339D01*
X129072741Y-88575606D01*
X129020080Y-88484394D01*
X128945606Y-88409920D01*
X128854394Y-88357259D01*
X128752661Y-88330000D01*
X128746447Y-88330000D01*
X129368646Y-87707798D01*
X129339415Y-87686561D01*
X129168321Y-87599383D01*
X129103107Y-87578194D01*
X129045432Y-87538756D01*
X129018234Y-87474397D01*
X129030149Y-87405551D01*
X129077394Y-87354075D01*
X129103109Y-87342332D01*
X129168504Y-87321084D01*
X129168506Y-87321082D01*
X129168509Y-87321082D01*
X129339681Y-87233865D01*
X129495102Y-87120945D01*
X129630945Y-86985102D01*
X129743865Y-86829681D01*
X129831082Y-86658509D01*
X129890447Y-86475801D01*
X129920500Y-86286055D01*
X129920500Y-86093945D01*
X129890447Y-85904199D01*
X129860764Y-85812845D01*
X129831083Y-85721493D01*
X129785819Y-85632658D01*
X129743865Y-85550319D01*
X129630945Y-85394898D01*
X129495102Y-85259055D01*
X129339681Y-85146135D01*
X129168504Y-85058915D01*
X129103919Y-85037931D01*
X129046243Y-84998494D01*
X129019044Y-84934136D01*
X129030958Y-84865289D01*
X129078202Y-84813813D01*
X129103919Y-84802069D01*
X129168504Y-84781084D01*
X129168506Y-84781082D01*
X129168509Y-84781082D01*
X129339681Y-84693865D01*
X129495102Y-84580945D01*
X129630945Y-84445102D01*
X129743865Y-84289681D01*
X129831082Y-84118509D01*
X129890447Y-83935801D01*
X129920500Y-83746055D01*
X129920500Y-83553945D01*
X129890447Y-83364199D01*
X129831082Y-83181491D01*
X129743865Y-83010319D01*
X129630945Y-82854898D01*
X129495102Y-82719055D01*
X129339681Y-82606135D01*
X129168506Y-82518916D01*
X128985802Y-82459553D01*
X128890928Y-82444526D01*
X128796055Y-82429500D01*
X128603945Y-82429500D01*
X128540696Y-82439517D01*
X128414197Y-82459553D01*
X128231493Y-82518916D01*
X128060318Y-82606135D01*
X127971645Y-82670560D01*
X127904898Y-82719055D01*
X127904896Y-82719057D01*
X127904895Y-82719057D01*
X127769057Y-82854895D01*
X127769057Y-82854896D01*
X127769055Y-82854898D01*
X127736650Y-82899500D01*
X127656135Y-83010318D01*
X127568916Y-83181493D01*
X127509553Y-83364197D01*
X127479500Y-83553945D01*
X108215502Y-83553945D01*
X108132660Y-83439923D01*
X108132656Y-83439918D01*
X107960081Y-83267343D01*
X107960076Y-83267339D01*
X107762642Y-83123896D01*
X107762641Y-83123895D01*
X107762639Y-83123894D01*
X107545185Y-83013096D01*
X107313076Y-82937679D01*
X107313074Y-82937678D01*
X107313072Y-82937678D01*
X107144769Y-82911021D01*
X107072027Y-82899500D01*
X106827973Y-82899500D01*
X106772093Y-82908350D01*
X106586927Y-82937678D01*
X106354812Y-83013097D01*
X106137357Y-83123896D01*
X105939923Y-83267339D01*
X105939918Y-83267343D01*
X105767343Y-83439918D01*
X105767339Y-83439923D01*
X105623896Y-83637357D01*
X105513097Y-83854812D01*
X105437678Y-84086927D01*
X105432676Y-84118509D01*
X105399500Y-84327973D01*
X100500500Y-84327973D01*
X100500500Y-74981902D01*
X124199500Y-74981902D01*
X124199500Y-75218097D01*
X124236446Y-75451368D01*
X124309433Y-75675996D01*
X124416657Y-75886433D01*
X124555483Y-76077510D01*
X124722490Y-76244517D01*
X124913567Y-76383343D01*
X124943395Y-76398541D01*
X125124003Y-76490566D01*
X125124005Y-76490566D01*
X125124008Y-76490568D01*
X125244412Y-76529689D01*
X125348631Y-76563553D01*
X125581903Y-76600500D01*
X125581908Y-76600500D01*
X125818097Y-76600500D01*
X126051368Y-76563553D01*
X126275992Y-76490568D01*
X126486433Y-76383343D01*
X126677510Y-76244517D01*
X126844517Y-76077510D01*
X126983343Y-75886433D01*
X127090568Y-75675992D01*
X127163553Y-75451368D01*
X127200500Y-75218097D01*
X127200500Y-74981902D01*
X127163553Y-74748631D01*
X127103948Y-74565187D01*
X127090568Y-74524008D01*
X127090566Y-74524005D01*
X127090566Y-74524003D01*
X127034002Y-74412991D01*
X126983343Y-74313567D01*
X126844517Y-74122490D01*
X126677510Y-73955483D01*
X126486433Y-73816657D01*
X126388193Y-73766601D01*
X126275996Y-73709433D01*
X126051368Y-73636446D01*
X125818097Y-73599500D01*
X125818092Y-73599500D01*
X125581908Y-73599500D01*
X125581903Y-73599500D01*
X125348631Y-73636446D01*
X125124003Y-73709433D01*
X124913566Y-73816657D01*
X124844825Y-73866601D01*
X124722490Y-73955483D01*
X124722488Y-73955485D01*
X124722487Y-73955485D01*
X124555485Y-74122487D01*
X124555485Y-74122488D01*
X124555483Y-74122490D01*
X124525919Y-74163181D01*
X124416657Y-74313566D01*
X124309433Y-74524003D01*
X124236446Y-74748631D01*
X124199500Y-74981902D01*
X100500500Y-74981902D01*
X100500500Y-66752014D01*
X101570000Y-66752014D01*
X101570000Y-66987985D01*
X101600799Y-67221914D01*
X101661870Y-67449837D01*
X101752160Y-67667819D01*
X101752165Y-67667828D01*
X101870144Y-67872171D01*
X101870145Y-67872172D01*
X101932721Y-67953723D01*
X102654152Y-67232292D01*
X102661049Y-67248942D01*
X102748599Y-67379970D01*
X102860030Y-67491401D01*
X102991058Y-67578951D01*
X103007706Y-67585846D01*
X102286275Y-68307277D01*
X102367827Y-68369854D01*
X102367828Y-68369855D01*
X102572171Y-68487834D01*
X102572180Y-68487839D01*
X102790163Y-68578129D01*
X102790161Y-68578129D01*
X103018085Y-68639200D01*
X103252014Y-68669999D01*
X103252029Y-68670000D01*
X103487971Y-68670000D01*
X103487985Y-68669999D01*
X103721914Y-68639200D01*
X103949837Y-68578129D01*
X104167819Y-68487839D01*
X104167828Y-68487834D01*
X104243602Y-68444086D01*
X104311502Y-68427613D01*
X104377529Y-68450465D01*
X104420720Y-68505386D01*
X104427362Y-68574939D01*
X104420164Y-68598925D01*
X104348842Y-68771111D01*
X104348842Y-68771112D01*
X104347051Y-68777797D01*
X104290522Y-68988771D01*
X104289453Y-68992759D01*
X104289451Y-68992770D01*
X104259500Y-69220258D01*
X104259500Y-69449741D01*
X104274700Y-69565187D01*
X104289452Y-69677238D01*
X104322480Y-69800500D01*
X104348842Y-69898887D01*
X104436650Y-70110876D01*
X104436657Y-70110890D01*
X104443570Y-70122863D01*
X104524026Y-70262218D01*
X104531315Y-70274842D01*
X104547788Y-70342742D01*
X104524935Y-70408769D01*
X104470014Y-70451960D01*
X104400461Y-70458601D01*
X104361928Y-70444229D01*
X104167835Y-70332168D01*
X104167819Y-70332160D01*
X103949836Y-70241870D01*
X103949838Y-70241870D01*
X103721914Y-70180799D01*
X103487985Y-70150000D01*
X103252014Y-70150000D01*
X103018085Y-70180799D01*
X102790162Y-70241870D01*
X102572180Y-70332160D01*
X102572171Y-70332165D01*
X102367828Y-70450144D01*
X102367818Y-70450150D01*
X102286275Y-70512720D01*
X102286275Y-70512721D01*
X103007706Y-71234152D01*
X102991058Y-71241049D01*
X102860030Y-71328599D01*
X102748599Y-71440030D01*
X102661049Y-71571058D01*
X102654152Y-71587706D01*
X101932721Y-70866275D01*
X101932720Y-70866275D01*
X101870150Y-70947818D01*
X101870144Y-70947828D01*
X101752165Y-71152171D01*
X101752160Y-71152180D01*
X101661870Y-71370162D01*
X101600799Y-71598085D01*
X101570000Y-71832014D01*
X101570000Y-72067985D01*
X101600799Y-72301914D01*
X101661870Y-72529837D01*
X101752160Y-72747819D01*
X101752165Y-72747828D01*
X101870144Y-72952171D01*
X101870145Y-72952172D01*
X101932721Y-73033723D01*
X102654152Y-72312292D01*
X102661049Y-72328942D01*
X102748599Y-72459970D01*
X102860030Y-72571401D01*
X102991058Y-72658951D01*
X103007706Y-72665846D01*
X102286275Y-73387277D01*
X102367827Y-73449854D01*
X102367828Y-73449855D01*
X102572171Y-73567834D01*
X102572180Y-73567839D01*
X102790163Y-73658129D01*
X102790161Y-73658129D01*
X103018085Y-73719200D01*
X103252014Y-73749999D01*
X103252029Y-73750000D01*
X103487971Y-73750000D01*
X103487985Y-73749999D01*
X103721914Y-73719200D01*
X103949837Y-73658129D01*
X104167819Y-73567839D01*
X104167828Y-73567834D01*
X104372181Y-73449850D01*
X104453723Y-73387279D01*
X104453723Y-73387276D01*
X103732293Y-72665847D01*
X103748942Y-72658951D01*
X103879970Y-72571401D01*
X103991401Y-72459970D01*
X104078951Y-72328942D01*
X104085847Y-72312293D01*
X104807276Y-73033723D01*
X104807279Y-73033723D01*
X104869850Y-72952181D01*
X104987834Y-72747828D01*
X104987839Y-72747819D01*
X105078129Y-72529837D01*
X105139200Y-72301914D01*
X105169999Y-72067985D01*
X105170000Y-72067971D01*
X105170000Y-71832028D01*
X105169999Y-71832014D01*
X105139200Y-71598085D01*
X105078129Y-71370162D01*
X104987839Y-71152180D01*
X104987834Y-71152171D01*
X104884920Y-70973921D01*
X104868447Y-70906021D01*
X104891299Y-70839994D01*
X104946220Y-70796803D01*
X105015773Y-70790161D01*
X105054302Y-70804531D01*
X105234112Y-70908344D01*
X105234117Y-70908346D01*
X105234123Y-70908349D01*
X105307721Y-70938834D01*
X105446113Y-70996158D01*
X105667762Y-71055548D01*
X105895266Y-71085500D01*
X105895273Y-71085500D01*
X106124727Y-71085500D01*
X106124734Y-71085500D01*
X106352238Y-71055548D01*
X106573887Y-70996158D01*
X106694247Y-70946302D01*
X106763714Y-70938834D01*
X106826194Y-70970109D01*
X106861846Y-71030198D01*
X106859353Y-71100023D01*
X106849086Y-71122863D01*
X106832166Y-71152169D01*
X106832160Y-71152180D01*
X106741870Y-71370162D01*
X106680799Y-71598085D01*
X106650000Y-71832014D01*
X106650000Y-72067985D01*
X106680799Y-72301914D01*
X106741870Y-72529837D01*
X106832160Y-72747819D01*
X106832165Y-72747828D01*
X106950144Y-72952171D01*
X106950145Y-72952172D01*
X107012721Y-73033723D01*
X107734152Y-72312292D01*
X107741049Y-72328942D01*
X107828599Y-72459970D01*
X107940030Y-72571401D01*
X108071058Y-72658951D01*
X108087706Y-72665846D01*
X107366275Y-73387277D01*
X107447827Y-73449854D01*
X107447828Y-73449855D01*
X107652171Y-73567834D01*
X107652180Y-73567839D01*
X107870163Y-73658129D01*
X107870161Y-73658129D01*
X108098085Y-73719200D01*
X108332014Y-73749999D01*
X108332029Y-73750000D01*
X108567971Y-73750000D01*
X108567985Y-73749999D01*
X108801914Y-73719200D01*
X109029837Y-73658129D01*
X109247819Y-73567839D01*
X109247828Y-73567834D01*
X109452181Y-73449850D01*
X109533723Y-73387279D01*
X109533723Y-73387276D01*
X108812293Y-72665847D01*
X108828942Y-72658951D01*
X108959970Y-72571401D01*
X109071401Y-72459970D01*
X109158951Y-72328942D01*
X109165846Y-72312293D01*
X109887276Y-73033723D01*
X109887279Y-73033723D01*
X109949850Y-72952181D01*
X110037720Y-72799986D01*
X126375001Y-72799986D01*
X126385494Y-72902697D01*
X126440641Y-73069119D01*
X126440643Y-73069124D01*
X126532684Y-73218345D01*
X126656654Y-73342315D01*
X126805875Y-73434356D01*
X126805880Y-73434358D01*
X126972302Y-73489505D01*
X126972309Y-73489506D01*
X127075019Y-73499999D01*
X127199999Y-73499999D01*
X127200000Y-73499998D01*
X127200000Y-72350000D01*
X126375001Y-72350000D01*
X126375001Y-72799986D01*
X110037720Y-72799986D01*
X110067834Y-72747828D01*
X110067839Y-72747819D01*
X110158129Y-72529837D01*
X110219201Y-72301913D01*
X110221763Y-72282454D01*
X110221763Y-72282452D01*
X110249999Y-72067985D01*
X110250000Y-72067971D01*
X110250000Y-71832028D01*
X110249999Y-71832014D01*
X110219201Y-71598087D01*
X110173883Y-71428958D01*
X110173883Y-71428957D01*
X110166128Y-71400013D01*
X126375000Y-71400013D01*
X126375000Y-71850000D01*
X127200000Y-71850000D01*
X127200000Y-70700000D01*
X127700000Y-70700000D01*
X127700000Y-73499999D01*
X127824972Y-73499999D01*
X127824986Y-73499998D01*
X127927697Y-73489505D01*
X128094119Y-73434358D01*
X128094124Y-73434356D01*
X128243345Y-73342315D01*
X128367315Y-73218345D01*
X128459356Y-73069124D01*
X128462408Y-73062579D01*
X128463764Y-73063211D01*
X128498842Y-73012550D01*
X128563358Y-72985728D01*
X128576774Y-72985000D01*
X129272699Y-72985000D01*
X129339738Y-73004685D01*
X129385493Y-73057489D01*
X129389929Y-73068783D01*
X129390184Y-73069330D01*
X129390185Y-73069332D01*
X129390186Y-73069334D01*
X129482288Y-73218656D01*
X129606344Y-73342712D01*
X129755666Y-73434814D01*
X129922203Y-73489999D01*
X130024991Y-73500500D01*
X130775008Y-73500499D01*
X130775016Y-73500498D01*
X130775019Y-73500498D01*
X130836182Y-73494250D01*
X130877797Y-73489999D01*
X131044334Y-73434814D01*
X131193656Y-73342712D01*
X131317712Y-73218656D01*
X131325985Y-73205242D01*
X131377929Y-73158517D01*
X131446891Y-73147292D01*
X131510975Y-73175132D01*
X131519206Y-73182655D01*
X131657345Y-73320794D01*
X131657350Y-73320798D01*
X131834976Y-73449850D01*
X131861155Y-73468870D01*
X131989679Y-73534356D01*
X132011807Y-73545631D01*
X132062603Y-73593606D01*
X132079398Y-73661427D01*
X132056861Y-73727562D01*
X132011807Y-73766601D01*
X131913566Y-73816657D01*
X131844825Y-73866601D01*
X131722490Y-73955483D01*
X131722488Y-73955485D01*
X131722487Y-73955485D01*
X131555485Y-74122487D01*
X131555485Y-74122488D01*
X131555483Y-74122490D01*
X131525919Y-74163181D01*
X131416657Y-74313566D01*
X131309433Y-74524003D01*
X131236446Y-74748631D01*
X131199500Y-74981902D01*
X131199500Y-75218097D01*
X131236446Y-75451368D01*
X131309433Y-75675996D01*
X131416657Y-75886433D01*
X131555483Y-76077510D01*
X131722490Y-76244517D01*
X131913567Y-76383343D01*
X131943395Y-76398541D01*
X132124003Y-76490566D01*
X132124005Y-76490566D01*
X132124008Y-76490568D01*
X132244412Y-76529689D01*
X132348631Y-76563553D01*
X132581903Y-76600500D01*
X132581908Y-76600500D01*
X132818097Y-76600500D01*
X133051368Y-76563553D01*
X133275992Y-76490568D01*
X133456601Y-76398543D01*
X138286999Y-76398543D01*
X138325447Y-76591829D01*
X138325450Y-76591839D01*
X138400864Y-76773907D01*
X138400871Y-76773920D01*
X138510360Y-76937781D01*
X138510363Y-76937785D01*
X138649714Y-77077136D01*
X138649718Y-77077139D01*
X138813579Y-77186628D01*
X138813592Y-77186635D01*
X138995660Y-77262049D01*
X138995665Y-77262051D01*
X138995669Y-77262051D01*
X138995670Y-77262052D01*
X139188956Y-77300500D01*
X139188959Y-77300500D01*
X139386043Y-77300500D01*
X139516082Y-77274632D01*
X139579335Y-77262051D01*
X139640230Y-77236827D01*
X139765503Y-77184939D01*
X139812955Y-77175500D01*
X140066592Y-77175500D01*
X140133631Y-77195185D01*
X140172136Y-77239271D01*
X140173895Y-77238187D01*
X140177685Y-77244331D01*
X140177686Y-77244334D01*
X140269788Y-77393656D01*
X140393844Y-77517712D01*
X140543166Y-77609814D01*
X140709703Y-77664999D01*
X140812491Y-77675500D01*
X141537508Y-77675499D01*
X141537516Y-77675498D01*
X141537519Y-77675498D01*
X141593802Y-77669748D01*
X141640297Y-77664999D01*
X141806834Y-77609814D01*
X141822904Y-77599901D01*
X141830522Y-77597817D01*
X141836489Y-77592647D01*
X141863735Y-77588729D01*
X141890295Y-77581462D01*
X141897830Y-77583826D01*
X141905647Y-77582703D01*
X141930689Y-77594139D01*
X141956959Y-77602384D01*
X141962019Y-77608447D01*
X141969203Y-77611728D01*
X141984086Y-77634887D01*
X142001729Y-77656026D01*
X142003668Y-77665358D01*
X142006977Y-77670506D01*
X142012000Y-77705441D01*
X142012000Y-77937770D01*
X141992315Y-78004809D01*
X141975681Y-78025451D01*
X141969789Y-78031342D01*
X141877687Y-78180663D01*
X141877685Y-78180668D01*
X141875272Y-78187950D01*
X141822501Y-78347203D01*
X141822501Y-78347204D01*
X141822500Y-78347204D01*
X141812000Y-78449983D01*
X141812000Y-79850001D01*
X141812001Y-79850018D01*
X141822500Y-79952796D01*
X141822501Y-79952799D01*
X141848257Y-80030523D01*
X141877686Y-80119334D01*
X141969788Y-80268656D01*
X142093844Y-80392712D01*
X142243166Y-80484814D01*
X142409703Y-80539999D01*
X142512491Y-80550500D01*
X143262508Y-80550499D01*
X143262516Y-80550498D01*
X143262519Y-80550498D01*
X143318802Y-80544748D01*
X143365297Y-80539999D01*
X143531834Y-80484814D01*
X143681156Y-80392712D01*
X143805212Y-80268656D01*
X143897314Y-80119334D01*
X143952499Y-79952797D01*
X143963000Y-79850009D01*
X143962999Y-78449992D01*
X143962998Y-78449983D01*
X144762000Y-78449983D01*
X144762000Y-79850001D01*
X144762001Y-79850018D01*
X144772500Y-79952796D01*
X144772501Y-79952799D01*
X144798257Y-80030523D01*
X144827686Y-80119334D01*
X144919788Y-80268656D01*
X145043844Y-80392712D01*
X145193166Y-80484814D01*
X145359703Y-80539999D01*
X145462491Y-80550500D01*
X146212508Y-80550499D01*
X146212516Y-80550498D01*
X146212519Y-80550498D01*
X146268802Y-80544748D01*
X146315297Y-80539999D01*
X146481834Y-80484814D01*
X146631156Y-80392712D01*
X146755212Y-80268656D01*
X146847314Y-80119334D01*
X146849727Y-80112052D01*
X146850244Y-80110493D01*
X146864114Y-80090461D01*
X146874236Y-80068297D01*
X146883648Y-80062247D01*
X146890018Y-80053049D01*
X146912516Y-80043696D01*
X146933014Y-80030523D01*
X146950119Y-80028063D01*
X146954535Y-80026228D01*
X146967949Y-80025500D01*
X147012045Y-80025500D01*
X147059497Y-80034939D01*
X147245660Y-80112049D01*
X147245665Y-80112051D01*
X147245669Y-80112051D01*
X147245670Y-80112052D01*
X147438956Y-80150500D01*
X147438959Y-80150500D01*
X147636043Y-80150500D01*
X147792736Y-80119331D01*
X147829335Y-80112051D01*
X148011414Y-80036632D01*
X148175282Y-79927139D01*
X148314639Y-79787782D01*
X148424132Y-79623914D01*
X148499551Y-79441835D01*
X148538000Y-79248541D01*
X148538000Y-79051459D01*
X148538000Y-79051456D01*
X148499552Y-78858170D01*
X148499551Y-78858169D01*
X148499551Y-78858165D01*
X148499549Y-78858160D01*
X148424135Y-78676092D01*
X148424128Y-78676079D01*
X148314639Y-78512218D01*
X148314636Y-78512214D01*
X148175285Y-78372863D01*
X148175281Y-78372860D01*
X148011420Y-78263371D01*
X148011407Y-78263364D01*
X147829339Y-78187950D01*
X147829329Y-78187947D01*
X147636043Y-78149500D01*
X147636041Y-78149500D01*
X147438959Y-78149500D01*
X147438957Y-78149500D01*
X147245670Y-78187947D01*
X147245660Y-78187950D01*
X147059497Y-78265061D01*
X147051320Y-78266687D01*
X147046980Y-78269477D01*
X147012045Y-78274500D01*
X146967949Y-78274500D01*
X146900910Y-78254815D01*
X146855155Y-78202011D01*
X146850244Y-78189507D01*
X146848767Y-78185053D01*
X146847314Y-78180666D01*
X146755212Y-78031344D01*
X146631156Y-77907288D01*
X146481834Y-77815186D01*
X146315297Y-77760001D01*
X146315295Y-77760000D01*
X146212510Y-77749500D01*
X145462498Y-77749500D01*
X145462480Y-77749501D01*
X145359703Y-77760000D01*
X145359700Y-77760001D01*
X145193168Y-77815185D01*
X145193163Y-77815187D01*
X145043842Y-77907289D01*
X144919789Y-78031342D01*
X144827687Y-78180663D01*
X144827685Y-78180668D01*
X144825272Y-78187950D01*
X144772501Y-78347203D01*
X144772501Y-78347204D01*
X144772500Y-78347204D01*
X144762000Y-78449983D01*
X143962998Y-78449983D01*
X143952499Y-78347203D01*
X143897314Y-78180666D01*
X143805212Y-78031344D01*
X143799319Y-78025451D01*
X143784615Y-77998523D01*
X143768023Y-77972705D01*
X143767131Y-77966504D01*
X143765834Y-77964128D01*
X143763000Y-77937770D01*
X143763000Y-77926505D01*
X143782685Y-77859466D01*
X143799315Y-77838828D01*
X143926325Y-77711817D01*
X143987648Y-77678333D01*
X144014006Y-77675499D01*
X144462502Y-77675499D01*
X144462508Y-77675499D01*
X144565297Y-77664999D01*
X144731834Y-77609814D01*
X144881156Y-77517712D01*
X145005212Y-77393656D01*
X145097314Y-77244334D01*
X145152499Y-77077797D01*
X145163000Y-76975009D01*
X145162999Y-75624992D01*
X145152499Y-75522203D01*
X145097314Y-75355666D01*
X145005212Y-75206344D01*
X144881156Y-75082288D01*
X144788388Y-75025069D01*
X144731836Y-74990187D01*
X144731831Y-74990185D01*
X144730362Y-74989698D01*
X144565297Y-74935001D01*
X144565295Y-74935000D01*
X144462510Y-74924500D01*
X143737498Y-74924500D01*
X143737480Y-74924501D01*
X143634703Y-74935000D01*
X143634700Y-74935001D01*
X143468168Y-74990185D01*
X143468163Y-74990187D01*
X143318842Y-75082289D01*
X143194787Y-75206344D01*
X143117841Y-75331096D01*
X143065893Y-75377821D01*
X143012302Y-75390000D01*
X142262698Y-75390000D01*
X142195659Y-75370315D01*
X142157159Y-75331096D01*
X142149113Y-75318052D01*
X142080212Y-75206344D01*
X141956156Y-75082288D01*
X141863388Y-75025069D01*
X141806836Y-74990187D01*
X141806831Y-74990185D01*
X141805362Y-74989698D01*
X141640297Y-74935001D01*
X141640295Y-74935000D01*
X141537510Y-74924500D01*
X140812498Y-74924500D01*
X140812480Y-74924501D01*
X140709703Y-74935000D01*
X140709700Y-74935001D01*
X140543168Y-74990185D01*
X140543163Y-74990187D01*
X140393842Y-75082289D01*
X140269789Y-75206342D01*
X140269788Y-75206344D01*
X140188614Y-75337950D01*
X140173895Y-75361813D01*
X140172100Y-75360706D01*
X140132813Y-75405337D01*
X140066592Y-75424500D01*
X139812955Y-75424500D01*
X139765503Y-75415061D01*
X139579339Y-75337950D01*
X139579329Y-75337947D01*
X139386043Y-75299500D01*
X139386041Y-75299500D01*
X139188959Y-75299500D01*
X139188957Y-75299500D01*
X138995670Y-75337947D01*
X138995660Y-75337950D01*
X138813592Y-75413364D01*
X138813579Y-75413371D01*
X138649718Y-75522860D01*
X138649714Y-75522863D01*
X138510363Y-75662214D01*
X138510360Y-75662218D01*
X138400871Y-75826079D01*
X138400864Y-75826092D01*
X138325450Y-76008160D01*
X138325447Y-76008170D01*
X138287000Y-76201456D01*
X138287000Y-76201459D01*
X138287000Y-76398541D01*
X138287000Y-76398543D01*
X138286999Y-76398543D01*
X133456601Y-76398543D01*
X133486433Y-76383343D01*
X133677510Y-76244517D01*
X133844517Y-76077510D01*
X133983343Y-75886433D01*
X134090568Y-75675992D01*
X134163553Y-75451368D01*
X134200500Y-75218097D01*
X134200500Y-74981902D01*
X134163553Y-74748631D01*
X134103948Y-74565187D01*
X134090568Y-74524008D01*
X134090566Y-74524005D01*
X134090566Y-74524003D01*
X134034002Y-74412991D01*
X133983343Y-74313567D01*
X133844517Y-74122490D01*
X133677510Y-73955483D01*
X133486433Y-73816657D01*
X133388191Y-73766600D01*
X133337396Y-73718627D01*
X133320601Y-73650806D01*
X133343138Y-73584671D01*
X133388190Y-73545632D01*
X133538845Y-73468870D01*
X133742656Y-73320793D01*
X133920793Y-73142656D01*
X134068870Y-72938845D01*
X134183241Y-72714379D01*
X134261090Y-72474785D01*
X134300500Y-72225962D01*
X134300500Y-71974038D01*
X134261090Y-71725215D01*
X134183241Y-71485621D01*
X134183239Y-71485618D01*
X134183239Y-71485616D01*
X134138188Y-71397200D01*
X134068870Y-71261155D01*
X134046720Y-71230668D01*
X133920798Y-71057350D01*
X133920794Y-71057345D01*
X133742654Y-70879205D01*
X133742649Y-70879201D01*
X133538848Y-70731132D01*
X133538847Y-70731131D01*
X133538845Y-70731130D01*
X133406218Y-70663553D01*
X133388192Y-70654368D01*
X133337396Y-70606393D01*
X133320601Y-70538572D01*
X133343139Y-70472437D01*
X133388190Y-70433399D01*
X133486433Y-70383343D01*
X133677510Y-70244517D01*
X133844517Y-70077510D01*
X133983343Y-69886433D01*
X134090568Y-69675992D01*
X134163553Y-69451368D01*
X134175569Y-69375500D01*
X134200500Y-69218097D01*
X134200500Y-68981902D01*
X134163553Y-68748631D01*
X134127996Y-68639200D01*
X134090568Y-68524008D01*
X134090566Y-68524005D01*
X134090566Y-68524003D01*
X134012023Y-68369855D01*
X133983343Y-68313567D01*
X133844517Y-68122490D01*
X133820570Y-68098543D01*
X138299499Y-68098543D01*
X138337947Y-68291829D01*
X138337950Y-68291839D01*
X138413364Y-68473907D01*
X138413371Y-68473920D01*
X138522860Y-68637781D01*
X138522863Y-68637785D01*
X138662214Y-68777136D01*
X138662218Y-68777139D01*
X138826079Y-68886628D01*
X138826092Y-68886635D01*
X139008160Y-68962049D01*
X139008165Y-68962051D01*
X139008169Y-68962051D01*
X139008170Y-68962052D01*
X139201456Y-69000500D01*
X139201459Y-69000500D01*
X139398543Y-69000500D01*
X139528582Y-68974632D01*
X139591835Y-68962051D01*
X139652730Y-68936827D01*
X139778003Y-68884939D01*
X139786179Y-68883312D01*
X139790520Y-68880523D01*
X139825455Y-68875500D01*
X140041592Y-68875500D01*
X140108631Y-68895185D01*
X140147136Y-68939271D01*
X140148895Y-68938187D01*
X140152685Y-68944331D01*
X140152686Y-68944334D01*
X140244788Y-69093656D01*
X140368844Y-69217712D01*
X140518166Y-69309814D01*
X140684703Y-69364999D01*
X140787491Y-69375500D01*
X141512508Y-69375499D01*
X141512516Y-69375498D01*
X141512519Y-69375498D01*
X141572889Y-69369331D01*
X141615297Y-69364999D01*
X141781834Y-69309814D01*
X141931156Y-69217712D01*
X141931159Y-69217708D01*
X141935403Y-69215091D01*
X142002795Y-69196651D01*
X142069459Y-69217573D01*
X142114229Y-69271215D01*
X142124500Y-69320630D01*
X142124500Y-69687770D01*
X142104815Y-69754809D01*
X142088181Y-69775451D01*
X142082289Y-69781342D01*
X141990187Y-69930663D01*
X141990185Y-69930668D01*
X141968895Y-69994919D01*
X141935001Y-70097203D01*
X141935001Y-70097204D01*
X141935000Y-70097204D01*
X141924500Y-70199983D01*
X141924500Y-71600001D01*
X141924501Y-71600018D01*
X141935000Y-71702796D01*
X141935001Y-71702799D01*
X141977819Y-71832014D01*
X141990186Y-71869334D01*
X142082288Y-72018656D01*
X142206344Y-72142712D01*
X142355666Y-72234814D01*
X142522203Y-72289999D01*
X142624991Y-72300500D01*
X143375008Y-72300499D01*
X143375016Y-72300498D01*
X143375019Y-72300498D01*
X143431302Y-72294748D01*
X143477797Y-72289999D01*
X143644334Y-72234814D01*
X143793656Y-72142712D01*
X143917712Y-72018656D01*
X144009814Y-71869334D01*
X144064999Y-71702797D01*
X144075500Y-71600009D01*
X144075499Y-70199992D01*
X144075498Y-70199983D01*
X144874500Y-70199983D01*
X144874500Y-71600001D01*
X144874501Y-71600018D01*
X144885000Y-71702796D01*
X144885001Y-71702799D01*
X144927819Y-71832014D01*
X144940186Y-71869334D01*
X145032288Y-72018656D01*
X145156344Y-72142712D01*
X145305666Y-72234814D01*
X145472203Y-72289999D01*
X145574991Y-72300500D01*
X146325008Y-72300499D01*
X146325016Y-72300498D01*
X146325019Y-72300498D01*
X146381302Y-72294748D01*
X146427797Y-72289999D01*
X146594334Y-72234814D01*
X146743656Y-72142712D01*
X146812330Y-72074038D01*
X148899500Y-72074038D01*
X148899500Y-72325961D01*
X148938910Y-72574785D01*
X149016760Y-72814383D01*
X149095413Y-72968747D01*
X149130995Y-73038581D01*
X149131132Y-73038848D01*
X149279201Y-73242649D01*
X149279205Y-73242654D01*
X149457345Y-73420794D01*
X149457350Y-73420798D01*
X149613650Y-73534356D01*
X149661155Y-73568870D01*
X149802182Y-73640727D01*
X149811807Y-73645631D01*
X149862603Y-73693606D01*
X149879398Y-73761427D01*
X149856861Y-73827562D01*
X149811807Y-73866601D01*
X149713566Y-73916657D01*
X149630047Y-73977338D01*
X149522490Y-74055483D01*
X149522488Y-74055485D01*
X149522487Y-74055485D01*
X149355485Y-74222487D01*
X149355485Y-74222488D01*
X149355483Y-74222490D01*
X149321555Y-74269188D01*
X149216657Y-74413566D01*
X149109433Y-74624003D01*
X149036446Y-74848631D01*
X148999500Y-75081902D01*
X148999500Y-75318097D01*
X149036446Y-75551368D01*
X149109433Y-75775996D01*
X149165704Y-75886433D01*
X149216657Y-75986433D01*
X149355483Y-76177510D01*
X149522490Y-76344517D01*
X149713567Y-76483343D01*
X149812991Y-76534002D01*
X149924003Y-76590566D01*
X149924005Y-76590566D01*
X149924008Y-76590568D01*
X150028421Y-76624494D01*
X150148631Y-76663553D01*
X150381903Y-76700500D01*
X150381908Y-76700500D01*
X150618097Y-76700500D01*
X150851368Y-76663553D01*
X150852870Y-76663065D01*
X151075992Y-76590568D01*
X151286433Y-76483343D01*
X151477510Y-76344517D01*
X151585208Y-76236819D01*
X151612135Y-76222115D01*
X151637954Y-76205523D01*
X151644154Y-76204631D01*
X151646531Y-76203334D01*
X151672889Y-76200500D01*
X151850500Y-76200500D01*
X151917539Y-76220185D01*
X151963294Y-76272989D01*
X151974500Y-76324500D01*
X151974500Y-76600000D01*
X151974501Y-76600019D01*
X151985000Y-76702796D01*
X151985001Y-76702799D01*
X152027965Y-76832455D01*
X152040186Y-76869334D01*
X152132288Y-77018656D01*
X152256344Y-77142712D01*
X152405666Y-77234814D01*
X152572203Y-77289999D01*
X152674991Y-77300500D01*
X153425008Y-77300499D01*
X153425016Y-77300498D01*
X153425019Y-77300498D01*
X153481302Y-77294748D01*
X153527797Y-77289999D01*
X153694334Y-77234814D01*
X153843656Y-77142712D01*
X153967712Y-77018656D01*
X154059814Y-76869334D01*
X154114999Y-76702797D01*
X154125500Y-76600009D01*
X154125499Y-75199992D01*
X154125498Y-75199983D01*
X154924500Y-75199983D01*
X154924500Y-76600001D01*
X154924501Y-76600018D01*
X154935000Y-76702796D01*
X154935001Y-76702799D01*
X154977965Y-76832455D01*
X154990186Y-76869334D01*
X155082288Y-77018656D01*
X155206344Y-77142712D01*
X155355666Y-77234814D01*
X155522203Y-77289999D01*
X155624991Y-77300500D01*
X156375008Y-77300499D01*
X156375016Y-77300498D01*
X156375019Y-77300498D01*
X156431302Y-77294748D01*
X156477797Y-77289999D01*
X156644334Y-77234814D01*
X156793656Y-77142712D01*
X156917712Y-77018656D01*
X157009814Y-76869334D01*
X157064999Y-76702797D01*
X157075500Y-76600009D01*
X157075499Y-76324499D01*
X157078049Y-76315813D01*
X157076761Y-76306853D01*
X157087738Y-76282816D01*
X157095183Y-76257461D01*
X157102025Y-76251532D01*
X157105786Y-76243297D01*
X157128017Y-76229010D01*
X157147987Y-76211706D01*
X157158502Y-76209418D01*
X157164564Y-76205523D01*
X157199499Y-76200500D01*
X157327111Y-76200500D01*
X157394150Y-76220185D01*
X157414792Y-76236819D01*
X157522490Y-76344517D01*
X157713567Y-76483343D01*
X157812991Y-76534002D01*
X157924003Y-76590566D01*
X157924005Y-76590566D01*
X157924008Y-76590568D01*
X158028421Y-76624494D01*
X158148631Y-76663553D01*
X158381903Y-76700500D01*
X158381908Y-76700500D01*
X158618097Y-76700500D01*
X158851368Y-76663553D01*
X158852870Y-76663065D01*
X159075992Y-76590568D01*
X159286433Y-76483343D01*
X159477510Y-76344517D01*
X159644517Y-76177510D01*
X159783343Y-75986433D01*
X159890568Y-75775992D01*
X159963553Y-75551368D01*
X159970579Y-75507007D01*
X160000500Y-75318097D01*
X160000500Y-75081947D01*
X164000000Y-75081947D01*
X164000000Y-75318052D01*
X164036934Y-75551247D01*
X164109897Y-75775802D01*
X164217087Y-75986174D01*
X164277338Y-76069104D01*
X164277340Y-76069105D01*
X165017037Y-75329408D01*
X165034075Y-75392993D01*
X165099901Y-75507007D01*
X165192993Y-75600099D01*
X165307007Y-75665925D01*
X165370590Y-75682962D01*
X164630893Y-76422658D01*
X164713828Y-76482914D01*
X164924197Y-76590102D01*
X165148752Y-76663065D01*
X165148751Y-76663065D01*
X165381948Y-76700000D01*
X165618052Y-76700000D01*
X165851247Y-76663065D01*
X166075802Y-76590102D01*
X166286163Y-76482918D01*
X166286169Y-76482914D01*
X166369104Y-76422658D01*
X166369105Y-76422658D01*
X165629408Y-75682962D01*
X165692993Y-75665925D01*
X165807007Y-75600099D01*
X165900099Y-75507007D01*
X165965925Y-75392993D01*
X165982962Y-75329408D01*
X166722658Y-76069105D01*
X166722658Y-76069104D01*
X166782914Y-75986169D01*
X166782918Y-75986163D01*
X166890102Y-75775802D01*
X166963065Y-75551247D01*
X167000000Y-75318052D01*
X167000000Y-75081947D01*
X166963065Y-74848752D01*
X166890102Y-74624197D01*
X166782914Y-74413828D01*
X166722658Y-74330894D01*
X166722658Y-74330893D01*
X165982962Y-75070590D01*
X165965925Y-75007007D01*
X165900099Y-74892993D01*
X165807007Y-74799901D01*
X165692993Y-74734075D01*
X165629409Y-74717037D01*
X166369105Y-73977340D01*
X166369104Y-73977338D01*
X166286174Y-73917087D01*
X166075802Y-73809897D01*
X165851247Y-73736934D01*
X165851248Y-73736934D01*
X165618052Y-73700000D01*
X165381948Y-73700000D01*
X165148752Y-73736934D01*
X164924197Y-73809897D01*
X164713830Y-73917084D01*
X164630894Y-73977340D01*
X165370591Y-74717037D01*
X165307007Y-74734075D01*
X165192993Y-74799901D01*
X165099901Y-74892993D01*
X165034075Y-75007007D01*
X165017037Y-75070590D01*
X164277340Y-74330894D01*
X164217084Y-74413830D01*
X164109897Y-74624197D01*
X164036934Y-74848752D01*
X164000000Y-75081947D01*
X160000500Y-75081947D01*
X160000500Y-75081902D01*
X159963553Y-74848631D01*
X159915259Y-74700000D01*
X159890568Y-74624008D01*
X159890566Y-74624005D01*
X159890566Y-74624003D01*
X159832478Y-74510000D01*
X159783343Y-74413567D01*
X159644517Y-74222490D01*
X159477510Y-74055483D01*
X159286433Y-73916657D01*
X159187643Y-73866321D01*
X159136847Y-73818346D01*
X159120052Y-73750525D01*
X159142589Y-73684390D01*
X159187643Y-73645351D01*
X159338575Y-73568446D01*
X159338581Y-73568442D01*
X159440697Y-73494250D01*
X159440698Y-73494250D01*
X158711059Y-72764612D01*
X158731591Y-72759111D01*
X158868408Y-72680119D01*
X158980119Y-72568408D01*
X159059111Y-72431591D01*
X159064612Y-72411060D01*
X159794250Y-73140698D01*
X159794250Y-73140697D01*
X159868442Y-73038581D01*
X159868446Y-73038575D01*
X159982780Y-72814184D01*
X160060602Y-72574669D01*
X160100000Y-72325928D01*
X160100000Y-72074071D01*
X160060602Y-71825330D01*
X159982780Y-71585815D01*
X159868442Y-71361416D01*
X159794250Y-71259301D01*
X159794250Y-71259300D01*
X159064612Y-71988939D01*
X159059111Y-71968409D01*
X158980119Y-71831592D01*
X158868408Y-71719881D01*
X158731591Y-71640889D01*
X158711058Y-71635387D01*
X159440698Y-70905748D01*
X159338581Y-70831555D01*
X159187642Y-70754647D01*
X159136847Y-70706673D01*
X159120052Y-70638852D01*
X159142590Y-70572717D01*
X159187642Y-70533679D01*
X159286433Y-70483343D01*
X159477510Y-70344517D01*
X159644517Y-70177510D01*
X159783343Y-69986433D01*
X159890568Y-69775992D01*
X159963553Y-69551368D01*
X159971768Y-69499499D01*
X160000500Y-69318097D01*
X160000500Y-69081902D01*
X159963553Y-68848631D01*
X159920209Y-68715233D01*
X159890568Y-68624008D01*
X159890566Y-68624005D01*
X159890566Y-68624003D01*
X159802143Y-68450465D01*
X159783343Y-68413567D01*
X159644517Y-68222490D01*
X159477510Y-68055483D01*
X159286433Y-67916657D01*
X159075996Y-67809433D01*
X158851368Y-67736446D01*
X158618097Y-67699500D01*
X158618092Y-67699500D01*
X158381908Y-67699500D01*
X158381903Y-67699500D01*
X158148631Y-67736446D01*
X157924003Y-67809433D01*
X157713566Y-67916657D01*
X157522491Y-68055482D01*
X157421627Y-68156346D01*
X157413680Y-68160685D01*
X157408256Y-68167931D01*
X157383498Y-68177165D01*
X157360304Y-68189830D01*
X157351274Y-68189184D01*
X157342792Y-68192348D01*
X157316971Y-68186731D01*
X157290612Y-68184846D01*
X157281558Y-68179027D01*
X157274519Y-68177496D01*
X157246265Y-68156345D01*
X157186818Y-68096898D01*
X157153333Y-68035575D01*
X157150499Y-68009217D01*
X157150499Y-67699998D01*
X157150498Y-67699981D01*
X157139999Y-67597203D01*
X157139998Y-67597200D01*
X157116431Y-67526079D01*
X157084814Y-67430666D01*
X156992712Y-67281344D01*
X156868656Y-67157288D01*
X156759564Y-67090000D01*
X156719336Y-67065187D01*
X156719331Y-67065185D01*
X156705814Y-67060706D01*
X156552797Y-67010001D01*
X156552795Y-67010000D01*
X156450010Y-66999500D01*
X155699998Y-66999500D01*
X155699980Y-66999501D01*
X155597203Y-67010000D01*
X155597200Y-67010001D01*
X155430668Y-67065185D01*
X155430663Y-67065187D01*
X155281342Y-67157289D01*
X155157289Y-67281342D01*
X155065187Y-67430663D01*
X155065186Y-67430666D01*
X155010001Y-67597203D01*
X155010001Y-67597204D01*
X155010000Y-67597204D01*
X154999500Y-67699983D01*
X154999500Y-69100001D01*
X154999501Y-69100018D01*
X155010000Y-69202796D01*
X155010001Y-69202799D01*
X155065185Y-69369331D01*
X155065187Y-69369336D01*
X155068989Y-69375500D01*
X155157288Y-69518656D01*
X155281344Y-69642712D01*
X155430666Y-69734814D01*
X155597203Y-69789999D01*
X155699991Y-69800500D01*
X156009215Y-69800499D01*
X156076254Y-69820183D01*
X156096896Y-69836818D01*
X156237214Y-69977136D01*
X156237218Y-69977139D01*
X156401079Y-70086628D01*
X156401092Y-70086635D01*
X156529833Y-70139961D01*
X156554070Y-70150000D01*
X156583164Y-70162051D01*
X156660882Y-70177510D01*
X156677417Y-70180799D01*
X156776456Y-70200500D01*
X156776459Y-70200500D01*
X156776460Y-70200500D01*
X156973540Y-70200500D01*
X157327111Y-70200500D01*
X157394150Y-70220185D01*
X157414792Y-70236819D01*
X157522490Y-70344517D01*
X157713567Y-70483343D01*
X157812357Y-70533679D01*
X157863152Y-70581652D01*
X157879947Y-70649473D01*
X157857410Y-70715608D01*
X157812357Y-70754647D01*
X157661415Y-70831557D01*
X157559301Y-70905747D01*
X157559300Y-70905748D01*
X158288940Y-71635387D01*
X158268409Y-71640889D01*
X158131592Y-71719881D01*
X158019881Y-71831592D01*
X157940889Y-71968409D01*
X157935387Y-71988940D01*
X157205748Y-71259300D01*
X157205747Y-71259301D01*
X157131559Y-71361413D01*
X157017219Y-71585815D01*
X156991930Y-71663649D01*
X156952493Y-71721324D01*
X156888134Y-71748523D01*
X156819288Y-71736608D01*
X156767812Y-71689364D01*
X156749999Y-71625331D01*
X156749999Y-71500028D01*
X156749998Y-71500012D01*
X156739505Y-71397302D01*
X156684358Y-71230880D01*
X156684356Y-71230875D01*
X156592315Y-71081654D01*
X156468345Y-70957684D01*
X156319124Y-70865643D01*
X156319119Y-70865641D01*
X156152697Y-70810494D01*
X156152690Y-70810493D01*
X156049986Y-70800000D01*
X155925000Y-70800000D01*
X155925000Y-73599999D01*
X156049972Y-73599999D01*
X156049986Y-73599998D01*
X156152697Y-73589505D01*
X156319119Y-73534358D01*
X156319124Y-73534356D01*
X156468345Y-73442315D01*
X156592315Y-73318345D01*
X156684356Y-73169124D01*
X156684358Y-73169119D01*
X156739505Y-73002697D01*
X156739506Y-73002690D01*
X156749999Y-72899986D01*
X156749999Y-72774672D01*
X156769683Y-72707632D01*
X156822487Y-72661877D01*
X156891645Y-72651933D01*
X156955201Y-72680957D01*
X156991930Y-72736352D01*
X157017220Y-72814185D01*
X157131557Y-73038583D01*
X157205748Y-73140697D01*
X157205748Y-73140698D01*
X157935387Y-72411059D01*
X157940889Y-72431591D01*
X158019881Y-72568408D01*
X158131592Y-72680119D01*
X158268409Y-72759111D01*
X158288940Y-72764612D01*
X157559300Y-73494250D01*
X157661416Y-73568442D01*
X157812356Y-73645351D01*
X157863152Y-73693326D01*
X157879947Y-73761147D01*
X157857409Y-73827282D01*
X157812356Y-73866321D01*
X157713566Y-73916657D01*
X157630047Y-73977338D01*
X157522490Y-74055483D01*
X157522488Y-74055485D01*
X157522487Y-74055485D01*
X157414792Y-74163181D01*
X157353469Y-74196666D01*
X157327111Y-74199500D01*
X156601456Y-74199500D01*
X156408171Y-74237946D01*
X156408167Y-74237948D01*
X156408165Y-74237948D01*
X156408164Y-74237949D01*
X156332745Y-74269188D01*
X156332743Y-74269189D01*
X156226089Y-74313366D01*
X156226079Y-74313371D01*
X156062221Y-74422858D01*
X156062215Y-74422862D01*
X156021894Y-74463183D01*
X155960570Y-74496667D01*
X155934215Y-74499500D01*
X155624999Y-74499500D01*
X155624980Y-74499501D01*
X155522203Y-74510000D01*
X155522200Y-74510001D01*
X155355668Y-74565185D01*
X155355663Y-74565187D01*
X155206342Y-74657289D01*
X155082289Y-74781342D01*
X154990187Y-74930663D01*
X154990185Y-74930668D01*
X154973208Y-74981902D01*
X154935001Y-75097203D01*
X154935001Y-75097204D01*
X154935000Y-75097204D01*
X154924500Y-75199983D01*
X154125498Y-75199983D01*
X154114999Y-75097203D01*
X154059814Y-74930666D01*
X153967712Y-74781344D01*
X153843656Y-74657288D01*
X153694334Y-74565186D01*
X153527797Y-74510001D01*
X153527795Y-74510000D01*
X153425016Y-74499500D01*
X153425009Y-74499500D01*
X153115783Y-74499500D01*
X153048744Y-74479815D01*
X153028101Y-74463180D01*
X152987785Y-74422863D01*
X152987781Y-74422860D01*
X152823920Y-74313371D01*
X152823911Y-74313366D01*
X152717257Y-74269189D01*
X152695165Y-74260038D01*
X152641836Y-74237949D01*
X152518259Y-74213368D01*
X152514252Y-74212571D01*
X152514245Y-74212569D01*
X152448543Y-74199500D01*
X152448541Y-74199500D01*
X151672889Y-74199500D01*
X151605850Y-74179815D01*
X151585208Y-74163181D01*
X151477512Y-74055485D01*
X151477510Y-74055483D01*
X151286433Y-73916657D01*
X151188191Y-73866600D01*
X151137396Y-73818627D01*
X151120601Y-73750806D01*
X151143138Y-73684671D01*
X151188190Y-73645632D01*
X151338845Y-73568870D01*
X151406782Y-73519511D01*
X151542648Y-73420799D01*
X151542648Y-73420798D01*
X151542656Y-73420793D01*
X151638362Y-73325086D01*
X151699681Y-73291604D01*
X151769373Y-73296588D01*
X151813721Y-73325089D01*
X151931344Y-73442712D01*
X152080666Y-73534814D01*
X152247203Y-73589999D01*
X152349991Y-73600500D01*
X153100008Y-73600499D01*
X153100016Y-73600498D01*
X153100019Y-73600498D01*
X153156302Y-73594748D01*
X153202797Y-73589999D01*
X153369334Y-73534814D01*
X153518656Y-73442712D01*
X153642712Y-73318656D01*
X153734814Y-73169334D01*
X153789999Y-73002797D01*
X153800500Y-72900009D01*
X153800500Y-72899986D01*
X154600001Y-72899986D01*
X154610494Y-73002697D01*
X154665641Y-73169119D01*
X154665643Y-73169124D01*
X154757684Y-73318345D01*
X154881654Y-73442315D01*
X155030875Y-73534356D01*
X155030880Y-73534358D01*
X155197302Y-73589505D01*
X155197309Y-73589506D01*
X155300019Y-73599999D01*
X155424999Y-73599999D01*
X155425000Y-73599998D01*
X155425000Y-72450000D01*
X154600001Y-72450000D01*
X154600001Y-72899986D01*
X153800500Y-72899986D01*
X153800499Y-72199999D01*
X153800499Y-71500013D01*
X154600000Y-71500013D01*
X154600000Y-71950000D01*
X155425000Y-71950000D01*
X155425000Y-70800000D01*
X155300027Y-70800000D01*
X155300012Y-70800001D01*
X155197302Y-70810494D01*
X155030880Y-70865641D01*
X155030875Y-70865643D01*
X154881654Y-70957684D01*
X154757684Y-71081654D01*
X154665643Y-71230875D01*
X154665641Y-71230880D01*
X154610494Y-71397302D01*
X154610493Y-71397309D01*
X154600000Y-71500013D01*
X153800499Y-71500013D01*
X153800499Y-71499998D01*
X153800498Y-71499981D01*
X153789999Y-71397203D01*
X153789998Y-71397200D01*
X153778054Y-71361155D01*
X153734814Y-71230666D01*
X153642712Y-71081344D01*
X153518656Y-70957288D01*
X153392056Y-70879201D01*
X153369336Y-70865187D01*
X153369331Y-70865185D01*
X153367862Y-70864698D01*
X153202797Y-70810001D01*
X153202795Y-70810000D01*
X153100010Y-70799500D01*
X152349998Y-70799500D01*
X152349980Y-70799501D01*
X152247203Y-70810000D01*
X152247200Y-70810001D01*
X152080668Y-70865185D01*
X152080663Y-70865187D01*
X151931345Y-70957287D01*
X151813721Y-71074911D01*
X151752398Y-71108395D01*
X151682706Y-71103411D01*
X151638359Y-71074910D01*
X151542654Y-70979205D01*
X151542649Y-70979201D01*
X151338848Y-70831132D01*
X151338847Y-70831131D01*
X151338845Y-70831130D01*
X151258439Y-70790161D01*
X151188192Y-70754368D01*
X151137396Y-70706393D01*
X151120601Y-70638572D01*
X151143139Y-70572437D01*
X151188190Y-70533399D01*
X151286433Y-70483343D01*
X151477510Y-70344517D01*
X151585208Y-70236819D01*
X151646531Y-70203334D01*
X151672889Y-70200500D01*
X152423543Y-70200500D01*
X152469019Y-70191453D01*
X152539118Y-70177510D01*
X152616836Y-70162051D01*
X152670165Y-70139961D01*
X152798914Y-70086632D01*
X152962782Y-69977139D01*
X153102139Y-69837782D01*
X153102140Y-69837780D01*
X153103102Y-69836818D01*
X153164425Y-69803333D01*
X153190784Y-69800499D01*
X153500002Y-69800499D01*
X153500008Y-69800499D01*
X153602797Y-69789999D01*
X153769334Y-69734814D01*
X153918656Y-69642712D01*
X154042712Y-69518656D01*
X154134814Y-69369334D01*
X154189999Y-69202797D01*
X154200500Y-69100009D01*
X154200499Y-67699992D01*
X154200243Y-67697489D01*
X154189999Y-67597203D01*
X154189998Y-67597200D01*
X154166431Y-67526079D01*
X154134814Y-67430666D01*
X154042712Y-67281344D01*
X153918656Y-67157288D01*
X153809564Y-67090000D01*
X153769336Y-67065187D01*
X153769331Y-67065185D01*
X153755814Y-67060706D01*
X153602797Y-67010001D01*
X153602795Y-67010000D01*
X153500010Y-66999500D01*
X152749998Y-66999500D01*
X152749980Y-66999501D01*
X152647203Y-67010000D01*
X152647200Y-67010001D01*
X152480668Y-67065185D01*
X152480663Y-67065187D01*
X152331342Y-67157289D01*
X152207289Y-67281342D01*
X152115187Y-67430663D01*
X152115186Y-67430666D01*
X152060001Y-67597203D01*
X152060001Y-67597204D01*
X152060000Y-67597204D01*
X152049500Y-67699983D01*
X152049500Y-68009216D01*
X152040856Y-68038652D01*
X152034333Y-68068642D01*
X152030577Y-68073659D01*
X152029815Y-68076255D01*
X152013182Y-68096897D01*
X151946899Y-68163181D01*
X151885576Y-68196666D01*
X151859217Y-68199500D01*
X151672889Y-68199500D01*
X151605850Y-68179815D01*
X151585208Y-68163181D01*
X151477512Y-68055485D01*
X151477510Y-68055483D01*
X151286433Y-67916657D01*
X151075996Y-67809433D01*
X150851368Y-67736446D01*
X150618097Y-67699500D01*
X150618092Y-67699500D01*
X150381908Y-67699500D01*
X150381903Y-67699500D01*
X150148631Y-67736446D01*
X149924003Y-67809433D01*
X149713566Y-67916657D01*
X149604550Y-67995862D01*
X149522490Y-68055483D01*
X149522488Y-68055485D01*
X149522487Y-68055485D01*
X149355485Y-68222487D01*
X149355485Y-68222488D01*
X149355483Y-68222490D01*
X149305105Y-68291829D01*
X149216657Y-68413566D01*
X149109433Y-68624003D01*
X149036446Y-68848631D01*
X148999500Y-69081902D01*
X148999500Y-69318097D01*
X149036446Y-69551368D01*
X149109433Y-69775996D01*
X149208850Y-69971111D01*
X149216657Y-69986433D01*
X149355483Y-70177510D01*
X149522490Y-70344517D01*
X149575931Y-70383344D01*
X149713568Y-70483344D01*
X149811806Y-70533398D01*
X149862603Y-70581372D01*
X149879398Y-70649193D01*
X149856861Y-70715328D01*
X149811807Y-70754367D01*
X149661156Y-70831128D01*
X149661155Y-70831129D01*
X149457350Y-70979201D01*
X149457345Y-70979205D01*
X149279205Y-71157345D01*
X149279201Y-71157350D01*
X149131132Y-71361151D01*
X149016760Y-71585616D01*
X148938910Y-71825214D01*
X148899500Y-72074038D01*
X146812330Y-72074038D01*
X146867712Y-72018656D01*
X146959814Y-71869334D01*
X146961221Y-71865085D01*
X146967224Y-71855215D01*
X146988203Y-71836102D01*
X147006955Y-71814803D01*
X147013694Y-71812881D01*
X147018875Y-71808162D01*
X147046856Y-71803426D01*
X147074147Y-71795646D01*
X147082643Y-71797370D01*
X147087765Y-71796504D01*
X147096276Y-71800138D01*
X147120625Y-71805081D01*
X147229071Y-71850000D01*
X147258165Y-71862051D01*
X147258169Y-71862051D01*
X147258170Y-71862052D01*
X147451456Y-71900500D01*
X147451459Y-71900500D01*
X147648543Y-71900500D01*
X147805236Y-71869331D01*
X147841835Y-71862051D01*
X148023914Y-71786632D01*
X148187782Y-71677139D01*
X148327139Y-71537782D01*
X148399853Y-71428958D01*
X148436630Y-71373918D01*
X148436635Y-71373907D01*
X148455402Y-71328599D01*
X148512051Y-71191835D01*
X148538803Y-71057344D01*
X148550500Y-70998543D01*
X148550500Y-70801456D01*
X148512052Y-70608170D01*
X148512051Y-70608169D01*
X148512051Y-70608165D01*
X148463341Y-70490568D01*
X148436635Y-70426092D01*
X148436628Y-70426079D01*
X148327139Y-70262218D01*
X148327136Y-70262214D01*
X148187785Y-70122863D01*
X148187781Y-70122860D01*
X148023920Y-70013371D01*
X148023907Y-70013364D01*
X147841839Y-69937950D01*
X147841829Y-69937947D01*
X147648543Y-69899500D01*
X147648541Y-69899500D01*
X147451459Y-69899500D01*
X147451457Y-69899500D01*
X147258170Y-69937947D01*
X147258169Y-69937948D01*
X147258168Y-69937948D01*
X147258165Y-69937949D01*
X147179169Y-69970669D01*
X147120625Y-69994919D01*
X147051155Y-70002387D01*
X146988676Y-69971111D01*
X146963696Y-69936756D01*
X146963605Y-69936813D01*
X146962864Y-69935612D01*
X146960789Y-69932758D01*
X146959816Y-69930673D01*
X146959814Y-69930666D01*
X146867712Y-69781344D01*
X146743656Y-69657288D01*
X146594334Y-69565186D01*
X146427797Y-69510001D01*
X146427795Y-69510000D01*
X146325010Y-69499500D01*
X145574998Y-69499500D01*
X145574980Y-69499501D01*
X145472203Y-69510000D01*
X145472200Y-69510001D01*
X145305668Y-69565185D01*
X145305663Y-69565187D01*
X145156342Y-69657289D01*
X145032289Y-69781342D01*
X144940187Y-69930663D01*
X144940185Y-69930668D01*
X144918895Y-69994919D01*
X144885001Y-70097203D01*
X144885001Y-70097204D01*
X144885000Y-70097204D01*
X144874500Y-70199983D01*
X144075498Y-70199983D01*
X144073538Y-70180799D01*
X144064999Y-70097203D01*
X144064998Y-70097200D01*
X144058473Y-70077510D01*
X144009814Y-69930666D01*
X143917712Y-69781344D01*
X143911819Y-69775451D01*
X143897115Y-69748523D01*
X143880523Y-69722705D01*
X143879631Y-69716504D01*
X143878334Y-69714128D01*
X143875500Y-69687770D01*
X143875500Y-69499499D01*
X143895185Y-69432460D01*
X143947989Y-69386705D01*
X143999500Y-69375499D01*
X144437502Y-69375499D01*
X144437508Y-69375499D01*
X144540297Y-69364999D01*
X144706834Y-69309814D01*
X144856156Y-69217712D01*
X144980212Y-69093656D01*
X145072314Y-68944334D01*
X145127499Y-68777797D01*
X145138000Y-68675009D01*
X145137999Y-67324992D01*
X145127499Y-67222203D01*
X145072314Y-67055666D01*
X144980212Y-66906344D01*
X144856156Y-66782288D01*
X144706834Y-66690186D01*
X144540297Y-66635001D01*
X144540295Y-66635000D01*
X144437510Y-66624500D01*
X143712498Y-66624500D01*
X143712480Y-66624501D01*
X143609703Y-66635000D01*
X143609700Y-66635001D01*
X143443168Y-66690185D01*
X143443163Y-66690187D01*
X143293842Y-66782289D01*
X143169787Y-66906344D01*
X143092841Y-67031096D01*
X143040893Y-67077821D01*
X142987302Y-67090000D01*
X142237698Y-67090000D01*
X142170659Y-67070315D01*
X142132159Y-67031096D01*
X142055212Y-66906344D01*
X141931157Y-66782289D01*
X141931156Y-66782288D01*
X141781834Y-66690186D01*
X141615297Y-66635001D01*
X141615295Y-66635000D01*
X141512510Y-66624500D01*
X140787498Y-66624500D01*
X140787480Y-66624501D01*
X140684703Y-66635000D01*
X140684700Y-66635001D01*
X140518168Y-66690185D01*
X140518163Y-66690187D01*
X140368842Y-66782289D01*
X140244789Y-66906342D01*
X140244788Y-66906344D01*
X140163614Y-67037950D01*
X140148895Y-67061813D01*
X140147100Y-67060706D01*
X140142514Y-67065916D01*
X140135305Y-67081703D01*
X140119906Y-67091598D01*
X140107813Y-67105337D01*
X140090925Y-67110224D01*
X140076527Y-67119477D01*
X140041592Y-67124500D01*
X139825455Y-67124500D01*
X139778003Y-67115061D01*
X139591839Y-67037950D01*
X139591829Y-67037947D01*
X139398543Y-66999500D01*
X139398541Y-66999500D01*
X139201459Y-66999500D01*
X139201457Y-66999500D01*
X139008170Y-67037947D01*
X139008160Y-67037950D01*
X138826092Y-67113364D01*
X138826079Y-67113371D01*
X138662218Y-67222860D01*
X138662214Y-67222863D01*
X138522863Y-67362214D01*
X138522860Y-67362218D01*
X138413371Y-67526079D01*
X138413364Y-67526092D01*
X138337950Y-67708160D01*
X138337947Y-67708170D01*
X138299500Y-67901456D01*
X138299500Y-67901459D01*
X138299500Y-68098541D01*
X138299500Y-68098543D01*
X138299499Y-68098543D01*
X133820570Y-68098543D01*
X133677510Y-67955483D01*
X133486433Y-67816657D01*
X133472253Y-67809432D01*
X133275996Y-67709433D01*
X133051368Y-67636446D01*
X132818097Y-67599500D01*
X132818092Y-67599500D01*
X132581908Y-67599500D01*
X132581903Y-67599500D01*
X132348631Y-67636446D01*
X132124003Y-67709433D01*
X131913566Y-67816657D01*
X131837157Y-67872172D01*
X131722490Y-67955483D01*
X131722488Y-67955485D01*
X131722487Y-67955485D01*
X131555485Y-68122487D01*
X131555485Y-68122488D01*
X131555483Y-68122490D01*
X131504728Y-68192348D01*
X131416657Y-68313566D01*
X131309433Y-68524003D01*
X131236446Y-68748631D01*
X131199500Y-68981902D01*
X131199500Y-69218097D01*
X131236446Y-69451368D01*
X131309433Y-69675996D01*
X131367521Y-69789999D01*
X131416657Y-69886433D01*
X131555483Y-70077510D01*
X131722490Y-70244517D01*
X131843120Y-70332160D01*
X131913568Y-70383344D01*
X132011806Y-70433398D01*
X132062603Y-70481372D01*
X132079398Y-70549193D01*
X132056861Y-70615328D01*
X132011807Y-70654367D01*
X131861156Y-70731128D01*
X131861155Y-70731129D01*
X131657351Y-70879200D01*
X131519206Y-71017345D01*
X131457883Y-71050829D01*
X131388191Y-71045845D01*
X131332258Y-71003973D01*
X131325993Y-70994770D01*
X131317712Y-70981344D01*
X131193656Y-70857288D01*
X131044334Y-70765186D01*
X130877797Y-70710001D01*
X130877795Y-70710000D01*
X130775010Y-70699500D01*
X130024998Y-70699500D01*
X130024980Y-70699501D01*
X129922203Y-70710000D01*
X129922200Y-70710001D01*
X129755668Y-70765185D01*
X129755663Y-70765187D01*
X129606342Y-70857289D01*
X129482287Y-70981344D01*
X129405341Y-71106096D01*
X129353393Y-71152821D01*
X129299802Y-71165000D01*
X128549611Y-71165000D01*
X128482572Y-71145315D01*
X128444072Y-71106097D01*
X128367315Y-70981654D01*
X128243345Y-70857684D01*
X128094124Y-70765643D01*
X128094119Y-70765641D01*
X127927697Y-70710494D01*
X127927690Y-70710493D01*
X127824986Y-70700000D01*
X127700000Y-70700000D01*
X127200000Y-70700000D01*
X127075027Y-70700000D01*
X127075012Y-70700001D01*
X126972302Y-70710494D01*
X126805880Y-70765641D01*
X126805875Y-70765643D01*
X126656654Y-70857684D01*
X126532684Y-70981654D01*
X126440643Y-71130875D01*
X126440641Y-71130880D01*
X126385494Y-71297302D01*
X126385493Y-71297309D01*
X126375000Y-71400013D01*
X110166128Y-71400013D01*
X110158129Y-71370162D01*
X110067839Y-71152180D01*
X110067834Y-71152171D01*
X109949855Y-70947828D01*
X109949854Y-70947827D01*
X109887277Y-70866275D01*
X109165846Y-71587705D01*
X109158951Y-71571058D01*
X109071401Y-71440030D01*
X108959970Y-71328599D01*
X108828942Y-71241049D01*
X108812292Y-71234152D01*
X109533723Y-70512721D01*
X109452172Y-70450145D01*
X109452171Y-70450144D01*
X109247828Y-70332165D01*
X109247819Y-70332160D01*
X109029836Y-70241870D01*
X109029838Y-70241870D01*
X108801914Y-70180799D01*
X108567985Y-70150000D01*
X108332014Y-70150000D01*
X108098085Y-70180799D01*
X107870162Y-70241870D01*
X107731286Y-70299394D01*
X107661817Y-70306863D01*
X107599338Y-70275587D01*
X107563686Y-70215498D01*
X107566180Y-70145673D01*
X107576449Y-70122830D01*
X107583344Y-70110888D01*
X107671158Y-69898887D01*
X107730548Y-69677238D01*
X107760500Y-69449734D01*
X107760500Y-69220266D01*
X107760163Y-69217710D01*
X107757391Y-69196651D01*
X107730548Y-68992762D01*
X107727638Y-68981902D01*
X124199500Y-68981902D01*
X124199500Y-69218097D01*
X124236446Y-69451368D01*
X124309433Y-69675996D01*
X124367521Y-69789999D01*
X124416657Y-69886433D01*
X124555483Y-70077510D01*
X124722490Y-70244517D01*
X124913567Y-70383343D01*
X124997441Y-70426079D01*
X125124003Y-70490566D01*
X125124005Y-70490566D01*
X125124008Y-70490568D01*
X125192185Y-70512720D01*
X125348631Y-70563553D01*
X125581903Y-70600500D01*
X125581908Y-70600500D01*
X125818097Y-70600500D01*
X126051368Y-70563553D01*
X126095563Y-70549193D01*
X126275992Y-70490568D01*
X126486433Y-70383343D01*
X126677510Y-70244517D01*
X126844517Y-70077510D01*
X126983343Y-69886433D01*
X127090568Y-69675992D01*
X127163553Y-69451368D01*
X127175569Y-69375500D01*
X127200500Y-69218097D01*
X127200500Y-68981902D01*
X127163553Y-68748631D01*
X127127996Y-68639200D01*
X127090568Y-68524008D01*
X127090566Y-68524005D01*
X127090566Y-68524003D01*
X127012023Y-68369855D01*
X126983343Y-68313567D01*
X126844517Y-68122490D01*
X126677510Y-67955483D01*
X126486433Y-67816657D01*
X126472253Y-67809432D01*
X126275996Y-67709433D01*
X126051368Y-67636446D01*
X125818097Y-67599500D01*
X125818092Y-67599500D01*
X125581908Y-67599500D01*
X125581903Y-67599500D01*
X125348631Y-67636446D01*
X125124003Y-67709433D01*
X124913566Y-67816657D01*
X124837157Y-67872172D01*
X124722490Y-67955483D01*
X124722488Y-67955485D01*
X124722487Y-67955485D01*
X124555485Y-68122487D01*
X124555485Y-68122488D01*
X124555483Y-68122490D01*
X124504728Y-68192348D01*
X124416657Y-68313566D01*
X124309433Y-68524003D01*
X124236446Y-68748631D01*
X124199500Y-68981902D01*
X107727638Y-68981902D01*
X107671158Y-68771113D01*
X107648010Y-68715230D01*
X107640542Y-68645763D01*
X107671817Y-68583284D01*
X107731906Y-68547632D01*
X107801731Y-68550126D01*
X107810025Y-68553219D01*
X107870165Y-68578130D01*
X108098085Y-68639200D01*
X108332014Y-68669999D01*
X108332029Y-68670000D01*
X108567971Y-68670000D01*
X108567985Y-68669999D01*
X108801914Y-68639200D01*
X109029837Y-68578129D01*
X109247819Y-68487839D01*
X109247828Y-68487834D01*
X109452181Y-68369850D01*
X109533723Y-68307279D01*
X109533723Y-68307276D01*
X108812293Y-67585847D01*
X108828942Y-67578951D01*
X108959970Y-67491401D01*
X109071401Y-67379970D01*
X109158951Y-67248942D01*
X109165846Y-67232293D01*
X109887276Y-67953723D01*
X109887279Y-67953723D01*
X109949850Y-67872181D01*
X110067834Y-67667828D01*
X110067839Y-67667819D01*
X110158129Y-67449837D01*
X110219200Y-67221914D01*
X110249999Y-66987985D01*
X110250000Y-66987971D01*
X110250000Y-66752028D01*
X110249999Y-66752014D01*
X110219200Y-66518085D01*
X110158129Y-66290162D01*
X110067839Y-66072180D01*
X110067834Y-66072171D01*
X109949855Y-65867828D01*
X109949854Y-65867827D01*
X109887277Y-65786275D01*
X109165846Y-66507705D01*
X109158951Y-66491058D01*
X109071401Y-66360030D01*
X108959970Y-66248599D01*
X108828942Y-66161049D01*
X108812293Y-66154152D01*
X109533723Y-65432721D01*
X109452172Y-65370145D01*
X109452171Y-65370144D01*
X109247828Y-65252165D01*
X109247819Y-65252160D01*
X109029836Y-65161870D01*
X109029838Y-65161870D01*
X108801914Y-65100799D01*
X108567985Y-65070000D01*
X108332014Y-65070000D01*
X108098085Y-65100799D01*
X107870162Y-65161870D01*
X107652180Y-65252160D01*
X107652171Y-65252165D01*
X107447828Y-65370144D01*
X107447818Y-65370150D01*
X107366275Y-65432720D01*
X107366275Y-65432721D01*
X108087706Y-66154152D01*
X108071058Y-66161049D01*
X107940030Y-66248599D01*
X107828599Y-66360030D01*
X107741049Y-66491058D01*
X107734152Y-66507706D01*
X107012721Y-65786275D01*
X107012720Y-65786275D01*
X106950150Y-65867818D01*
X106950144Y-65867828D01*
X106832165Y-66072171D01*
X106832160Y-66072180D01*
X106741870Y-66290162D01*
X106680799Y-66518085D01*
X106650000Y-66752014D01*
X106650000Y-66987985D01*
X106680799Y-67221914D01*
X106741870Y-67449837D01*
X106774102Y-67527653D01*
X106781571Y-67597123D01*
X106750295Y-67659602D01*
X106690206Y-67695253D01*
X106620381Y-67692759D01*
X106612101Y-67689671D01*
X106573887Y-67673842D01*
X106573885Y-67673841D01*
X106573884Y-67673841D01*
X106465070Y-67644685D01*
X106352238Y-67614452D01*
X106314215Y-67609446D01*
X106124741Y-67584500D01*
X106124734Y-67584500D01*
X105895266Y-67584500D01*
X105895258Y-67584500D01*
X105678715Y-67613009D01*
X105667762Y-67614452D01*
X105628396Y-67625000D01*
X105446112Y-67673842D01*
X105234123Y-67761650D01*
X105234106Y-67761659D01*
X105175696Y-67795381D01*
X105107796Y-67811852D01*
X105041769Y-67788999D01*
X104998580Y-67734077D01*
X104991939Y-67664524D01*
X104999137Y-67640540D01*
X105078130Y-67449834D01*
X105139200Y-67221914D01*
X105169999Y-66987985D01*
X105170000Y-66987971D01*
X105170000Y-66752028D01*
X105169999Y-66752014D01*
X105139200Y-66518085D01*
X105078129Y-66290162D01*
X104987839Y-66072180D01*
X104987834Y-66072171D01*
X104869855Y-65867828D01*
X104869854Y-65867827D01*
X104807277Y-65786275D01*
X104085846Y-66507706D01*
X104078951Y-66491058D01*
X103991401Y-66360030D01*
X103879970Y-66248599D01*
X103748942Y-66161049D01*
X103732293Y-66154152D01*
X104453723Y-65432721D01*
X104372172Y-65370145D01*
X104372171Y-65370144D01*
X104167828Y-65252165D01*
X104167819Y-65252160D01*
X103949836Y-65161870D01*
X103949838Y-65161870D01*
X103721914Y-65100799D01*
X103487985Y-65070000D01*
X103252014Y-65070000D01*
X103018085Y-65100799D01*
X102790162Y-65161870D01*
X102572180Y-65252160D01*
X102572171Y-65252165D01*
X102367828Y-65370144D01*
X102367818Y-65370150D01*
X102286275Y-65432720D01*
X102286275Y-65432721D01*
X103007706Y-66154152D01*
X102991058Y-66161049D01*
X102860030Y-66248599D01*
X102748599Y-66360030D01*
X102661049Y-66491058D01*
X102654152Y-66507706D01*
X101932721Y-65786275D01*
X101932720Y-65786275D01*
X101870150Y-65867818D01*
X101870144Y-65867828D01*
X101752165Y-66072171D01*
X101752160Y-66072180D01*
X101661870Y-66290162D01*
X101600799Y-66518085D01*
X101570000Y-66752014D01*
X100500500Y-66752014D01*
X100500500Y-54814437D01*
X100750000Y-54814437D01*
X100750000Y-55185562D01*
X100782345Y-55555267D01*
X100782345Y-55555271D01*
X100846787Y-55920735D01*
X100846791Y-55920752D01*
X100942837Y-56279206D01*
X101069775Y-56627963D01*
X101226607Y-56964292D01*
X101226615Y-56964307D01*
X101412166Y-57285690D01*
X101412175Y-57285705D01*
X101625040Y-57589707D01*
X101822005Y-57824439D01*
X101822006Y-57824440D01*
X103313098Y-56333348D01*
X103380076Y-56420635D01*
X103579365Y-56619924D01*
X103666650Y-56686900D01*
X102175558Y-58177992D01*
X102175559Y-58177993D01*
X102410292Y-58374959D01*
X102714294Y-58587824D01*
X102714309Y-58587833D01*
X103035692Y-58773384D01*
X103035707Y-58773392D01*
X103372036Y-58930224D01*
X103720793Y-59057162D01*
X104079247Y-59153208D01*
X104079264Y-59153212D01*
X104444730Y-59217654D01*
X104814437Y-59249999D01*
X104814440Y-59250000D01*
X105185560Y-59250000D01*
X105185562Y-59249999D01*
X105555267Y-59217654D01*
X105555271Y-59217654D01*
X105920735Y-59153212D01*
X105920752Y-59153208D01*
X106279206Y-59057162D01*
X106627963Y-58930224D01*
X106964292Y-58773392D01*
X106964307Y-58773384D01*
X107285690Y-58587833D01*
X107285705Y-58587824D01*
X107589700Y-58374964D01*
X107824439Y-58177993D01*
X107824440Y-58177992D01*
X106333348Y-56686901D01*
X106420635Y-56619924D01*
X106619924Y-56420635D01*
X106686900Y-56333348D01*
X108177992Y-57824440D01*
X108177993Y-57824439D01*
X108223994Y-57769619D01*
X108374964Y-57589700D01*
X108587824Y-57285705D01*
X108587833Y-57285690D01*
X108773384Y-56964307D01*
X108773392Y-56964292D01*
X108930224Y-56627963D01*
X109034302Y-56342014D01*
X150660000Y-56342014D01*
X150660000Y-56577985D01*
X150690799Y-56811914D01*
X150751870Y-57039837D01*
X150842160Y-57257819D01*
X150842165Y-57257828D01*
X150960144Y-57462171D01*
X150960145Y-57462172D01*
X151022721Y-57543723D01*
X151744152Y-56822292D01*
X151751049Y-56838942D01*
X151838599Y-56969970D01*
X151950030Y-57081401D01*
X152081058Y-57168951D01*
X152097706Y-57175846D01*
X151376275Y-57897277D01*
X151457827Y-57959854D01*
X151457828Y-57959855D01*
X151662171Y-58077834D01*
X151662180Y-58077839D01*
X151880163Y-58168129D01*
X151880161Y-58168129D01*
X152108085Y-58229200D01*
X152342014Y-58259999D01*
X152342029Y-58260000D01*
X152577971Y-58260000D01*
X152577985Y-58259999D01*
X152811914Y-58229200D01*
X153039837Y-58168129D01*
X153257819Y-58077839D01*
X153257828Y-58077834D01*
X153333602Y-58034086D01*
X153401502Y-58017613D01*
X153467529Y-58040465D01*
X153510720Y-58095386D01*
X153517362Y-58164939D01*
X153510164Y-58188925D01*
X153438842Y-58361111D01*
X153438842Y-58361112D01*
X153379453Y-58582759D01*
X153379451Y-58582770D01*
X153349500Y-58810258D01*
X153349500Y-59039741D01*
X153351794Y-59057162D01*
X153379452Y-59267238D01*
X153379453Y-59267240D01*
X153438842Y-59488887D01*
X153526650Y-59700876D01*
X153526656Y-59700888D01*
X153602278Y-59831870D01*
X153621315Y-59864842D01*
X153637788Y-59932742D01*
X153614935Y-59998769D01*
X153560014Y-60041960D01*
X153490461Y-60048601D01*
X153451928Y-60034229D01*
X153257835Y-59922168D01*
X153257819Y-59922160D01*
X153039836Y-59831870D01*
X153039838Y-59831870D01*
X152811914Y-59770799D01*
X152577985Y-59740000D01*
X152342014Y-59740000D01*
X152108085Y-59770799D01*
X151880162Y-59831870D01*
X151662180Y-59922160D01*
X151662171Y-59922165D01*
X151457828Y-60040144D01*
X151457818Y-60040150D01*
X151376275Y-60102720D01*
X151376275Y-60102721D01*
X152097706Y-60824152D01*
X152081058Y-60831049D01*
X151950030Y-60918599D01*
X151838599Y-61030030D01*
X151751049Y-61161058D01*
X151744152Y-61177706D01*
X151022721Y-60456275D01*
X151022720Y-60456275D01*
X150960150Y-60537818D01*
X150960144Y-60537828D01*
X150842165Y-60742171D01*
X150842160Y-60742180D01*
X150751870Y-60960162D01*
X150690799Y-61188085D01*
X150660000Y-61422014D01*
X150660000Y-61657985D01*
X150690799Y-61891914D01*
X150751870Y-62119837D01*
X150842160Y-62337819D01*
X150842165Y-62337828D01*
X150960144Y-62542171D01*
X150960145Y-62542172D01*
X151022721Y-62623723D01*
X151744152Y-61902292D01*
X151751049Y-61918942D01*
X151838599Y-62049970D01*
X151950030Y-62161401D01*
X152081058Y-62248951D01*
X152097706Y-62255846D01*
X151376275Y-62977277D01*
X151457827Y-63039854D01*
X151457828Y-63039855D01*
X151662171Y-63157834D01*
X151662180Y-63157839D01*
X151880163Y-63248129D01*
X151880161Y-63248129D01*
X152108085Y-63309200D01*
X152342014Y-63339999D01*
X152342029Y-63340000D01*
X152577971Y-63340000D01*
X152577985Y-63339999D01*
X152811914Y-63309200D01*
X153039837Y-63248129D01*
X153257819Y-63157839D01*
X153257828Y-63157834D01*
X153462181Y-63039850D01*
X153543723Y-62977279D01*
X153543723Y-62977276D01*
X152822293Y-62255847D01*
X152838942Y-62248951D01*
X152969970Y-62161401D01*
X153081401Y-62049970D01*
X153168951Y-61918942D01*
X153175847Y-61902293D01*
X153897276Y-62623723D01*
X153897279Y-62623723D01*
X153959850Y-62542181D01*
X154077834Y-62337828D01*
X154077839Y-62337819D01*
X154168129Y-62119837D01*
X154229200Y-61891914D01*
X154259999Y-61657985D01*
X154260000Y-61657971D01*
X154260000Y-61422028D01*
X154259999Y-61422014D01*
X154229200Y-61188085D01*
X154168129Y-60960162D01*
X154077839Y-60742180D01*
X154077834Y-60742171D01*
X153974920Y-60563921D01*
X153958447Y-60496021D01*
X153981299Y-60429994D01*
X154036220Y-60386803D01*
X154105773Y-60380161D01*
X154144302Y-60394531D01*
X154324112Y-60498344D01*
X154324117Y-60498346D01*
X154324123Y-60498349D01*
X154397721Y-60528834D01*
X154536113Y-60586158D01*
X154757762Y-60645548D01*
X154985266Y-60675500D01*
X154985273Y-60675500D01*
X155214727Y-60675500D01*
X155214734Y-60675500D01*
X155442238Y-60645548D01*
X155663887Y-60586158D01*
X155784247Y-60536302D01*
X155853714Y-60528834D01*
X155916194Y-60560109D01*
X155951846Y-60620198D01*
X155949353Y-60690023D01*
X155939086Y-60712863D01*
X155922166Y-60742169D01*
X155922160Y-60742180D01*
X155831870Y-60960162D01*
X155770799Y-61188085D01*
X155740000Y-61422014D01*
X155740000Y-61657985D01*
X155770799Y-61891914D01*
X155831870Y-62119837D01*
X155922160Y-62337819D01*
X155922165Y-62337828D01*
X156040144Y-62542171D01*
X156040145Y-62542172D01*
X156102721Y-62623723D01*
X156824152Y-61902291D01*
X156831049Y-61918942D01*
X156918599Y-62049970D01*
X157030030Y-62161401D01*
X157161058Y-62248951D01*
X157177706Y-62255846D01*
X156456275Y-62977277D01*
X156537827Y-63039854D01*
X156537828Y-63039855D01*
X156742171Y-63157834D01*
X156742180Y-63157839D01*
X156960163Y-63248129D01*
X156960161Y-63248129D01*
X157188085Y-63309200D01*
X157422014Y-63339999D01*
X157422029Y-63340000D01*
X157657971Y-63340000D01*
X157657985Y-63339999D01*
X157891914Y-63309200D01*
X158119837Y-63248129D01*
X158337819Y-63157839D01*
X158337828Y-63157834D01*
X158542181Y-63039850D01*
X158623723Y-62977279D01*
X158623723Y-62977276D01*
X157902293Y-62255847D01*
X157918942Y-62248951D01*
X158049970Y-62161401D01*
X158161401Y-62049970D01*
X158248951Y-61918942D01*
X158255846Y-61902293D01*
X158977276Y-62623723D01*
X158977279Y-62623723D01*
X159039850Y-62542181D01*
X159157834Y-62337828D01*
X159157839Y-62337819D01*
X159248129Y-62119837D01*
X159309200Y-61891914D01*
X159339999Y-61657985D01*
X159340000Y-61657971D01*
X159340000Y-61422028D01*
X159339999Y-61422014D01*
X159309200Y-61188085D01*
X159248129Y-60960162D01*
X159157839Y-60742180D01*
X159157834Y-60742171D01*
X159039855Y-60537828D01*
X159039849Y-60537819D01*
X158914904Y-60374986D01*
X158909783Y-60361740D01*
X158900486Y-60351011D01*
X158897436Y-60329803D01*
X158889710Y-60309817D01*
X158892562Y-60295908D01*
X158890542Y-60281853D01*
X158899444Y-60262360D01*
X158903749Y-60241372D01*
X158913667Y-60231214D01*
X158919567Y-60218297D01*
X158937593Y-60206712D01*
X158952563Y-60191382D01*
X158967546Y-60187462D01*
X158978345Y-60180523D01*
X159013280Y-60175500D01*
X159055664Y-60175500D01*
X159122703Y-60195185D01*
X159143345Y-60211819D01*
X164213181Y-65281655D01*
X164246666Y-65342978D01*
X164249500Y-65369336D01*
X164249500Y-68328072D01*
X164229815Y-68395111D01*
X164225820Y-68400954D01*
X164216660Y-68413561D01*
X164216656Y-68413568D01*
X164109433Y-68624003D01*
X164036446Y-68848631D01*
X163999500Y-69081902D01*
X163999500Y-69318097D01*
X164036446Y-69551368D01*
X164109433Y-69775996D01*
X164208850Y-69971111D01*
X164216657Y-69986433D01*
X164355483Y-70177510D01*
X164522490Y-70344517D01*
X164713567Y-70483343D01*
X164771223Y-70512720D01*
X164924003Y-70590566D01*
X164924005Y-70590566D01*
X164924008Y-70590568D01*
X165044412Y-70629689D01*
X165148631Y-70663553D01*
X165381903Y-70700500D01*
X165381908Y-70700500D01*
X165618097Y-70700500D01*
X165851368Y-70663553D01*
X165879636Y-70654368D01*
X166075992Y-70590568D01*
X166286433Y-70483343D01*
X166477510Y-70344517D01*
X166644517Y-70177510D01*
X166783343Y-69986433D01*
X166890568Y-69775992D01*
X166963553Y-69551368D01*
X166971768Y-69499499D01*
X167000500Y-69318097D01*
X167000500Y-69081902D01*
X166963553Y-68848631D01*
X166920209Y-68715233D01*
X166890568Y-68624008D01*
X166890566Y-68624005D01*
X166890566Y-68624003D01*
X166802143Y-68450465D01*
X166783343Y-68413567D01*
X166782334Y-68412178D01*
X166774180Y-68400954D01*
X166750702Y-68335147D01*
X166750500Y-68328072D01*
X166750500Y-64701577D01*
X166732586Y-64588483D01*
X166719709Y-64507174D01*
X166719708Y-64507170D01*
X166719708Y-64507169D01*
X166660391Y-64324612D01*
X166659329Y-64320847D01*
X166569523Y-64144594D01*
X166453829Y-63985355D01*
X160439646Y-57971172D01*
X160280405Y-57855476D01*
X160105030Y-57766117D01*
X159917826Y-57705290D01*
X159723422Y-57674500D01*
X159723417Y-57674500D01*
X159128378Y-57674500D01*
X159061339Y-57654815D01*
X159015584Y-57602011D01*
X159005640Y-57532853D01*
X159030003Y-57475013D01*
X159039848Y-57462182D01*
X159039855Y-57462171D01*
X159157834Y-57257828D01*
X159157839Y-57257819D01*
X159248129Y-57039837D01*
X159309200Y-56811914D01*
X159339999Y-56577985D01*
X159340000Y-56577971D01*
X159340000Y-56342028D01*
X159339999Y-56342014D01*
X159309200Y-56108085D01*
X159248129Y-55880162D01*
X159157839Y-55662180D01*
X159157834Y-55662171D01*
X159039855Y-55457828D01*
X159039854Y-55457827D01*
X158977277Y-55376275D01*
X158255846Y-56097705D01*
X158248951Y-56081058D01*
X158161401Y-55950030D01*
X158049970Y-55838599D01*
X157918942Y-55751049D01*
X157902293Y-55744152D01*
X158623723Y-55022721D01*
X158542172Y-54960145D01*
X158542171Y-54960144D01*
X158471120Y-54919122D01*
X158337828Y-54842165D01*
X158337819Y-54842160D01*
X158270889Y-54814437D01*
X160750000Y-54814437D01*
X160750000Y-55185562D01*
X160782345Y-55555267D01*
X160782345Y-55555271D01*
X160846787Y-55920735D01*
X160846791Y-55920752D01*
X160942837Y-56279206D01*
X161069775Y-56627963D01*
X161226607Y-56964292D01*
X161226615Y-56964307D01*
X161412166Y-57285690D01*
X161412175Y-57285705D01*
X161625040Y-57589707D01*
X161822005Y-57824439D01*
X161822006Y-57824440D01*
X163313098Y-56333348D01*
X163380076Y-56420635D01*
X163579365Y-56619924D01*
X163666650Y-56686900D01*
X162175558Y-58177992D01*
X162175559Y-58177993D01*
X162410292Y-58374959D01*
X162714294Y-58587824D01*
X162714309Y-58587833D01*
X163035692Y-58773384D01*
X163035707Y-58773392D01*
X163372036Y-58930224D01*
X163720793Y-59057162D01*
X164079247Y-59153208D01*
X164079264Y-59153212D01*
X164444730Y-59217654D01*
X164814437Y-59249999D01*
X164814440Y-59250000D01*
X165185560Y-59250000D01*
X165185562Y-59249999D01*
X165555267Y-59217654D01*
X165555271Y-59217654D01*
X165920735Y-59153212D01*
X165920752Y-59153208D01*
X166279206Y-59057162D01*
X166627963Y-58930224D01*
X166964292Y-58773392D01*
X166964307Y-58773384D01*
X167285690Y-58587833D01*
X167285705Y-58587824D01*
X167589700Y-58374964D01*
X167824439Y-58177993D01*
X167824440Y-58177992D01*
X166333348Y-56686901D01*
X166420635Y-56619924D01*
X166619924Y-56420635D01*
X166686900Y-56333348D01*
X168177992Y-57824440D01*
X168177993Y-57824439D01*
X168374964Y-57589700D01*
X168587824Y-57285705D01*
X168587833Y-57285690D01*
X168773384Y-56964307D01*
X168773392Y-56964292D01*
X168930224Y-56627963D01*
X169057162Y-56279206D01*
X169153208Y-55920752D01*
X169153212Y-55920735D01*
X169217654Y-55555271D01*
X169217654Y-55555267D01*
X169249999Y-55185562D01*
X169250000Y-55185560D01*
X169250000Y-54814440D01*
X169249999Y-54814437D01*
X169217654Y-54444732D01*
X169217654Y-54444728D01*
X169153212Y-54079264D01*
X169153208Y-54079247D01*
X169057162Y-53720793D01*
X168930224Y-53372036D01*
X168773392Y-53035707D01*
X168773384Y-53035692D01*
X168587833Y-52714309D01*
X168587824Y-52714294D01*
X168374959Y-52410292D01*
X168177993Y-52175559D01*
X168177992Y-52175558D01*
X166686900Y-53666650D01*
X166619924Y-53579365D01*
X166420635Y-53380076D01*
X166333347Y-53313098D01*
X167824440Y-51822006D01*
X167824439Y-51822005D01*
X167589707Y-51625040D01*
X167285705Y-51412175D01*
X167285690Y-51412166D01*
X166964307Y-51226615D01*
X166964292Y-51226607D01*
X166627963Y-51069775D01*
X166279206Y-50942837D01*
X165920752Y-50846791D01*
X165920735Y-50846787D01*
X165555269Y-50782345D01*
X165185562Y-50750000D01*
X164814437Y-50750000D01*
X164444732Y-50782345D01*
X164444728Y-50782345D01*
X164079264Y-50846787D01*
X164079247Y-50846791D01*
X163720793Y-50942837D01*
X163372036Y-51069775D01*
X163035707Y-51226607D01*
X163035692Y-51226615D01*
X162714309Y-51412166D01*
X162714294Y-51412175D01*
X162410292Y-51625040D01*
X162175559Y-51822005D01*
X162175558Y-51822006D01*
X163666651Y-53313098D01*
X163579365Y-53380076D01*
X163380076Y-53579365D01*
X163313098Y-53666651D01*
X161822006Y-52175558D01*
X161822005Y-52175559D01*
X161625040Y-52410292D01*
X161412175Y-52714294D01*
X161412166Y-52714309D01*
X161226615Y-53035692D01*
X161226607Y-53035707D01*
X161069775Y-53372036D01*
X160942837Y-53720793D01*
X160846791Y-54079247D01*
X160846787Y-54079264D01*
X160782345Y-54444728D01*
X160782345Y-54444732D01*
X160750000Y-54814437D01*
X158270889Y-54814437D01*
X158119836Y-54751870D01*
X158119838Y-54751870D01*
X157891914Y-54690799D01*
X157657985Y-54660000D01*
X157422014Y-54660000D01*
X157188085Y-54690799D01*
X156960162Y-54751870D01*
X156742180Y-54842160D01*
X156742171Y-54842165D01*
X156537828Y-54960144D01*
X156537818Y-54960150D01*
X156456275Y-55022720D01*
X156456275Y-55022721D01*
X157177706Y-55744152D01*
X157161058Y-55751049D01*
X157030030Y-55838599D01*
X156918599Y-55950030D01*
X156831049Y-56081058D01*
X156824152Y-56097706D01*
X156102721Y-55376275D01*
X156102720Y-55376275D01*
X156040150Y-55457818D01*
X156040144Y-55457828D01*
X155922165Y-55662171D01*
X155922160Y-55662180D01*
X155831870Y-55880162D01*
X155770799Y-56108085D01*
X155740000Y-56342014D01*
X155740000Y-56577985D01*
X155770799Y-56811914D01*
X155831870Y-57039837D01*
X155864102Y-57117653D01*
X155871571Y-57187123D01*
X155840295Y-57249602D01*
X155780206Y-57285253D01*
X155710381Y-57282759D01*
X155702101Y-57279671D01*
X155663887Y-57263842D01*
X155663885Y-57263841D01*
X155663884Y-57263841D01*
X155598035Y-57246197D01*
X155442238Y-57204452D01*
X155404215Y-57199446D01*
X155214741Y-57174500D01*
X155214734Y-57174500D01*
X154985266Y-57174500D01*
X154985258Y-57174500D01*
X154768715Y-57203009D01*
X154757762Y-57204452D01*
X154665187Y-57229257D01*
X154536112Y-57263842D01*
X154324123Y-57351650D01*
X154324106Y-57351659D01*
X154265696Y-57385381D01*
X154197796Y-57401852D01*
X154131769Y-57378999D01*
X154088580Y-57324077D01*
X154081939Y-57254524D01*
X154089137Y-57230540D01*
X154168130Y-57039834D01*
X154229200Y-56811914D01*
X154259999Y-56577985D01*
X154260000Y-56577971D01*
X154260000Y-56342028D01*
X154259999Y-56342014D01*
X154229200Y-56108085D01*
X154168129Y-55880162D01*
X154077839Y-55662180D01*
X154077834Y-55662171D01*
X153959855Y-55457828D01*
X153959854Y-55457827D01*
X153897277Y-55376275D01*
X153175846Y-56097706D01*
X153168951Y-56081058D01*
X153081401Y-55950030D01*
X152969970Y-55838599D01*
X152838942Y-55751049D01*
X152822293Y-55744152D01*
X153543723Y-55022721D01*
X153462172Y-54960145D01*
X153462171Y-54960144D01*
X153257828Y-54842165D01*
X153257819Y-54842160D01*
X153039836Y-54751870D01*
X153039838Y-54751870D01*
X152811914Y-54690799D01*
X152577985Y-54660000D01*
X152342014Y-54660000D01*
X152108085Y-54690799D01*
X151880162Y-54751870D01*
X151662180Y-54842160D01*
X151662171Y-54842165D01*
X151457828Y-54960144D01*
X151457818Y-54960150D01*
X151376275Y-55022720D01*
X151376275Y-55022721D01*
X152097706Y-55744152D01*
X152081058Y-55751049D01*
X151950030Y-55838599D01*
X151838599Y-55950030D01*
X151751049Y-56081058D01*
X151744152Y-56097706D01*
X151022721Y-55376275D01*
X151022720Y-55376275D01*
X150960150Y-55457818D01*
X150960144Y-55457828D01*
X150842165Y-55662171D01*
X150842160Y-55662180D01*
X150751870Y-55880162D01*
X150690799Y-56108085D01*
X150660000Y-56342014D01*
X109034302Y-56342014D01*
X109051213Y-56295552D01*
X109051213Y-56295551D01*
X109057161Y-56279210D01*
X109153208Y-55920752D01*
X109153212Y-55920735D01*
X109217654Y-55555271D01*
X109217654Y-55555267D01*
X109249999Y-55185562D01*
X109250000Y-55185560D01*
X109250000Y-54814440D01*
X109249999Y-54814437D01*
X109217654Y-54444732D01*
X109217654Y-54444728D01*
X109153212Y-54079264D01*
X109153208Y-54079247D01*
X109057162Y-53720793D01*
X108930224Y-53372036D01*
X108773392Y-53035707D01*
X108773384Y-53035692D01*
X108587833Y-52714309D01*
X108587824Y-52714294D01*
X108374959Y-52410292D01*
X108177993Y-52175559D01*
X108177992Y-52175558D01*
X106686900Y-53666650D01*
X106619924Y-53579365D01*
X106420635Y-53380076D01*
X106333347Y-53313098D01*
X107824440Y-51822006D01*
X107824439Y-51822005D01*
X107589707Y-51625040D01*
X107285705Y-51412175D01*
X107285690Y-51412166D01*
X106964307Y-51226615D01*
X106964292Y-51226607D01*
X106627963Y-51069775D01*
X106279206Y-50942837D01*
X105920752Y-50846791D01*
X105920735Y-50846787D01*
X105555269Y-50782345D01*
X105185562Y-50750000D01*
X104814437Y-50750000D01*
X104444732Y-50782345D01*
X104444728Y-50782345D01*
X104079264Y-50846787D01*
X104079247Y-50846791D01*
X103720793Y-50942837D01*
X103372036Y-51069775D01*
X103035707Y-51226607D01*
X103035692Y-51226615D01*
X102714309Y-51412166D01*
X102714294Y-51412175D01*
X102410292Y-51625040D01*
X102175559Y-51822005D01*
X102175558Y-51822006D01*
X103666651Y-53313098D01*
X103579365Y-53380076D01*
X103380076Y-53579365D01*
X103313098Y-53666651D01*
X101822006Y-52175558D01*
X101822005Y-52175559D01*
X101625040Y-52410292D01*
X101412175Y-52714294D01*
X101412166Y-52714309D01*
X101226615Y-53035692D01*
X101226607Y-53035707D01*
X101069775Y-53372036D01*
X100942837Y-53720793D01*
X100846791Y-54079247D01*
X100846787Y-54079264D01*
X100782345Y-54444728D01*
X100782345Y-54444732D01*
X100750000Y-54814437D01*
X100500500Y-54814437D01*
X100500500Y-50624500D01*
X100520185Y-50557461D01*
X100572989Y-50511706D01*
X100624500Y-50500500D01*
X169425500Y-50500500D01*
X169492539Y-50520185D01*
G37*
G04 #@! TD.AperFunction*
M02*
