G04 #@! TF.GenerationSoftware,KiCad,Pcbnew,8.0.8*
G04 #@! TF.CreationDate,2025-01-19T17:42:08-05:00*
G04 #@! TF.ProjectId,t41_2_low_power_amplifier,7434315f-325f-46c6-9f77-5f706f776572,rev?*
G04 #@! TF.SameCoordinates,Original*
G04 #@! TF.FileFunction,Legend,Top*
G04 #@! TF.FilePolarity,Positive*
%FSLAX46Y46*%
G04 Gerber Fmt 4.6, Leading zero omitted, Abs format (unit mm)*
G04 Created by KiCad (PCBNEW 8.0.8) date 2025-01-19 17:42:08*
%MOMM*%
%LPD*%
G01*
G04 APERTURE LIST*
G04 Aperture macros list*
%AMRoundRect*
0 Rectangle with rounded corners*
0 $1 Rounding radius*
0 $2 $3 $4 $5 $6 $7 $8 $9 X,Y pos of 4 corners*
0 Add a 4 corners polygon primitive as box body*
4,1,4,$2,$3,$4,$5,$6,$7,$8,$9,$2,$3,0*
0 Add four circle primitives for the rounded corners*
1,1,$1+$1,$2,$3*
1,1,$1+$1,$4,$5*
1,1,$1+$1,$6,$7*
1,1,$1+$1,$8,$9*
0 Add four rect primitives between the rounded corners*
20,1,$1+$1,$2,$3,$4,$5,0*
20,1,$1+$1,$4,$5,$6,$7,0*
20,1,$1+$1,$6,$7,$8,$9,0*
20,1,$1+$1,$8,$9,$2,$3,0*%
G04 Aperture macros list end*
%ADD10C,0.150000*%
%ADD11C,0.200000*%
%ADD12C,0.300000*%
%ADD13C,0.100000*%
%ADD14C,0.120000*%
%ADD15C,2.000000*%
%ADD16C,2.200000*%
%ADD17RoundRect,0.250000X-0.275000X-0.700000X0.275000X-0.700000X0.275000X0.700000X-0.275000X0.700000X0*%
%ADD18RoundRect,0.250000X0.325000X0.650000X-0.325000X0.650000X-0.325000X-0.650000X0.325000X-0.650000X0*%
%ADD19RoundRect,0.250000X-0.550000X1.500000X-0.550000X-1.500000X0.550000X-1.500000X0.550000X1.500000X0*%
%ADD20RoundRect,0.250000X0.700000X-0.275000X0.700000X0.275000X-0.700000X0.275000X-0.700000X-0.275000X0*%
%ADD21RoundRect,0.250000X-0.625000X0.312500X-0.625000X-0.312500X0.625000X-0.312500X0.625000X0.312500X0*%
%ADD22RoundRect,0.250000X-0.312500X-0.625000X0.312500X-0.625000X0.312500X0.625000X-0.312500X0.625000X0*%
%ADD23RoundRect,0.250000X-1.400000X-1.000000X1.400000X-1.000000X1.400000X1.000000X-1.400000X1.000000X0*%
%ADD24RoundRect,0.250000X0.625000X-0.312500X0.625000X0.312500X-0.625000X0.312500X-0.625000X-0.312500X0*%
%ADD25C,7.500000*%
%ADD26RoundRect,0.150000X-0.512500X-0.150000X0.512500X-0.150000X0.512500X0.150000X-0.512500X0.150000X0*%
%ADD27RoundRect,0.250000X0.312500X0.625000X-0.312500X0.625000X-0.312500X-0.625000X0.312500X-0.625000X0*%
%ADD28C,1.440000*%
%ADD29RoundRect,0.150000X0.150000X-0.512500X0.150000X0.512500X-0.150000X0.512500X-0.150000X-0.512500X0*%
%ADD30RoundRect,0.250000X-0.650000X0.325000X-0.650000X-0.325000X0.650000X-0.325000X0.650000X0.325000X0*%
%ADD31C,2.600000*%
%ADD32C,2.500000*%
%ADD33RoundRect,0.375000X-0.625000X-0.375000X0.625000X-0.375000X0.625000X0.375000X-0.625000X0.375000X0*%
%ADD34RoundRect,0.500000X-0.500000X-1.400000X0.500000X-1.400000X0.500000X1.400000X-0.500000X1.400000X0*%
%ADD35R,2.400000X2.400000*%
%ADD36C,2.400000*%
%ADD37C,2.100000*%
G04 APERTURE END LIST*
D10*
X155410588Y-92069819D02*
X154839160Y-92069819D01*
X155124874Y-92069819D02*
X155124874Y-91069819D01*
X155124874Y-91069819D02*
X155029636Y-91212676D01*
X155029636Y-91212676D02*
X154934398Y-91307914D01*
X154934398Y-91307914D02*
X154839160Y-91355533D01*
X155791541Y-91165057D02*
X155839160Y-91117438D01*
X155839160Y-91117438D02*
X155934398Y-91069819D01*
X155934398Y-91069819D02*
X156172493Y-91069819D01*
X156172493Y-91069819D02*
X156267731Y-91117438D01*
X156267731Y-91117438D02*
X156315350Y-91165057D01*
X156315350Y-91165057D02*
X156362969Y-91260295D01*
X156362969Y-91260295D02*
X156362969Y-91355533D01*
X156362969Y-91355533D02*
X156315350Y-91498390D01*
X156315350Y-91498390D02*
X155743922Y-92069819D01*
X155743922Y-92069819D02*
X156362969Y-92069819D01*
X156648684Y-91069819D02*
X156982017Y-92069819D01*
X156982017Y-92069819D02*
X157315350Y-91069819D01*
X122360588Y-92469819D02*
X121789160Y-92469819D01*
X122074874Y-92469819D02*
X122074874Y-91469819D01*
X122074874Y-91469819D02*
X121979636Y-91612676D01*
X121979636Y-91612676D02*
X121884398Y-91707914D01*
X121884398Y-91707914D02*
X121789160Y-91755533D01*
X122979636Y-91469819D02*
X123074874Y-91469819D01*
X123074874Y-91469819D02*
X123170112Y-91517438D01*
X123170112Y-91517438D02*
X123217731Y-91565057D01*
X123217731Y-91565057D02*
X123265350Y-91660295D01*
X123265350Y-91660295D02*
X123312969Y-91850771D01*
X123312969Y-91850771D02*
X123312969Y-92088866D01*
X123312969Y-92088866D02*
X123265350Y-92279342D01*
X123265350Y-92279342D02*
X123217731Y-92374580D01*
X123217731Y-92374580D02*
X123170112Y-92422200D01*
X123170112Y-92422200D02*
X123074874Y-92469819D01*
X123074874Y-92469819D02*
X122979636Y-92469819D01*
X122979636Y-92469819D02*
X122884398Y-92422200D01*
X122884398Y-92422200D02*
X122836779Y-92374580D01*
X122836779Y-92374580D02*
X122789160Y-92279342D01*
X122789160Y-92279342D02*
X122741541Y-92088866D01*
X122741541Y-92088866D02*
X122741541Y-91850771D01*
X122741541Y-91850771D02*
X122789160Y-91660295D01*
X122789160Y-91660295D02*
X122836779Y-91565057D01*
X122836779Y-91565057D02*
X122884398Y-91517438D01*
X122884398Y-91517438D02*
X122979636Y-91469819D01*
X123598684Y-91469819D02*
X123932017Y-92469819D01*
X123932017Y-92469819D02*
X124265350Y-91469819D01*
D11*
X101388720Y-85206028D02*
X101388720Y-83706028D01*
X102103006Y-85206028D02*
X102103006Y-83706028D01*
X102103006Y-83706028D02*
X102960149Y-85206028D01*
X102960149Y-85206028D02*
X102960149Y-83706028D01*
X102524435Y-104581028D02*
X101667292Y-104581028D01*
X102095863Y-104581028D02*
X102095863Y-103081028D01*
X102095863Y-103081028D02*
X101953006Y-103295314D01*
X101953006Y-103295314D02*
X101810149Y-103438171D01*
X101810149Y-103438171D02*
X101667292Y-103509600D01*
X103024434Y-103081028D02*
X103953006Y-103081028D01*
X103953006Y-103081028D02*
X103453006Y-103652457D01*
X103453006Y-103652457D02*
X103667291Y-103652457D01*
X103667291Y-103652457D02*
X103810149Y-103723885D01*
X103810149Y-103723885D02*
X103881577Y-103795314D01*
X103881577Y-103795314D02*
X103953006Y-103938171D01*
X103953006Y-103938171D02*
X103953006Y-104295314D01*
X103953006Y-104295314D02*
X103881577Y-104438171D01*
X103881577Y-104438171D02*
X103810149Y-104509600D01*
X103810149Y-104509600D02*
X103667291Y-104581028D01*
X103667291Y-104581028D02*
X103238720Y-104581028D01*
X103238720Y-104581028D02*
X103095863Y-104509600D01*
X103095863Y-104509600D02*
X103024434Y-104438171D01*
X104595862Y-104438171D02*
X104667291Y-104509600D01*
X104667291Y-104509600D02*
X104595862Y-104581028D01*
X104595862Y-104581028D02*
X104524434Y-104509600D01*
X104524434Y-104509600D02*
X104595862Y-104438171D01*
X104595862Y-104438171D02*
X104595862Y-104581028D01*
X105953006Y-103581028D02*
X105953006Y-104581028D01*
X105595863Y-103009600D02*
X105238720Y-104081028D01*
X105238720Y-104081028D02*
X106167291Y-104081028D01*
X107667291Y-103081028D02*
X108167291Y-104581028D01*
X108167291Y-104581028D02*
X108667291Y-103081028D01*
X109453005Y-103081028D02*
X109738719Y-103081028D01*
X109738719Y-103081028D02*
X109881576Y-103152457D01*
X109881576Y-103152457D02*
X110024433Y-103295314D01*
X110024433Y-103295314D02*
X110095862Y-103581028D01*
X110095862Y-103581028D02*
X110095862Y-104081028D01*
X110095862Y-104081028D02*
X110024433Y-104366742D01*
X110024433Y-104366742D02*
X109881576Y-104509600D01*
X109881576Y-104509600D02*
X109738719Y-104581028D01*
X109738719Y-104581028D02*
X109453005Y-104581028D01*
X109453005Y-104581028D02*
X109310148Y-104509600D01*
X109310148Y-104509600D02*
X109167290Y-104366742D01*
X109167290Y-104366742D02*
X109095862Y-104081028D01*
X109095862Y-104081028D02*
X109095862Y-103581028D01*
X109095862Y-103581028D02*
X109167290Y-103295314D01*
X109167290Y-103295314D02*
X109310148Y-103152457D01*
X109310148Y-103152457D02*
X109453005Y-103081028D01*
X111453005Y-104581028D02*
X110738719Y-104581028D01*
X110738719Y-104581028D02*
X110738719Y-103081028D01*
X111738720Y-103081028D02*
X112595863Y-103081028D01*
X112167291Y-104581028D02*
X112167291Y-103081028D01*
X113024434Y-104509600D02*
X113238720Y-104581028D01*
X113238720Y-104581028D02*
X113595862Y-104581028D01*
X113595862Y-104581028D02*
X113738720Y-104509600D01*
X113738720Y-104509600D02*
X113810148Y-104438171D01*
X113810148Y-104438171D02*
X113881577Y-104295314D01*
X113881577Y-104295314D02*
X113881577Y-104152457D01*
X113881577Y-104152457D02*
X113810148Y-104009600D01*
X113810148Y-104009600D02*
X113738720Y-103938171D01*
X113738720Y-103938171D02*
X113595862Y-103866742D01*
X113595862Y-103866742D02*
X113310148Y-103795314D01*
X113310148Y-103795314D02*
X113167291Y-103723885D01*
X113167291Y-103723885D02*
X113095862Y-103652457D01*
X113095862Y-103652457D02*
X113024434Y-103509600D01*
X113024434Y-103509600D02*
X113024434Y-103366742D01*
X113024434Y-103366742D02*
X113095862Y-103223885D01*
X113095862Y-103223885D02*
X113167291Y-103152457D01*
X113167291Y-103152457D02*
X113310148Y-103081028D01*
X113310148Y-103081028D02*
X113667291Y-103081028D01*
X113667291Y-103081028D02*
X113881577Y-103152457D01*
X127774435Y-58306028D02*
X128060149Y-58306028D01*
X128060149Y-58306028D02*
X128203006Y-58377457D01*
X128203006Y-58377457D02*
X128345863Y-58520314D01*
X128345863Y-58520314D02*
X128417292Y-58806028D01*
X128417292Y-58806028D02*
X128417292Y-59306028D01*
X128417292Y-59306028D02*
X128345863Y-59591742D01*
X128345863Y-59591742D02*
X128203006Y-59734600D01*
X128203006Y-59734600D02*
X128060149Y-59806028D01*
X128060149Y-59806028D02*
X127774435Y-59806028D01*
X127774435Y-59806028D02*
X127631578Y-59734600D01*
X127631578Y-59734600D02*
X127488720Y-59591742D01*
X127488720Y-59591742D02*
X127417292Y-59306028D01*
X127417292Y-59306028D02*
X127417292Y-58806028D01*
X127417292Y-58806028D02*
X127488720Y-58520314D01*
X127488720Y-58520314D02*
X127631578Y-58377457D01*
X127631578Y-58377457D02*
X127774435Y-58306028D01*
X129060149Y-59806028D02*
X129060149Y-58306028D01*
X129060149Y-58306028D02*
X129631578Y-58306028D01*
X129631578Y-58306028D02*
X129774435Y-58377457D01*
X129774435Y-58377457D02*
X129845864Y-58448885D01*
X129845864Y-58448885D02*
X129917292Y-58591742D01*
X129917292Y-58591742D02*
X129917292Y-58806028D01*
X129917292Y-58806028D02*
X129845864Y-58948885D01*
X129845864Y-58948885D02*
X129774435Y-59020314D01*
X129774435Y-59020314D02*
X129631578Y-59091742D01*
X129631578Y-59091742D02*
X129060149Y-59091742D01*
X130560149Y-59020314D02*
X131060149Y-59020314D01*
X131274435Y-59806028D02*
X130560149Y-59806028D01*
X130560149Y-59806028D02*
X130560149Y-58306028D01*
X130560149Y-58306028D02*
X131274435Y-58306028D01*
X131917292Y-59806028D02*
X131917292Y-58306028D01*
X131917292Y-58306028D02*
X132774435Y-59806028D01*
X132774435Y-59806028D02*
X132774435Y-58306028D01*
X134631578Y-59806028D02*
X134631578Y-58306028D01*
X134631578Y-59020314D02*
X135488721Y-59020314D01*
X135488721Y-59806028D02*
X135488721Y-58306028D01*
X136131579Y-59377457D02*
X136845865Y-59377457D01*
X135988722Y-59806028D02*
X136488722Y-58306028D01*
X136488722Y-58306028D02*
X136988722Y-59806028D01*
X138345864Y-59806028D02*
X137845864Y-59091742D01*
X137488721Y-59806028D02*
X137488721Y-58306028D01*
X137488721Y-58306028D02*
X138060150Y-58306028D01*
X138060150Y-58306028D02*
X138203007Y-58377457D01*
X138203007Y-58377457D02*
X138274436Y-58448885D01*
X138274436Y-58448885D02*
X138345864Y-58591742D01*
X138345864Y-58591742D02*
X138345864Y-58806028D01*
X138345864Y-58806028D02*
X138274436Y-58948885D01*
X138274436Y-58948885D02*
X138203007Y-59020314D01*
X138203007Y-59020314D02*
X138060150Y-59091742D01*
X138060150Y-59091742D02*
X137488721Y-59091742D01*
X138988721Y-59806028D02*
X138988721Y-58306028D01*
X138988721Y-58306028D02*
X139345864Y-58306028D01*
X139345864Y-58306028D02*
X139560150Y-58377457D01*
X139560150Y-58377457D02*
X139703007Y-58520314D01*
X139703007Y-58520314D02*
X139774436Y-58663171D01*
X139774436Y-58663171D02*
X139845864Y-58948885D01*
X139845864Y-58948885D02*
X139845864Y-59163171D01*
X139845864Y-59163171D02*
X139774436Y-59448885D01*
X139774436Y-59448885D02*
X139703007Y-59591742D01*
X139703007Y-59591742D02*
X139560150Y-59734600D01*
X139560150Y-59734600D02*
X139345864Y-59806028D01*
X139345864Y-59806028D02*
X138988721Y-59806028D01*
X140345864Y-58306028D02*
X140703007Y-59806028D01*
X140703007Y-59806028D02*
X140988721Y-58734600D01*
X140988721Y-58734600D02*
X141274436Y-59806028D01*
X141274436Y-59806028D02*
X141631579Y-58306028D01*
X142131579Y-59377457D02*
X142845865Y-59377457D01*
X141988722Y-59806028D02*
X142488722Y-58306028D01*
X142488722Y-58306028D02*
X142988722Y-59806028D01*
X144345864Y-59806028D02*
X143845864Y-59091742D01*
X143488721Y-59806028D02*
X143488721Y-58306028D01*
X143488721Y-58306028D02*
X144060150Y-58306028D01*
X144060150Y-58306028D02*
X144203007Y-58377457D01*
X144203007Y-58377457D02*
X144274436Y-58448885D01*
X144274436Y-58448885D02*
X144345864Y-58591742D01*
X144345864Y-58591742D02*
X144345864Y-58806028D01*
X144345864Y-58806028D02*
X144274436Y-58948885D01*
X144274436Y-58948885D02*
X144203007Y-59020314D01*
X144203007Y-59020314D02*
X144060150Y-59091742D01*
X144060150Y-59091742D02*
X143488721Y-59091742D01*
X144988721Y-59020314D02*
X145488721Y-59020314D01*
X145703007Y-59806028D02*
X144988721Y-59806028D01*
X144988721Y-59806028D02*
X144988721Y-58306028D01*
X144988721Y-58306028D02*
X145703007Y-58306028D01*
X104270863Y-63281028D02*
X103770863Y-62566742D01*
X103413720Y-63281028D02*
X103413720Y-61781028D01*
X103413720Y-61781028D02*
X103985149Y-61781028D01*
X103985149Y-61781028D02*
X104128006Y-61852457D01*
X104128006Y-61852457D02*
X104199435Y-61923885D01*
X104199435Y-61923885D02*
X104270863Y-62066742D01*
X104270863Y-62066742D02*
X104270863Y-62281028D01*
X104270863Y-62281028D02*
X104199435Y-62423885D01*
X104199435Y-62423885D02*
X104128006Y-62495314D01*
X104128006Y-62495314D02*
X103985149Y-62566742D01*
X103985149Y-62566742D02*
X103413720Y-62566742D01*
X105413720Y-62495314D02*
X104913720Y-62495314D01*
X104913720Y-63281028D02*
X104913720Y-61781028D01*
X104913720Y-61781028D02*
X105628006Y-61781028D01*
X107342291Y-63281028D02*
X107342291Y-61781028D01*
X108056577Y-63281028D02*
X108056577Y-61781028D01*
X108056577Y-61781028D02*
X108913720Y-63281028D01*
X108913720Y-63281028D02*
X108913720Y-61781028D01*
D12*
X101254510Y-99529400D02*
X102397368Y-99529400D01*
D10*
X132070112Y-90596009D02*
X132212969Y-90643628D01*
X132212969Y-90643628D02*
X132260588Y-90691247D01*
X132260588Y-90691247D02*
X132308207Y-90786485D01*
X132308207Y-90786485D02*
X132308207Y-90929342D01*
X132308207Y-90929342D02*
X132260588Y-91024580D01*
X132260588Y-91024580D02*
X132212969Y-91072200D01*
X132212969Y-91072200D02*
X132117731Y-91119819D01*
X132117731Y-91119819D02*
X131736779Y-91119819D01*
X131736779Y-91119819D02*
X131736779Y-90119819D01*
X131736779Y-90119819D02*
X132070112Y-90119819D01*
X132070112Y-90119819D02*
X132165350Y-90167438D01*
X132165350Y-90167438D02*
X132212969Y-90215057D01*
X132212969Y-90215057D02*
X132260588Y-90310295D01*
X132260588Y-90310295D02*
X132260588Y-90405533D01*
X132260588Y-90405533D02*
X132212969Y-90500771D01*
X132212969Y-90500771D02*
X132165350Y-90548390D01*
X132165350Y-90548390D02*
X132070112Y-90596009D01*
X132070112Y-90596009D02*
X131736779Y-90596009D01*
X132736779Y-91119819D02*
X132736779Y-90119819D01*
X133165350Y-90834104D02*
X133641540Y-90834104D01*
X133070112Y-91119819D02*
X133403445Y-90119819D01*
X133403445Y-90119819D02*
X133736778Y-91119819D01*
X134022493Y-91072200D02*
X134165350Y-91119819D01*
X134165350Y-91119819D02*
X134403445Y-91119819D01*
X134403445Y-91119819D02*
X134498683Y-91072200D01*
X134498683Y-91072200D02*
X134546302Y-91024580D01*
X134546302Y-91024580D02*
X134593921Y-90929342D01*
X134593921Y-90929342D02*
X134593921Y-90834104D01*
X134593921Y-90834104D02*
X134546302Y-90738866D01*
X134546302Y-90738866D02*
X134498683Y-90691247D01*
X134498683Y-90691247D02*
X134403445Y-90643628D01*
X134403445Y-90643628D02*
X134212969Y-90596009D01*
X134212969Y-90596009D02*
X134117731Y-90548390D01*
X134117731Y-90548390D02*
X134070112Y-90500771D01*
X134070112Y-90500771D02*
X134022493Y-90405533D01*
X134022493Y-90405533D02*
X134022493Y-90310295D01*
X134022493Y-90310295D02*
X134070112Y-90215057D01*
X134070112Y-90215057D02*
X134117731Y-90167438D01*
X134117731Y-90167438D02*
X134212969Y-90119819D01*
X134212969Y-90119819D02*
X134451064Y-90119819D01*
X134451064Y-90119819D02*
X134593921Y-90167438D01*
X135736779Y-90834104D02*
X136212969Y-90834104D01*
X135641541Y-91119819D02*
X135974874Y-90119819D01*
X135974874Y-90119819D02*
X136308207Y-91119819D01*
X136641541Y-91119819D02*
X136641541Y-90119819D01*
X136641541Y-90119819D02*
X136879636Y-90119819D01*
X136879636Y-90119819D02*
X137022493Y-90167438D01*
X137022493Y-90167438D02*
X137117731Y-90262676D01*
X137117731Y-90262676D02*
X137165350Y-90357914D01*
X137165350Y-90357914D02*
X137212969Y-90548390D01*
X137212969Y-90548390D02*
X137212969Y-90691247D01*
X137212969Y-90691247D02*
X137165350Y-90881723D01*
X137165350Y-90881723D02*
X137117731Y-90976961D01*
X137117731Y-90976961D02*
X137022493Y-91072200D01*
X137022493Y-91072200D02*
X136879636Y-91119819D01*
X136879636Y-91119819D02*
X136641541Y-91119819D01*
X137927255Y-90119819D02*
X137927255Y-90834104D01*
X137927255Y-90834104D02*
X137879636Y-90976961D01*
X137879636Y-90976961D02*
X137784398Y-91072200D01*
X137784398Y-91072200D02*
X137641541Y-91119819D01*
X137641541Y-91119819D02*
X137546303Y-91119819D01*
X138403446Y-90119819D02*
X138403446Y-90929342D01*
X138403446Y-90929342D02*
X138451065Y-91024580D01*
X138451065Y-91024580D02*
X138498684Y-91072200D01*
X138498684Y-91072200D02*
X138593922Y-91119819D01*
X138593922Y-91119819D02*
X138784398Y-91119819D01*
X138784398Y-91119819D02*
X138879636Y-91072200D01*
X138879636Y-91072200D02*
X138927255Y-91024580D01*
X138927255Y-91024580D02*
X138974874Y-90929342D01*
X138974874Y-90929342D02*
X138974874Y-90119819D01*
X139403446Y-91072200D02*
X139546303Y-91119819D01*
X139546303Y-91119819D02*
X139784398Y-91119819D01*
X139784398Y-91119819D02*
X139879636Y-91072200D01*
X139879636Y-91072200D02*
X139927255Y-91024580D01*
X139927255Y-91024580D02*
X139974874Y-90929342D01*
X139974874Y-90929342D02*
X139974874Y-90834104D01*
X139974874Y-90834104D02*
X139927255Y-90738866D01*
X139927255Y-90738866D02*
X139879636Y-90691247D01*
X139879636Y-90691247D02*
X139784398Y-90643628D01*
X139784398Y-90643628D02*
X139593922Y-90596009D01*
X139593922Y-90596009D02*
X139498684Y-90548390D01*
X139498684Y-90548390D02*
X139451065Y-90500771D01*
X139451065Y-90500771D02*
X139403446Y-90405533D01*
X139403446Y-90405533D02*
X139403446Y-90310295D01*
X139403446Y-90310295D02*
X139451065Y-90215057D01*
X139451065Y-90215057D02*
X139498684Y-90167438D01*
X139498684Y-90167438D02*
X139593922Y-90119819D01*
X139593922Y-90119819D02*
X139832017Y-90119819D01*
X139832017Y-90119819D02*
X139974874Y-90167438D01*
X140260589Y-90119819D02*
X140832017Y-90119819D01*
X140546303Y-91119819D02*
X140546303Y-90119819D01*
D11*
X161545863Y-61706028D02*
X161045863Y-60991742D01*
X160688720Y-61706028D02*
X160688720Y-60206028D01*
X160688720Y-60206028D02*
X161260149Y-60206028D01*
X161260149Y-60206028D02*
X161403006Y-60277457D01*
X161403006Y-60277457D02*
X161474435Y-60348885D01*
X161474435Y-60348885D02*
X161545863Y-60491742D01*
X161545863Y-60491742D02*
X161545863Y-60706028D01*
X161545863Y-60706028D02*
X161474435Y-60848885D01*
X161474435Y-60848885D02*
X161403006Y-60920314D01*
X161403006Y-60920314D02*
X161260149Y-60991742D01*
X161260149Y-60991742D02*
X160688720Y-60991742D01*
X162688720Y-60920314D02*
X162188720Y-60920314D01*
X162188720Y-61706028D02*
X162188720Y-60206028D01*
X162188720Y-60206028D02*
X162903006Y-60206028D01*
X164903006Y-60206028D02*
X165188720Y-60206028D01*
X165188720Y-60206028D02*
X165331577Y-60277457D01*
X165331577Y-60277457D02*
X165474434Y-60420314D01*
X165474434Y-60420314D02*
X165545863Y-60706028D01*
X165545863Y-60706028D02*
X165545863Y-61206028D01*
X165545863Y-61206028D02*
X165474434Y-61491742D01*
X165474434Y-61491742D02*
X165331577Y-61634600D01*
X165331577Y-61634600D02*
X165188720Y-61706028D01*
X165188720Y-61706028D02*
X164903006Y-61706028D01*
X164903006Y-61706028D02*
X164760149Y-61634600D01*
X164760149Y-61634600D02*
X164617291Y-61491742D01*
X164617291Y-61491742D02*
X164545863Y-61206028D01*
X164545863Y-61206028D02*
X164545863Y-60706028D01*
X164545863Y-60706028D02*
X164617291Y-60420314D01*
X164617291Y-60420314D02*
X164760149Y-60277457D01*
X164760149Y-60277457D02*
X164903006Y-60206028D01*
X166188720Y-60206028D02*
X166188720Y-61420314D01*
X166188720Y-61420314D02*
X166260149Y-61563171D01*
X166260149Y-61563171D02*
X166331578Y-61634600D01*
X166331578Y-61634600D02*
X166474435Y-61706028D01*
X166474435Y-61706028D02*
X166760149Y-61706028D01*
X166760149Y-61706028D02*
X166903006Y-61634600D01*
X166903006Y-61634600D02*
X166974435Y-61563171D01*
X166974435Y-61563171D02*
X167045863Y-61420314D01*
X167045863Y-61420314D02*
X167045863Y-60206028D01*
X167545864Y-60206028D02*
X168403007Y-60206028D01*
X167974435Y-61706028D02*
X167974435Y-60206028D01*
X133488720Y-57206028D02*
X133488720Y-55706028D01*
X134345863Y-57206028D02*
X133703006Y-56348885D01*
X134345863Y-55706028D02*
X133488720Y-56563171D01*
X135488720Y-56420314D02*
X134988720Y-56420314D01*
X134988720Y-57206028D02*
X134988720Y-55706028D01*
X134988720Y-55706028D02*
X135703006Y-55706028D01*
X136988720Y-55706028D02*
X136274434Y-55706028D01*
X136274434Y-55706028D02*
X136203006Y-56420314D01*
X136203006Y-56420314D02*
X136274434Y-56348885D01*
X136274434Y-56348885D02*
X136417292Y-56277457D01*
X136417292Y-56277457D02*
X136774434Y-56277457D01*
X136774434Y-56277457D02*
X136917292Y-56348885D01*
X136917292Y-56348885D02*
X136988720Y-56420314D01*
X136988720Y-56420314D02*
X137060149Y-56563171D01*
X137060149Y-56563171D02*
X137060149Y-56920314D01*
X137060149Y-56920314D02*
X136988720Y-57063171D01*
X136988720Y-57063171D02*
X136917292Y-57134600D01*
X136917292Y-57134600D02*
X136774434Y-57206028D01*
X136774434Y-57206028D02*
X136417292Y-57206028D01*
X136417292Y-57206028D02*
X136274434Y-57134600D01*
X136274434Y-57134600D02*
X136203006Y-57063171D01*
X137703005Y-57206028D02*
X137703005Y-55706028D01*
X137703005Y-55706028D02*
X138560148Y-57206028D01*
X138560148Y-57206028D02*
X138560148Y-55706028D01*
D12*
X101254510Y-94629400D02*
X102397368Y-94629400D01*
X101825939Y-95200828D02*
X101825939Y-94057971D01*
D11*
X115324435Y-53006028D02*
X116181578Y-53006028D01*
X115753006Y-54506028D02*
X115753006Y-53006028D01*
X117324435Y-53506028D02*
X117324435Y-54506028D01*
X116967292Y-52934600D02*
X116610149Y-54006028D01*
X116610149Y-54006028D02*
X117538720Y-54006028D01*
X118895863Y-54506028D02*
X118038720Y-54506028D01*
X118467291Y-54506028D02*
X118467291Y-53006028D01*
X118467291Y-53006028D02*
X118324434Y-53220314D01*
X118324434Y-53220314D02*
X118181577Y-53363171D01*
X118181577Y-53363171D02*
X118038720Y-53434600D01*
X119538719Y-53934600D02*
X120681577Y-53934600D01*
X121324434Y-53148885D02*
X121395862Y-53077457D01*
X121395862Y-53077457D02*
X121538720Y-53006028D01*
X121538720Y-53006028D02*
X121895862Y-53006028D01*
X121895862Y-53006028D02*
X122038720Y-53077457D01*
X122038720Y-53077457D02*
X122110148Y-53148885D01*
X122110148Y-53148885D02*
X122181577Y-53291742D01*
X122181577Y-53291742D02*
X122181577Y-53434600D01*
X122181577Y-53434600D02*
X122110148Y-53648885D01*
X122110148Y-53648885D02*
X121253005Y-54506028D01*
X121253005Y-54506028D02*
X122181577Y-54506028D01*
X124681576Y-54506028D02*
X123967290Y-54506028D01*
X123967290Y-54506028D02*
X123967290Y-53006028D01*
X125467291Y-53006028D02*
X125753005Y-53006028D01*
X125753005Y-53006028D02*
X125895862Y-53077457D01*
X125895862Y-53077457D02*
X126038719Y-53220314D01*
X126038719Y-53220314D02*
X126110148Y-53506028D01*
X126110148Y-53506028D02*
X126110148Y-54006028D01*
X126110148Y-54006028D02*
X126038719Y-54291742D01*
X126038719Y-54291742D02*
X125895862Y-54434600D01*
X125895862Y-54434600D02*
X125753005Y-54506028D01*
X125753005Y-54506028D02*
X125467291Y-54506028D01*
X125467291Y-54506028D02*
X125324434Y-54434600D01*
X125324434Y-54434600D02*
X125181576Y-54291742D01*
X125181576Y-54291742D02*
X125110148Y-54006028D01*
X125110148Y-54006028D02*
X125110148Y-53506028D01*
X125110148Y-53506028D02*
X125181576Y-53220314D01*
X125181576Y-53220314D02*
X125324434Y-53077457D01*
X125324434Y-53077457D02*
X125467291Y-53006028D01*
X126610148Y-53006028D02*
X126967291Y-54506028D01*
X126967291Y-54506028D02*
X127253005Y-53434600D01*
X127253005Y-53434600D02*
X127538720Y-54506028D01*
X127538720Y-54506028D02*
X127895863Y-53006028D01*
X129610148Y-54506028D02*
X129610148Y-53006028D01*
X129610148Y-53006028D02*
X130181577Y-53006028D01*
X130181577Y-53006028D02*
X130324434Y-53077457D01*
X130324434Y-53077457D02*
X130395863Y-53148885D01*
X130395863Y-53148885D02*
X130467291Y-53291742D01*
X130467291Y-53291742D02*
X130467291Y-53506028D01*
X130467291Y-53506028D02*
X130395863Y-53648885D01*
X130395863Y-53648885D02*
X130324434Y-53720314D01*
X130324434Y-53720314D02*
X130181577Y-53791742D01*
X130181577Y-53791742D02*
X129610148Y-53791742D01*
X131395863Y-53006028D02*
X131681577Y-53006028D01*
X131681577Y-53006028D02*
X131824434Y-53077457D01*
X131824434Y-53077457D02*
X131967291Y-53220314D01*
X131967291Y-53220314D02*
X132038720Y-53506028D01*
X132038720Y-53506028D02*
X132038720Y-54006028D01*
X132038720Y-54006028D02*
X131967291Y-54291742D01*
X131967291Y-54291742D02*
X131824434Y-54434600D01*
X131824434Y-54434600D02*
X131681577Y-54506028D01*
X131681577Y-54506028D02*
X131395863Y-54506028D01*
X131395863Y-54506028D02*
X131253006Y-54434600D01*
X131253006Y-54434600D02*
X131110148Y-54291742D01*
X131110148Y-54291742D02*
X131038720Y-54006028D01*
X131038720Y-54006028D02*
X131038720Y-53506028D01*
X131038720Y-53506028D02*
X131110148Y-53220314D01*
X131110148Y-53220314D02*
X131253006Y-53077457D01*
X131253006Y-53077457D02*
X131395863Y-53006028D01*
X132538720Y-53006028D02*
X132895863Y-54506028D01*
X132895863Y-54506028D02*
X133181577Y-53434600D01*
X133181577Y-53434600D02*
X133467292Y-54506028D01*
X133467292Y-54506028D02*
X133824435Y-53006028D01*
X134395863Y-53720314D02*
X134895863Y-53720314D01*
X135110149Y-54506028D02*
X134395863Y-54506028D01*
X134395863Y-54506028D02*
X134395863Y-53006028D01*
X134395863Y-53006028D02*
X135110149Y-53006028D01*
X136610149Y-54506028D02*
X136110149Y-53791742D01*
X135753006Y-54506028D02*
X135753006Y-53006028D01*
X135753006Y-53006028D02*
X136324435Y-53006028D01*
X136324435Y-53006028D02*
X136467292Y-53077457D01*
X136467292Y-53077457D02*
X136538721Y-53148885D01*
X136538721Y-53148885D02*
X136610149Y-53291742D01*
X136610149Y-53291742D02*
X136610149Y-53506028D01*
X136610149Y-53506028D02*
X136538721Y-53648885D01*
X136538721Y-53648885D02*
X136467292Y-53720314D01*
X136467292Y-53720314D02*
X136324435Y-53791742D01*
X136324435Y-53791742D02*
X135753006Y-53791742D01*
X138324435Y-54077457D02*
X139038721Y-54077457D01*
X138181578Y-54506028D02*
X138681578Y-53006028D01*
X138681578Y-53006028D02*
X139181578Y-54506028D01*
X139681577Y-54506028D02*
X139681577Y-53006028D01*
X139681577Y-53006028D02*
X140181577Y-54077457D01*
X140181577Y-54077457D02*
X140681577Y-53006028D01*
X140681577Y-53006028D02*
X140681577Y-54506028D01*
X141395863Y-54506028D02*
X141395863Y-53006028D01*
X141395863Y-53006028D02*
X141967292Y-53006028D01*
X141967292Y-53006028D02*
X142110149Y-53077457D01*
X142110149Y-53077457D02*
X142181578Y-53148885D01*
X142181578Y-53148885D02*
X142253006Y-53291742D01*
X142253006Y-53291742D02*
X142253006Y-53506028D01*
X142253006Y-53506028D02*
X142181578Y-53648885D01*
X142181578Y-53648885D02*
X142110149Y-53720314D01*
X142110149Y-53720314D02*
X141967292Y-53791742D01*
X141967292Y-53791742D02*
X141395863Y-53791742D01*
X143610149Y-54506028D02*
X142895863Y-54506028D01*
X142895863Y-54506028D02*
X142895863Y-53006028D01*
X144110149Y-54506028D02*
X144110149Y-53006028D01*
X145324435Y-53720314D02*
X144824435Y-53720314D01*
X144824435Y-54506028D02*
X144824435Y-53006028D01*
X144824435Y-53006028D02*
X145538721Y-53006028D01*
X146110149Y-54506028D02*
X146110149Y-53006028D01*
X146824435Y-53720314D02*
X147324435Y-53720314D01*
X147538721Y-54506028D02*
X146824435Y-54506028D01*
X146824435Y-54506028D02*
X146824435Y-53006028D01*
X146824435Y-53006028D02*
X147538721Y-53006028D01*
X149038721Y-54506028D02*
X148538721Y-53791742D01*
X148181578Y-54506028D02*
X148181578Y-53006028D01*
X148181578Y-53006028D02*
X148753007Y-53006028D01*
X148753007Y-53006028D02*
X148895864Y-53077457D01*
X148895864Y-53077457D02*
X148967293Y-53148885D01*
X148967293Y-53148885D02*
X149038721Y-53291742D01*
X149038721Y-53291742D02*
X149038721Y-53506028D01*
X149038721Y-53506028D02*
X148967293Y-53648885D01*
X148967293Y-53648885D02*
X148895864Y-53720314D01*
X148895864Y-53720314D02*
X148753007Y-53791742D01*
X148753007Y-53791742D02*
X148181578Y-53791742D01*
X150610150Y-53006028D02*
X151110150Y-54506028D01*
X151110150Y-54506028D02*
X151610150Y-53006028D01*
X152895864Y-54506028D02*
X152038721Y-54506028D01*
X152467292Y-54506028D02*
X152467292Y-53006028D01*
X152467292Y-53006028D02*
X152324435Y-53220314D01*
X152324435Y-53220314D02*
X152181578Y-53363171D01*
X152181578Y-53363171D02*
X152038721Y-53434600D01*
X153538720Y-54363171D02*
X153610149Y-54434600D01*
X153610149Y-54434600D02*
X153538720Y-54506028D01*
X153538720Y-54506028D02*
X153467292Y-54434600D01*
X153467292Y-54434600D02*
X153538720Y-54363171D01*
X153538720Y-54363171D02*
X153538720Y-54506028D01*
X154110149Y-53006028D02*
X155038721Y-53006028D01*
X155038721Y-53006028D02*
X154538721Y-53577457D01*
X154538721Y-53577457D02*
X154753006Y-53577457D01*
X154753006Y-53577457D02*
X154895864Y-53648885D01*
X154895864Y-53648885D02*
X154967292Y-53720314D01*
X154967292Y-53720314D02*
X155038721Y-53863171D01*
X155038721Y-53863171D02*
X155038721Y-54220314D01*
X155038721Y-54220314D02*
X154967292Y-54363171D01*
X154967292Y-54363171D02*
X154895864Y-54434600D01*
X154895864Y-54434600D02*
X154753006Y-54506028D01*
X154753006Y-54506028D02*
X154324435Y-54506028D01*
X154324435Y-54506028D02*
X154181578Y-54434600D01*
X154181578Y-54434600D02*
X154110149Y-54363171D01*
X110274435Y-81281028D02*
X111131578Y-81281028D01*
X110703006Y-82781028D02*
X110703006Y-81281028D01*
X111488720Y-81281028D02*
X112488720Y-82781028D01*
X112488720Y-81281028D02*
X111488720Y-82781028D01*
X113917291Y-82781028D02*
X113417291Y-82066742D01*
X113060148Y-82781028D02*
X113060148Y-81281028D01*
X113060148Y-81281028D02*
X113631577Y-81281028D01*
X113631577Y-81281028D02*
X113774434Y-81352457D01*
X113774434Y-81352457D02*
X113845863Y-81423885D01*
X113845863Y-81423885D02*
X113917291Y-81566742D01*
X113917291Y-81566742D02*
X113917291Y-81781028D01*
X113917291Y-81781028D02*
X113845863Y-81923885D01*
X113845863Y-81923885D02*
X113774434Y-81995314D01*
X113774434Y-81995314D02*
X113631577Y-82066742D01*
X113631577Y-82066742D02*
X113060148Y-82066742D01*
X114417291Y-81281028D02*
X115417291Y-82781028D01*
X115417291Y-81281028D02*
X114417291Y-82781028D01*
D10*
X153238095Y-63654819D02*
X153809523Y-63654819D01*
X153523809Y-64654819D02*
X153523809Y-63654819D01*
X154666666Y-64654819D02*
X154095238Y-64654819D01*
X154380952Y-64654819D02*
X154380952Y-63654819D01*
X154380952Y-63654819D02*
X154285714Y-63797676D01*
X154285714Y-63797676D02*
X154190476Y-63892914D01*
X154190476Y-63892914D02*
X154095238Y-63940533D01*
X128438095Y-63504819D02*
X129009523Y-63504819D01*
X128723809Y-64504819D02*
X128723809Y-63504819D01*
X129247619Y-63504819D02*
X129866666Y-63504819D01*
X129866666Y-63504819D02*
X129533333Y-63885771D01*
X129533333Y-63885771D02*
X129676190Y-63885771D01*
X129676190Y-63885771D02*
X129771428Y-63933390D01*
X129771428Y-63933390D02*
X129819047Y-63981009D01*
X129819047Y-63981009D02*
X129866666Y-64076247D01*
X129866666Y-64076247D02*
X129866666Y-64314342D01*
X129866666Y-64314342D02*
X129819047Y-64409580D01*
X129819047Y-64409580D02*
X129771428Y-64457200D01*
X129771428Y-64457200D02*
X129676190Y-64504819D01*
X129676190Y-64504819D02*
X129390476Y-64504819D01*
X129390476Y-64504819D02*
X129295238Y-64457200D01*
X129295238Y-64457200D02*
X129247619Y-64409580D01*
X126091666Y-96831009D02*
X125758333Y-96831009D01*
X125758333Y-97354819D02*
X125758333Y-96354819D01*
X125758333Y-96354819D02*
X126234523Y-96354819D01*
X126948809Y-96831009D02*
X127091666Y-96878628D01*
X127091666Y-96878628D02*
X127139285Y-96926247D01*
X127139285Y-96926247D02*
X127186904Y-97021485D01*
X127186904Y-97021485D02*
X127186904Y-97164342D01*
X127186904Y-97164342D02*
X127139285Y-97259580D01*
X127139285Y-97259580D02*
X127091666Y-97307200D01*
X127091666Y-97307200D02*
X126996428Y-97354819D01*
X126996428Y-97354819D02*
X126615476Y-97354819D01*
X126615476Y-97354819D02*
X126615476Y-96354819D01*
X126615476Y-96354819D02*
X126948809Y-96354819D01*
X126948809Y-96354819D02*
X127044047Y-96402438D01*
X127044047Y-96402438D02*
X127091666Y-96450057D01*
X127091666Y-96450057D02*
X127139285Y-96545295D01*
X127139285Y-96545295D02*
X127139285Y-96640533D01*
X127139285Y-96640533D02*
X127091666Y-96735771D01*
X127091666Y-96735771D02*
X127044047Y-96783390D01*
X127044047Y-96783390D02*
X126948809Y-96831009D01*
X126948809Y-96831009D02*
X126615476Y-96831009D01*
X128044047Y-96688152D02*
X128044047Y-97354819D01*
X127805952Y-96307200D02*
X127567857Y-97021485D01*
X127567857Y-97021485D02*
X128186904Y-97021485D01*
X117257142Y-90959580D02*
X117209523Y-91007200D01*
X117209523Y-91007200D02*
X117066666Y-91054819D01*
X117066666Y-91054819D02*
X116971428Y-91054819D01*
X116971428Y-91054819D02*
X116828571Y-91007200D01*
X116828571Y-91007200D02*
X116733333Y-90911961D01*
X116733333Y-90911961D02*
X116685714Y-90816723D01*
X116685714Y-90816723D02*
X116638095Y-90626247D01*
X116638095Y-90626247D02*
X116638095Y-90483390D01*
X116638095Y-90483390D02*
X116685714Y-90292914D01*
X116685714Y-90292914D02*
X116733333Y-90197676D01*
X116733333Y-90197676D02*
X116828571Y-90102438D01*
X116828571Y-90102438D02*
X116971428Y-90054819D01*
X116971428Y-90054819D02*
X117066666Y-90054819D01*
X117066666Y-90054819D02*
X117209523Y-90102438D01*
X117209523Y-90102438D02*
X117257142Y-90150057D01*
X117638095Y-90150057D02*
X117685714Y-90102438D01*
X117685714Y-90102438D02*
X117780952Y-90054819D01*
X117780952Y-90054819D02*
X118019047Y-90054819D01*
X118019047Y-90054819D02*
X118114285Y-90102438D01*
X118114285Y-90102438D02*
X118161904Y-90150057D01*
X118161904Y-90150057D02*
X118209523Y-90245295D01*
X118209523Y-90245295D02*
X118209523Y-90340533D01*
X118209523Y-90340533D02*
X118161904Y-90483390D01*
X118161904Y-90483390D02*
X117590476Y-91054819D01*
X117590476Y-91054819D02*
X118209523Y-91054819D01*
X118828571Y-90054819D02*
X118923809Y-90054819D01*
X118923809Y-90054819D02*
X119019047Y-90102438D01*
X119019047Y-90102438D02*
X119066666Y-90150057D01*
X119066666Y-90150057D02*
X119114285Y-90245295D01*
X119114285Y-90245295D02*
X119161904Y-90435771D01*
X119161904Y-90435771D02*
X119161904Y-90673866D01*
X119161904Y-90673866D02*
X119114285Y-90864342D01*
X119114285Y-90864342D02*
X119066666Y-90959580D01*
X119066666Y-90959580D02*
X119019047Y-91007200D01*
X119019047Y-91007200D02*
X118923809Y-91054819D01*
X118923809Y-91054819D02*
X118828571Y-91054819D01*
X118828571Y-91054819D02*
X118733333Y-91007200D01*
X118733333Y-91007200D02*
X118685714Y-90959580D01*
X118685714Y-90959580D02*
X118638095Y-90864342D01*
X118638095Y-90864342D02*
X118590476Y-90673866D01*
X118590476Y-90673866D02*
X118590476Y-90435771D01*
X118590476Y-90435771D02*
X118638095Y-90245295D01*
X118638095Y-90245295D02*
X118685714Y-90150057D01*
X118685714Y-90150057D02*
X118733333Y-90102438D01*
X118733333Y-90102438D02*
X118828571Y-90054819D01*
X116257143Y-91354819D02*
X116352381Y-91354819D01*
X116352381Y-91354819D02*
X116447619Y-91402438D01*
X116447619Y-91402438D02*
X116495238Y-91450057D01*
X116495238Y-91450057D02*
X116542857Y-91545295D01*
X116542857Y-91545295D02*
X116590476Y-91735771D01*
X116590476Y-91735771D02*
X116590476Y-91973866D01*
X116590476Y-91973866D02*
X116542857Y-92164342D01*
X116542857Y-92164342D02*
X116495238Y-92259580D01*
X116495238Y-92259580D02*
X116447619Y-92307200D01*
X116447619Y-92307200D02*
X116352381Y-92354819D01*
X116352381Y-92354819D02*
X116257143Y-92354819D01*
X116257143Y-92354819D02*
X116161905Y-92307200D01*
X116161905Y-92307200D02*
X116114286Y-92259580D01*
X116114286Y-92259580D02*
X116066667Y-92164342D01*
X116066667Y-92164342D02*
X116019048Y-91973866D01*
X116019048Y-91973866D02*
X116019048Y-91735771D01*
X116019048Y-91735771D02*
X116066667Y-91545295D01*
X116066667Y-91545295D02*
X116114286Y-91450057D01*
X116114286Y-91450057D02*
X116161905Y-91402438D01*
X116161905Y-91402438D02*
X116257143Y-91354819D01*
X117019048Y-92259580D02*
X117066667Y-92307200D01*
X117066667Y-92307200D02*
X117019048Y-92354819D01*
X117019048Y-92354819D02*
X116971429Y-92307200D01*
X116971429Y-92307200D02*
X117019048Y-92259580D01*
X117019048Y-92259580D02*
X117019048Y-92354819D01*
X118019047Y-92354819D02*
X117447619Y-92354819D01*
X117733333Y-92354819D02*
X117733333Y-91354819D01*
X117733333Y-91354819D02*
X117638095Y-91497676D01*
X117638095Y-91497676D02*
X117542857Y-91592914D01*
X117542857Y-91592914D02*
X117447619Y-91640533D01*
X118876190Y-91688152D02*
X118876190Y-92354819D01*
X118447619Y-91688152D02*
X118447619Y-92211961D01*
X118447619Y-92211961D02*
X118495238Y-92307200D01*
X118495238Y-92307200D02*
X118590476Y-92354819D01*
X118590476Y-92354819D02*
X118733333Y-92354819D01*
X118733333Y-92354819D02*
X118828571Y-92307200D01*
X118828571Y-92307200D02*
X118876190Y-92259580D01*
X119685714Y-91831009D02*
X119352381Y-91831009D01*
X119352381Y-92354819D02*
X119352381Y-91354819D01*
X119352381Y-91354819D02*
X119828571Y-91354819D01*
X142533333Y-97259580D02*
X142485714Y-97307200D01*
X142485714Y-97307200D02*
X142342857Y-97354819D01*
X142342857Y-97354819D02*
X142247619Y-97354819D01*
X142247619Y-97354819D02*
X142104762Y-97307200D01*
X142104762Y-97307200D02*
X142009524Y-97211961D01*
X142009524Y-97211961D02*
X141961905Y-97116723D01*
X141961905Y-97116723D02*
X141914286Y-96926247D01*
X141914286Y-96926247D02*
X141914286Y-96783390D01*
X141914286Y-96783390D02*
X141961905Y-96592914D01*
X141961905Y-96592914D02*
X142009524Y-96497676D01*
X142009524Y-96497676D02*
X142104762Y-96402438D01*
X142104762Y-96402438D02*
X142247619Y-96354819D01*
X142247619Y-96354819D02*
X142342857Y-96354819D01*
X142342857Y-96354819D02*
X142485714Y-96402438D01*
X142485714Y-96402438D02*
X142533333Y-96450057D01*
X143009524Y-97354819D02*
X143200000Y-97354819D01*
X143200000Y-97354819D02*
X143295238Y-97307200D01*
X143295238Y-97307200D02*
X143342857Y-97259580D01*
X143342857Y-97259580D02*
X143438095Y-97116723D01*
X143438095Y-97116723D02*
X143485714Y-96926247D01*
X143485714Y-96926247D02*
X143485714Y-96545295D01*
X143485714Y-96545295D02*
X143438095Y-96450057D01*
X143438095Y-96450057D02*
X143390476Y-96402438D01*
X143390476Y-96402438D02*
X143295238Y-96354819D01*
X143295238Y-96354819D02*
X143104762Y-96354819D01*
X143104762Y-96354819D02*
X143009524Y-96402438D01*
X143009524Y-96402438D02*
X142961905Y-96450057D01*
X142961905Y-96450057D02*
X142914286Y-96545295D01*
X142914286Y-96545295D02*
X142914286Y-96783390D01*
X142914286Y-96783390D02*
X142961905Y-96878628D01*
X142961905Y-96878628D02*
X143009524Y-96926247D01*
X143009524Y-96926247D02*
X143104762Y-96973866D01*
X143104762Y-96973866D02*
X143295238Y-96973866D01*
X143295238Y-96973866D02*
X143390476Y-96926247D01*
X143390476Y-96926247D02*
X143438095Y-96878628D01*
X143438095Y-96878628D02*
X143485714Y-96783390D01*
X142333333Y-98088152D02*
X142333333Y-98754819D01*
X142095238Y-97707200D02*
X141857143Y-98421485D01*
X141857143Y-98421485D02*
X142476190Y-98421485D01*
X142761905Y-97754819D02*
X143428571Y-97754819D01*
X143428571Y-97754819D02*
X143000000Y-98754819D01*
X144238095Y-98088152D02*
X144238095Y-98754819D01*
X143809524Y-98088152D02*
X143809524Y-98611961D01*
X143809524Y-98611961D02*
X143857143Y-98707200D01*
X143857143Y-98707200D02*
X143952381Y-98754819D01*
X143952381Y-98754819D02*
X144095238Y-98754819D01*
X144095238Y-98754819D02*
X144190476Y-98707200D01*
X144190476Y-98707200D02*
X144238095Y-98659580D01*
X145047619Y-98231009D02*
X144714286Y-98231009D01*
X144714286Y-98754819D02*
X144714286Y-97754819D01*
X144714286Y-97754819D02*
X145190476Y-97754819D01*
X117657142Y-82159580D02*
X117609523Y-82207200D01*
X117609523Y-82207200D02*
X117466666Y-82254819D01*
X117466666Y-82254819D02*
X117371428Y-82254819D01*
X117371428Y-82254819D02*
X117228571Y-82207200D01*
X117228571Y-82207200D02*
X117133333Y-82111961D01*
X117133333Y-82111961D02*
X117085714Y-82016723D01*
X117085714Y-82016723D02*
X117038095Y-81826247D01*
X117038095Y-81826247D02*
X117038095Y-81683390D01*
X117038095Y-81683390D02*
X117085714Y-81492914D01*
X117085714Y-81492914D02*
X117133333Y-81397676D01*
X117133333Y-81397676D02*
X117228571Y-81302438D01*
X117228571Y-81302438D02*
X117371428Y-81254819D01*
X117371428Y-81254819D02*
X117466666Y-81254819D01*
X117466666Y-81254819D02*
X117609523Y-81302438D01*
X117609523Y-81302438D02*
X117657142Y-81350057D01*
X118609523Y-82254819D02*
X118038095Y-82254819D01*
X118323809Y-82254819D02*
X118323809Y-81254819D01*
X118323809Y-81254819D02*
X118228571Y-81397676D01*
X118228571Y-81397676D02*
X118133333Y-81492914D01*
X118133333Y-81492914D02*
X118038095Y-81540533D01*
X119466666Y-81588152D02*
X119466666Y-82254819D01*
X119228571Y-81207200D02*
X118990476Y-81921485D01*
X118990476Y-81921485D02*
X119609523Y-81921485D01*
X116657143Y-82554819D02*
X116752381Y-82554819D01*
X116752381Y-82554819D02*
X116847619Y-82602438D01*
X116847619Y-82602438D02*
X116895238Y-82650057D01*
X116895238Y-82650057D02*
X116942857Y-82745295D01*
X116942857Y-82745295D02*
X116990476Y-82935771D01*
X116990476Y-82935771D02*
X116990476Y-83173866D01*
X116990476Y-83173866D02*
X116942857Y-83364342D01*
X116942857Y-83364342D02*
X116895238Y-83459580D01*
X116895238Y-83459580D02*
X116847619Y-83507200D01*
X116847619Y-83507200D02*
X116752381Y-83554819D01*
X116752381Y-83554819D02*
X116657143Y-83554819D01*
X116657143Y-83554819D02*
X116561905Y-83507200D01*
X116561905Y-83507200D02*
X116514286Y-83459580D01*
X116514286Y-83459580D02*
X116466667Y-83364342D01*
X116466667Y-83364342D02*
X116419048Y-83173866D01*
X116419048Y-83173866D02*
X116419048Y-82935771D01*
X116419048Y-82935771D02*
X116466667Y-82745295D01*
X116466667Y-82745295D02*
X116514286Y-82650057D01*
X116514286Y-82650057D02*
X116561905Y-82602438D01*
X116561905Y-82602438D02*
X116657143Y-82554819D01*
X117419048Y-83459580D02*
X117466667Y-83507200D01*
X117466667Y-83507200D02*
X117419048Y-83554819D01*
X117419048Y-83554819D02*
X117371429Y-83507200D01*
X117371429Y-83507200D02*
X117419048Y-83459580D01*
X117419048Y-83459580D02*
X117419048Y-83554819D01*
X118419047Y-83554819D02*
X117847619Y-83554819D01*
X118133333Y-83554819D02*
X118133333Y-82554819D01*
X118133333Y-82554819D02*
X118038095Y-82697676D01*
X118038095Y-82697676D02*
X117942857Y-82792914D01*
X117942857Y-82792914D02*
X117847619Y-82840533D01*
X119276190Y-82888152D02*
X119276190Y-83554819D01*
X118847619Y-82888152D02*
X118847619Y-83411961D01*
X118847619Y-83411961D02*
X118895238Y-83507200D01*
X118895238Y-83507200D02*
X118990476Y-83554819D01*
X118990476Y-83554819D02*
X119133333Y-83554819D01*
X119133333Y-83554819D02*
X119228571Y-83507200D01*
X119228571Y-83507200D02*
X119276190Y-83459580D01*
X120085714Y-83031009D02*
X119752381Y-83031009D01*
X119752381Y-83554819D02*
X119752381Y-82554819D01*
X119752381Y-82554819D02*
X120228571Y-82554819D01*
X149966666Y-86856009D02*
X149633333Y-86856009D01*
X149633333Y-87379819D02*
X149633333Y-86379819D01*
X149633333Y-86379819D02*
X150109523Y-86379819D01*
X150823809Y-86856009D02*
X150966666Y-86903628D01*
X150966666Y-86903628D02*
X151014285Y-86951247D01*
X151014285Y-86951247D02*
X151061904Y-87046485D01*
X151061904Y-87046485D02*
X151061904Y-87189342D01*
X151061904Y-87189342D02*
X151014285Y-87284580D01*
X151014285Y-87284580D02*
X150966666Y-87332200D01*
X150966666Y-87332200D02*
X150871428Y-87379819D01*
X150871428Y-87379819D02*
X150490476Y-87379819D01*
X150490476Y-87379819D02*
X150490476Y-86379819D01*
X150490476Y-86379819D02*
X150823809Y-86379819D01*
X150823809Y-86379819D02*
X150919047Y-86427438D01*
X150919047Y-86427438D02*
X150966666Y-86475057D01*
X150966666Y-86475057D02*
X151014285Y-86570295D01*
X151014285Y-86570295D02*
X151014285Y-86665533D01*
X151014285Y-86665533D02*
X150966666Y-86760771D01*
X150966666Y-86760771D02*
X150919047Y-86808390D01*
X150919047Y-86808390D02*
X150823809Y-86856009D01*
X150823809Y-86856009D02*
X150490476Y-86856009D01*
X152014285Y-87379819D02*
X151442857Y-87379819D01*
X151728571Y-87379819D02*
X151728571Y-86379819D01*
X151728571Y-86379819D02*
X151633333Y-86522676D01*
X151633333Y-86522676D02*
X151538095Y-86617914D01*
X151538095Y-86617914D02*
X151442857Y-86665533D01*
X112357142Y-89442319D02*
X112023809Y-88966128D01*
X111785714Y-89442319D02*
X111785714Y-88442319D01*
X111785714Y-88442319D02*
X112166666Y-88442319D01*
X112166666Y-88442319D02*
X112261904Y-88489938D01*
X112261904Y-88489938D02*
X112309523Y-88537557D01*
X112309523Y-88537557D02*
X112357142Y-88632795D01*
X112357142Y-88632795D02*
X112357142Y-88775652D01*
X112357142Y-88775652D02*
X112309523Y-88870890D01*
X112309523Y-88870890D02*
X112261904Y-88918509D01*
X112261904Y-88918509D02*
X112166666Y-88966128D01*
X112166666Y-88966128D02*
X111785714Y-88966128D01*
X113309523Y-89442319D02*
X112738095Y-89442319D01*
X113023809Y-89442319D02*
X113023809Y-88442319D01*
X113023809Y-88442319D02*
X112928571Y-88585176D01*
X112928571Y-88585176D02*
X112833333Y-88680414D01*
X112833333Y-88680414D02*
X112738095Y-88728033D01*
X114166666Y-88775652D02*
X114166666Y-89442319D01*
X113928571Y-88394700D02*
X113690476Y-89108985D01*
X113690476Y-89108985D02*
X114309523Y-89108985D01*
X112309523Y-90075652D02*
X112309523Y-90742319D01*
X112071428Y-89694700D02*
X111833333Y-90408985D01*
X111833333Y-90408985D02*
X112452380Y-90408985D01*
X112738095Y-89742319D02*
X113404761Y-89742319D01*
X113404761Y-89742319D02*
X112976190Y-90742319D01*
X113785714Y-90742319D02*
X113785714Y-89742319D01*
X113880952Y-90361366D02*
X114166666Y-90742319D01*
X114166666Y-90075652D02*
X113785714Y-90456604D01*
X117507142Y-77854819D02*
X117173809Y-77378628D01*
X116935714Y-77854819D02*
X116935714Y-76854819D01*
X116935714Y-76854819D02*
X117316666Y-76854819D01*
X117316666Y-76854819D02*
X117411904Y-76902438D01*
X117411904Y-76902438D02*
X117459523Y-76950057D01*
X117459523Y-76950057D02*
X117507142Y-77045295D01*
X117507142Y-77045295D02*
X117507142Y-77188152D01*
X117507142Y-77188152D02*
X117459523Y-77283390D01*
X117459523Y-77283390D02*
X117411904Y-77331009D01*
X117411904Y-77331009D02*
X117316666Y-77378628D01*
X117316666Y-77378628D02*
X116935714Y-77378628D01*
X117888095Y-76950057D02*
X117935714Y-76902438D01*
X117935714Y-76902438D02*
X118030952Y-76854819D01*
X118030952Y-76854819D02*
X118269047Y-76854819D01*
X118269047Y-76854819D02*
X118364285Y-76902438D01*
X118364285Y-76902438D02*
X118411904Y-76950057D01*
X118411904Y-76950057D02*
X118459523Y-77045295D01*
X118459523Y-77045295D02*
X118459523Y-77140533D01*
X118459523Y-77140533D02*
X118411904Y-77283390D01*
X118411904Y-77283390D02*
X117840476Y-77854819D01*
X117840476Y-77854819D02*
X118459523Y-77854819D01*
X118792857Y-76854819D02*
X119411904Y-76854819D01*
X119411904Y-76854819D02*
X119078571Y-77235771D01*
X119078571Y-77235771D02*
X119221428Y-77235771D01*
X119221428Y-77235771D02*
X119316666Y-77283390D01*
X119316666Y-77283390D02*
X119364285Y-77331009D01*
X119364285Y-77331009D02*
X119411904Y-77426247D01*
X119411904Y-77426247D02*
X119411904Y-77664342D01*
X119411904Y-77664342D02*
X119364285Y-77759580D01*
X119364285Y-77759580D02*
X119316666Y-77807200D01*
X119316666Y-77807200D02*
X119221428Y-77854819D01*
X119221428Y-77854819D02*
X118935714Y-77854819D01*
X118935714Y-77854819D02*
X118840476Y-77807200D01*
X118840476Y-77807200D02*
X118792857Y-77759580D01*
X120526190Y-77188152D02*
X120526190Y-77854819D01*
X120288095Y-76807200D02*
X120050000Y-77521485D01*
X120050000Y-77521485D02*
X120669047Y-77521485D01*
X121050000Y-77759580D02*
X121097619Y-77807200D01*
X121097619Y-77807200D02*
X121050000Y-77854819D01*
X121050000Y-77854819D02*
X121002381Y-77807200D01*
X121002381Y-77807200D02*
X121050000Y-77759580D01*
X121050000Y-77759580D02*
X121050000Y-77854819D01*
X121430952Y-76854819D02*
X122097618Y-76854819D01*
X122097618Y-76854819D02*
X121669047Y-77854819D01*
X122301905Y-98591071D02*
X122301905Y-97591071D01*
X122301905Y-97591071D02*
X122540000Y-97591071D01*
X122540000Y-97591071D02*
X122682857Y-97638690D01*
X122682857Y-97638690D02*
X122778095Y-97733928D01*
X122778095Y-97733928D02*
X122825714Y-97829166D01*
X122825714Y-97829166D02*
X122873333Y-98019642D01*
X122873333Y-98019642D02*
X122873333Y-98162499D01*
X122873333Y-98162499D02*
X122825714Y-98352975D01*
X122825714Y-98352975D02*
X122778095Y-98448213D01*
X122778095Y-98448213D02*
X122682857Y-98543452D01*
X122682857Y-98543452D02*
X122540000Y-98591071D01*
X122540000Y-98591071D02*
X122301905Y-98591071D01*
X123825714Y-98591071D02*
X123254286Y-98591071D01*
X123540000Y-98591071D02*
X123540000Y-97591071D01*
X123540000Y-97591071D02*
X123444762Y-97733928D01*
X123444762Y-97733928D02*
X123349524Y-97829166D01*
X123349524Y-97829166D02*
X123254286Y-97876785D01*
X144166666Y-95381009D02*
X143833333Y-95381009D01*
X143833333Y-95904819D02*
X143833333Y-94904819D01*
X143833333Y-94904819D02*
X144309523Y-94904819D01*
X145023809Y-95381009D02*
X145166666Y-95428628D01*
X145166666Y-95428628D02*
X145214285Y-95476247D01*
X145214285Y-95476247D02*
X145261904Y-95571485D01*
X145261904Y-95571485D02*
X145261904Y-95714342D01*
X145261904Y-95714342D02*
X145214285Y-95809580D01*
X145214285Y-95809580D02*
X145166666Y-95857200D01*
X145166666Y-95857200D02*
X145071428Y-95904819D01*
X145071428Y-95904819D02*
X144690476Y-95904819D01*
X144690476Y-95904819D02*
X144690476Y-94904819D01*
X144690476Y-94904819D02*
X145023809Y-94904819D01*
X145023809Y-94904819D02*
X145119047Y-94952438D01*
X145119047Y-94952438D02*
X145166666Y-95000057D01*
X145166666Y-95000057D02*
X145214285Y-95095295D01*
X145214285Y-95095295D02*
X145214285Y-95190533D01*
X145214285Y-95190533D02*
X145166666Y-95285771D01*
X145166666Y-95285771D02*
X145119047Y-95333390D01*
X145119047Y-95333390D02*
X145023809Y-95381009D01*
X145023809Y-95381009D02*
X144690476Y-95381009D01*
X145642857Y-95000057D02*
X145690476Y-94952438D01*
X145690476Y-94952438D02*
X145785714Y-94904819D01*
X145785714Y-94904819D02*
X146023809Y-94904819D01*
X146023809Y-94904819D02*
X146119047Y-94952438D01*
X146119047Y-94952438D02*
X146166666Y-95000057D01*
X146166666Y-95000057D02*
X146214285Y-95095295D01*
X146214285Y-95095295D02*
X146214285Y-95190533D01*
X146214285Y-95190533D02*
X146166666Y-95333390D01*
X146166666Y-95333390D02*
X145595238Y-95904819D01*
X145595238Y-95904819D02*
X146214285Y-95904819D01*
X135357142Y-64154819D02*
X135023809Y-63678628D01*
X134785714Y-64154819D02*
X134785714Y-63154819D01*
X134785714Y-63154819D02*
X135166666Y-63154819D01*
X135166666Y-63154819D02*
X135261904Y-63202438D01*
X135261904Y-63202438D02*
X135309523Y-63250057D01*
X135309523Y-63250057D02*
X135357142Y-63345295D01*
X135357142Y-63345295D02*
X135357142Y-63488152D01*
X135357142Y-63488152D02*
X135309523Y-63583390D01*
X135309523Y-63583390D02*
X135261904Y-63631009D01*
X135261904Y-63631009D02*
X135166666Y-63678628D01*
X135166666Y-63678628D02*
X134785714Y-63678628D01*
X135738095Y-63250057D02*
X135785714Y-63202438D01*
X135785714Y-63202438D02*
X135880952Y-63154819D01*
X135880952Y-63154819D02*
X136119047Y-63154819D01*
X136119047Y-63154819D02*
X136214285Y-63202438D01*
X136214285Y-63202438D02*
X136261904Y-63250057D01*
X136261904Y-63250057D02*
X136309523Y-63345295D01*
X136309523Y-63345295D02*
X136309523Y-63440533D01*
X136309523Y-63440533D02*
X136261904Y-63583390D01*
X136261904Y-63583390D02*
X135690476Y-64154819D01*
X135690476Y-64154819D02*
X136309523Y-64154819D01*
X137214285Y-63154819D02*
X136738095Y-63154819D01*
X136738095Y-63154819D02*
X136690476Y-63631009D01*
X136690476Y-63631009D02*
X136738095Y-63583390D01*
X136738095Y-63583390D02*
X136833333Y-63535771D01*
X136833333Y-63535771D02*
X137071428Y-63535771D01*
X137071428Y-63535771D02*
X137166666Y-63583390D01*
X137166666Y-63583390D02*
X137214285Y-63631009D01*
X137214285Y-63631009D02*
X137261904Y-63726247D01*
X137261904Y-63726247D02*
X137261904Y-63964342D01*
X137261904Y-63964342D02*
X137214285Y-64059580D01*
X137214285Y-64059580D02*
X137166666Y-64107200D01*
X137166666Y-64107200D02*
X137071428Y-64154819D01*
X137071428Y-64154819D02*
X136833333Y-64154819D01*
X136833333Y-64154819D02*
X136738095Y-64107200D01*
X136738095Y-64107200D02*
X136690476Y-64059580D01*
X138709523Y-64154819D02*
X138138095Y-64154819D01*
X138423809Y-64154819D02*
X138423809Y-63154819D01*
X138423809Y-63154819D02*
X138328571Y-63297676D01*
X138328571Y-63297676D02*
X138233333Y-63392914D01*
X138233333Y-63392914D02*
X138138095Y-63440533D01*
X139328571Y-63154819D02*
X139423809Y-63154819D01*
X139423809Y-63154819D02*
X139519047Y-63202438D01*
X139519047Y-63202438D02*
X139566666Y-63250057D01*
X139566666Y-63250057D02*
X139614285Y-63345295D01*
X139614285Y-63345295D02*
X139661904Y-63535771D01*
X139661904Y-63535771D02*
X139661904Y-63773866D01*
X139661904Y-63773866D02*
X139614285Y-63964342D01*
X139614285Y-63964342D02*
X139566666Y-64059580D01*
X139566666Y-64059580D02*
X139519047Y-64107200D01*
X139519047Y-64107200D02*
X139423809Y-64154819D01*
X139423809Y-64154819D02*
X139328571Y-64154819D01*
X139328571Y-64154819D02*
X139233333Y-64107200D01*
X139233333Y-64107200D02*
X139185714Y-64059580D01*
X139185714Y-64059580D02*
X139138095Y-63964342D01*
X139138095Y-63964342D02*
X139090476Y-63773866D01*
X139090476Y-63773866D02*
X139090476Y-63535771D01*
X139090476Y-63535771D02*
X139138095Y-63345295D01*
X139138095Y-63345295D02*
X139185714Y-63250057D01*
X139185714Y-63250057D02*
X139233333Y-63202438D01*
X139233333Y-63202438D02*
X139328571Y-63154819D01*
X159483333Y-85467319D02*
X159150000Y-84991128D01*
X158911905Y-85467319D02*
X158911905Y-84467319D01*
X158911905Y-84467319D02*
X159292857Y-84467319D01*
X159292857Y-84467319D02*
X159388095Y-84514938D01*
X159388095Y-84514938D02*
X159435714Y-84562557D01*
X159435714Y-84562557D02*
X159483333Y-84657795D01*
X159483333Y-84657795D02*
X159483333Y-84800652D01*
X159483333Y-84800652D02*
X159435714Y-84895890D01*
X159435714Y-84895890D02*
X159388095Y-84943509D01*
X159388095Y-84943509D02*
X159292857Y-84991128D01*
X159292857Y-84991128D02*
X158911905Y-84991128D01*
X159816667Y-84467319D02*
X160483333Y-84467319D01*
X160483333Y-84467319D02*
X160054762Y-85467319D01*
X159233333Y-86817319D02*
X158661905Y-86817319D01*
X158947619Y-86817319D02*
X158947619Y-85817319D01*
X158947619Y-85817319D02*
X158852381Y-85960176D01*
X158852381Y-85960176D02*
X158757143Y-86055414D01*
X158757143Y-86055414D02*
X158661905Y-86103033D01*
X159852381Y-85817319D02*
X159947619Y-85817319D01*
X159947619Y-85817319D02*
X160042857Y-85864938D01*
X160042857Y-85864938D02*
X160090476Y-85912557D01*
X160090476Y-85912557D02*
X160138095Y-86007795D01*
X160138095Y-86007795D02*
X160185714Y-86198271D01*
X160185714Y-86198271D02*
X160185714Y-86436366D01*
X160185714Y-86436366D02*
X160138095Y-86626842D01*
X160138095Y-86626842D02*
X160090476Y-86722080D01*
X160090476Y-86722080D02*
X160042857Y-86769700D01*
X160042857Y-86769700D02*
X159947619Y-86817319D01*
X159947619Y-86817319D02*
X159852381Y-86817319D01*
X159852381Y-86817319D02*
X159757143Y-86769700D01*
X159757143Y-86769700D02*
X159709524Y-86722080D01*
X159709524Y-86722080D02*
X159661905Y-86626842D01*
X159661905Y-86626842D02*
X159614286Y-86436366D01*
X159614286Y-86436366D02*
X159614286Y-86198271D01*
X159614286Y-86198271D02*
X159661905Y-86007795D01*
X159661905Y-86007795D02*
X159709524Y-85912557D01*
X159709524Y-85912557D02*
X159757143Y-85864938D01*
X159757143Y-85864938D02*
X159852381Y-85817319D01*
X160804762Y-85817319D02*
X160900000Y-85817319D01*
X160900000Y-85817319D02*
X160995238Y-85864938D01*
X160995238Y-85864938D02*
X161042857Y-85912557D01*
X161042857Y-85912557D02*
X161090476Y-86007795D01*
X161090476Y-86007795D02*
X161138095Y-86198271D01*
X161138095Y-86198271D02*
X161138095Y-86436366D01*
X161138095Y-86436366D02*
X161090476Y-86626842D01*
X161090476Y-86626842D02*
X161042857Y-86722080D01*
X161042857Y-86722080D02*
X160995238Y-86769700D01*
X160995238Y-86769700D02*
X160900000Y-86817319D01*
X160900000Y-86817319D02*
X160804762Y-86817319D01*
X160804762Y-86817319D02*
X160709524Y-86769700D01*
X160709524Y-86769700D02*
X160661905Y-86722080D01*
X160661905Y-86722080D02*
X160614286Y-86626842D01*
X160614286Y-86626842D02*
X160566667Y-86436366D01*
X160566667Y-86436366D02*
X160566667Y-86198271D01*
X160566667Y-86198271D02*
X160614286Y-86007795D01*
X160614286Y-86007795D02*
X160661905Y-85912557D01*
X160661905Y-85912557D02*
X160709524Y-85864938D01*
X160709524Y-85864938D02*
X160804762Y-85817319D01*
X136083333Y-82679819D02*
X135750000Y-82203628D01*
X135511905Y-82679819D02*
X135511905Y-81679819D01*
X135511905Y-81679819D02*
X135892857Y-81679819D01*
X135892857Y-81679819D02*
X135988095Y-81727438D01*
X135988095Y-81727438D02*
X136035714Y-81775057D01*
X136035714Y-81775057D02*
X136083333Y-81870295D01*
X136083333Y-81870295D02*
X136083333Y-82013152D01*
X136083333Y-82013152D02*
X136035714Y-82108390D01*
X136035714Y-82108390D02*
X135988095Y-82156009D01*
X135988095Y-82156009D02*
X135892857Y-82203628D01*
X135892857Y-82203628D02*
X135511905Y-82203628D01*
X136654762Y-82108390D02*
X136559524Y-82060771D01*
X136559524Y-82060771D02*
X136511905Y-82013152D01*
X136511905Y-82013152D02*
X136464286Y-81917914D01*
X136464286Y-81917914D02*
X136464286Y-81870295D01*
X136464286Y-81870295D02*
X136511905Y-81775057D01*
X136511905Y-81775057D02*
X136559524Y-81727438D01*
X136559524Y-81727438D02*
X136654762Y-81679819D01*
X136654762Y-81679819D02*
X136845238Y-81679819D01*
X136845238Y-81679819D02*
X136940476Y-81727438D01*
X136940476Y-81727438D02*
X136988095Y-81775057D01*
X136988095Y-81775057D02*
X137035714Y-81870295D01*
X137035714Y-81870295D02*
X137035714Y-81917914D01*
X137035714Y-81917914D02*
X136988095Y-82013152D01*
X136988095Y-82013152D02*
X136940476Y-82060771D01*
X136940476Y-82060771D02*
X136845238Y-82108390D01*
X136845238Y-82108390D02*
X136654762Y-82108390D01*
X136654762Y-82108390D02*
X136559524Y-82156009D01*
X136559524Y-82156009D02*
X136511905Y-82203628D01*
X136511905Y-82203628D02*
X136464286Y-82298866D01*
X136464286Y-82298866D02*
X136464286Y-82489342D01*
X136464286Y-82489342D02*
X136511905Y-82584580D01*
X136511905Y-82584580D02*
X136559524Y-82632200D01*
X136559524Y-82632200D02*
X136654762Y-82679819D01*
X136654762Y-82679819D02*
X136845238Y-82679819D01*
X136845238Y-82679819D02*
X136940476Y-82632200D01*
X136940476Y-82632200D02*
X136988095Y-82584580D01*
X136988095Y-82584580D02*
X137035714Y-82489342D01*
X137035714Y-82489342D02*
X137035714Y-82298866D01*
X137035714Y-82298866D02*
X136988095Y-82203628D01*
X136988095Y-82203628D02*
X136940476Y-82156009D01*
X136940476Y-82156009D02*
X136845238Y-82108390D01*
X136036904Y-83004819D02*
X135560714Y-83004819D01*
X135560714Y-83004819D02*
X135513095Y-83481009D01*
X135513095Y-83481009D02*
X135560714Y-83433390D01*
X135560714Y-83433390D02*
X135655952Y-83385771D01*
X135655952Y-83385771D02*
X135894047Y-83385771D01*
X135894047Y-83385771D02*
X135989285Y-83433390D01*
X135989285Y-83433390D02*
X136036904Y-83481009D01*
X136036904Y-83481009D02*
X136084523Y-83576247D01*
X136084523Y-83576247D02*
X136084523Y-83814342D01*
X136084523Y-83814342D02*
X136036904Y-83909580D01*
X136036904Y-83909580D02*
X135989285Y-83957200D01*
X135989285Y-83957200D02*
X135894047Y-84004819D01*
X135894047Y-84004819D02*
X135655952Y-84004819D01*
X135655952Y-84004819D02*
X135560714Y-83957200D01*
X135560714Y-83957200D02*
X135513095Y-83909580D01*
X137036904Y-84004819D02*
X136465476Y-84004819D01*
X136751190Y-84004819D02*
X136751190Y-83004819D01*
X136751190Y-83004819D02*
X136655952Y-83147676D01*
X136655952Y-83147676D02*
X136560714Y-83242914D01*
X136560714Y-83242914D02*
X136465476Y-83290533D01*
X117182142Y-74004819D02*
X116848809Y-73528628D01*
X116610714Y-74004819D02*
X116610714Y-73004819D01*
X116610714Y-73004819D02*
X116991666Y-73004819D01*
X116991666Y-73004819D02*
X117086904Y-73052438D01*
X117086904Y-73052438D02*
X117134523Y-73100057D01*
X117134523Y-73100057D02*
X117182142Y-73195295D01*
X117182142Y-73195295D02*
X117182142Y-73338152D01*
X117182142Y-73338152D02*
X117134523Y-73433390D01*
X117134523Y-73433390D02*
X117086904Y-73481009D01*
X117086904Y-73481009D02*
X116991666Y-73528628D01*
X116991666Y-73528628D02*
X116610714Y-73528628D01*
X117563095Y-73100057D02*
X117610714Y-73052438D01*
X117610714Y-73052438D02*
X117705952Y-73004819D01*
X117705952Y-73004819D02*
X117944047Y-73004819D01*
X117944047Y-73004819D02*
X118039285Y-73052438D01*
X118039285Y-73052438D02*
X118086904Y-73100057D01*
X118086904Y-73100057D02*
X118134523Y-73195295D01*
X118134523Y-73195295D02*
X118134523Y-73290533D01*
X118134523Y-73290533D02*
X118086904Y-73433390D01*
X118086904Y-73433390D02*
X117515476Y-74004819D01*
X117515476Y-74004819D02*
X118134523Y-74004819D01*
X119086904Y-74004819D02*
X118515476Y-74004819D01*
X118801190Y-74004819D02*
X118801190Y-73004819D01*
X118801190Y-73004819D02*
X118705952Y-73147676D01*
X118705952Y-73147676D02*
X118610714Y-73242914D01*
X118610714Y-73242914D02*
X118515476Y-73290533D01*
X117133333Y-75304819D02*
X116561905Y-75304819D01*
X116847619Y-75304819D02*
X116847619Y-74304819D01*
X116847619Y-74304819D02*
X116752381Y-74447676D01*
X116752381Y-74447676D02*
X116657143Y-74542914D01*
X116657143Y-74542914D02*
X116561905Y-74590533D01*
X117752381Y-74304819D02*
X117847619Y-74304819D01*
X117847619Y-74304819D02*
X117942857Y-74352438D01*
X117942857Y-74352438D02*
X117990476Y-74400057D01*
X117990476Y-74400057D02*
X118038095Y-74495295D01*
X118038095Y-74495295D02*
X118085714Y-74685771D01*
X118085714Y-74685771D02*
X118085714Y-74923866D01*
X118085714Y-74923866D02*
X118038095Y-75114342D01*
X118038095Y-75114342D02*
X117990476Y-75209580D01*
X117990476Y-75209580D02*
X117942857Y-75257200D01*
X117942857Y-75257200D02*
X117847619Y-75304819D01*
X117847619Y-75304819D02*
X117752381Y-75304819D01*
X117752381Y-75304819D02*
X117657143Y-75257200D01*
X117657143Y-75257200D02*
X117609524Y-75209580D01*
X117609524Y-75209580D02*
X117561905Y-75114342D01*
X117561905Y-75114342D02*
X117514286Y-74923866D01*
X117514286Y-74923866D02*
X117514286Y-74685771D01*
X117514286Y-74685771D02*
X117561905Y-74495295D01*
X117561905Y-74495295D02*
X117609524Y-74400057D01*
X117609524Y-74400057D02*
X117657143Y-74352438D01*
X117657143Y-74352438D02*
X117752381Y-74304819D01*
X118704762Y-74304819D02*
X118800000Y-74304819D01*
X118800000Y-74304819D02*
X118895238Y-74352438D01*
X118895238Y-74352438D02*
X118942857Y-74400057D01*
X118942857Y-74400057D02*
X118990476Y-74495295D01*
X118990476Y-74495295D02*
X119038095Y-74685771D01*
X119038095Y-74685771D02*
X119038095Y-74923866D01*
X119038095Y-74923866D02*
X118990476Y-75114342D01*
X118990476Y-75114342D02*
X118942857Y-75209580D01*
X118942857Y-75209580D02*
X118895238Y-75257200D01*
X118895238Y-75257200D02*
X118800000Y-75304819D01*
X118800000Y-75304819D02*
X118704762Y-75304819D01*
X118704762Y-75304819D02*
X118609524Y-75257200D01*
X118609524Y-75257200D02*
X118561905Y-75209580D01*
X118561905Y-75209580D02*
X118514286Y-75114342D01*
X118514286Y-75114342D02*
X118466667Y-74923866D01*
X118466667Y-74923866D02*
X118466667Y-74685771D01*
X118466667Y-74685771D02*
X118514286Y-74495295D01*
X118514286Y-74495295D02*
X118561905Y-74400057D01*
X118561905Y-74400057D02*
X118609524Y-74352438D01*
X118609524Y-74352438D02*
X118704762Y-74304819D01*
X134857142Y-69154819D02*
X134523809Y-68678628D01*
X134285714Y-69154819D02*
X134285714Y-68154819D01*
X134285714Y-68154819D02*
X134666666Y-68154819D01*
X134666666Y-68154819D02*
X134761904Y-68202438D01*
X134761904Y-68202438D02*
X134809523Y-68250057D01*
X134809523Y-68250057D02*
X134857142Y-68345295D01*
X134857142Y-68345295D02*
X134857142Y-68488152D01*
X134857142Y-68488152D02*
X134809523Y-68583390D01*
X134809523Y-68583390D02*
X134761904Y-68631009D01*
X134761904Y-68631009D02*
X134666666Y-68678628D01*
X134666666Y-68678628D02*
X134285714Y-68678628D01*
X135238095Y-68250057D02*
X135285714Y-68202438D01*
X135285714Y-68202438D02*
X135380952Y-68154819D01*
X135380952Y-68154819D02*
X135619047Y-68154819D01*
X135619047Y-68154819D02*
X135714285Y-68202438D01*
X135714285Y-68202438D02*
X135761904Y-68250057D01*
X135761904Y-68250057D02*
X135809523Y-68345295D01*
X135809523Y-68345295D02*
X135809523Y-68440533D01*
X135809523Y-68440533D02*
X135761904Y-68583390D01*
X135761904Y-68583390D02*
X135190476Y-69154819D01*
X135190476Y-69154819D02*
X135809523Y-69154819D01*
X136666666Y-68154819D02*
X136476190Y-68154819D01*
X136476190Y-68154819D02*
X136380952Y-68202438D01*
X136380952Y-68202438D02*
X136333333Y-68250057D01*
X136333333Y-68250057D02*
X136238095Y-68392914D01*
X136238095Y-68392914D02*
X136190476Y-68583390D01*
X136190476Y-68583390D02*
X136190476Y-68964342D01*
X136190476Y-68964342D02*
X136238095Y-69059580D01*
X136238095Y-69059580D02*
X136285714Y-69107200D01*
X136285714Y-69107200D02*
X136380952Y-69154819D01*
X136380952Y-69154819D02*
X136571428Y-69154819D01*
X136571428Y-69154819D02*
X136666666Y-69107200D01*
X136666666Y-69107200D02*
X136714285Y-69059580D01*
X136714285Y-69059580D02*
X136761904Y-68964342D01*
X136761904Y-68964342D02*
X136761904Y-68726247D01*
X136761904Y-68726247D02*
X136714285Y-68631009D01*
X136714285Y-68631009D02*
X136666666Y-68583390D01*
X136666666Y-68583390D02*
X136571428Y-68535771D01*
X136571428Y-68535771D02*
X136380952Y-68535771D01*
X136380952Y-68535771D02*
X136285714Y-68583390D01*
X136285714Y-68583390D02*
X136238095Y-68631009D01*
X136238095Y-68631009D02*
X136190476Y-68726247D01*
X138009523Y-76154819D02*
X137438095Y-76154819D01*
X137723809Y-76154819D02*
X137723809Y-75154819D01*
X137723809Y-75154819D02*
X137628571Y-75297676D01*
X137628571Y-75297676D02*
X137533333Y-75392914D01*
X137533333Y-75392914D02*
X137438095Y-75440533D01*
X138628571Y-75154819D02*
X138723809Y-75154819D01*
X138723809Y-75154819D02*
X138819047Y-75202438D01*
X138819047Y-75202438D02*
X138866666Y-75250057D01*
X138866666Y-75250057D02*
X138914285Y-75345295D01*
X138914285Y-75345295D02*
X138961904Y-75535771D01*
X138961904Y-75535771D02*
X138961904Y-75773866D01*
X138961904Y-75773866D02*
X138914285Y-75964342D01*
X138914285Y-75964342D02*
X138866666Y-76059580D01*
X138866666Y-76059580D02*
X138819047Y-76107200D01*
X138819047Y-76107200D02*
X138723809Y-76154819D01*
X138723809Y-76154819D02*
X138628571Y-76154819D01*
X138628571Y-76154819D02*
X138533333Y-76107200D01*
X138533333Y-76107200D02*
X138485714Y-76059580D01*
X138485714Y-76059580D02*
X138438095Y-75964342D01*
X138438095Y-75964342D02*
X138390476Y-75773866D01*
X138390476Y-75773866D02*
X138390476Y-75535771D01*
X138390476Y-75535771D02*
X138438095Y-75345295D01*
X138438095Y-75345295D02*
X138485714Y-75250057D01*
X138485714Y-75250057D02*
X138533333Y-75202438D01*
X138533333Y-75202438D02*
X138628571Y-75154819D01*
X134857142Y-76154819D02*
X134523809Y-75678628D01*
X134285714Y-76154819D02*
X134285714Y-75154819D01*
X134285714Y-75154819D02*
X134666666Y-75154819D01*
X134666666Y-75154819D02*
X134761904Y-75202438D01*
X134761904Y-75202438D02*
X134809523Y-75250057D01*
X134809523Y-75250057D02*
X134857142Y-75345295D01*
X134857142Y-75345295D02*
X134857142Y-75488152D01*
X134857142Y-75488152D02*
X134809523Y-75583390D01*
X134809523Y-75583390D02*
X134761904Y-75631009D01*
X134761904Y-75631009D02*
X134666666Y-75678628D01*
X134666666Y-75678628D02*
X134285714Y-75678628D01*
X135238095Y-75250057D02*
X135285714Y-75202438D01*
X135285714Y-75202438D02*
X135380952Y-75154819D01*
X135380952Y-75154819D02*
X135619047Y-75154819D01*
X135619047Y-75154819D02*
X135714285Y-75202438D01*
X135714285Y-75202438D02*
X135761904Y-75250057D01*
X135761904Y-75250057D02*
X135809523Y-75345295D01*
X135809523Y-75345295D02*
X135809523Y-75440533D01*
X135809523Y-75440533D02*
X135761904Y-75583390D01*
X135761904Y-75583390D02*
X135190476Y-76154819D01*
X135190476Y-76154819D02*
X135809523Y-76154819D01*
X136666666Y-75154819D02*
X136476190Y-75154819D01*
X136476190Y-75154819D02*
X136380952Y-75202438D01*
X136380952Y-75202438D02*
X136333333Y-75250057D01*
X136333333Y-75250057D02*
X136238095Y-75392914D01*
X136238095Y-75392914D02*
X136190476Y-75583390D01*
X136190476Y-75583390D02*
X136190476Y-75964342D01*
X136190476Y-75964342D02*
X136238095Y-76059580D01*
X136238095Y-76059580D02*
X136285714Y-76107200D01*
X136285714Y-76107200D02*
X136380952Y-76154819D01*
X136380952Y-76154819D02*
X136571428Y-76154819D01*
X136571428Y-76154819D02*
X136666666Y-76107200D01*
X136666666Y-76107200D02*
X136714285Y-76059580D01*
X136714285Y-76059580D02*
X136761904Y-75964342D01*
X136761904Y-75964342D02*
X136761904Y-75726247D01*
X136761904Y-75726247D02*
X136714285Y-75631009D01*
X136714285Y-75631009D02*
X136666666Y-75583390D01*
X136666666Y-75583390D02*
X136571428Y-75535771D01*
X136571428Y-75535771D02*
X136380952Y-75535771D01*
X136380952Y-75535771D02*
X136285714Y-75583390D01*
X136285714Y-75583390D02*
X136238095Y-75631009D01*
X136238095Y-75631009D02*
X136190476Y-75726247D01*
X119807142Y-79259580D02*
X119759523Y-79307200D01*
X119759523Y-79307200D02*
X119616666Y-79354819D01*
X119616666Y-79354819D02*
X119521428Y-79354819D01*
X119521428Y-79354819D02*
X119378571Y-79307200D01*
X119378571Y-79307200D02*
X119283333Y-79211961D01*
X119283333Y-79211961D02*
X119235714Y-79116723D01*
X119235714Y-79116723D02*
X119188095Y-78926247D01*
X119188095Y-78926247D02*
X119188095Y-78783390D01*
X119188095Y-78783390D02*
X119235714Y-78592914D01*
X119235714Y-78592914D02*
X119283333Y-78497676D01*
X119283333Y-78497676D02*
X119378571Y-78402438D01*
X119378571Y-78402438D02*
X119521428Y-78354819D01*
X119521428Y-78354819D02*
X119616666Y-78354819D01*
X119616666Y-78354819D02*
X119759523Y-78402438D01*
X119759523Y-78402438D02*
X119807142Y-78450057D01*
X120759523Y-79354819D02*
X120188095Y-79354819D01*
X120473809Y-79354819D02*
X120473809Y-78354819D01*
X120473809Y-78354819D02*
X120378571Y-78497676D01*
X120378571Y-78497676D02*
X120283333Y-78592914D01*
X120283333Y-78592914D02*
X120188095Y-78640533D01*
X121664285Y-78354819D02*
X121188095Y-78354819D01*
X121188095Y-78354819D02*
X121140476Y-78831009D01*
X121140476Y-78831009D02*
X121188095Y-78783390D01*
X121188095Y-78783390D02*
X121283333Y-78735771D01*
X121283333Y-78735771D02*
X121521428Y-78735771D01*
X121521428Y-78735771D02*
X121616666Y-78783390D01*
X121616666Y-78783390D02*
X121664285Y-78831009D01*
X121664285Y-78831009D02*
X121711904Y-78926247D01*
X121711904Y-78926247D02*
X121711904Y-79164342D01*
X121711904Y-79164342D02*
X121664285Y-79259580D01*
X121664285Y-79259580D02*
X121616666Y-79307200D01*
X121616666Y-79307200D02*
X121521428Y-79354819D01*
X121521428Y-79354819D02*
X121283333Y-79354819D01*
X121283333Y-79354819D02*
X121188095Y-79307200D01*
X121188095Y-79307200D02*
X121140476Y-79259580D01*
X118132143Y-79604819D02*
X118227381Y-79604819D01*
X118227381Y-79604819D02*
X118322619Y-79652438D01*
X118322619Y-79652438D02*
X118370238Y-79700057D01*
X118370238Y-79700057D02*
X118417857Y-79795295D01*
X118417857Y-79795295D02*
X118465476Y-79985771D01*
X118465476Y-79985771D02*
X118465476Y-80223866D01*
X118465476Y-80223866D02*
X118417857Y-80414342D01*
X118417857Y-80414342D02*
X118370238Y-80509580D01*
X118370238Y-80509580D02*
X118322619Y-80557200D01*
X118322619Y-80557200D02*
X118227381Y-80604819D01*
X118227381Y-80604819D02*
X118132143Y-80604819D01*
X118132143Y-80604819D02*
X118036905Y-80557200D01*
X118036905Y-80557200D02*
X117989286Y-80509580D01*
X117989286Y-80509580D02*
X117941667Y-80414342D01*
X117941667Y-80414342D02*
X117894048Y-80223866D01*
X117894048Y-80223866D02*
X117894048Y-79985771D01*
X117894048Y-79985771D02*
X117941667Y-79795295D01*
X117941667Y-79795295D02*
X117989286Y-79700057D01*
X117989286Y-79700057D02*
X118036905Y-79652438D01*
X118036905Y-79652438D02*
X118132143Y-79604819D01*
X118894048Y-80509580D02*
X118941667Y-80557200D01*
X118941667Y-80557200D02*
X118894048Y-80604819D01*
X118894048Y-80604819D02*
X118846429Y-80557200D01*
X118846429Y-80557200D02*
X118894048Y-80509580D01*
X118894048Y-80509580D02*
X118894048Y-80604819D01*
X119894047Y-80604819D02*
X119322619Y-80604819D01*
X119608333Y-80604819D02*
X119608333Y-79604819D01*
X119608333Y-79604819D02*
X119513095Y-79747676D01*
X119513095Y-79747676D02*
X119417857Y-79842914D01*
X119417857Y-79842914D02*
X119322619Y-79890533D01*
X120751190Y-79938152D02*
X120751190Y-80604819D01*
X120322619Y-79938152D02*
X120322619Y-80461961D01*
X120322619Y-80461961D02*
X120370238Y-80557200D01*
X120370238Y-80557200D02*
X120465476Y-80604819D01*
X120465476Y-80604819D02*
X120608333Y-80604819D01*
X120608333Y-80604819D02*
X120703571Y-80557200D01*
X120703571Y-80557200D02*
X120751190Y-80509580D01*
X121560714Y-80081009D02*
X121227381Y-80081009D01*
X121227381Y-80604819D02*
X121227381Y-79604819D01*
X121227381Y-79604819D02*
X121703571Y-79604819D01*
X121931009Y-82933333D02*
X121931009Y-83266666D01*
X122454819Y-83266666D02*
X121454819Y-83266666D01*
X121454819Y-83266666D02*
X121454819Y-82790476D01*
X121931009Y-82076190D02*
X121978628Y-81933333D01*
X121978628Y-81933333D02*
X122026247Y-81885714D01*
X122026247Y-81885714D02*
X122121485Y-81838095D01*
X122121485Y-81838095D02*
X122264342Y-81838095D01*
X122264342Y-81838095D02*
X122359580Y-81885714D01*
X122359580Y-81885714D02*
X122407200Y-81933333D01*
X122407200Y-81933333D02*
X122454819Y-82028571D01*
X122454819Y-82028571D02*
X122454819Y-82409523D01*
X122454819Y-82409523D02*
X121454819Y-82409523D01*
X121454819Y-82409523D02*
X121454819Y-82076190D01*
X121454819Y-82076190D02*
X121502438Y-81980952D01*
X121502438Y-81980952D02*
X121550057Y-81933333D01*
X121550057Y-81933333D02*
X121645295Y-81885714D01*
X121645295Y-81885714D02*
X121740533Y-81885714D01*
X121740533Y-81885714D02*
X121835771Y-81933333D01*
X121835771Y-81933333D02*
X121883390Y-81980952D01*
X121883390Y-81980952D02*
X121931009Y-82076190D01*
X121931009Y-82076190D02*
X121931009Y-82409523D01*
X121454819Y-81504761D02*
X121454819Y-80885714D01*
X121454819Y-80885714D02*
X121835771Y-81219047D01*
X121835771Y-81219047D02*
X121835771Y-81076190D01*
X121835771Y-81076190D02*
X121883390Y-80980952D01*
X121883390Y-80980952D02*
X121931009Y-80933333D01*
X121931009Y-80933333D02*
X122026247Y-80885714D01*
X122026247Y-80885714D02*
X122264342Y-80885714D01*
X122264342Y-80885714D02*
X122359580Y-80933333D01*
X122359580Y-80933333D02*
X122407200Y-80980952D01*
X122407200Y-80980952D02*
X122454819Y-81076190D01*
X122454819Y-81076190D02*
X122454819Y-81361904D01*
X122454819Y-81361904D02*
X122407200Y-81457142D01*
X122407200Y-81457142D02*
X122359580Y-81504761D01*
X124654761Y-66575057D02*
X124559523Y-66527438D01*
X124559523Y-66527438D02*
X124464285Y-66432200D01*
X124464285Y-66432200D02*
X124321428Y-66289342D01*
X124321428Y-66289342D02*
X124226190Y-66241723D01*
X124226190Y-66241723D02*
X124130952Y-66241723D01*
X124178571Y-66479819D02*
X124083333Y-66432200D01*
X124083333Y-66432200D02*
X123988095Y-66336961D01*
X123988095Y-66336961D02*
X123940476Y-66146485D01*
X123940476Y-66146485D02*
X123940476Y-65813152D01*
X123940476Y-65813152D02*
X123988095Y-65622676D01*
X123988095Y-65622676D02*
X124083333Y-65527438D01*
X124083333Y-65527438D02*
X124178571Y-65479819D01*
X124178571Y-65479819D02*
X124369047Y-65479819D01*
X124369047Y-65479819D02*
X124464285Y-65527438D01*
X124464285Y-65527438D02*
X124559523Y-65622676D01*
X124559523Y-65622676D02*
X124607142Y-65813152D01*
X124607142Y-65813152D02*
X124607142Y-66146485D01*
X124607142Y-66146485D02*
X124559523Y-66336961D01*
X124559523Y-66336961D02*
X124464285Y-66432200D01*
X124464285Y-66432200D02*
X124369047Y-66479819D01*
X124369047Y-66479819D02*
X124178571Y-66479819D01*
X124940476Y-65479819D02*
X125607142Y-65479819D01*
X125607142Y-65479819D02*
X125178571Y-66479819D01*
X137583333Y-88229819D02*
X137250000Y-87753628D01*
X137011905Y-88229819D02*
X137011905Y-87229819D01*
X137011905Y-87229819D02*
X137392857Y-87229819D01*
X137392857Y-87229819D02*
X137488095Y-87277438D01*
X137488095Y-87277438D02*
X137535714Y-87325057D01*
X137535714Y-87325057D02*
X137583333Y-87420295D01*
X137583333Y-87420295D02*
X137583333Y-87563152D01*
X137583333Y-87563152D02*
X137535714Y-87658390D01*
X137535714Y-87658390D02*
X137488095Y-87706009D01*
X137488095Y-87706009D02*
X137392857Y-87753628D01*
X137392857Y-87753628D02*
X137011905Y-87753628D01*
X138440476Y-87229819D02*
X138250000Y-87229819D01*
X138250000Y-87229819D02*
X138154762Y-87277438D01*
X138154762Y-87277438D02*
X138107143Y-87325057D01*
X138107143Y-87325057D02*
X138011905Y-87467914D01*
X138011905Y-87467914D02*
X137964286Y-87658390D01*
X137964286Y-87658390D02*
X137964286Y-88039342D01*
X137964286Y-88039342D02*
X138011905Y-88134580D01*
X138011905Y-88134580D02*
X138059524Y-88182200D01*
X138059524Y-88182200D02*
X138154762Y-88229819D01*
X138154762Y-88229819D02*
X138345238Y-88229819D01*
X138345238Y-88229819D02*
X138440476Y-88182200D01*
X138440476Y-88182200D02*
X138488095Y-88134580D01*
X138488095Y-88134580D02*
X138535714Y-88039342D01*
X138535714Y-88039342D02*
X138535714Y-87801247D01*
X138535714Y-87801247D02*
X138488095Y-87706009D01*
X138488095Y-87706009D02*
X138440476Y-87658390D01*
X138440476Y-87658390D02*
X138345238Y-87610771D01*
X138345238Y-87610771D02*
X138154762Y-87610771D01*
X138154762Y-87610771D02*
X138059524Y-87658390D01*
X138059524Y-87658390D02*
X138011905Y-87706009D01*
X138011905Y-87706009D02*
X137964286Y-87801247D01*
X139486905Y-87350057D02*
X139534524Y-87302438D01*
X139534524Y-87302438D02*
X139629762Y-87254819D01*
X139629762Y-87254819D02*
X139867857Y-87254819D01*
X139867857Y-87254819D02*
X139963095Y-87302438D01*
X139963095Y-87302438D02*
X140010714Y-87350057D01*
X140010714Y-87350057D02*
X140058333Y-87445295D01*
X140058333Y-87445295D02*
X140058333Y-87540533D01*
X140058333Y-87540533D02*
X140010714Y-87683390D01*
X140010714Y-87683390D02*
X139439286Y-88254819D01*
X139439286Y-88254819D02*
X140058333Y-88254819D01*
X140439286Y-87350057D02*
X140486905Y-87302438D01*
X140486905Y-87302438D02*
X140582143Y-87254819D01*
X140582143Y-87254819D02*
X140820238Y-87254819D01*
X140820238Y-87254819D02*
X140915476Y-87302438D01*
X140915476Y-87302438D02*
X140963095Y-87350057D01*
X140963095Y-87350057D02*
X141010714Y-87445295D01*
X141010714Y-87445295D02*
X141010714Y-87540533D01*
X141010714Y-87540533D02*
X140963095Y-87683390D01*
X140963095Y-87683390D02*
X140391667Y-88254819D01*
X140391667Y-88254819D02*
X141010714Y-88254819D01*
X141629762Y-87254819D02*
X141725000Y-87254819D01*
X141725000Y-87254819D02*
X141820238Y-87302438D01*
X141820238Y-87302438D02*
X141867857Y-87350057D01*
X141867857Y-87350057D02*
X141915476Y-87445295D01*
X141915476Y-87445295D02*
X141963095Y-87635771D01*
X141963095Y-87635771D02*
X141963095Y-87873866D01*
X141963095Y-87873866D02*
X141915476Y-88064342D01*
X141915476Y-88064342D02*
X141867857Y-88159580D01*
X141867857Y-88159580D02*
X141820238Y-88207200D01*
X141820238Y-88207200D02*
X141725000Y-88254819D01*
X141725000Y-88254819D02*
X141629762Y-88254819D01*
X141629762Y-88254819D02*
X141534524Y-88207200D01*
X141534524Y-88207200D02*
X141486905Y-88159580D01*
X141486905Y-88159580D02*
X141439286Y-88064342D01*
X141439286Y-88064342D02*
X141391667Y-87873866D01*
X141391667Y-87873866D02*
X141391667Y-87635771D01*
X141391667Y-87635771D02*
X141439286Y-87445295D01*
X141439286Y-87445295D02*
X141486905Y-87350057D01*
X141486905Y-87350057D02*
X141534524Y-87302438D01*
X141534524Y-87302438D02*
X141629762Y-87254819D01*
X112007142Y-65034580D02*
X111959523Y-65082200D01*
X111959523Y-65082200D02*
X111816666Y-65129819D01*
X111816666Y-65129819D02*
X111721428Y-65129819D01*
X111721428Y-65129819D02*
X111578571Y-65082200D01*
X111578571Y-65082200D02*
X111483333Y-64986961D01*
X111483333Y-64986961D02*
X111435714Y-64891723D01*
X111435714Y-64891723D02*
X111388095Y-64701247D01*
X111388095Y-64701247D02*
X111388095Y-64558390D01*
X111388095Y-64558390D02*
X111435714Y-64367914D01*
X111435714Y-64367914D02*
X111483333Y-64272676D01*
X111483333Y-64272676D02*
X111578571Y-64177438D01*
X111578571Y-64177438D02*
X111721428Y-64129819D01*
X111721428Y-64129819D02*
X111816666Y-64129819D01*
X111816666Y-64129819D02*
X111959523Y-64177438D01*
X111959523Y-64177438D02*
X112007142Y-64225057D01*
X112959523Y-65129819D02*
X112388095Y-65129819D01*
X112673809Y-65129819D02*
X112673809Y-64129819D01*
X112673809Y-64129819D02*
X112578571Y-64272676D01*
X112578571Y-64272676D02*
X112483333Y-64367914D01*
X112483333Y-64367914D02*
X112388095Y-64415533D01*
X113435714Y-65129819D02*
X113626190Y-65129819D01*
X113626190Y-65129819D02*
X113721428Y-65082200D01*
X113721428Y-65082200D02*
X113769047Y-65034580D01*
X113769047Y-65034580D02*
X113864285Y-64891723D01*
X113864285Y-64891723D02*
X113911904Y-64701247D01*
X113911904Y-64701247D02*
X113911904Y-64320295D01*
X113911904Y-64320295D02*
X113864285Y-64225057D01*
X113864285Y-64225057D02*
X113816666Y-64177438D01*
X113816666Y-64177438D02*
X113721428Y-64129819D01*
X113721428Y-64129819D02*
X113530952Y-64129819D01*
X113530952Y-64129819D02*
X113435714Y-64177438D01*
X113435714Y-64177438D02*
X113388095Y-64225057D01*
X113388095Y-64225057D02*
X113340476Y-64320295D01*
X113340476Y-64320295D02*
X113340476Y-64558390D01*
X113340476Y-64558390D02*
X113388095Y-64653628D01*
X113388095Y-64653628D02*
X113435714Y-64701247D01*
X113435714Y-64701247D02*
X113530952Y-64748866D01*
X113530952Y-64748866D02*
X113721428Y-64748866D01*
X113721428Y-64748866D02*
X113816666Y-64701247D01*
X113816666Y-64701247D02*
X113864285Y-64653628D01*
X113864285Y-64653628D02*
X113911904Y-64558390D01*
X110382143Y-65404819D02*
X110477381Y-65404819D01*
X110477381Y-65404819D02*
X110572619Y-65452438D01*
X110572619Y-65452438D02*
X110620238Y-65500057D01*
X110620238Y-65500057D02*
X110667857Y-65595295D01*
X110667857Y-65595295D02*
X110715476Y-65785771D01*
X110715476Y-65785771D02*
X110715476Y-66023866D01*
X110715476Y-66023866D02*
X110667857Y-66214342D01*
X110667857Y-66214342D02*
X110620238Y-66309580D01*
X110620238Y-66309580D02*
X110572619Y-66357200D01*
X110572619Y-66357200D02*
X110477381Y-66404819D01*
X110477381Y-66404819D02*
X110382143Y-66404819D01*
X110382143Y-66404819D02*
X110286905Y-66357200D01*
X110286905Y-66357200D02*
X110239286Y-66309580D01*
X110239286Y-66309580D02*
X110191667Y-66214342D01*
X110191667Y-66214342D02*
X110144048Y-66023866D01*
X110144048Y-66023866D02*
X110144048Y-65785771D01*
X110144048Y-65785771D02*
X110191667Y-65595295D01*
X110191667Y-65595295D02*
X110239286Y-65500057D01*
X110239286Y-65500057D02*
X110286905Y-65452438D01*
X110286905Y-65452438D02*
X110382143Y-65404819D01*
X111144048Y-66309580D02*
X111191667Y-66357200D01*
X111191667Y-66357200D02*
X111144048Y-66404819D01*
X111144048Y-66404819D02*
X111096429Y-66357200D01*
X111096429Y-66357200D02*
X111144048Y-66309580D01*
X111144048Y-66309580D02*
X111144048Y-66404819D01*
X112144047Y-66404819D02*
X111572619Y-66404819D01*
X111858333Y-66404819D02*
X111858333Y-65404819D01*
X111858333Y-65404819D02*
X111763095Y-65547676D01*
X111763095Y-65547676D02*
X111667857Y-65642914D01*
X111667857Y-65642914D02*
X111572619Y-65690533D01*
X113001190Y-65738152D02*
X113001190Y-66404819D01*
X112572619Y-65738152D02*
X112572619Y-66261961D01*
X112572619Y-66261961D02*
X112620238Y-66357200D01*
X112620238Y-66357200D02*
X112715476Y-66404819D01*
X112715476Y-66404819D02*
X112858333Y-66404819D01*
X112858333Y-66404819D02*
X112953571Y-66357200D01*
X112953571Y-66357200D02*
X113001190Y-66309580D01*
X113810714Y-65881009D02*
X113477381Y-65881009D01*
X113477381Y-66404819D02*
X113477381Y-65404819D01*
X113477381Y-65404819D02*
X113953571Y-65404819D01*
X114533333Y-61604819D02*
X114200000Y-61128628D01*
X113961905Y-61604819D02*
X113961905Y-60604819D01*
X113961905Y-60604819D02*
X114342857Y-60604819D01*
X114342857Y-60604819D02*
X114438095Y-60652438D01*
X114438095Y-60652438D02*
X114485714Y-60700057D01*
X114485714Y-60700057D02*
X114533333Y-60795295D01*
X114533333Y-60795295D02*
X114533333Y-60938152D01*
X114533333Y-60938152D02*
X114485714Y-61033390D01*
X114485714Y-61033390D02*
X114438095Y-61081009D01*
X114438095Y-61081009D02*
X114342857Y-61128628D01*
X114342857Y-61128628D02*
X113961905Y-61128628D01*
X115390476Y-60938152D02*
X115390476Y-61604819D01*
X115152381Y-60557200D02*
X114914286Y-61271485D01*
X114914286Y-61271485D02*
X115533333Y-61271485D01*
X117183333Y-61604819D02*
X116611905Y-61604819D01*
X116897619Y-61604819D02*
X116897619Y-60604819D01*
X116897619Y-60604819D02*
X116802381Y-60747676D01*
X116802381Y-60747676D02*
X116707143Y-60842914D01*
X116707143Y-60842914D02*
X116611905Y-60890533D01*
X117754762Y-61033390D02*
X117659524Y-60985771D01*
X117659524Y-60985771D02*
X117611905Y-60938152D01*
X117611905Y-60938152D02*
X117564286Y-60842914D01*
X117564286Y-60842914D02*
X117564286Y-60795295D01*
X117564286Y-60795295D02*
X117611905Y-60700057D01*
X117611905Y-60700057D02*
X117659524Y-60652438D01*
X117659524Y-60652438D02*
X117754762Y-60604819D01*
X117754762Y-60604819D02*
X117945238Y-60604819D01*
X117945238Y-60604819D02*
X118040476Y-60652438D01*
X118040476Y-60652438D02*
X118088095Y-60700057D01*
X118088095Y-60700057D02*
X118135714Y-60795295D01*
X118135714Y-60795295D02*
X118135714Y-60842914D01*
X118135714Y-60842914D02*
X118088095Y-60938152D01*
X118088095Y-60938152D02*
X118040476Y-60985771D01*
X118040476Y-60985771D02*
X117945238Y-61033390D01*
X117945238Y-61033390D02*
X117754762Y-61033390D01*
X117754762Y-61033390D02*
X117659524Y-61081009D01*
X117659524Y-61081009D02*
X117611905Y-61128628D01*
X117611905Y-61128628D02*
X117564286Y-61223866D01*
X117564286Y-61223866D02*
X117564286Y-61414342D01*
X117564286Y-61414342D02*
X117611905Y-61509580D01*
X117611905Y-61509580D02*
X117659524Y-61557200D01*
X117659524Y-61557200D02*
X117754762Y-61604819D01*
X117754762Y-61604819D02*
X117945238Y-61604819D01*
X117945238Y-61604819D02*
X118040476Y-61557200D01*
X118040476Y-61557200D02*
X118088095Y-61509580D01*
X118088095Y-61509580D02*
X118135714Y-61414342D01*
X118135714Y-61414342D02*
X118135714Y-61223866D01*
X118135714Y-61223866D02*
X118088095Y-61128628D01*
X118088095Y-61128628D02*
X118040476Y-61081009D01*
X118040476Y-61081009D02*
X117945238Y-61033390D01*
X118754762Y-60604819D02*
X118850000Y-60604819D01*
X118850000Y-60604819D02*
X118945238Y-60652438D01*
X118945238Y-60652438D02*
X118992857Y-60700057D01*
X118992857Y-60700057D02*
X119040476Y-60795295D01*
X119040476Y-60795295D02*
X119088095Y-60985771D01*
X119088095Y-60985771D02*
X119088095Y-61223866D01*
X119088095Y-61223866D02*
X119040476Y-61414342D01*
X119040476Y-61414342D02*
X118992857Y-61509580D01*
X118992857Y-61509580D02*
X118945238Y-61557200D01*
X118945238Y-61557200D02*
X118850000Y-61604819D01*
X118850000Y-61604819D02*
X118754762Y-61604819D01*
X118754762Y-61604819D02*
X118659524Y-61557200D01*
X118659524Y-61557200D02*
X118611905Y-61509580D01*
X118611905Y-61509580D02*
X118564286Y-61414342D01*
X118564286Y-61414342D02*
X118516667Y-61223866D01*
X118516667Y-61223866D02*
X118516667Y-60985771D01*
X118516667Y-60985771D02*
X118564286Y-60795295D01*
X118564286Y-60795295D02*
X118611905Y-60700057D01*
X118611905Y-60700057D02*
X118659524Y-60652438D01*
X118659524Y-60652438D02*
X118754762Y-60604819D01*
X132282142Y-89804819D02*
X131948809Y-89328628D01*
X131710714Y-89804819D02*
X131710714Y-88804819D01*
X131710714Y-88804819D02*
X132091666Y-88804819D01*
X132091666Y-88804819D02*
X132186904Y-88852438D01*
X132186904Y-88852438D02*
X132234523Y-88900057D01*
X132234523Y-88900057D02*
X132282142Y-88995295D01*
X132282142Y-88995295D02*
X132282142Y-89138152D01*
X132282142Y-89138152D02*
X132234523Y-89233390D01*
X132234523Y-89233390D02*
X132186904Y-89281009D01*
X132186904Y-89281009D02*
X132091666Y-89328628D01*
X132091666Y-89328628D02*
X131710714Y-89328628D01*
X133234523Y-89804819D02*
X132663095Y-89804819D01*
X132948809Y-89804819D02*
X132948809Y-88804819D01*
X132948809Y-88804819D02*
X132853571Y-88947676D01*
X132853571Y-88947676D02*
X132758333Y-89042914D01*
X132758333Y-89042914D02*
X132663095Y-89090533D01*
X133567857Y-88804819D02*
X134234523Y-88804819D01*
X134234523Y-88804819D02*
X133805952Y-89804819D01*
X131759524Y-87575057D02*
X131807143Y-87527438D01*
X131807143Y-87527438D02*
X131902381Y-87479819D01*
X131902381Y-87479819D02*
X132140476Y-87479819D01*
X132140476Y-87479819D02*
X132235714Y-87527438D01*
X132235714Y-87527438D02*
X132283333Y-87575057D01*
X132283333Y-87575057D02*
X132330952Y-87670295D01*
X132330952Y-87670295D02*
X132330952Y-87765533D01*
X132330952Y-87765533D02*
X132283333Y-87908390D01*
X132283333Y-87908390D02*
X131711905Y-88479819D01*
X131711905Y-88479819D02*
X132330952Y-88479819D01*
X132759524Y-88479819D02*
X132759524Y-87479819D01*
X132854762Y-88098866D02*
X133140476Y-88479819D01*
X133140476Y-87813152D02*
X132759524Y-88194104D01*
X114257142Y-77154819D02*
X113923809Y-76678628D01*
X113685714Y-77154819D02*
X113685714Y-76154819D01*
X113685714Y-76154819D02*
X114066666Y-76154819D01*
X114066666Y-76154819D02*
X114161904Y-76202438D01*
X114161904Y-76202438D02*
X114209523Y-76250057D01*
X114209523Y-76250057D02*
X114257142Y-76345295D01*
X114257142Y-76345295D02*
X114257142Y-76488152D01*
X114257142Y-76488152D02*
X114209523Y-76583390D01*
X114209523Y-76583390D02*
X114161904Y-76631009D01*
X114161904Y-76631009D02*
X114066666Y-76678628D01*
X114066666Y-76678628D02*
X113685714Y-76678628D01*
X115209523Y-77154819D02*
X114638095Y-77154819D01*
X114923809Y-77154819D02*
X114923809Y-76154819D01*
X114923809Y-76154819D02*
X114828571Y-76297676D01*
X114828571Y-76297676D02*
X114733333Y-76392914D01*
X114733333Y-76392914D02*
X114638095Y-76440533D01*
X116114285Y-76154819D02*
X115638095Y-76154819D01*
X115638095Y-76154819D02*
X115590476Y-76631009D01*
X115590476Y-76631009D02*
X115638095Y-76583390D01*
X115638095Y-76583390D02*
X115733333Y-76535771D01*
X115733333Y-76535771D02*
X115971428Y-76535771D01*
X115971428Y-76535771D02*
X116066666Y-76583390D01*
X116066666Y-76583390D02*
X116114285Y-76631009D01*
X116114285Y-76631009D02*
X116161904Y-76726247D01*
X116161904Y-76726247D02*
X116161904Y-76964342D01*
X116161904Y-76964342D02*
X116114285Y-77059580D01*
X116114285Y-77059580D02*
X116066666Y-77107200D01*
X116066666Y-77107200D02*
X115971428Y-77154819D01*
X115971428Y-77154819D02*
X115733333Y-77154819D01*
X115733333Y-77154819D02*
X115638095Y-77107200D01*
X115638095Y-77107200D02*
X115590476Y-77059580D01*
X113664286Y-78454819D02*
X113664286Y-77454819D01*
X113664286Y-77454819D02*
X113902381Y-77454819D01*
X113902381Y-77454819D02*
X114045238Y-77502438D01*
X114045238Y-77502438D02*
X114140476Y-77597676D01*
X114140476Y-77597676D02*
X114188095Y-77692914D01*
X114188095Y-77692914D02*
X114235714Y-77883390D01*
X114235714Y-77883390D02*
X114235714Y-78026247D01*
X114235714Y-78026247D02*
X114188095Y-78216723D01*
X114188095Y-78216723D02*
X114140476Y-78311961D01*
X114140476Y-78311961D02*
X114045238Y-78407200D01*
X114045238Y-78407200D02*
X113902381Y-78454819D01*
X113902381Y-78454819D02*
X113664286Y-78454819D01*
X114664286Y-78454819D02*
X114664286Y-77454819D01*
X114664286Y-77454819D02*
X115235714Y-78454819D01*
X115235714Y-78454819D02*
X115235714Y-77454819D01*
X115711905Y-78454819D02*
X115711905Y-77454819D01*
X115711905Y-77454819D02*
X116092857Y-77454819D01*
X116092857Y-77454819D02*
X116188095Y-77502438D01*
X116188095Y-77502438D02*
X116235714Y-77550057D01*
X116235714Y-77550057D02*
X116283333Y-77645295D01*
X116283333Y-77645295D02*
X116283333Y-77788152D01*
X116283333Y-77788152D02*
X116235714Y-77883390D01*
X116235714Y-77883390D02*
X116188095Y-77931009D01*
X116188095Y-77931009D02*
X116092857Y-77978628D01*
X116092857Y-77978628D02*
X115711905Y-77978628D01*
X133754761Y-82750057D02*
X133659523Y-82702438D01*
X133659523Y-82702438D02*
X133564285Y-82607200D01*
X133564285Y-82607200D02*
X133421428Y-82464342D01*
X133421428Y-82464342D02*
X133326190Y-82416723D01*
X133326190Y-82416723D02*
X133230952Y-82416723D01*
X133278571Y-82654819D02*
X133183333Y-82607200D01*
X133183333Y-82607200D02*
X133088095Y-82511961D01*
X133088095Y-82511961D02*
X133040476Y-82321485D01*
X133040476Y-82321485D02*
X133040476Y-81988152D01*
X133040476Y-81988152D02*
X133088095Y-81797676D01*
X133088095Y-81797676D02*
X133183333Y-81702438D01*
X133183333Y-81702438D02*
X133278571Y-81654819D01*
X133278571Y-81654819D02*
X133469047Y-81654819D01*
X133469047Y-81654819D02*
X133564285Y-81702438D01*
X133564285Y-81702438D02*
X133659523Y-81797676D01*
X133659523Y-81797676D02*
X133707142Y-81988152D01*
X133707142Y-81988152D02*
X133707142Y-82321485D01*
X133707142Y-82321485D02*
X133659523Y-82511961D01*
X133659523Y-82511961D02*
X133564285Y-82607200D01*
X133564285Y-82607200D02*
X133469047Y-82654819D01*
X133469047Y-82654819D02*
X133278571Y-82654819D01*
X134183333Y-82654819D02*
X134373809Y-82654819D01*
X134373809Y-82654819D02*
X134469047Y-82607200D01*
X134469047Y-82607200D02*
X134516666Y-82559580D01*
X134516666Y-82559580D02*
X134611904Y-82416723D01*
X134611904Y-82416723D02*
X134659523Y-82226247D01*
X134659523Y-82226247D02*
X134659523Y-81845295D01*
X134659523Y-81845295D02*
X134611904Y-81750057D01*
X134611904Y-81750057D02*
X134564285Y-81702438D01*
X134564285Y-81702438D02*
X134469047Y-81654819D01*
X134469047Y-81654819D02*
X134278571Y-81654819D01*
X134278571Y-81654819D02*
X134183333Y-81702438D01*
X134183333Y-81702438D02*
X134135714Y-81750057D01*
X134135714Y-81750057D02*
X134088095Y-81845295D01*
X134088095Y-81845295D02*
X134088095Y-82083390D01*
X134088095Y-82083390D02*
X134135714Y-82178628D01*
X134135714Y-82178628D02*
X134183333Y-82226247D01*
X134183333Y-82226247D02*
X134278571Y-82273866D01*
X134278571Y-82273866D02*
X134469047Y-82273866D01*
X134469047Y-82273866D02*
X134564285Y-82226247D01*
X134564285Y-82226247D02*
X134611904Y-82178628D01*
X134611904Y-82178628D02*
X134659523Y-82083390D01*
X103647142Y-79659580D02*
X103599523Y-79707200D01*
X103599523Y-79707200D02*
X103456666Y-79754819D01*
X103456666Y-79754819D02*
X103361428Y-79754819D01*
X103361428Y-79754819D02*
X103218571Y-79707200D01*
X103218571Y-79707200D02*
X103123333Y-79611961D01*
X103123333Y-79611961D02*
X103075714Y-79516723D01*
X103075714Y-79516723D02*
X103028095Y-79326247D01*
X103028095Y-79326247D02*
X103028095Y-79183390D01*
X103028095Y-79183390D02*
X103075714Y-78992914D01*
X103075714Y-78992914D02*
X103123333Y-78897676D01*
X103123333Y-78897676D02*
X103218571Y-78802438D01*
X103218571Y-78802438D02*
X103361428Y-78754819D01*
X103361428Y-78754819D02*
X103456666Y-78754819D01*
X103456666Y-78754819D02*
X103599523Y-78802438D01*
X103599523Y-78802438D02*
X103647142Y-78850057D01*
X104599523Y-79754819D02*
X104028095Y-79754819D01*
X104313809Y-79754819D02*
X104313809Y-78754819D01*
X104313809Y-78754819D02*
X104218571Y-78897676D01*
X104218571Y-78897676D02*
X104123333Y-78992914D01*
X104123333Y-78992914D02*
X104028095Y-79040533D01*
X105551904Y-79754819D02*
X104980476Y-79754819D01*
X105266190Y-79754819D02*
X105266190Y-78754819D01*
X105266190Y-78754819D02*
X105170952Y-78897676D01*
X105170952Y-78897676D02*
X105075714Y-78992914D01*
X105075714Y-78992914D02*
X104980476Y-79040533D01*
X101020952Y-77404819D02*
X101116190Y-77404819D01*
X101116190Y-77404819D02*
X101211428Y-77452438D01*
X101211428Y-77452438D02*
X101259047Y-77500057D01*
X101259047Y-77500057D02*
X101306666Y-77595295D01*
X101306666Y-77595295D02*
X101354285Y-77785771D01*
X101354285Y-77785771D02*
X101354285Y-78023866D01*
X101354285Y-78023866D02*
X101306666Y-78214342D01*
X101306666Y-78214342D02*
X101259047Y-78309580D01*
X101259047Y-78309580D02*
X101211428Y-78357200D01*
X101211428Y-78357200D02*
X101116190Y-78404819D01*
X101116190Y-78404819D02*
X101020952Y-78404819D01*
X101020952Y-78404819D02*
X100925714Y-78357200D01*
X100925714Y-78357200D02*
X100878095Y-78309580D01*
X100878095Y-78309580D02*
X100830476Y-78214342D01*
X100830476Y-78214342D02*
X100782857Y-78023866D01*
X100782857Y-78023866D02*
X100782857Y-77785771D01*
X100782857Y-77785771D02*
X100830476Y-77595295D01*
X100830476Y-77595295D02*
X100878095Y-77500057D01*
X100878095Y-77500057D02*
X100925714Y-77452438D01*
X100925714Y-77452438D02*
X101020952Y-77404819D01*
X101782857Y-78309580D02*
X101830476Y-78357200D01*
X101830476Y-78357200D02*
X101782857Y-78404819D01*
X101782857Y-78404819D02*
X101735238Y-78357200D01*
X101735238Y-78357200D02*
X101782857Y-78309580D01*
X101782857Y-78309580D02*
X101782857Y-78404819D01*
X102449523Y-77404819D02*
X102544761Y-77404819D01*
X102544761Y-77404819D02*
X102639999Y-77452438D01*
X102639999Y-77452438D02*
X102687618Y-77500057D01*
X102687618Y-77500057D02*
X102735237Y-77595295D01*
X102735237Y-77595295D02*
X102782856Y-77785771D01*
X102782856Y-77785771D02*
X102782856Y-78023866D01*
X102782856Y-78023866D02*
X102735237Y-78214342D01*
X102735237Y-78214342D02*
X102687618Y-78309580D01*
X102687618Y-78309580D02*
X102639999Y-78357200D01*
X102639999Y-78357200D02*
X102544761Y-78404819D01*
X102544761Y-78404819D02*
X102449523Y-78404819D01*
X102449523Y-78404819D02*
X102354285Y-78357200D01*
X102354285Y-78357200D02*
X102306666Y-78309580D01*
X102306666Y-78309580D02*
X102259047Y-78214342D01*
X102259047Y-78214342D02*
X102211428Y-78023866D01*
X102211428Y-78023866D02*
X102211428Y-77785771D01*
X102211428Y-77785771D02*
X102259047Y-77595295D01*
X102259047Y-77595295D02*
X102306666Y-77500057D01*
X102306666Y-77500057D02*
X102354285Y-77452438D01*
X102354285Y-77452438D02*
X102449523Y-77404819D01*
X103735237Y-78404819D02*
X103163809Y-78404819D01*
X103449523Y-78404819D02*
X103449523Y-77404819D01*
X103449523Y-77404819D02*
X103354285Y-77547676D01*
X103354285Y-77547676D02*
X103259047Y-77642914D01*
X103259047Y-77642914D02*
X103163809Y-77690533D01*
X104592380Y-77738152D02*
X104592380Y-78404819D01*
X104163809Y-77738152D02*
X104163809Y-78261961D01*
X104163809Y-78261961D02*
X104211428Y-78357200D01*
X104211428Y-78357200D02*
X104306666Y-78404819D01*
X104306666Y-78404819D02*
X104449523Y-78404819D01*
X104449523Y-78404819D02*
X104544761Y-78357200D01*
X104544761Y-78357200D02*
X104592380Y-78309580D01*
X105401904Y-77881009D02*
X105068571Y-77881009D01*
X105068571Y-78404819D02*
X105068571Y-77404819D01*
X105068571Y-77404819D02*
X105544761Y-77404819D01*
X162383333Y-89534580D02*
X162335714Y-89582200D01*
X162335714Y-89582200D02*
X162192857Y-89629819D01*
X162192857Y-89629819D02*
X162097619Y-89629819D01*
X162097619Y-89629819D02*
X161954762Y-89582200D01*
X161954762Y-89582200D02*
X161859524Y-89486961D01*
X161859524Y-89486961D02*
X161811905Y-89391723D01*
X161811905Y-89391723D02*
X161764286Y-89201247D01*
X161764286Y-89201247D02*
X161764286Y-89058390D01*
X161764286Y-89058390D02*
X161811905Y-88867914D01*
X161811905Y-88867914D02*
X161859524Y-88772676D01*
X161859524Y-88772676D02*
X161954762Y-88677438D01*
X161954762Y-88677438D02*
X162097619Y-88629819D01*
X162097619Y-88629819D02*
X162192857Y-88629819D01*
X162192857Y-88629819D02*
X162335714Y-88677438D01*
X162335714Y-88677438D02*
X162383333Y-88725057D01*
X163240476Y-88629819D02*
X163050000Y-88629819D01*
X163050000Y-88629819D02*
X162954762Y-88677438D01*
X162954762Y-88677438D02*
X162907143Y-88725057D01*
X162907143Y-88725057D02*
X162811905Y-88867914D01*
X162811905Y-88867914D02*
X162764286Y-89058390D01*
X162764286Y-89058390D02*
X162764286Y-89439342D01*
X162764286Y-89439342D02*
X162811905Y-89534580D01*
X162811905Y-89534580D02*
X162859524Y-89582200D01*
X162859524Y-89582200D02*
X162954762Y-89629819D01*
X162954762Y-89629819D02*
X163145238Y-89629819D01*
X163145238Y-89629819D02*
X163240476Y-89582200D01*
X163240476Y-89582200D02*
X163288095Y-89534580D01*
X163288095Y-89534580D02*
X163335714Y-89439342D01*
X163335714Y-89439342D02*
X163335714Y-89201247D01*
X163335714Y-89201247D02*
X163288095Y-89106009D01*
X163288095Y-89106009D02*
X163240476Y-89058390D01*
X163240476Y-89058390D02*
X163145238Y-89010771D01*
X163145238Y-89010771D02*
X162954762Y-89010771D01*
X162954762Y-89010771D02*
X162859524Y-89058390D01*
X162859524Y-89058390D02*
X162811905Y-89106009D01*
X162811905Y-89106009D02*
X162764286Y-89201247D01*
X162007143Y-90029819D02*
X162102381Y-90029819D01*
X162102381Y-90029819D02*
X162197619Y-90077438D01*
X162197619Y-90077438D02*
X162245238Y-90125057D01*
X162245238Y-90125057D02*
X162292857Y-90220295D01*
X162292857Y-90220295D02*
X162340476Y-90410771D01*
X162340476Y-90410771D02*
X162340476Y-90648866D01*
X162340476Y-90648866D02*
X162292857Y-90839342D01*
X162292857Y-90839342D02*
X162245238Y-90934580D01*
X162245238Y-90934580D02*
X162197619Y-90982200D01*
X162197619Y-90982200D02*
X162102381Y-91029819D01*
X162102381Y-91029819D02*
X162007143Y-91029819D01*
X162007143Y-91029819D02*
X161911905Y-90982200D01*
X161911905Y-90982200D02*
X161864286Y-90934580D01*
X161864286Y-90934580D02*
X161816667Y-90839342D01*
X161816667Y-90839342D02*
X161769048Y-90648866D01*
X161769048Y-90648866D02*
X161769048Y-90410771D01*
X161769048Y-90410771D02*
X161816667Y-90220295D01*
X161816667Y-90220295D02*
X161864286Y-90125057D01*
X161864286Y-90125057D02*
X161911905Y-90077438D01*
X161911905Y-90077438D02*
X162007143Y-90029819D01*
X162769048Y-90934580D02*
X162816667Y-90982200D01*
X162816667Y-90982200D02*
X162769048Y-91029819D01*
X162769048Y-91029819D02*
X162721429Y-90982200D01*
X162721429Y-90982200D02*
X162769048Y-90934580D01*
X162769048Y-90934580D02*
X162769048Y-91029819D01*
X163769047Y-91029819D02*
X163197619Y-91029819D01*
X163483333Y-91029819D02*
X163483333Y-90029819D01*
X163483333Y-90029819D02*
X163388095Y-90172676D01*
X163388095Y-90172676D02*
X163292857Y-90267914D01*
X163292857Y-90267914D02*
X163197619Y-90315533D01*
X164626190Y-90363152D02*
X164626190Y-91029819D01*
X164197619Y-90363152D02*
X164197619Y-90886961D01*
X164197619Y-90886961D02*
X164245238Y-90982200D01*
X164245238Y-90982200D02*
X164340476Y-91029819D01*
X164340476Y-91029819D02*
X164483333Y-91029819D01*
X164483333Y-91029819D02*
X164578571Y-90982200D01*
X164578571Y-90982200D02*
X164626190Y-90934580D01*
X165435714Y-90506009D02*
X165102381Y-90506009D01*
X165102381Y-91029819D02*
X165102381Y-90029819D01*
X165102381Y-90029819D02*
X165578571Y-90029819D01*
X164176666Y-71454819D02*
X164176666Y-72169104D01*
X164176666Y-72169104D02*
X164129047Y-72311961D01*
X164129047Y-72311961D02*
X164033809Y-72407200D01*
X164033809Y-72407200D02*
X163890952Y-72454819D01*
X163890952Y-72454819D02*
X163795714Y-72454819D01*
X165176666Y-72454819D02*
X164605238Y-72454819D01*
X164890952Y-72454819D02*
X164890952Y-71454819D01*
X164890952Y-71454819D02*
X164795714Y-71597676D01*
X164795714Y-71597676D02*
X164700476Y-71692914D01*
X164700476Y-71692914D02*
X164605238Y-71740533D01*
X135633333Y-81254819D02*
X135300000Y-80778628D01*
X135061905Y-81254819D02*
X135061905Y-80254819D01*
X135061905Y-80254819D02*
X135442857Y-80254819D01*
X135442857Y-80254819D02*
X135538095Y-80302438D01*
X135538095Y-80302438D02*
X135585714Y-80350057D01*
X135585714Y-80350057D02*
X135633333Y-80445295D01*
X135633333Y-80445295D02*
X135633333Y-80588152D01*
X135633333Y-80588152D02*
X135585714Y-80683390D01*
X135585714Y-80683390D02*
X135538095Y-80731009D01*
X135538095Y-80731009D02*
X135442857Y-80778628D01*
X135442857Y-80778628D02*
X135061905Y-80778628D01*
X136585714Y-81254819D02*
X136014286Y-81254819D01*
X136300000Y-81254819D02*
X136300000Y-80254819D01*
X136300000Y-80254819D02*
X136204762Y-80397676D01*
X136204762Y-80397676D02*
X136109524Y-80492914D01*
X136109524Y-80492914D02*
X136014286Y-80540533D01*
X138009523Y-81254819D02*
X137438095Y-81254819D01*
X137723809Y-81254819D02*
X137723809Y-80254819D01*
X137723809Y-80254819D02*
X137628571Y-80397676D01*
X137628571Y-80397676D02*
X137533333Y-80492914D01*
X137533333Y-80492914D02*
X137438095Y-80540533D01*
X138628571Y-80254819D02*
X138723809Y-80254819D01*
X138723809Y-80254819D02*
X138819047Y-80302438D01*
X138819047Y-80302438D02*
X138866666Y-80350057D01*
X138866666Y-80350057D02*
X138914285Y-80445295D01*
X138914285Y-80445295D02*
X138961904Y-80635771D01*
X138961904Y-80635771D02*
X138961904Y-80873866D01*
X138961904Y-80873866D02*
X138914285Y-81064342D01*
X138914285Y-81064342D02*
X138866666Y-81159580D01*
X138866666Y-81159580D02*
X138819047Y-81207200D01*
X138819047Y-81207200D02*
X138723809Y-81254819D01*
X138723809Y-81254819D02*
X138628571Y-81254819D01*
X138628571Y-81254819D02*
X138533333Y-81207200D01*
X138533333Y-81207200D02*
X138485714Y-81159580D01*
X138485714Y-81159580D02*
X138438095Y-81064342D01*
X138438095Y-81064342D02*
X138390476Y-80873866D01*
X138390476Y-80873866D02*
X138390476Y-80635771D01*
X138390476Y-80635771D02*
X138438095Y-80445295D01*
X138438095Y-80445295D02*
X138485714Y-80350057D01*
X138485714Y-80350057D02*
X138533333Y-80302438D01*
X138533333Y-80302438D02*
X138628571Y-80254819D01*
X149604761Y-80450057D02*
X149509523Y-80402438D01*
X149509523Y-80402438D02*
X149414285Y-80307200D01*
X149414285Y-80307200D02*
X149271428Y-80164342D01*
X149271428Y-80164342D02*
X149176190Y-80116723D01*
X149176190Y-80116723D02*
X149080952Y-80116723D01*
X149128571Y-80354819D02*
X149033333Y-80307200D01*
X149033333Y-80307200D02*
X148938095Y-80211961D01*
X148938095Y-80211961D02*
X148890476Y-80021485D01*
X148890476Y-80021485D02*
X148890476Y-79688152D01*
X148890476Y-79688152D02*
X148938095Y-79497676D01*
X148938095Y-79497676D02*
X149033333Y-79402438D01*
X149033333Y-79402438D02*
X149128571Y-79354819D01*
X149128571Y-79354819D02*
X149319047Y-79354819D01*
X149319047Y-79354819D02*
X149414285Y-79402438D01*
X149414285Y-79402438D02*
X149509523Y-79497676D01*
X149509523Y-79497676D02*
X149557142Y-79688152D01*
X149557142Y-79688152D02*
X149557142Y-80021485D01*
X149557142Y-80021485D02*
X149509523Y-80211961D01*
X149509523Y-80211961D02*
X149414285Y-80307200D01*
X149414285Y-80307200D02*
X149319047Y-80354819D01*
X149319047Y-80354819D02*
X149128571Y-80354819D01*
X150509523Y-80354819D02*
X149938095Y-80354819D01*
X150223809Y-80354819D02*
X150223809Y-79354819D01*
X150223809Y-79354819D02*
X150128571Y-79497676D01*
X150128571Y-79497676D02*
X150033333Y-79592914D01*
X150033333Y-79592914D02*
X149938095Y-79640533D01*
X148153571Y-83800057D02*
X148058333Y-83752438D01*
X148058333Y-83752438D02*
X147963095Y-83657200D01*
X147963095Y-83657200D02*
X147820238Y-83514342D01*
X147820238Y-83514342D02*
X147725000Y-83466723D01*
X147725000Y-83466723D02*
X147629762Y-83466723D01*
X147677381Y-83704819D02*
X147582143Y-83657200D01*
X147582143Y-83657200D02*
X147486905Y-83561961D01*
X147486905Y-83561961D02*
X147439286Y-83371485D01*
X147439286Y-83371485D02*
X147439286Y-83038152D01*
X147439286Y-83038152D02*
X147486905Y-82847676D01*
X147486905Y-82847676D02*
X147582143Y-82752438D01*
X147582143Y-82752438D02*
X147677381Y-82704819D01*
X147677381Y-82704819D02*
X147867857Y-82704819D01*
X147867857Y-82704819D02*
X147963095Y-82752438D01*
X147963095Y-82752438D02*
X148058333Y-82847676D01*
X148058333Y-82847676D02*
X148105952Y-83038152D01*
X148105952Y-83038152D02*
X148105952Y-83371485D01*
X148105952Y-83371485D02*
X148058333Y-83561961D01*
X148058333Y-83561961D02*
X147963095Y-83657200D01*
X147963095Y-83657200D02*
X147867857Y-83704819D01*
X147867857Y-83704819D02*
X147677381Y-83704819D01*
X149058333Y-83704819D02*
X148486905Y-83704819D01*
X148772619Y-83704819D02*
X148772619Y-82704819D01*
X148772619Y-82704819D02*
X148677381Y-82847676D01*
X148677381Y-82847676D02*
X148582143Y-82942914D01*
X148582143Y-82942914D02*
X148486905Y-82990533D01*
X149677381Y-82704819D02*
X149772619Y-82704819D01*
X149772619Y-82704819D02*
X149867857Y-82752438D01*
X149867857Y-82752438D02*
X149915476Y-82800057D01*
X149915476Y-82800057D02*
X149963095Y-82895295D01*
X149963095Y-82895295D02*
X150010714Y-83085771D01*
X150010714Y-83085771D02*
X150010714Y-83323866D01*
X150010714Y-83323866D02*
X149963095Y-83514342D01*
X149963095Y-83514342D02*
X149915476Y-83609580D01*
X149915476Y-83609580D02*
X149867857Y-83657200D01*
X149867857Y-83657200D02*
X149772619Y-83704819D01*
X149772619Y-83704819D02*
X149677381Y-83704819D01*
X149677381Y-83704819D02*
X149582143Y-83657200D01*
X149582143Y-83657200D02*
X149534524Y-83609580D01*
X149534524Y-83609580D02*
X149486905Y-83514342D01*
X149486905Y-83514342D02*
X149439286Y-83323866D01*
X149439286Y-83323866D02*
X149439286Y-83085771D01*
X149439286Y-83085771D02*
X149486905Y-82895295D01*
X149486905Y-82895295D02*
X149534524Y-82800057D01*
X149534524Y-82800057D02*
X149582143Y-82752438D01*
X149582143Y-82752438D02*
X149677381Y-82704819D01*
X101566666Y-91754819D02*
X101566666Y-92469104D01*
X101566666Y-92469104D02*
X101519047Y-92611961D01*
X101519047Y-92611961D02*
X101423809Y-92707200D01*
X101423809Y-92707200D02*
X101280952Y-92754819D01*
X101280952Y-92754819D02*
X101185714Y-92754819D01*
X102519047Y-91754819D02*
X102042857Y-91754819D01*
X102042857Y-91754819D02*
X101995238Y-92231009D01*
X101995238Y-92231009D02*
X102042857Y-92183390D01*
X102042857Y-92183390D02*
X102138095Y-92135771D01*
X102138095Y-92135771D02*
X102376190Y-92135771D01*
X102376190Y-92135771D02*
X102471428Y-92183390D01*
X102471428Y-92183390D02*
X102519047Y-92231009D01*
X102519047Y-92231009D02*
X102566666Y-92326247D01*
X102566666Y-92326247D02*
X102566666Y-92564342D01*
X102566666Y-92564342D02*
X102519047Y-92659580D01*
X102519047Y-92659580D02*
X102471428Y-92707200D01*
X102471428Y-92707200D02*
X102376190Y-92754819D01*
X102376190Y-92754819D02*
X102138095Y-92754819D01*
X102138095Y-92754819D02*
X102042857Y-92707200D01*
X102042857Y-92707200D02*
X101995238Y-92659580D01*
X105566666Y-63854819D02*
X105566666Y-64569104D01*
X105566666Y-64569104D02*
X105519047Y-64711961D01*
X105519047Y-64711961D02*
X105423809Y-64807200D01*
X105423809Y-64807200D02*
X105280952Y-64854819D01*
X105280952Y-64854819D02*
X105185714Y-64854819D01*
X105995238Y-63950057D02*
X106042857Y-63902438D01*
X106042857Y-63902438D02*
X106138095Y-63854819D01*
X106138095Y-63854819D02*
X106376190Y-63854819D01*
X106376190Y-63854819D02*
X106471428Y-63902438D01*
X106471428Y-63902438D02*
X106519047Y-63950057D01*
X106519047Y-63950057D02*
X106566666Y-64045295D01*
X106566666Y-64045295D02*
X106566666Y-64140533D01*
X106566666Y-64140533D02*
X106519047Y-64283390D01*
X106519047Y-64283390D02*
X105947619Y-64854819D01*
X105947619Y-64854819D02*
X106566666Y-64854819D01*
X120783333Y-62129819D02*
X120450000Y-61653628D01*
X120211905Y-62129819D02*
X120211905Y-61129819D01*
X120211905Y-61129819D02*
X120592857Y-61129819D01*
X120592857Y-61129819D02*
X120688095Y-61177438D01*
X120688095Y-61177438D02*
X120735714Y-61225057D01*
X120735714Y-61225057D02*
X120783333Y-61320295D01*
X120783333Y-61320295D02*
X120783333Y-61463152D01*
X120783333Y-61463152D02*
X120735714Y-61558390D01*
X120735714Y-61558390D02*
X120688095Y-61606009D01*
X120688095Y-61606009D02*
X120592857Y-61653628D01*
X120592857Y-61653628D02*
X120211905Y-61653628D01*
X121116667Y-61129819D02*
X121735714Y-61129819D01*
X121735714Y-61129819D02*
X121402381Y-61510771D01*
X121402381Y-61510771D02*
X121545238Y-61510771D01*
X121545238Y-61510771D02*
X121640476Y-61558390D01*
X121640476Y-61558390D02*
X121688095Y-61606009D01*
X121688095Y-61606009D02*
X121735714Y-61701247D01*
X121735714Y-61701247D02*
X121735714Y-61939342D01*
X121735714Y-61939342D02*
X121688095Y-62034580D01*
X121688095Y-62034580D02*
X121640476Y-62082200D01*
X121640476Y-62082200D02*
X121545238Y-62129819D01*
X121545238Y-62129819D02*
X121259524Y-62129819D01*
X121259524Y-62129819D02*
X121164286Y-62082200D01*
X121164286Y-62082200D02*
X121116667Y-62034580D01*
X122982142Y-62104819D02*
X122410714Y-62104819D01*
X122696428Y-62104819D02*
X122696428Y-61104819D01*
X122696428Y-61104819D02*
X122601190Y-61247676D01*
X122601190Y-61247676D02*
X122505952Y-61342914D01*
X122505952Y-61342914D02*
X122410714Y-61390533D01*
X123601190Y-61104819D02*
X123696428Y-61104819D01*
X123696428Y-61104819D02*
X123791666Y-61152438D01*
X123791666Y-61152438D02*
X123839285Y-61200057D01*
X123839285Y-61200057D02*
X123886904Y-61295295D01*
X123886904Y-61295295D02*
X123934523Y-61485771D01*
X123934523Y-61485771D02*
X123934523Y-61723866D01*
X123934523Y-61723866D02*
X123886904Y-61914342D01*
X123886904Y-61914342D02*
X123839285Y-62009580D01*
X123839285Y-62009580D02*
X123791666Y-62057200D01*
X123791666Y-62057200D02*
X123696428Y-62104819D01*
X123696428Y-62104819D02*
X123601190Y-62104819D01*
X123601190Y-62104819D02*
X123505952Y-62057200D01*
X123505952Y-62057200D02*
X123458333Y-62009580D01*
X123458333Y-62009580D02*
X123410714Y-61914342D01*
X123410714Y-61914342D02*
X123363095Y-61723866D01*
X123363095Y-61723866D02*
X123363095Y-61485771D01*
X123363095Y-61485771D02*
X123410714Y-61295295D01*
X123410714Y-61295295D02*
X123458333Y-61200057D01*
X123458333Y-61200057D02*
X123505952Y-61152438D01*
X123505952Y-61152438D02*
X123601190Y-61104819D01*
X124553571Y-61104819D02*
X124648809Y-61104819D01*
X124648809Y-61104819D02*
X124744047Y-61152438D01*
X124744047Y-61152438D02*
X124791666Y-61200057D01*
X124791666Y-61200057D02*
X124839285Y-61295295D01*
X124839285Y-61295295D02*
X124886904Y-61485771D01*
X124886904Y-61485771D02*
X124886904Y-61723866D01*
X124886904Y-61723866D02*
X124839285Y-61914342D01*
X124839285Y-61914342D02*
X124791666Y-62009580D01*
X124791666Y-62009580D02*
X124744047Y-62057200D01*
X124744047Y-62057200D02*
X124648809Y-62104819D01*
X124648809Y-62104819D02*
X124553571Y-62104819D01*
X124553571Y-62104819D02*
X124458333Y-62057200D01*
X124458333Y-62057200D02*
X124410714Y-62009580D01*
X124410714Y-62009580D02*
X124363095Y-61914342D01*
X124363095Y-61914342D02*
X124315476Y-61723866D01*
X124315476Y-61723866D02*
X124315476Y-61485771D01*
X124315476Y-61485771D02*
X124363095Y-61295295D01*
X124363095Y-61295295D02*
X124410714Y-61200057D01*
X124410714Y-61200057D02*
X124458333Y-61152438D01*
X124458333Y-61152438D02*
X124553571Y-61104819D01*
X125505952Y-61104819D02*
X125601190Y-61104819D01*
X125601190Y-61104819D02*
X125696428Y-61152438D01*
X125696428Y-61152438D02*
X125744047Y-61200057D01*
X125744047Y-61200057D02*
X125791666Y-61295295D01*
X125791666Y-61295295D02*
X125839285Y-61485771D01*
X125839285Y-61485771D02*
X125839285Y-61723866D01*
X125839285Y-61723866D02*
X125791666Y-61914342D01*
X125791666Y-61914342D02*
X125744047Y-62009580D01*
X125744047Y-62009580D02*
X125696428Y-62057200D01*
X125696428Y-62057200D02*
X125601190Y-62104819D01*
X125601190Y-62104819D02*
X125505952Y-62104819D01*
X125505952Y-62104819D02*
X125410714Y-62057200D01*
X125410714Y-62057200D02*
X125363095Y-62009580D01*
X125363095Y-62009580D02*
X125315476Y-61914342D01*
X125315476Y-61914342D02*
X125267857Y-61723866D01*
X125267857Y-61723866D02*
X125267857Y-61485771D01*
X125267857Y-61485771D02*
X125315476Y-61295295D01*
X125315476Y-61295295D02*
X125363095Y-61200057D01*
X125363095Y-61200057D02*
X125410714Y-61152438D01*
X125410714Y-61152438D02*
X125505952Y-61104819D01*
X102366666Y-81154819D02*
X102366666Y-81869104D01*
X102366666Y-81869104D02*
X102319047Y-82011961D01*
X102319047Y-82011961D02*
X102223809Y-82107200D01*
X102223809Y-82107200D02*
X102080952Y-82154819D01*
X102080952Y-82154819D02*
X101985714Y-82154819D01*
X102747619Y-81154819D02*
X103366666Y-81154819D01*
X103366666Y-81154819D02*
X103033333Y-81535771D01*
X103033333Y-81535771D02*
X103176190Y-81535771D01*
X103176190Y-81535771D02*
X103271428Y-81583390D01*
X103271428Y-81583390D02*
X103319047Y-81631009D01*
X103319047Y-81631009D02*
X103366666Y-81726247D01*
X103366666Y-81726247D02*
X103366666Y-81964342D01*
X103366666Y-81964342D02*
X103319047Y-82059580D01*
X103319047Y-82059580D02*
X103271428Y-82107200D01*
X103271428Y-82107200D02*
X103176190Y-82154819D01*
X103176190Y-82154819D02*
X102890476Y-82154819D01*
X102890476Y-82154819D02*
X102795238Y-82107200D01*
X102795238Y-82107200D02*
X102747619Y-82059580D01*
X143933333Y-89004819D02*
X143600000Y-88528628D01*
X143361905Y-89004819D02*
X143361905Y-88004819D01*
X143361905Y-88004819D02*
X143742857Y-88004819D01*
X143742857Y-88004819D02*
X143838095Y-88052438D01*
X143838095Y-88052438D02*
X143885714Y-88100057D01*
X143885714Y-88100057D02*
X143933333Y-88195295D01*
X143933333Y-88195295D02*
X143933333Y-88338152D01*
X143933333Y-88338152D02*
X143885714Y-88433390D01*
X143885714Y-88433390D02*
X143838095Y-88481009D01*
X143838095Y-88481009D02*
X143742857Y-88528628D01*
X143742857Y-88528628D02*
X143361905Y-88528628D01*
X144838095Y-88004819D02*
X144361905Y-88004819D01*
X144361905Y-88004819D02*
X144314286Y-88481009D01*
X144314286Y-88481009D02*
X144361905Y-88433390D01*
X144361905Y-88433390D02*
X144457143Y-88385771D01*
X144457143Y-88385771D02*
X144695238Y-88385771D01*
X144695238Y-88385771D02*
X144790476Y-88433390D01*
X144790476Y-88433390D02*
X144838095Y-88481009D01*
X144838095Y-88481009D02*
X144885714Y-88576247D01*
X144885714Y-88576247D02*
X144885714Y-88814342D01*
X144885714Y-88814342D02*
X144838095Y-88909580D01*
X144838095Y-88909580D02*
X144790476Y-88957200D01*
X144790476Y-88957200D02*
X144695238Y-89004819D01*
X144695238Y-89004819D02*
X144457143Y-89004819D01*
X144457143Y-89004819D02*
X144361905Y-88957200D01*
X144361905Y-88957200D02*
X144314286Y-88909580D01*
X146411904Y-88004819D02*
X145935714Y-88004819D01*
X145935714Y-88004819D02*
X145888095Y-88481009D01*
X145888095Y-88481009D02*
X145935714Y-88433390D01*
X145935714Y-88433390D02*
X146030952Y-88385771D01*
X146030952Y-88385771D02*
X146269047Y-88385771D01*
X146269047Y-88385771D02*
X146364285Y-88433390D01*
X146364285Y-88433390D02*
X146411904Y-88481009D01*
X146411904Y-88481009D02*
X146459523Y-88576247D01*
X146459523Y-88576247D02*
X146459523Y-88814342D01*
X146459523Y-88814342D02*
X146411904Y-88909580D01*
X146411904Y-88909580D02*
X146364285Y-88957200D01*
X146364285Y-88957200D02*
X146269047Y-89004819D01*
X146269047Y-89004819D02*
X146030952Y-89004819D01*
X146030952Y-89004819D02*
X145935714Y-88957200D01*
X145935714Y-88957200D02*
X145888095Y-88909580D01*
X147411904Y-89004819D02*
X146840476Y-89004819D01*
X147126190Y-89004819D02*
X147126190Y-88004819D01*
X147126190Y-88004819D02*
X147030952Y-88147676D01*
X147030952Y-88147676D02*
X146935714Y-88242914D01*
X146935714Y-88242914D02*
X146840476Y-88290533D01*
X122200595Y-86604819D02*
X122200595Y-87414342D01*
X122200595Y-87414342D02*
X122248214Y-87509580D01*
X122248214Y-87509580D02*
X122295833Y-87557200D01*
X122295833Y-87557200D02*
X122391071Y-87604819D01*
X122391071Y-87604819D02*
X122581547Y-87604819D01*
X122581547Y-87604819D02*
X122676785Y-87557200D01*
X122676785Y-87557200D02*
X122724404Y-87509580D01*
X122724404Y-87509580D02*
X122772023Y-87414342D01*
X122772023Y-87414342D02*
X122772023Y-86604819D01*
X123152976Y-86604819D02*
X123772023Y-86604819D01*
X123772023Y-86604819D02*
X123438690Y-86985771D01*
X123438690Y-86985771D02*
X123581547Y-86985771D01*
X123581547Y-86985771D02*
X123676785Y-87033390D01*
X123676785Y-87033390D02*
X123724404Y-87081009D01*
X123724404Y-87081009D02*
X123772023Y-87176247D01*
X123772023Y-87176247D02*
X123772023Y-87414342D01*
X123772023Y-87414342D02*
X123724404Y-87509580D01*
X123724404Y-87509580D02*
X123676785Y-87557200D01*
X123676785Y-87557200D02*
X123581547Y-87604819D01*
X123581547Y-87604819D02*
X123295833Y-87604819D01*
X123295833Y-87604819D02*
X123200595Y-87557200D01*
X123200595Y-87557200D02*
X123152976Y-87509580D01*
X144304761Y-64200057D02*
X144209523Y-64152438D01*
X144209523Y-64152438D02*
X144114285Y-64057200D01*
X144114285Y-64057200D02*
X143971428Y-63914342D01*
X143971428Y-63914342D02*
X143876190Y-63866723D01*
X143876190Y-63866723D02*
X143780952Y-63866723D01*
X143828571Y-64104819D02*
X143733333Y-64057200D01*
X143733333Y-64057200D02*
X143638095Y-63961961D01*
X143638095Y-63961961D02*
X143590476Y-63771485D01*
X143590476Y-63771485D02*
X143590476Y-63438152D01*
X143590476Y-63438152D02*
X143638095Y-63247676D01*
X143638095Y-63247676D02*
X143733333Y-63152438D01*
X143733333Y-63152438D02*
X143828571Y-63104819D01*
X143828571Y-63104819D02*
X144019047Y-63104819D01*
X144019047Y-63104819D02*
X144114285Y-63152438D01*
X144114285Y-63152438D02*
X144209523Y-63247676D01*
X144209523Y-63247676D02*
X144257142Y-63438152D01*
X144257142Y-63438152D02*
X144257142Y-63771485D01*
X144257142Y-63771485D02*
X144209523Y-63961961D01*
X144209523Y-63961961D02*
X144114285Y-64057200D01*
X144114285Y-64057200D02*
X144019047Y-64104819D01*
X144019047Y-64104819D02*
X143828571Y-64104819D01*
X145114285Y-63438152D02*
X145114285Y-64104819D01*
X144876190Y-63057200D02*
X144638095Y-63771485D01*
X144638095Y-63771485D02*
X145257142Y-63771485D01*
X108632142Y-74754819D02*
X108298809Y-74278628D01*
X108060714Y-74754819D02*
X108060714Y-73754819D01*
X108060714Y-73754819D02*
X108441666Y-73754819D01*
X108441666Y-73754819D02*
X108536904Y-73802438D01*
X108536904Y-73802438D02*
X108584523Y-73850057D01*
X108584523Y-73850057D02*
X108632142Y-73945295D01*
X108632142Y-73945295D02*
X108632142Y-74088152D01*
X108632142Y-74088152D02*
X108584523Y-74183390D01*
X108584523Y-74183390D02*
X108536904Y-74231009D01*
X108536904Y-74231009D02*
X108441666Y-74278628D01*
X108441666Y-74278628D02*
X108060714Y-74278628D01*
X109584523Y-74754819D02*
X109013095Y-74754819D01*
X109298809Y-74754819D02*
X109298809Y-73754819D01*
X109298809Y-73754819D02*
X109203571Y-73897676D01*
X109203571Y-73897676D02*
X109108333Y-73992914D01*
X109108333Y-73992914D02*
X109013095Y-74040533D01*
X110441666Y-73754819D02*
X110251190Y-73754819D01*
X110251190Y-73754819D02*
X110155952Y-73802438D01*
X110155952Y-73802438D02*
X110108333Y-73850057D01*
X110108333Y-73850057D02*
X110013095Y-73992914D01*
X110013095Y-73992914D02*
X109965476Y-74183390D01*
X109965476Y-74183390D02*
X109965476Y-74564342D01*
X109965476Y-74564342D02*
X110013095Y-74659580D01*
X110013095Y-74659580D02*
X110060714Y-74707200D01*
X110060714Y-74707200D02*
X110155952Y-74754819D01*
X110155952Y-74754819D02*
X110346428Y-74754819D01*
X110346428Y-74754819D02*
X110441666Y-74707200D01*
X110441666Y-74707200D02*
X110489285Y-74659580D01*
X110489285Y-74659580D02*
X110536904Y-74564342D01*
X110536904Y-74564342D02*
X110536904Y-74326247D01*
X110536904Y-74326247D02*
X110489285Y-74231009D01*
X110489285Y-74231009D02*
X110441666Y-74183390D01*
X110441666Y-74183390D02*
X110346428Y-74135771D01*
X110346428Y-74135771D02*
X110155952Y-74135771D01*
X110155952Y-74135771D02*
X110060714Y-74183390D01*
X110060714Y-74183390D02*
X110013095Y-74231009D01*
X110013095Y-74231009D02*
X109965476Y-74326247D01*
X108036905Y-75150057D02*
X108084524Y-75102438D01*
X108084524Y-75102438D02*
X108179762Y-75054819D01*
X108179762Y-75054819D02*
X108417857Y-75054819D01*
X108417857Y-75054819D02*
X108513095Y-75102438D01*
X108513095Y-75102438D02*
X108560714Y-75150057D01*
X108560714Y-75150057D02*
X108608333Y-75245295D01*
X108608333Y-75245295D02*
X108608333Y-75340533D01*
X108608333Y-75340533D02*
X108560714Y-75483390D01*
X108560714Y-75483390D02*
X107989286Y-76054819D01*
X107989286Y-76054819D02*
X108608333Y-76054819D01*
X108941667Y-75054819D02*
X109608333Y-75054819D01*
X109608333Y-75054819D02*
X109179762Y-76054819D01*
X110179762Y-75054819D02*
X110275000Y-75054819D01*
X110275000Y-75054819D02*
X110370238Y-75102438D01*
X110370238Y-75102438D02*
X110417857Y-75150057D01*
X110417857Y-75150057D02*
X110465476Y-75245295D01*
X110465476Y-75245295D02*
X110513095Y-75435771D01*
X110513095Y-75435771D02*
X110513095Y-75673866D01*
X110513095Y-75673866D02*
X110465476Y-75864342D01*
X110465476Y-75864342D02*
X110417857Y-75959580D01*
X110417857Y-75959580D02*
X110370238Y-76007200D01*
X110370238Y-76007200D02*
X110275000Y-76054819D01*
X110275000Y-76054819D02*
X110179762Y-76054819D01*
X110179762Y-76054819D02*
X110084524Y-76007200D01*
X110084524Y-76007200D02*
X110036905Y-75959580D01*
X110036905Y-75959580D02*
X109989286Y-75864342D01*
X109989286Y-75864342D02*
X109941667Y-75673866D01*
X109941667Y-75673866D02*
X109941667Y-75435771D01*
X109941667Y-75435771D02*
X109989286Y-75245295D01*
X109989286Y-75245295D02*
X110036905Y-75150057D01*
X110036905Y-75150057D02*
X110084524Y-75102438D01*
X110084524Y-75102438D02*
X110179762Y-75054819D01*
X131707142Y-99984580D02*
X131659523Y-100032200D01*
X131659523Y-100032200D02*
X131516666Y-100079819D01*
X131516666Y-100079819D02*
X131421428Y-100079819D01*
X131421428Y-100079819D02*
X131278571Y-100032200D01*
X131278571Y-100032200D02*
X131183333Y-99936961D01*
X131183333Y-99936961D02*
X131135714Y-99841723D01*
X131135714Y-99841723D02*
X131088095Y-99651247D01*
X131088095Y-99651247D02*
X131088095Y-99508390D01*
X131088095Y-99508390D02*
X131135714Y-99317914D01*
X131135714Y-99317914D02*
X131183333Y-99222676D01*
X131183333Y-99222676D02*
X131278571Y-99127438D01*
X131278571Y-99127438D02*
X131421428Y-99079819D01*
X131421428Y-99079819D02*
X131516666Y-99079819D01*
X131516666Y-99079819D02*
X131659523Y-99127438D01*
X131659523Y-99127438D02*
X131707142Y-99175057D01*
X132659523Y-100079819D02*
X132088095Y-100079819D01*
X132373809Y-100079819D02*
X132373809Y-99079819D01*
X132373809Y-99079819D02*
X132278571Y-99222676D01*
X132278571Y-99222676D02*
X132183333Y-99317914D01*
X132183333Y-99317914D02*
X132088095Y-99365533D01*
X133040476Y-99175057D02*
X133088095Y-99127438D01*
X133088095Y-99127438D02*
X133183333Y-99079819D01*
X133183333Y-99079819D02*
X133421428Y-99079819D01*
X133421428Y-99079819D02*
X133516666Y-99127438D01*
X133516666Y-99127438D02*
X133564285Y-99175057D01*
X133564285Y-99175057D02*
X133611904Y-99270295D01*
X133611904Y-99270295D02*
X133611904Y-99365533D01*
X133611904Y-99365533D02*
X133564285Y-99508390D01*
X133564285Y-99508390D02*
X132992857Y-100079819D01*
X132992857Y-100079819D02*
X133611904Y-100079819D01*
X130607143Y-100479819D02*
X130702381Y-100479819D01*
X130702381Y-100479819D02*
X130797619Y-100527438D01*
X130797619Y-100527438D02*
X130845238Y-100575057D01*
X130845238Y-100575057D02*
X130892857Y-100670295D01*
X130892857Y-100670295D02*
X130940476Y-100860771D01*
X130940476Y-100860771D02*
X130940476Y-101098866D01*
X130940476Y-101098866D02*
X130892857Y-101289342D01*
X130892857Y-101289342D02*
X130845238Y-101384580D01*
X130845238Y-101384580D02*
X130797619Y-101432200D01*
X130797619Y-101432200D02*
X130702381Y-101479819D01*
X130702381Y-101479819D02*
X130607143Y-101479819D01*
X130607143Y-101479819D02*
X130511905Y-101432200D01*
X130511905Y-101432200D02*
X130464286Y-101384580D01*
X130464286Y-101384580D02*
X130416667Y-101289342D01*
X130416667Y-101289342D02*
X130369048Y-101098866D01*
X130369048Y-101098866D02*
X130369048Y-100860771D01*
X130369048Y-100860771D02*
X130416667Y-100670295D01*
X130416667Y-100670295D02*
X130464286Y-100575057D01*
X130464286Y-100575057D02*
X130511905Y-100527438D01*
X130511905Y-100527438D02*
X130607143Y-100479819D01*
X131369048Y-101384580D02*
X131416667Y-101432200D01*
X131416667Y-101432200D02*
X131369048Y-101479819D01*
X131369048Y-101479819D02*
X131321429Y-101432200D01*
X131321429Y-101432200D02*
X131369048Y-101384580D01*
X131369048Y-101384580D02*
X131369048Y-101479819D01*
X132369047Y-101479819D02*
X131797619Y-101479819D01*
X132083333Y-101479819D02*
X132083333Y-100479819D01*
X132083333Y-100479819D02*
X131988095Y-100622676D01*
X131988095Y-100622676D02*
X131892857Y-100717914D01*
X131892857Y-100717914D02*
X131797619Y-100765533D01*
X133226190Y-100813152D02*
X133226190Y-101479819D01*
X132797619Y-100813152D02*
X132797619Y-101336961D01*
X132797619Y-101336961D02*
X132845238Y-101432200D01*
X132845238Y-101432200D02*
X132940476Y-101479819D01*
X132940476Y-101479819D02*
X133083333Y-101479819D01*
X133083333Y-101479819D02*
X133178571Y-101432200D01*
X133178571Y-101432200D02*
X133226190Y-101384580D01*
X134035714Y-100956009D02*
X133702381Y-100956009D01*
X133702381Y-101479819D02*
X133702381Y-100479819D01*
X133702381Y-100479819D02*
X134178571Y-100479819D01*
X110660714Y-67987295D02*
X110394047Y-67606342D01*
X110203571Y-67987295D02*
X110203571Y-67187295D01*
X110203571Y-67187295D02*
X110508333Y-67187295D01*
X110508333Y-67187295D02*
X110584523Y-67225390D01*
X110584523Y-67225390D02*
X110622618Y-67263485D01*
X110622618Y-67263485D02*
X110660714Y-67339676D01*
X110660714Y-67339676D02*
X110660714Y-67453961D01*
X110660714Y-67453961D02*
X110622618Y-67530152D01*
X110622618Y-67530152D02*
X110584523Y-67568247D01*
X110584523Y-67568247D02*
X110508333Y-67606342D01*
X110508333Y-67606342D02*
X110203571Y-67606342D01*
X111422618Y-67987295D02*
X110965475Y-67987295D01*
X111194047Y-67987295D02*
X111194047Y-67187295D01*
X111194047Y-67187295D02*
X111117856Y-67301580D01*
X111117856Y-67301580D02*
X111041666Y-67377771D01*
X111041666Y-67377771D02*
X110965475Y-67415866D01*
X111879761Y-67530152D02*
X111803571Y-67492057D01*
X111803571Y-67492057D02*
X111765476Y-67453961D01*
X111765476Y-67453961D02*
X111727380Y-67377771D01*
X111727380Y-67377771D02*
X111727380Y-67339676D01*
X111727380Y-67339676D02*
X111765476Y-67263485D01*
X111765476Y-67263485D02*
X111803571Y-67225390D01*
X111803571Y-67225390D02*
X111879761Y-67187295D01*
X111879761Y-67187295D02*
X112032142Y-67187295D01*
X112032142Y-67187295D02*
X112108333Y-67225390D01*
X112108333Y-67225390D02*
X112146428Y-67263485D01*
X112146428Y-67263485D02*
X112184523Y-67339676D01*
X112184523Y-67339676D02*
X112184523Y-67377771D01*
X112184523Y-67377771D02*
X112146428Y-67453961D01*
X112146428Y-67453961D02*
X112108333Y-67492057D01*
X112108333Y-67492057D02*
X112032142Y-67530152D01*
X112032142Y-67530152D02*
X111879761Y-67530152D01*
X111879761Y-67530152D02*
X111803571Y-67568247D01*
X111803571Y-67568247D02*
X111765476Y-67606342D01*
X111765476Y-67606342D02*
X111727380Y-67682533D01*
X111727380Y-67682533D02*
X111727380Y-67834914D01*
X111727380Y-67834914D02*
X111765476Y-67911104D01*
X111765476Y-67911104D02*
X111803571Y-67949200D01*
X111803571Y-67949200D02*
X111879761Y-67987295D01*
X111879761Y-67987295D02*
X112032142Y-67987295D01*
X112032142Y-67987295D02*
X112108333Y-67949200D01*
X112108333Y-67949200D02*
X112146428Y-67911104D01*
X112146428Y-67911104D02*
X112184523Y-67834914D01*
X112184523Y-67834914D02*
X112184523Y-67682533D01*
X112184523Y-67682533D02*
X112146428Y-67606342D01*
X112146428Y-67606342D02*
X112108333Y-67568247D01*
X112108333Y-67568247D02*
X112032142Y-67530152D01*
X112790475Y-67263485D02*
X112828571Y-67225390D01*
X112828571Y-67225390D02*
X112904761Y-67187295D01*
X112904761Y-67187295D02*
X113095237Y-67187295D01*
X113095237Y-67187295D02*
X113171428Y-67225390D01*
X113171428Y-67225390D02*
X113209523Y-67263485D01*
X113209523Y-67263485D02*
X113247618Y-67339676D01*
X113247618Y-67339676D02*
X113247618Y-67415866D01*
X113247618Y-67415866D02*
X113209523Y-67530152D01*
X113209523Y-67530152D02*
X112752380Y-67987295D01*
X112752380Y-67987295D02*
X113247618Y-67987295D01*
X113742857Y-67187295D02*
X113819047Y-67187295D01*
X113819047Y-67187295D02*
X113895238Y-67225390D01*
X113895238Y-67225390D02*
X113933333Y-67263485D01*
X113933333Y-67263485D02*
X113971428Y-67339676D01*
X113971428Y-67339676D02*
X114009523Y-67492057D01*
X114009523Y-67492057D02*
X114009523Y-67682533D01*
X114009523Y-67682533D02*
X113971428Y-67834914D01*
X113971428Y-67834914D02*
X113933333Y-67911104D01*
X113933333Y-67911104D02*
X113895238Y-67949200D01*
X113895238Y-67949200D02*
X113819047Y-67987295D01*
X113819047Y-67987295D02*
X113742857Y-67987295D01*
X113742857Y-67987295D02*
X113666666Y-67949200D01*
X113666666Y-67949200D02*
X113628571Y-67911104D01*
X113628571Y-67911104D02*
X113590476Y-67834914D01*
X113590476Y-67834914D02*
X113552380Y-67682533D01*
X113552380Y-67682533D02*
X113552380Y-67492057D01*
X113552380Y-67492057D02*
X113590476Y-67339676D01*
X113590476Y-67339676D02*
X113628571Y-67263485D01*
X113628571Y-67263485D02*
X113666666Y-67225390D01*
X113666666Y-67225390D02*
X113742857Y-67187295D01*
X149433333Y-95734580D02*
X149385714Y-95782200D01*
X149385714Y-95782200D02*
X149242857Y-95829819D01*
X149242857Y-95829819D02*
X149147619Y-95829819D01*
X149147619Y-95829819D02*
X149004762Y-95782200D01*
X149004762Y-95782200D02*
X148909524Y-95686961D01*
X148909524Y-95686961D02*
X148861905Y-95591723D01*
X148861905Y-95591723D02*
X148814286Y-95401247D01*
X148814286Y-95401247D02*
X148814286Y-95258390D01*
X148814286Y-95258390D02*
X148861905Y-95067914D01*
X148861905Y-95067914D02*
X148909524Y-94972676D01*
X148909524Y-94972676D02*
X149004762Y-94877438D01*
X149004762Y-94877438D02*
X149147619Y-94829819D01*
X149147619Y-94829819D02*
X149242857Y-94829819D01*
X149242857Y-94829819D02*
X149385714Y-94877438D01*
X149385714Y-94877438D02*
X149433333Y-94925057D01*
X150338095Y-94829819D02*
X149861905Y-94829819D01*
X149861905Y-94829819D02*
X149814286Y-95306009D01*
X149814286Y-95306009D02*
X149861905Y-95258390D01*
X149861905Y-95258390D02*
X149957143Y-95210771D01*
X149957143Y-95210771D02*
X150195238Y-95210771D01*
X150195238Y-95210771D02*
X150290476Y-95258390D01*
X150290476Y-95258390D02*
X150338095Y-95306009D01*
X150338095Y-95306009D02*
X150385714Y-95401247D01*
X150385714Y-95401247D02*
X150385714Y-95639342D01*
X150385714Y-95639342D02*
X150338095Y-95734580D01*
X150338095Y-95734580D02*
X150290476Y-95782200D01*
X150290476Y-95782200D02*
X150195238Y-95829819D01*
X150195238Y-95829819D02*
X149957143Y-95829819D01*
X149957143Y-95829819D02*
X149861905Y-95782200D01*
X149861905Y-95782200D02*
X149814286Y-95734580D01*
X149082143Y-96129819D02*
X149177381Y-96129819D01*
X149177381Y-96129819D02*
X149272619Y-96177438D01*
X149272619Y-96177438D02*
X149320238Y-96225057D01*
X149320238Y-96225057D02*
X149367857Y-96320295D01*
X149367857Y-96320295D02*
X149415476Y-96510771D01*
X149415476Y-96510771D02*
X149415476Y-96748866D01*
X149415476Y-96748866D02*
X149367857Y-96939342D01*
X149367857Y-96939342D02*
X149320238Y-97034580D01*
X149320238Y-97034580D02*
X149272619Y-97082200D01*
X149272619Y-97082200D02*
X149177381Y-97129819D01*
X149177381Y-97129819D02*
X149082143Y-97129819D01*
X149082143Y-97129819D02*
X148986905Y-97082200D01*
X148986905Y-97082200D02*
X148939286Y-97034580D01*
X148939286Y-97034580D02*
X148891667Y-96939342D01*
X148891667Y-96939342D02*
X148844048Y-96748866D01*
X148844048Y-96748866D02*
X148844048Y-96510771D01*
X148844048Y-96510771D02*
X148891667Y-96320295D01*
X148891667Y-96320295D02*
X148939286Y-96225057D01*
X148939286Y-96225057D02*
X148986905Y-96177438D01*
X148986905Y-96177438D02*
X149082143Y-96129819D01*
X149844048Y-97034580D02*
X149891667Y-97082200D01*
X149891667Y-97082200D02*
X149844048Y-97129819D01*
X149844048Y-97129819D02*
X149796429Y-97082200D01*
X149796429Y-97082200D02*
X149844048Y-97034580D01*
X149844048Y-97034580D02*
X149844048Y-97129819D01*
X150844047Y-97129819D02*
X150272619Y-97129819D01*
X150558333Y-97129819D02*
X150558333Y-96129819D01*
X150558333Y-96129819D02*
X150463095Y-96272676D01*
X150463095Y-96272676D02*
X150367857Y-96367914D01*
X150367857Y-96367914D02*
X150272619Y-96415533D01*
X151701190Y-96463152D02*
X151701190Y-97129819D01*
X151272619Y-96463152D02*
X151272619Y-96986961D01*
X151272619Y-96986961D02*
X151320238Y-97082200D01*
X151320238Y-97082200D02*
X151415476Y-97129819D01*
X151415476Y-97129819D02*
X151558333Y-97129819D01*
X151558333Y-97129819D02*
X151653571Y-97082200D01*
X151653571Y-97082200D02*
X151701190Y-97034580D01*
X152510714Y-96606009D02*
X152177381Y-96606009D01*
X152177381Y-97129819D02*
X152177381Y-96129819D01*
X152177381Y-96129819D02*
X152653571Y-96129819D01*
X150538095Y-93554819D02*
X150538095Y-94364342D01*
X150538095Y-94364342D02*
X150585714Y-94459580D01*
X150585714Y-94459580D02*
X150633333Y-94507200D01*
X150633333Y-94507200D02*
X150728571Y-94554819D01*
X150728571Y-94554819D02*
X150919047Y-94554819D01*
X150919047Y-94554819D02*
X151014285Y-94507200D01*
X151014285Y-94507200D02*
X151061904Y-94459580D01*
X151061904Y-94459580D02*
X151109523Y-94364342D01*
X151109523Y-94364342D02*
X151109523Y-93554819D01*
X151538095Y-93650057D02*
X151585714Y-93602438D01*
X151585714Y-93602438D02*
X151680952Y-93554819D01*
X151680952Y-93554819D02*
X151919047Y-93554819D01*
X151919047Y-93554819D02*
X152014285Y-93602438D01*
X152014285Y-93602438D02*
X152061904Y-93650057D01*
X152061904Y-93650057D02*
X152109523Y-93745295D01*
X152109523Y-93745295D02*
X152109523Y-93840533D01*
X152109523Y-93840533D02*
X152061904Y-93983390D01*
X152061904Y-93983390D02*
X151490476Y-94554819D01*
X151490476Y-94554819D02*
X152109523Y-94554819D01*
X138109523Y-69154819D02*
X137538095Y-69154819D01*
X137823809Y-69154819D02*
X137823809Y-68154819D01*
X137823809Y-68154819D02*
X137728571Y-68297676D01*
X137728571Y-68297676D02*
X137633333Y-68392914D01*
X137633333Y-68392914D02*
X137538095Y-68440533D01*
X138728571Y-68154819D02*
X138823809Y-68154819D01*
X138823809Y-68154819D02*
X138919047Y-68202438D01*
X138919047Y-68202438D02*
X138966666Y-68250057D01*
X138966666Y-68250057D02*
X139014285Y-68345295D01*
X139014285Y-68345295D02*
X139061904Y-68535771D01*
X139061904Y-68535771D02*
X139061904Y-68773866D01*
X139061904Y-68773866D02*
X139014285Y-68964342D01*
X139014285Y-68964342D02*
X138966666Y-69059580D01*
X138966666Y-69059580D02*
X138919047Y-69107200D01*
X138919047Y-69107200D02*
X138823809Y-69154819D01*
X138823809Y-69154819D02*
X138728571Y-69154819D01*
X138728571Y-69154819D02*
X138633333Y-69107200D01*
X138633333Y-69107200D02*
X138585714Y-69059580D01*
X138585714Y-69059580D02*
X138538095Y-68964342D01*
X138538095Y-68964342D02*
X138490476Y-68773866D01*
X138490476Y-68773866D02*
X138490476Y-68535771D01*
X138490476Y-68535771D02*
X138538095Y-68345295D01*
X138538095Y-68345295D02*
X138585714Y-68250057D01*
X138585714Y-68250057D02*
X138633333Y-68202438D01*
X138633333Y-68202438D02*
X138728571Y-68154819D01*
X124354761Y-73500057D02*
X124259523Y-73452438D01*
X124259523Y-73452438D02*
X124164285Y-73357200D01*
X124164285Y-73357200D02*
X124021428Y-73214342D01*
X124021428Y-73214342D02*
X123926190Y-73166723D01*
X123926190Y-73166723D02*
X123830952Y-73166723D01*
X123878571Y-73404819D02*
X123783333Y-73357200D01*
X123783333Y-73357200D02*
X123688095Y-73261961D01*
X123688095Y-73261961D02*
X123640476Y-73071485D01*
X123640476Y-73071485D02*
X123640476Y-72738152D01*
X123640476Y-72738152D02*
X123688095Y-72547676D01*
X123688095Y-72547676D02*
X123783333Y-72452438D01*
X123783333Y-72452438D02*
X123878571Y-72404819D01*
X123878571Y-72404819D02*
X124069047Y-72404819D01*
X124069047Y-72404819D02*
X124164285Y-72452438D01*
X124164285Y-72452438D02*
X124259523Y-72547676D01*
X124259523Y-72547676D02*
X124307142Y-72738152D01*
X124307142Y-72738152D02*
X124307142Y-73071485D01*
X124307142Y-73071485D02*
X124259523Y-73261961D01*
X124259523Y-73261961D02*
X124164285Y-73357200D01*
X124164285Y-73357200D02*
X124069047Y-73404819D01*
X124069047Y-73404819D02*
X123878571Y-73404819D01*
X124878571Y-72833390D02*
X124783333Y-72785771D01*
X124783333Y-72785771D02*
X124735714Y-72738152D01*
X124735714Y-72738152D02*
X124688095Y-72642914D01*
X124688095Y-72642914D02*
X124688095Y-72595295D01*
X124688095Y-72595295D02*
X124735714Y-72500057D01*
X124735714Y-72500057D02*
X124783333Y-72452438D01*
X124783333Y-72452438D02*
X124878571Y-72404819D01*
X124878571Y-72404819D02*
X125069047Y-72404819D01*
X125069047Y-72404819D02*
X125164285Y-72452438D01*
X125164285Y-72452438D02*
X125211904Y-72500057D01*
X125211904Y-72500057D02*
X125259523Y-72595295D01*
X125259523Y-72595295D02*
X125259523Y-72642914D01*
X125259523Y-72642914D02*
X125211904Y-72738152D01*
X125211904Y-72738152D02*
X125164285Y-72785771D01*
X125164285Y-72785771D02*
X125069047Y-72833390D01*
X125069047Y-72833390D02*
X124878571Y-72833390D01*
X124878571Y-72833390D02*
X124783333Y-72881009D01*
X124783333Y-72881009D02*
X124735714Y-72928628D01*
X124735714Y-72928628D02*
X124688095Y-73023866D01*
X124688095Y-73023866D02*
X124688095Y-73214342D01*
X124688095Y-73214342D02*
X124735714Y-73309580D01*
X124735714Y-73309580D02*
X124783333Y-73357200D01*
X124783333Y-73357200D02*
X124878571Y-73404819D01*
X124878571Y-73404819D02*
X125069047Y-73404819D01*
X125069047Y-73404819D02*
X125164285Y-73357200D01*
X125164285Y-73357200D02*
X125211904Y-73309580D01*
X125211904Y-73309580D02*
X125259523Y-73214342D01*
X125259523Y-73214342D02*
X125259523Y-73023866D01*
X125259523Y-73023866D02*
X125211904Y-72928628D01*
X125211904Y-72928628D02*
X125164285Y-72881009D01*
X125164285Y-72881009D02*
X125069047Y-72833390D01*
D13*
X156200000Y-79200000D02*
X151800000Y-79200000D01*
X151800000Y-65200000D01*
X156200000Y-65200000D01*
X156200000Y-79200000D01*
X127000000Y-65100000D02*
X131400000Y-65100000D01*
X131400000Y-79100000D01*
X127000000Y-79100000D01*
X127000000Y-65100000D01*
D14*
X126089758Y-93890000D02*
X127760242Y-93890000D01*
X126089758Y-95710000D02*
X127760242Y-95710000D01*
X118636252Y-87690000D02*
X117213748Y-87690000D01*
X118636252Y-89510000D02*
X117213748Y-89510000D01*
X134690000Y-95140689D02*
X134690000Y-100896252D01*
X134690000Y-100896252D02*
X137040000Y-100896252D01*
X135754437Y-94076252D02*
X134690000Y-95140689D01*
X135754437Y-94076252D02*
X137040000Y-94076252D01*
X139947500Y-93048752D02*
X139947500Y-93836252D01*
X140341250Y-93442502D02*
X139553750Y-93442502D01*
X140445563Y-94076252D02*
X139160000Y-94076252D01*
X140445563Y-94076252D02*
X141510000Y-95140689D01*
X141510000Y-95140689D02*
X141510000Y-100896252D01*
X141510000Y-100896252D02*
X139160000Y-100896252D01*
X120336252Y-84090000D02*
X118913748Y-84090000D01*
X120336252Y-85910000D02*
X118913748Y-85910000D01*
X152590000Y-87760242D02*
X152590000Y-86089758D01*
X154410000Y-87760242D02*
X154410000Y-86089758D01*
X112090000Y-85160436D02*
X112090000Y-86614564D01*
X113910000Y-85160436D02*
X113910000Y-86614564D01*
X120522936Y-74640000D02*
X121977064Y-74640000D01*
X120522936Y-76460000D02*
X121977064Y-76460000D01*
X115390000Y-93276252D02*
X115390000Y-101786252D01*
X115390000Y-93276252D02*
X121890000Y-93276252D01*
X121890000Y-93276252D02*
X121890000Y-101786252D01*
X144090000Y-93010242D02*
X144090000Y-91339758D01*
X145910000Y-93010242D02*
X145910000Y-91339758D01*
X136310436Y-64590000D02*
X137764564Y-64590000D01*
X136310436Y-66410000D02*
X137764564Y-66410000D01*
X156290000Y-86135436D02*
X156290000Y-87589564D01*
X158110000Y-86135436D02*
X158110000Y-87589564D01*
X138760436Y-81990000D02*
X140214564Y-81990000D01*
X138760436Y-83810000D02*
X140214564Y-83810000D01*
X116890000Y-71189564D02*
X116890000Y-69735436D01*
X118710000Y-71189564D02*
X118710000Y-69735436D01*
X136297936Y-72890000D02*
X137752064Y-72890000D01*
X136297936Y-74710000D02*
X137752064Y-74710000D01*
X124936252Y-77540000D02*
X123513748Y-77540000D01*
X124936252Y-79360000D02*
X123513748Y-79360000D01*
X122990000Y-84310242D02*
X122990000Y-82639758D01*
X124810000Y-84310242D02*
X124810000Y-82639758D01*
X121712500Y-65640000D02*
X120912500Y-65640000D01*
X121712500Y-65640000D02*
X122512500Y-65640000D01*
X121712500Y-68760000D02*
X120912500Y-68760000D01*
X121712500Y-68760000D02*
X122512500Y-68760000D01*
X120412500Y-65690000D02*
X120172500Y-65360000D01*
X120652500Y-65360000D01*
X120412500Y-65690000D01*
G36*
X120412500Y-65690000D02*
G01*
X120172500Y-65360000D01*
X120652500Y-65360000D01*
X120412500Y-65690000D01*
G37*
X140227064Y-84940000D02*
X138772936Y-84940000D01*
X140227064Y-86760000D02*
X138772936Y-86760000D01*
X117111252Y-65340000D02*
X115688748Y-65340000D01*
X117111252Y-67160000D02*
X115688748Y-67160000D01*
X115985436Y-62140000D02*
X117439564Y-62140000D01*
X115985436Y-63960000D02*
X117439564Y-63960000D01*
X126170000Y-81305000D02*
X131240000Y-81305000D01*
X126170000Y-91075000D02*
X126170000Y-81305000D01*
X126170000Y-91075000D02*
X131240000Y-91075000D01*
X131240000Y-91075000D02*
X131240000Y-81305000D01*
X113990000Y-74139564D02*
X113990000Y-72685436D01*
X115810000Y-74139564D02*
X115810000Y-72685436D01*
X132440000Y-85037500D02*
X132440000Y-84237500D01*
X132440000Y-85037500D02*
X132440000Y-85837500D01*
X135560000Y-85037500D02*
X135560000Y-84237500D01*
X135560000Y-85037500D02*
X135560000Y-85837500D01*
X132490000Y-86337500D02*
X132160000Y-86577500D01*
X132160000Y-86097500D01*
X132490000Y-86337500D01*
G36*
X132490000Y-86337500D02*
G01*
X132160000Y-86577500D01*
X132160000Y-86097500D01*
X132490000Y-86337500D01*
G37*
X106090000Y-77913748D02*
X106090000Y-79336252D01*
X107910000Y-77913748D02*
X107910000Y-79336252D01*
X159290000Y-89038748D02*
X159290000Y-90461252D01*
X161110000Y-89038748D02*
X161110000Y-90461252D01*
D13*
X161135000Y-67765000D02*
X161135000Y-65315000D01*
X163160000Y-69865000D02*
X165710000Y-69865000D01*
X163310000Y-63190000D02*
X165635000Y-63190000D01*
X167860000Y-65390000D02*
X167860000Y-67565000D01*
D14*
X136310436Y-77890000D02*
X137764564Y-77890000D01*
X136310436Y-79710000D02*
X137764564Y-79710000D01*
X142537500Y-72890000D02*
X146297500Y-72890000D01*
X142537500Y-79710000D02*
X146297500Y-79710000D01*
X146297500Y-72890000D02*
X146297500Y-74150000D01*
X146297500Y-79710000D02*
X146297500Y-78450000D01*
X141257500Y-72990000D02*
X141017500Y-72660000D01*
X141497500Y-72660000D01*
X141257500Y-72990000D01*
G36*
X141257500Y-72990000D02*
G01*
X141017500Y-72660000D01*
X141497500Y-72660000D01*
X141257500Y-72990000D01*
G37*
X145062500Y-81690000D02*
X144262500Y-81690000D01*
X145062500Y-81690000D02*
X145862500Y-81690000D01*
X145062500Y-84810000D02*
X144262500Y-84810000D01*
X145062500Y-84810000D02*
X145862500Y-84810000D01*
X143762500Y-81740000D02*
X143522500Y-81410000D01*
X144002500Y-81410000D01*
X143762500Y-81740000D01*
G36*
X143762500Y-81740000D02*
G01*
X143522500Y-81410000D01*
X144002500Y-81410000D01*
X143762500Y-81740000D01*
G37*
X103300000Y-91900000D02*
X103300000Y-92400000D01*
X103540000Y-92140000D02*
X103540000Y-102260000D01*
X104040000Y-91900000D02*
X103300000Y-91900000D01*
X104100000Y-92140000D02*
X104100000Y-102260000D01*
X105200000Y-92140000D02*
X105200000Y-102260000D01*
X113860000Y-92140000D02*
X103540000Y-92140000D01*
X113860000Y-92140000D02*
X113860000Y-102260000D01*
X113860000Y-102260000D02*
X103540000Y-102260000D01*
X107444507Y-94727011D02*
G75*
G02*
X107568000Y-94092000I1555481J27013D01*
G01*
X107568615Y-95307587D02*
G75*
G02*
X107445000Y-94700000I1431385J607587D01*
G01*
X108392258Y-93267891D02*
G75*
G02*
X109608000Y-93268000I607742J-1432109D01*
G01*
X109607742Y-96132109D02*
G75*
G02*
X108392000Y-96132000I-607743J1432112D01*
G01*
X110432109Y-94092258D02*
G75*
G02*
X110432000Y-95308000I-1432109J-607742D01*
G01*
X110555000Y-99700000D02*
G75*
G02*
X107445000Y-99700000I-1555000J0D01*
G01*
X107445000Y-99700000D02*
G75*
G02*
X110555000Y-99700000I1555000J0D01*
G01*
D13*
X102585000Y-70635000D02*
X102585000Y-68185000D01*
X104610000Y-72735000D02*
X107160000Y-72735000D01*
X104760000Y-66060000D02*
X107085000Y-66060000D01*
X109310000Y-68260000D02*
X109310000Y-70435000D01*
D14*
X121260436Y-62540000D02*
X122714564Y-62540000D01*
X121260436Y-64360000D02*
X122714564Y-64360000D01*
D13*
X103950000Y-81850000D02*
X103950000Y-82350000D01*
X103950000Y-81850000D02*
X104450000Y-81850000D01*
X103950000Y-90050000D02*
X103950000Y-89550000D01*
X103950000Y-90050000D02*
X104450000Y-90050000D01*
X109950000Y-81850000D02*
X109450000Y-81850000D01*
X109950000Y-81850000D02*
X109950000Y-82350000D01*
X109950000Y-90050000D02*
X109450000Y-90050000D01*
X109950000Y-90050000D02*
X109950000Y-89550000D01*
D14*
X146114564Y-85740000D02*
X144660436Y-85740000D01*
X146114564Y-87560000D02*
X144660436Y-87560000D01*
X122962500Y-87990000D02*
X122162500Y-87990000D01*
X122962500Y-87990000D02*
X123762500Y-87990000D01*
X122962500Y-91110000D02*
X122162500Y-91110000D01*
X122962500Y-91110000D02*
X123762500Y-91110000D01*
X121662500Y-88040000D02*
X121422500Y-87710000D01*
X121902500Y-87710000D01*
X121662500Y-88040000D01*
G36*
X121662500Y-88040000D02*
G01*
X121422500Y-87710000D01*
X121902500Y-87710000D01*
X121662500Y-88040000D01*
G37*
X142550000Y-64590000D02*
X146310000Y-64590000D01*
X142550000Y-71410000D02*
X146310000Y-71410000D01*
X146310000Y-64590000D02*
X146310000Y-65850000D01*
X146310000Y-71410000D02*
X146310000Y-70150000D01*
X141270000Y-64690000D02*
X141030000Y-64360000D01*
X141510000Y-64360000D01*
X141270000Y-64690000D01*
G36*
X141270000Y-64690000D02*
G01*
X141030000Y-64360000D01*
X141510000Y-64360000D01*
X141270000Y-64690000D01*
G37*
X111040000Y-74127064D02*
X111040000Y-72672936D01*
X112860000Y-74127064D02*
X112860000Y-72672936D01*
X131390000Y-95538748D02*
X131390000Y-96961252D01*
X133210000Y-95538748D02*
X133210000Y-96961252D01*
X112710436Y-68390000D02*
X114164564Y-68390000D01*
X112710436Y-70210000D02*
X114164564Y-70210000D01*
X147380000Y-91450000D02*
X147380000Y-92872504D01*
X149200000Y-91450000D02*
X149200000Y-92872504D01*
X152462500Y-89990000D02*
X151662500Y-89990000D01*
X152462500Y-89990000D02*
X153262500Y-89990000D01*
X152462500Y-93110000D02*
X151662500Y-93110000D01*
X152462500Y-93110000D02*
X153262500Y-93110000D01*
X151162500Y-90040000D02*
X150922500Y-89710000D01*
X151402500Y-89710000D01*
X151162500Y-90040000D01*
G36*
X151162500Y-90040000D02*
G01*
X150922500Y-89710000D01*
X151402500Y-89710000D01*
X151162500Y-90040000D01*
G37*
X136310436Y-69590000D02*
X137764564Y-69590000D01*
X136310436Y-71410000D02*
X137764564Y-71410000D01*
X120240000Y-71337500D02*
X120240000Y-70537500D01*
X120240000Y-71337500D02*
X120240000Y-72137500D01*
X123360000Y-71337500D02*
X123360000Y-70537500D01*
X123360000Y-71337500D02*
X123360000Y-72137500D01*
X120290000Y-72637500D02*
X119960000Y-72877500D01*
X119960000Y-72397500D01*
X120290000Y-72637500D01*
G36*
X120290000Y-72637500D02*
G01*
X119960000Y-72877500D01*
X119960000Y-72397500D01*
X120290000Y-72637500D01*
G37*
%LPC*%
D15*
X157500000Y-75200000D03*
X157500000Y-69200000D03*
X150500000Y-69200000D03*
D16*
X150500000Y-72200000D03*
D15*
X150500000Y-75200000D03*
X125700000Y-69100000D03*
X125700000Y-75100000D03*
X132700000Y-75100000D03*
D16*
X132700000Y-72100000D03*
D15*
X132700000Y-69100000D03*
D17*
X125350000Y-94800000D03*
X128500000Y-94800000D03*
D18*
X119400000Y-88600000D03*
X116450000Y-88600000D03*
D19*
X138100000Y-94786252D03*
X138100000Y-100186252D03*
D18*
X121100000Y-85000000D03*
X118150000Y-85000000D03*
D20*
X153500000Y-88500000D03*
X153500000Y-85350000D03*
D21*
X113000000Y-84425000D03*
X113000000Y-87350000D03*
D22*
X119787500Y-75550000D03*
X122712500Y-75550000D03*
D23*
X118640000Y-94786252D03*
X118640000Y-101586252D03*
D20*
X145000000Y-93750000D03*
X145000000Y-90600000D03*
D22*
X135575000Y-65500000D03*
X138500000Y-65500000D03*
D21*
X157200000Y-85400000D03*
X157200000Y-88325000D03*
D22*
X138025000Y-82900000D03*
X140950000Y-82900000D03*
D24*
X117800000Y-71925000D03*
X117800000Y-69000000D03*
D22*
X135562500Y-73800000D03*
X138487500Y-73800000D03*
D18*
X125700000Y-78450000D03*
X122750000Y-78450000D03*
D20*
X123900000Y-85050000D03*
X123900000Y-81900000D03*
D25*
X165000000Y-55000000D03*
D26*
X120575000Y-66250000D03*
X120575000Y-68150000D03*
X122850000Y-67200000D03*
D27*
X140962500Y-85850000D03*
X138037500Y-85850000D03*
D18*
X117875000Y-66250000D03*
X114925000Y-66250000D03*
D22*
X115250000Y-63050000D03*
X118175000Y-63050000D03*
D28*
X128700000Y-83650000D03*
X128700000Y-86190000D03*
X128700000Y-88730000D03*
D24*
X114900000Y-74875000D03*
X114900000Y-71950000D03*
D29*
X133050000Y-86175000D03*
X134950000Y-86175000D03*
X134000000Y-83900000D03*
D30*
X107000000Y-77150000D03*
X107000000Y-80100000D03*
D25*
X105000000Y-55000000D03*
X165000000Y-111000000D03*
D30*
X160200000Y-88275000D03*
X160200000Y-91225000D03*
D31*
X161920000Y-64000000D03*
X161920000Y-69080000D03*
X167000000Y-64000000D03*
X167000000Y-69080000D03*
D32*
X164560000Y-66465000D03*
D22*
X135575000Y-78800000D03*
X138500000Y-78800000D03*
D33*
X141237500Y-74000000D03*
X141237500Y-76300000D03*
X141237500Y-78600000D03*
D34*
X147537500Y-76300000D03*
D26*
X143925000Y-82300000D03*
X143925000Y-84200000D03*
X146200000Y-83250000D03*
D35*
X109000000Y-94700000D03*
D36*
X109000000Y-99700000D03*
D31*
X103370000Y-66870000D03*
X103370000Y-71950000D03*
X108450000Y-66870000D03*
X108450000Y-71950000D03*
D32*
X106010000Y-69335000D03*
D22*
X120525000Y-63450000D03*
X123450000Y-63450000D03*
D37*
X106950000Y-84450000D03*
X106950000Y-86950000D03*
D27*
X146850000Y-86650000D03*
X143925000Y-86650000D03*
D26*
X121825000Y-88600000D03*
X121825000Y-89550000D03*
X121825000Y-90500000D03*
X124100000Y-90500000D03*
X124100000Y-88600000D03*
D33*
X141250000Y-65700000D03*
X141250000Y-68000000D03*
X141250000Y-70300000D03*
D34*
X147550000Y-68000000D03*
D24*
X111950000Y-74862500D03*
X111950000Y-71937500D03*
D25*
X105000000Y-111000000D03*
D30*
X132300000Y-94775000D03*
X132300000Y-97725000D03*
D22*
X111975000Y-69300000D03*
X114900000Y-69300000D03*
D30*
X148290000Y-90686252D03*
X148290000Y-93636252D03*
D26*
X151325000Y-90600000D03*
X151325000Y-91550000D03*
X151325000Y-92500000D03*
X153600000Y-92500000D03*
X153600000Y-90600000D03*
D22*
X135575000Y-70500000D03*
X138500000Y-70500000D03*
D29*
X120850000Y-72475000D03*
X122750000Y-72475000D03*
X121800000Y-70200000D03*
%LPD*%
M02*
