G04 #@! TF.GenerationSoftware,KiCad,Pcbnew,8.0.6*
G04 #@! TF.CreationDate,2024-11-10T21:08:27-05:00*
G04 #@! TF.ProjectId,t41_2_low_power_amplifier,7434315f-325f-46c6-9f77-5f706f776572,rev?*
G04 #@! TF.SameCoordinates,Original*
G04 #@! TF.FileFunction,Copper,L1,Top*
G04 #@! TF.FilePolarity,Positive*
%FSLAX46Y46*%
G04 Gerber Fmt 4.6, Leading zero omitted, Abs format (unit mm)*
G04 Created by KiCad (PCBNEW 8.0.6) date 2024-11-10 21:08:27*
%MOMM*%
%LPD*%
G01*
G04 APERTURE LIST*
G04 Aperture macros list*
%AMRoundRect*
0 Rectangle with rounded corners*
0 $1 Rounding radius*
0 $2 $3 $4 $5 $6 $7 $8 $9 X,Y pos of 4 corners*
0 Add a 4 corners polygon primitive as box body*
4,1,4,$2,$3,$4,$5,$6,$7,$8,$9,$2,$3,0*
0 Add four circle primitives for the rounded corners*
1,1,$1+$1,$2,$3*
1,1,$1+$1,$4,$5*
1,1,$1+$1,$6,$7*
1,1,$1+$1,$8,$9*
0 Add four rect primitives between the rounded corners*
20,1,$1+$1,$2,$3,$4,$5,0*
20,1,$1+$1,$4,$5,$6,$7,0*
20,1,$1+$1,$6,$7,$8,$9,0*
20,1,$1+$1,$8,$9,$2,$3,0*%
G04 Aperture macros list end*
G04 #@! TA.AperFunction,SMDPad,CuDef*
%ADD10RoundRect,0.150000X0.150000X-0.512500X0.150000X0.512500X-0.150000X0.512500X-0.150000X-0.512500X0*%
G04 #@! TD*
G04 #@! TA.AperFunction,SMDPad,CuDef*
%ADD11RoundRect,0.250000X-0.312500X-0.625000X0.312500X-0.625000X0.312500X0.625000X-0.312500X0.625000X0*%
G04 #@! TD*
G04 #@! TA.AperFunction,SMDPad,CuDef*
%ADD12RoundRect,0.250000X0.312500X0.625000X-0.312500X0.625000X-0.312500X-0.625000X0.312500X-0.625000X0*%
G04 #@! TD*
G04 #@! TA.AperFunction,SMDPad,CuDef*
%ADD13RoundRect,0.150000X-0.512500X-0.150000X0.512500X-0.150000X0.512500X0.150000X-0.512500X0.150000X0*%
G04 #@! TD*
G04 #@! TA.AperFunction,SMDPad,CuDef*
%ADD14RoundRect,0.250000X-0.625000X0.312500X-0.625000X-0.312500X0.625000X-0.312500X0.625000X0.312500X0*%
G04 #@! TD*
G04 #@! TA.AperFunction,SMDPad,CuDef*
%ADD15RoundRect,0.250000X0.325000X0.650000X-0.325000X0.650000X-0.325000X-0.650000X0.325000X-0.650000X0*%
G04 #@! TD*
G04 #@! TA.AperFunction,SMDPad,CuDef*
%ADD16RoundRect,0.250000X-0.550000X1.500000X-0.550000X-1.500000X0.550000X-1.500000X0.550000X1.500000X0*%
G04 #@! TD*
G04 #@! TA.AperFunction,ComponentPad*
%ADD17C,1.440000*%
G04 #@! TD*
G04 #@! TA.AperFunction,SMDPad,CuDef*
%ADD18RoundRect,0.250000X-1.400000X-1.000000X1.400000X-1.000000X1.400000X1.000000X-1.400000X1.000000X0*%
G04 #@! TD*
G04 #@! TA.AperFunction,ComponentPad*
%ADD19C,2.000000*%
G04 #@! TD*
G04 #@! TA.AperFunction,SMDPad,CuDef*
%ADD20RoundRect,0.250000X0.625000X-0.312500X0.625000X0.312500X-0.625000X0.312500X-0.625000X-0.312500X0*%
G04 #@! TD*
G04 #@! TA.AperFunction,SMDPad,CuDef*
%ADD21RoundRect,0.250000X-0.375000X-1.075000X0.375000X-1.075000X0.375000X1.075000X-0.375000X1.075000X0*%
G04 #@! TD*
G04 #@! TA.AperFunction,ComponentPad*
%ADD22C,7.500000*%
G04 #@! TD*
G04 #@! TA.AperFunction,SMDPad,CuDef*
%ADD23RoundRect,0.250000X-0.650000X0.325000X-0.650000X-0.325000X0.650000X-0.325000X0.650000X0.325000X0*%
G04 #@! TD*
G04 #@! TA.AperFunction,ComponentPad*
%ADD24C,2.600000*%
G04 #@! TD*
G04 #@! TA.AperFunction,ComponentPad*
%ADD25C,2.500000*%
G04 #@! TD*
G04 #@! TA.AperFunction,SMDPad,CuDef*
%ADD26RoundRect,0.375000X-0.625000X-0.375000X0.625000X-0.375000X0.625000X0.375000X-0.625000X0.375000X0*%
G04 #@! TD*
G04 #@! TA.AperFunction,SMDPad,CuDef*
%ADD27RoundRect,0.500000X-0.500000X-1.400000X0.500000X-1.400000X0.500000X1.400000X-0.500000X1.400000X0*%
G04 #@! TD*
G04 #@! TA.AperFunction,SMDPad,CuDef*
%ADD28R,2.770000X1.470000*%
G04 #@! TD*
G04 #@! TA.AperFunction,ComponentPad*
%ADD29R,2.400000X2.400000*%
G04 #@! TD*
G04 #@! TA.AperFunction,ComponentPad*
%ADD30C,2.400000*%
G04 #@! TD*
G04 #@! TA.AperFunction,ComponentPad*
%ADD31C,2.100000*%
G04 #@! TD*
G04 #@! TA.AperFunction,SMDPad,CuDef*
%ADD32RoundRect,0.250000X0.700000X-0.275000X0.700000X0.275000X-0.700000X0.275000X-0.700000X-0.275000X0*%
G04 #@! TD*
G04 #@! TA.AperFunction,ViaPad*
%ADD33C,1.000000*%
G04 #@! TD*
G04 #@! TA.AperFunction,Conductor*
%ADD34C,0.500000*%
G04 #@! TD*
G04 #@! TA.AperFunction,Conductor*
%ADD35C,0.250000*%
G04 #@! TD*
G04 #@! TA.AperFunction,Conductor*
%ADD36C,1.000000*%
G04 #@! TD*
G04 #@! TA.AperFunction,Conductor*
%ADD37C,0.200000*%
G04 #@! TD*
G04 APERTURE END LIST*
D10*
X142650000Y-94200000D03*
X143600000Y-94200000D03*
X144550000Y-94200000D03*
X144550000Y-91925000D03*
X142650000Y-91925000D03*
D11*
X160962500Y-99600000D03*
X158037500Y-99600000D03*
D12*
X150625000Y-95600000D03*
X147700000Y-95600000D03*
D10*
X159100000Y-96600000D03*
X161000000Y-96600000D03*
X160050000Y-94325000D03*
D13*
X153525000Y-95650000D03*
X153525000Y-97550000D03*
X155800000Y-96600000D03*
D14*
X132500000Y-91537500D03*
X132500000Y-94462500D03*
D11*
X117325000Y-87325000D03*
X120250000Y-87325000D03*
D15*
X142650000Y-96850000D03*
X139700000Y-96850000D03*
D16*
X142640000Y-104236252D03*
X142640000Y-109636252D03*
D17*
X149400000Y-60400000D03*
X151940000Y-60400000D03*
X154480000Y-60400000D03*
D11*
X157075000Y-65100000D03*
X160000000Y-65100000D03*
D15*
X142650000Y-89100000D03*
X139700000Y-89100000D03*
D12*
X160050000Y-84250000D03*
X157125000Y-84250000D03*
D14*
X125400000Y-69550000D03*
X125400000Y-72475000D03*
D12*
X121787500Y-79425000D03*
X118862500Y-79425000D03*
D18*
X118640000Y-104236252D03*
X118640000Y-111036252D03*
D19*
X130100000Y-71500000D03*
X130100000Y-77500000D03*
X146100000Y-77500000D03*
X146100000Y-74500000D03*
X146100000Y-71500000D03*
D11*
X149675000Y-68000000D03*
X152600000Y-68000000D03*
D20*
X117800000Y-71925000D03*
X117800000Y-69000000D03*
D16*
X134690000Y-104236252D03*
X134690000Y-109636252D03*
D21*
X118975000Y-76025000D03*
X121775000Y-76025000D03*
D12*
X115262500Y-96400000D03*
X112337500Y-96400000D03*
D22*
X195000000Y-55000000D03*
D11*
X149662500Y-76300000D03*
X152587500Y-76300000D03*
D15*
X127400000Y-76100000D03*
X124450000Y-76100000D03*
D13*
X120575000Y-66250000D03*
X120575000Y-68150000D03*
X122850000Y-67200000D03*
D15*
X117875000Y-66250000D03*
X114925000Y-66250000D03*
D11*
X115250000Y-63050000D03*
X118175000Y-63050000D03*
D17*
X149260000Y-89100000D03*
X151800000Y-89100000D03*
X154340000Y-89100000D03*
D20*
X114900000Y-74875000D03*
X114900000Y-71950000D03*
D23*
X106950000Y-86425000D03*
X106950000Y-89375000D03*
D22*
X105000000Y-55000000D03*
X195000000Y-121000000D03*
D12*
X115262500Y-99250000D03*
X112337500Y-99250000D03*
D15*
X116525000Y-79450000D03*
X113575000Y-79450000D03*
D24*
X184520000Y-69000000D03*
X184520000Y-74080000D03*
X189600000Y-69000000D03*
X189600000Y-74080000D03*
D25*
X187160000Y-71465000D03*
D11*
X149662500Y-80900000D03*
X152587500Y-80900000D03*
D26*
X155337500Y-76300000D03*
X155337500Y-78600000D03*
X155337500Y-80900000D03*
D27*
X161637500Y-78600000D03*
D28*
X124910000Y-104236252D03*
X128490000Y-104236252D03*
D29*
X108050000Y-104150000D03*
D30*
X108050000Y-109150000D03*
D24*
X103370000Y-66870000D03*
X103370000Y-71950000D03*
X108450000Y-66870000D03*
X108450000Y-71950000D03*
D25*
X106010000Y-69335000D03*
D11*
X120525000Y-63450000D03*
X123450000Y-63450000D03*
D31*
X106950000Y-93900000D03*
X106950000Y-96400000D03*
D32*
X121200000Y-93025000D03*
X121200000Y-89875000D03*
D11*
X113197500Y-92400000D03*
X116122500Y-92400000D03*
D15*
X145375000Y-60400000D03*
X142425000Y-60400000D03*
D11*
X151862500Y-84250000D03*
X154787500Y-84250000D03*
D10*
X117900000Y-84450000D03*
X119800000Y-84450000D03*
X118850000Y-82175000D03*
D26*
X155350000Y-68000000D03*
X155350000Y-70300000D03*
X155350000Y-72600000D03*
D27*
X161650000Y-70300000D03*
D20*
X111950000Y-74862500D03*
X111950000Y-71937500D03*
D10*
X113210000Y-89637500D03*
X115110000Y-89637500D03*
X114160000Y-87362500D03*
D22*
X105000000Y-121000000D03*
D23*
X128490000Y-107536252D03*
X128490000Y-110486252D03*
D11*
X111975000Y-69300000D03*
X114900000Y-69300000D03*
X149675000Y-72600000D03*
X152600000Y-72600000D03*
D12*
X154837500Y-65100000D03*
X151912500Y-65100000D03*
D10*
X120850000Y-72475000D03*
X122750000Y-72475000D03*
X121800000Y-70200000D03*
D19*
X180600000Y-77500000D03*
X180600000Y-71500000D03*
X164600000Y-71500000D03*
X164600000Y-74500000D03*
X164600000Y-77500000D03*
D33*
X145600000Y-90400000D03*
X106900000Y-84600000D03*
X147000000Y-106000000D03*
X159900000Y-104700000D03*
X140900000Y-94600000D03*
X145500000Y-102400000D03*
X144600000Y-96100000D03*
X156400000Y-98100000D03*
X153900000Y-74500000D03*
X162000000Y-75100000D03*
X140500000Y-60400000D03*
X125200000Y-62800000D03*
X120400000Y-81200000D03*
X123400000Y-90200000D03*
X115300000Y-101600000D03*
X126000000Y-96000000D03*
X138600000Y-111500000D03*
X131500000Y-111300000D03*
X118600000Y-113700000D03*
X123400000Y-78000000D03*
X161500000Y-92500000D03*
X169400000Y-84600000D03*
X166800000Y-83000000D03*
X160900000Y-88900000D03*
X166500000Y-78500000D03*
X166500000Y-72400000D03*
X144200000Y-87400000D03*
X141200000Y-86600000D03*
X141200000Y-91800000D03*
X119400000Y-73400000D03*
X113600000Y-77200000D03*
X113500000Y-81600000D03*
X150600000Y-61800000D03*
X144100000Y-68400000D03*
X144100000Y-80600000D03*
X141200000Y-80600000D03*
X141200000Y-68400000D03*
X141200000Y-74500000D03*
X161800000Y-83300000D03*
X161400000Y-67000000D03*
X169800000Y-76600000D03*
X169800000Y-72400000D03*
X171500000Y-74500000D03*
X140500000Y-102300000D03*
X128000000Y-92800000D03*
X114900000Y-76700000D03*
X113300000Y-63300000D03*
X127300000Y-73400000D03*
X111950000Y-76700000D03*
X113300000Y-61900000D03*
X115960000Y-85225000D03*
X124700000Y-67750000D03*
X127500000Y-68700000D03*
X119350000Y-70450000D03*
X116660000Y-89625000D03*
X116850000Y-73650000D03*
X161650000Y-73200000D03*
X161637500Y-81450000D03*
X153400000Y-70300000D03*
X153387500Y-78600000D03*
D34*
X164600000Y-74500000D02*
X168300000Y-78200000D01*
X168300000Y-78200000D02*
X168300000Y-83600000D01*
X168300000Y-83600000D02*
X160050000Y-91850000D01*
X160050000Y-91850000D02*
X160050000Y-94325000D01*
D35*
X155800000Y-96600000D02*
X158000000Y-96600000D01*
X158000000Y-96600000D02*
X159100000Y-96600000D01*
X158037500Y-99600000D02*
X158037500Y-96637500D01*
X158037500Y-96637500D02*
X158000000Y-96600000D01*
D34*
X161000000Y-96600000D02*
X161000000Y-99562500D01*
X161000000Y-99562500D02*
X160962500Y-99600000D01*
D36*
X160962500Y-99600000D02*
X160962500Y-101237500D01*
X160962500Y-101237500D02*
X157963748Y-104236252D01*
X157963748Y-104236252D02*
X142640000Y-104236252D01*
D34*
X142650000Y-96850000D02*
X142650000Y-99100000D01*
X142650000Y-99100000D02*
X142650000Y-104226252D01*
D35*
X150625000Y-95600000D02*
X153475000Y-95600000D01*
X153475000Y-95600000D02*
X153525000Y-95650000D01*
D37*
X144550000Y-94200000D02*
X145950000Y-95600000D01*
X145950000Y-95600000D02*
X147700000Y-95600000D01*
D34*
X121787500Y-79425000D02*
X121787500Y-76037500D01*
X121787500Y-76037500D02*
X121775000Y-76025000D01*
X127400000Y-76100000D02*
X128700000Y-76100000D01*
X128700000Y-76100000D02*
X130100000Y-77500000D01*
X121775000Y-76025000D02*
X124375000Y-76025000D01*
X124375000Y-76025000D02*
X124450000Y-76100000D01*
X118862500Y-79425000D02*
X116550000Y-79425000D01*
D35*
X116550000Y-79425000D02*
X116525000Y-79450000D01*
D34*
X118862500Y-79425000D02*
X118862500Y-76137500D01*
D35*
X118862500Y-76137500D02*
X118975000Y-76025000D01*
D34*
X118850000Y-82175000D02*
X118850000Y-79437500D01*
D35*
X118850000Y-79437500D02*
X118862500Y-79425000D01*
D37*
X142650000Y-66050000D02*
X145400000Y-63300000D01*
X142650000Y-89100000D02*
X142650000Y-66050000D01*
X145400000Y-63300000D02*
X145375000Y-63275000D01*
X145375000Y-63275000D02*
X145375000Y-60400000D01*
D35*
X151912500Y-65100000D02*
X151912500Y-60427500D01*
X151912500Y-60427500D02*
X151940000Y-60400000D01*
X149400000Y-60400000D02*
X145375000Y-60400000D01*
D36*
X180600000Y-71500000D02*
X187125000Y-71500000D01*
X187125000Y-71500000D02*
X187160000Y-71465000D01*
X164600000Y-77500000D02*
X162737500Y-77500000D01*
X162737500Y-77500000D02*
X161637500Y-78600000D01*
X164600000Y-71500000D02*
X162850000Y-71500000D01*
X162850000Y-71500000D02*
X161650000Y-70300000D01*
D34*
X161650000Y-70300000D02*
X161650000Y-73200000D01*
X161637500Y-78600000D02*
X161637500Y-81450000D01*
X155350000Y-70300000D02*
X153400000Y-70300000D01*
D37*
X157075000Y-68575000D02*
X156950000Y-68700000D01*
X157075000Y-65100000D02*
X157075000Y-68575000D01*
X157075000Y-65100000D02*
X154837500Y-65100000D01*
X156950000Y-68700000D02*
X155350000Y-70300000D01*
X157125000Y-80387500D02*
X155337500Y-78600000D01*
X157125000Y-84250000D02*
X157125000Y-80387500D01*
X157125000Y-84250000D02*
X154787500Y-84250000D01*
D34*
X155337500Y-78600000D02*
X153387500Y-78600000D01*
D37*
X138900000Y-93100000D02*
X144100000Y-93100000D01*
X144100000Y-93100000D02*
X144106250Y-93093750D01*
X114622500Y-93900000D02*
X106950000Y-93900000D01*
D35*
X116035000Y-92487500D02*
X116122500Y-92400000D01*
D34*
X106950000Y-93900000D02*
X106950000Y-89375000D01*
D37*
X116122500Y-92400000D02*
X114622500Y-93900000D01*
X116122500Y-92400000D02*
X117600000Y-92400000D01*
X118500000Y-91500000D02*
X137300000Y-91500000D01*
X137300000Y-91500000D02*
X138900000Y-93100000D01*
X144106250Y-93093750D02*
X144550000Y-93537501D01*
X144550000Y-93537501D02*
X144550000Y-94200000D01*
X117600000Y-92400000D02*
X118500000Y-91500000D01*
D36*
X128490000Y-104236252D02*
X128490000Y-107536252D01*
X125625000Y-93025000D02*
X121200000Y-93025000D01*
X128490000Y-95890000D02*
X125625000Y-93025000D01*
D37*
X115262500Y-96400000D02*
X118637500Y-93025000D01*
D36*
X134690000Y-104236252D02*
X142640000Y-104236252D01*
X128490000Y-104236252D02*
X134690000Y-104236252D01*
D34*
X142650000Y-96850000D02*
X142650000Y-94200000D01*
D37*
X118637500Y-93025000D02*
X121200000Y-93025000D01*
D35*
X142650000Y-104226252D02*
X142640000Y-104236252D01*
D36*
X128490000Y-104236252D02*
X128490000Y-95890000D01*
D34*
X142650000Y-91925000D02*
X142650000Y-89100000D01*
D37*
X149260000Y-89100000D02*
X142650000Y-89100000D01*
D34*
X121800000Y-75225000D02*
X121775000Y-75250000D01*
X122850000Y-67200000D02*
X122850000Y-69150000D01*
X122850000Y-67200000D02*
X122850000Y-64100000D01*
X122850000Y-64100000D02*
X123500000Y-63450000D01*
X121800000Y-70200000D02*
X121800000Y-75225000D01*
X122850000Y-69150000D02*
X121800000Y-70200000D01*
D37*
X106950000Y-96400000D02*
X112337500Y-96400000D01*
X112337500Y-99250000D02*
X112337500Y-96400000D01*
D34*
X155337500Y-80900000D02*
X152587500Y-80900000D01*
D35*
X118875000Y-82150000D02*
X118850000Y-82175000D01*
X118840000Y-82165000D02*
X118850000Y-82175000D01*
D36*
X118590000Y-104186252D02*
X118640000Y-104236252D01*
X118640000Y-104236252D02*
X108136252Y-104236252D01*
X118640000Y-104236252D02*
X124910000Y-104236252D01*
X108136252Y-104236252D02*
X108050000Y-104150000D01*
D37*
X151800000Y-89100000D02*
X151800000Y-84312500D01*
X151800000Y-84312500D02*
X151862500Y-84250000D01*
D34*
X120250000Y-86275000D02*
X119800000Y-85825000D01*
X119800000Y-85825000D02*
X119800000Y-84450000D01*
X120250000Y-87325000D02*
X120250000Y-86275000D01*
X120250000Y-88925000D02*
X121200000Y-89875000D01*
X120250000Y-87325000D02*
X120250000Y-88925000D01*
D36*
X111940000Y-69335000D02*
X111975000Y-69300000D01*
D34*
X111950000Y-69325000D02*
X111975000Y-69300000D01*
D36*
X106010000Y-69335000D02*
X111940000Y-69335000D01*
D34*
X111950000Y-71937500D02*
X111950000Y-69325000D01*
X155350000Y-72600000D02*
X152600000Y-72600000D01*
D35*
X117325000Y-86050000D02*
X117900000Y-85475000D01*
X117900000Y-84450000D02*
X117900000Y-85475000D01*
X117325000Y-87325000D02*
X117325000Y-86050000D01*
X114160000Y-87362500D02*
X117287500Y-87362500D01*
X117287500Y-87362500D02*
X117325000Y-87325000D01*
X113197500Y-89650000D02*
X113210000Y-89637500D01*
X113197500Y-92400000D02*
X113197500Y-89650000D01*
D34*
X120575000Y-66250000D02*
X117875000Y-66250000D01*
X120575000Y-63450000D02*
X118575000Y-63450000D01*
X118575000Y-63450000D02*
X118175000Y-63050000D01*
X120575000Y-66250000D02*
X120575000Y-63450000D01*
X114900000Y-69300000D02*
X114900000Y-66275000D01*
X114900000Y-71950000D02*
X114900000Y-69300000D01*
X114900000Y-66275000D02*
X114925000Y-66250000D01*
X120850000Y-70050000D02*
X120575000Y-69775000D01*
X119950000Y-68150000D02*
X119100000Y-69000000D01*
X120575000Y-68150000D02*
X119950000Y-68150000D01*
X119100000Y-69000000D02*
X117800000Y-69000000D01*
X120575000Y-69775000D02*
X120575000Y-68150000D01*
X120850000Y-72475000D02*
X120850000Y-70050000D01*
X122750000Y-72475000D02*
X125400000Y-72475000D01*
X155337500Y-76300000D02*
X152587500Y-76300000D01*
X155350000Y-68000000D02*
X152600000Y-68000000D01*
G04 #@! TA.AperFunction,Conductor*
G36*
X131146131Y-92120185D02*
G01*
X131184636Y-92164271D01*
X131186395Y-92163187D01*
X131190185Y-92169332D01*
X131190186Y-92169334D01*
X131282288Y-92318656D01*
X131282289Y-92318657D01*
X131406344Y-92442712D01*
X131531096Y-92519659D01*
X131577821Y-92571607D01*
X131590000Y-92625198D01*
X131590000Y-93375388D01*
X131570315Y-93442427D01*
X131531097Y-93480926D01*
X131406659Y-93557680D01*
X131406655Y-93557683D01*
X131282684Y-93681654D01*
X131190643Y-93830875D01*
X131190641Y-93830880D01*
X131135494Y-93997302D01*
X131135493Y-93997309D01*
X131125000Y-94100013D01*
X131125000Y-94212500D01*
X133874999Y-94212500D01*
X133874999Y-94100028D01*
X133874998Y-94100013D01*
X133864505Y-93997302D01*
X133809358Y-93830880D01*
X133809356Y-93830875D01*
X133717315Y-93681654D01*
X133593344Y-93557683D01*
X133593340Y-93557680D01*
X133468903Y-93480926D01*
X133422178Y-93428978D01*
X133410000Y-93375388D01*
X133410000Y-92625198D01*
X133429685Y-92558159D01*
X133468904Y-92519659D01*
X133519755Y-92488294D01*
X133593656Y-92442712D01*
X133717712Y-92318656D01*
X133809814Y-92169334D01*
X133809814Y-92169332D01*
X133813605Y-92163187D01*
X133815399Y-92164293D01*
X133854687Y-92119663D01*
X133920908Y-92100500D01*
X136999903Y-92100500D01*
X137066942Y-92120185D01*
X137087583Y-92136818D01*
X138531284Y-93580520D01*
X138531286Y-93580521D01*
X138531290Y-93580524D01*
X138595703Y-93617712D01*
X138668216Y-93659577D01*
X138820943Y-93700501D01*
X138820945Y-93700501D01*
X138986654Y-93700501D01*
X138986670Y-93700500D01*
X141725500Y-93700500D01*
X141792539Y-93720185D01*
X141838294Y-93772989D01*
X141849500Y-93824500D01*
X141849500Y-94778201D01*
X141852401Y-94815067D01*
X141852402Y-94815073D01*
X141894576Y-94960233D01*
X141899500Y-94994828D01*
X141899500Y-95513132D01*
X141879815Y-95580171D01*
X141860616Y-95601346D01*
X141861451Y-95602181D01*
X141732288Y-95731343D01*
X141732287Y-95731344D01*
X141639921Y-95881096D01*
X141587973Y-95927821D01*
X141534382Y-95940000D01*
X140815032Y-95940000D01*
X140747993Y-95920315D01*
X140709494Y-95881097D01*
X140617319Y-95731659D01*
X140617316Y-95731655D01*
X140493345Y-95607684D01*
X140344124Y-95515643D01*
X140344119Y-95515641D01*
X140177697Y-95460494D01*
X140177690Y-95460493D01*
X140074986Y-95450000D01*
X139950000Y-95450000D01*
X139950000Y-98249999D01*
X140074972Y-98249999D01*
X140074986Y-98249998D01*
X140177697Y-98239505D01*
X140344119Y-98184358D01*
X140344124Y-98184356D01*
X140493345Y-98092315D01*
X140617316Y-97968344D01*
X140617319Y-97968340D01*
X140709494Y-97818903D01*
X140761441Y-97772178D01*
X140815032Y-97760000D01*
X141534382Y-97760000D01*
X141601421Y-97779685D01*
X141639921Y-97818904D01*
X141732287Y-97968655D01*
X141861451Y-98097819D01*
X141859559Y-98099710D01*
X141892774Y-98146583D01*
X141899500Y-98186867D01*
X141899500Y-101919205D01*
X141879815Y-101986244D01*
X141827011Y-102031999D01*
X141814505Y-102036911D01*
X141770666Y-102051438D01*
X141621342Y-102143541D01*
X141497289Y-102267594D01*
X141405187Y-102416915D01*
X141405185Y-102416920D01*
X141382377Y-102485752D01*
X141350001Y-102583455D01*
X141350001Y-102583456D01*
X141350000Y-102583456D01*
X141339500Y-102686235D01*
X141339500Y-103111752D01*
X141319815Y-103178791D01*
X141267011Y-103224546D01*
X141215500Y-103235752D01*
X136114499Y-103235752D01*
X136047460Y-103216067D01*
X136001705Y-103163263D01*
X135990499Y-103111752D01*
X135990499Y-102686250D01*
X135990498Y-102686233D01*
X135979999Y-102583455D01*
X135979998Y-102583452D01*
X135969390Y-102551439D01*
X135924814Y-102416918D01*
X135832712Y-102267596D01*
X135708656Y-102143540D01*
X135559334Y-102051438D01*
X135392797Y-101996253D01*
X135392795Y-101996252D01*
X135290010Y-101985752D01*
X134089998Y-101985752D01*
X134089981Y-101985753D01*
X133987203Y-101996252D01*
X133987200Y-101996253D01*
X133820668Y-102051437D01*
X133820663Y-102051439D01*
X133671342Y-102143541D01*
X133547289Y-102267594D01*
X133455187Y-102416915D01*
X133455185Y-102416920D01*
X133432377Y-102485752D01*
X133400001Y-102583455D01*
X133400001Y-102583456D01*
X133400000Y-102583456D01*
X133389500Y-102686235D01*
X133389500Y-103111752D01*
X133369815Y-103178791D01*
X133317011Y-103224546D01*
X133265500Y-103235752D01*
X130363521Y-103235752D01*
X130296482Y-103216067D01*
X130264254Y-103186062D01*
X130232550Y-103143710D01*
X130232547Y-103143707D01*
X130232546Y-103143706D01*
X130206695Y-103124354D01*
X130117335Y-103057458D01*
X130117328Y-103057454D01*
X129982482Y-103007160D01*
X129982483Y-103007160D01*
X129922883Y-103000753D01*
X129922881Y-103000752D01*
X129922873Y-103000752D01*
X129922865Y-103000752D01*
X129614500Y-103000752D01*
X129547461Y-102981067D01*
X129501706Y-102928263D01*
X129490500Y-102876752D01*
X129490500Y-97549986D01*
X138625001Y-97549986D01*
X138635494Y-97652697D01*
X138690641Y-97819119D01*
X138690643Y-97819124D01*
X138782684Y-97968345D01*
X138906654Y-98092315D01*
X139055875Y-98184356D01*
X139055880Y-98184358D01*
X139222302Y-98239505D01*
X139222309Y-98239506D01*
X139325019Y-98249999D01*
X139449999Y-98249999D01*
X139450000Y-98249998D01*
X139450000Y-97100000D01*
X138625001Y-97100000D01*
X138625001Y-97549986D01*
X129490500Y-97549986D01*
X129490500Y-96150013D01*
X138625000Y-96150013D01*
X138625000Y-96600000D01*
X139450000Y-96600000D01*
X139450000Y-95450000D01*
X139325027Y-95450000D01*
X139325012Y-95450001D01*
X139222302Y-95460494D01*
X139055880Y-95515641D01*
X139055875Y-95515643D01*
X138906654Y-95607684D01*
X138782684Y-95731654D01*
X138690643Y-95880875D01*
X138690641Y-95880880D01*
X138635494Y-96047302D01*
X138635493Y-96047309D01*
X138625000Y-96150013D01*
X129490500Y-96150013D01*
X129490500Y-95791456D01*
X129452052Y-95598169D01*
X129452051Y-95598167D01*
X129452051Y-95598165D01*
X129450018Y-95593257D01*
X129446204Y-95584048D01*
X129446192Y-95584021D01*
X129440145Y-95569423D01*
X129417680Y-95515186D01*
X129390680Y-95450001D01*
X129376635Y-95416093D01*
X129376634Y-95416092D01*
X129376632Y-95416086D01*
X129363389Y-95396266D01*
X129267139Y-95252217D01*
X129124686Y-95109764D01*
X129124655Y-95109735D01*
X128839906Y-94824986D01*
X131125001Y-94824986D01*
X131135494Y-94927697D01*
X131190641Y-95094119D01*
X131190643Y-95094124D01*
X131282684Y-95243345D01*
X131406654Y-95367315D01*
X131555875Y-95459356D01*
X131555880Y-95459358D01*
X131722302Y-95514505D01*
X131722309Y-95514506D01*
X131825019Y-95524999D01*
X132249999Y-95524999D01*
X132750000Y-95524999D01*
X133174972Y-95524999D01*
X133174986Y-95524998D01*
X133277697Y-95514505D01*
X133444119Y-95459358D01*
X133444124Y-95459356D01*
X133593345Y-95367315D01*
X133717315Y-95243345D01*
X133809356Y-95094124D01*
X133809358Y-95094119D01*
X133864505Y-94927697D01*
X133864506Y-94927690D01*
X133874999Y-94824986D01*
X133875000Y-94824973D01*
X133875000Y-94712500D01*
X132750000Y-94712500D01*
X132750000Y-95524999D01*
X132249999Y-95524999D01*
X132250000Y-95524998D01*
X132250000Y-94712500D01*
X131125001Y-94712500D01*
X131125001Y-94824986D01*
X128839906Y-94824986D01*
X126406479Y-92391559D01*
X126406459Y-92391537D01*
X126327103Y-92312181D01*
X126293618Y-92250858D01*
X126298602Y-92181166D01*
X126340474Y-92125233D01*
X126405938Y-92100816D01*
X126414784Y-92100500D01*
X131079092Y-92100500D01*
X131146131Y-92120185D01*
G37*
G04 #@! TD.AperFunction*
G04 #@! TA.AperFunction,Conductor*
G36*
X119099144Y-83357685D02*
G01*
X119144899Y-83410489D01*
X119154843Y-83479647D01*
X119134328Y-83527996D01*
X119135890Y-83528920D01*
X119048255Y-83677103D01*
X119048254Y-83677106D01*
X119002402Y-83834926D01*
X119002401Y-83834932D01*
X118999500Y-83871798D01*
X118999500Y-85028201D01*
X119002401Y-85065067D01*
X119002402Y-85065073D01*
X119044576Y-85210233D01*
X119049500Y-85244828D01*
X119049500Y-85898918D01*
X119049500Y-85898920D01*
X119049499Y-85898920D01*
X119078340Y-86043907D01*
X119078343Y-86043917D01*
X119134913Y-86180490D01*
X119134914Y-86180491D01*
X119134916Y-86180495D01*
X119149554Y-86202402D01*
X119180191Y-86248255D01*
X119217051Y-86303420D01*
X119217332Y-86303762D01*
X119217422Y-86303975D01*
X119220433Y-86308481D01*
X119219578Y-86309052D01*
X119244640Y-86368074D01*
X119239179Y-86421423D01*
X119197501Y-86547200D01*
X119197500Y-86547204D01*
X119187000Y-86649983D01*
X119187000Y-88000001D01*
X119187001Y-88000018D01*
X119197500Y-88102796D01*
X119197501Y-88102799D01*
X119252685Y-88269331D01*
X119252687Y-88269336D01*
X119262136Y-88284655D01*
X119338246Y-88408050D01*
X119344789Y-88418657D01*
X119463181Y-88537049D01*
X119496666Y-88598372D01*
X119499500Y-88624730D01*
X119499500Y-88998918D01*
X119499500Y-88998920D01*
X119499499Y-88998920D01*
X119528340Y-89143907D01*
X119528343Y-89143917D01*
X119584913Y-89280490D01*
X119584914Y-89280491D01*
X119584916Y-89280495D01*
X119598672Y-89301082D01*
X119656413Y-89387500D01*
X119667051Y-89403420D01*
X119667052Y-89403421D01*
X119713777Y-89450145D01*
X119747263Y-89511468D01*
X119749252Y-89546814D01*
X119749661Y-89546835D01*
X119749500Y-89549997D01*
X119749500Y-90200001D01*
X119749501Y-90200019D01*
X119760000Y-90302796D01*
X119760001Y-90302799D01*
X119815185Y-90469331D01*
X119815187Y-90469336D01*
X119834100Y-90499999D01*
X119900065Y-90606946D01*
X119907289Y-90618657D01*
X119976451Y-90687819D01*
X120009936Y-90749142D01*
X120004952Y-90818834D01*
X119963080Y-90874767D01*
X119897616Y-90899184D01*
X119888770Y-90899500D01*
X118579057Y-90899500D01*
X118420942Y-90899500D01*
X118268215Y-90940423D01*
X118268214Y-90940423D01*
X118268212Y-90940424D01*
X118268209Y-90940425D01*
X118218096Y-90969359D01*
X118218095Y-90969360D01*
X118174689Y-90994420D01*
X118131285Y-91019479D01*
X118131282Y-91019481D01*
X117392289Y-91758475D01*
X117330966Y-91791960D01*
X117261274Y-91786976D01*
X117205341Y-91745104D01*
X117181250Y-91683395D01*
X117174999Y-91622203D01*
X117174998Y-91622200D01*
X117119814Y-91455666D01*
X117027712Y-91306344D01*
X116903656Y-91182288D01*
X116754334Y-91090186D01*
X116587797Y-91035001D01*
X116587795Y-91035000D01*
X116485010Y-91024500D01*
X115759998Y-91024500D01*
X115759980Y-91024501D01*
X115657203Y-91035000D01*
X115657200Y-91035001D01*
X115490668Y-91090185D01*
X115490663Y-91090187D01*
X115341342Y-91182289D01*
X115217289Y-91306342D01*
X115125187Y-91455663D01*
X115125186Y-91455666D01*
X115070001Y-91622203D01*
X115070001Y-91622204D01*
X115070000Y-91622204D01*
X115059500Y-91724983D01*
X115059500Y-92562402D01*
X115039815Y-92629441D01*
X115023181Y-92650083D01*
X114468531Y-93204733D01*
X114407208Y-93238218D01*
X114337516Y-93233234D01*
X114281583Y-93191362D01*
X114257166Y-93125898D01*
X114257492Y-93104448D01*
X114259942Y-93080470D01*
X114260500Y-93075009D01*
X114260499Y-91724992D01*
X114249999Y-91622203D01*
X114194814Y-91455666D01*
X114102712Y-91306344D01*
X113978656Y-91182288D01*
X113881902Y-91122610D01*
X113835179Y-91070663D01*
X113823000Y-91017072D01*
X113823000Y-90658308D01*
X113842685Y-90591269D01*
X113859321Y-90570625D01*
X113878081Y-90551865D01*
X113961744Y-90410398D01*
X114007598Y-90252569D01*
X114010500Y-90215694D01*
X114010500Y-90215649D01*
X114310000Y-90215649D01*
X114312899Y-90252489D01*
X114312900Y-90252495D01*
X114358716Y-90410193D01*
X114358717Y-90410196D01*
X114442314Y-90551552D01*
X114442321Y-90551561D01*
X114558438Y-90667678D01*
X114558447Y-90667685D01*
X114699801Y-90751281D01*
X114857514Y-90797100D01*
X114857511Y-90797100D01*
X114859998Y-90797295D01*
X114860000Y-90797295D01*
X115360000Y-90797295D01*
X115360001Y-90797295D01*
X115362486Y-90797100D01*
X115520198Y-90751281D01*
X115661552Y-90667685D01*
X115661561Y-90667678D01*
X115777678Y-90551561D01*
X115777685Y-90551552D01*
X115861282Y-90410196D01*
X115861283Y-90410193D01*
X115907099Y-90252495D01*
X115907100Y-90252489D01*
X115909999Y-90215649D01*
X115910000Y-90215634D01*
X115910000Y-89887500D01*
X115360000Y-89887500D01*
X115360000Y-90797295D01*
X114860000Y-90797295D01*
X114860000Y-89887500D01*
X114310000Y-89887500D01*
X114310000Y-90215649D01*
X114010500Y-90215649D01*
X114010500Y-89059306D01*
X114007598Y-89022431D01*
X114001076Y-88999983D01*
X113971215Y-88897200D01*
X113961744Y-88864602D01*
X113878081Y-88723135D01*
X113874110Y-88716420D01*
X113875928Y-88715344D01*
X113854381Y-88660468D01*
X113868059Y-88591950D01*
X113916609Y-88541704D01*
X113977895Y-88525500D01*
X114342742Y-88525500D01*
X114409781Y-88545185D01*
X114455536Y-88597989D01*
X114465480Y-88667147D01*
X114444814Y-88715857D01*
X114446288Y-88716729D01*
X114358717Y-88864803D01*
X114358716Y-88864806D01*
X114312900Y-89022504D01*
X114312899Y-89022510D01*
X114310000Y-89059350D01*
X114310000Y-89387500D01*
X114860000Y-89387500D01*
X115360000Y-89387500D01*
X115910000Y-89387500D01*
X115910000Y-89059365D01*
X115909999Y-89059350D01*
X115907100Y-89022510D01*
X115907099Y-89022504D01*
X115861283Y-88864806D01*
X115861282Y-88864803D01*
X115777685Y-88723447D01*
X115777678Y-88723438D01*
X115661561Y-88607321D01*
X115661552Y-88607314D01*
X115520196Y-88523717D01*
X115520193Y-88523716D01*
X115362494Y-88477900D01*
X115362497Y-88477900D01*
X115360000Y-88477703D01*
X115360000Y-89387500D01*
X114860000Y-89387500D01*
X114860000Y-88477702D01*
X114833765Y-88453461D01*
X114797887Y-88393507D01*
X114800118Y-88323673D01*
X114824533Y-88283988D01*
X114823298Y-88283031D01*
X114828075Y-88276870D01*
X114828081Y-88276865D01*
X114911744Y-88135398D01*
X114922202Y-88099400D01*
X114928593Y-88077405D01*
X114966199Y-88018519D01*
X115029672Y-87989313D01*
X115047669Y-87988000D01*
X116148796Y-87988000D01*
X116215835Y-88007685D01*
X116261590Y-88060489D01*
X116272154Y-88099400D01*
X116272500Y-88102796D01*
X116272501Y-88102799D01*
X116327685Y-88269331D01*
X116327687Y-88269336D01*
X116337136Y-88284655D01*
X116419788Y-88418656D01*
X116543844Y-88542712D01*
X116693166Y-88634814D01*
X116859703Y-88689999D01*
X116962491Y-88700500D01*
X117687508Y-88700499D01*
X117687516Y-88700498D01*
X117687519Y-88700498D01*
X117743802Y-88694748D01*
X117790297Y-88689999D01*
X117956834Y-88634814D01*
X118106156Y-88542712D01*
X118230212Y-88418656D01*
X118322314Y-88269334D01*
X118377499Y-88102797D01*
X118388000Y-88000009D01*
X118387999Y-86649992D01*
X118377499Y-86547203D01*
X118322314Y-86380666D01*
X118230212Y-86231344D01*
X118216909Y-86218041D01*
X118183424Y-86156718D01*
X118188408Y-86087026D01*
X118216906Y-86042683D01*
X118298729Y-85960860D01*
X118298733Y-85960858D01*
X118385858Y-85873733D01*
X118454311Y-85771286D01*
X118454312Y-85771285D01*
X118454313Y-85771282D01*
X118454315Y-85771279D01*
X118482807Y-85702490D01*
X118501463Y-85657451D01*
X118525500Y-85536607D01*
X118525500Y-85458308D01*
X118545185Y-85391269D01*
X118561817Y-85370628D01*
X118568081Y-85364365D01*
X118651744Y-85222898D01*
X118697598Y-85065069D01*
X118700500Y-85028194D01*
X118700500Y-83871806D01*
X118697598Y-83834931D01*
X118692945Y-83818917D01*
X118651745Y-83677106D01*
X118651744Y-83677103D01*
X118651744Y-83677102D01*
X118577807Y-83552080D01*
X118564110Y-83528920D01*
X118565928Y-83527844D01*
X118544381Y-83472968D01*
X118558059Y-83404450D01*
X118606609Y-83354204D01*
X118667895Y-83338000D01*
X119032105Y-83338000D01*
X119099144Y-83357685D01*
G37*
G04 #@! TD.AperFunction*
G04 #@! TA.AperFunction,Conductor*
G36*
X199442539Y-50520185D02*
G01*
X199488294Y-50572989D01*
X199499500Y-50624500D01*
X199499500Y-54927373D01*
X199479815Y-54994412D01*
X199471757Y-55001393D01*
X199496005Y-55043392D01*
X199499500Y-55072626D01*
X199499500Y-120927373D01*
X199479815Y-120994412D01*
X199471757Y-121001393D01*
X199496005Y-121043392D01*
X199499500Y-121072626D01*
X199499500Y-125625500D01*
X199479815Y-125692539D01*
X199427011Y-125738294D01*
X199375500Y-125749500D01*
X100624500Y-125749500D01*
X100557461Y-125729815D01*
X100511706Y-125677011D01*
X100500500Y-125625500D01*
X100500500Y-121072626D01*
X100520185Y-121005587D01*
X100523400Y-121002801D01*
X100721054Y-121002801D01*
X100743477Y-121037691D01*
X100748360Y-121066726D01*
X100764447Y-121404450D01*
X100822071Y-121805231D01*
X100917531Y-122198722D01*
X100917534Y-122198733D01*
X101049956Y-122581340D01*
X101049966Y-122581365D01*
X101218168Y-122949675D01*
X101420621Y-123300335D01*
X101420627Y-123300343D01*
X101655485Y-123630154D01*
X101822985Y-123823460D01*
X103313098Y-122333347D01*
X103380076Y-122420635D01*
X103579365Y-122619924D01*
X103666650Y-122686900D01*
X102174928Y-124178622D01*
X102213676Y-124215568D01*
X102213695Y-124215585D01*
X102531968Y-124465877D01*
X102872594Y-124684782D01*
X103232485Y-124870319D01*
X103608383Y-125020806D01*
X103608395Y-125020810D01*
X103996882Y-125134880D01*
X103996899Y-125134884D01*
X104394460Y-125211508D01*
X104394472Y-125211510D01*
X104797554Y-125250000D01*
X105202446Y-125250000D01*
X105605527Y-125211510D01*
X105605539Y-125211508D01*
X106003100Y-125134884D01*
X106003117Y-125134880D01*
X106391604Y-125020810D01*
X106391616Y-125020806D01*
X106767507Y-124870322D01*
X106767511Y-124870320D01*
X107127406Y-124684782D01*
X107468031Y-124465877D01*
X107786314Y-124215578D01*
X107825069Y-124178622D01*
X106333348Y-122686901D01*
X106420635Y-122619924D01*
X106619924Y-122420635D01*
X106686901Y-122333348D01*
X108177012Y-123823459D01*
X108344512Y-123630156D01*
X108344523Y-123630143D01*
X108579372Y-123300343D01*
X108579378Y-123300335D01*
X108781831Y-122949675D01*
X108950033Y-122581365D01*
X108950043Y-122581340D01*
X109082465Y-122198733D01*
X109082468Y-122198722D01*
X109177928Y-121805231D01*
X109235552Y-121404450D01*
X109254818Y-121000000D01*
X190745181Y-121000000D01*
X190764447Y-121404450D01*
X190822071Y-121805231D01*
X190917531Y-122198722D01*
X190917534Y-122198733D01*
X191049956Y-122581340D01*
X191049966Y-122581365D01*
X191218168Y-122949675D01*
X191420621Y-123300335D01*
X191420627Y-123300343D01*
X191655485Y-123630154D01*
X191822985Y-123823460D01*
X193313098Y-122333347D01*
X193380076Y-122420635D01*
X193579365Y-122619924D01*
X193666650Y-122686900D01*
X192174928Y-124178622D01*
X192213676Y-124215568D01*
X192213695Y-124215585D01*
X192531968Y-124465877D01*
X192872594Y-124684782D01*
X193232485Y-124870319D01*
X193608383Y-125020806D01*
X193608395Y-125020810D01*
X193996882Y-125134880D01*
X193996899Y-125134884D01*
X194394460Y-125211508D01*
X194394472Y-125211510D01*
X194797554Y-125250000D01*
X195202446Y-125250000D01*
X195605527Y-125211510D01*
X195605539Y-125211508D01*
X196003100Y-125134884D01*
X196003117Y-125134880D01*
X196391604Y-125020810D01*
X196391616Y-125020806D01*
X196767507Y-124870322D01*
X196767511Y-124870320D01*
X197127406Y-124684782D01*
X197468031Y-124465877D01*
X197786314Y-124215578D01*
X197825069Y-124178622D01*
X196333348Y-122686901D01*
X196420635Y-122619924D01*
X196619924Y-122420635D01*
X196686901Y-122333348D01*
X198177012Y-123823459D01*
X198344512Y-123630156D01*
X198344523Y-123630143D01*
X198579372Y-123300343D01*
X198579378Y-123300335D01*
X198781831Y-122949675D01*
X198950033Y-122581365D01*
X198950043Y-122581340D01*
X199082465Y-122198733D01*
X199082468Y-122198722D01*
X199177928Y-121805231D01*
X199235552Y-121404450D01*
X199251640Y-121066726D01*
X199274493Y-121000699D01*
X199278945Y-120997197D01*
X199256523Y-120962308D01*
X199251640Y-120933273D01*
X199235552Y-120595549D01*
X199177928Y-120194768D01*
X199082468Y-119801277D01*
X199082465Y-119801266D01*
X198950043Y-119418659D01*
X198950033Y-119418634D01*
X198781831Y-119050324D01*
X198579378Y-118699664D01*
X198579372Y-118699656D01*
X198344523Y-118369856D01*
X198344512Y-118369843D01*
X198177013Y-118176538D01*
X196686900Y-119666650D01*
X196619924Y-119579365D01*
X196420635Y-119380076D01*
X196333348Y-119313098D01*
X197825070Y-117821376D01*
X197786323Y-117784431D01*
X197786304Y-117784414D01*
X197468031Y-117534122D01*
X197127406Y-117315217D01*
X196767511Y-117129679D01*
X196767507Y-117129677D01*
X196391616Y-116979193D01*
X196391604Y-116979189D01*
X196003117Y-116865119D01*
X196003100Y-116865115D01*
X195605539Y-116788491D01*
X195605527Y-116788489D01*
X195202446Y-116750000D01*
X194797554Y-116750000D01*
X194394472Y-116788489D01*
X194394460Y-116788491D01*
X193996899Y-116865115D01*
X193996882Y-116865119D01*
X193608395Y-116979189D01*
X193608383Y-116979193D01*
X193232485Y-117129680D01*
X192872594Y-117315217D01*
X192531968Y-117534122D01*
X192213685Y-117784421D01*
X192213673Y-117784432D01*
X192174929Y-117821375D01*
X192174929Y-117821376D01*
X193666651Y-119313098D01*
X193579365Y-119380076D01*
X193380076Y-119579365D01*
X193313098Y-119666651D01*
X191822986Y-118176539D01*
X191655485Y-118369845D01*
X191420627Y-118699656D01*
X191420621Y-118699664D01*
X191218168Y-119050324D01*
X191049966Y-119418634D01*
X191049956Y-119418659D01*
X190917534Y-119801266D01*
X190917531Y-119801277D01*
X190822071Y-120194768D01*
X190764447Y-120595549D01*
X190745181Y-121000000D01*
X109254818Y-121000000D01*
X109235552Y-120595549D01*
X109177928Y-120194768D01*
X109082468Y-119801277D01*
X109082465Y-119801266D01*
X108950043Y-119418659D01*
X108950033Y-119418634D01*
X108781831Y-119050324D01*
X108579378Y-118699664D01*
X108579372Y-118699656D01*
X108344523Y-118369856D01*
X108344512Y-118369843D01*
X108177013Y-118176538D01*
X106686900Y-119666650D01*
X106619924Y-119579365D01*
X106420635Y-119380076D01*
X106333348Y-119313098D01*
X107825070Y-117821376D01*
X107786323Y-117784431D01*
X107786304Y-117784414D01*
X107468031Y-117534122D01*
X107127406Y-117315217D01*
X106767511Y-117129679D01*
X106767507Y-117129677D01*
X106391616Y-116979193D01*
X106391604Y-116979189D01*
X106003117Y-116865119D01*
X106003100Y-116865115D01*
X105605539Y-116788491D01*
X105605527Y-116788489D01*
X105202446Y-116750000D01*
X104797554Y-116750000D01*
X104394472Y-116788489D01*
X104394460Y-116788491D01*
X103996899Y-116865115D01*
X103996882Y-116865119D01*
X103608395Y-116979189D01*
X103608383Y-116979193D01*
X103232485Y-117129680D01*
X102872594Y-117315217D01*
X102531968Y-117534122D01*
X102213685Y-117784421D01*
X102213673Y-117784432D01*
X102174929Y-117821375D01*
X102174929Y-117821376D01*
X103666651Y-119313098D01*
X103579365Y-119380076D01*
X103380076Y-119579365D01*
X103313098Y-119666651D01*
X101822986Y-118176539D01*
X101655485Y-118369845D01*
X101420627Y-118699656D01*
X101420621Y-118699664D01*
X101218168Y-119050324D01*
X101049966Y-119418634D01*
X101049956Y-119418659D01*
X100917534Y-119801266D01*
X100917531Y-119801277D01*
X100822071Y-120194768D01*
X100764447Y-120595549D01*
X100748360Y-120933273D01*
X100725507Y-120999300D01*
X100721054Y-121002801D01*
X100523400Y-121002801D01*
X100528242Y-120998605D01*
X100503995Y-120956607D01*
X100500500Y-120927373D01*
X100500500Y-112086238D01*
X116490001Y-112086238D01*
X116500494Y-112188949D01*
X116555641Y-112355371D01*
X116555643Y-112355376D01*
X116647684Y-112504597D01*
X116771654Y-112628567D01*
X116920875Y-112720608D01*
X116920880Y-112720610D01*
X117087302Y-112775757D01*
X117087309Y-112775758D01*
X117190019Y-112786251D01*
X118389999Y-112786251D01*
X118890000Y-112786251D01*
X120089972Y-112786251D01*
X120089986Y-112786250D01*
X120192697Y-112775757D01*
X120359119Y-112720610D01*
X120359124Y-112720608D01*
X120508345Y-112628567D01*
X120632315Y-112504597D01*
X120724356Y-112355376D01*
X120724358Y-112355371D01*
X120779505Y-112188949D01*
X120779506Y-112188942D01*
X120789999Y-112086238D01*
X120790000Y-112086225D01*
X120790000Y-111286252D01*
X118890000Y-111286252D01*
X118890000Y-112786251D01*
X118389999Y-112786251D01*
X118390000Y-112786250D01*
X118390000Y-111286252D01*
X116490001Y-111286252D01*
X116490001Y-112086238D01*
X100500500Y-112086238D01*
X100500500Y-110861238D01*
X127090001Y-110861238D01*
X127100494Y-110963949D01*
X127155641Y-111130371D01*
X127155643Y-111130376D01*
X127247684Y-111279597D01*
X127371654Y-111403567D01*
X127520875Y-111495608D01*
X127520880Y-111495610D01*
X127687302Y-111550757D01*
X127687309Y-111550758D01*
X127790019Y-111561251D01*
X128239999Y-111561251D01*
X128740000Y-111561251D01*
X129189972Y-111561251D01*
X129189986Y-111561250D01*
X129292697Y-111550757D01*
X129459119Y-111495610D01*
X129459124Y-111495608D01*
X129608345Y-111403567D01*
X129732315Y-111279597D01*
X129789900Y-111186238D01*
X133390001Y-111186238D01*
X133400494Y-111288949D01*
X133455641Y-111455371D01*
X133455643Y-111455376D01*
X133547684Y-111604597D01*
X133671654Y-111728567D01*
X133820875Y-111820608D01*
X133820880Y-111820610D01*
X133987302Y-111875757D01*
X133987309Y-111875758D01*
X134090019Y-111886251D01*
X134439999Y-111886251D01*
X134440000Y-111886250D01*
X134440000Y-109886252D01*
X133390001Y-109886252D01*
X133390001Y-111186238D01*
X129789900Y-111186238D01*
X129824356Y-111130376D01*
X129824358Y-111130371D01*
X129879505Y-110963949D01*
X129879506Y-110963942D01*
X129889999Y-110861238D01*
X129890000Y-110861225D01*
X129890000Y-110736252D01*
X128740000Y-110736252D01*
X128740000Y-111561251D01*
X128239999Y-111561251D01*
X128240000Y-111561250D01*
X128240000Y-110736252D01*
X127090001Y-110736252D01*
X127090001Y-110861238D01*
X100500500Y-110861238D01*
X100500500Y-109149995D01*
X106345233Y-109149995D01*
X106345233Y-109150004D01*
X106364273Y-109404079D01*
X106420968Y-109652477D01*
X106420973Y-109652494D01*
X106514058Y-109889671D01*
X106514057Y-109889671D01*
X106641454Y-110110327D01*
X106641461Y-110110338D01*
X106683452Y-110162991D01*
X106683453Y-110162992D01*
X107485387Y-109361058D01*
X107490889Y-109381591D01*
X107569881Y-109518408D01*
X107681592Y-109630119D01*
X107818409Y-109709111D01*
X107838940Y-109714612D01*
X107036813Y-110516738D01*
X107197616Y-110626371D01*
X107197624Y-110626376D01*
X107427176Y-110736921D01*
X107427174Y-110736921D01*
X107670652Y-110812024D01*
X107670658Y-110812026D01*
X107922595Y-110849999D01*
X107922604Y-110850000D01*
X108177396Y-110850000D01*
X108177404Y-110849999D01*
X108429341Y-110812026D01*
X108429347Y-110812024D01*
X108672824Y-110736921D01*
X108902376Y-110626376D01*
X108902377Y-110626375D01*
X109063185Y-110516738D01*
X108261060Y-109714612D01*
X108281591Y-109709111D01*
X108418408Y-109630119D01*
X108530119Y-109518408D01*
X108609111Y-109381591D01*
X108614612Y-109361059D01*
X109416544Y-110162992D01*
X109416546Y-110162991D01*
X109458544Y-110110330D01*
X109585941Y-109889671D01*
X109679026Y-109652494D01*
X109679031Y-109652477D01*
X109735726Y-109404079D01*
X109754767Y-109150004D01*
X109754767Y-109149995D01*
X109735726Y-108895920D01*
X109679031Y-108647522D01*
X109679026Y-108647505D01*
X109585941Y-108410328D01*
X109585942Y-108410328D01*
X109458545Y-108189672D01*
X109416545Y-108137006D01*
X108614612Y-108938939D01*
X108609111Y-108918409D01*
X108530119Y-108781592D01*
X108418408Y-108669881D01*
X108281591Y-108590889D01*
X108261059Y-108585387D01*
X109063185Y-107783260D01*
X108902384Y-107673628D01*
X108902376Y-107673623D01*
X108672823Y-107563078D01*
X108672825Y-107563078D01*
X108429347Y-107487975D01*
X108429341Y-107487973D01*
X108177404Y-107450000D01*
X107922595Y-107450000D01*
X107670658Y-107487973D01*
X107670652Y-107487975D01*
X107427175Y-107563078D01*
X107197622Y-107673625D01*
X107197609Y-107673632D01*
X107036813Y-107783259D01*
X107838941Y-108585387D01*
X107818409Y-108590889D01*
X107681592Y-108669881D01*
X107569881Y-108781592D01*
X107490889Y-108918409D01*
X107485387Y-108938940D01*
X106683452Y-108137006D01*
X106641457Y-108189667D01*
X106514058Y-108410328D01*
X106420973Y-108647505D01*
X106420968Y-108647522D01*
X106364273Y-108895920D01*
X106345233Y-109149995D01*
X100500500Y-109149995D01*
X100500500Y-86050013D01*
X105550000Y-86050013D01*
X105550000Y-86175000D01*
X106700000Y-86175000D01*
X107200000Y-86175000D01*
X108349999Y-86175000D01*
X108349999Y-86050028D01*
X108349998Y-86050013D01*
X108339505Y-85947302D01*
X108284358Y-85780880D01*
X108284356Y-85780875D01*
X108192315Y-85631654D01*
X108068345Y-85507684D01*
X107919124Y-85415643D01*
X107919119Y-85415641D01*
X107752697Y-85360494D01*
X107752690Y-85360493D01*
X107649986Y-85350000D01*
X107200000Y-85350000D01*
X107200000Y-86175000D01*
X106700000Y-86175000D01*
X106700000Y-85350000D01*
X106250028Y-85350000D01*
X106250012Y-85350001D01*
X106147302Y-85360494D01*
X105980880Y-85415641D01*
X105980875Y-85415643D01*
X105831654Y-85507684D01*
X105707684Y-85631654D01*
X105615643Y-85780875D01*
X105615641Y-85780880D01*
X105560494Y-85947302D01*
X105560493Y-85947309D01*
X105550000Y-86050013D01*
X100500500Y-86050013D01*
X100500500Y-80149986D01*
X112500001Y-80149986D01*
X112510494Y-80252697D01*
X112565641Y-80419119D01*
X112565643Y-80419124D01*
X112657684Y-80568345D01*
X112781654Y-80692315D01*
X112930875Y-80784356D01*
X112930880Y-80784358D01*
X113097302Y-80839505D01*
X113097309Y-80839506D01*
X113200019Y-80849999D01*
X113324999Y-80849999D01*
X113325000Y-80849998D01*
X113325000Y-79700000D01*
X112500001Y-79700000D01*
X112500001Y-80149986D01*
X100500500Y-80149986D01*
X100500500Y-78750013D01*
X112500000Y-78750013D01*
X112500000Y-79200000D01*
X113325000Y-79200000D01*
X113325000Y-78050000D01*
X113200027Y-78050000D01*
X113200012Y-78050001D01*
X113097302Y-78060494D01*
X112930880Y-78115641D01*
X112930875Y-78115643D01*
X112781654Y-78207684D01*
X112657684Y-78331654D01*
X112565643Y-78480875D01*
X112565641Y-78480880D01*
X112510494Y-78647302D01*
X112510493Y-78647309D01*
X112500000Y-78750013D01*
X100500500Y-78750013D01*
X100500500Y-75224986D01*
X110575001Y-75224986D01*
X110585494Y-75327697D01*
X110640641Y-75494119D01*
X110640643Y-75494124D01*
X110732684Y-75643345D01*
X110856654Y-75767315D01*
X111005875Y-75859356D01*
X111005880Y-75859358D01*
X111172302Y-75914505D01*
X111172309Y-75914506D01*
X111275019Y-75924999D01*
X111699999Y-75924999D01*
X111700000Y-75924998D01*
X111700000Y-75112500D01*
X110575001Y-75112500D01*
X110575001Y-75224986D01*
X100500500Y-75224986D01*
X100500500Y-66869995D01*
X101564953Y-66869995D01*
X101564953Y-66870004D01*
X101585113Y-67139026D01*
X101585113Y-67139028D01*
X101645142Y-67402033D01*
X101645148Y-67402052D01*
X101743709Y-67653181D01*
X101743708Y-67653181D01*
X101878602Y-67886822D01*
X101932294Y-67954151D01*
X101932295Y-67954151D01*
X102654153Y-67232293D01*
X102661049Y-67248942D01*
X102748599Y-67379970D01*
X102860030Y-67491401D01*
X102991058Y-67578951D01*
X103007705Y-67585846D01*
X102284848Y-68308702D01*
X102467483Y-68433220D01*
X102467485Y-68433221D01*
X102710539Y-68550269D01*
X102710537Y-68550269D01*
X102968337Y-68629790D01*
X102968343Y-68629792D01*
X103235101Y-68669999D01*
X103235110Y-68670000D01*
X103504890Y-68670000D01*
X103504898Y-68669999D01*
X103771656Y-68629792D01*
X103771662Y-68629790D01*
X104029458Y-68550270D01*
X104247927Y-68445061D01*
X104316869Y-68433709D01*
X104381003Y-68461431D01*
X104419969Y-68519426D01*
X104421394Y-68589281D01*
X104417158Y-68602081D01*
X104336817Y-68806790D01*
X104332578Y-68817590D01*
X104332576Y-68817597D01*
X104274197Y-69073374D01*
X104274196Y-69073379D01*
X104254592Y-69334995D01*
X104254592Y-69335004D01*
X104274196Y-69596620D01*
X104274197Y-69596625D01*
X104274197Y-69596629D01*
X104274198Y-69596630D01*
X104282233Y-69631834D01*
X104331781Y-69848918D01*
X104332580Y-69852416D01*
X104332582Y-69852421D01*
X104428432Y-70096643D01*
X104534256Y-70279937D01*
X104550729Y-70347837D01*
X104527876Y-70413864D01*
X104472955Y-70457055D01*
X104403402Y-70463696D01*
X104357017Y-70444390D01*
X104272526Y-70386784D01*
X104272516Y-70386778D01*
X104029460Y-70269730D01*
X104029462Y-70269730D01*
X103771662Y-70190209D01*
X103771656Y-70190207D01*
X103504898Y-70150000D01*
X103235101Y-70150000D01*
X102968343Y-70190207D01*
X102968337Y-70190209D01*
X102710538Y-70269730D01*
X102467485Y-70386778D01*
X102467476Y-70386783D01*
X102284848Y-70511296D01*
X103007705Y-71234153D01*
X102991058Y-71241049D01*
X102860030Y-71328599D01*
X102748599Y-71440030D01*
X102661049Y-71571058D01*
X102654153Y-71587706D01*
X101932295Y-70865848D01*
X101878600Y-70933180D01*
X101743709Y-71166818D01*
X101645148Y-71417947D01*
X101645142Y-71417966D01*
X101585113Y-71680971D01*
X101585113Y-71680973D01*
X101564953Y-71949995D01*
X101564953Y-71950004D01*
X101585113Y-72219026D01*
X101585113Y-72219028D01*
X101645142Y-72482033D01*
X101645148Y-72482052D01*
X101743709Y-72733181D01*
X101743708Y-72733181D01*
X101878602Y-72966822D01*
X101932294Y-73034151D01*
X101932295Y-73034151D01*
X102654153Y-72312293D01*
X102661049Y-72328942D01*
X102748599Y-72459970D01*
X102860030Y-72571401D01*
X102991058Y-72658951D01*
X103007705Y-72665846D01*
X102284848Y-73388702D01*
X102467483Y-73513220D01*
X102467485Y-73513221D01*
X102710539Y-73630269D01*
X102710537Y-73630269D01*
X102968337Y-73709790D01*
X102968343Y-73709792D01*
X103235101Y-73749999D01*
X103235110Y-73750000D01*
X103504890Y-73750000D01*
X103504898Y-73749999D01*
X103771656Y-73709792D01*
X103771662Y-73709790D01*
X104029461Y-73630269D01*
X104272521Y-73513218D01*
X104455150Y-73388702D01*
X103732294Y-72665846D01*
X103748942Y-72658951D01*
X103879970Y-72571401D01*
X103991401Y-72459970D01*
X104078951Y-72328942D01*
X104085846Y-72312294D01*
X104807703Y-73034151D01*
X104807704Y-73034150D01*
X104861393Y-72966828D01*
X104861400Y-72966817D01*
X104996290Y-72733181D01*
X105094851Y-72482052D01*
X105094857Y-72482033D01*
X105154886Y-72219028D01*
X105154886Y-72219026D01*
X105175047Y-71950004D01*
X105175047Y-71949995D01*
X105154886Y-71680973D01*
X105154886Y-71680971D01*
X105094857Y-71417966D01*
X105094851Y-71417947D01*
X104996290Y-71166818D01*
X104996291Y-71166818D01*
X104882961Y-70970527D01*
X104866488Y-70902627D01*
X104889340Y-70836600D01*
X104944261Y-70793410D01*
X105013815Y-70786768D01*
X105060197Y-70806071D01*
X105132296Y-70855228D01*
X105132301Y-70855230D01*
X105132302Y-70855231D01*
X105132303Y-70855232D01*
X105223621Y-70899208D01*
X105368673Y-70969061D01*
X105368674Y-70969061D01*
X105368677Y-70969063D01*
X105619385Y-71046396D01*
X105878818Y-71085500D01*
X106141182Y-71085500D01*
X106400615Y-71046396D01*
X106651323Y-70969063D01*
X106686056Y-70952336D01*
X106754994Y-70940985D01*
X106819128Y-70968706D01*
X106858094Y-71026701D01*
X106859520Y-71096556D01*
X106847243Y-71126056D01*
X106823708Y-71166820D01*
X106725148Y-71417947D01*
X106725142Y-71417966D01*
X106665113Y-71680971D01*
X106665113Y-71680973D01*
X106644953Y-71949995D01*
X106644953Y-71950004D01*
X106665113Y-72219026D01*
X106665113Y-72219028D01*
X106725142Y-72482033D01*
X106725148Y-72482052D01*
X106823709Y-72733181D01*
X106823708Y-72733181D01*
X106958602Y-72966822D01*
X107012294Y-73034151D01*
X107734152Y-72312293D01*
X107741049Y-72328942D01*
X107828599Y-72459970D01*
X107940030Y-72571401D01*
X108071058Y-72658951D01*
X108087705Y-72665846D01*
X107364848Y-73388702D01*
X107547483Y-73513220D01*
X107547485Y-73513221D01*
X107790539Y-73630269D01*
X107790537Y-73630269D01*
X108048337Y-73709790D01*
X108048343Y-73709792D01*
X108315101Y-73749999D01*
X108315110Y-73750000D01*
X108584890Y-73750000D01*
X108584898Y-73749999D01*
X108851656Y-73709792D01*
X108851662Y-73709790D01*
X109109461Y-73630269D01*
X109352521Y-73513218D01*
X109535150Y-73388702D01*
X108812294Y-72665846D01*
X108828942Y-72658951D01*
X108959970Y-72571401D01*
X109071401Y-72459970D01*
X109158951Y-72328942D01*
X109165846Y-72312294D01*
X109887703Y-73034151D01*
X109887704Y-73034150D01*
X109941393Y-72966828D01*
X109941400Y-72966817D01*
X110076290Y-72733181D01*
X110174851Y-72482052D01*
X110174857Y-72482033D01*
X110234886Y-72219028D01*
X110234886Y-72219026D01*
X110255047Y-71950004D01*
X110255047Y-71949995D01*
X110234886Y-71680973D01*
X110234886Y-71680971D01*
X110174857Y-71417966D01*
X110174851Y-71417947D01*
X110076290Y-71166818D01*
X110076291Y-71166818D01*
X109941397Y-70933177D01*
X109887704Y-70865847D01*
X109165846Y-71587705D01*
X109158951Y-71571058D01*
X109071401Y-71440030D01*
X108959970Y-71328599D01*
X108828942Y-71241049D01*
X108812293Y-71234153D01*
X109535150Y-70511296D01*
X109531379Y-70471077D01*
X109544718Y-70402493D01*
X109593020Y-70352008D01*
X109654837Y-70335500D01*
X110964710Y-70335500D01*
X111031749Y-70355185D01*
X111064544Y-70388592D01*
X111065307Y-70387989D01*
X111069788Y-70393656D01*
X111163181Y-70487049D01*
X111196666Y-70548372D01*
X111199500Y-70574730D01*
X111199500Y-70786414D01*
X111179815Y-70853453D01*
X111127011Y-70899208D01*
X111114505Y-70904120D01*
X111005666Y-70940186D01*
X111005663Y-70940187D01*
X110856342Y-71032289D01*
X110732289Y-71156342D01*
X110640187Y-71305663D01*
X110640185Y-71305668D01*
X110621931Y-71360755D01*
X110585001Y-71472203D01*
X110585001Y-71472204D01*
X110585000Y-71472204D01*
X110574500Y-71574983D01*
X110574500Y-72300001D01*
X110574501Y-72300019D01*
X110585000Y-72402796D01*
X110585001Y-72402799D01*
X110630366Y-72539699D01*
X110640186Y-72569334D01*
X110732288Y-72718656D01*
X110856344Y-72842712D01*
X110914145Y-72878364D01*
X110981096Y-72919659D01*
X111027821Y-72971607D01*
X111040000Y-73025198D01*
X111040000Y-73775388D01*
X111020315Y-73842427D01*
X110981097Y-73880926D01*
X110856659Y-73957680D01*
X110856655Y-73957683D01*
X110732684Y-74081654D01*
X110640643Y-74230875D01*
X110640641Y-74230880D01*
X110585494Y-74397302D01*
X110585493Y-74397309D01*
X110575000Y-74500013D01*
X110575000Y-74612500D01*
X112076000Y-74612500D01*
X112143039Y-74632185D01*
X112188794Y-74684989D01*
X112200000Y-74736500D01*
X112200000Y-75924999D01*
X112624972Y-75924999D01*
X112624986Y-75924998D01*
X112727697Y-75914505D01*
X112894119Y-75859358D01*
X112894124Y-75859356D01*
X113043345Y-75767315D01*
X113167315Y-75643345D01*
X113259356Y-75494124D01*
X113259359Y-75494117D01*
X113305222Y-75355711D01*
X113344994Y-75298266D01*
X113409510Y-75271442D01*
X113478286Y-75283757D01*
X113529486Y-75331299D01*
X113540634Y-75355709D01*
X113590642Y-75506621D01*
X113590643Y-75506624D01*
X113682684Y-75655845D01*
X113806654Y-75779815D01*
X113955875Y-75871856D01*
X113955880Y-75871858D01*
X114122302Y-75927005D01*
X114122309Y-75927006D01*
X114225019Y-75937499D01*
X114649999Y-75937499D01*
X115150000Y-75937499D01*
X115574972Y-75937499D01*
X115574986Y-75937498D01*
X115677697Y-75927005D01*
X115844119Y-75871858D01*
X115844124Y-75871856D01*
X115993345Y-75779815D01*
X116117315Y-75655845D01*
X116209356Y-75506624D01*
X116209358Y-75506619D01*
X116264505Y-75340197D01*
X116264506Y-75340190D01*
X116274999Y-75237486D01*
X116275000Y-75237473D01*
X116275000Y-75125000D01*
X115150000Y-75125000D01*
X115150000Y-75937499D01*
X114649999Y-75937499D01*
X114650000Y-75937498D01*
X114650000Y-74749000D01*
X114669685Y-74681961D01*
X114722489Y-74636206D01*
X114774000Y-74625000D01*
X116274999Y-74625000D01*
X116274999Y-74512528D01*
X116274998Y-74512513D01*
X116264505Y-74409802D01*
X116209358Y-74243380D01*
X116209356Y-74243375D01*
X116117315Y-74094154D01*
X115993344Y-73970183D01*
X115993340Y-73970180D01*
X115868903Y-73893426D01*
X115822178Y-73841478D01*
X115810000Y-73787888D01*
X115810000Y-73037698D01*
X115829685Y-72970659D01*
X115868904Y-72932159D01*
X115993656Y-72855212D01*
X116117712Y-72731156D01*
X116209814Y-72581834D01*
X116236700Y-72500697D01*
X116276471Y-72443253D01*
X116340987Y-72416430D01*
X116409763Y-72428745D01*
X116460963Y-72476288D01*
X116472111Y-72500698D01*
X116490641Y-72556619D01*
X116490643Y-72556624D01*
X116582684Y-72705845D01*
X116706654Y-72829815D01*
X116855875Y-72921856D01*
X116855880Y-72921858D01*
X117022302Y-72977005D01*
X117022309Y-72977006D01*
X117125019Y-72987499D01*
X117549999Y-72987499D01*
X118050000Y-72987499D01*
X118474972Y-72987499D01*
X118474986Y-72987498D01*
X118577697Y-72977005D01*
X118744119Y-72921858D01*
X118744124Y-72921856D01*
X118893345Y-72829815D01*
X119017315Y-72705845D01*
X119109356Y-72556624D01*
X119109358Y-72556619D01*
X119164505Y-72390197D01*
X119164506Y-72390190D01*
X119174999Y-72287486D01*
X119175000Y-72287473D01*
X119175000Y-72175000D01*
X118050000Y-72175000D01*
X118050000Y-72987499D01*
X117549999Y-72987499D01*
X117550000Y-72987498D01*
X117550000Y-71799000D01*
X117569685Y-71731961D01*
X117622489Y-71686206D01*
X117674000Y-71675000D01*
X119174999Y-71675000D01*
X119174999Y-71562528D01*
X119174998Y-71562513D01*
X119164505Y-71459802D01*
X119109358Y-71293380D01*
X119109356Y-71293375D01*
X119017315Y-71144154D01*
X118893344Y-71020183D01*
X118893340Y-71020180D01*
X118768903Y-70943426D01*
X118722178Y-70891478D01*
X118710000Y-70837888D01*
X118710000Y-70087698D01*
X118729685Y-70020659D01*
X118768904Y-69982159D01*
X118780496Y-69975009D01*
X118893656Y-69905212D01*
X119012049Y-69786819D01*
X119073372Y-69753334D01*
X119099730Y-69750500D01*
X119173920Y-69750500D01*
X119271462Y-69731096D01*
X119318913Y-69721658D01*
X119455495Y-69665084D01*
X119512739Y-69626835D01*
X119512739Y-69626834D01*
X119512741Y-69626834D01*
X119569189Y-69589117D01*
X119578416Y-69582952D01*
X119612818Y-69548550D01*
X119674140Y-69515064D01*
X119743832Y-69520048D01*
X119799766Y-69561918D01*
X119824184Y-69627382D01*
X119824500Y-69636230D01*
X119824500Y-69848918D01*
X119824500Y-69848920D01*
X119824499Y-69848920D01*
X119853340Y-69993907D01*
X119853343Y-69993917D01*
X119909914Y-70130492D01*
X119942812Y-70179727D01*
X119942813Y-70179730D01*
X119992046Y-70253414D01*
X119992047Y-70253415D01*
X119992048Y-70253416D01*
X120063182Y-70324550D01*
X120096666Y-70385871D01*
X120099500Y-70412230D01*
X120099500Y-71680170D01*
X120094576Y-71714765D01*
X120052402Y-71859926D01*
X120052401Y-71859932D01*
X120049500Y-71896798D01*
X120049500Y-73053201D01*
X120052401Y-73090067D01*
X120052402Y-73090073D01*
X120098254Y-73247893D01*
X120098255Y-73247896D01*
X120098256Y-73247898D01*
X120115106Y-73276390D01*
X120181917Y-73389362D01*
X120181923Y-73389370D01*
X120298129Y-73505576D01*
X120298133Y-73505579D01*
X120298135Y-73505581D01*
X120439602Y-73589244D01*
X120468780Y-73597721D01*
X120597426Y-73635097D01*
X120597429Y-73635097D01*
X120597431Y-73635098D01*
X120634306Y-73638000D01*
X120925500Y-73638000D01*
X120992539Y-73657685D01*
X121038294Y-73710489D01*
X121049500Y-73762000D01*
X121049500Y-74215201D01*
X121029815Y-74282240D01*
X120990598Y-74320739D01*
X120931344Y-74357287D01*
X120807287Y-74481344D01*
X120730341Y-74606096D01*
X120678393Y-74652821D01*
X120624802Y-74665000D01*
X120125198Y-74665000D01*
X120058159Y-74645315D01*
X120019659Y-74606096D01*
X120009712Y-74589970D01*
X119942712Y-74481344D01*
X119818656Y-74357288D01*
X119669334Y-74265186D01*
X119502797Y-74210001D01*
X119502795Y-74210000D01*
X119400010Y-74199500D01*
X118549998Y-74199500D01*
X118549980Y-74199501D01*
X118447203Y-74210000D01*
X118447200Y-74210001D01*
X118280668Y-74265185D01*
X118280663Y-74265187D01*
X118131342Y-74357289D01*
X118007289Y-74481342D01*
X117915187Y-74630663D01*
X117915185Y-74630668D01*
X117903809Y-74665000D01*
X117860001Y-74797203D01*
X117860001Y-74797204D01*
X117860000Y-74797204D01*
X117849500Y-74899983D01*
X117849500Y-77150001D01*
X117849501Y-77150018D01*
X117860000Y-77252796D01*
X117860001Y-77252799D01*
X117915185Y-77419331D01*
X117915187Y-77419336D01*
X117950069Y-77475888D01*
X118005542Y-77565826D01*
X118007289Y-77568657D01*
X118075681Y-77637049D01*
X118109166Y-77698372D01*
X118112000Y-77724730D01*
X118112000Y-78125270D01*
X118092315Y-78192309D01*
X118075681Y-78212951D01*
X117957289Y-78331342D01*
X117865187Y-78480663D01*
X117865185Y-78480668D01*
X117829121Y-78589504D01*
X117789348Y-78646949D01*
X117724833Y-78673772D01*
X117711415Y-78674500D01*
X117688585Y-78674500D01*
X117621546Y-78654815D01*
X117575791Y-78602011D01*
X117570879Y-78589504D01*
X117560261Y-78557461D01*
X117534814Y-78480666D01*
X117442712Y-78331344D01*
X117318656Y-78207288D01*
X117223951Y-78148874D01*
X117169336Y-78115187D01*
X117169331Y-78115185D01*
X117167862Y-78114698D01*
X117002797Y-78060001D01*
X117002795Y-78060000D01*
X116900010Y-78049500D01*
X116149998Y-78049500D01*
X116149980Y-78049501D01*
X116047203Y-78060000D01*
X116047200Y-78060001D01*
X115880668Y-78115185D01*
X115880663Y-78115187D01*
X115731342Y-78207289D01*
X115607287Y-78331344D01*
X115514921Y-78481096D01*
X115462973Y-78527821D01*
X115409382Y-78540000D01*
X114690032Y-78540000D01*
X114622993Y-78520315D01*
X114584494Y-78481097D01*
X114492319Y-78331659D01*
X114492316Y-78331655D01*
X114368345Y-78207684D01*
X114219124Y-78115643D01*
X114219119Y-78115641D01*
X114052697Y-78060494D01*
X114052690Y-78060493D01*
X113949986Y-78050000D01*
X113825000Y-78050000D01*
X113825000Y-80849999D01*
X113949972Y-80849999D01*
X113949986Y-80849998D01*
X114052697Y-80839505D01*
X114219119Y-80784358D01*
X114219124Y-80784356D01*
X114368345Y-80692315D01*
X114492316Y-80568344D01*
X114492319Y-80568340D01*
X114584494Y-80418903D01*
X114636441Y-80372178D01*
X114690032Y-80360000D01*
X115409382Y-80360000D01*
X115476421Y-80379685D01*
X115514921Y-80418904D01*
X115607095Y-80568344D01*
X115607288Y-80568656D01*
X115731344Y-80692712D01*
X115880666Y-80784814D01*
X116047203Y-80839999D01*
X116149991Y-80850500D01*
X116900008Y-80850499D01*
X116900016Y-80850498D01*
X116900019Y-80850498D01*
X116956302Y-80844748D01*
X117002797Y-80839999D01*
X117169334Y-80784814D01*
X117318656Y-80692712D01*
X117442712Y-80568656D01*
X117534814Y-80419334D01*
X117587448Y-80260493D01*
X117627219Y-80203051D01*
X117691735Y-80176228D01*
X117705153Y-80175500D01*
X117711415Y-80175500D01*
X117778454Y-80195185D01*
X117824209Y-80247989D01*
X117829121Y-80260496D01*
X117865185Y-80369331D01*
X117865187Y-80369336D01*
X117880341Y-80393904D01*
X117957287Y-80518655D01*
X117957289Y-80518657D01*
X118063181Y-80624549D01*
X118096666Y-80685872D01*
X118099500Y-80712230D01*
X118099500Y-81380170D01*
X118094576Y-81414765D01*
X118052402Y-81559926D01*
X118052401Y-81559932D01*
X118049500Y-81596798D01*
X118049500Y-82753201D01*
X118052401Y-82790067D01*
X118052402Y-82790073D01*
X118098254Y-82947893D01*
X118098255Y-82947896D01*
X118185890Y-83096080D01*
X118184071Y-83097155D01*
X118205619Y-83152032D01*
X118191941Y-83220550D01*
X118143391Y-83270796D01*
X118082105Y-83287000D01*
X117684298Y-83287000D01*
X117647432Y-83289901D01*
X117647426Y-83289902D01*
X117489606Y-83335754D01*
X117489603Y-83335755D01*
X117348137Y-83419417D01*
X117348129Y-83419423D01*
X117231923Y-83535629D01*
X117231917Y-83535637D01*
X117148255Y-83677103D01*
X117148254Y-83677106D01*
X117102402Y-83834926D01*
X117102401Y-83834932D01*
X117099500Y-83871798D01*
X117099500Y-85028201D01*
X117102401Y-85065067D01*
X117102402Y-85065073D01*
X117148253Y-85222890D01*
X117148255Y-85222894D01*
X117148255Y-85222896D01*
X117150806Y-85228789D01*
X117159367Y-85298132D01*
X117129080Y-85361096D01*
X117124687Y-85365721D01*
X116926270Y-85564139D01*
X116839144Y-85651264D01*
X116839138Y-85651272D01*
X116770690Y-85753708D01*
X116770688Y-85753713D01*
X116723540Y-85867538D01*
X116723535Y-85867554D01*
X116705152Y-85959971D01*
X116705153Y-85959972D01*
X116704857Y-85961462D01*
X116672487Y-86023381D01*
X116648331Y-86042839D01*
X116543847Y-86107285D01*
X116543843Y-86107288D01*
X116419789Y-86231342D01*
X116327687Y-86380663D01*
X116327685Y-86380668D01*
X116272501Y-86547204D01*
X116272500Y-86547205D01*
X116264491Y-86625603D01*
X116238094Y-86690295D01*
X116180913Y-86730446D01*
X116141133Y-86737000D01*
X115047669Y-86737000D01*
X114980630Y-86717315D01*
X114934875Y-86664511D01*
X114928593Y-86647595D01*
X114911745Y-86589607D01*
X114911743Y-86589600D01*
X114828082Y-86448137D01*
X114828081Y-86448135D01*
X114828079Y-86448133D01*
X114828076Y-86448129D01*
X114711870Y-86331923D01*
X114711862Y-86331917D01*
X114570396Y-86248255D01*
X114570393Y-86248254D01*
X114412573Y-86202402D01*
X114412567Y-86202401D01*
X114375701Y-86199500D01*
X114375694Y-86199500D01*
X113944306Y-86199500D01*
X113944298Y-86199500D01*
X113907432Y-86202401D01*
X113907426Y-86202402D01*
X113749606Y-86248254D01*
X113749603Y-86248255D01*
X113608137Y-86331917D01*
X113608129Y-86331923D01*
X113491923Y-86448129D01*
X113491917Y-86448137D01*
X113408255Y-86589603D01*
X113408254Y-86589606D01*
X113362402Y-86747426D01*
X113362401Y-86747432D01*
X113359500Y-86784298D01*
X113359500Y-87940701D01*
X113362401Y-87977567D01*
X113362402Y-87977573D01*
X113408254Y-88135393D01*
X113408255Y-88135396D01*
X113408256Y-88135398D01*
X113423676Y-88161472D01*
X113495890Y-88283580D01*
X113494071Y-88284655D01*
X113515619Y-88339532D01*
X113501941Y-88408050D01*
X113453391Y-88458296D01*
X113392105Y-88474500D01*
X112994298Y-88474500D01*
X112957432Y-88477401D01*
X112957426Y-88477402D01*
X112799606Y-88523254D01*
X112799603Y-88523255D01*
X112658137Y-88606917D01*
X112658129Y-88606923D01*
X112541923Y-88723129D01*
X112541917Y-88723137D01*
X112458255Y-88864603D01*
X112458254Y-88864606D01*
X112412402Y-89022426D01*
X112412401Y-89022432D01*
X112409500Y-89059298D01*
X112409500Y-90215701D01*
X112412401Y-90252567D01*
X112412402Y-90252573D01*
X112458254Y-90410393D01*
X112458255Y-90410396D01*
X112541917Y-90551863D01*
X112545979Y-90557099D01*
X112571514Y-90622136D01*
X112572000Y-90633100D01*
X112572000Y-91017072D01*
X112552315Y-91084111D01*
X112513098Y-91122609D01*
X112468695Y-91149998D01*
X112416342Y-91182289D01*
X112292289Y-91306342D01*
X112200187Y-91455663D01*
X112200186Y-91455666D01*
X112145001Y-91622203D01*
X112145001Y-91622204D01*
X112145000Y-91622204D01*
X112134500Y-91724983D01*
X112134500Y-93075001D01*
X112134501Y-93075019D01*
X112143479Y-93162899D01*
X112130709Y-93231592D01*
X112082828Y-93282476D01*
X112020121Y-93299500D01*
X108462368Y-93299500D01*
X108395329Y-93279815D01*
X108349574Y-93227011D01*
X108347807Y-93222953D01*
X108335777Y-93193910D01*
X108208262Y-92985826D01*
X108208261Y-92985823D01*
X108172453Y-92943897D01*
X108049759Y-92800241D01*
X107927063Y-92695449D01*
X107864176Y-92641738D01*
X107864173Y-92641737D01*
X107759710Y-92577721D01*
X107712835Y-92525909D01*
X107700500Y-92471994D01*
X107700500Y-90546869D01*
X107720185Y-90479830D01*
X107772989Y-90434075D01*
X107785486Y-90429166D01*
X107919334Y-90384814D01*
X108068656Y-90292712D01*
X108192712Y-90168656D01*
X108284814Y-90019334D01*
X108339999Y-89852797D01*
X108350500Y-89750009D01*
X108350499Y-88999992D01*
X108350389Y-88998920D01*
X108339999Y-88897203D01*
X108339998Y-88897200D01*
X108317669Y-88829815D01*
X108284814Y-88730666D01*
X108192712Y-88581344D01*
X108068656Y-88457288D01*
X107919334Y-88365186D01*
X107918903Y-88364920D01*
X107872179Y-88312972D01*
X107860000Y-88259381D01*
X107860000Y-87540031D01*
X107879685Y-87472992D01*
X107918903Y-87434492D01*
X108068345Y-87342315D01*
X108192315Y-87218345D01*
X108284356Y-87069124D01*
X108284358Y-87069119D01*
X108339505Y-86902697D01*
X108339506Y-86902690D01*
X108349999Y-86799986D01*
X108350000Y-86799973D01*
X108350000Y-86675000D01*
X105550001Y-86675000D01*
X105550001Y-86799986D01*
X105560494Y-86902697D01*
X105615641Y-87069119D01*
X105615643Y-87069124D01*
X105707684Y-87218345D01*
X105831654Y-87342315D01*
X105981097Y-87434492D01*
X106027821Y-87486440D01*
X106040000Y-87540031D01*
X106040000Y-88259381D01*
X106020315Y-88326420D01*
X105981097Y-88364920D01*
X105831342Y-88457289D01*
X105707289Y-88581342D01*
X105615187Y-88730663D01*
X105615185Y-88730668D01*
X105602747Y-88768205D01*
X105560001Y-88897203D01*
X105560001Y-88897204D01*
X105560000Y-88897204D01*
X105549500Y-88999983D01*
X105549500Y-89750001D01*
X105549501Y-89750019D01*
X105560000Y-89852796D01*
X105560001Y-89852799D01*
X105615185Y-90019331D01*
X105615187Y-90019336D01*
X105645760Y-90068903D01*
X105707288Y-90168656D01*
X105831344Y-90292712D01*
X105980666Y-90384814D01*
X106114505Y-90429164D01*
X106171949Y-90468936D01*
X106198772Y-90533451D01*
X106199500Y-90546869D01*
X106199500Y-92471994D01*
X106179815Y-92539033D01*
X106140290Y-92577721D01*
X106035826Y-92641737D01*
X106035823Y-92641738D01*
X105850241Y-92800241D01*
X105691738Y-92985823D01*
X105691737Y-92985826D01*
X105564222Y-93193910D01*
X105470830Y-93419380D01*
X105470828Y-93419387D01*
X105470828Y-93419388D01*
X105437626Y-93557683D01*
X105413853Y-93656702D01*
X105394706Y-93900000D01*
X105413853Y-94143297D01*
X105413853Y-94143300D01*
X105413854Y-94143302D01*
X105449118Y-94290186D01*
X105470830Y-94380619D01*
X105564222Y-94606089D01*
X105691737Y-94814173D01*
X105691738Y-94814176D01*
X105724386Y-94852402D01*
X105850241Y-94999759D01*
X105889969Y-95033690D01*
X105915751Y-95055710D01*
X105953944Y-95114217D01*
X105954442Y-95184085D01*
X105917088Y-95243131D01*
X105915751Y-95244290D01*
X105850241Y-95300241D01*
X105691738Y-95485823D01*
X105691737Y-95485826D01*
X105564222Y-95693910D01*
X105470830Y-95919380D01*
X105470828Y-95919387D01*
X105470828Y-95919388D01*
X105455092Y-95984931D01*
X105413853Y-96156702D01*
X105394706Y-96400000D01*
X105413853Y-96643297D01*
X105413853Y-96643300D01*
X105413854Y-96643302D01*
X105464095Y-96852569D01*
X105470830Y-96880619D01*
X105564222Y-97106089D01*
X105691737Y-97314173D01*
X105691738Y-97314176D01*
X105691741Y-97314179D01*
X105850241Y-97499759D01*
X105993897Y-97622453D01*
X106035823Y-97658261D01*
X106035826Y-97658262D01*
X106243910Y-97785777D01*
X106469381Y-97879169D01*
X106469378Y-97879169D01*
X106469384Y-97879170D01*
X106469388Y-97879172D01*
X106706698Y-97936146D01*
X106950000Y-97955294D01*
X107193302Y-97936146D01*
X107430612Y-97879172D01*
X107656089Y-97785777D01*
X107864179Y-97658259D01*
X108049759Y-97499759D01*
X108208259Y-97314179D01*
X108335777Y-97106089D01*
X108338299Y-97100000D01*
X108347807Y-97077047D01*
X108391648Y-97022644D01*
X108457942Y-97000579D01*
X108462368Y-97000500D01*
X111154911Y-97000500D01*
X111221950Y-97020185D01*
X111267705Y-97072989D01*
X111278269Y-97111898D01*
X111285001Y-97177797D01*
X111285001Y-97177799D01*
X111340185Y-97344331D01*
X111340187Y-97344336D01*
X111357801Y-97372893D01*
X111432288Y-97493656D01*
X111556344Y-97617712D01*
X111678097Y-97692809D01*
X111724821Y-97744755D01*
X111737000Y-97798347D01*
X111737000Y-97851652D01*
X111717315Y-97918691D01*
X111678098Y-97957189D01*
X111659509Y-97968656D01*
X111556342Y-98032289D01*
X111432289Y-98156342D01*
X111340187Y-98305663D01*
X111340185Y-98305668D01*
X111316687Y-98376580D01*
X111285001Y-98472203D01*
X111285001Y-98472204D01*
X111285000Y-98472204D01*
X111274500Y-98574983D01*
X111274500Y-99925001D01*
X111274501Y-99925018D01*
X111285000Y-100027796D01*
X111285001Y-100027799D01*
X111335332Y-100179685D01*
X111340186Y-100194334D01*
X111432288Y-100343656D01*
X111556344Y-100467712D01*
X111705666Y-100559814D01*
X111872203Y-100614999D01*
X111974991Y-100625500D01*
X112700008Y-100625499D01*
X112700016Y-100625498D01*
X112700019Y-100625498D01*
X112756302Y-100619748D01*
X112802797Y-100614999D01*
X112969334Y-100559814D01*
X113118656Y-100467712D01*
X113242712Y-100343656D01*
X113319659Y-100218903D01*
X113371607Y-100172179D01*
X113425198Y-100160000D01*
X114175389Y-100160000D01*
X114242428Y-100179685D01*
X114280928Y-100218903D01*
X114357684Y-100343345D01*
X114481654Y-100467315D01*
X114630875Y-100559356D01*
X114630880Y-100559358D01*
X114797302Y-100614505D01*
X114797309Y-100614506D01*
X114900019Y-100624999D01*
X115012499Y-100624999D01*
X115512500Y-100624999D01*
X115624972Y-100624999D01*
X115624986Y-100624998D01*
X115727697Y-100614505D01*
X115894119Y-100559358D01*
X115894124Y-100559356D01*
X116043345Y-100467315D01*
X116167315Y-100343345D01*
X116259356Y-100194124D01*
X116259358Y-100194119D01*
X116314505Y-100027697D01*
X116314506Y-100027690D01*
X116324999Y-99924986D01*
X116325000Y-99924973D01*
X116325000Y-99500000D01*
X115512500Y-99500000D01*
X115512500Y-100624999D01*
X115012499Y-100624999D01*
X115012500Y-100624998D01*
X115012500Y-99124000D01*
X115032185Y-99056961D01*
X115084989Y-99011206D01*
X115136500Y-99000000D01*
X116324999Y-99000000D01*
X116324999Y-98575028D01*
X116324998Y-98575013D01*
X116314505Y-98472302D01*
X116259358Y-98305880D01*
X116259356Y-98305875D01*
X116167315Y-98156654D01*
X116043345Y-98032684D01*
X115894115Y-97940638D01*
X115887715Y-97937654D01*
X115835275Y-97891482D01*
X115816123Y-97824289D01*
X115836338Y-97757408D01*
X115888014Y-97713342D01*
X115887791Y-97712864D01*
X115894326Y-97709816D01*
X115894334Y-97709814D01*
X116043656Y-97617712D01*
X116167712Y-97493656D01*
X116259814Y-97344334D01*
X116314999Y-97177797D01*
X116325500Y-97075009D01*
X116325499Y-96237595D01*
X116345183Y-96170557D01*
X116361813Y-96149920D01*
X118849917Y-93661819D01*
X118911240Y-93628334D01*
X118937598Y-93625500D01*
X119749782Y-93625500D01*
X119816821Y-93645185D01*
X119855319Y-93684401D01*
X119907288Y-93768656D01*
X120031344Y-93892712D01*
X120180666Y-93984814D01*
X120347203Y-94039999D01*
X120449991Y-94050500D01*
X121950008Y-94050499D01*
X122052797Y-94039999D01*
X122077558Y-94031793D01*
X122116562Y-94025500D01*
X125159218Y-94025500D01*
X125226257Y-94045185D01*
X125246899Y-94061819D01*
X127453181Y-96268101D01*
X127486666Y-96329424D01*
X127489500Y-96355782D01*
X127489500Y-102876752D01*
X127469815Y-102943791D01*
X127417011Y-102989546D01*
X127365500Y-103000752D01*
X127057130Y-103000752D01*
X127057123Y-103000753D01*
X126997516Y-103007160D01*
X126862671Y-103057454D01*
X126862669Y-103057455D01*
X126774311Y-103123601D01*
X126708847Y-103148018D01*
X126640574Y-103133167D01*
X126625689Y-103123601D01*
X126537330Y-103057455D01*
X126537328Y-103057454D01*
X126402482Y-103007160D01*
X126402483Y-103007160D01*
X126342883Y-103000753D01*
X126342881Y-103000752D01*
X126342873Y-103000752D01*
X126342864Y-103000752D01*
X123477129Y-103000752D01*
X123477123Y-103000753D01*
X123417516Y-103007160D01*
X123282671Y-103057454D01*
X123282664Y-103057458D01*
X123167457Y-103143703D01*
X123167449Y-103143710D01*
X123135746Y-103186062D01*
X123079813Y-103227934D01*
X123036479Y-103235752D01*
X120907535Y-103235752D01*
X120840496Y-103216067D01*
X120794741Y-103163263D01*
X120784177Y-103124354D01*
X120783663Y-103119323D01*
X120779999Y-103083455D01*
X120724814Y-102916918D01*
X120632712Y-102767596D01*
X120508656Y-102643540D01*
X120359334Y-102551438D01*
X120192797Y-102496253D01*
X120192795Y-102496252D01*
X120090010Y-102485752D01*
X117189998Y-102485752D01*
X117189981Y-102485753D01*
X117087203Y-102496252D01*
X117087200Y-102496253D01*
X116920668Y-102551437D01*
X116920663Y-102551439D01*
X116771342Y-102643541D01*
X116647289Y-102767594D01*
X116555187Y-102916915D01*
X116555185Y-102916920D01*
X116546281Y-102943791D01*
X116500002Y-103083454D01*
X116500001Y-103083456D01*
X116500000Y-103083457D01*
X116495823Y-103124354D01*
X116469427Y-103189045D01*
X116412247Y-103229197D01*
X116372465Y-103235752D01*
X109874499Y-103235752D01*
X109807460Y-103216067D01*
X109761705Y-103163263D01*
X109750499Y-103111752D01*
X109750499Y-102902129D01*
X109750498Y-102902123D01*
X109750497Y-102902116D01*
X109744091Y-102842517D01*
X109716147Y-102767596D01*
X109693797Y-102707671D01*
X109693793Y-102707664D01*
X109607547Y-102592455D01*
X109607544Y-102592452D01*
X109492335Y-102506206D01*
X109492328Y-102506202D01*
X109357482Y-102455908D01*
X109357483Y-102455908D01*
X109297883Y-102449501D01*
X109297881Y-102449500D01*
X109297873Y-102449500D01*
X109297864Y-102449500D01*
X106802129Y-102449500D01*
X106802123Y-102449501D01*
X106742516Y-102455908D01*
X106607671Y-102506202D01*
X106607664Y-102506206D01*
X106492455Y-102592452D01*
X106492452Y-102592455D01*
X106406206Y-102707664D01*
X106406202Y-102707671D01*
X106355908Y-102842517D01*
X106352228Y-102876752D01*
X106349501Y-102902123D01*
X106349500Y-102902135D01*
X106349500Y-105397870D01*
X106349501Y-105397876D01*
X106355908Y-105457483D01*
X106406202Y-105592328D01*
X106406206Y-105592335D01*
X106492452Y-105707544D01*
X106492455Y-105707547D01*
X106607664Y-105793793D01*
X106607671Y-105793797D01*
X106742517Y-105844091D01*
X106742516Y-105844091D01*
X106749444Y-105844835D01*
X106802127Y-105850500D01*
X109297872Y-105850499D01*
X109357483Y-105844091D01*
X109492331Y-105793796D01*
X109607546Y-105707546D01*
X109693796Y-105592331D01*
X109744091Y-105457483D01*
X109750500Y-105397873D01*
X109750500Y-105360752D01*
X109770185Y-105293713D01*
X109822989Y-105247958D01*
X109874500Y-105236752D01*
X116372465Y-105236752D01*
X116439504Y-105256437D01*
X116485259Y-105309241D01*
X116495823Y-105348150D01*
X116500001Y-105389049D01*
X116500001Y-105389051D01*
X116555185Y-105555583D01*
X116555187Y-105555588D01*
X116647289Y-105704909D01*
X116716951Y-105774571D01*
X116750436Y-105835894D01*
X116745452Y-105905586D01*
X116703580Y-105961519D01*
X116638116Y-105985936D01*
X116629270Y-105986252D01*
X115540000Y-105986252D01*
X115540000Y-109536252D01*
X116445346Y-109536252D01*
X116512385Y-109555937D01*
X116558140Y-109608741D01*
X116568084Y-109677899D01*
X116557729Y-109712655D01*
X116555642Y-109717129D01*
X116500494Y-109883554D01*
X116500493Y-109883561D01*
X116490000Y-109986265D01*
X116490000Y-110786252D01*
X120789999Y-110786252D01*
X120789999Y-109986280D01*
X120789998Y-109986265D01*
X120779505Y-109883554D01*
X120724357Y-109717129D01*
X120722271Y-109712655D01*
X120711780Y-109643577D01*
X120740301Y-109579794D01*
X120798779Y-109541555D01*
X120834654Y-109536252D01*
X121690000Y-109536252D01*
X121690000Y-105986252D01*
X120650730Y-105986252D01*
X120583691Y-105966567D01*
X120537936Y-105913763D01*
X120527992Y-105844605D01*
X120557017Y-105781049D01*
X120563049Y-105774571D01*
X120632712Y-105704908D01*
X120724814Y-105555586D01*
X120779999Y-105389049D01*
X120784177Y-105348148D01*
X120810573Y-105283459D01*
X120867753Y-105243307D01*
X120907535Y-105236752D01*
X123036479Y-105236752D01*
X123103518Y-105256437D01*
X123135746Y-105286442D01*
X123167449Y-105328793D01*
X123167452Y-105328796D01*
X123167454Y-105328798D01*
X123167457Y-105328800D01*
X123282664Y-105415045D01*
X123282671Y-105415049D01*
X123417517Y-105465343D01*
X123417516Y-105465343D01*
X123424444Y-105466087D01*
X123477127Y-105471752D01*
X126342872Y-105471751D01*
X126402483Y-105465343D01*
X126537331Y-105415048D01*
X126625689Y-105348902D01*
X126691153Y-105324486D01*
X126759426Y-105339337D01*
X126774311Y-105348903D01*
X126862669Y-105415048D01*
X126862671Y-105415049D01*
X126907618Y-105431813D01*
X126997517Y-105465343D01*
X127057127Y-105471752D01*
X127365500Y-105471751D01*
X127432539Y-105491435D01*
X127478294Y-105544239D01*
X127489500Y-105595751D01*
X127489500Y-106476453D01*
X127469815Y-106543492D01*
X127430598Y-106581991D01*
X127371344Y-106618539D01*
X127247289Y-106742594D01*
X127155187Y-106891915D01*
X127155186Y-106891918D01*
X127100001Y-107058455D01*
X127100001Y-107058456D01*
X127100000Y-107058456D01*
X127089500Y-107161235D01*
X127089500Y-107911253D01*
X127089501Y-107911271D01*
X127100000Y-108014048D01*
X127100001Y-108014051D01*
X127155185Y-108180583D01*
X127155187Y-108180588D01*
X127247289Y-108329909D01*
X127371344Y-108453964D01*
X127521096Y-108546331D01*
X127567821Y-108598279D01*
X127580000Y-108651870D01*
X127580000Y-109371220D01*
X127560315Y-109438259D01*
X127521097Y-109476758D01*
X127371659Y-109568932D01*
X127371655Y-109568935D01*
X127247684Y-109692906D01*
X127155643Y-109842127D01*
X127155641Y-109842132D01*
X127100494Y-110008554D01*
X127100493Y-110008561D01*
X127090000Y-110111265D01*
X127090000Y-110236252D01*
X129889999Y-110236252D01*
X129889999Y-110111280D01*
X129889998Y-110111265D01*
X129879505Y-110008554D01*
X129824358Y-109842132D01*
X129824356Y-109842127D01*
X129732315Y-109692906D01*
X129608344Y-109568935D01*
X129608340Y-109568932D01*
X129458903Y-109476758D01*
X129412178Y-109424811D01*
X129400000Y-109371220D01*
X129400000Y-108651870D01*
X129419685Y-108584831D01*
X129458904Y-108546331D01*
X129459334Y-108546066D01*
X129608656Y-108453964D01*
X129732712Y-108329908D01*
X129824814Y-108180586D01*
X129879999Y-108014049D01*
X129890500Y-107911261D01*
X129890499Y-107161244D01*
X129879999Y-107058455D01*
X129824814Y-106891918D01*
X129732712Y-106742596D01*
X129608656Y-106618540D01*
X129608655Y-106618539D01*
X129549402Y-106581991D01*
X129502678Y-106530043D01*
X129490500Y-106476453D01*
X129490500Y-105595751D01*
X129510185Y-105528712D01*
X129562989Y-105482957D01*
X129614500Y-105471751D01*
X129922871Y-105471751D01*
X129922872Y-105471751D01*
X129982483Y-105465343D01*
X130117331Y-105415048D01*
X130232546Y-105328798D01*
X130247187Y-105309241D01*
X130264254Y-105286442D01*
X130320187Y-105244570D01*
X130363521Y-105236752D01*
X133265501Y-105236752D01*
X133332540Y-105256437D01*
X133378295Y-105309241D01*
X133389501Y-105360752D01*
X133389501Y-105786270D01*
X133400000Y-105889048D01*
X133400001Y-105889051D01*
X133455185Y-106055583D01*
X133455187Y-106055588D01*
X133547289Y-106204909D01*
X133566951Y-106224571D01*
X133600436Y-106285894D01*
X133595452Y-106355586D01*
X133553580Y-106411519D01*
X133488116Y-106435936D01*
X133479270Y-106436252D01*
X131440000Y-106436252D01*
X131440000Y-107686252D01*
X133327291Y-107686252D01*
X133394330Y-107705937D01*
X133440085Y-107758741D01*
X133450029Y-107827899D01*
X133444997Y-107849256D01*
X133400494Y-107983554D01*
X133400493Y-107983561D01*
X133390000Y-108086265D01*
X133390000Y-109386252D01*
X134816000Y-109386252D01*
X134883039Y-109405937D01*
X134928794Y-109458741D01*
X134940000Y-109510252D01*
X134940000Y-111886251D01*
X135289972Y-111886251D01*
X135289986Y-111886250D01*
X135392697Y-111875757D01*
X135559119Y-111820610D01*
X135559124Y-111820608D01*
X135708345Y-111728567D01*
X135832315Y-111604597D01*
X135924356Y-111455376D01*
X135924358Y-111455371D01*
X135979505Y-111288949D01*
X135979506Y-111288942D01*
X135989999Y-111186238D01*
X141340001Y-111186238D01*
X141350494Y-111288949D01*
X141405641Y-111455371D01*
X141405643Y-111455376D01*
X141497684Y-111604597D01*
X141621654Y-111728567D01*
X141770875Y-111820608D01*
X141770880Y-111820610D01*
X141937302Y-111875757D01*
X141937309Y-111875758D01*
X142040019Y-111886251D01*
X142389999Y-111886251D01*
X142890000Y-111886251D01*
X143239972Y-111886251D01*
X143239986Y-111886250D01*
X143342697Y-111875757D01*
X143509119Y-111820610D01*
X143509124Y-111820608D01*
X143658345Y-111728567D01*
X143782315Y-111604597D01*
X143874356Y-111455376D01*
X143874358Y-111455371D01*
X143929505Y-111288949D01*
X143929506Y-111288942D01*
X143939999Y-111186238D01*
X143940000Y-111186225D01*
X143940000Y-109886252D01*
X142890000Y-109886252D01*
X142890000Y-111886251D01*
X142389999Y-111886251D01*
X142390000Y-111886250D01*
X142390000Y-109886252D01*
X141340001Y-109886252D01*
X141340001Y-111186238D01*
X135989999Y-111186238D01*
X135990000Y-111186225D01*
X135990000Y-109846504D01*
X136009685Y-109779465D01*
X136062489Y-109733710D01*
X136114000Y-109722504D01*
X137450000Y-109722504D01*
X137450000Y-108300000D01*
X136113999Y-108300000D01*
X136046960Y-108280315D01*
X136001205Y-108227511D01*
X135989999Y-108176000D01*
X135989999Y-108086280D01*
X135989998Y-108086265D01*
X135979505Y-107983554D01*
X135935003Y-107849256D01*
X135932601Y-107779428D01*
X135968333Y-107719386D01*
X136030853Y-107688193D01*
X136052709Y-107686252D01*
X141277291Y-107686252D01*
X141344330Y-107705937D01*
X141390085Y-107758741D01*
X141400029Y-107827899D01*
X141394997Y-107849256D01*
X141350494Y-107983554D01*
X141350493Y-107983561D01*
X141340000Y-108086265D01*
X141340000Y-109386252D01*
X143939999Y-109386252D01*
X143939999Y-108086280D01*
X143939998Y-108086265D01*
X143929505Y-107983554D01*
X143885003Y-107849256D01*
X143882601Y-107779428D01*
X143918333Y-107719386D01*
X143980853Y-107688193D01*
X144002709Y-107686252D01*
X145890000Y-107686252D01*
X145890000Y-106436252D01*
X143850730Y-106436252D01*
X143783691Y-106416567D01*
X143737936Y-106363763D01*
X143727992Y-106294605D01*
X143757017Y-106231049D01*
X143763049Y-106224571D01*
X143782712Y-106204908D01*
X143874814Y-106055586D01*
X143929999Y-105889049D01*
X143940500Y-105786261D01*
X143940500Y-105360752D01*
X143960185Y-105293713D01*
X144012989Y-105247958D01*
X144064500Y-105236752D01*
X158062291Y-105236752D01*
X158139940Y-105221306D01*
X158178766Y-105213583D01*
X158255584Y-105198303D01*
X158308913Y-105176213D01*
X158437662Y-105122884D01*
X158601530Y-105013391D01*
X158740887Y-104874034D01*
X158740887Y-104874032D01*
X158751095Y-104863825D01*
X158751096Y-104863822D01*
X161739640Y-101875281D01*
X161766919Y-101834453D01*
X161849132Y-101711414D01*
X161924551Y-101529335D01*
X161963000Y-101336041D01*
X161963000Y-100554728D01*
X161969294Y-100515724D01*
X161971191Y-100510000D01*
X162014999Y-100377797D01*
X162025500Y-100275009D01*
X162025499Y-98924992D01*
X162014999Y-98822203D01*
X161959814Y-98655666D01*
X161867712Y-98506344D01*
X161786819Y-98425451D01*
X161753334Y-98364128D01*
X161750500Y-98337770D01*
X161750500Y-97394828D01*
X161755424Y-97360233D01*
X161797597Y-97215073D01*
X161797598Y-97215067D01*
X161800499Y-97178201D01*
X161800500Y-97178194D01*
X161800500Y-96021806D01*
X161797598Y-95984931D01*
X161794567Y-95974500D01*
X161757890Y-95848256D01*
X161751744Y-95827102D01*
X161668081Y-95685635D01*
X161668079Y-95685633D01*
X161668076Y-95685629D01*
X161551870Y-95569423D01*
X161551862Y-95569417D01*
X161410396Y-95485755D01*
X161410393Y-95485754D01*
X161252573Y-95439902D01*
X161252567Y-95439901D01*
X161215701Y-95437000D01*
X161215694Y-95437000D01*
X160817895Y-95437000D01*
X160750856Y-95417315D01*
X160705101Y-95364511D01*
X160695157Y-95295353D01*
X160715671Y-95247003D01*
X160714110Y-95246080D01*
X160728026Y-95222548D01*
X160801744Y-95097898D01*
X160847598Y-94940069D01*
X160850500Y-94903194D01*
X160850500Y-93746806D01*
X160847598Y-93709931D01*
X160847564Y-93709814D01*
X160805424Y-93564765D01*
X160800500Y-93530170D01*
X160800500Y-92212230D01*
X160820185Y-92145191D01*
X160836819Y-92124549D01*
X164858573Y-88102795D01*
X168882952Y-84078416D01*
X168932186Y-84004729D01*
X168965084Y-83955495D01*
X169021658Y-83818913D01*
X169049866Y-83677106D01*
X169050500Y-83673920D01*
X169050500Y-78126079D01*
X169021659Y-77981092D01*
X169021658Y-77981091D01*
X169021658Y-77981087D01*
X169015378Y-77965925D01*
X168965087Y-77844511D01*
X168965080Y-77844498D01*
X168882952Y-77721585D01*
X168830929Y-77669562D01*
X168778416Y-77617049D01*
X168661361Y-77499994D01*
X179094859Y-77499994D01*
X179094859Y-77500005D01*
X179115385Y-77747729D01*
X179115387Y-77747738D01*
X179176412Y-77988717D01*
X179276266Y-78216364D01*
X179376564Y-78369882D01*
X180117037Y-77629409D01*
X180134075Y-77692993D01*
X180199901Y-77807007D01*
X180292993Y-77900099D01*
X180407007Y-77965925D01*
X180470590Y-77982962D01*
X179729942Y-78723609D01*
X179776768Y-78760055D01*
X179776770Y-78760056D01*
X179995385Y-78878364D01*
X179995396Y-78878369D01*
X180230506Y-78959083D01*
X180475707Y-79000000D01*
X180724293Y-79000000D01*
X180969493Y-78959083D01*
X181204603Y-78878369D01*
X181204614Y-78878364D01*
X181423228Y-78760057D01*
X181423231Y-78760055D01*
X181470056Y-78723609D01*
X180729409Y-77982962D01*
X180792993Y-77965925D01*
X180907007Y-77900099D01*
X181000099Y-77807007D01*
X181065925Y-77692993D01*
X181082962Y-77629409D01*
X181823434Y-78369882D01*
X181923731Y-78216369D01*
X182023587Y-77988717D01*
X182084612Y-77747738D01*
X182084614Y-77747729D01*
X182105141Y-77500005D01*
X182105141Y-77499994D01*
X182084614Y-77252270D01*
X182084612Y-77252261D01*
X182023587Y-77011282D01*
X181923731Y-76783630D01*
X181823434Y-76630116D01*
X181082962Y-77370589D01*
X181065925Y-77307007D01*
X181000099Y-77192993D01*
X180907007Y-77099901D01*
X180792993Y-77034075D01*
X180729410Y-77017037D01*
X181470057Y-76276390D01*
X181470056Y-76276389D01*
X181423229Y-76239943D01*
X181204614Y-76121635D01*
X181204603Y-76121630D01*
X180969493Y-76040916D01*
X180724293Y-76000000D01*
X180475707Y-76000000D01*
X180230506Y-76040916D01*
X179995396Y-76121630D01*
X179995390Y-76121632D01*
X179776761Y-76239949D01*
X179729942Y-76276388D01*
X179729942Y-76276390D01*
X180470590Y-77017037D01*
X180407007Y-77034075D01*
X180292993Y-77099901D01*
X180199901Y-77192993D01*
X180134075Y-77307007D01*
X180117037Y-77370589D01*
X179376564Y-76630116D01*
X179276267Y-76783632D01*
X179176412Y-77011282D01*
X179115387Y-77252261D01*
X179115385Y-77252270D01*
X179094859Y-77499994D01*
X168661361Y-77499994D01*
X166099381Y-74938014D01*
X166065896Y-74876691D01*
X166066857Y-74819891D01*
X166085106Y-74747829D01*
X166085107Y-74747824D01*
X166085108Y-74747821D01*
X166088242Y-74710000D01*
X166105643Y-74500005D01*
X166105643Y-74499994D01*
X166085109Y-74252187D01*
X166085107Y-74252175D01*
X166024063Y-74011118D01*
X165924173Y-73783393D01*
X165788166Y-73575217D01*
X165739341Y-73522179D01*
X165619744Y-73392262D01*
X165423509Y-73239526D01*
X165423507Y-73239525D01*
X165423506Y-73239524D01*
X165204811Y-73121172D01*
X165204802Y-73121169D01*
X165193477Y-73117281D01*
X165136462Y-73076896D01*
X165110331Y-73012096D01*
X165123382Y-72943456D01*
X165171471Y-72892768D01*
X165193477Y-72882719D01*
X165197235Y-72881428D01*
X165204810Y-72878828D01*
X165423509Y-72760474D01*
X165619744Y-72607738D01*
X165788164Y-72424785D01*
X165924173Y-72216607D01*
X166024063Y-71988881D01*
X166085108Y-71747821D01*
X166086864Y-71726630D01*
X166105643Y-71500005D01*
X166105643Y-71499994D01*
X179094357Y-71499994D01*
X179094357Y-71500005D01*
X179114890Y-71747812D01*
X179114892Y-71747824D01*
X179175936Y-71988881D01*
X179275826Y-72216606D01*
X179411833Y-72424782D01*
X179411836Y-72424785D01*
X179580256Y-72607738D01*
X179776491Y-72760474D01*
X179776493Y-72760475D01*
X179994332Y-72878364D01*
X179995190Y-72878828D01*
X180194683Y-72947314D01*
X180228964Y-72959083D01*
X180230386Y-72959571D01*
X180475665Y-73000500D01*
X180724335Y-73000500D01*
X180969614Y-72959571D01*
X181204810Y-72878828D01*
X181423509Y-72760474D01*
X181619744Y-72607738D01*
X181651733Y-72572989D01*
X181681626Y-72540517D01*
X181741513Y-72504526D01*
X181772855Y-72500500D01*
X183311880Y-72500500D01*
X183378919Y-72520185D01*
X183424674Y-72572989D01*
X183435338Y-72636077D01*
X183434848Y-72641296D01*
X184157705Y-73364153D01*
X184141058Y-73371049D01*
X184010030Y-73458599D01*
X183898599Y-73570030D01*
X183811049Y-73701058D01*
X183804153Y-73717706D01*
X183082295Y-72995848D01*
X183028600Y-73063180D01*
X182893709Y-73296818D01*
X182795148Y-73547947D01*
X182795142Y-73547966D01*
X182735113Y-73810971D01*
X182735113Y-73810973D01*
X182714953Y-74079995D01*
X182714953Y-74080004D01*
X182735113Y-74349026D01*
X182735113Y-74349028D01*
X182795142Y-74612033D01*
X182795148Y-74612052D01*
X182893709Y-74863181D01*
X182893708Y-74863181D01*
X183028602Y-75096822D01*
X183082294Y-75164151D01*
X183082295Y-75164151D01*
X183804153Y-74442293D01*
X183811049Y-74458942D01*
X183898599Y-74589970D01*
X184010030Y-74701401D01*
X184141058Y-74788951D01*
X184157705Y-74795846D01*
X183434848Y-75518702D01*
X183617483Y-75643220D01*
X183617485Y-75643221D01*
X183860539Y-75760269D01*
X183860537Y-75760269D01*
X184118337Y-75839790D01*
X184118343Y-75839792D01*
X184385101Y-75879999D01*
X184385110Y-75880000D01*
X184654890Y-75880000D01*
X184654898Y-75879999D01*
X184921656Y-75839792D01*
X184921662Y-75839790D01*
X185179461Y-75760269D01*
X185422521Y-75643218D01*
X185605150Y-75518702D01*
X184882294Y-74795846D01*
X184898942Y-74788951D01*
X185029970Y-74701401D01*
X185141401Y-74589970D01*
X185228951Y-74458942D01*
X185235846Y-74442294D01*
X185957703Y-75164151D01*
X185957704Y-75164150D01*
X186011393Y-75096828D01*
X186011400Y-75096817D01*
X186146290Y-74863181D01*
X186244851Y-74612052D01*
X186244857Y-74612033D01*
X186304886Y-74349028D01*
X186304886Y-74349026D01*
X186325047Y-74080004D01*
X186325047Y-74079995D01*
X186304886Y-73810973D01*
X186304886Y-73810971D01*
X186244857Y-73547966D01*
X186244851Y-73547947D01*
X186146290Y-73296818D01*
X186146291Y-73296818D01*
X186032961Y-73100527D01*
X186016488Y-73032627D01*
X186039340Y-72966600D01*
X186094261Y-72923410D01*
X186163815Y-72916768D01*
X186210197Y-72936071D01*
X186282296Y-72985228D01*
X186282301Y-72985230D01*
X186282302Y-72985231D01*
X186282303Y-72985232D01*
X186391251Y-73037698D01*
X186518673Y-73099061D01*
X186518674Y-73099061D01*
X186518677Y-73099063D01*
X186769385Y-73176396D01*
X187028818Y-73215500D01*
X187291182Y-73215500D01*
X187550615Y-73176396D01*
X187801323Y-73099063D01*
X187836056Y-73082336D01*
X187904994Y-73070985D01*
X187969128Y-73098706D01*
X188008094Y-73156701D01*
X188009520Y-73226556D01*
X187997243Y-73256056D01*
X187973708Y-73296820D01*
X187875148Y-73547947D01*
X187875142Y-73547966D01*
X187815113Y-73810971D01*
X187815113Y-73810973D01*
X187794953Y-74079995D01*
X187794953Y-74080004D01*
X187815113Y-74349026D01*
X187815113Y-74349028D01*
X187875142Y-74612033D01*
X187875148Y-74612052D01*
X187973709Y-74863181D01*
X187973708Y-74863181D01*
X188108602Y-75096822D01*
X188162294Y-75164151D01*
X188884152Y-74442293D01*
X188891049Y-74458942D01*
X188978599Y-74589970D01*
X189090030Y-74701401D01*
X189221058Y-74788951D01*
X189237705Y-74795846D01*
X188514848Y-75518702D01*
X188697483Y-75643220D01*
X188697485Y-75643221D01*
X188940539Y-75760269D01*
X188940537Y-75760269D01*
X189198337Y-75839790D01*
X189198343Y-75839792D01*
X189465101Y-75879999D01*
X189465110Y-75880000D01*
X189734890Y-75880000D01*
X189734898Y-75879999D01*
X190001656Y-75839792D01*
X190001662Y-75839790D01*
X190259461Y-75760269D01*
X190502521Y-75643218D01*
X190685150Y-75518702D01*
X189962294Y-74795846D01*
X189978942Y-74788951D01*
X190109970Y-74701401D01*
X190221401Y-74589970D01*
X190308951Y-74458942D01*
X190315846Y-74442294D01*
X191037703Y-75164151D01*
X191037704Y-75164150D01*
X191091393Y-75096828D01*
X191091400Y-75096817D01*
X191226290Y-74863181D01*
X191324851Y-74612052D01*
X191324857Y-74612033D01*
X191384886Y-74349028D01*
X191384886Y-74349026D01*
X191405047Y-74080004D01*
X191405047Y-74079995D01*
X191384886Y-73810973D01*
X191384886Y-73810971D01*
X191324857Y-73547966D01*
X191324851Y-73547947D01*
X191226290Y-73296818D01*
X191226291Y-73296818D01*
X191091397Y-73063177D01*
X191037704Y-72995847D01*
X190315846Y-73717705D01*
X190308951Y-73701058D01*
X190221401Y-73570030D01*
X190109970Y-73458599D01*
X189978942Y-73371049D01*
X189962293Y-73364153D01*
X190685150Y-72641296D01*
X190502517Y-72516779D01*
X190502516Y-72516778D01*
X190259460Y-72399730D01*
X190259462Y-72399730D01*
X190001662Y-72320209D01*
X190001656Y-72320207D01*
X189734898Y-72280000D01*
X189465101Y-72280000D01*
X189198343Y-72320207D01*
X189198337Y-72320209D01*
X188940544Y-72399728D01*
X188888711Y-72424690D01*
X188819769Y-72436041D01*
X188755635Y-72408318D01*
X188716670Y-72350323D01*
X188715245Y-72280468D01*
X188727522Y-72250970D01*
X188741568Y-72226643D01*
X188837420Y-71982416D01*
X188895802Y-71726630D01*
X188898547Y-71690000D01*
X188915408Y-71465004D01*
X188915408Y-71464995D01*
X188895803Y-71203379D01*
X188895802Y-71203374D01*
X188895802Y-71203370D01*
X188837420Y-70947584D01*
X188797923Y-70846949D01*
X188791755Y-70777353D01*
X188824193Y-70715470D01*
X188884938Y-70680947D01*
X188949902Y-70683157D01*
X189198337Y-70759790D01*
X189198343Y-70759792D01*
X189465101Y-70799999D01*
X189465110Y-70800000D01*
X189734890Y-70800000D01*
X189734898Y-70799999D01*
X190001656Y-70759792D01*
X190001662Y-70759790D01*
X190259461Y-70680269D01*
X190502521Y-70563218D01*
X190685150Y-70438702D01*
X189962294Y-69715846D01*
X189978942Y-69708951D01*
X190109970Y-69621401D01*
X190221401Y-69509970D01*
X190308951Y-69378942D01*
X190315846Y-69362294D01*
X191037703Y-70084151D01*
X191037704Y-70084150D01*
X191091393Y-70016828D01*
X191091400Y-70016817D01*
X191226290Y-69783181D01*
X191324851Y-69532052D01*
X191324857Y-69532033D01*
X191384886Y-69269028D01*
X191384886Y-69269026D01*
X191405047Y-69000004D01*
X191405047Y-68999995D01*
X191384886Y-68730973D01*
X191384886Y-68730971D01*
X191324857Y-68467966D01*
X191324851Y-68467947D01*
X191226290Y-68216818D01*
X191226291Y-68216818D01*
X191091397Y-67983177D01*
X191037704Y-67915847D01*
X190315846Y-68637705D01*
X190308951Y-68621058D01*
X190221401Y-68490030D01*
X190109970Y-68378599D01*
X189978942Y-68291049D01*
X189962294Y-68284153D01*
X190685150Y-67561296D01*
X190502517Y-67436779D01*
X190502516Y-67436778D01*
X190259460Y-67319730D01*
X190259462Y-67319730D01*
X190001662Y-67240209D01*
X190001656Y-67240207D01*
X189734898Y-67200000D01*
X189465101Y-67200000D01*
X189198343Y-67240207D01*
X189198337Y-67240209D01*
X188940538Y-67319730D01*
X188697485Y-67436778D01*
X188697476Y-67436783D01*
X188514848Y-67561296D01*
X189237705Y-68284153D01*
X189221058Y-68291049D01*
X189090030Y-68378599D01*
X188978599Y-68490030D01*
X188891049Y-68621058D01*
X188884153Y-68637706D01*
X188162295Y-67915848D01*
X188108600Y-67983180D01*
X187973709Y-68216818D01*
X187875148Y-68467947D01*
X187875142Y-68467966D01*
X187815113Y-68730971D01*
X187815113Y-68730973D01*
X187794953Y-68999995D01*
X187794953Y-69000004D01*
X187815113Y-69269026D01*
X187815113Y-69269028D01*
X187875142Y-69532033D01*
X187875148Y-69532052D01*
X187924706Y-69658324D01*
X187930875Y-69727921D01*
X187898437Y-69789804D01*
X187837692Y-69824327D01*
X187772729Y-69822117D01*
X187658296Y-69786819D01*
X187550623Y-69753606D01*
X187550619Y-69753605D01*
X187550615Y-69753604D01*
X187425823Y-69734794D01*
X187291187Y-69714500D01*
X187291182Y-69714500D01*
X187028818Y-69714500D01*
X187028812Y-69714500D01*
X186867247Y-69738853D01*
X186769385Y-69753604D01*
X186769382Y-69753605D01*
X186769376Y-69753606D01*
X186518673Y-69830938D01*
X186321052Y-69926107D01*
X186252111Y-69937459D01*
X186187976Y-69909736D01*
X186149011Y-69851741D01*
X186147586Y-69781886D01*
X186151823Y-69769085D01*
X186244851Y-69532052D01*
X186244857Y-69532033D01*
X186304886Y-69269028D01*
X186304886Y-69269026D01*
X186325047Y-69000004D01*
X186325047Y-68999995D01*
X186304886Y-68730973D01*
X186304886Y-68730971D01*
X186244857Y-68467966D01*
X186244851Y-68467947D01*
X186146290Y-68216818D01*
X186146291Y-68216818D01*
X186011397Y-67983177D01*
X185957704Y-67915847D01*
X185235846Y-68637705D01*
X185228951Y-68621058D01*
X185141401Y-68490030D01*
X185029970Y-68378599D01*
X184898942Y-68291049D01*
X184882294Y-68284153D01*
X185605150Y-67561296D01*
X185422517Y-67436779D01*
X185422516Y-67436778D01*
X185179460Y-67319730D01*
X185179462Y-67319730D01*
X184921662Y-67240209D01*
X184921656Y-67240207D01*
X184654898Y-67200000D01*
X184385101Y-67200000D01*
X184118343Y-67240207D01*
X184118337Y-67240209D01*
X183860538Y-67319730D01*
X183617485Y-67436778D01*
X183617476Y-67436783D01*
X183434848Y-67561296D01*
X184157705Y-68284153D01*
X184141058Y-68291049D01*
X184010030Y-68378599D01*
X183898599Y-68490030D01*
X183811049Y-68621058D01*
X183804153Y-68637706D01*
X183082295Y-67915848D01*
X183028600Y-67983180D01*
X182893709Y-68216818D01*
X182795148Y-68467947D01*
X182795142Y-68467966D01*
X182735113Y-68730971D01*
X182735113Y-68730973D01*
X182714953Y-68999995D01*
X182714953Y-69000004D01*
X182735113Y-69269026D01*
X182735113Y-69269028D01*
X182795142Y-69532033D01*
X182795148Y-69532052D01*
X182893709Y-69783181D01*
X182893708Y-69783181D01*
X183028602Y-70016822D01*
X183082294Y-70084151D01*
X183082295Y-70084151D01*
X183804153Y-69362293D01*
X183811049Y-69378942D01*
X183898599Y-69509970D01*
X184010030Y-69621401D01*
X184141058Y-69708951D01*
X184157705Y-69715846D01*
X183410370Y-70463181D01*
X183349047Y-70496666D01*
X183322689Y-70499500D01*
X181772855Y-70499500D01*
X181705816Y-70479815D01*
X181681626Y-70459483D01*
X181619747Y-70392265D01*
X181619744Y-70392262D01*
X181579031Y-70360574D01*
X181423509Y-70239526D01*
X181423507Y-70239525D01*
X181423506Y-70239524D01*
X181204811Y-70121172D01*
X181204802Y-70121169D01*
X180969616Y-70040429D01*
X180724335Y-69999500D01*
X180475665Y-69999500D01*
X180230383Y-70040429D01*
X179995197Y-70121169D01*
X179995188Y-70121172D01*
X179776493Y-70239524D01*
X179580257Y-70392261D01*
X179411833Y-70575217D01*
X179275826Y-70783393D01*
X179175936Y-71011118D01*
X179114892Y-71252175D01*
X179114890Y-71252187D01*
X179094357Y-71499994D01*
X166105643Y-71499994D01*
X166085109Y-71252187D01*
X166085107Y-71252175D01*
X166024063Y-71011118D01*
X165924173Y-70783393D01*
X165788166Y-70575217D01*
X165747987Y-70531571D01*
X165619744Y-70392262D01*
X165423509Y-70239526D01*
X165423507Y-70239525D01*
X165423506Y-70239524D01*
X165204811Y-70121172D01*
X165204802Y-70121169D01*
X164969616Y-70040429D01*
X164724335Y-69999500D01*
X164475665Y-69999500D01*
X164230383Y-70040429D01*
X163995197Y-70121169D01*
X163995188Y-70121172D01*
X163776493Y-70239524D01*
X163580255Y-70392262D01*
X163580252Y-70392265D01*
X163518374Y-70459483D01*
X163458487Y-70495474D01*
X163427145Y-70499500D01*
X163315783Y-70499500D01*
X163248744Y-70479815D01*
X163228102Y-70463181D01*
X163186818Y-70421897D01*
X163153333Y-70360574D01*
X163150499Y-70334216D01*
X163150499Y-68841971D01*
X163150499Y-68841964D01*
X163139886Y-68722582D01*
X163093478Y-68560393D01*
X163083910Y-68526954D01*
X163083909Y-68526953D01*
X163083909Y-68526951D01*
X162989698Y-68346593D01*
X162895235Y-68230743D01*
X162861109Y-68188890D01*
X162712000Y-68067309D01*
X162703407Y-68060302D01*
X162523049Y-67966091D01*
X162523048Y-67966090D01*
X162523045Y-67966089D01*
X162405829Y-67932550D01*
X162327418Y-67910114D01*
X162327415Y-67910113D01*
X162327413Y-67910113D01*
X162261102Y-67904217D01*
X162208037Y-67899500D01*
X162208032Y-67899500D01*
X161091971Y-67899500D01*
X161091965Y-67899500D01*
X161091964Y-67899501D01*
X161080316Y-67900536D01*
X160972584Y-67910113D01*
X160776954Y-67966089D01*
X160686772Y-68013196D01*
X160596593Y-68060302D01*
X160596591Y-68060303D01*
X160596590Y-68060304D01*
X160438890Y-68188890D01*
X160310304Y-68346590D01*
X160310302Y-68346593D01*
X160287628Y-68390000D01*
X160216089Y-68526954D01*
X160173733Y-68674986D01*
X160166041Y-68701870D01*
X160160114Y-68722583D01*
X160160113Y-68722586D01*
X160149500Y-68841966D01*
X160149500Y-71758028D01*
X160149501Y-71758034D01*
X160160113Y-71877415D01*
X160216089Y-72073045D01*
X160216090Y-72073048D01*
X160216091Y-72073049D01*
X160310302Y-72253407D01*
X160310304Y-72253409D01*
X160438890Y-72411109D01*
X160491317Y-72453857D01*
X160596593Y-72539698D01*
X160698183Y-72592764D01*
X160748489Y-72641250D01*
X160764596Y-72709238D01*
X160750129Y-72761123D01*
X160721186Y-72815273D01*
X160701906Y-72878830D01*
X160663975Y-73003870D01*
X160644659Y-73200000D01*
X160663975Y-73396129D01*
X160663976Y-73396132D01*
X160708933Y-73544336D01*
X160721188Y-73584733D01*
X160814086Y-73758532D01*
X160814090Y-73758539D01*
X160939116Y-73910883D01*
X161091460Y-74035909D01*
X161091467Y-74035913D01*
X161265266Y-74128811D01*
X161265269Y-74128811D01*
X161265273Y-74128814D01*
X161453868Y-74186024D01*
X161650000Y-74205341D01*
X161846132Y-74186024D01*
X162034727Y-74128814D01*
X162088820Y-74099901D01*
X162208532Y-74035913D01*
X162208538Y-74035910D01*
X162360883Y-73910883D01*
X162485910Y-73758538D01*
X162550339Y-73638000D01*
X162578811Y-73584733D01*
X162578811Y-73584732D01*
X162578814Y-73584727D01*
X162636024Y-73396132D01*
X162655341Y-73200000D01*
X162636024Y-73003868D01*
X162578814Y-72815273D01*
X162549870Y-72761124D01*
X162535629Y-72692722D01*
X162560629Y-72627478D01*
X162601815Y-72592764D01*
X162703407Y-72539698D01*
X162717266Y-72528397D01*
X162781661Y-72501289D01*
X162795626Y-72500500D01*
X162948540Y-72500500D01*
X163427145Y-72500500D01*
X163494184Y-72520185D01*
X163518374Y-72540517D01*
X163580252Y-72607734D01*
X163580256Y-72607738D01*
X163776491Y-72760474D01*
X163776493Y-72760475D01*
X163994332Y-72878364D01*
X163995190Y-72878828D01*
X164005682Y-72882430D01*
X164006524Y-72882719D01*
X164063539Y-72923106D01*
X164089668Y-72987906D01*
X164076615Y-73056546D01*
X164028526Y-73107233D01*
X164006524Y-73117281D01*
X163995191Y-73121171D01*
X163995188Y-73121172D01*
X163776493Y-73239524D01*
X163580257Y-73392261D01*
X163411833Y-73575217D01*
X163275826Y-73783393D01*
X163175936Y-74011118D01*
X163114892Y-74252175D01*
X163114890Y-74252187D01*
X163094357Y-74499994D01*
X163094357Y-74500005D01*
X163114890Y-74747812D01*
X163114892Y-74747824D01*
X163175936Y-74988881D01*
X163275826Y-75216606D01*
X163411833Y-75424782D01*
X163411836Y-75424785D01*
X163580256Y-75607738D01*
X163776491Y-75760474D01*
X163885840Y-75819651D01*
X163994332Y-75878364D01*
X163995190Y-75878828D01*
X164005682Y-75882430D01*
X164006524Y-75882719D01*
X164063539Y-75923106D01*
X164089668Y-75987906D01*
X164076615Y-76056546D01*
X164028526Y-76107233D01*
X164006524Y-76117281D01*
X163995191Y-76121171D01*
X163995188Y-76121172D01*
X163776493Y-76239524D01*
X163580255Y-76392262D01*
X163580252Y-76392265D01*
X163518374Y-76459483D01*
X163458487Y-76495474D01*
X163427145Y-76499500D01*
X162905766Y-76499500D01*
X162838727Y-76479815D01*
X162827411Y-76471606D01*
X162690907Y-76360302D01*
X162510549Y-76266091D01*
X162510548Y-76266090D01*
X162510545Y-76266089D01*
X162393329Y-76232550D01*
X162314918Y-76210114D01*
X162314915Y-76210113D01*
X162314913Y-76210113D01*
X162248602Y-76204217D01*
X162195537Y-76199500D01*
X162195532Y-76199500D01*
X161079471Y-76199500D01*
X161079465Y-76199500D01*
X161079464Y-76199501D01*
X161067816Y-76200536D01*
X160960084Y-76210113D01*
X160764454Y-76266089D01*
X160674272Y-76313196D01*
X160584093Y-76360302D01*
X160584091Y-76360303D01*
X160584090Y-76360304D01*
X160426390Y-76488890D01*
X160297804Y-76646590D01*
X160203589Y-76826954D01*
X160181888Y-76902799D01*
X160147730Y-77022179D01*
X160147614Y-77022583D01*
X160147613Y-77022586D01*
X160137000Y-77141966D01*
X160137000Y-80058028D01*
X160137001Y-80058034D01*
X160147613Y-80177415D01*
X160203589Y-80373045D01*
X160203590Y-80373048D01*
X160203591Y-80373049D01*
X160297802Y-80553407D01*
X160310235Y-80568655D01*
X160426390Y-80711109D01*
X160523142Y-80789999D01*
X160584093Y-80839698D01*
X160664791Y-80881851D01*
X160715096Y-80930335D01*
X160731204Y-80998323D01*
X160716738Y-81050208D01*
X160708687Y-81065270D01*
X160651475Y-81253870D01*
X160632159Y-81450000D01*
X160651475Y-81646129D01*
X160708688Y-81834733D01*
X160801586Y-82008532D01*
X160801590Y-82008539D01*
X160926616Y-82160883D01*
X161078960Y-82285909D01*
X161078967Y-82285913D01*
X161252766Y-82378811D01*
X161252769Y-82378811D01*
X161252773Y-82378814D01*
X161441368Y-82436024D01*
X161637500Y-82455341D01*
X161833632Y-82436024D01*
X162022227Y-82378814D01*
X162196038Y-82285910D01*
X162348383Y-82160883D01*
X162473410Y-82008538D01*
X162566314Y-81834727D01*
X162623524Y-81646132D01*
X162642841Y-81450000D01*
X162623524Y-81253868D01*
X162566314Y-81065273D01*
X162558263Y-81050210D01*
X162544022Y-80981807D01*
X162569023Y-80916564D01*
X162610207Y-80881851D01*
X162690907Y-80839698D01*
X162848609Y-80711109D01*
X162977198Y-80553407D01*
X163071409Y-80373049D01*
X163127386Y-80177418D01*
X163138000Y-80058037D01*
X163137999Y-78624499D01*
X163157684Y-78557461D01*
X163210487Y-78511706D01*
X163261999Y-78500500D01*
X163427145Y-78500500D01*
X163494184Y-78520185D01*
X163518374Y-78540517D01*
X163574984Y-78602011D01*
X163580256Y-78607738D01*
X163776491Y-78760474D01*
X163776493Y-78760475D01*
X163994332Y-78878364D01*
X163995190Y-78878828D01*
X164214141Y-78953994D01*
X164228964Y-78959083D01*
X164230386Y-78959571D01*
X164475665Y-79000500D01*
X164724335Y-79000500D01*
X164969614Y-78959571D01*
X165204810Y-78878828D01*
X165423509Y-78760474D01*
X165619744Y-78607738D01*
X165788164Y-78424785D01*
X165924173Y-78216607D01*
X166024063Y-77988881D01*
X166085108Y-77747821D01*
X166086456Y-77731559D01*
X166105643Y-77500005D01*
X166105643Y-77499994D01*
X166094457Y-77365002D01*
X166108538Y-77296566D01*
X166157383Y-77246607D01*
X166225484Y-77230986D01*
X166291219Y-77254663D01*
X166305714Y-77267081D01*
X167513181Y-78474548D01*
X167546666Y-78535871D01*
X167549500Y-78562229D01*
X167549500Y-83237769D01*
X167529815Y-83304808D01*
X167513181Y-83325450D01*
X159467052Y-91371578D01*
X159467049Y-91371581D01*
X159434067Y-91420942D01*
X159434068Y-91420943D01*
X159384914Y-91494508D01*
X159328343Y-91631082D01*
X159328340Y-91631092D01*
X159299500Y-91776079D01*
X159299500Y-93530170D01*
X159294576Y-93564765D01*
X159252402Y-93709926D01*
X159252401Y-93709932D01*
X159249500Y-93746798D01*
X159249500Y-94903201D01*
X159252401Y-94940067D01*
X159252402Y-94940073D01*
X159298254Y-95097893D01*
X159298255Y-95097896D01*
X159298256Y-95097898D01*
X159305274Y-95109764D01*
X159385890Y-95246080D01*
X159384071Y-95247155D01*
X159405619Y-95302032D01*
X159391941Y-95370550D01*
X159343391Y-95420796D01*
X159282105Y-95437000D01*
X158884298Y-95437000D01*
X158847432Y-95439901D01*
X158847426Y-95439902D01*
X158689606Y-95485754D01*
X158689603Y-95485755D01*
X158548137Y-95569417D01*
X158548129Y-95569423D01*
X158431923Y-95685629D01*
X158431917Y-95685637D01*
X158348256Y-95827100D01*
X158348254Y-95827107D01*
X158331407Y-95885095D01*
X158293801Y-95943981D01*
X158230328Y-95973187D01*
X158212331Y-95974500D01*
X156808309Y-95974500D01*
X156741270Y-95954815D01*
X156720628Y-95938181D01*
X156714370Y-95931923D01*
X156714362Y-95931917D01*
X156572896Y-95848255D01*
X156572893Y-95848254D01*
X156415073Y-95802402D01*
X156415067Y-95802401D01*
X156378201Y-95799500D01*
X156378194Y-95799500D01*
X155221806Y-95799500D01*
X155221798Y-95799500D01*
X155184932Y-95802401D01*
X155184926Y-95802402D01*
X155027106Y-95848254D01*
X155027103Y-95848255D01*
X154878920Y-95935890D01*
X154877845Y-95934073D01*
X154822948Y-95955620D01*
X154754432Y-95941931D01*
X154704194Y-95893373D01*
X154688000Y-95832104D01*
X154688000Y-95434313D01*
X154687999Y-95434298D01*
X154686566Y-95416093D01*
X154685098Y-95397431D01*
X154677288Y-95370550D01*
X154639245Y-95239606D01*
X154639244Y-95239603D01*
X154639244Y-95239602D01*
X154555581Y-95098135D01*
X154555579Y-95098133D01*
X154555576Y-95098129D01*
X154439370Y-94981923D01*
X154439362Y-94981917D01*
X154343088Y-94924981D01*
X154297898Y-94898256D01*
X154297897Y-94898255D01*
X154297896Y-94898255D01*
X154297893Y-94898254D01*
X154140073Y-94852402D01*
X154140067Y-94852401D01*
X154103201Y-94849500D01*
X154103194Y-94849500D01*
X152946806Y-94849500D01*
X152946798Y-94849500D01*
X152909932Y-94852401D01*
X152909926Y-94852402D01*
X152752106Y-94898254D01*
X152752103Y-94898255D01*
X152702320Y-94927697D01*
X152659882Y-94952795D01*
X152652379Y-94957232D01*
X152589258Y-94974500D01*
X151805035Y-94974500D01*
X151737996Y-94954815D01*
X151692241Y-94902011D01*
X151681677Y-94863102D01*
X151680287Y-94849500D01*
X151677499Y-94822203D01*
X151622314Y-94655666D01*
X151530212Y-94506344D01*
X151406156Y-94382288D01*
X151256834Y-94290186D01*
X151090297Y-94235001D01*
X151090295Y-94235000D01*
X150987510Y-94224500D01*
X150262498Y-94224500D01*
X150262480Y-94224501D01*
X150159703Y-94235000D01*
X150159700Y-94235001D01*
X149993168Y-94290185D01*
X149993163Y-94290187D01*
X149843842Y-94382289D01*
X149719789Y-94506342D01*
X149627687Y-94655663D01*
X149627686Y-94655666D01*
X149572501Y-94822203D01*
X149572501Y-94822204D01*
X149572500Y-94822204D01*
X149562000Y-94924983D01*
X149562000Y-96275001D01*
X149562001Y-96275018D01*
X149572500Y-96377796D01*
X149572501Y-96377799D01*
X149596592Y-96450499D01*
X149627686Y-96544334D01*
X149719788Y-96693656D01*
X149843844Y-96817712D01*
X149993166Y-96909814D01*
X150159703Y-96964999D01*
X150262491Y-96975500D01*
X150987508Y-96975499D01*
X150987516Y-96975498D01*
X150987519Y-96975498D01*
X151043802Y-96969748D01*
X151090297Y-96964999D01*
X151256834Y-96909814D01*
X151406156Y-96817712D01*
X151530212Y-96693656D01*
X151622314Y-96544334D01*
X151677499Y-96377797D01*
X151681677Y-96336896D01*
X151708073Y-96272207D01*
X151765253Y-96232055D01*
X151805035Y-96225500D01*
X152466692Y-96225500D01*
X152533731Y-96245185D01*
X152554368Y-96261814D01*
X152610635Y-96318081D01*
X152752102Y-96401744D01*
X152793724Y-96413836D01*
X152909926Y-96447597D01*
X152909929Y-96447597D01*
X152909931Y-96447598D01*
X152946806Y-96450500D01*
X152946814Y-96450500D01*
X154103186Y-96450500D01*
X154103194Y-96450500D01*
X154140069Y-96447598D01*
X154140071Y-96447597D01*
X154140073Y-96447597D01*
X154242306Y-96417895D01*
X154297898Y-96401744D01*
X154422548Y-96328026D01*
X154446080Y-96314110D01*
X154447155Y-96315928D01*
X154502032Y-96294381D01*
X154570550Y-96308059D01*
X154620796Y-96356609D01*
X154637000Y-96417895D01*
X154637000Y-96782742D01*
X154617315Y-96849781D01*
X154564511Y-96895536D01*
X154495353Y-96905480D01*
X154446642Y-96884814D01*
X154445771Y-96886288D01*
X154297696Y-96798717D01*
X154297693Y-96798716D01*
X154139995Y-96752900D01*
X154139989Y-96752899D01*
X154103149Y-96750000D01*
X153775000Y-96750000D01*
X153775000Y-97300000D01*
X154684794Y-97300000D01*
X154709057Y-97273752D01*
X154769018Y-97237885D01*
X154838852Y-97240129D01*
X154878512Y-97264530D01*
X154879469Y-97263298D01*
X154885632Y-97268078D01*
X154885635Y-97268081D01*
X155027102Y-97351744D01*
X155056321Y-97360233D01*
X155184926Y-97397597D01*
X155184929Y-97397597D01*
X155184931Y-97397598D01*
X155221806Y-97400500D01*
X155221814Y-97400500D01*
X156378186Y-97400500D01*
X156378194Y-97400500D01*
X156415069Y-97397598D01*
X156415071Y-97397597D01*
X156415073Y-97397597D01*
X156456691Y-97385505D01*
X156572898Y-97351744D01*
X156714365Y-97268081D01*
X156714370Y-97268076D01*
X156720628Y-97261819D01*
X156781951Y-97228334D01*
X156808309Y-97225500D01*
X157288000Y-97225500D01*
X157355039Y-97245185D01*
X157400794Y-97297989D01*
X157412000Y-97349500D01*
X157412000Y-98217072D01*
X157392315Y-98284111D01*
X157353098Y-98322609D01*
X157293555Y-98359336D01*
X157256342Y-98382289D01*
X157132289Y-98506342D01*
X157040187Y-98655663D01*
X157040185Y-98655668D01*
X157028809Y-98690000D01*
X156985001Y-98822203D01*
X156985001Y-98822204D01*
X156985000Y-98822204D01*
X156974500Y-98924983D01*
X156974500Y-100275001D01*
X156974501Y-100275018D01*
X156985000Y-100377796D01*
X156985001Y-100377799D01*
X157040185Y-100544331D01*
X157040187Y-100544336D01*
X157049453Y-100559358D01*
X157132288Y-100693656D01*
X157256344Y-100817712D01*
X157405666Y-100909814D01*
X157572203Y-100964999D01*
X157674991Y-100975500D01*
X158400008Y-100975499D01*
X158400016Y-100975498D01*
X158400019Y-100975498D01*
X158456302Y-100969748D01*
X158502797Y-100964999D01*
X158669334Y-100909814D01*
X158818656Y-100817712D01*
X158942712Y-100693656D01*
X159019659Y-100568903D01*
X159071607Y-100522179D01*
X159125198Y-100510000D01*
X159838000Y-100510000D01*
X159905039Y-100529685D01*
X159950794Y-100582489D01*
X159962000Y-100634000D01*
X159962000Y-100771717D01*
X159942315Y-100838756D01*
X159925681Y-100859398D01*
X157585647Y-103199433D01*
X157524324Y-103232918D01*
X157497966Y-103235752D01*
X144064499Y-103235752D01*
X143997460Y-103216067D01*
X143951705Y-103163263D01*
X143940499Y-103111752D01*
X143940499Y-102686250D01*
X143940498Y-102686233D01*
X143929999Y-102583455D01*
X143929998Y-102583452D01*
X143919390Y-102551439D01*
X143874814Y-102416918D01*
X143782712Y-102267596D01*
X143658656Y-102143540D01*
X143509334Y-102051438D01*
X143509333Y-102051437D01*
X143509332Y-102051437D01*
X143485493Y-102043537D01*
X143428049Y-102003763D01*
X143401228Y-101939246D01*
X143400500Y-101925832D01*
X143400500Y-98186867D01*
X143420185Y-98119828D01*
X143439386Y-98098656D01*
X143438549Y-98097819D01*
X143444053Y-98092315D01*
X143567712Y-97968656D01*
X143659814Y-97819334D01*
X143666220Y-97800001D01*
X152365204Y-97800001D01*
X152365399Y-97802486D01*
X152411218Y-97960198D01*
X152494814Y-98101552D01*
X152494821Y-98101561D01*
X152610938Y-98217678D01*
X152610947Y-98217685D01*
X152752303Y-98301282D01*
X152752306Y-98301283D01*
X152910004Y-98347099D01*
X152910010Y-98347100D01*
X152946850Y-98349999D01*
X152946866Y-98350000D01*
X153275000Y-98350000D01*
X153775000Y-98350000D01*
X154103134Y-98350000D01*
X154103149Y-98349999D01*
X154139989Y-98347100D01*
X154139995Y-98347099D01*
X154297693Y-98301283D01*
X154297696Y-98301282D01*
X154439052Y-98217685D01*
X154439061Y-98217678D01*
X154555178Y-98101561D01*
X154555185Y-98101552D01*
X154638781Y-97960198D01*
X154684600Y-97802486D01*
X154684795Y-97800001D01*
X154684795Y-97800000D01*
X153775000Y-97800000D01*
X153775000Y-98350000D01*
X153275000Y-98350000D01*
X153275000Y-97800000D01*
X152365205Y-97800000D01*
X152365204Y-97800001D01*
X143666220Y-97800001D01*
X143714999Y-97652797D01*
X143725500Y-97550009D01*
X143725500Y-97299998D01*
X152365204Y-97299998D01*
X152365205Y-97300000D01*
X153275000Y-97300000D01*
X153275000Y-96750000D01*
X152946850Y-96750000D01*
X152910010Y-96752899D01*
X152910004Y-96752900D01*
X152752306Y-96798716D01*
X152752303Y-96798717D01*
X152610947Y-96882314D01*
X152610938Y-96882321D01*
X152494821Y-96998438D01*
X152494814Y-96998447D01*
X152411218Y-97139801D01*
X152365399Y-97297513D01*
X152365204Y-97299998D01*
X143725500Y-97299998D01*
X143725499Y-96149992D01*
X143714999Y-96047203D01*
X143659814Y-95880666D01*
X143567712Y-95731344D01*
X143443656Y-95607288D01*
X143438549Y-95602181D01*
X143440435Y-95600294D01*
X143407212Y-95553375D01*
X143400500Y-95513132D01*
X143400500Y-94994828D01*
X143405424Y-94960233D01*
X143447597Y-94815073D01*
X143447598Y-94815067D01*
X143447668Y-94814176D01*
X143450500Y-94778194D01*
X143450500Y-94074000D01*
X143470185Y-94006961D01*
X143522989Y-93961206D01*
X143574500Y-93950000D01*
X143625500Y-93950000D01*
X143692539Y-93969685D01*
X143738294Y-94022489D01*
X143749500Y-94074000D01*
X143749500Y-94778201D01*
X143752401Y-94815067D01*
X143752402Y-94815073D01*
X143798254Y-94972893D01*
X143798255Y-94972896D01*
X143798256Y-94972898D01*
X143832732Y-95031194D01*
X143850000Y-95094314D01*
X143850000Y-95359795D01*
X143850001Y-95359795D01*
X143852486Y-95359600D01*
X144010197Y-95313781D01*
X144011382Y-95313081D01*
X144012436Y-95312813D01*
X144017357Y-95310684D01*
X144017700Y-95311477D01*
X144079105Y-95295895D01*
X144132289Y-95311508D01*
X144132446Y-95311147D01*
X144135371Y-95312413D01*
X144137624Y-95313074D01*
X144139602Y-95314244D01*
X144139604Y-95314244D01*
X144139605Y-95314245D01*
X144297426Y-95360097D01*
X144297429Y-95360097D01*
X144297431Y-95360098D01*
X144334306Y-95363000D01*
X144334314Y-95363000D01*
X144765686Y-95363000D01*
X144765694Y-95363000D01*
X144799622Y-95360329D01*
X144867996Y-95374692D01*
X144897031Y-95396266D01*
X145465139Y-95964374D01*
X145465149Y-95964385D01*
X145469479Y-95968715D01*
X145469480Y-95968716D01*
X145581284Y-96080520D01*
X145652410Y-96121584D01*
X145718215Y-96159577D01*
X145870943Y-96200501D01*
X145870946Y-96200501D01*
X146036653Y-96200501D01*
X146036669Y-96200500D01*
X146517411Y-96200500D01*
X146584450Y-96220185D01*
X146630205Y-96272989D01*
X146640769Y-96311898D01*
X146647501Y-96377797D01*
X146647501Y-96377799D01*
X146671592Y-96450499D01*
X146702686Y-96544334D01*
X146794788Y-96693656D01*
X146918844Y-96817712D01*
X147068166Y-96909814D01*
X147234703Y-96964999D01*
X147337491Y-96975500D01*
X148062508Y-96975499D01*
X148062516Y-96975498D01*
X148062519Y-96975498D01*
X148118802Y-96969748D01*
X148165297Y-96964999D01*
X148331834Y-96909814D01*
X148481156Y-96817712D01*
X148605212Y-96693656D01*
X148697314Y-96544334D01*
X148752499Y-96377797D01*
X148763000Y-96275009D01*
X148762999Y-94924992D01*
X148760771Y-94903186D01*
X148752499Y-94822203D01*
X148752498Y-94822200D01*
X148716147Y-94712500D01*
X148697314Y-94655666D01*
X148605212Y-94506344D01*
X148481156Y-94382288D01*
X148331834Y-94290186D01*
X148165297Y-94235001D01*
X148165295Y-94235000D01*
X148062510Y-94224500D01*
X147337498Y-94224500D01*
X147337480Y-94224501D01*
X147234703Y-94235000D01*
X147234700Y-94235001D01*
X147068168Y-94290185D01*
X147068163Y-94290187D01*
X146918842Y-94382289D01*
X146794789Y-94506342D01*
X146702687Y-94655663D01*
X146702686Y-94655666D01*
X146647502Y-94822202D01*
X146647501Y-94822204D01*
X146647500Y-94822205D01*
X146640768Y-94888103D01*
X146614371Y-94952795D01*
X146557190Y-94992946D01*
X146517410Y-94999500D01*
X146250097Y-94999500D01*
X146183058Y-94979815D01*
X146162416Y-94963181D01*
X145386819Y-94187584D01*
X145353334Y-94126261D01*
X145350500Y-94099903D01*
X145350500Y-93621813D01*
X145350499Y-93621798D01*
X145350177Y-93617712D01*
X145347598Y-93584931D01*
X145346316Y-93580520D01*
X145301745Y-93427106D01*
X145301744Y-93427103D01*
X145301744Y-93427102D01*
X145218081Y-93285635D01*
X145218079Y-93285633D01*
X145218076Y-93285629D01*
X145101870Y-93169423D01*
X145101867Y-93169421D01*
X145101865Y-93169419D01*
X145101549Y-93169232D01*
X145101353Y-93169022D01*
X145095702Y-93164639D01*
X145096409Y-93163727D01*
X145053866Y-93118164D01*
X145041362Y-93049423D01*
X145068006Y-92984833D01*
X145095921Y-92960644D01*
X145095702Y-92960361D01*
X145100911Y-92956320D01*
X145101550Y-92955767D01*
X145101865Y-92955581D01*
X145218081Y-92839365D01*
X145301744Y-92697898D01*
X145342342Y-92558159D01*
X145347597Y-92540073D01*
X145347598Y-92540067D01*
X145350500Y-92503194D01*
X145350500Y-91346806D01*
X145347598Y-91309931D01*
X145346555Y-91306342D01*
X145301745Y-91152106D01*
X145301744Y-91152103D01*
X145301744Y-91152102D01*
X145218081Y-91010635D01*
X145218079Y-91010633D01*
X145218076Y-91010629D01*
X145101870Y-90894423D01*
X145101862Y-90894417D01*
X144960396Y-90810755D01*
X144960393Y-90810754D01*
X144802573Y-90764902D01*
X144802567Y-90764901D01*
X144765701Y-90762000D01*
X144765694Y-90762000D01*
X144334306Y-90762000D01*
X144334298Y-90762000D01*
X144297432Y-90764901D01*
X144297426Y-90764902D01*
X144139606Y-90810754D01*
X144139603Y-90810755D01*
X143998137Y-90894417D01*
X143998129Y-90894423D01*
X143881923Y-91010629D01*
X143881917Y-91010637D01*
X143798255Y-91152103D01*
X143798254Y-91152106D01*
X143752402Y-91309926D01*
X143752401Y-91309932D01*
X143749500Y-91346798D01*
X143749500Y-92375500D01*
X143729815Y-92442539D01*
X143677011Y-92488294D01*
X143625500Y-92499500D01*
X143574500Y-92499500D01*
X143507461Y-92479815D01*
X143461706Y-92427011D01*
X143450500Y-92375500D01*
X143450500Y-91346813D01*
X143450499Y-91346798D01*
X143447598Y-91309932D01*
X143447597Y-91309926D01*
X143405424Y-91164765D01*
X143400500Y-91130170D01*
X143400500Y-90436867D01*
X143420185Y-90369828D01*
X143439386Y-90348656D01*
X143438549Y-90347819D01*
X143493658Y-90292710D01*
X143567712Y-90218656D01*
X143659814Y-90069334D01*
X143714999Y-89902797D01*
X143724286Y-89811897D01*
X143750683Y-89747205D01*
X143807864Y-89707054D01*
X143847644Y-89700500D01*
X148125969Y-89700500D01*
X148193008Y-89720185D01*
X148227544Y-89753377D01*
X148321472Y-89887521D01*
X148472478Y-90038527D01*
X148472481Y-90038529D01*
X148647419Y-90161021D01*
X148647421Y-90161022D01*
X148647420Y-90161022D01*
X148711936Y-90191106D01*
X148840970Y-90251276D01*
X148840976Y-90251277D01*
X148840977Y-90251278D01*
X148890627Y-90264581D01*
X149047253Y-90306549D01*
X149199215Y-90319844D01*
X149259998Y-90325162D01*
X149260000Y-90325162D01*
X149260002Y-90325162D01*
X149313186Y-90320508D01*
X149472747Y-90306549D01*
X149679030Y-90251276D01*
X149872581Y-90161021D01*
X150047519Y-90038529D01*
X150198529Y-89887519D01*
X150321021Y-89712581D01*
X150411276Y-89519030D01*
X150411280Y-89519013D01*
X150413130Y-89513936D01*
X150415253Y-89514709D01*
X150446576Y-89463305D01*
X150509419Y-89432766D01*
X150578796Y-89441050D01*
X150632680Y-89485528D01*
X150645827Y-89514315D01*
X150646870Y-89513936D01*
X150648722Y-89519023D01*
X150648724Y-89519030D01*
X150663165Y-89549998D01*
X150738977Y-89712578D01*
X150861472Y-89887521D01*
X151012478Y-90038527D01*
X151012481Y-90038529D01*
X151187419Y-90161021D01*
X151187421Y-90161022D01*
X151187420Y-90161022D01*
X151251936Y-90191106D01*
X151380970Y-90251276D01*
X151380976Y-90251277D01*
X151380977Y-90251278D01*
X151430627Y-90264581D01*
X151587253Y-90306549D01*
X151739215Y-90319844D01*
X151799998Y-90325162D01*
X151800000Y-90325162D01*
X151800002Y-90325162D01*
X151853186Y-90320508D01*
X152012747Y-90306549D01*
X152219030Y-90251276D01*
X152412581Y-90161021D01*
X152587519Y-90038529D01*
X152738529Y-89887519D01*
X152861021Y-89712581D01*
X152951276Y-89519030D01*
X152951280Y-89519013D01*
X152953130Y-89513936D01*
X152954981Y-89514609D01*
X152986847Y-89462328D01*
X153049694Y-89431797D01*
X153119069Y-89440091D01*
X153172948Y-89484575D01*
X153186430Y-89514095D01*
X153187342Y-89513764D01*
X153189197Y-89518859D01*
X153279413Y-89712329D01*
X153318415Y-89768030D01*
X153940000Y-89146445D01*
X153940000Y-89152661D01*
X153967259Y-89254394D01*
X154019920Y-89345606D01*
X154094394Y-89420080D01*
X154185606Y-89472741D01*
X154287339Y-89500000D01*
X154293553Y-89500000D01*
X153671968Y-90121584D01*
X153727663Y-90160582D01*
X153727669Y-90160586D01*
X153921140Y-90250802D01*
X153921146Y-90250805D01*
X154127337Y-90306054D01*
X154127345Y-90306055D01*
X154339998Y-90324660D01*
X154340002Y-90324660D01*
X154552654Y-90306055D01*
X154552662Y-90306054D01*
X154758853Y-90250805D01*
X154758864Y-90250801D01*
X154952325Y-90160589D01*
X155008030Y-90121583D01*
X154386448Y-89500000D01*
X154392661Y-89500000D01*
X154494394Y-89472741D01*
X154585606Y-89420080D01*
X154660080Y-89345606D01*
X154712741Y-89254394D01*
X154740000Y-89152661D01*
X154740000Y-89146446D01*
X155361583Y-89768029D01*
X155400589Y-89712325D01*
X155490801Y-89518864D01*
X155490805Y-89518853D01*
X155546054Y-89312662D01*
X155546055Y-89312654D01*
X155564660Y-89100002D01*
X155564660Y-89099997D01*
X155546055Y-88887345D01*
X155546054Y-88887337D01*
X155490805Y-88681146D01*
X155490802Y-88681140D01*
X155400586Y-88487669D01*
X155400582Y-88487663D01*
X155361584Y-88431968D01*
X154740000Y-89053552D01*
X154740000Y-89047339D01*
X154712741Y-88945606D01*
X154660080Y-88854394D01*
X154585606Y-88779920D01*
X154494394Y-88727259D01*
X154392661Y-88700000D01*
X154386447Y-88700000D01*
X155008030Y-88078415D01*
X154952329Y-88039413D01*
X154758859Y-87949197D01*
X154758853Y-87949194D01*
X154552662Y-87893945D01*
X154552654Y-87893944D01*
X154340002Y-87875340D01*
X154339998Y-87875340D01*
X154127345Y-87893944D01*
X154127337Y-87893945D01*
X153921146Y-87949194D01*
X153921140Y-87949197D01*
X153727671Y-88039412D01*
X153727669Y-88039413D01*
X153671969Y-88078415D01*
X153671968Y-88078415D01*
X154293554Y-88700000D01*
X154287339Y-88700000D01*
X154185606Y-88727259D01*
X154094394Y-88779920D01*
X154019920Y-88854394D01*
X153967259Y-88945606D01*
X153940000Y-89047339D01*
X153940000Y-89053553D01*
X153318415Y-88431968D01*
X153318415Y-88431969D01*
X153279413Y-88487669D01*
X153279412Y-88487671D01*
X153189197Y-88681140D01*
X153187342Y-88686236D01*
X153185445Y-88685545D01*
X153153656Y-88737684D01*
X153090805Y-88768205D01*
X153021431Y-88759901D01*
X152967559Y-88715408D01*
X152954012Y-88685742D01*
X152953130Y-88686064D01*
X152951279Y-88680983D01*
X152951276Y-88680970D01*
X152861021Y-88487419D01*
X152738529Y-88312481D01*
X152738527Y-88312478D01*
X152587521Y-88161472D01*
X152453377Y-88067544D01*
X152409752Y-88012967D01*
X152400500Y-87965969D01*
X152400500Y-85680448D01*
X152420185Y-85613409D01*
X152472989Y-85567654D01*
X152485488Y-85562744D01*
X152494334Y-85559814D01*
X152643656Y-85467712D01*
X152767712Y-85343656D01*
X152859814Y-85194334D01*
X152914999Y-85027797D01*
X152925500Y-84925009D01*
X152925499Y-83574992D01*
X152914999Y-83472203D01*
X152859814Y-83305666D01*
X152767712Y-83156344D01*
X152643656Y-83032288D01*
X152521904Y-82957191D01*
X152494336Y-82940187D01*
X152494331Y-82940185D01*
X152462997Y-82929802D01*
X152327797Y-82885001D01*
X152327795Y-82885000D01*
X152225010Y-82874500D01*
X151499998Y-82874500D01*
X151499980Y-82874501D01*
X151397203Y-82885000D01*
X151397200Y-82885001D01*
X151230668Y-82940185D01*
X151230663Y-82940187D01*
X151081342Y-83032289D01*
X150957289Y-83156342D01*
X150865187Y-83305663D01*
X150865185Y-83305668D01*
X150837349Y-83389670D01*
X150810001Y-83472203D01*
X150810001Y-83472204D01*
X150810000Y-83472204D01*
X150799500Y-83574983D01*
X150799500Y-84925001D01*
X150799501Y-84925018D01*
X150810000Y-85027796D01*
X150810001Y-85027799D01*
X150865185Y-85194331D01*
X150865187Y-85194336D01*
X150880340Y-85218903D01*
X150957288Y-85343656D01*
X151081344Y-85467712D01*
X151140596Y-85504258D01*
X151187321Y-85556204D01*
X151199500Y-85609797D01*
X151199500Y-87965969D01*
X151179815Y-88033008D01*
X151146623Y-88067544D01*
X151012478Y-88161472D01*
X150861472Y-88312478D01*
X150738977Y-88487421D01*
X150648725Y-88680968D01*
X150646870Y-88686064D01*
X150644749Y-88685292D01*
X150613406Y-88736710D01*
X150550558Y-88767237D01*
X150481183Y-88758939D01*
X150427307Y-88714452D01*
X150414169Y-88685685D01*
X150413130Y-88686064D01*
X150411279Y-88680983D01*
X150411276Y-88680970D01*
X150321021Y-88487419D01*
X150198529Y-88312481D01*
X150198527Y-88312478D01*
X150047521Y-88161472D01*
X149872578Y-88038977D01*
X149872579Y-88038977D01*
X149740888Y-87977569D01*
X149679030Y-87948724D01*
X149679026Y-87948723D01*
X149679022Y-87948721D01*
X149472752Y-87893452D01*
X149472748Y-87893451D01*
X149472747Y-87893451D01*
X149472746Y-87893450D01*
X149472741Y-87893450D01*
X149260002Y-87874838D01*
X149259998Y-87874838D01*
X149047258Y-87893450D01*
X149047247Y-87893452D01*
X148840977Y-87948721D01*
X148840968Y-87948725D01*
X148647421Y-88038977D01*
X148472478Y-88161472D01*
X148321472Y-88312478D01*
X148227544Y-88446623D01*
X148172967Y-88490248D01*
X148125969Y-88499500D01*
X143847643Y-88499500D01*
X143780604Y-88479815D01*
X143734849Y-88427011D01*
X143724285Y-88388102D01*
X143719323Y-88339532D01*
X143714999Y-88297203D01*
X143659814Y-88130666D01*
X143567712Y-87981344D01*
X143443656Y-87857288D01*
X143309402Y-87774480D01*
X143262679Y-87722533D01*
X143250500Y-87668942D01*
X143250500Y-81574986D01*
X148600001Y-81574986D01*
X148610494Y-81677697D01*
X148665641Y-81844119D01*
X148665643Y-81844124D01*
X148757684Y-81993345D01*
X148881654Y-82117315D01*
X149030875Y-82209356D01*
X149030880Y-82209358D01*
X149197302Y-82264505D01*
X149197309Y-82264506D01*
X149300019Y-82274999D01*
X149412499Y-82274999D01*
X149412500Y-82274998D01*
X149412500Y-81150000D01*
X148600001Y-81150000D01*
X148600001Y-81574986D01*
X143250500Y-81574986D01*
X143250500Y-80225013D01*
X148600000Y-80225013D01*
X148600000Y-80650000D01*
X149412500Y-80650000D01*
X149412500Y-79525000D01*
X149300027Y-79525000D01*
X149300012Y-79525001D01*
X149197302Y-79535494D01*
X149030880Y-79590641D01*
X149030875Y-79590643D01*
X148881654Y-79682684D01*
X148757684Y-79806654D01*
X148665643Y-79955875D01*
X148665641Y-79955880D01*
X148610494Y-80122302D01*
X148610493Y-80122309D01*
X148600000Y-80225013D01*
X143250500Y-80225013D01*
X143250500Y-71499994D01*
X144594357Y-71499994D01*
X144594357Y-71500005D01*
X144614890Y-71747812D01*
X144614892Y-71747824D01*
X144675936Y-71988881D01*
X144775826Y-72216606D01*
X144911833Y-72424782D01*
X144911836Y-72424785D01*
X145080256Y-72607738D01*
X145276491Y-72760474D01*
X145276493Y-72760475D01*
X145494332Y-72878364D01*
X145495190Y-72878828D01*
X145507292Y-72882982D01*
X145564307Y-72923365D01*
X145590439Y-72988164D01*
X145577391Y-73056804D01*
X145529304Y-73107493D01*
X145507300Y-73117543D01*
X145495398Y-73121629D01*
X145495390Y-73121632D01*
X145276761Y-73239949D01*
X145229942Y-73276388D01*
X145229942Y-73276390D01*
X145970590Y-74017037D01*
X145907007Y-74034075D01*
X145792993Y-74099901D01*
X145699901Y-74192993D01*
X145634075Y-74307007D01*
X145617037Y-74370589D01*
X144876564Y-73630116D01*
X144776267Y-73783632D01*
X144676412Y-74011282D01*
X144615387Y-74252261D01*
X144615385Y-74252270D01*
X144594859Y-74499994D01*
X144594859Y-74500005D01*
X144615385Y-74747729D01*
X144615387Y-74747738D01*
X144676412Y-74988717D01*
X144776266Y-75216364D01*
X144876564Y-75369882D01*
X145617037Y-74629409D01*
X145634075Y-74692993D01*
X145699901Y-74807007D01*
X145792993Y-74900099D01*
X145907007Y-74965925D01*
X145970590Y-74982962D01*
X145229942Y-75723609D01*
X145276768Y-75760055D01*
X145276770Y-75760056D01*
X145495385Y-75878364D01*
X145495396Y-75878369D01*
X145507294Y-75882454D01*
X145564309Y-75922839D01*
X145590440Y-75987639D01*
X145577389Y-76056279D01*
X145529300Y-76106967D01*
X145507296Y-76117016D01*
X145495191Y-76121171D01*
X145495188Y-76121172D01*
X145276493Y-76239524D01*
X145080257Y-76392261D01*
X144911833Y-76575217D01*
X144775826Y-76783393D01*
X144675936Y-77011118D01*
X144614892Y-77252175D01*
X144614890Y-77252187D01*
X144594357Y-77499994D01*
X144594357Y-77500005D01*
X144614890Y-77747812D01*
X144614892Y-77747824D01*
X144675936Y-77988881D01*
X144775826Y-78216606D01*
X144911833Y-78424782D01*
X144911836Y-78424785D01*
X145080256Y-78607738D01*
X145276491Y-78760474D01*
X145276493Y-78760475D01*
X145494332Y-78878364D01*
X145495190Y-78878828D01*
X145714141Y-78953994D01*
X145728964Y-78959083D01*
X145730386Y-78959571D01*
X145975665Y-79000500D01*
X146224335Y-79000500D01*
X146469614Y-78959571D01*
X146704810Y-78878828D01*
X146923509Y-78760474D01*
X147119744Y-78607738D01*
X147288164Y-78424785D01*
X147424173Y-78216607D01*
X147524063Y-77988881D01*
X147585108Y-77747821D01*
X147586456Y-77731559D01*
X147605643Y-77500005D01*
X147605643Y-77499994D01*
X147585109Y-77252187D01*
X147585107Y-77252175D01*
X147524063Y-77011118D01*
X147508214Y-76974986D01*
X148600001Y-76974986D01*
X148610494Y-77077697D01*
X148665641Y-77244119D01*
X148665643Y-77244124D01*
X148757684Y-77393345D01*
X148881654Y-77517315D01*
X149030875Y-77609356D01*
X149030880Y-77609358D01*
X149197302Y-77664505D01*
X149197309Y-77664506D01*
X149300019Y-77674999D01*
X149412499Y-77674999D01*
X149412500Y-77674998D01*
X149412500Y-76550000D01*
X148600001Y-76550000D01*
X148600001Y-76974986D01*
X147508214Y-76974986D01*
X147424173Y-76783393D01*
X147288166Y-76575217D01*
X147200342Y-76479815D01*
X147119744Y-76392262D01*
X146923509Y-76239526D01*
X146923507Y-76239525D01*
X146923506Y-76239524D01*
X146704811Y-76121172D01*
X146704802Y-76121169D01*
X146692705Y-76117016D01*
X146635690Y-76076631D01*
X146609559Y-76011831D01*
X146622610Y-75943191D01*
X146670699Y-75892504D01*
X146692707Y-75882453D01*
X146704608Y-75878367D01*
X146704614Y-75878364D01*
X146923228Y-75760057D01*
X146923231Y-75760055D01*
X146970056Y-75723609D01*
X146871460Y-75625013D01*
X148600000Y-75625013D01*
X148600000Y-76050000D01*
X149412500Y-76050000D01*
X149412500Y-74925000D01*
X149912500Y-74925000D01*
X149912500Y-77674999D01*
X150024972Y-77674999D01*
X150024986Y-77674998D01*
X150127697Y-77664505D01*
X150294119Y-77609358D01*
X150294124Y-77609356D01*
X150443345Y-77517315D01*
X150567315Y-77393345D01*
X150644072Y-77268903D01*
X150696020Y-77222179D01*
X150749611Y-77210000D01*
X151499802Y-77210000D01*
X151566841Y-77229685D01*
X151605340Y-77268903D01*
X151682288Y-77393656D01*
X151806344Y-77517712D01*
X151955666Y-77609814D01*
X152122203Y-77664999D01*
X152224991Y-77675500D01*
X152590872Y-77675499D01*
X152657910Y-77695183D01*
X152703665Y-77747987D01*
X152713609Y-77817146D01*
X152684584Y-77880701D01*
X152678559Y-77887173D01*
X152676621Y-77889110D01*
X152551590Y-78041460D01*
X152551586Y-78041467D01*
X152458688Y-78215266D01*
X152401475Y-78403870D01*
X152382159Y-78600000D01*
X152401475Y-78796129D01*
X152458688Y-78984733D01*
X152551586Y-79158532D01*
X152551590Y-79158539D01*
X152676618Y-79310885D01*
X152678552Y-79312819D01*
X152679241Y-79314081D01*
X152680481Y-79315592D01*
X152680194Y-79315827D01*
X152712037Y-79374142D01*
X152707053Y-79443834D01*
X152665181Y-79499767D01*
X152599717Y-79524184D01*
X152590871Y-79524500D01*
X152224998Y-79524500D01*
X152224980Y-79524501D01*
X152122203Y-79535000D01*
X152122200Y-79535001D01*
X151955668Y-79590185D01*
X151955663Y-79590187D01*
X151806342Y-79682289D01*
X151682287Y-79806344D01*
X151605341Y-79931096D01*
X151553393Y-79977821D01*
X151499802Y-79990000D01*
X150749611Y-79990000D01*
X150682572Y-79970315D01*
X150644072Y-79931097D01*
X150567315Y-79806654D01*
X150443345Y-79682684D01*
X150294124Y-79590643D01*
X150294119Y-79590641D01*
X150127697Y-79535494D01*
X150127690Y-79535493D01*
X150024986Y-79525000D01*
X149912500Y-79525000D01*
X149912500Y-82274999D01*
X150024972Y-82274999D01*
X150024986Y-82274998D01*
X150127697Y-82264505D01*
X150294119Y-82209358D01*
X150294124Y-82209356D01*
X150443345Y-82117315D01*
X150567315Y-81993345D01*
X150644072Y-81868903D01*
X150696020Y-81822179D01*
X150749611Y-81810000D01*
X151499802Y-81810000D01*
X151566841Y-81829685D01*
X151605340Y-81868903D01*
X151682288Y-81993656D01*
X151806344Y-82117712D01*
X151955666Y-82209814D01*
X152122203Y-82264999D01*
X152224991Y-82275500D01*
X152950008Y-82275499D01*
X152950016Y-82275498D01*
X152950019Y-82275498D01*
X153006302Y-82269748D01*
X153052797Y-82264999D01*
X153219334Y-82209814D01*
X153368656Y-82117712D01*
X153492712Y-81993656D01*
X153584814Y-81844334D01*
X153620879Y-81735494D01*
X153660652Y-81678051D01*
X153725167Y-81651228D01*
X153738585Y-81650500D01*
X153844558Y-81650500D01*
X153911597Y-81670185D01*
X153955646Y-81719406D01*
X153970469Y-81749295D01*
X154089777Y-81897721D01*
X154089778Y-81897722D01*
X154238204Y-82017030D01*
X154238207Y-82017032D01*
X154408802Y-82101639D01*
X154408803Y-82101639D01*
X154408807Y-82101641D01*
X154593611Y-82147600D01*
X154636377Y-82150500D01*
X156038622Y-82150499D01*
X156081389Y-82147600D01*
X156266193Y-82101641D01*
X156345406Y-82062354D01*
X156414210Y-82050203D01*
X156478662Y-82077179D01*
X156518298Y-82134718D01*
X156524500Y-82173443D01*
X156524500Y-82851652D01*
X156504815Y-82918691D01*
X156465598Y-82957189D01*
X156388335Y-83004845D01*
X156343842Y-83032289D01*
X156219789Y-83156342D01*
X156127687Y-83305663D01*
X156127685Y-83305668D01*
X156073956Y-83467812D01*
X156034183Y-83525257D01*
X155969667Y-83552080D01*
X155900891Y-83539765D01*
X155849692Y-83492222D01*
X155838544Y-83467812D01*
X155802051Y-83357685D01*
X155784814Y-83305666D01*
X155692712Y-83156344D01*
X155568656Y-83032288D01*
X155446904Y-82957191D01*
X155419336Y-82940187D01*
X155419331Y-82940185D01*
X155387997Y-82929802D01*
X155252797Y-82885001D01*
X155252795Y-82885000D01*
X155150010Y-82874500D01*
X154424998Y-82874500D01*
X154424980Y-82874501D01*
X154322203Y-82885000D01*
X154322200Y-82885001D01*
X154155668Y-82940185D01*
X154155663Y-82940187D01*
X154006342Y-83032289D01*
X153882289Y-83156342D01*
X153790187Y-83305663D01*
X153790185Y-83305668D01*
X153762349Y-83389670D01*
X153735001Y-83472203D01*
X153735001Y-83472204D01*
X153735000Y-83472204D01*
X153724500Y-83574983D01*
X153724500Y-84925001D01*
X153724501Y-84925018D01*
X153735000Y-85027796D01*
X153735001Y-85027799D01*
X153790185Y-85194331D01*
X153790187Y-85194336D01*
X153805340Y-85218903D01*
X153882288Y-85343656D01*
X154006344Y-85467712D01*
X154155666Y-85559814D01*
X154322203Y-85614999D01*
X154424991Y-85625500D01*
X155150008Y-85625499D01*
X155150016Y-85625498D01*
X155150019Y-85625498D01*
X155206302Y-85619748D01*
X155252797Y-85614999D01*
X155419334Y-85559814D01*
X155568656Y-85467712D01*
X155692712Y-85343656D01*
X155784814Y-85194334D01*
X155838544Y-85032185D01*
X155878315Y-84974742D01*
X155942831Y-84947919D01*
X156011607Y-84960234D01*
X156062807Y-85007776D01*
X156073955Y-85032186D01*
X156127684Y-85194329D01*
X156127686Y-85194333D01*
X156127687Y-85194336D01*
X156142840Y-85218903D01*
X156219788Y-85343656D01*
X156343844Y-85467712D01*
X156493166Y-85559814D01*
X156659703Y-85614999D01*
X156762491Y-85625500D01*
X157487508Y-85625499D01*
X157487516Y-85625498D01*
X157487519Y-85625498D01*
X157543802Y-85619748D01*
X157590297Y-85614999D01*
X157756834Y-85559814D01*
X157906156Y-85467712D01*
X158030212Y-85343656D01*
X158107159Y-85218903D01*
X158159107Y-85172179D01*
X158212698Y-85160000D01*
X158962889Y-85160000D01*
X159029928Y-85179685D01*
X159068428Y-85218903D01*
X159145184Y-85343345D01*
X159269154Y-85467315D01*
X159418375Y-85559356D01*
X159418380Y-85559358D01*
X159584802Y-85614505D01*
X159584809Y-85614506D01*
X159687519Y-85624999D01*
X159799999Y-85624999D01*
X160300000Y-85624999D01*
X160412472Y-85624999D01*
X160412486Y-85624998D01*
X160515197Y-85614505D01*
X160681619Y-85559358D01*
X160681624Y-85559356D01*
X160830845Y-85467315D01*
X160954815Y-85343345D01*
X161046856Y-85194124D01*
X161046858Y-85194119D01*
X161102005Y-85027697D01*
X161102006Y-85027690D01*
X161112499Y-84924986D01*
X161112500Y-84924973D01*
X161112500Y-84500000D01*
X160300000Y-84500000D01*
X160300000Y-85624999D01*
X159799999Y-85624999D01*
X159800000Y-85624998D01*
X159800000Y-84000000D01*
X160300000Y-84000000D01*
X161112499Y-84000000D01*
X161112499Y-83575028D01*
X161112498Y-83575013D01*
X161102005Y-83472302D01*
X161046858Y-83305880D01*
X161046856Y-83305875D01*
X160954815Y-83156654D01*
X160830845Y-83032684D01*
X160681624Y-82940643D01*
X160681619Y-82940641D01*
X160515197Y-82885494D01*
X160515190Y-82885493D01*
X160412486Y-82875000D01*
X160300000Y-82875000D01*
X160300000Y-84000000D01*
X159800000Y-84000000D01*
X159800000Y-82875000D01*
X159687527Y-82875000D01*
X159687512Y-82875001D01*
X159584802Y-82885494D01*
X159418380Y-82940641D01*
X159418375Y-82940643D01*
X159269154Y-83032684D01*
X159145184Y-83156654D01*
X159068428Y-83281097D01*
X159016480Y-83327821D01*
X158962889Y-83340000D01*
X158212698Y-83340000D01*
X158145659Y-83320315D01*
X158107159Y-83281096D01*
X158030212Y-83156344D01*
X157906157Y-83032289D01*
X157906156Y-83032288D01*
X157784402Y-82957190D01*
X157737679Y-82905243D01*
X157725500Y-82851652D01*
X157725500Y-80476560D01*
X157725501Y-80476547D01*
X157725501Y-80308444D01*
X157710590Y-80252797D01*
X157684577Y-80155716D01*
X157665286Y-80122302D01*
X157605524Y-80018790D01*
X157605518Y-80018782D01*
X156853907Y-79267171D01*
X156820422Y-79205848D01*
X156821254Y-79149563D01*
X156835100Y-79093889D01*
X156838000Y-79051123D01*
X156837999Y-78148878D01*
X156835100Y-78106111D01*
X156789141Y-77921307D01*
X156751051Y-77844505D01*
X156704532Y-77750707D01*
X156704530Y-77750704D01*
X156585222Y-77602278D01*
X156585221Y-77602277D01*
X156516014Y-77546647D01*
X156476095Y-77489304D01*
X156473515Y-77419482D01*
X156509094Y-77359349D01*
X156516014Y-77353353D01*
X156529254Y-77342710D01*
X156585222Y-77297722D01*
X156704530Y-77149296D01*
X156789141Y-76978693D01*
X156835100Y-76793889D01*
X156838000Y-76751123D01*
X156837999Y-75848878D01*
X156835100Y-75806111D01*
X156789141Y-75621307D01*
X156744803Y-75531907D01*
X156704531Y-75450705D01*
X156704530Y-75450704D01*
X156585222Y-75302278D01*
X156585221Y-75302277D01*
X156436795Y-75182969D01*
X156436792Y-75182967D01*
X156266197Y-75098360D01*
X156081392Y-75052400D01*
X156060006Y-75050950D01*
X156038623Y-75049500D01*
X156038620Y-75049500D01*
X154636377Y-75049500D01*
X154636374Y-75049501D01*
X154593613Y-75052399D01*
X154593612Y-75052399D01*
X154408803Y-75098360D01*
X154238207Y-75182967D01*
X154238204Y-75182969D01*
X154089778Y-75302277D01*
X154089777Y-75302278D01*
X153970469Y-75450704D01*
X153955646Y-75480594D01*
X153908225Y-75531907D01*
X153844558Y-75549500D01*
X153738585Y-75549500D01*
X153671546Y-75529815D01*
X153625791Y-75477011D01*
X153620879Y-75464504D01*
X153584814Y-75355666D01*
X153492712Y-75206344D01*
X153368656Y-75082288D01*
X153219334Y-74990186D01*
X153052797Y-74935001D01*
X153052795Y-74935000D01*
X152950010Y-74924500D01*
X152224998Y-74924500D01*
X152224980Y-74924501D01*
X152122203Y-74935000D01*
X152122200Y-74935001D01*
X151955668Y-74990185D01*
X151955663Y-74990187D01*
X151806342Y-75082289D01*
X151682287Y-75206344D01*
X151605341Y-75331096D01*
X151553393Y-75377821D01*
X151499802Y-75390000D01*
X150749611Y-75390000D01*
X150682572Y-75370315D01*
X150644072Y-75331097D01*
X150567315Y-75206654D01*
X150443345Y-75082684D01*
X150294124Y-74990643D01*
X150294119Y-74990641D01*
X150127697Y-74935494D01*
X150127690Y-74935493D01*
X150024986Y-74925000D01*
X149912500Y-74925000D01*
X149412500Y-74925000D01*
X149300027Y-74925000D01*
X149300012Y-74925001D01*
X149197302Y-74935494D01*
X149030880Y-74990641D01*
X149030875Y-74990643D01*
X148881654Y-75082684D01*
X148757684Y-75206654D01*
X148665643Y-75355875D01*
X148665641Y-75355880D01*
X148610494Y-75522302D01*
X148610493Y-75522309D01*
X148600000Y-75625013D01*
X146871460Y-75625013D01*
X146229409Y-74982962D01*
X146292993Y-74965925D01*
X146407007Y-74900099D01*
X146500099Y-74807007D01*
X146565925Y-74692993D01*
X146582962Y-74629410D01*
X147323434Y-75369882D01*
X147423731Y-75216369D01*
X147523587Y-74988717D01*
X147584612Y-74747738D01*
X147584614Y-74747729D01*
X147605141Y-74500005D01*
X147605141Y-74499994D01*
X147584614Y-74252270D01*
X147584612Y-74252261D01*
X147523587Y-74011282D01*
X147423731Y-73783630D01*
X147323434Y-73630116D01*
X146582962Y-74370589D01*
X146565925Y-74307007D01*
X146500099Y-74192993D01*
X146407007Y-74099901D01*
X146292993Y-74034075D01*
X146229410Y-74017037D01*
X146970057Y-73276390D01*
X146970056Y-73276389D01*
X146968253Y-73274986D01*
X148612501Y-73274986D01*
X148622994Y-73377697D01*
X148678141Y-73544119D01*
X148678143Y-73544124D01*
X148770184Y-73693345D01*
X148894154Y-73817315D01*
X149043375Y-73909356D01*
X149043380Y-73909358D01*
X149209802Y-73964505D01*
X149209809Y-73964506D01*
X149312519Y-73974999D01*
X149424999Y-73974999D01*
X149425000Y-73974998D01*
X149425000Y-72850000D01*
X148612501Y-72850000D01*
X148612501Y-73274986D01*
X146968253Y-73274986D01*
X146923229Y-73239943D01*
X146704614Y-73121635D01*
X146704605Y-73121631D01*
X146692701Y-73117544D01*
X146635687Y-73077156D01*
X146609559Y-73012356D01*
X146622612Y-72943716D01*
X146670703Y-72893030D01*
X146692705Y-72882983D01*
X146704810Y-72878828D01*
X146923509Y-72760474D01*
X147119744Y-72607738D01*
X147288164Y-72424785D01*
X147424173Y-72216607D01*
X147524063Y-71988881D01*
X147540237Y-71925013D01*
X148612500Y-71925013D01*
X148612500Y-72350000D01*
X149425000Y-72350000D01*
X149425000Y-71225000D01*
X149312527Y-71225000D01*
X149312512Y-71225001D01*
X149209802Y-71235494D01*
X149043380Y-71290641D01*
X149043375Y-71290643D01*
X148894154Y-71382684D01*
X148770184Y-71506654D01*
X148678143Y-71655875D01*
X148678141Y-71655880D01*
X148622994Y-71822302D01*
X148622993Y-71822309D01*
X148612500Y-71925013D01*
X147540237Y-71925013D01*
X147585108Y-71747821D01*
X147586864Y-71726630D01*
X147605643Y-71500005D01*
X147605643Y-71499994D01*
X147585109Y-71252187D01*
X147585107Y-71252175D01*
X147524063Y-71011118D01*
X147424173Y-70783393D01*
X147288166Y-70575217D01*
X147247987Y-70531571D01*
X147119744Y-70392262D01*
X146923509Y-70239526D01*
X146923507Y-70239525D01*
X146923506Y-70239524D01*
X146704811Y-70121172D01*
X146704802Y-70121169D01*
X146469616Y-70040429D01*
X146224335Y-69999500D01*
X145975665Y-69999500D01*
X145730383Y-70040429D01*
X145495197Y-70121169D01*
X145495188Y-70121172D01*
X145276493Y-70239524D01*
X145080257Y-70392261D01*
X144911833Y-70575217D01*
X144775826Y-70783393D01*
X144675936Y-71011118D01*
X144614892Y-71252175D01*
X144614890Y-71252187D01*
X144594357Y-71499994D01*
X143250500Y-71499994D01*
X143250500Y-68674986D01*
X148612501Y-68674986D01*
X148622994Y-68777697D01*
X148678141Y-68944119D01*
X148678143Y-68944124D01*
X148770184Y-69093345D01*
X148894154Y-69217315D01*
X149043375Y-69309356D01*
X149043380Y-69309358D01*
X149209802Y-69364505D01*
X149209809Y-69364506D01*
X149312519Y-69374999D01*
X149424999Y-69374999D01*
X149425000Y-69374998D01*
X149425000Y-68250000D01*
X148612501Y-68250000D01*
X148612501Y-68674986D01*
X143250500Y-68674986D01*
X143250500Y-67325013D01*
X148612500Y-67325013D01*
X148612500Y-67750000D01*
X149425000Y-67750000D01*
X149425000Y-66625000D01*
X149312527Y-66625000D01*
X149312512Y-66625001D01*
X149209802Y-66635494D01*
X149043380Y-66690641D01*
X149043375Y-66690643D01*
X148894154Y-66782684D01*
X148770184Y-66906654D01*
X148678143Y-67055875D01*
X148678141Y-67055880D01*
X148622994Y-67222302D01*
X148622993Y-67222309D01*
X148612500Y-67325013D01*
X143250500Y-67325013D01*
X143250500Y-66350097D01*
X143270185Y-66283058D01*
X143286819Y-66262416D01*
X144541947Y-65007288D01*
X145880519Y-63668716D01*
X145959577Y-63531785D01*
X146000500Y-63379058D01*
X146000500Y-63220943D01*
X145979725Y-63143409D01*
X145975500Y-63111316D01*
X145975500Y-61831057D01*
X145995185Y-61764018D01*
X146034401Y-61725520D01*
X146168656Y-61642712D01*
X146292712Y-61518656D01*
X146384814Y-61369334D01*
X146439999Y-61202797D01*
X146442431Y-61178989D01*
X146446732Y-61136897D01*
X146473129Y-61072205D01*
X146530310Y-61032054D01*
X146570090Y-61025500D01*
X148283474Y-61025500D01*
X148350513Y-61045185D01*
X148385049Y-61078377D01*
X148461471Y-61187520D01*
X148612478Y-61338527D01*
X148612481Y-61338529D01*
X148787419Y-61461021D01*
X148787421Y-61461022D01*
X148787420Y-61461022D01*
X148851936Y-61491106D01*
X148980970Y-61551276D01*
X149187253Y-61606549D01*
X149339215Y-61619844D01*
X149399998Y-61625162D01*
X149400000Y-61625162D01*
X149400002Y-61625162D01*
X149453186Y-61620508D01*
X149612747Y-61606549D01*
X149819030Y-61551276D01*
X150012581Y-61461021D01*
X150187519Y-61338529D01*
X150338529Y-61187519D01*
X150461021Y-61012581D01*
X150551276Y-60819030D01*
X150551280Y-60819013D01*
X150553130Y-60813936D01*
X150555253Y-60814709D01*
X150586576Y-60763305D01*
X150649419Y-60732766D01*
X150718796Y-60741050D01*
X150772680Y-60785528D01*
X150785827Y-60814315D01*
X150786870Y-60813936D01*
X150788722Y-60819023D01*
X150788724Y-60819030D01*
X150831171Y-60910058D01*
X150878977Y-61012578D01*
X151001472Y-61187521D01*
X151152477Y-61338526D01*
X151152480Y-61338528D01*
X151152481Y-61338529D01*
X151234123Y-61395695D01*
X151277748Y-61450269D01*
X151287000Y-61497269D01*
X151287000Y-63717072D01*
X151267315Y-63784111D01*
X151228098Y-63822609D01*
X151219851Y-63827697D01*
X151131342Y-63882289D01*
X151007289Y-64006342D01*
X150915187Y-64155663D01*
X150915185Y-64155668D01*
X150887613Y-64238875D01*
X150860001Y-64322203D01*
X150860001Y-64322204D01*
X150860000Y-64322204D01*
X150849500Y-64424983D01*
X150849500Y-65775001D01*
X150849501Y-65775018D01*
X150860000Y-65877796D01*
X150860001Y-65877799D01*
X150910332Y-66029685D01*
X150915186Y-66044334D01*
X151007288Y-66193656D01*
X151131344Y-66317712D01*
X151280666Y-66409814D01*
X151447203Y-66464999D01*
X151549991Y-66475500D01*
X151878990Y-66475499D01*
X151946028Y-66495183D01*
X151991783Y-66547987D01*
X152001727Y-66617146D01*
X151972702Y-66680701D01*
X151944086Y-66705037D01*
X151818847Y-66782285D01*
X151818843Y-66782288D01*
X151694787Y-66906344D01*
X151617841Y-67031096D01*
X151565893Y-67077821D01*
X151512302Y-67090000D01*
X150762111Y-67090000D01*
X150695072Y-67070315D01*
X150656572Y-67031097D01*
X150579815Y-66906654D01*
X150455845Y-66782684D01*
X150306624Y-66690643D01*
X150306619Y-66690641D01*
X150140197Y-66635494D01*
X150140190Y-66635493D01*
X150037486Y-66625000D01*
X149925000Y-66625000D01*
X149925000Y-69374999D01*
X150037472Y-69374999D01*
X150037486Y-69374998D01*
X150140197Y-69364505D01*
X150306619Y-69309358D01*
X150306624Y-69309356D01*
X150455845Y-69217315D01*
X150579815Y-69093345D01*
X150656572Y-68968903D01*
X150708520Y-68922179D01*
X150762111Y-68910000D01*
X151512302Y-68910000D01*
X151579341Y-68929685D01*
X151617841Y-68968904D01*
X151689326Y-69084802D01*
X151694788Y-69093656D01*
X151818844Y-69217712D01*
X151968166Y-69309814D01*
X152134703Y-69364999D01*
X152237491Y-69375500D01*
X152603372Y-69375499D01*
X152670410Y-69395183D01*
X152716165Y-69447987D01*
X152726109Y-69517146D01*
X152697084Y-69580701D01*
X152691059Y-69587173D01*
X152689121Y-69589110D01*
X152564090Y-69741460D01*
X152564086Y-69741467D01*
X152471188Y-69915266D01*
X152413975Y-70103870D01*
X152394659Y-70300000D01*
X152413975Y-70496129D01*
X152413976Y-70496132D01*
X152470039Y-70680947D01*
X152471188Y-70684733D01*
X152564086Y-70858532D01*
X152564090Y-70858539D01*
X152689118Y-71010885D01*
X152691052Y-71012819D01*
X152691741Y-71014081D01*
X152692981Y-71015592D01*
X152692694Y-71015827D01*
X152724537Y-71074142D01*
X152719553Y-71143834D01*
X152677681Y-71199767D01*
X152612217Y-71224184D01*
X152603371Y-71224500D01*
X152237498Y-71224500D01*
X152237480Y-71224501D01*
X152134703Y-71235000D01*
X152134700Y-71235001D01*
X151968168Y-71290185D01*
X151968163Y-71290187D01*
X151818842Y-71382289D01*
X151694787Y-71506344D01*
X151617841Y-71631096D01*
X151565893Y-71677821D01*
X151512302Y-71690000D01*
X150762111Y-71690000D01*
X150695072Y-71670315D01*
X150656572Y-71631097D01*
X150579815Y-71506654D01*
X150455845Y-71382684D01*
X150306624Y-71290643D01*
X150306619Y-71290641D01*
X150140197Y-71235494D01*
X150140190Y-71235493D01*
X150037486Y-71225000D01*
X149925000Y-71225000D01*
X149925000Y-73974999D01*
X150037472Y-73974999D01*
X150037486Y-73974998D01*
X150140197Y-73964505D01*
X150306619Y-73909358D01*
X150306624Y-73909356D01*
X150455845Y-73817315D01*
X150579815Y-73693345D01*
X150656572Y-73568903D01*
X150708520Y-73522179D01*
X150762111Y-73510000D01*
X151512302Y-73510000D01*
X151579341Y-73529685D01*
X151617840Y-73568903D01*
X151694788Y-73693656D01*
X151818844Y-73817712D01*
X151968166Y-73909814D01*
X152134703Y-73964999D01*
X152237491Y-73975500D01*
X152962508Y-73975499D01*
X152962516Y-73975498D01*
X152962519Y-73975498D01*
X153018802Y-73969748D01*
X153065297Y-73964999D01*
X153231834Y-73909814D01*
X153381156Y-73817712D01*
X153505212Y-73693656D01*
X153597314Y-73544334D01*
X153633379Y-73435494D01*
X153673152Y-73378051D01*
X153737667Y-73351228D01*
X153751085Y-73350500D01*
X153857058Y-73350500D01*
X153924097Y-73370185D01*
X153968146Y-73419406D01*
X153982969Y-73449295D01*
X154102277Y-73597721D01*
X154102278Y-73597722D01*
X154250704Y-73717030D01*
X154250707Y-73717032D01*
X154421302Y-73801639D01*
X154421303Y-73801639D01*
X154421307Y-73801641D01*
X154606111Y-73847600D01*
X154648877Y-73850500D01*
X156051122Y-73850499D01*
X156093889Y-73847600D01*
X156278693Y-73801641D01*
X156449296Y-73717030D01*
X156597722Y-73597722D01*
X156717030Y-73449296D01*
X156801641Y-73278693D01*
X156847600Y-73093889D01*
X156850500Y-73051123D01*
X156850499Y-72148878D01*
X156847600Y-72106111D01*
X156801641Y-71921307D01*
X156771202Y-71859932D01*
X156717032Y-71750707D01*
X156717030Y-71750704D01*
X156597722Y-71602278D01*
X156597721Y-71602277D01*
X156528514Y-71546647D01*
X156488595Y-71489304D01*
X156486015Y-71419482D01*
X156521594Y-71359349D01*
X156528514Y-71353353D01*
X156559309Y-71328599D01*
X156597722Y-71297722D01*
X156717030Y-71149296D01*
X156801641Y-70978693D01*
X156847600Y-70793889D01*
X156850500Y-70751123D01*
X156850499Y-69848878D01*
X156847600Y-69806111D01*
X156847599Y-69806109D01*
X156847599Y-69806104D01*
X156833754Y-69750435D01*
X156836676Y-69680627D01*
X156866405Y-69632829D01*
X157430520Y-69068716D01*
X157430520Y-69068714D01*
X157447953Y-69051282D01*
X157447962Y-69051272D01*
X157461730Y-69037504D01*
X157555520Y-68943716D01*
X157634577Y-68806784D01*
X157675501Y-68654057D01*
X157675501Y-68495942D01*
X157675501Y-68488347D01*
X157675500Y-68488329D01*
X157675500Y-66498347D01*
X157695185Y-66431308D01*
X157734401Y-66392810D01*
X157856156Y-66317712D01*
X157980212Y-66193656D01*
X158057159Y-66068903D01*
X158109107Y-66022179D01*
X158162698Y-66010000D01*
X158912889Y-66010000D01*
X158979928Y-66029685D01*
X159018428Y-66068903D01*
X159095184Y-66193345D01*
X159219154Y-66317315D01*
X159368375Y-66409356D01*
X159368380Y-66409358D01*
X159534802Y-66464505D01*
X159534809Y-66464506D01*
X159637519Y-66474999D01*
X159749999Y-66474999D01*
X160250000Y-66474999D01*
X160362472Y-66474999D01*
X160362486Y-66474998D01*
X160465197Y-66464505D01*
X160631619Y-66409358D01*
X160631624Y-66409356D01*
X160780845Y-66317315D01*
X160904815Y-66193345D01*
X160996856Y-66044124D01*
X160996858Y-66044119D01*
X161052005Y-65877697D01*
X161052006Y-65877690D01*
X161062499Y-65774986D01*
X161062500Y-65774973D01*
X161062500Y-65350000D01*
X160250000Y-65350000D01*
X160250000Y-66474999D01*
X159749999Y-66474999D01*
X159750000Y-66474998D01*
X159750000Y-64850000D01*
X160250000Y-64850000D01*
X161062499Y-64850000D01*
X161062499Y-64425028D01*
X161062498Y-64425013D01*
X161052005Y-64322302D01*
X160996858Y-64155880D01*
X160996856Y-64155875D01*
X160904815Y-64006654D01*
X160780845Y-63882684D01*
X160631624Y-63790643D01*
X160631619Y-63790641D01*
X160465197Y-63735494D01*
X160465190Y-63735493D01*
X160362486Y-63725000D01*
X160250000Y-63725000D01*
X160250000Y-64850000D01*
X159750000Y-64850000D01*
X159750000Y-63725000D01*
X159637527Y-63725000D01*
X159637512Y-63725001D01*
X159534802Y-63735494D01*
X159368380Y-63790641D01*
X159368375Y-63790643D01*
X159219154Y-63882684D01*
X159095184Y-64006654D01*
X159018428Y-64131097D01*
X158966480Y-64177821D01*
X158912889Y-64190000D01*
X158162698Y-64190000D01*
X158095659Y-64170315D01*
X158057159Y-64131096D01*
X157980212Y-64006344D01*
X157856157Y-63882289D01*
X157856156Y-63882288D01*
X157706834Y-63790186D01*
X157540297Y-63735001D01*
X157540295Y-63735000D01*
X157437510Y-63724500D01*
X156712498Y-63724500D01*
X156712480Y-63724501D01*
X156609703Y-63735000D01*
X156609700Y-63735001D01*
X156443168Y-63790185D01*
X156443163Y-63790187D01*
X156293842Y-63882289D01*
X156169789Y-64006342D01*
X156077687Y-64155663D01*
X156077684Y-64155671D01*
X156073955Y-64166925D01*
X156034182Y-64224369D01*
X155969666Y-64251191D01*
X155900890Y-64238875D01*
X155849691Y-64191332D01*
X155838545Y-64166925D01*
X155837929Y-64165066D01*
X155834814Y-64155666D01*
X155742712Y-64006344D01*
X155618656Y-63882288D01*
X155469334Y-63790186D01*
X155302797Y-63735001D01*
X155302795Y-63735000D01*
X155200010Y-63724500D01*
X154474998Y-63724500D01*
X154474980Y-63724501D01*
X154372203Y-63735000D01*
X154372200Y-63735001D01*
X154205668Y-63790185D01*
X154205663Y-63790187D01*
X154056342Y-63882289D01*
X153932289Y-64006342D01*
X153840187Y-64155663D01*
X153840185Y-64155668D01*
X153812613Y-64238875D01*
X153785001Y-64322203D01*
X153785001Y-64322204D01*
X153785000Y-64322204D01*
X153774500Y-64424983D01*
X153774500Y-65775001D01*
X153774501Y-65775018D01*
X153785000Y-65877796D01*
X153785001Y-65877799D01*
X153835332Y-66029685D01*
X153840186Y-66044334D01*
X153932288Y-66193656D01*
X154056344Y-66317712D01*
X154205666Y-66409814D01*
X154372203Y-66464999D01*
X154474991Y-66475500D01*
X155200008Y-66475499D01*
X155200016Y-66475498D01*
X155200019Y-66475498D01*
X155256302Y-66469748D01*
X155302797Y-66464999D01*
X155469334Y-66409814D01*
X155618656Y-66317712D01*
X155742712Y-66193656D01*
X155834814Y-66044334D01*
X155838543Y-66033077D01*
X155878310Y-65975635D01*
X155942825Y-65948809D01*
X156011601Y-65961120D01*
X156062804Y-66008660D01*
X156073953Y-66033071D01*
X156077616Y-66044124D01*
X156077686Y-66044334D01*
X156169788Y-66193656D01*
X156293844Y-66317712D01*
X156415597Y-66392809D01*
X156462321Y-66444755D01*
X156474500Y-66498347D01*
X156474500Y-66695559D01*
X156454815Y-66762598D01*
X156402011Y-66808353D01*
X156332853Y-66818297D01*
X156295407Y-66806648D01*
X156278696Y-66798360D01*
X156278694Y-66798359D01*
X156278693Y-66798359D01*
X156214071Y-66782288D01*
X156093892Y-66752400D01*
X156072506Y-66750950D01*
X156051123Y-66749500D01*
X156051120Y-66749500D01*
X154648877Y-66749500D01*
X154648874Y-66749501D01*
X154606113Y-66752399D01*
X154606112Y-66752399D01*
X154421303Y-66798360D01*
X154250707Y-66882967D01*
X154250704Y-66882969D01*
X154102278Y-67002277D01*
X154102277Y-67002278D01*
X153982969Y-67150704D01*
X153968146Y-67180594D01*
X153920725Y-67231907D01*
X153857058Y-67249500D01*
X153751085Y-67249500D01*
X153684046Y-67229815D01*
X153638291Y-67177011D01*
X153633379Y-67164504D01*
X153631887Y-67160000D01*
X153597314Y-67055666D01*
X153505212Y-66906344D01*
X153381156Y-66782288D01*
X153288388Y-66725069D01*
X153231836Y-66690187D01*
X153231831Y-66690185D01*
X153203210Y-66680701D01*
X153065297Y-66635001D01*
X153065295Y-66635000D01*
X152962516Y-66624500D01*
X152633510Y-66624500D01*
X152566471Y-66604815D01*
X152520716Y-66552011D01*
X152510772Y-66482853D01*
X152539797Y-66419297D01*
X152568412Y-66394962D01*
X152693656Y-66317712D01*
X152817712Y-66193656D01*
X152909814Y-66044334D01*
X152964999Y-65877797D01*
X152975500Y-65775009D01*
X152975499Y-64424992D01*
X152972367Y-64394336D01*
X152964999Y-64322203D01*
X152964998Y-64322200D01*
X152941468Y-64251191D01*
X152909814Y-64155666D01*
X152817712Y-64006344D01*
X152693656Y-63882288D01*
X152596902Y-63822610D01*
X152550179Y-63770663D01*
X152538000Y-63717072D01*
X152538000Y-61535781D01*
X152557685Y-61468742D01*
X152590877Y-61434206D01*
X152608905Y-61421583D01*
X152727519Y-61338529D01*
X152878529Y-61187519D01*
X153001021Y-61012581D01*
X153091276Y-60819030D01*
X153091280Y-60819013D01*
X153093130Y-60813936D01*
X153094981Y-60814609D01*
X153126847Y-60762328D01*
X153189694Y-60731797D01*
X153259069Y-60740091D01*
X153312948Y-60784575D01*
X153326430Y-60814095D01*
X153327342Y-60813764D01*
X153329197Y-60818859D01*
X153419413Y-61012329D01*
X153458415Y-61068030D01*
X154080000Y-60446445D01*
X154080000Y-60452661D01*
X154107259Y-60554394D01*
X154159920Y-60645606D01*
X154234394Y-60720080D01*
X154325606Y-60772741D01*
X154427339Y-60800000D01*
X154433553Y-60800000D01*
X153811968Y-61421584D01*
X153867663Y-61460582D01*
X153867669Y-61460586D01*
X154061140Y-61550802D01*
X154061146Y-61550805D01*
X154267337Y-61606054D01*
X154267345Y-61606055D01*
X154479998Y-61624660D01*
X154480002Y-61624660D01*
X154692654Y-61606055D01*
X154692662Y-61606054D01*
X154898853Y-61550805D01*
X154898864Y-61550801D01*
X155092325Y-61460589D01*
X155148030Y-61421583D01*
X154526448Y-60800000D01*
X154532661Y-60800000D01*
X154634394Y-60772741D01*
X154725606Y-60720080D01*
X154800080Y-60645606D01*
X154852741Y-60554394D01*
X154880000Y-60452661D01*
X154880000Y-60446446D01*
X155501583Y-61068029D01*
X155540589Y-61012325D01*
X155630801Y-60818864D01*
X155630805Y-60818853D01*
X155686054Y-60612662D01*
X155686055Y-60612654D01*
X155704660Y-60400002D01*
X155704660Y-60399997D01*
X155686055Y-60187345D01*
X155686054Y-60187337D01*
X155630805Y-59981146D01*
X155630802Y-59981140D01*
X155540586Y-59787669D01*
X155540582Y-59787663D01*
X155501584Y-59731968D01*
X154880000Y-60353552D01*
X154880000Y-60347339D01*
X154852741Y-60245606D01*
X154800080Y-60154394D01*
X154725606Y-60079920D01*
X154634394Y-60027259D01*
X154532661Y-60000000D01*
X154526447Y-60000000D01*
X155148030Y-59378415D01*
X155092329Y-59339413D01*
X154898859Y-59249197D01*
X154898853Y-59249194D01*
X154692662Y-59193945D01*
X154692654Y-59193944D01*
X154480002Y-59175340D01*
X154479998Y-59175340D01*
X154267345Y-59193944D01*
X154267337Y-59193945D01*
X154061146Y-59249194D01*
X154061140Y-59249197D01*
X153867671Y-59339412D01*
X153867669Y-59339413D01*
X153811969Y-59378415D01*
X153811968Y-59378415D01*
X154433554Y-60000000D01*
X154427339Y-60000000D01*
X154325606Y-60027259D01*
X154234394Y-60079920D01*
X154159920Y-60154394D01*
X154107259Y-60245606D01*
X154080000Y-60347339D01*
X154080000Y-60353553D01*
X153458415Y-59731968D01*
X153458415Y-59731969D01*
X153419413Y-59787669D01*
X153419412Y-59787671D01*
X153329197Y-59981140D01*
X153327342Y-59986236D01*
X153325445Y-59985545D01*
X153293656Y-60037684D01*
X153230805Y-60068205D01*
X153161431Y-60059901D01*
X153107559Y-60015408D01*
X153094012Y-59985742D01*
X153093130Y-59986064D01*
X153091279Y-59980983D01*
X153091276Y-59980970D01*
X153001021Y-59787419D01*
X152878529Y-59612481D01*
X152878527Y-59612478D01*
X152727521Y-59461472D01*
X152552578Y-59338977D01*
X152552579Y-59338977D01*
X152423547Y-59278809D01*
X152359030Y-59248724D01*
X152359026Y-59248723D01*
X152359022Y-59248721D01*
X152152752Y-59193452D01*
X152152748Y-59193451D01*
X152152747Y-59193451D01*
X152152746Y-59193450D01*
X152152741Y-59193450D01*
X151940002Y-59174838D01*
X151939998Y-59174838D01*
X151727258Y-59193450D01*
X151727247Y-59193452D01*
X151520977Y-59248721D01*
X151520968Y-59248725D01*
X151327421Y-59338977D01*
X151152478Y-59461472D01*
X151001472Y-59612478D01*
X150878977Y-59787421D01*
X150788725Y-59980968D01*
X150786870Y-59986064D01*
X150784749Y-59985292D01*
X150753406Y-60036710D01*
X150690558Y-60067237D01*
X150621183Y-60058939D01*
X150567307Y-60014452D01*
X150554169Y-59985685D01*
X150553130Y-59986064D01*
X150551279Y-59980983D01*
X150551276Y-59980970D01*
X150461021Y-59787419D01*
X150338529Y-59612481D01*
X150338527Y-59612478D01*
X150187521Y-59461472D01*
X150012578Y-59338977D01*
X150012579Y-59338977D01*
X149883547Y-59278809D01*
X149819030Y-59248724D01*
X149819026Y-59248723D01*
X149819022Y-59248721D01*
X149612752Y-59193452D01*
X149612748Y-59193451D01*
X149612747Y-59193451D01*
X149612746Y-59193450D01*
X149612741Y-59193450D01*
X149400002Y-59174838D01*
X149399998Y-59174838D01*
X149187258Y-59193450D01*
X149187247Y-59193452D01*
X148980977Y-59248721D01*
X148980968Y-59248725D01*
X148787421Y-59338977D01*
X148612478Y-59461472D01*
X148461471Y-59612479D01*
X148385049Y-59721623D01*
X148330472Y-59765248D01*
X148283474Y-59774500D01*
X146570089Y-59774500D01*
X146503050Y-59754815D01*
X146457295Y-59702011D01*
X146446731Y-59663102D01*
X146444839Y-59644591D01*
X146439999Y-59597203D01*
X146384814Y-59430666D01*
X146292712Y-59281344D01*
X146168656Y-59157288D01*
X146019334Y-59065186D01*
X145852797Y-59010001D01*
X145852795Y-59010000D01*
X145750010Y-58999500D01*
X144999998Y-58999500D01*
X144999980Y-58999501D01*
X144897203Y-59010000D01*
X144897200Y-59010001D01*
X144730668Y-59065185D01*
X144730663Y-59065187D01*
X144581342Y-59157289D01*
X144457287Y-59281344D01*
X144364921Y-59431096D01*
X144312973Y-59477821D01*
X144259382Y-59490000D01*
X143540032Y-59490000D01*
X143472993Y-59470315D01*
X143434494Y-59431097D01*
X143342319Y-59281659D01*
X143342316Y-59281655D01*
X143218345Y-59157684D01*
X143069124Y-59065643D01*
X143069119Y-59065641D01*
X142902697Y-59010494D01*
X142902690Y-59010493D01*
X142799986Y-59000000D01*
X142675000Y-59000000D01*
X142675000Y-61799999D01*
X142799972Y-61799999D01*
X142799986Y-61799998D01*
X142902697Y-61789505D01*
X143069119Y-61734358D01*
X143069124Y-61734356D01*
X143218345Y-61642315D01*
X143342316Y-61518344D01*
X143342319Y-61518340D01*
X143434494Y-61368903D01*
X143486441Y-61322178D01*
X143540032Y-61310000D01*
X144259382Y-61310000D01*
X144326421Y-61329685D01*
X144364921Y-61368904D01*
X144457095Y-61518344D01*
X144457288Y-61518656D01*
X144581344Y-61642712D01*
X144715597Y-61725519D01*
X144762321Y-61777465D01*
X144774500Y-61831057D01*
X144774500Y-63024902D01*
X144754815Y-63091941D01*
X144738181Y-63112583D01*
X142169481Y-65681282D01*
X142169479Y-65681285D01*
X142119361Y-65768094D01*
X142119359Y-65768096D01*
X142090425Y-65818209D01*
X142090424Y-65818210D01*
X142090423Y-65818215D01*
X142049499Y-65970943D01*
X142049499Y-65970945D01*
X142049499Y-66139046D01*
X142049500Y-66139059D01*
X142049500Y-87668942D01*
X142029815Y-87735981D01*
X141990598Y-87774479D01*
X141904209Y-87827764D01*
X141856342Y-87857289D01*
X141732287Y-87981344D01*
X141639921Y-88131096D01*
X141587973Y-88177821D01*
X141534382Y-88190000D01*
X140815032Y-88190000D01*
X140747993Y-88170315D01*
X140709494Y-88131097D01*
X140617319Y-87981659D01*
X140617316Y-87981655D01*
X140493345Y-87857684D01*
X140344124Y-87765643D01*
X140344119Y-87765641D01*
X140177697Y-87710494D01*
X140177690Y-87710493D01*
X140074986Y-87700000D01*
X139950000Y-87700000D01*
X139950000Y-90499999D01*
X140074972Y-90499999D01*
X140074986Y-90499998D01*
X140177697Y-90489505D01*
X140344119Y-90434358D01*
X140344124Y-90434356D01*
X140493345Y-90342315D01*
X140617316Y-90218344D01*
X140617319Y-90218340D01*
X140709494Y-90068903D01*
X140761441Y-90022178D01*
X140815032Y-90010000D01*
X141534382Y-90010000D01*
X141601421Y-90029685D01*
X141639921Y-90068904D01*
X141732287Y-90218655D01*
X141861451Y-90347819D01*
X141859559Y-90349710D01*
X141892774Y-90396583D01*
X141899500Y-90436867D01*
X141899500Y-91130170D01*
X141894576Y-91164765D01*
X141852402Y-91309926D01*
X141852401Y-91309932D01*
X141849500Y-91346798D01*
X141849500Y-92375500D01*
X141829815Y-92442539D01*
X141777011Y-92488294D01*
X141725500Y-92499500D01*
X139200098Y-92499500D01*
X139133059Y-92479815D01*
X139112417Y-92463181D01*
X137787590Y-91138355D01*
X137787588Y-91138352D01*
X137668717Y-91019481D01*
X137668716Y-91019480D01*
X137581904Y-90969360D01*
X137581904Y-90969359D01*
X137581900Y-90969358D01*
X137531785Y-90940423D01*
X137379057Y-90899499D01*
X137220943Y-90899499D01*
X137213347Y-90899499D01*
X137213331Y-90899500D01*
X133875218Y-90899500D01*
X133808179Y-90879815D01*
X133769679Y-90840597D01*
X133717712Y-90756344D01*
X133593656Y-90632288D01*
X133471755Y-90557099D01*
X133444336Y-90540187D01*
X133444331Y-90540185D01*
X133424009Y-90533451D01*
X133277797Y-90485001D01*
X133277795Y-90485000D01*
X133175010Y-90474500D01*
X131824998Y-90474500D01*
X131824981Y-90474501D01*
X131722203Y-90485000D01*
X131722200Y-90485001D01*
X131555668Y-90540185D01*
X131555663Y-90540187D01*
X131406342Y-90632289D01*
X131282289Y-90756342D01*
X131282288Y-90756344D01*
X131233888Y-90834814D01*
X131230321Y-90840597D01*
X131178373Y-90887321D01*
X131124782Y-90899500D01*
X122511230Y-90899500D01*
X122444191Y-90879815D01*
X122398436Y-90827011D01*
X122388492Y-90757853D01*
X122417517Y-90694297D01*
X122423549Y-90687819D01*
X122453060Y-90658308D01*
X122492712Y-90618656D01*
X122584814Y-90469334D01*
X122639999Y-90302797D01*
X122650500Y-90200009D01*
X122650499Y-89799986D01*
X138625001Y-89799986D01*
X138635494Y-89902697D01*
X138690641Y-90069119D01*
X138690643Y-90069124D01*
X138782684Y-90218345D01*
X138906654Y-90342315D01*
X139055875Y-90434356D01*
X139055880Y-90434358D01*
X139222302Y-90489505D01*
X139222309Y-90489506D01*
X139325019Y-90499999D01*
X139449999Y-90499999D01*
X139450000Y-90499998D01*
X139450000Y-89350000D01*
X138625001Y-89350000D01*
X138625001Y-89799986D01*
X122650499Y-89799986D01*
X122650499Y-89549992D01*
X122650174Y-89546814D01*
X122639999Y-89447203D01*
X122639998Y-89447200D01*
X122606333Y-89345606D01*
X122584814Y-89280666D01*
X122492712Y-89131344D01*
X122368656Y-89007288D01*
X122219334Y-88915186D01*
X122052797Y-88860001D01*
X122052795Y-88860000D01*
X121950016Y-88849500D01*
X121950009Y-88849500D01*
X121287230Y-88849500D01*
X121220191Y-88829815D01*
X121199549Y-88813181D01*
X121067799Y-88681431D01*
X121034314Y-88620108D01*
X121039298Y-88550416D01*
X121067799Y-88506069D01*
X121099368Y-88474500D01*
X121155212Y-88418656D01*
X121166711Y-88400013D01*
X138625000Y-88400013D01*
X138625000Y-88850000D01*
X139450000Y-88850000D01*
X139450000Y-87700000D01*
X139325027Y-87700000D01*
X139325012Y-87700001D01*
X139222302Y-87710494D01*
X139055880Y-87765641D01*
X139055875Y-87765643D01*
X138906654Y-87857684D01*
X138782684Y-87981654D01*
X138690643Y-88130875D01*
X138690641Y-88130880D01*
X138635494Y-88297302D01*
X138635493Y-88297309D01*
X138625000Y-88400013D01*
X121166711Y-88400013D01*
X121247314Y-88269334D01*
X121302499Y-88102797D01*
X121313000Y-88000009D01*
X121312999Y-86649992D01*
X121302499Y-86547203D01*
X121247314Y-86380666D01*
X121155212Y-86231344D01*
X121031156Y-86107288D01*
X121031155Y-86107287D01*
X121013849Y-86096613D01*
X120967124Y-86044665D01*
X120964384Y-86038526D01*
X120915087Y-85919511D01*
X120915080Y-85919498D01*
X120832952Y-85796585D01*
X120790075Y-85753708D01*
X120728416Y-85692049D01*
X120586817Y-85550449D01*
X120553334Y-85489128D01*
X120550500Y-85462770D01*
X120550500Y-85244828D01*
X120555424Y-85210233D01*
X120597597Y-85065073D01*
X120597598Y-85065067D01*
X120600500Y-85028194D01*
X120600500Y-83871806D01*
X120597598Y-83834931D01*
X120592945Y-83818917D01*
X120551745Y-83677106D01*
X120551744Y-83677103D01*
X120551744Y-83677102D01*
X120468081Y-83535635D01*
X120468079Y-83535633D01*
X120468076Y-83535629D01*
X120351870Y-83419423D01*
X120351862Y-83419417D01*
X120210396Y-83335755D01*
X120210393Y-83335754D01*
X120052573Y-83289902D01*
X120052567Y-83289901D01*
X120015701Y-83287000D01*
X120015694Y-83287000D01*
X119617895Y-83287000D01*
X119550856Y-83267315D01*
X119505101Y-83214511D01*
X119495157Y-83145353D01*
X119515671Y-83097003D01*
X119514110Y-83096080D01*
X119551602Y-83032684D01*
X119601744Y-82947898D01*
X119647598Y-82790069D01*
X119650500Y-82753194D01*
X119650500Y-81596806D01*
X119647598Y-81559931D01*
X119647597Y-81559926D01*
X119605424Y-81414765D01*
X119600500Y-81380170D01*
X119600500Y-80736867D01*
X119620185Y-80669828D01*
X119639386Y-80648656D01*
X119638549Y-80647819D01*
X119661819Y-80624549D01*
X119767712Y-80518656D01*
X119844659Y-80393903D01*
X119896607Y-80347179D01*
X119950198Y-80335000D01*
X120699802Y-80335000D01*
X120766841Y-80354685D01*
X120805340Y-80393903D01*
X120882288Y-80518656D01*
X121006344Y-80642712D01*
X121155666Y-80734814D01*
X121322203Y-80789999D01*
X121424991Y-80800500D01*
X122150008Y-80800499D01*
X122150016Y-80800498D01*
X122150019Y-80800498D01*
X122206302Y-80794748D01*
X122252797Y-80789999D01*
X122419334Y-80734814D01*
X122568656Y-80642712D01*
X122692712Y-80518656D01*
X122784814Y-80369334D01*
X122839999Y-80202797D01*
X122850500Y-80100009D01*
X122850499Y-78749992D01*
X122839999Y-78647203D01*
X122784814Y-78480666D01*
X122692712Y-78331344D01*
X122574319Y-78212951D01*
X122540834Y-78151628D01*
X122538000Y-78125270D01*
X122538000Y-77811667D01*
X122557685Y-77744628D01*
X122596905Y-77706127D01*
X122618656Y-77692712D01*
X122742712Y-77568656D01*
X122834814Y-77419334D01*
X122889999Y-77252797D01*
X122900500Y-77150009D01*
X122900500Y-76899500D01*
X122920185Y-76832461D01*
X122972989Y-76786706D01*
X123024500Y-76775500D01*
X123260019Y-76775500D01*
X123327058Y-76795185D01*
X123372813Y-76847989D01*
X123383377Y-76886899D01*
X123385000Y-76902796D01*
X123385001Y-76902799D01*
X123440185Y-77069331D01*
X123440187Y-77069336D01*
X123446920Y-77080252D01*
X123532288Y-77218656D01*
X123656344Y-77342712D01*
X123805666Y-77434814D01*
X123972203Y-77489999D01*
X124074991Y-77500500D01*
X124825008Y-77500499D01*
X124825016Y-77500498D01*
X124825019Y-77500498D01*
X124881302Y-77494748D01*
X124927797Y-77489999D01*
X125094334Y-77434814D01*
X125243656Y-77342712D01*
X125367712Y-77218656D01*
X125459814Y-77069334D01*
X125459814Y-77069333D01*
X125460079Y-77068904D01*
X125512027Y-77022179D01*
X125565618Y-77010000D01*
X126284382Y-77010000D01*
X126351421Y-77029685D01*
X126389921Y-77068904D01*
X126439941Y-77150001D01*
X126482288Y-77218656D01*
X126606344Y-77342712D01*
X126755666Y-77434814D01*
X126922203Y-77489999D01*
X127024991Y-77500500D01*
X127775008Y-77500499D01*
X127775016Y-77500498D01*
X127775019Y-77500498D01*
X127831302Y-77494748D01*
X127877797Y-77489999D01*
X128044334Y-77434814D01*
X128193656Y-77342712D01*
X128317712Y-77218656D01*
X128403080Y-77080250D01*
X128455026Y-77033527D01*
X128523989Y-77022304D01*
X128588071Y-77050147D01*
X128596299Y-77057667D01*
X128600618Y-77061986D01*
X128634103Y-77123309D01*
X128633143Y-77180107D01*
X128614891Y-77252182D01*
X128594357Y-77499994D01*
X128594357Y-77500005D01*
X128614890Y-77747812D01*
X128614892Y-77747824D01*
X128675936Y-77988881D01*
X128775826Y-78216606D01*
X128911833Y-78424782D01*
X128911836Y-78424785D01*
X129080256Y-78607738D01*
X129276491Y-78760474D01*
X129276493Y-78760475D01*
X129494332Y-78878364D01*
X129495190Y-78878828D01*
X129714141Y-78953994D01*
X129728964Y-78959083D01*
X129730386Y-78959571D01*
X129975665Y-79000500D01*
X130224335Y-79000500D01*
X130469614Y-78959571D01*
X130704810Y-78878828D01*
X130923509Y-78760474D01*
X131119744Y-78607738D01*
X131288164Y-78424785D01*
X131424173Y-78216607D01*
X131524063Y-77988881D01*
X131585108Y-77747821D01*
X131586456Y-77731559D01*
X131605643Y-77500005D01*
X131605643Y-77499994D01*
X131585109Y-77252187D01*
X131585107Y-77252175D01*
X131524063Y-77011118D01*
X131424173Y-76783393D01*
X131288166Y-76575217D01*
X131200342Y-76479815D01*
X131119744Y-76392262D01*
X130923509Y-76239526D01*
X130923507Y-76239525D01*
X130923506Y-76239524D01*
X130704811Y-76121172D01*
X130704802Y-76121169D01*
X130469616Y-76040429D01*
X130224335Y-75999500D01*
X129975665Y-75999500D01*
X129768841Y-76034011D01*
X129699476Y-76025629D01*
X129660751Y-75999383D01*
X129178421Y-75517052D01*
X129178420Y-75517051D01*
X129162815Y-75506624D01*
X129079123Y-75450704D01*
X129079121Y-75450701D01*
X129055495Y-75434916D01*
X129055490Y-75434913D01*
X128918917Y-75378343D01*
X128918907Y-75378340D01*
X128773920Y-75349500D01*
X128773918Y-75349500D01*
X128571870Y-75349500D01*
X128504831Y-75329815D01*
X128459076Y-75277011D01*
X128454164Y-75264505D01*
X128445206Y-75237473D01*
X128409814Y-75130666D01*
X128317712Y-74981344D01*
X128193656Y-74857288D01*
X128096237Y-74797200D01*
X128044336Y-74765187D01*
X128044331Y-74765185D01*
X128042862Y-74764698D01*
X127877797Y-74710001D01*
X127877795Y-74710000D01*
X127775010Y-74699500D01*
X127024998Y-74699500D01*
X127024980Y-74699501D01*
X126922203Y-74710000D01*
X126922200Y-74710001D01*
X126755668Y-74765185D01*
X126755663Y-74765187D01*
X126606342Y-74857289D01*
X126482287Y-74981344D01*
X126389921Y-75131096D01*
X126337973Y-75177821D01*
X126284382Y-75190000D01*
X125565618Y-75190000D01*
X125498579Y-75170315D01*
X125460079Y-75131096D01*
X125439887Y-75098360D01*
X125367712Y-74981344D01*
X125243656Y-74857288D01*
X125146237Y-74797200D01*
X125094336Y-74765187D01*
X125094331Y-74765185D01*
X125092862Y-74764698D01*
X124927797Y-74710001D01*
X124927795Y-74710000D01*
X124825010Y-74699500D01*
X124074998Y-74699500D01*
X124074980Y-74699501D01*
X123972203Y-74710000D01*
X123972200Y-74710001D01*
X123805668Y-74765185D01*
X123805663Y-74765187D01*
X123656342Y-74857289D01*
X123532289Y-74981342D01*
X123440187Y-75130663D01*
X123440186Y-75130666D01*
X123422855Y-75182969D01*
X123420689Y-75189505D01*
X123380916Y-75246949D01*
X123316400Y-75273772D01*
X123302983Y-75274500D01*
X123024499Y-75274500D01*
X122957460Y-75254815D01*
X122911705Y-75202011D01*
X122900499Y-75150500D01*
X122900499Y-74899998D01*
X122900498Y-74899981D01*
X122889999Y-74797203D01*
X122889998Y-74797200D01*
X122879390Y-74765187D01*
X122834814Y-74630666D01*
X122742712Y-74481344D01*
X122618656Y-74357288D01*
X122618655Y-74357287D01*
X122609402Y-74351580D01*
X122562678Y-74299632D01*
X122550500Y-74246042D01*
X122550500Y-73762000D01*
X122570185Y-73694961D01*
X122622989Y-73649206D01*
X122674500Y-73638000D01*
X122965686Y-73638000D01*
X122965694Y-73638000D01*
X123002569Y-73635098D01*
X123002571Y-73635097D01*
X123002573Y-73635097D01*
X123044191Y-73623005D01*
X123160398Y-73589244D01*
X123301865Y-73505581D01*
X123418081Y-73389365D01*
X123478986Y-73286380D01*
X123530054Y-73238696D01*
X123585718Y-73225500D01*
X124100270Y-73225500D01*
X124167309Y-73245185D01*
X124187951Y-73261819D01*
X124306344Y-73380212D01*
X124455666Y-73472314D01*
X124622203Y-73527499D01*
X124724991Y-73538000D01*
X126075008Y-73537999D01*
X126177797Y-73527499D01*
X126344334Y-73472314D01*
X126493656Y-73380212D01*
X126617712Y-73256156D01*
X126709814Y-73106834D01*
X126764999Y-72940297D01*
X126775500Y-72837509D01*
X126775499Y-72112492D01*
X126774847Y-72106113D01*
X126764999Y-72009703D01*
X126764998Y-72009700D01*
X126750492Y-71965925D01*
X126709814Y-71843166D01*
X126617712Y-71693844D01*
X126493656Y-71569788D01*
X126380511Y-71500000D01*
X126380501Y-71499994D01*
X128594859Y-71499994D01*
X128594859Y-71500005D01*
X128615385Y-71747729D01*
X128615387Y-71747738D01*
X128676412Y-71988717D01*
X128776266Y-72216364D01*
X128876564Y-72369882D01*
X129617037Y-71629409D01*
X129634075Y-71692993D01*
X129699901Y-71807007D01*
X129792993Y-71900099D01*
X129907007Y-71965925D01*
X129970590Y-71982962D01*
X129229942Y-72723609D01*
X129276768Y-72760055D01*
X129276770Y-72760056D01*
X129495385Y-72878364D01*
X129495396Y-72878369D01*
X129730506Y-72959083D01*
X129975707Y-73000000D01*
X130224293Y-73000000D01*
X130469493Y-72959083D01*
X130704603Y-72878369D01*
X130704614Y-72878364D01*
X130923228Y-72760057D01*
X130923231Y-72760055D01*
X130970056Y-72723609D01*
X130229409Y-71982962D01*
X130292993Y-71965925D01*
X130407007Y-71900099D01*
X130500099Y-71807007D01*
X130565925Y-71692993D01*
X130582962Y-71629410D01*
X131323434Y-72369882D01*
X131423731Y-72216369D01*
X131523587Y-71988717D01*
X131584612Y-71747738D01*
X131584614Y-71747729D01*
X131605141Y-71500005D01*
X131605141Y-71499994D01*
X131584614Y-71252270D01*
X131584612Y-71252261D01*
X131523587Y-71011282D01*
X131423731Y-70783630D01*
X131323434Y-70630116D01*
X130582962Y-71370589D01*
X130565925Y-71307007D01*
X130500099Y-71192993D01*
X130407007Y-71099901D01*
X130292993Y-71034075D01*
X130229410Y-71017037D01*
X130970057Y-70276390D01*
X130970056Y-70276389D01*
X130923229Y-70239943D01*
X130704614Y-70121635D01*
X130704603Y-70121630D01*
X130469493Y-70040916D01*
X130224293Y-70000000D01*
X129975707Y-70000000D01*
X129730506Y-70040916D01*
X129495396Y-70121630D01*
X129495390Y-70121632D01*
X129276761Y-70239949D01*
X129229942Y-70276388D01*
X129229942Y-70276390D01*
X129970590Y-71017037D01*
X129907007Y-71034075D01*
X129792993Y-71099901D01*
X129699901Y-71192993D01*
X129634075Y-71307007D01*
X129617037Y-71370589D01*
X128876564Y-70630116D01*
X128776267Y-70783632D01*
X128676412Y-71011282D01*
X128615387Y-71252261D01*
X128615385Y-71252270D01*
X128594859Y-71499994D01*
X126380501Y-71499994D01*
X126368903Y-71492840D01*
X126322179Y-71440892D01*
X126310000Y-71387301D01*
X126310000Y-70637110D01*
X126329685Y-70570071D01*
X126368904Y-70531571D01*
X126493343Y-70454817D01*
X126617315Y-70330845D01*
X126709356Y-70181624D01*
X126709358Y-70181619D01*
X126764505Y-70015197D01*
X126764506Y-70015190D01*
X126774999Y-69912486D01*
X126775000Y-69912473D01*
X126775000Y-69800000D01*
X124025001Y-69800000D01*
X124025001Y-69912486D01*
X124035494Y-70015197D01*
X124090641Y-70181619D01*
X124090643Y-70181624D01*
X124182684Y-70330845D01*
X124306656Y-70454817D01*
X124431096Y-70531571D01*
X124477821Y-70583518D01*
X124490000Y-70637110D01*
X124490000Y-71387301D01*
X124470315Y-71454340D01*
X124431097Y-71492840D01*
X124306342Y-71569789D01*
X124187951Y-71688181D01*
X124126628Y-71721666D01*
X124100270Y-71724500D01*
X123585718Y-71724500D01*
X123518679Y-71704815D01*
X123478986Y-71663620D01*
X123418085Y-71560641D01*
X123418076Y-71560629D01*
X123301870Y-71444423D01*
X123301862Y-71444417D01*
X123160396Y-71360755D01*
X123160393Y-71360754D01*
X123002573Y-71314902D01*
X123002567Y-71314901D01*
X122965701Y-71312000D01*
X122965694Y-71312000D01*
X122674500Y-71312000D01*
X122607461Y-71292315D01*
X122561706Y-71239511D01*
X122550500Y-71188000D01*
X122550500Y-70994828D01*
X122555424Y-70960233D01*
X122597597Y-70815073D01*
X122597598Y-70815067D01*
X122598869Y-70798914D01*
X122600500Y-70778194D01*
X122600500Y-70512229D01*
X122620185Y-70445190D01*
X122636819Y-70424548D01*
X123432948Y-69628419D01*
X123432951Y-69628416D01*
X123515084Y-69505495D01*
X123571658Y-69368913D01*
X123585366Y-69300000D01*
X123600500Y-69223920D01*
X123600500Y-69187513D01*
X124025000Y-69187513D01*
X124025000Y-69300000D01*
X125150000Y-69300000D01*
X125650000Y-69300000D01*
X126774999Y-69300000D01*
X126774999Y-69187528D01*
X126774998Y-69187513D01*
X126764505Y-69084802D01*
X126709358Y-68918380D01*
X126709356Y-68918375D01*
X126617315Y-68769154D01*
X126493345Y-68645184D01*
X126344124Y-68553143D01*
X126344119Y-68553141D01*
X126177697Y-68497994D01*
X126177690Y-68497993D01*
X126074986Y-68487500D01*
X125650000Y-68487500D01*
X125650000Y-69300000D01*
X125150000Y-69300000D01*
X125150000Y-68487500D01*
X124725028Y-68487500D01*
X124725012Y-68487501D01*
X124622302Y-68497994D01*
X124455880Y-68553141D01*
X124455875Y-68553143D01*
X124306654Y-68645184D01*
X124182684Y-68769154D01*
X124090643Y-68918375D01*
X124090641Y-68918380D01*
X124035494Y-69084802D01*
X124035493Y-69084809D01*
X124025000Y-69187513D01*
X123600500Y-69187513D01*
X123600500Y-68035718D01*
X123620185Y-67968679D01*
X123661380Y-67928986D01*
X123732665Y-67886828D01*
X123764365Y-67868081D01*
X123880581Y-67751865D01*
X123964244Y-67610398D01*
X124000701Y-67484915D01*
X124010097Y-67452573D01*
X124010098Y-67452567D01*
X124013000Y-67415694D01*
X124013000Y-66984306D01*
X124010098Y-66947431D01*
X124000945Y-66915928D01*
X123964245Y-66789606D01*
X123964244Y-66789603D01*
X123964244Y-66789602D01*
X123880581Y-66648135D01*
X123880579Y-66648133D01*
X123880576Y-66648129D01*
X123764370Y-66531923D01*
X123764361Y-66531916D01*
X123661379Y-66471013D01*
X123613695Y-66419944D01*
X123600500Y-66364281D01*
X123600500Y-64949499D01*
X123620185Y-64882460D01*
X123672989Y-64836705D01*
X123724500Y-64825499D01*
X123812502Y-64825499D01*
X123812508Y-64825499D01*
X123915297Y-64814999D01*
X124081834Y-64759814D01*
X124231156Y-64667712D01*
X124355212Y-64543656D01*
X124447314Y-64394334D01*
X124502499Y-64227797D01*
X124513000Y-64125009D01*
X124512999Y-62774992D01*
X124502499Y-62672203D01*
X124447314Y-62505666D01*
X124355212Y-62356344D01*
X124231156Y-62232288D01*
X124081834Y-62140186D01*
X123915297Y-62085001D01*
X123915295Y-62085000D01*
X123812510Y-62074500D01*
X123087498Y-62074500D01*
X123087480Y-62074501D01*
X122984703Y-62085000D01*
X122984700Y-62085001D01*
X122818168Y-62140185D01*
X122818163Y-62140187D01*
X122668842Y-62232289D01*
X122544787Y-62356344D01*
X122467841Y-62481096D01*
X122415893Y-62527821D01*
X122362302Y-62540000D01*
X121612698Y-62540000D01*
X121545659Y-62520315D01*
X121507159Y-62481096D01*
X121430212Y-62356344D01*
X121306157Y-62232289D01*
X121306156Y-62232288D01*
X121156834Y-62140186D01*
X120990297Y-62085001D01*
X120990295Y-62085000D01*
X120887510Y-62074500D01*
X120162498Y-62074500D01*
X120162480Y-62074501D01*
X120059703Y-62085000D01*
X120059700Y-62085001D01*
X119893168Y-62140185D01*
X119893163Y-62140187D01*
X119743842Y-62232289D01*
X119619789Y-62356342D01*
X119527687Y-62505663D01*
X119527685Y-62505668D01*
X119491621Y-62614504D01*
X119451848Y-62671949D01*
X119387333Y-62698772D01*
X119373915Y-62699500D01*
X119361999Y-62699500D01*
X119294960Y-62679815D01*
X119249205Y-62627011D01*
X119237999Y-62575500D01*
X119237999Y-62374998D01*
X119237998Y-62374981D01*
X119227499Y-62272203D01*
X119227498Y-62272200D01*
X119183753Y-62140187D01*
X119172314Y-62105666D01*
X119080212Y-61956344D01*
X118956156Y-61832288D01*
X118845472Y-61764018D01*
X118806836Y-61740187D01*
X118806831Y-61740185D01*
X118789240Y-61734356D01*
X118640297Y-61685001D01*
X118640295Y-61685000D01*
X118537510Y-61674500D01*
X117812498Y-61674500D01*
X117812480Y-61674501D01*
X117709703Y-61685000D01*
X117709700Y-61685001D01*
X117543168Y-61740185D01*
X117543163Y-61740187D01*
X117393842Y-61832289D01*
X117269787Y-61956344D01*
X117192841Y-62081096D01*
X117140893Y-62127821D01*
X117087302Y-62140000D01*
X116337111Y-62140000D01*
X116270072Y-62120315D01*
X116231572Y-62081097D01*
X116154815Y-61956654D01*
X116030845Y-61832684D01*
X115881624Y-61740643D01*
X115881619Y-61740641D01*
X115715197Y-61685494D01*
X115715190Y-61685493D01*
X115612486Y-61675000D01*
X115500000Y-61675000D01*
X115500000Y-64424999D01*
X115612472Y-64424999D01*
X115612486Y-64424998D01*
X115715197Y-64414505D01*
X115881619Y-64359358D01*
X115881624Y-64359356D01*
X116030845Y-64267315D01*
X116154815Y-64143345D01*
X116231572Y-64018903D01*
X116283520Y-63972179D01*
X116337111Y-63960000D01*
X117087302Y-63960000D01*
X117154341Y-63979685D01*
X117192840Y-64018903D01*
X117197268Y-64026082D01*
X117262041Y-64131097D01*
X117269788Y-64143656D01*
X117393844Y-64267712D01*
X117543166Y-64359814D01*
X117709703Y-64414999D01*
X117812491Y-64425500D01*
X118537508Y-64425499D01*
X118537516Y-64425498D01*
X118537519Y-64425498D01*
X118593802Y-64419748D01*
X118640297Y-64414999D01*
X118806834Y-64359814D01*
X118956156Y-64267712D01*
X118987049Y-64236819D01*
X119048372Y-64203334D01*
X119074730Y-64200500D01*
X119373915Y-64200500D01*
X119440954Y-64220185D01*
X119486709Y-64272989D01*
X119491618Y-64285489D01*
X119516096Y-64359358D01*
X119527685Y-64394331D01*
X119527687Y-64394336D01*
X119546600Y-64424999D01*
X119619788Y-64543656D01*
X119743844Y-64667712D01*
X119765594Y-64681127D01*
X119812320Y-64733073D01*
X119824500Y-64786667D01*
X119824500Y-65375500D01*
X119804815Y-65442539D01*
X119752011Y-65488294D01*
X119700500Y-65499500D01*
X119046870Y-65499500D01*
X118979831Y-65479815D01*
X118934076Y-65427011D01*
X118929164Y-65414505D01*
X118904475Y-65340000D01*
X118884814Y-65280666D01*
X118792712Y-65131344D01*
X118668656Y-65007288D01*
X118519334Y-64915186D01*
X118352797Y-64860001D01*
X118352795Y-64860000D01*
X118250010Y-64849500D01*
X117499998Y-64849500D01*
X117499980Y-64849501D01*
X117397203Y-64860000D01*
X117397200Y-64860001D01*
X117230668Y-64915185D01*
X117230663Y-64915187D01*
X117081342Y-65007289D01*
X116957287Y-65131344D01*
X116864921Y-65281096D01*
X116812973Y-65327821D01*
X116759382Y-65340000D01*
X116040618Y-65340000D01*
X115973579Y-65320315D01*
X115935079Y-65281096D01*
X115878724Y-65189730D01*
X115842712Y-65131344D01*
X115718656Y-65007288D01*
X115569334Y-64915186D01*
X115402797Y-64860001D01*
X115402795Y-64860000D01*
X115300010Y-64849500D01*
X114549998Y-64849500D01*
X114549980Y-64849501D01*
X114447203Y-64860000D01*
X114447200Y-64860001D01*
X114280668Y-64915185D01*
X114280663Y-64915187D01*
X114131342Y-65007289D01*
X114007289Y-65131342D01*
X113915187Y-65280663D01*
X113915185Y-65280668D01*
X113899560Y-65327821D01*
X113860001Y-65447203D01*
X113860001Y-65447204D01*
X113860000Y-65447204D01*
X113849500Y-65549983D01*
X113849500Y-66950001D01*
X113849501Y-66950018D01*
X113860000Y-67052796D01*
X113860001Y-67052799D01*
X113915185Y-67219331D01*
X113915187Y-67219336D01*
X113917021Y-67222309D01*
X114007287Y-67368655D01*
X114007289Y-67368657D01*
X114113181Y-67474549D01*
X114146666Y-67535872D01*
X114149500Y-67562230D01*
X114149500Y-68000270D01*
X114129815Y-68067309D01*
X114113181Y-68087951D01*
X113994788Y-68206343D01*
X113994787Y-68206344D01*
X113917841Y-68331096D01*
X113865893Y-68377821D01*
X113812302Y-68390000D01*
X113062698Y-68390000D01*
X112995659Y-68370315D01*
X112957159Y-68331096D01*
X112943346Y-68308702D01*
X112880212Y-68206344D01*
X112756156Y-68082288D01*
X112627105Y-68002689D01*
X112606836Y-67990187D01*
X112606831Y-67990185D01*
X112585682Y-67983177D01*
X112440297Y-67935001D01*
X112440295Y-67935000D01*
X112337510Y-67924500D01*
X111612498Y-67924500D01*
X111612480Y-67924501D01*
X111509703Y-67935000D01*
X111509700Y-67935001D01*
X111343168Y-67990185D01*
X111343163Y-67990187D01*
X111193842Y-68082289D01*
X111069789Y-68206342D01*
X111027073Y-68275597D01*
X110975125Y-68322321D01*
X110921534Y-68334500D01*
X109612309Y-68334500D01*
X109545270Y-68314815D01*
X109524628Y-68298181D01*
X108812293Y-67585846D01*
X108828942Y-67578951D01*
X108959970Y-67491401D01*
X109071401Y-67379970D01*
X109158951Y-67248942D01*
X109165846Y-67232294D01*
X109887703Y-67954151D01*
X109887704Y-67954150D01*
X109941393Y-67886828D01*
X109941400Y-67886817D01*
X110076290Y-67653181D01*
X110174851Y-67402052D01*
X110174857Y-67402033D01*
X110234886Y-67139028D01*
X110234886Y-67139026D01*
X110255047Y-66870004D01*
X110255047Y-66869995D01*
X110234886Y-66600973D01*
X110234886Y-66600971D01*
X110174857Y-66337966D01*
X110174851Y-66337947D01*
X110076290Y-66086818D01*
X110076291Y-66086818D01*
X109941397Y-65853177D01*
X109887704Y-65785847D01*
X109165846Y-66507705D01*
X109158951Y-66491058D01*
X109071401Y-66360030D01*
X108959970Y-66248599D01*
X108828942Y-66161049D01*
X108812294Y-66154153D01*
X109535150Y-65431296D01*
X109352517Y-65306779D01*
X109352516Y-65306778D01*
X109109460Y-65189730D01*
X109109462Y-65189730D01*
X108851662Y-65110209D01*
X108851656Y-65110207D01*
X108584898Y-65070000D01*
X108315101Y-65070000D01*
X108048343Y-65110207D01*
X108048337Y-65110209D01*
X107790538Y-65189730D01*
X107547485Y-65306778D01*
X107547476Y-65306783D01*
X107364848Y-65431296D01*
X108087705Y-66154153D01*
X108071058Y-66161049D01*
X107940030Y-66248599D01*
X107828599Y-66360030D01*
X107741049Y-66491058D01*
X107734153Y-66507706D01*
X107012295Y-65785848D01*
X106958600Y-65853180D01*
X106823709Y-66086818D01*
X106725148Y-66337947D01*
X106725142Y-66337966D01*
X106665113Y-66600971D01*
X106665113Y-66600973D01*
X106644953Y-66869995D01*
X106644953Y-66870004D01*
X106665113Y-67139026D01*
X106665113Y-67139028D01*
X106725142Y-67402033D01*
X106725148Y-67402052D01*
X106774706Y-67528324D01*
X106780875Y-67597921D01*
X106748437Y-67659804D01*
X106687692Y-67694327D01*
X106622729Y-67692117D01*
X106517973Y-67659804D01*
X106400623Y-67623606D01*
X106400619Y-67623605D01*
X106400615Y-67623604D01*
X106270268Y-67603957D01*
X106141187Y-67584500D01*
X106141182Y-67584500D01*
X105878818Y-67584500D01*
X105878812Y-67584500D01*
X105717247Y-67608853D01*
X105619385Y-67623604D01*
X105619382Y-67623605D01*
X105619376Y-67623606D01*
X105368673Y-67700938D01*
X105171052Y-67796107D01*
X105102111Y-67807459D01*
X105037976Y-67779736D01*
X104999011Y-67721741D01*
X104997586Y-67651886D01*
X105001823Y-67639085D01*
X105094851Y-67402052D01*
X105094857Y-67402033D01*
X105154886Y-67139028D01*
X105154886Y-67139026D01*
X105175047Y-66870004D01*
X105175047Y-66869995D01*
X105154886Y-66600973D01*
X105154886Y-66600971D01*
X105094857Y-66337966D01*
X105094851Y-66337947D01*
X104996290Y-66086818D01*
X104996291Y-66086818D01*
X104861397Y-65853177D01*
X104807704Y-65785847D01*
X104085846Y-66507705D01*
X104078951Y-66491058D01*
X103991401Y-66360030D01*
X103879970Y-66248599D01*
X103748942Y-66161049D01*
X103732294Y-66154153D01*
X104455150Y-65431296D01*
X104272517Y-65306779D01*
X104272516Y-65306778D01*
X104029460Y-65189730D01*
X104029462Y-65189730D01*
X103771662Y-65110209D01*
X103771656Y-65110207D01*
X103504898Y-65070000D01*
X103235101Y-65070000D01*
X102968343Y-65110207D01*
X102968337Y-65110209D01*
X102710538Y-65189730D01*
X102467485Y-65306778D01*
X102467476Y-65306783D01*
X102284848Y-65431296D01*
X103007705Y-66154153D01*
X102991058Y-66161049D01*
X102860030Y-66248599D01*
X102748599Y-66360030D01*
X102661049Y-66491058D01*
X102654153Y-66507706D01*
X101932295Y-65785848D01*
X101878600Y-65853180D01*
X101743709Y-66086818D01*
X101645148Y-66337947D01*
X101645142Y-66337966D01*
X101585113Y-66600971D01*
X101585113Y-66600973D01*
X101564953Y-66869995D01*
X100500500Y-66869995D01*
X100500500Y-63724986D01*
X114187501Y-63724986D01*
X114197994Y-63827697D01*
X114253141Y-63994119D01*
X114253143Y-63994124D01*
X114345184Y-64143345D01*
X114469154Y-64267315D01*
X114618375Y-64359356D01*
X114618380Y-64359358D01*
X114784802Y-64414505D01*
X114784809Y-64414506D01*
X114887519Y-64424999D01*
X114999999Y-64424999D01*
X115000000Y-64424998D01*
X115000000Y-63300000D01*
X114187501Y-63300000D01*
X114187501Y-63724986D01*
X100500500Y-63724986D01*
X100500500Y-62375013D01*
X114187500Y-62375013D01*
X114187500Y-62800000D01*
X115000000Y-62800000D01*
X115000000Y-61675000D01*
X114887527Y-61675000D01*
X114887512Y-61675001D01*
X114784802Y-61685494D01*
X114618380Y-61740641D01*
X114618375Y-61740643D01*
X114469154Y-61832684D01*
X114345184Y-61956654D01*
X114253143Y-62105875D01*
X114253141Y-62105880D01*
X114197994Y-62272302D01*
X114197993Y-62272309D01*
X114187500Y-62375013D01*
X100500500Y-62375013D01*
X100500500Y-61099986D01*
X141350001Y-61099986D01*
X141360494Y-61202697D01*
X141415641Y-61369119D01*
X141415643Y-61369124D01*
X141507684Y-61518345D01*
X141631654Y-61642315D01*
X141780875Y-61734356D01*
X141780880Y-61734358D01*
X141947302Y-61789505D01*
X141947309Y-61789506D01*
X142050019Y-61799999D01*
X142174999Y-61799999D01*
X142175000Y-61799998D01*
X142175000Y-60650000D01*
X141350001Y-60650000D01*
X141350001Y-61099986D01*
X100500500Y-61099986D01*
X100500500Y-59700013D01*
X141350000Y-59700013D01*
X141350000Y-60150000D01*
X142175000Y-60150000D01*
X142175000Y-59000000D01*
X142050027Y-59000000D01*
X142050012Y-59000001D01*
X141947302Y-59010494D01*
X141780880Y-59065641D01*
X141780875Y-59065643D01*
X141631654Y-59157684D01*
X141507684Y-59281654D01*
X141415643Y-59430875D01*
X141415641Y-59430880D01*
X141360494Y-59597302D01*
X141360493Y-59597309D01*
X141350000Y-59700013D01*
X100500500Y-59700013D01*
X100500500Y-55072626D01*
X100520185Y-55005587D01*
X100523400Y-55002801D01*
X100721054Y-55002801D01*
X100743477Y-55037691D01*
X100748360Y-55066726D01*
X100764447Y-55404450D01*
X100822071Y-55805231D01*
X100917531Y-56198722D01*
X100917534Y-56198733D01*
X101049956Y-56581340D01*
X101049966Y-56581365D01*
X101218168Y-56949675D01*
X101420621Y-57300335D01*
X101420627Y-57300343D01*
X101655485Y-57630154D01*
X101822985Y-57823460D01*
X103313098Y-56333347D01*
X103380076Y-56420635D01*
X103579365Y-56619924D01*
X103666650Y-56686900D01*
X102174928Y-58178622D01*
X102213676Y-58215568D01*
X102213695Y-58215585D01*
X102531968Y-58465877D01*
X102872594Y-58684782D01*
X103232485Y-58870319D01*
X103608383Y-59020806D01*
X103608395Y-59020810D01*
X103996882Y-59134880D01*
X103996899Y-59134884D01*
X104394460Y-59211508D01*
X104394472Y-59211510D01*
X104797554Y-59250000D01*
X105202446Y-59250000D01*
X105605527Y-59211510D01*
X105605539Y-59211508D01*
X106003100Y-59134884D01*
X106003117Y-59134880D01*
X106391604Y-59020810D01*
X106391616Y-59020806D01*
X106767507Y-58870322D01*
X106767511Y-58870320D01*
X107127406Y-58684782D01*
X107468031Y-58465877D01*
X107786314Y-58215578D01*
X107825069Y-58178622D01*
X106333348Y-56686901D01*
X106420635Y-56619924D01*
X106619924Y-56420635D01*
X106686901Y-56333348D01*
X108177012Y-57823459D01*
X108344512Y-57630156D01*
X108344523Y-57630143D01*
X108579372Y-57300343D01*
X108579378Y-57300335D01*
X108781831Y-56949675D01*
X108950033Y-56581365D01*
X108950043Y-56581340D01*
X109082465Y-56198733D01*
X109082468Y-56198722D01*
X109177928Y-55805231D01*
X109235552Y-55404450D01*
X109254818Y-55000000D01*
X190745181Y-55000000D01*
X190764447Y-55404450D01*
X190822071Y-55805231D01*
X190917531Y-56198722D01*
X190917534Y-56198733D01*
X191049956Y-56581340D01*
X191049966Y-56581365D01*
X191218168Y-56949675D01*
X191420621Y-57300335D01*
X191420627Y-57300343D01*
X191655485Y-57630154D01*
X191822985Y-57823460D01*
X193313098Y-56333347D01*
X193380076Y-56420635D01*
X193579365Y-56619924D01*
X193666650Y-56686900D01*
X192174928Y-58178622D01*
X192213676Y-58215568D01*
X192213695Y-58215585D01*
X192531968Y-58465877D01*
X192872594Y-58684782D01*
X193232485Y-58870319D01*
X193608383Y-59020806D01*
X193608395Y-59020810D01*
X193996882Y-59134880D01*
X193996899Y-59134884D01*
X194394460Y-59211508D01*
X194394472Y-59211510D01*
X194797554Y-59250000D01*
X195202446Y-59250000D01*
X195605527Y-59211510D01*
X195605539Y-59211508D01*
X196003100Y-59134884D01*
X196003117Y-59134880D01*
X196391604Y-59020810D01*
X196391616Y-59020806D01*
X196767507Y-58870322D01*
X196767511Y-58870320D01*
X197127406Y-58684782D01*
X197468031Y-58465877D01*
X197786314Y-58215578D01*
X197825069Y-58178622D01*
X196333348Y-56686901D01*
X196420635Y-56619924D01*
X196619924Y-56420635D01*
X196686901Y-56333348D01*
X198177012Y-57823459D01*
X198344512Y-57630156D01*
X198344523Y-57630143D01*
X198579372Y-57300343D01*
X198579378Y-57300335D01*
X198781831Y-56949675D01*
X198950033Y-56581365D01*
X198950043Y-56581340D01*
X199082465Y-56198733D01*
X199082468Y-56198722D01*
X199177928Y-55805231D01*
X199235552Y-55404450D01*
X199251640Y-55066726D01*
X199274493Y-55000699D01*
X199278945Y-54997197D01*
X199256523Y-54962308D01*
X199251640Y-54933273D01*
X199235552Y-54595549D01*
X199177928Y-54194768D01*
X199082468Y-53801277D01*
X199082465Y-53801266D01*
X198950043Y-53418659D01*
X198950033Y-53418634D01*
X198781831Y-53050324D01*
X198579378Y-52699664D01*
X198579372Y-52699656D01*
X198344523Y-52369856D01*
X198344512Y-52369843D01*
X198177013Y-52176538D01*
X196686900Y-53666650D01*
X196619924Y-53579365D01*
X196420635Y-53380076D01*
X196333348Y-53313098D01*
X197825070Y-51821376D01*
X197786323Y-51784431D01*
X197786304Y-51784414D01*
X197468031Y-51534122D01*
X197127406Y-51315217D01*
X196767511Y-51129679D01*
X196767507Y-51129677D01*
X196391616Y-50979193D01*
X196391604Y-50979189D01*
X196003117Y-50865119D01*
X196003100Y-50865115D01*
X195605539Y-50788491D01*
X195605527Y-50788489D01*
X195202446Y-50750000D01*
X194797554Y-50750000D01*
X194394472Y-50788489D01*
X194394460Y-50788491D01*
X193996899Y-50865115D01*
X193996882Y-50865119D01*
X193608395Y-50979189D01*
X193608383Y-50979193D01*
X193232485Y-51129680D01*
X192872594Y-51315217D01*
X192531968Y-51534122D01*
X192213685Y-51784421D01*
X192213673Y-51784432D01*
X192174929Y-51821375D01*
X192174929Y-51821376D01*
X193666651Y-53313098D01*
X193579365Y-53380076D01*
X193380076Y-53579365D01*
X193313098Y-53666651D01*
X191822986Y-52176539D01*
X191655485Y-52369845D01*
X191420627Y-52699656D01*
X191420621Y-52699664D01*
X191218168Y-53050324D01*
X191049966Y-53418634D01*
X191049956Y-53418659D01*
X190917534Y-53801266D01*
X190917531Y-53801277D01*
X190822071Y-54194768D01*
X190764447Y-54595549D01*
X190745181Y-55000000D01*
X109254818Y-55000000D01*
X109235552Y-54595549D01*
X109177928Y-54194768D01*
X109082468Y-53801277D01*
X109082465Y-53801266D01*
X108950043Y-53418659D01*
X108950033Y-53418634D01*
X108781831Y-53050324D01*
X108579378Y-52699664D01*
X108579372Y-52699656D01*
X108344523Y-52369856D01*
X108344512Y-52369843D01*
X108177013Y-52176538D01*
X106686900Y-53666650D01*
X106619924Y-53579365D01*
X106420635Y-53380076D01*
X106333348Y-53313098D01*
X107825070Y-51821376D01*
X107786323Y-51784431D01*
X107786304Y-51784414D01*
X107468031Y-51534122D01*
X107127406Y-51315217D01*
X106767511Y-51129679D01*
X106767507Y-51129677D01*
X106391616Y-50979193D01*
X106391604Y-50979189D01*
X106003117Y-50865119D01*
X106003100Y-50865115D01*
X105605539Y-50788491D01*
X105605527Y-50788489D01*
X105202446Y-50750000D01*
X104797554Y-50750000D01*
X104394472Y-50788489D01*
X104394460Y-50788491D01*
X103996899Y-50865115D01*
X103996882Y-50865119D01*
X103608395Y-50979189D01*
X103608383Y-50979193D01*
X103232485Y-51129680D01*
X102872594Y-51315217D01*
X102531968Y-51534122D01*
X102213685Y-51784421D01*
X102213673Y-51784432D01*
X102174929Y-51821375D01*
X102174929Y-51821376D01*
X103666651Y-53313098D01*
X103579365Y-53380076D01*
X103380076Y-53579365D01*
X103313098Y-53666651D01*
X101822986Y-52176539D01*
X101655485Y-52369845D01*
X101420627Y-52699656D01*
X101420621Y-52699664D01*
X101218168Y-53050324D01*
X101049966Y-53418634D01*
X101049956Y-53418659D01*
X100917534Y-53801266D01*
X100917531Y-53801277D01*
X100822071Y-54194768D01*
X100764447Y-54595549D01*
X100748360Y-54933273D01*
X100725507Y-54999300D01*
X100721054Y-55002801D01*
X100523400Y-55002801D01*
X100528242Y-54998605D01*
X100503995Y-54956607D01*
X100500500Y-54927373D01*
X100500500Y-50624500D01*
X100520185Y-50557461D01*
X100572989Y-50511706D01*
X100624500Y-50500500D01*
X199375500Y-50500500D01*
X199442539Y-50520185D01*
G37*
G04 #@! TD.AperFunction*
M02*
